<svg width="100" height="100" viewBox="0 0 100 100" fill="none" xmlns="http://www.w3.org/2000/svg">
<path fill-rule="evenodd" clip-rule="evenodd" d="M78.0325 40.1072C80.8958 40.1072 83.4881 38.9484 85.3618 37.0709C87.2393 35.1972 88.3981 32.6049 88.3981 29.7416C88.3981 26.8783 87.2393 24.2859 85.3618 22.4122C83.4844 20.5348 80.8958 19.376 78.0325 19.376C75.1692 19.376 72.5769 20.5348 70.7031 22.4122C68.8257 24.2897 67.6669 26.8783 67.6669 29.7416C67.6669 32.6049 68.8257 35.1972 70.7031 37.0709C72.5769 38.9484 75.1692 40.1072 78.0325 40.1072ZM23.6341 42.2631V31.0737H22.4301C21.6551 31.0737 20.9514 30.7576 20.4435 30.2497C19.9356 29.7418 19.6195 29.0382 19.6195 28.2631C19.6195 27.488 19.9356 26.7844 20.4435 26.2765C20.9515 25.7686 21.655 25.4525 22.4301 25.4525C23.2052 25.4525 23.9088 25.7686 24.4167 26.2765C24.9246 26.7845 25.2407 27.488 25.2407 28.2631V29.4709H27.0956V28.2669C27.0956 27.4918 27.4117 26.7882 27.9196 26.2803C28.4275 25.7723 29.1311 25.4563 29.9062 25.4563C30.6813 25.4563 31.3849 25.7723 31.8928 26.2803C32.4007 26.7882 32.7168 27.4918 32.7168 28.2669C32.7168 29.0419 32.4007 29.7456 31.8928 30.2535C31.3849 30.7614 30.6813 31.0774 29.9062 31.0774H28.7022V42.2669H30.8167C31.3698 40.6716 32.2427 38.1921 33.6875 36.8339C34.7711 35.8105 35.6478 34.5763 36.2459 33.1918C36.8216 31.8637 37.1376 30.3926 37.1376 28.8424C37.1376 25.8137 35.9111 23.0708 33.9245 21.0842C31.9379 19.0976 29.195 17.8711 26.1663 17.8711C23.1375 17.8711 20.3946 19.0976 18.408 21.0842C16.4214 23.0708 15.1949 25.8137 15.1949 28.8424C15.1949 30.3926 15.5147 31.8637 16.0866 33.1918C16.6848 34.5727 17.5615 35.8106 18.6451 36.8339C20.0898 38.1922 20.9627 40.6679 21.5159 42.2669L23.6341 42.2631ZM27.0918 42.2631H25.2406V31.0737H27.0956L27.0918 42.2631ZM23.6341 29.4709H22.4301C22.099 29.4709 21.798 29.3355 21.5798 29.1172C21.3616 28.899 21.2261 28.598 21.2261 28.2669C21.2261 27.9358 21.3616 27.6348 21.5798 27.4166C21.798 27.1984 22.099 27.0629 22.4301 27.0629C22.7612 27.0629 23.0622 27.1984 23.2804 27.4166C23.4987 27.6348 23.6341 27.9358 23.6341 28.2669V29.4709ZM28.6984 29.4709V28.2669C28.6984 27.9358 28.8339 27.6348 29.0521 27.4166C29.2703 27.1984 29.5713 27.0629 29.9024 27.0629C30.2335 27.0629 30.5345 27.1984 30.7527 27.4166C30.9709 27.6348 31.1064 27.9358 31.1064 28.2669C31.1064 28.598 30.9709 28.899 30.7527 29.1172C30.5345 29.3355 30.2335 29.4709 29.9024 29.4709H28.6984ZM39.1924 21.9422C38.8086 22.1604 38.3195 22.0287 38.1013 21.6487C37.8831 21.265 38.0148 20.7758 38.3948 20.5576L41.1301 18.9774C41.5138 18.7592 42.003 18.8909 42.2212 19.2709C42.4394 19.6547 42.3077 20.1438 41.9277 20.362L39.1924 21.9422ZM34.1507 16.3135C33.9287 16.6973 33.4396 16.8252 33.0558 16.6032C32.672 16.3812 32.5441 15.8921 32.7623 15.5083L34.3425 12.773C34.5645 12.3893 35.0537 12.2614 35.4374 12.4796C35.8212 12.7016 35.9491 13.1907 35.7271 13.5744L34.1507 16.3135ZM13.939 20.5575C14.3228 20.7795 14.4507 21.2686 14.2287 21.6524C14.0067 22.0362 13.5176 22.1641 13.1338 21.9421L10.3985 20.3619C10.0148 20.1399 9.88685 19.6508 10.1088 19.267C10.3308 18.8832 10.8199 18.7553 11.2037 18.9735L13.939 20.5575ZM19.5677 15.512C19.7859 15.8958 19.6542 16.3849 19.2742 16.6031C18.8905 16.8213 18.4013 16.6897 18.1831 16.3096L16.6029 13.5744C16.3809 13.1906 16.5164 12.7015 16.8964 12.4833C17.2802 12.265 17.7693 12.3967 17.9875 12.7767L19.5677 15.512ZM26.9685 13.9581C26.9685 14.4021 26.6073 14.7595 26.1671 14.7595C25.7231 14.7595 25.3657 14.3983 25.3657 13.9581V10.8014C25.3657 10.3574 25.7269 10 26.1671 10C26.6111 10 26.9685 10.3574 26.9685 10.8014V13.9581ZM32.2736 46.4168V48.0911C32.2736 49.0054 31.9011 49.8369 31.2991 50.4352C30.8062 50.928 30.1628 51.2667 29.4442 51.372C29.2674 52.0079 28.9137 52.5685 28.4471 53.0049C27.8112 53.5956 26.9647 53.9568 26.0316 53.9568C25.0986 53.9568 24.2519 53.5956 23.6161 53.0049C23.1458 52.5685 22.7959 52.0041 22.619 51.372C21.9004 51.2629 21.257 50.9243 20.7641 50.4352C20.1621 49.8332 19.7896 49.0016 19.7896 48.0911V46.3265C19.53 46.2174 19.2967 46.0632 19.1011 45.8675C18.7173 45.4838 18.4803 44.957 18.4803 44.3776C18.4803 43.7944 18.7173 43.2677 19.1011 42.8876C19.3156 42.6731 19.5789 42.5038 19.8686 42.3947C19.3645 40.9574 18.612 39.001 17.5471 38.0001C16.3093 36.8338 15.3047 35.4153 14.6161 33.8238C13.9539 32.2925 13.5852 30.6069 13.5852 28.8423C13.5852 25.3695 14.9924 22.2241 17.2687 19.9515C19.545 17.6752 22.6904 16.268 26.1595 16.268C29.6323 16.268 32.7777 17.6752 35.0502 19.9515C37.3266 22.2278 38.7337 25.3695 38.7337 28.8423C38.7337 30.6068 38.365 32.2924 37.7028 33.8238C37.0142 35.4153 36.0134 36.8338 34.7718 38.0001C33.707 39.001 32.9545 40.9574 32.4503 42.3947C32.7438 42.5001 33.0034 42.6694 33.2178 42.8876C33.5978 43.2714 33.8386 43.7981 33.8386 44.3776C33.8386 44.9607 33.6016 45.4874 33.2178 45.8675C32.9695 46.1271 32.6423 46.3227 32.2736 46.4168ZM27.7022 51.4096H24.3649C24.459 51.5676 24.5756 51.7106 24.7073 51.8348C25.0534 52.1584 25.52 52.354 26.0317 52.354C26.5434 52.354 27.0099 52.1584 27.3561 51.8348C27.4915 51.7106 27.6081 51.5676 27.7022 51.4096ZM21.3962 46.4883V48.0911C21.3962 48.5614 21.5881 48.9903 21.9004 49.3026C22.2127 49.6149 22.6416 49.8068 23.1119 49.8068H28.955C29.4253 49.8068 29.8543 49.6149 30.1665 49.3026C30.4788 48.9903 30.6707 48.5614 30.6707 48.0911V46.4883H21.3962ZM31.739 43.8695H20.591C20.4518 43.8695 20.3276 43.926 20.2336 44.02C20.1433 44.1103 20.0831 44.2383 20.0831 44.3775C20.0831 44.5167 20.1395 44.6408 20.2336 44.7349C20.3239 44.8252 20.4518 44.8854 20.591 44.8854H31.7352C31.8744 44.8854 31.9985 44.829 32.0926 44.7349C32.1829 44.6446 32.2431 44.5167 32.2431 44.3775C32.2431 44.2383 32.1867 44.1141 32.0926 44.02C32.0061 43.926 31.8782 43.8695 31.739 43.8695ZM45.9683 72.9763C46.7735 71.1364 47.9737 69.56 49.4449 68.3899C51.2057 66.9865 53.3503 66.1663 55.6642 66.1663C57.9818 66.1663 60.1303 66.9902 61.8911 68.3974C63.3622 69.5713 64.5662 71.1553 65.3676 73.0026C67.1209 70.9746 68.1443 68.4989 68.3926 65.9291C68.6899 62.8477 67.8734 59.6307 65.8605 56.8916L65.8266 56.8427L65.7664 56.7637C65.7025 56.6772 65.7138 56.6922 65.6949 56.6659L65.6761 56.6396C65.6385 56.5906 65.5934 56.5342 65.5369 56.4702C63.351 53.8215 60.2808 52.2638 57.0638 51.9139C53.8469 51.5602 50.487 52.4143 47.7403 54.5927C47.6839 54.6378 47.6162 54.6943 47.5297 54.762C44.8056 57.0119 43.248 60.1537 42.9357 63.4157C42.6234 66.6778 43.5565 70.0602 45.8065 72.7881C45.8516 72.8408 45.9081 72.9048 45.9683 72.9763ZM64.1409 74.2368C64.0167 74.3459 63.9114 74.4362 63.8286 74.5077C61.2024 76.6749 57.929 77.6343 54.7347 77.401C52.0144 77.2016 49.3506 76.1406 47.1947 74.2217C47.8832 72.363 49.0195 70.779 50.4455 69.6428C51.928 68.4613 53.7302 67.7691 55.6678 67.7691C57.6093 67.7691 59.4153 68.4651 60.8977 69.6503C62.32 70.7866 63.4561 72.3743 64.1409 74.2368ZM55.664 55.7482C57.0975 55.7482 58.3955 56.3314 59.3362 57.2683C60.2768 58.2089 60.8562 59.5069 60.8562 60.9404C60.8562 62.374 60.2768 63.672 59.3362 64.6126C58.3956 65.5532 57.0975 66.1326 55.664 66.1326C54.2305 66.1326 52.9325 65.5494 51.9918 64.6126C51.0512 63.672 50.4718 62.374 50.4718 60.9404C50.4718 59.5069 51.0512 58.2089 51.9918 57.2683C52.9324 56.3314 54.2305 55.7482 55.664 55.7482ZM58.1999 58.4045C58.8471 59.0517 59.2496 59.9509 59.2496 60.9404C59.2496 61.9299 58.847 62.8254 58.1999 63.4763C57.549 64.1272 56.6535 64.526 55.664 64.526C54.6745 64.526 53.779 64.1234 53.1281 63.4763C52.481 62.8292 52.0784 61.9299 52.0784 60.9404C52.0784 59.9509 52.481 59.0555 53.1281 58.4045C53.7753 57.7574 54.6745 57.3548 55.664 57.3548C56.6535 57.3548 57.5527 57.7537 58.1999 58.4045ZM69.9836 66.0762C69.6488 69.564 68.046 72.9013 65.2655 75.377L65.2542 75.3883C65.1451 75.4861 65.0097 75.6027 64.8404 75.7382C61.8831 78.1762 58.2034 79.2561 54.618 78.9965C51.0248 78.7369 47.5219 77.1341 44.9225 74.2144C44.8246 74.1053 44.708 73.9661 44.565 73.7968C42.0329 70.7304 40.9869 66.9265 41.3368 63.2585C41.6867 59.59 43.44 56.0533 46.5064 53.5215C46.5704 53.4689 46.6494 53.4049 46.7435 53.3334C49.84 50.884 53.6137 49.9208 57.2298 50.3159C60.8458 50.711 64.307 52.4681 66.7676 55.4479C66.809 55.5006 66.8617 55.5645 66.9219 55.6398C66.9369 55.6548 66.952 55.6737 66.9633 55.6925L67.0498 55.8053C67.1062 55.8806 67.0536 55.8091 67.1062 55.8806L67.1439 55.9295L67.1476 55.9333C69.4052 59.0035 70.3194 62.6154 69.9845 66.0767L69.9836 66.0762ZM65.322 82.672C64.7275 82.9919 64.1217 83.2778 63.516 83.5299C62.9027 83.7857 62.2743 84.0115 61.6273 84.2034L60.2088 89.6552C60.1109 90.0277 59.7723 90.2685 59.4036 90.2535L51.9463 90.261C51.5738 90.261 51.2616 90.0052 51.1713 89.6628L49.7452 84.2147C49.1056 84.0229 48.4735 83.7971 47.8528 83.5413C47.2282 83.2854 46.6225 82.9995 46.0355 82.6872L41.1819 85.5391C40.8621 85.7272 40.4632 85.667 40.2149 85.4149L34.9173 80.1286C34.6427 79.8577 34.6088 79.4363 34.8082 79.1278L37.6339 74.3005C37.3141 73.7061 37.0281 73.1041 36.7723 72.487C36.5164 71.8737 36.2907 71.2416 36.095 70.5945L30.6431 69.176C30.2706 69.082 30.0298 68.7396 30.0449 68.3709L30.0374 60.9136C30.0374 60.5411 30.2932 60.2288 30.6356 60.1386L36.0836 58.7125C36.2755 58.0729 36.5013 57.4408 36.7571 56.82C37.013 56.1955 37.2989 55.5898 37.6112 55.0028L34.7593 50.1492C34.5712 49.8293 34.6314 49.4305 34.8834 49.1822L40.1735 43.8846C40.4444 43.61 40.8658 43.5761 41.1744 43.7755L46.0016 46.6012C46.5961 46.2813 47.2018 45.9954 47.8151 45.7395C48.4284 45.4837 49.0605 45.2579 49.7076 45.0623L51.1261 39.6104C51.2239 39.2379 51.5625 38.9971 51.9313 39.0122L59.3885 39.0047C59.761 39.0047 60.0733 39.2605 60.1636 39.6029L61.5896 45.0509C62.233 45.2428 62.8613 45.4686 63.4821 45.7244C64.1067 45.984 64.7161 46.27 65.3031 46.5823L70.1605 43.7341C70.4803 43.546 70.8791 43.6062 71.1274 43.8582L76.425 49.1483C76.6997 49.4192 76.7335 49.8406 76.5341 50.1529L73.7085 54.9839C74.0245 55.5784 74.3143 56.1804 74.5663 56.7974C74.8222 57.4107 75.0479 58.0428 75.2436 58.6899L80.6916 60.1084C81.0641 60.2062 81.3049 60.5448 81.2898 60.9136L81.2936 68.3708C81.2936 68.7433 81.0378 69.0556 80.6954 69.1459L75.2473 70.5719C75.0555 71.2115 74.8297 71.8436 74.5739 72.4606C74.3143 73.0852 74.0283 73.6909 73.716 74.2779L76.5642 79.1315C76.7523 79.4513 76.6921 79.8502 76.44 80.0985L71.15 85.3961C70.8791 85.6707 70.4577 85.7046 70.1453 85.5052L65.322 82.672ZM62.899 82.0512C62.1954 82.3447 61.4767 82.593 60.7543 82.7924C60.4608 82.8752 60.2501 83.1085 60.1862 83.3832L58.8166 88.6544L52.5671 88.6619L51.1825 83.3719C51.1073 83.0859 50.889 82.8753 50.6219 82.8C49.8882 82.5968 49.1696 82.3485 48.466 82.0588C47.7737 81.7728 47.0889 81.4417 46.4192 81.0617C46.1445 80.9074 45.8172 80.9338 45.5726 81.0993L40.9071 83.8384L36.4824 79.4213L39.2403 74.7032C39.3908 74.4474 39.3833 74.1426 39.2478 73.9056C38.8753 73.2509 38.5442 72.5662 38.2507 71.8625C37.9573 71.1552 37.7089 70.4403 37.5058 69.7141C37.423 69.4207 37.1897 69.21 36.915 69.146L31.6438 67.7764L31.6362 61.5269L36.9263 60.1423C37.2123 60.0671 37.423 59.8489 37.4982 59.5817C37.7014 58.848 37.9497 58.1294 38.2394 57.4258C38.5254 56.7335 38.8565 56.0487 39.2365 55.379C39.3908 55.1044 39.3644 54.777 39.1989 54.5325L36.4598 49.8669L40.8769 45.4422L45.595 48.2001C45.8508 48.3506 46.1556 48.3431 46.3926 48.2039C47.0473 47.8314 47.732 47.5003 48.4357 47.2068C49.143 46.9133 49.8579 46.665 50.5841 46.4618C50.8775 46.379 51.0882 46.1458 51.1522 45.8711L52.5218 40.5998L58.7713 40.5923L60.1559 45.8824C60.2311 46.1683 60.4493 46.379 60.7165 46.4543C61.4501 46.6574 62.1725 46.9058 62.8724 47.1955C63.5647 47.4814 64.2495 47.8125 64.9192 48.1926C65.1938 48.3468 65.5212 48.3205 65.7657 48.1549L70.435 45.4197L74.8559 49.8368L72.0942 54.5549C71.9362 54.822 71.955 55.1418 72.1055 55.3864C72.4667 56.0336 72.794 56.7033 73.08 57.3955V57.3993C73.3734 58.1066 73.6218 58.8216 73.8249 59.5515C73.9077 59.8449 74.141 60.0556 74.4156 60.1196L79.6869 61.4929L79.6907 67.7424L74.4006 69.127C74.1147 69.2023 73.904 69.4205 73.8287 69.6876C73.6256 70.4213 73.3772 71.1399 73.0875 71.8435C72.8016 72.5358 72.4705 73.2169 72.0904 73.8866C71.9362 74.1612 71.9625 74.4886 72.1281 74.7331L74.8672 79.3987L70.4501 83.8234L65.7319 81.0617C65.4648 80.9074 65.145 80.9225 64.9004 81.073C64.2683 81.438 63.5987 81.7615 62.899 82.0512ZM71.8499 30.2044C71.5452 29.8808 71.564 29.3766 71.8838 29.0718C72.2074 28.7671 72.7115 28.7859 73.0163 29.1057L76.3762 32.6763L83.0245 25.0986C83.3142 24.7675 83.8221 24.7337 84.1533 25.0234C84.4844 25.3131 84.5182 25.821 84.2285 26.1521L77.0233 34.3656C77.0008 34.3957 76.9744 34.422 76.9481 34.4484C76.6245 34.7494 76.1203 34.7343 75.8156 34.4145L71.8499 30.2044ZM86.4934 38.2072C84.3262 40.3744 81.335 41.7138 78.0278 41.7138C74.7205 41.7138 71.7293 40.3744 69.5621 38.2072C67.395 36.04 66.0555 33.0488 66.0555 29.7416C66.0555 26.4343 67.395 23.4431 69.5621 21.2759C71.7293 19.1087 74.7205 17.7693 78.0278 17.7693C81.335 17.7693 84.3262 19.1087 86.4934 21.2759C88.6606 23.4431 90 26.4343 90 29.7416C90 33.0488 88.6606 36.0437 86.4934 38.2072Z" fill="black"/>
<path fill-rule="evenodd" clip-rule="evenodd" d="M39.1924 21.9422C38.8086 22.1604 38.3195 22.0287 38.1013 21.6487C37.8831 21.265 38.0148 20.7758 38.3948 20.5576L41.1301 18.9774C41.5138 18.7592 42.003 18.8909 42.2212 19.2709C42.4394 19.6547 42.3077 20.1438 41.9277 20.362L39.1924 21.9422ZM34.1507 16.3135C33.9287 16.6973 33.4396 16.8252 33.0558 16.6032C32.672 16.3812 32.5441 15.8921 32.7623 15.5083L34.3425 12.773C34.5645 12.3893 35.0537 12.2614 35.4374 12.4796C35.8212 12.7016 35.9491 13.1907 35.7271 13.5744L34.1507 16.3135ZM13.939 20.5575C14.3228 20.7795 14.4507 21.2686 14.2287 21.6524C14.0067 22.0362 13.5176 22.1641 13.1338 21.9421L10.3985 20.3619C10.0148 20.1399 9.88685 19.6508 10.1088 19.267C10.3308 18.8832 10.8199 18.7553 11.2037 18.9735L13.939 20.5575ZM19.5677 15.512C19.7859 15.8958 19.6542 16.3849 19.2742 16.6031C18.8905 16.8213 18.4013 16.6897 18.1831 16.3096L16.6029 13.5744C16.3809 13.1906 16.5164 12.7015 16.8964 12.4833C17.2802 12.265 17.7693 12.3967 17.9875 12.7767L19.5677 15.512ZM26.9685 13.9581C26.9685 14.4021 26.6073 14.7595 26.1671 14.7595C25.7231 14.7595 25.3657 14.3983 25.3657 13.9581V10.8014C25.3657 10.3574 25.7269 10 26.1671 10C26.6111 10 26.9685 10.3574 26.9685 10.8014V13.9581ZM45.9683 72.9763C46.7735 71.1364 47.9737 69.56 49.4449 68.3899C51.2057 66.9865 53.3503 66.1663 55.6642 66.1663C57.9818 66.1663 60.1303 66.9902 61.8911 68.3974C63.3622 69.5713 64.5662 71.1553 65.3676 73.0026C67.1209 70.9746 68.1443 68.4989 68.3926 65.9291C68.6899 62.8477 67.8734 59.6307 65.8605 56.8916L65.8266 56.8427L65.7664 56.7637C65.7025 56.6772 65.7138 56.6922 65.6949 56.6659L65.6761 56.6396C65.6385 56.5906 65.5934 56.5342 65.5369 56.4702C63.351 53.8215 60.2808 52.2638 57.0638 51.9139C53.8469 51.5602 50.487 52.4143 47.7403 54.5927C47.6839 54.6378 47.6162 54.6943 47.5297 54.762C44.8056 57.0119 43.248 60.1537 42.9357 63.4157C42.6234 66.6778 43.5565 70.0602 45.8065 72.7881C45.8516 72.8408 45.9081 72.9048 45.9683 72.9763ZM64.1409 74.2368C64.0167 74.3459 63.9114 74.4362 63.8286 74.5077C61.2024 76.6749 57.929 77.6343 54.7347 77.401C52.0144 77.2016 49.3506 76.1406 47.1947 74.2217C47.8832 72.363 49.0195 70.779 50.4455 69.6428C51.928 68.4613 53.7302 67.7691 55.6678 67.7691C57.6093 67.7691 59.4153 68.4651 60.8977 69.6503C62.32 70.7866 63.4561 72.3743 64.1409 74.2368ZM55.664 55.7482C57.0975 55.7482 58.3955 56.3314 59.3362 57.2683C60.2768 58.2089 60.8562 59.5069 60.8562 60.9404C60.8562 62.374 60.2768 63.672 59.3362 64.6126C58.3956 65.5532 57.0975 66.1326 55.664 66.1326C54.2305 66.1326 52.9325 65.5494 51.9918 64.6126C51.0512 63.672 50.4718 62.374 50.4718 60.9404C50.4718 59.5069 51.0512 58.2089 51.9918 57.2683C52.9324 56.3314 54.2305 55.7482 55.664 55.7482ZM58.1999 58.4045C58.8471 59.0517 59.2496 59.9509 59.2496 60.9404C59.2496 61.9299 58.847 62.8254 58.1999 63.4763C57.549 64.1272 56.6535 64.526 55.664 64.526C54.6745 64.526 53.779 64.1234 53.1281 63.4763C52.481 62.8292 52.0784 61.9299 52.0784 60.9404C52.0784 59.9509 52.481 59.0555 53.1281 58.4045C53.7753 57.7574 54.6745 57.3548 55.664 57.3548C56.6535 57.3548 57.5527 57.7537 58.1999 58.4045ZM69.9836 66.0762C69.6488 69.564 68.046 72.9013 65.2655 75.377L65.2542 75.3883C65.1451 75.4861 65.0097 75.6027 64.8404 75.7382C61.8831 78.1762 58.2034 79.2561 54.618 78.9965C51.0248 78.7369 47.5219 77.1341 44.9225 74.2144C44.8246 74.1053 44.708 73.9661 44.565 73.7968C42.0329 70.7304 40.9869 66.9265 41.3368 63.2585C41.6867 59.59 43.44 56.0533 46.5064 53.5215C46.5704 53.4689 46.6494 53.4049 46.7435 53.3334C49.84 50.884 53.6137 49.9208 57.2298 50.3159C60.8458 50.711 64.307 52.4681 66.7676 55.4479C66.809 55.5006 66.8617 55.5645 66.9219 55.6398C66.9369 55.6548 66.952 55.6737 66.9633 55.6925L67.0498 55.8053C67.1062 55.8806 67.0536 55.8091 67.1062 55.8806L67.1439 55.9295L67.1476 55.9333C69.4052 59.0035 70.3194 62.6154 69.9845 66.0767L69.9836 66.0762ZM71.8499 30.2044C71.5452 29.8808 71.564 29.3766 71.8838 29.0718C72.2074 28.7671 72.7115 28.7859 73.0163 29.1057L76.3762 32.6763L83.0245 25.0986C83.3142 24.7675 83.8221 24.7337 84.1533 25.0234C84.4844 25.3131 84.5182 25.821 84.2285 26.1521L77.0233 34.3656C77.0008 34.3957 76.9744 34.422 76.9481 34.4484C76.6245 34.7494 76.1203 34.7343 75.8156 34.4145L71.8499 30.2044Z" fill="#018580"/>
</svg>
