<svg width="100" height="100" viewBox="0 0 100 100" fill="none" xmlns="http://www.w3.org/2000/svg">
<path d="M21.9457 50.1262C22.4747 50.1262 22.9076 49.7029 22.9172 49.1739C22.9413 48.1446 22.9942 47.1827 23.0423 46.2545C23.2683 42.0174 23.4366 38.5882 20.5654 34.6877C21.8736 34.0529 22.7826 32.7254 22.7826 31.1768C22.7826 29.3588 21.5322 27.8438 19.8536 27.4061L19.9979 17.4506L27.1111 19.5619V35.2268C27.1111 35.626 27.3564 35.9867 27.7267 36.131C35.5374 39.185 43.0062 40.7047 50.3123 40.7047C54.285 40.7047 58.2096 40.243 62.11 39.3436L62.9468 40.1083C62.9901 40.1468 62.9997 40.1805 62.9805 40.2334L62.2831 42.412C62.1052 42.9699 62.1677 43.5615 62.4611 44.0713C62.7544 44.5811 63.2306 44.9322 63.8078 45.0573L66.0682 45.5575C66.1259 45.5719 66.1499 45.5959 66.1596 45.6488L66.6453 47.8852C66.7704 48.4576 67.1166 48.9385 67.6265 49.232C67.8669 49.3714 68.1266 49.4532 68.3912 49.4917C66.3471 52.3149 64.9909 55.8931 63.5768 59.6397C62.8891 61.4673 62.1725 63.3622 61.35 65.2668C61.1769 65.6612 61.2875 66.1229 61.6193 66.4018C61.9512 66.676 62.4225 66.7 62.7832 66.4595L67.2656 63.4488L69.3625 68.0755C69.5213 68.4266 69.8675 68.6479 70.2475 68.6479C70.2763 68.6479 70.3052 68.6479 70.3341 68.643C70.7477 68.6046 71.0892 68.316 71.1901 67.912C71.5076 66.6664 71.7865 65.3341 72.0847 63.9201C72.8687 60.1976 73.7488 56.047 75.3696 53.6855C76.7884 56.5616 77.4859 60.0581 78.1495 63.4872C78.4525 65.0455 78.7362 66.5171 79.0873 67.9071C79.1883 68.3111 79.5346 68.6045 79.953 68.6381C79.9819 68.6381 80.006 68.6429 80.03 68.6429C80.4148 68.6429 80.7658 68.4169 80.9198 68.061L82.9638 63.3717L87.4944 66.4546C87.8311 66.6855 88.2735 66.6806 88.6054 66.4402C88.9372 66.2045 89.0863 65.7861 88.9757 65.3917C86.2488 55.5227 84.1711 51.762 81.7856 49.1937C82.2617 48.9003 82.5936 48.4386 82.7138 47.8903L83.214 45.6299C83.2284 45.5722 83.2525 45.5481 83.3054 45.5385L85.5418 45.0528C86.1141 44.9277 86.5951 44.5814 86.8885 44.0716C87.1819 43.5618 87.2492 42.9751 87.0713 42.4123L86.3739 40.2047C86.3546 40.1518 86.3643 40.1181 86.4076 40.0796L88.1053 38.5406C88.5381 38.1462 88.7786 37.6028 88.7834 37.016C88.7834 36.4292 88.5478 35.8858 88.1101 35.4866L86.4028 33.9235C86.3595 33.885 86.3498 33.8514 86.3691 33.7985L87.0665 31.6198C87.2444 31.0619 87.1819 30.4704 86.8885 29.9605C86.5951 29.4507 86.119 29.0996 85.5418 28.9745L83.2814 28.4744C83.2237 28.4599 83.1996 28.4359 83.19 28.383L82.7042 26.1466C82.5792 25.5743 82.2329 25.0933 81.7231 24.7999C81.2133 24.5065 80.6265 24.4391 80.0638 24.6171L77.8562 25.3145C77.8033 25.3337 77.7696 25.3241 77.7311 25.2808L76.1921 23.5879C75.7977 23.155 75.2543 22.9145 74.6675 22.9097H74.6627C74.0759 22.9097 73.5373 23.1502 73.138 23.5831L72.4791 24.3045V19.6874L88.3263 14.9837C88.7832 14.8491 90 14.4884 90 13.4831C90 13.0743 89.7595 12.5645 89.0766 12.3625L51.1782 1.10834C50.4038 0.877482 49.0331 1.04581 48.0713 1.32958L11.6737 12.1412C11.2168 12.2759 10 12.6366 10 13.6419C10 14.0507 10.2405 14.5605 10.9234 14.7625L18.0511 16.8787L17.902 27.4019C16.2091 27.8347 14.9491 29.3593 14.9491 31.1821C14.9491 32.7452 15.8773 34.0919 17.2095 34.7171C14.3767 38.7042 14.4104 41.1474 14.5017 45.9761C14.521 46.9139 14.5402 47.9816 14.5402 49.1647C14.5402 49.7034 14.9731 50.1362 15.5117 50.1362H21.9421L21.9457 50.1262ZM70.1754 63.5305C70.0936 63.9105 70.0166 64.2856 69.9349 64.656L68.5546 61.6067C68.4343 61.347 68.2083 61.1498 67.9341 61.0728C67.66 60.9959 67.3618 61.0392 67.1261 61.2027L64.3415 63.0736C64.7022 62.1453 65.0485 61.2315 65.3899 60.3321C67.1886 55.5659 68.7566 51.4393 71.6038 48.7557H71.6086L73.1477 50.4535C73.1525 50.4583 73.1573 50.4631 73.1669 50.4679C73.1717 50.4727 73.1717 50.4727 73.1717 50.4775C73.5949 50.9152 73.9749 51.3961 74.326 51.9011C72.1088 54.4886 71.118 59.0672 70.1802 63.5304L70.1754 63.5305ZM83.0786 61.1065C82.8381 60.943 82.54 60.8949 82.261 60.9766C81.9821 61.0584 81.756 61.2556 81.6406 61.5201L80.3228 64.5404C80.2314 64.0787 80.14 63.6026 80.0439 63.1217C79.2262 58.9134 78.3076 54.2289 75.8741 50.7331C75.9895 50.6513 76.0953 50.5551 76.1963 50.4493L77.7593 48.742C77.7978 48.6987 77.8315 48.6891 77.8844 48.7083L78.7789 48.9969C81.4674 51.3728 83.5355 53.8544 86.3586 63.3345L83.0833 61.1029L83.0786 61.1065ZM74.5755 24.8961C74.6044 24.8624 74.6188 24.8576 74.6621 24.8576C74.7054 24.8528 74.7198 24.8624 74.7535 24.8961L76.2925 26.589C76.8408 27.195 77.6632 27.4163 78.4423 27.171L80.6499 26.4736C80.6932 26.4592 80.7077 26.4592 80.7461 26.4832C80.7846 26.5073 80.7942 26.5169 80.8038 26.5602L81.2896 28.7966C81.4627 29.595 82.0639 30.2009 82.8622 30.374L85.1227 30.8742C85.1659 30.8838 85.1804 30.8934 85.1996 30.9319C85.2237 30.9704 85.2237 30.9848 85.2092 31.0281L84.5118 33.2068C84.2618 33.9859 84.483 34.8084 85.0842 35.3614L86.7915 36.9245C86.8252 36.9533 86.83 36.9677 86.83 37.011C86.83 37.0543 86.8252 37.0687 86.7915 37.0976L85.0938 38.6366C84.4878 39.1849 84.2665 40.0074 84.5118 40.7865L85.2092 42.9941C85.2236 43.0374 85.2188 43.0518 85.1996 43.0903C85.1755 43.1287 85.1659 43.1384 85.1226 43.148L82.8862 43.6337C82.0879 43.8069 81.4819 44.4081 81.3088 45.2064L80.8086 47.4668C80.799 47.5101 80.7894 47.5245 80.7509 47.5437C80.7124 47.5678 80.698 47.5678 80.6547 47.5534L79.5726 47.2071H79.5677L78.4712 46.856C77.6921 46.6059 76.8696 46.8271 76.3165 47.4283L74.7535 49.1356C74.7246 49.1693 74.7102 49.1741 74.6669 49.1741C74.6188 49.1741 74.6092 49.1693 74.5755 49.1356L73.0365 47.4427C72.6373 47.0002 72.089 46.7646 71.5167 46.7646C71.3051 46.7646 71.0934 46.7982 70.8818 46.8608L70.8626 46.8656L68.6791 47.5581C68.6359 47.5726 68.6214 47.5726 68.5829 47.5485C68.5445 47.5245 68.5349 47.5149 68.5252 47.4716L68.0395 45.2352C67.8663 44.4368 67.2651 43.8308 66.4668 43.6577L64.2064 43.1575C64.1631 43.1479 64.1487 43.1383 64.1295 43.0998C64.1054 43.0613 64.1054 43.0469 64.1199 43.0036L64.8172 40.825C65.0673 40.0458 64.8461 39.2234 64.2449 38.6703L62.5376 37.1073C62.5039 37.0784 62.4991 37.064 62.4991 37.0207C62.4991 36.9774 62.5039 36.963 62.5376 36.9341L64.2353 35.3951C64.8413 34.8468 65.0625 34.0244 64.8173 33.2453L64.1199 31.0377C64.1054 30.9944 64.1103 30.98 64.1295 30.9415C64.1535 30.903 64.1632 30.8934 64.2064 30.8838L66.4428 30.398C67.2412 30.2249 67.8472 29.6237 68.0203 28.8254L68.5205 26.565C68.5301 26.5217 68.5397 26.5072 68.5782 26.488C68.6167 26.464 68.6311 26.464 68.6744 26.4784L70.853 27.1758C71.0599 27.2431 71.2715 27.2719 71.4783 27.2719C71.4879 27.2719 71.4927 27.2768 71.5023 27.2768C71.536 27.2768 71.5648 27.2623 71.5985 27.2575C72.1276 27.2287 72.6325 27.0122 73.0077 26.6034L74.5707 24.8961L74.5755 24.8961ZM70.5404 25.0308L69.2756 24.6268C68.7177 24.4488 68.1261 24.5113 67.6162 24.8047C67.1064 25.0981 66.7553 25.5742 66.6303 26.1514L66.1301 28.4119C66.1157 28.4696 66.0916 28.4936 66.0387 28.5032L63.8023 28.989C63.23 29.114 62.7491 29.4603 62.4556 29.9701C62.1622 30.4799 62.0949 31.0667 62.2729 31.6295L62.9702 33.837C62.9895 33.8899 62.9799 33.9236 62.9366 33.9621L61.2388 35.5011C60.806 35.8955 60.5655 36.439 60.5607 37.0258C60.5607 37.2518 60.604 37.473 60.6761 37.6798C50.5041 39.8105 40.1343 38.7908 29.0483 34.5634V20.1445L48.8243 26.0168C49.0744 26.0937 49.3918 26.1226 49.7381 26.1226C50.4499 26.1226 51.282 25.9831 51.9264 25.7907L70.5339 20.2646V25.0356L70.5404 25.0308ZM48.6283 3.19125C49.4747 2.94116 50.4029 2.90267 50.6242 2.97001L86.2867 13.5605L51.3752 23.9298C50.5288 24.1799 49.6006 24.2184 49.3793 24.1511L13.7168 13.5605L48.6283 3.19125ZM18.867 29.2108C19.954 29.2108 20.839 30.0957 20.839 31.1827C20.839 32.2697 19.954 33.1547 18.867 33.1547C17.7801 33.1547 16.8951 32.2697 16.8951 31.1827C16.8951 30.0957 17.78 29.2108 18.867 29.2108ZM18.8959 35.6891C21.4738 39.0942 21.3199 41.9704 21.0987 46.1546C21.065 46.8087 21.0265 47.482 21.0025 48.1841H16.4863C16.4815 47.3665 16.4671 46.6163 16.4527 45.9333C16.3661 41.2393 16.3276 39.2433 18.9007 35.6891H18.8959ZM88.0035 78.1283C87.9602 78.0754 87.9169 78.0321 87.8688 77.9888C87.8159 77.9456 87.763 77.9119 87.7053 77.883C87.6764 77.8686 87.6524 77.8398 87.6235 77.8301C84.0453 76.3873 80.8902 75.1994 78.1055 74.1461C64.3502 68.9663 57.2805 66.2922 35.9458 47.1317C35.6524 46.7085 35.3158 46.3285 34.9069 46.0303C33.4593 44.9674 30.7179 44.294 25.8844 47.1461C23.1093 48.7813 21.5751 51.792 21.2289 54.4325L18.3769 52.5039C18.1364 52.3404 17.843 52.2971 17.564 52.3741C17.2851 52.451 17.059 52.653 16.9436 52.9127C14.5052 58.4099 15.5055 61.488 16.7753 63.1088C18.1412 64.8547 20.3151 65.5808 22.1811 65.6242C29.9918 69.2313 36.403 72.3575 41.8808 75.2575C40.4475 75.6423 38.971 76.2868 37.7302 76.9745C36.6769 77.5564 33.2044 79.6293 32.6273 81.861C32.5552 82.1448 32.6129 82.4429 32.7861 82.6786C32.9592 82.9143 33.2285 83.0585 33.5171 83.073C33.7912 83.0874 34.455 83.0682 36.9607 82.7844L36.398 87.6564C36.3547 88.0267 36.5279 88.3874 36.8405 88.5894C36.9992 88.6904 37.182 88.7433 37.3599 88.7433C37.5379 88.7433 37.7158 88.6952 37.8697 88.599C39.1058 87.8343 40.7265 86.2905 42.4387 84.6505C44.098 83.0633 46.1901 81.0674 47.7917 80.0286C47.6089 85.0016 45.9737 88.8636 43.5738 92.9946C43.3525 93.3698 43.415 93.8507 43.718 94.1633C44.021 94.476 44.4972 94.5481 44.8819 94.3365L49.2586 91.9462L51.2833 96.366C51.4421 96.7075 51.7787 96.9287 52.1587 96.9335H52.1683C52.5386 96.9335 52.8801 96.7219 53.0436 96.3853C55.3522 91.6335 55.0396 86.4393 54.0969 82.3123C61.5083 87.0304 67.3129 91.7245 74.0366 97.7556C74.128 97.8374 74.2338 97.8999 74.3492 97.9432C74.8302 98.1211 75.3641 98.2029 75.9364 98.2029C79.0866 98.2029 83.4489 95.6683 86.4884 91.8736C90.1533 87.295 90.7352 82.3124 88.0756 78.2046C88.0563 78.1757 88.0275 78.1613 88.0083 78.1324L88.0035 78.1283ZM58.5697 71.7605C57.0932 74.9925 53.8179 78.0128 51.8509 78.6284C50.9179 78.0705 49.9559 77.503 48.9652 76.9355C50.6581 75.9207 52.3414 74.1796 53.5535 72.5781C55.2224 70.3657 56.3189 68.1005 56.6845 66.1911C57.4636 66.6961 58.2283 67.1722 58.9786 67.6243C59.5894 68.9373 59.1084 70.5821 58.5697 71.7605ZM54.8616 64.984C54.7991 68.6729 49.8358 74.93 46.8923 75.7668C41.0775 72.53 34.1958 69.0816 25.528 65.0369C31.7755 63.1323 35.6039 58.0103 36.6764 53.4028C36.9024 52.4313 36.989 51.5078 36.965 50.6469C44.3668 57.1974 50.0044 61.6792 54.8616 64.984ZM26.8709 48.8192C29.5834 47.2176 31.815 46.703 33.2483 47.3186C33.6619 47.6937 34.0659 48.0544 34.4699 48.4199C35.0903 49.4828 35.2202 51.1132 34.7873 52.9649C34.5276 54.0759 34.0851 55.2205 33.4695 56.3316L28.8332 53.2775C28.5639 53.0996 28.2224 53.0659 27.9242 53.1909C27.6261 53.316 27.4096 53.5757 27.3423 53.8931C27.2028 54.5664 26.8181 55.5909 26.6209 55.8121C25.2405 57.3559 24.2546 57.7455 23.8314 57.6108C23.4899 57.5002 23.211 56.9279 23.1244 56.1439V56.1343V56.1199C22.908 54.1239 23.9276 50.5505 26.871 48.8143L26.8709 48.8192ZM18.3053 61.9108C17.0933 60.367 17.0885 57.9141 18.2764 54.7831L21.2631 56.8031C21.5228 58.1834 22.2298 59.1404 23.2446 59.4628C24.649 59.9101 26.2746 59.1213 28.0734 57.1109C28.3908 56.755 28.6602 56.1779 28.8622 55.6248L32.4163 57.967C30.4156 60.6411 27.3087 62.8919 23.1917 63.623C22.9849 63.6615 22.7348 63.6759 22.4655 63.6759C22.3789 63.6663 22.2972 63.6663 22.2154 63.6759C20.9602 63.6374 19.3104 63.1854 18.3053 61.9108ZM41.1027 83.2455C40.2225 84.0872 39.3616 84.9049 38.5969 85.5829L39.0345 81.7931C39.0682 81.4997 38.9672 81.2111 38.7652 80.9995C38.5584 80.7879 38.2698 80.6821 37.9813 80.7109C37.9668 80.7109 37.8995 80.7206 37.7841 80.735C36.7933 80.8504 36.0334 80.937 35.4563 80.9947C36.1537 80.2973 37.2262 79.4749 38.6739 78.6765C41.1699 77.2962 43.7287 76.594 44.9791 76.9259C45.7246 77.3347 46.4604 77.7435 47.1722 78.1475C45.5177 79.1046 43.5602 80.8937 41.1074 83.2407L41.1027 83.2455ZM52.102 93.4753L50.5965 90.1856C50.4859 89.9403 50.2743 89.7528 50.0194 89.6662C49.7645 89.5796 49.4856 89.6085 49.2451 89.7335L46.8452 91.0465C48.5814 87.5549 49.6732 84.0151 49.7549 79.648C50.409 80.0328 51.0535 80.4176 51.6787 80.8023C53.0638 85.4386 53.2081 89.8442 52.0971 93.4753L52.102 93.4753ZM84.9745 90.6569C81.8243 94.5911 77.2937 96.7553 75.1824 96.1686C68.0547 89.7768 61.927 84.8711 53.8625 79.8598C56.3009 78.4555 59.0039 75.5121 60.3456 72.5734C60.9468 71.2604 61.2258 70.0292 61.2113 68.9133C66.497 71.8471 71.3112 73.6651 77.4242 75.9641C80.1175 76.9789 83.1667 78.1283 86.5958 79.5086C89.3179 84.02 86.7738 88.411 84.9798 90.6522L84.9745 90.6569ZM66.9296 37.0308C66.9296 41.3017 70.4021 44.7741 74.6729 44.7741C78.9438 44.7741 82.4163 41.3017 82.4163 37.0308C82.4163 32.7599 78.9438 29.2875 74.6729 29.2875C70.4021 29.2875 66.9296 32.7599 66.9296 37.0308ZM74.6729 31.2306C77.8713 31.2306 80.4731 33.8326 80.4731 37.0308C80.4731 40.229 77.8712 42.831 74.6729 42.831C71.4747 42.831 68.8728 40.229 68.8728 37.0308C68.8728 33.8326 71.4747 31.2306 74.6729 31.2306Z" fill="black"/>
<path d="M88.0035 78.1283C87.9602 78.0754 87.9169 78.0321 87.8688 77.9888C87.8159 77.9456 87.763 77.9119 87.7053 77.883C87.6764 77.8686 87.6524 77.8398 87.6235 77.8301C84.0453 76.3873 80.8902 75.1994 78.1055 74.1461C64.3502 68.9663 57.2805 66.2922 35.9458 47.1317C35.6524 46.7085 35.3158 46.3285 34.9069 46.0303C33.4593 44.9674 30.7179 44.294 25.8844 47.1461C23.1093 48.7813 21.5751 51.792 21.2289 54.4325L18.3769 52.5039C18.1364 52.3404 17.843 52.2971 17.564 52.3741C17.2851 52.451 17.059 52.653 16.9436 52.9127C14.5052 58.4099 15.5055 61.488 16.7753 63.1088C18.1412 64.8547 20.3151 65.5808 22.1811 65.6242C29.9918 69.2313 36.403 72.3575 41.8808 75.2575C40.4475 75.6423 38.971 76.2868 37.7302 76.9745C36.6769 77.5564 33.2044 79.6293 32.6273 81.861C32.5552 82.1448 32.6129 82.4429 32.7861 82.6786C32.9592 82.9143 33.2285 83.0585 33.5171 83.073C33.7912 83.0874 34.455 83.0682 36.9607 82.7844L36.398 87.6564C36.3547 88.0267 36.5279 88.3874 36.8405 88.5894C36.9992 88.6904 37.182 88.7433 37.3599 88.7433C37.5379 88.7433 37.7158 88.6952 37.8697 88.599C39.1058 87.8343 40.7265 86.2905 42.4387 84.6505C44.098 83.0633 46.1901 81.0674 47.7917 80.0286C47.6089 85.0016 45.9737 88.8636 43.5738 92.9946C43.3525 93.3698 43.415 93.8507 43.718 94.1633C44.021 94.476 44.4972 94.5481 44.8819 94.3365L49.2586 91.9462L51.2833 96.366C51.4421 96.7075 51.7787 96.9287 52.1587 96.9335H52.1683C52.5386 96.9335 52.8801 96.7219 53.0436 96.3853C55.3522 91.6335 55.0396 86.4393 54.0969 82.3123C61.5083 87.0304 67.3129 91.7245 74.0366 97.7556C74.128 97.8374 74.2338 97.8999 74.3492 97.9432C74.8302 98.1211 75.3641 98.2029 75.9364 98.2029C79.0866 98.2029 83.4489 95.6683 86.4884 91.8736C90.1533 87.295 90.7352 82.3124 88.0756 78.2046C88.0563 78.1757 88.0275 78.1613 88.0083 78.1324L88.0035 78.1283ZM58.5697 71.7605C57.0932 74.9925 53.8179 78.0128 51.8509 78.6284C50.9179 78.0705 49.9559 77.503 48.9652 76.9355C50.6581 75.9207 52.3414 74.1796 53.5535 72.5781C55.2224 70.3657 56.3189 68.1005 56.6845 66.1911C57.4636 66.6961 58.2283 67.1722 58.9786 67.6243C59.5894 68.9373 59.1084 70.5821 58.5697 71.7605ZM54.8616 64.984C54.7991 68.6729 49.8358 74.93 46.8923 75.7668C41.0775 72.53 34.1958 69.0816 25.528 65.0369C31.7755 63.1323 35.6039 58.0103 36.6764 53.4028C36.9024 52.4313 36.989 51.5078 36.965 50.6469C44.3668 57.1974 50.0044 61.6792 54.8616 64.984ZM26.8709 48.8192C29.5834 47.2176 31.815 46.703 33.2483 47.3186C33.6619 47.6937 34.0659 48.0544 34.4699 48.4199C35.0903 49.4828 35.2202 51.1132 34.7873 52.9649C34.5276 54.0759 34.0851 55.2205 33.4695 56.3316L28.8332 53.2775C28.5639 53.0996 28.2224 53.0659 27.9242 53.1909C27.6261 53.316 27.4096 53.5757 27.3423 53.8931C27.2028 54.5664 26.8181 55.5909 26.6209 55.8121C25.2405 57.3559 24.2546 57.7455 23.8314 57.6108C23.4899 57.5002 23.211 56.9279 23.1244 56.1439V56.1343V56.1199C22.908 54.1239 23.9276 50.5505 26.871 48.8143L26.8709 48.8192ZM18.3053 61.9108C17.0933 60.367 17.0885 57.9141 18.2764 54.7831L21.2631 56.8031C21.5228 58.1834 22.2298 59.1404 23.2446 59.4628C24.649 59.9101 26.2746 59.1213 28.0734 57.1109C28.3908 56.755 28.6602 56.1779 28.8622 55.6248L32.4163 57.967C30.4156 60.6411 27.3087 62.8919 23.1917 63.623C22.9849 63.6615 22.7348 63.6759 22.4655 63.6759C22.3789 63.6663 22.2972 63.6663 22.2154 63.6759C20.9602 63.6374 19.3104 63.1854 18.3053 61.9108ZM41.1027 83.2455C40.2225 84.0872 39.3616 84.9049 38.5969 85.5829L39.0345 81.7931C39.0682 81.4997 38.9672 81.2111 38.7652 80.9995C38.5584 80.7879 38.2698 80.6821 37.9813 80.7109C37.9668 80.7109 37.8995 80.7206 37.7841 80.735C36.7933 80.8504 36.0334 80.937 35.4563 80.9947C36.1537 80.2973 37.2262 79.4749 38.6739 78.6765C41.1699 77.2962 43.7287 76.594 44.9791 76.9259C45.7246 77.3347 46.4604 77.7435 47.1722 78.1475C45.5177 79.1046 43.5602 80.8937 41.1074 83.2407L41.1027 83.2455ZM52.102 93.4753L50.5965 90.1856C50.4859 89.9403 50.2743 89.7528 50.0194 89.6662C49.7645 89.5796 49.4856 89.6085 49.2451 89.7335L46.8452 91.0465C48.5814 87.5549 49.6732 84.0151 49.7549 79.648C50.409 80.0328 51.0535 80.4176 51.6787 80.8023C53.0638 85.4386 53.2081 89.8442 52.0971 93.4753L52.102 93.4753ZM84.9745 90.6569C81.8243 94.5911 77.2937 96.7553 75.1824 96.1686C68.0547 89.7768 61.927 84.8711 53.8625 79.8598C56.3009 78.4555 59.0039 75.5121 60.3456 72.5734C60.9468 71.2604 61.2258 70.0292 61.2113 68.9133C66.497 71.8471 71.3112 73.6651 77.4242 75.9641C80.1175 76.9789 83.1667 78.1283 86.5958 79.5086C89.3179 84.02 86.7738 88.411 84.9798 90.6522L84.9745 90.6569ZM66.9296 37.0308C66.9296 41.3017 70.4021 44.7741 74.6729 44.7741C78.9438 44.7741 82.4163 41.3017 82.4163 37.0308C82.4163 32.7599 78.9438 29.2875 74.6729 29.2875C70.4021 29.2875 66.9296 32.7599 66.9296 37.0308ZM74.6729 31.2306C77.8713 31.2306 80.4731 33.8326 80.4731 37.0308C80.4731 40.229 77.8712 42.831 74.6729 42.831C71.4747 42.831 68.8728 40.229 68.8728 37.0308C68.8728 33.8326 71.4747 31.2306 74.6729 31.2306Z" fill="#018580"/>
</svg>
