<svg width="120" height="120" viewBox="0 0 120 120" fill="none" xmlns="http://www.w3.org/2000/svg">
<path fill-rule="evenodd" clip-rule="evenodd" d="M24.2295 57.7819L18.2705 64.0969C17.9385 64.4509 17.3815 64.4659 17.0295 64.1329C16.6755 63.7999 16.6605 63.2439 16.9925 62.8909L24.6595 54.7659C24.8435 54.5599 25.1215 54.4439 25.4175 54.4779C25.6405 54.5039 25.8335 54.6109 25.9715 54.7669L33.8455 62.6519C34.1885 62.9939 34.1895 63.5489 33.8475 63.8929C33.5055 64.2359 32.9505 64.2369 32.6065 63.8939L26.0135 57.2919C26.0025 57.4469 25.9935 57.6019 25.9855 57.7549C25.9455 58.5139 25.9305 59.2879 25.9415 60.0769C26.0755 69.4869 30.0095 77.9519 36.2625 84.0299C42.5165 90.1089 51.0915 93.8019 60.5035 93.6689C67.4095 93.5699 73.8055 91.4259 79.1225 87.8209C84.6055 84.1019 88.9435 78.8289 91.5105 72.6429C91.6955 72.1959 92.2075 71.9829 92.6555 72.1669C93.1035 72.3509 93.3155 72.8629 93.1315 73.3109C90.4335 79.8149 85.8715 85.3599 80.1045 89.2699C74.5115 93.0629 67.7865 95.3189 60.5275 95.4219C50.6345 95.5619 41.6215 91.6789 35.0455 85.2859C28.4685 78.8929 24.3305 69.9919 24.1905 60.0979C24.1775 59.3289 24.1905 58.5559 24.2295 57.7819ZM68.6865 66.8089L62.9875 66.7879C62.7015 66.7869 62.4355 66.6969 62.2205 66.5389C62.0025 66.3789 61.8365 66.1529 61.7505 65.8839L60.6975 62.5589C60.6815 62.5199 60.6695 62.4789 60.6595 62.4359L60.0315 60.4549L59.3775 62.4429C59.3675 62.4869 59.3535 62.5289 59.3365 62.5689L58.2515 65.8649C58.2445 65.8859 58.2375 65.9049 58.2295 65.9249C58.1365 66.1669 57.9785 66.3679 57.7765 66.5129C57.5575 66.6699 57.2925 66.7579 57.0085 66.7549H57.0065L51.3085 66.7119L55.9095 70.0809C56.1365 70.2469 56.2965 70.4759 56.3795 70.7339C56.4605 70.9899 56.4625 71.2679 56.3725 71.5379C56.3685 71.5499 56.3635 71.5609 56.3585 71.5729L54.5675 76.9469L59.1945 73.6109C59.4235 73.4459 59.6905 73.3639 59.9585 73.3649C60.2285 73.3669 60.4955 73.4519 60.7245 73.6209L65.3105 77.0059L63.5685 71.5769C63.4825 71.3079 63.4875 71.0299 63.5715 70.7739H63.5685C63.6525 70.5189 63.8175 70.2919 64.0505 70.1259L68.6865 66.8089ZM63.1865 65.2279L62.4955 63.0439H78.4885C78.9215 63.0439 79.2715 62.6929 79.2715 62.2609C79.2715 62.0499 79.1885 61.8589 79.0525 61.7169C76.7585 58.9169 73.8595 56.6309 70.5555 55.0599C68.3145 53.9949 65.8885 53.2579 63.3395 52.9119C64.2685 52.4979 65.1065 51.9179 65.8165 51.2089C67.3045 49.7209 68.2255 47.6639 68.2255 45.3919C68.2255 43.1209 67.3045 41.0629 65.8165 39.5749C64.3275 38.0859 62.2705 37.1649 59.9985 37.1649C57.7275 37.1649 55.6695 38.0849 54.1815 39.5749C52.6925 41.0639 51.7715 43.1209 51.7715 45.3919C51.7715 47.6639 52.6925 49.7209 54.1815 51.2089C54.8905 51.9179 55.7285 52.4989 56.6575 52.9119C54.1085 53.2579 51.6825 53.9949 49.4425 55.0599C46.1375 56.6309 43.2395 58.9169 40.9445 61.7169C40.8095 61.8589 40.7255 62.0499 40.7255 62.2609C40.7255 62.6939 41.0765 63.0439 41.5085 63.0439H57.5315L56.8245 65.1919L50.4955 65.1439C50.1705 65.1419 49.8895 65.2529 49.6695 65.4339C49.4745 65.5949 49.3335 65.8049 49.2585 66.0339C49.1825 66.2619 49.1695 66.5129 49.2305 66.7569C49.2995 67.0339 49.4585 67.2929 49.7225 67.4859L54.8295 71.2259L52.8285 77.2319C52.7245 77.5429 52.7435 77.8439 52.8475 78.1069C52.9385 78.3399 53.0965 78.5399 53.2915 78.6829C53.4865 78.8259 53.7235 78.9169 53.9725 78.9349C54.2545 78.9549 54.5485 78.8829 54.8165 78.6909L59.9505 74.9899L65.0415 78.7479C65.0635 78.7649 65.0865 78.7789 65.1095 78.7929C65.3565 78.9549 65.6245 79.0189 65.8815 79.0029H65.8845C66.1325 78.9879 66.3695 78.8989 66.5685 78.7579C66.7655 78.6159 66.9245 78.4189 67.0185 78.1869C67.1235 77.9249 67.1475 77.6239 67.0465 77.3099L65.1125 71.2849L70.2595 67.6039C70.5275 67.4129 70.6905 67.1549 70.7615 66.8779C70.8245 66.6379 70.8145 66.3859 70.7405 66.1549C70.6665 65.9229 70.5285 65.7089 70.3375 65.5489C70.1215 65.3669 69.8405 65.2529 69.5085 65.2519L63.1865 65.2279ZM58.0475 61.4779L58.8035 59.1789C58.9065 58.8679 59.1035 58.6359 59.3465 58.4839C59.5565 58.3529 59.8005 58.2879 60.0425 58.2899C60.2875 58.2909 60.5315 58.3589 60.7415 58.4939C60.9815 58.6479 61.1765 58.8819 61.2745 59.1939L61.9985 61.4779H76.7635C74.8135 59.4129 72.4855 57.7079 69.8895 56.4739C66.8945 55.0499 63.5405 54.2529 59.9985 54.2529C56.4565 54.2529 53.1035 55.0499 50.1085 56.4739C47.5125 57.7079 45.1845 59.4129 43.2335 61.4779H58.0475ZM46.9215 70.0929L44.4515 70.0839C44.2095 70.0829 43.9865 70.0069 43.8055 69.8739C43.6205 69.7379 43.4815 69.5489 43.4095 69.3219L42.6655 66.9709L41.8945 69.3139C41.8865 69.3379 41.8775 69.3619 41.8675 69.3849C41.7885 69.5779 41.6585 69.7399 41.4945 69.8589L41.4925 69.8599L41.4945 69.8619C41.3125 69.9919 41.0895 70.0649 40.8485 70.0629H40.8465L38.3765 70.0439L40.3715 71.5049C40.5615 71.6449 40.6965 71.8379 40.7665 72.0559C40.8355 72.2709 40.8365 72.5059 40.7615 72.7319C40.7575 72.7449 40.7535 72.7549 40.7485 72.7669L39.9775 75.0789L41.9865 73.6319C42.1785 73.4929 42.4025 73.4239 42.6285 73.4249C42.8565 73.4269 43.0815 73.4979 43.2735 73.6399L45.2615 75.1079L44.5065 72.7539C44.4335 72.5249 44.4365 72.2899 44.5065 72.0769C44.5775 71.8629 44.7155 71.6719 44.9115 71.5309L46.9215 70.0929ZM44.7995 68.5249L43.7165 65.1059C43.6335 64.8429 43.4695 64.6459 43.2665 64.5159C43.0905 64.4029 42.8845 64.3459 42.6795 64.3449C42.4755 64.3429 42.2705 64.3979 42.0945 64.5079C41.8885 64.6359 41.7225 64.8309 41.6355 65.0929L40.5145 68.4999L36.9285 68.4729C36.6555 68.4709 36.4175 68.5669 36.2325 68.7189C36.0675 68.8549 35.9495 69.0309 35.8855 69.2219C35.8225 69.4119 35.8125 69.6239 35.8635 69.8289C35.9215 70.0629 36.0555 70.2819 36.2775 70.4449L39.1725 72.5639L38.0385 75.9669C37.9505 76.2289 37.9675 76.4829 38.0545 76.7039C38.1315 76.8999 38.2645 77.0679 38.4285 77.1879C38.5915 77.3079 38.7895 77.3839 39.0005 77.3989C39.2375 77.4159 39.4865 77.3559 39.7115 77.1939L42.6205 75.0969L45.5045 77.2259C45.7275 77.3909 45.9755 77.4549 46.2125 77.4399H46.2155C46.4245 77.4279 46.6245 77.3529 46.7905 77.2339C46.9555 77.1159 47.0905 76.9499 47.1685 76.7549C47.2585 76.5329 47.2775 76.2779 47.1925 76.0159L46.0975 72.6019L49.0125 70.5169C49.2385 70.3569 49.3745 70.1389 49.4365 69.9049C49.4895 69.7029 49.4805 69.4919 49.4185 69.2989C49.3555 69.1029 49.2395 68.9229 49.0795 68.7889C48.8965 68.6359 48.6595 68.5389 48.3805 68.5379L44.7995 68.5249ZM81.6165 70.0929L79.1455 70.0839C78.9045 70.0829 78.6815 70.0069 78.4995 69.8739C78.3155 69.7379 78.1755 69.5489 78.1035 69.3219L77.3595 66.9709L76.5885 69.3139C76.5805 69.3379 76.5705 69.3619 76.5615 69.3849C76.4825 69.5779 76.3515 69.7399 76.1885 69.8589L76.1865 69.8599L76.1885 69.8619C76.0065 69.9919 75.7835 70.0649 75.5425 70.0629H75.5405L73.0705 70.0439L75.0655 71.5049C75.2555 71.6449 75.3905 71.8379 75.4605 72.0559C75.5295 72.2709 75.5305 72.5059 75.4555 72.7319C75.4515 72.7449 75.4465 72.7549 75.4425 72.7669L74.6715 75.0789L76.6795 73.6319C76.8725 73.4929 77.0965 73.4239 77.3225 73.4249C77.5505 73.4269 77.7755 73.4979 77.9675 73.6399L79.9555 75.1079L79.2005 72.7539C79.1265 72.5249 79.1305 72.2899 79.2005 72.0769C79.2705 71.8629 79.4095 71.6719 79.6055 71.5309L81.6165 70.0929ZM79.4945 68.5249L78.4115 65.1059C78.3285 64.8429 78.1645 64.6459 77.9615 64.5159C77.7845 64.4029 77.5795 64.3459 77.3745 64.3449C77.1705 64.3429 76.9655 64.3979 76.7895 64.5079C76.5835 64.6359 76.4165 64.8309 76.3305 65.0929L75.2095 68.4999L71.6225 68.4729C71.3505 68.4709 71.1125 68.5669 70.9275 68.7189C70.7625 68.8549 70.6445 69.0309 70.5805 69.2219C70.5175 69.4119 70.5075 69.6239 70.5585 69.8289C70.6165 70.0629 70.7505 70.2819 70.9725 70.4449L73.8675 72.5639L72.7335 75.9669C72.6455 76.2289 72.6625 76.4829 72.7495 76.7039C72.8265 76.8999 72.9595 77.0679 73.1235 77.1879C73.2855 77.3079 73.4835 77.3839 73.6945 77.3989C73.9325 77.4159 74.1805 77.3559 74.4055 77.1939L77.3145 75.0969L80.1995 77.2259C80.4225 77.3909 80.6695 77.4549 80.9075 77.4399H80.9105C81.1195 77.4279 81.3185 77.3529 81.4855 77.2339C81.6505 77.1159 81.7845 76.9499 81.8635 76.7549C81.9535 76.5329 81.9715 76.2779 81.8875 76.0159L80.7915 72.6019L83.7075 70.5169C83.9325 70.3569 84.0695 70.1389 84.1305 69.9049C84.1835 69.7029 84.1745 69.4919 84.1125 69.2989C84.0495 69.1029 83.9345 68.9229 83.7745 68.7889C83.5915 68.6359 83.3535 68.5389 83.0755 68.5379L79.4945 68.5249ZM64.7085 40.6809C65.9145 41.8859 66.6595 43.5519 66.6595 45.3909C66.6595 47.2299 65.9145 48.8959 64.7085 50.1009C63.5035 51.3069 61.8385 52.0519 59.9985 52.0519C58.1585 52.0519 56.4935 51.3059 55.2885 50.1009C54.0835 48.8959 53.3375 47.2299 53.3375 45.3909C53.3375 43.5519 54.0835 41.8859 55.2885 40.6809C56.4935 39.4749 58.1585 38.7299 59.9985 38.7299C61.8385 38.7299 63.5035 39.4759 64.7085 40.6809ZM28.5065 46.5869C31.0665 40.3919 35.4055 35.1069 40.8965 31.3779C46.2175 27.7639 52.6215 25.6139 59.5335 25.5159C68.9465 25.3819 77.5205 29.0749 83.7745 35.1539C90.0275 41.2319 93.9625 49.6959 94.0955 59.1069C94.1065 59.9029 94.0915 60.6849 94.0505 61.4519C94.0415 61.6139 94.0305 61.7759 94.0205 61.9399L87.4585 55.3699C87.1155 55.0279 86.5605 55.0289 86.2185 55.3719C85.8755 55.7149 85.8765 56.2709 86.2195 56.6129L94.0545 64.4579C94.1925 64.6149 94.3855 64.7259 94.6105 64.7519C94.9085 64.7879 95.1905 64.6699 95.3755 64.4609L103.006 56.3739C103.339 56.0209 103.322 55.4649 102.97 55.1319C102.616 54.7989 102.061 54.8149 101.728 55.1679L95.8055 61.4449C95.8455 60.6569 95.8615 59.8699 95.8495 59.0849C95.7095 49.1909 91.5715 40.2899 84.9945 33.8969C78.4185 27.5049 69.4045 23.6219 59.5135 23.7619C52.2425 23.8659 45.5075 26.1269 39.9105 29.9279C34.1415 33.8449 29.5815 39.4019 26.8885 45.9199C26.7035 46.3669 26.9175 46.8789 27.3655 47.0639C27.8105 47.2479 28.3215 47.0339 28.5065 46.5869ZM22.5135 62.1639C23.1425 71.4049 27.1365 80.0529 33.8185 86.5489C37.2925 89.9249 41.3915 92.6099 45.8805 94.4339C50.5405 96.3279 55.5225 97.2519 60.5515 97.1809C67.9025 97.0769 75.0065 94.8529 81.0915 90.7269C87.1705 86.6049 91.9405 80.7749 94.7555 73.9859C95.3135 72.6419 94.6705 71.0969 93.3255 70.5429C91.9825 69.9899 90.4435 70.6309 89.8875 71.9709C87.4665 77.8089 83.3635 82.8229 78.1365 86.3669C72.9045 89.9149 66.7995 91.8219 60.4805 91.9119C51.9205 92.0339 43.6265 88.7369 37.4895 82.7709C31.6755 77.1189 28.2325 69.5779 27.7555 61.5259L31.3635 65.1389C32.3925 66.1689 34.0655 66.1669 35.0935 65.1359C36.1195 64.1069 36.1175 62.4389 35.0905 61.4099L27.2425 53.5519C26.8165 53.0959 26.2445 52.8059 25.6235 52.7329C24.7785 52.6339 23.9405 52.9479 23.3695 53.5729L15.7155 61.6869C14.7205 62.7419 14.7695 64.4199 15.8235 65.4149C16.8785 66.4099 18.5565 66.3609 19.5515 65.3069L22.5135 62.1639ZM97.5255 57.0579C96.9045 47.8029 92.9095 39.1399 86.2175 32.6359C82.7435 29.2599 78.6455 26.5739 74.1565 24.7509C69.4955 22.8569 64.5135 21.9319 59.4845 22.0039C52.1245 22.1079 45.0095 24.3369 38.9195 28.4729C32.8365 32.6039 28.0695 38.4479 25.2605 45.2479C24.7055 46.5909 25.3485 48.1359 26.6925 48.6889C28.0345 49.2419 29.5775 48.5999 30.1305 47.2579C32.5475 41.4089 36.6515 36.3839 41.8835 32.8319C47.1185 29.2759 53.2305 27.3629 59.5565 27.2729C68.1165 27.1509 76.4105 30.4479 82.5475 36.4139C88.3755 42.0789 91.8195 49.6419 92.2845 57.7149L88.7015 54.1269C87.6725 53.0959 85.9995 53.0989 84.9715 54.1299C83.9455 55.1589 83.9485 56.8269 84.9745 57.8549L92.7795 65.6699C93.2035 66.1289 93.7755 66.4219 94.3985 66.4969C95.2485 66.6009 96.0935 66.2829 96.6675 65.6519L104.284 57.5789C105.278 56.5249 105.229 54.8459 104.175 53.8509C103.121 52.8569 101.443 52.9059 100.447 53.9599L97.5255 57.0579Z" fill="black"/>
<path fill-rule="evenodd" clip-rule="evenodd" d="M24.2295 57.7819L18.2705 64.0969C17.9385 64.4509 17.3815 64.4659 17.0295 64.1329C16.6755 63.7999 16.6605 63.2439 16.9925 62.8909L24.6595 54.7659C24.8435 54.5599 25.1215 54.4439 25.4175 54.4779C25.6405 54.5039 25.8335 54.6109 25.9715 54.7669L33.8455 62.6519C34.1885 62.9939 34.1895 63.5489 33.8475 63.8929C33.5055 64.2359 32.9505 64.2369 32.6065 63.8939L26.0135 57.2919C26.0025 57.4469 25.9935 57.6019 25.9855 57.7549C25.9455 58.5139 25.9305 59.2879 25.9415 60.0769C26.0755 69.4869 30.0095 77.9519 36.2625 84.0299C42.5165 90.1089 51.0915 93.8019 60.5035 93.6689C67.4095 93.5699 73.8055 91.4259 79.1225 87.8209C84.6055 84.1019 88.9435 78.8289 91.5105 72.6429C91.6955 72.1959 92.2075 71.9829 92.6555 72.1669C93.1035 72.3509 93.3155 72.8629 93.1315 73.3109C90.4335 79.8149 85.8715 85.3599 80.1045 89.2699C74.5115 93.0629 67.7865 95.3189 60.5275 95.4219C50.6345 95.5619 41.6215 91.6789 35.0455 85.2859C28.4685 78.8929 24.3305 69.9919 24.1905 60.0979C24.1775 59.3289 24.1905 58.5559 24.2295 57.7819ZM28.5065 46.5869C31.0665 40.3919 35.4055 35.1069 40.8965 31.3779C46.2175 27.7639 52.6215 25.6139 59.5335 25.5159C68.9465 25.3819 77.5205 29.0749 83.7745 35.1539C90.0275 41.2319 93.9625 49.6959 94.0955 59.1069C94.1065 59.9029 94.0915 60.6849 94.0505 61.4519C94.0415 61.6139 94.0305 61.7759 94.0205 61.9399L87.4585 55.3699C87.1155 55.0279 86.5605 55.0289 86.2185 55.3719C85.8755 55.7149 85.8765 56.2709 86.2195 56.6129L94.0545 64.4579C94.1925 64.6149 94.3855 64.7259 94.6105 64.7519C94.9085 64.7879 95.1905 64.6699 95.3755 64.4609L103.006 56.3739C103.339 56.0209 103.322 55.4649 102.97 55.1319C102.616 54.7989 102.061 54.8149 101.728 55.1679L95.8055 61.4449C95.8455 60.6569 95.8615 59.8699 95.8495 59.0849C95.7095 49.1909 91.5715 40.2899 84.9945 33.8969C78.4185 27.5049 69.4045 23.6219 59.5135 23.7619C52.2425 23.8659 45.5075 26.1269 39.9105 29.9279C34.1415 33.8449 29.5815 39.4019 26.8885 45.9199C26.7035 46.3669 26.9175 46.8789 27.3655 47.0639C27.8105 47.2479 28.3215 47.0339 28.5065 46.5869ZM22.5135 62.1639C23.1425 71.4049 27.1365 80.0529 33.8185 86.5489C37.2925 89.9249 41.3915 92.6099 45.8805 94.4339C50.5405 96.3279 55.5225 97.2519 60.5515 97.1809C67.9025 97.0769 75.0065 94.8529 81.0915 90.7269C87.1705 86.6049 91.9405 80.7749 94.7555 73.9859C95.3135 72.6419 94.6705 71.0969 93.3255 70.5429C91.9825 69.9899 90.4435 70.6309 89.8875 71.9709C87.4665 77.8089 83.3635 82.8229 78.1365 86.3669C72.9045 89.9149 66.7995 91.8219 60.4805 91.9119C51.9205 92.0339 43.6265 88.7369 37.4895 82.7709C31.6755 77.1189 28.2325 69.5779 27.7555 61.5259L31.3635 65.1389C32.3925 66.1689 34.0655 66.1669 35.0935 65.1359C36.1195 64.1069 36.1175 62.4389 35.0905 61.4099L27.2425 53.5519C26.8165 53.0959 26.2445 52.8059 25.6235 52.7329C24.7785 52.6339 23.9405 52.9479 23.3695 53.5729L15.7155 61.6869C14.7205 62.7419 14.7695 64.4199 15.8235 65.4149C16.8785 66.4099 18.5565 66.3609 19.5515 65.3069L22.5135 62.1639ZM97.5255 57.0579C96.9045 47.8029 92.9095 39.1399 86.2175 32.6359C82.7435 29.2599 78.6455 26.5739 74.1565 24.7509C69.4955 22.8569 64.5135 21.9319 59.4845 22.0039C52.1245 22.1079 45.0095 24.3369 38.9195 28.4729C32.8365 32.6039 28.0695 38.4479 25.2605 45.2479C24.7055 46.5909 25.3485 48.1359 26.6925 48.6889C28.0345 49.2419 29.5775 48.5999 30.1305 47.2579C32.5475 41.4089 36.6515 36.3839 41.8835 32.8319C47.1185 29.2759 53.2305 27.3629 59.5565 27.2729C68.1165 27.1509 76.4105 30.4479 82.5475 36.4139C88.3755 42.0789 91.8195 49.6419 92.2845 57.7149L88.7015 54.1269C87.6725 53.0959 85.9995 53.0989 84.9715 54.1299C83.9455 55.1589 83.9485 56.8269 84.9745 57.8549L92.7795 65.6699C93.2035 66.1289 93.7755 66.4219 94.3985 66.4969C95.2485 66.6009 96.0935 66.2829 96.6675 65.6519L104.284 57.5789C105.278 56.5249 105.229 54.8459 104.175 53.8509C103.121 52.8569 101.443 52.9059 100.447 53.9599L97.5255 57.0579Z" fill="#018580"/>
</svg>
