<svg width="120" height="120" viewBox="0 0 120 120" fill="none" xmlns="http://www.w3.org/2000/svg">
<path d="M81.3621 67.0374L69.0839 61.7772C71.7356 59.3993 73.4217 55.9549 73.4217 52.1074C73.4217 44.9305 67.5851 39.0941 60.4084 39.0941C53.2318 39.0941 47.3951 44.9308 47.3951 52.1074C47.3951 55.9408 49.0813 59.3852 51.733 61.7772L39.4548 67.0374C38.0569 67.6427 37.1489 69.0118 37.1489 70.525V101.279C37.1489 101.683 37.466 102 37.8695 102H82.9342C83.3377 102 83.6547 101.683 83.6547 101.279V70.525C83.6692 69.0118 82.7612 67.6427 81.3633 67.0374H81.3621ZM48.8348 52.1066C48.8348 45.7222 54.023 40.534 60.4074 40.534C66.7919 40.534 71.98 45.7221 71.98 52.1066C71.98 58.491 66.7919 63.6792 60.4074 63.6792C54.023 63.6792 48.8348 58.491 48.8348 52.1066ZM58.6633 69.833H52.9419V64.0972L58.6633 69.833ZM54.628 63.7513C56.3718 64.616 58.3318 65.1204 60.407 65.1204C62.4823 65.1204 64.4423 64.616 66.1861 63.7513L60.407 69.5303L54.628 63.7513ZM59.0092 71.2741H61.805L63.7649 90.859L60.407 95.8743L57.0492 90.8447L59.0092 71.2741ZM62.1508 69.8329L67.8867 64.0971V69.8329H62.1508ZM82.2265 100.558H75.4675V80.7848C75.4675 80.3813 75.1504 80.0642 74.7469 80.0642C74.3434 80.0642 74.0263 80.3813 74.0263 80.7848V100.543H46.7887V80.7848C46.7887 80.3813 46.4716 80.0642 46.0681 80.0642C45.6646 80.0642 45.3475 80.3813 45.3475 80.7848V100.543H38.5885V70.5238C38.5885 69.587 39.1506 68.7367 40.0153 68.362L51.4874 63.4477V70.5525C51.4874 70.9561 51.8044 71.2731 52.2079 71.2731H57.5547L55.5803 90.9595C55.5659 91.1325 55.6091 91.291 55.6956 91.4351L59.7885 97.5744C59.9182 97.7762 60.1488 97.8914 60.3938 97.8914C60.6388 97.8914 60.8549 97.7762 60.9991 97.5744L65.0919 91.4351C65.1784 91.291 65.2216 91.1325 65.2072 90.9595L63.2329 71.2731H68.5796C68.9831 71.2731 69.3002 70.9561 69.3002 70.5525V63.4477L80.7722 68.362C81.6369 68.7367 82.199 69.5869 82.199 70.5238V100.557L82.2265 100.558Z" fill="black"/>
<path d="M71.4903 24.9408L64.3133 23.9032L61.0995 17.4035C60.9842 17.1585 60.7248 17 60.451 17C60.1772 17 59.9322 17.1585 59.8025 17.4035L56.6031 23.9032L49.4262 24.9408C49.1523 24.984 48.9362 25.1714 48.8497 25.4308C48.7632 25.6902 48.8353 25.9784 49.037 26.1658L54.2252 31.2243L53.0003 38.3724C52.957 38.6462 53.0579 38.92 53.2885 39.0786C53.5047 39.2371 53.8073 39.2659 54.0523 39.1362L60.4654 35.7639L66.8786 39.1362C66.9794 39.1938 67.0947 39.2227 67.21 39.2227C67.3541 39.2227 67.5127 39.1794 67.628 39.0786C67.8441 38.92 67.9594 38.6462 67.9162 38.3724L66.6912 31.2243L71.8794 26.1658C72.0812 25.9784 72.1532 25.6902 72.0668 25.4308C71.9803 25.1714 71.7641 24.984 71.4903 24.9408ZM65.423 30.4604C65.2501 30.619 65.178 30.864 65.2213 31.0946L66.2589 37.1763L60.7969 34.3084C60.696 34.2507 60.5807 34.2219 60.4654 34.2219C60.3501 34.2219 60.2348 34.2507 60.1339 34.3084L54.6719 37.1763L55.7096 31.0946C55.7528 30.864 55.6663 30.619 55.5078 30.4604L51.0979 26.1514L57.194 25.2578C57.4246 25.229 57.6264 25.0705 57.7417 24.8687L60.4654 19.3347L63.1892 24.8687C63.2901 25.0849 63.4918 25.229 63.7368 25.2578L69.8329 26.1514L65.423 30.4604Z" fill="#018580"/>
<path d="M38.4299 57.2946C38.574 57.2946 38.7325 57.2513 38.8478 57.1505C39.064 56.9919 39.1793 56.7181 39.136 56.4443L38.3434 51.8326L41.7013 48.5611C41.903 48.3738 41.9751 48.0856 41.8886 47.8262C41.8022 47.5667 41.5716 47.3794 41.3122 47.3362L36.6861 46.6588L34.6108 42.465C34.3658 41.975 33.5588 41.975 33.3138 42.465L31.2385 46.6588L26.6124 47.3362C26.3386 47.3794 26.1225 47.5667 26.036 47.8262C25.9495 48.0856 26.0216 48.3738 26.2233 48.5611L29.5812 51.8326L28.7886 56.4443C28.7453 56.7181 28.8462 56.9919 29.0768 57.1505C29.3074 57.309 29.5956 57.3378 29.8406 57.2081L33.9767 55.0319L38.1129 57.2081C38.1994 57.2658 38.3146 57.2946 38.4299 57.2946ZM34.2794 53.5908C34.1785 53.5332 34.0632 53.5044 33.9479 53.5044C33.8326 53.5044 33.7173 53.5332 33.6164 53.5908L30.4315 55.2626L31.0368 51.7173C31.08 51.4867 30.9935 51.2417 30.835 51.0832L28.2553 48.5755L31.815 48.0567C32.0456 48.0279 32.2473 47.8693 32.3626 47.6676L33.9479 44.4394L35.5477 47.6676C35.6485 47.8838 35.8503 48.0279 36.0953 48.0567L39.655 48.5755L37.0753 51.0832C36.9023 51.2417 36.8303 51.4867 36.8735 51.7173L37.4788 55.2626L34.2794 53.5908Z" fill="#018580"/>
<path d="M94.2167 47.3508L89.5907 46.6735L87.5154 42.4797C87.4001 42.2347 87.1407 42.0762 86.8669 42.0762C86.593 42.0762 86.348 42.2347 86.2184 42.4797L84.1431 46.6735L79.517 47.3508C79.2432 47.3941 79.027 47.5814 78.9405 47.8408C78.8541 48.1002 78.9261 48.3885 79.1279 48.5758L82.4857 51.8473L81.6931 56.459C81.6499 56.7328 81.7508 57.0066 81.9813 57.1651C82.111 57.2516 82.2552 57.3092 82.3993 57.3092C82.5146 57.3092 82.6299 57.2804 82.7307 57.2228L86.8669 55.0466L91.003 57.2228C91.248 57.3525 91.5363 57.3381 91.7668 57.1651C91.983 57.0066 92.0983 56.7328 92.0551 56.459L91.2624 51.8473L94.6203 48.5758C94.8221 48.3885 94.8941 48.1002 94.8077 47.8408C94.7068 47.5814 94.4906 47.3797 94.2167 47.3508ZM89.9797 51.069C89.8068 51.2275 89.7347 51.4725 89.7779 51.7031L90.3832 55.2484L87.1983 53.5766C86.9821 53.4613 86.7371 53.4613 86.5209 53.5766L83.336 55.2484L83.9413 51.7031C83.9845 51.4725 83.8981 51.2275 83.7395 51.069L81.1598 48.5613L84.7195 48.0425C84.9501 48.0137 85.1519 47.8551 85.2672 47.6534L86.8669 44.4252L88.4522 47.6534C88.5531 47.8696 88.7548 48.0137 88.9998 48.0425L92.5595 48.5613L89.9797 51.069Z" fill="#018580"/>
<path d="M44.3098 28.7021C44.0648 28.2121 43.2578 28.2121 43.0128 28.7021L40.9375 32.8959L36.3114 33.5732C36.0376 33.6165 35.8214 33.8038 35.735 34.0632C35.6485 34.3226 35.7205 34.6109 35.9223 34.7982L39.2802 38.0697L38.4875 42.6814C38.4443 42.9552 38.5452 43.229 38.7758 43.3875C39.0064 43.546 39.2946 43.5749 39.5396 43.4452L43.6757 41.269L47.8119 43.4452C47.9128 43.5028 48.028 43.5316 48.1433 43.5316C48.2875 43.5316 48.446 43.4884 48.5613 43.3875C48.7775 43.229 48.8927 42.9552 48.8495 42.6814L48.0569 38.0697L51.4147 34.7982C51.6165 34.6109 51.6886 34.3226 51.6021 34.0632C51.5156 33.8038 51.285 33.6165 51.0256 33.5732L46.3995 32.8959L44.3098 28.7021ZM46.7886 37.2914C46.6156 37.4499 46.5436 37.6949 46.5868 37.9255L47.1921 41.4708L44.0072 39.799C43.9063 39.7414 43.791 39.7126 43.6757 39.7126C43.5604 39.7126 43.4451 39.7414 43.3442 39.799L40.1593 41.4708L40.7646 37.9255C40.8078 37.6949 40.7213 37.4499 40.5628 37.2914L37.9831 34.7837L41.5428 34.2649C41.7734 34.2361 41.9751 34.0776 42.0904 33.8758L43.6758 30.6476L45.2611 33.8758C45.362 34.092 45.5637 34.2361 45.8087 34.2649L49.3684 34.7837L46.7886 37.2914Z" fill="#018580"/>
<path d="M85.2959 34.0636C85.2094 33.8042 84.9788 33.6168 84.7194 33.5736L80.0933 32.8963L78.0181 28.7025C77.9028 28.4575 77.6434 28.299 77.3696 28.299C77.0957 28.299 76.8507 28.4575 76.721 28.7025L74.6458 32.8963L70.0197 33.5736C69.7458 33.6168 69.5297 33.8042 69.4432 34.0636C69.3567 34.323 69.4288 34.6112 69.6306 34.7986L72.9884 38.07L72.1958 42.6817C72.1526 42.9556 72.2534 43.2294 72.484 43.3879C72.6137 43.4744 72.7578 43.532 72.902 43.532C73.0172 43.532 73.1325 43.5032 73.2334 43.4455L77.3696 41.2694L81.5057 43.4455C81.7507 43.5752 82.0389 43.5464 82.2695 43.3879C82.4857 43.2294 82.601 42.9556 82.5578 42.6817L81.7651 38.07L85.123 34.7986C85.3103 34.6112 85.3824 34.323 85.2959 34.0636ZM80.4824 37.2918C80.3094 37.4503 80.2374 37.6953 80.2806 37.9259L80.8859 41.4712L77.701 39.7994C77.4848 39.6842 77.2398 39.6842 77.0236 39.7994L73.8387 41.4712L74.444 37.9259C74.4872 37.6953 74.4007 37.4503 74.2422 37.2918L71.6625 34.7841L75.2222 34.2653C75.4528 34.2365 75.6545 34.078 75.7698 33.8762L77.3695 30.648L78.9549 33.8762C79.0557 34.0924 79.2575 34.2365 79.5025 34.2653L83.0622 34.7841L80.4824 37.2918Z" fill="#018580"/>
</svg>
