<svg width="100" height="100" viewBox="0 0 100 100" fill="none" xmlns="http://www.w3.org/2000/svg">
<path d="M20.3937 81.5458H21.7321C22.074 81.5458 22.3377 81.269 22.3377 80.9401C22.3377 80.6113 22.061 80.3345 21.7321 80.3345H20.3937C20.0518 80.3345 19.7881 80.6113 19.7881 80.9401C19.7881 81.269 20.0518 81.5458 20.3937 81.5458Z" fill="black"/>
<path d="M24.8161 81.5458H35.1219C35.4638 81.5458 35.7275 81.269 35.7275 80.9401C35.7275 80.6113 35.4508 80.3345 35.1219 80.3345H24.8161C24.4742 80.3345 24.2104 80.6113 24.2104 80.9401C24.2104 81.269 24.4872 81.5458 24.8161 81.5458Z" fill="black"/>
<path d="M16.402 17.2711C16.529 17.3981 16.682 17.4502 16.8318 17.4502C16.9849 17.4502 17.1477 17.3884 17.2616 17.2744C17.5026 17.0334 17.5026 16.6557 17.2616 16.4148L14.471 13.6209C14.23 13.3799 13.8523 13.3799 13.6114 13.6209C13.3737 13.8619 13.3737 14.2396 13.6114 14.4805L16.402 17.2711Z" fill="#018580"/>
<path d="M19.1174 15.1644C19.4593 15.1644 19.723 14.8876 19.723 14.5587V10.6057C19.723 10.2638 19.4463 10 19.1174 10C18.7755 10 18.5117 10.2768 18.5117 10.6057V14.5587C18.5117 14.8974 18.7918 15.1644 19.1174 15.1644Z" fill="#018580"/>
<path d="M15.1644 19.1276C15.1644 18.7857 14.8876 18.522 14.5587 18.522H10.6057C10.2638 18.522 10 18.7988 10 19.1276C10 19.4695 10.2768 19.7333 10.6057 19.7333H14.5587C14.8876 19.7365 15.1644 19.4695 15.1644 19.1276Z" fill="#018580"/>
<path d="M11.6931 12.5626C11.8071 12.6766 11.9699 12.7385 12.1229 12.7385C12.276 12.7385 12.4388 12.6766 12.5527 12.5626C12.7937 12.3217 12.7937 11.9439 12.5527 11.703L11.908 11.0583C11.667 10.8173 11.2893 10.8173 11.0484 11.0583C10.8074 11.2992 10.8074 11.677 11.0484 11.9179L11.6931 12.5626Z" fill="#018580"/>
<path d="M25.1808 46.157H35.1323C35.2951 46.157 35.4481 46.0952 35.5621 45.9812C35.6761 45.8672 35.7379 45.7174 35.7379 45.5514C35.7379 42.5198 36.9135 39.6641 39.0332 37.4921C41.2182 35.2681 44.1228 34.0568 47.2292 34.0568C50.1077 34.0568 52.8006 35.1183 54.9205 37.0265C52.5206 37.6973 45.8517 39.6673 44.2371 41.1326C43.2407 42.0411 42.6447 43.2915 42.5959 44.6428C42.534 45.9942 42.9996 47.2967 43.9081 48.2931C44.8166 49.2895 46.067 49.8723 47.4183 49.9343H47.6593C48.9227 49.9343 50.1341 49.4654 51.0685 48.609C52.6966 47.1176 55.2886 40.5889 56.1581 38.3032C57.8123 40.3481 58.7207 42.875 58.7207 45.5289C58.7207 45.6917 58.7826 45.8447 58.8966 45.9587C59.0105 46.0726 59.1603 46.1345 59.3264 46.1345H69.2779C69.6198 46.1345 69.8835 45.8577 69.8835 45.5289C69.8835 39.5406 67.5716 33.8977 63.3678 29.6288C59.0728 25.2719 53.3388 22.8721 47.2135 22.8721C41.1015 22.8721 35.3539 25.2719 31.0592 29.6288C26.8521 33.8977 24.5435 39.5445 24.5435 45.5289C24.576 45.8805 24.8398 46.1573 25.1817 46.1573L25.1808 46.157ZM50.2638 47.7233C49.505 48.4168 48.5347 48.7718 47.4862 48.7197C46.4637 48.6676 45.5162 48.228 44.8226 47.4693C44.129 46.7106 43.7741 45.7272 43.8262 44.7047C43.8783 43.6692 44.3179 42.7217 45.0766 42.0281C46.301 40.9178 51.7975 39.1854 54.8781 38.3029C53.7124 41.2954 51.4914 46.6127 50.2638 47.7233ZM59.951 44.9326C59.811 42.015 58.6876 39.2602 56.7306 37.0753L62.9565 30.9373C66.5319 34.7764 68.5507 39.7034 68.6908 44.9325L59.951 44.9326ZM55.8742 36.2157C53.6633 34.1708 50.8596 32.9953 47.8541 32.8553V24.1159C53.2106 24.2689 58.2224 26.3626 62.1003 30.078L55.8742 36.2157ZM46.6263 32.8455C43.6207 32.9855 40.8171 34.1577 38.6061 36.2059L36.2681 33.907L32.3769 30.0678C36.242 26.3557 41.2564 24.2586 46.6231 24.1057L46.6263 32.8455ZM31.534 30.9373L37.7599 37.0753C35.8029 39.2602 34.6796 42.015 34.5395 44.9326H25.8001C25.9401 39.7031 27.9619 34.776 31.534 30.9373Z" fill="black"/>
<path d="M59.951 44.9326C59.811 42.015 58.6876 39.2602 56.7306 37.0753L62.9565 30.9373C66.5319 34.7764 68.5507 39.7034 68.6908 44.9325L59.951 44.9326Z" fill="#018580"/>
<path d="M47.6611 46.9649C48.8106 46.9649 49.7451 46.0304 49.7451 44.8809C49.7451 43.7315 48.8106 42.8099 47.6611 42.8099C46.5117 42.8099 45.5771 43.7445 45.5771 44.8809C45.5771 46.0304 46.5117 46.9649 47.6611 46.9649ZM47.6611 44.0246C48.1398 44.0246 48.5208 44.4153 48.5208 44.8842C48.5208 45.3628 48.13 45.7438 47.6611 45.7438C47.1923 45.7438 46.8015 45.353 46.8015 44.8842C46.8048 44.4153 47.1825 44.0246 47.6611 44.0246Z" fill="black"/>
<path d="M25.1809 69.0419H40.8567C41.1986 69.0419 41.4623 68.7651 41.4623 68.4362V52.7637C41.4623 52.4218 41.1855 52.1581 40.8567 52.1581H25.1809C24.8389 52.1581 24.5752 52.4349 24.5752 52.7637V68.4262C24.5752 68.7649 24.839 69.0419 25.1809 69.0419ZM29.287 67.8175V66.3261C29.287 64.2681 30.9672 62.6009 33.0252 62.6009C34.0216 62.6009 34.9561 62.9917 35.666 63.6983C36.3726 64.3918 36.7634 65.3264 36.7634 66.326V67.8174L29.287 67.8175ZM31.016 59.3806V57.9153C31.016 56.818 31.9115 55.9193 33.0252 55.9193H35.526C35.5129 55.9453 35.4869 55.9584 35.4739 55.9812L35.4608 55.9942C35.3729 56.0821 35.259 56.157 35.145 56.1961C34.9822 56.2579 34.8552 56.3849 34.7901 56.551C34.7282 56.7138 34.738 56.8929 34.8161 57.0557C34.9561 57.3195 35.031 57.6256 35.031 57.9284V59.3937C35.031 60.4911 34.1356 61.3898 33.035 61.3898C31.9148 61.3898 31.016 60.4943 31.016 59.3806ZM25.7865 53.3697H40.2345V67.8176H37.9616V66.3262C37.9616 65.0009 37.4438 63.7635 36.5093 62.829C36.0925 62.3992 35.6008 62.0703 35.07 61.8326C35.7766 61.24 36.2324 60.3673 36.2324 59.3839V57.9186C36.2324 57.6158 36.1934 57.3129 36.1055 57.0329C36.1804 56.971 36.2585 56.9059 36.3204 56.844C36.7241 56.4403 36.9521 55.8965 36.9521 55.3169C36.9521 54.975 36.6753 54.7112 36.3464 54.7112H33.012C31.2309 54.7112 29.7916 56.1505 29.7916 57.9317V59.397C29.7916 60.3836 30.2475 61.2531 30.954 61.8457C29.2477 62.6272 28.0625 64.3465 28.0625 66.3425V67.8339H25.7896L25.7865 53.3697Z" fill="#018580"/>
<path d="M69.3128 53.5194H54.8874C54.5455 53.5194 54.2817 53.7962 54.2817 54.1251C54.2817 54.467 54.5585 54.7307 54.8874 54.7307H69.3128C69.6547 54.7307 69.9185 54.4539 69.9185 54.1251C69.9185 53.7864 69.6417 53.5194 69.3128 53.5194Z" fill="black"/>
<path d="M69.3127 58.0425H46.5905C46.2486 58.0425 45.9849 58.3193 45.9849 58.6481C45.9849 58.977 46.2616 59.2538 46.5905 59.2538H69.3127C69.6546 59.2538 69.9184 58.977 69.9184 58.6481C69.9184 58.3193 69.6416 58.0425 69.3127 58.0425Z" fill="black"/>
<path d="M48.6092 62.5781H46.5871C46.2452 62.5781 45.9814 62.8549 45.9814 63.1838C45.9814 63.5127 46.2582 63.7894 46.5871 63.7894H48.6092C48.9512 63.7894 49.2149 63.5127 49.2149 63.1838C49.2182 62.8549 48.9381 62.5781 48.6092 62.5781Z" fill="black"/>
<path d="M48.6092 67.0979H46.5871C46.2452 67.0979 45.9814 67.3747 45.9814 67.7036C45.9814 68.0324 46.2582 68.3092 46.5871 68.3092H48.6092C48.9512 68.3092 49.2149 68.0324 49.2149 67.7036C49.2182 67.3747 48.9381 67.0979 48.6092 67.0979Z" fill="black"/>
<path d="M25.1809 73.3632H48.6091C48.951 73.3632 49.2148 73.0864 49.2148 72.7575C49.2148 72.4156 48.938 72.1519 48.6091 72.1519H25.1809C24.8389 72.1519 24.5752 72.4286 24.5752 72.7575C24.5752 73.0864 24.839 73.3632 25.1809 73.3632Z" fill="black"/>
<path d="M11.628 87.9904H11.4001C11.0582 87.9904 10.7944 88.2671 10.7944 88.596C10.7944 88.9379 11.0712 89.2017 11.4001 89.2017H11.628C11.9699 89.2017 12.2337 88.9249 12.2337 88.596C12.2467 88.2671 11.9699 87.9904 11.628 87.9904Z" fill="black"/>
<path d="M87.8408 87.9904H87.665C87.9418 87.5736 88.1078 87.0688 88.1078 86.5251L88.1046 65.2425C88.1046 63.7642 86.9063 62.5528 85.4149 62.5528H75.4376V31.7713H86.3885C86.7305 31.7713 86.9942 31.4946 86.9942 31.1657V23.3865C86.9942 21.6802 86.3234 20.0782 85.1251 18.8636C83.9138 17.6653 82.3085 16.9945 80.6152 16.9945H80.6022H25.4346C21.9113 16.9945 19.0426 19.86 19.0426 23.3865V76.4342C17.3363 76.4342 15.7342 77.105 14.5197 78.3033C13.3214 79.5146 12.6636 81.12 12.6636 82.8132C12.6636 84.9493 13.7121 86.8282 15.3174 87.9906H13.2693C12.9274 87.9906 12.6636 88.2674 12.6636 88.5963C12.6636 88.9382 12.9404 89.202 13.2693 89.202H87.8405C88.1824 89.202 88.4461 88.9252 88.4461 88.5963C88.4461 88.2674 88.1827 87.9904 87.8408 87.9904ZM80.6022 18.2057C80.6152 18.2057 80.6152 18.2057 80.6022 18.2057C81.9796 18.2057 83.2788 18.7495 84.2524 19.7198C85.2261 20.6935 85.7666 21.9927 85.7666 23.3831V30.5566H75.4216V23.3831C75.4379 20.5306 77.7628 18.2057 80.6022 18.2057ZM25.4347 18.2057H76.8543C75.249 19.3681 74.2135 21.2502 74.2135 23.3701V31.1362V31.1492V31.1623V62.5489L53.1943 62.5522C51.716 62.5522 50.5046 63.7505 50.5046 65.2418V76.4337H20.2675V23.3861C20.2675 20.5303 22.592 18.2057 25.4347 18.2057ZM13.891 82.8229C13.891 81.4455 14.4218 80.1463 15.3954 79.1726C16.369 78.199 17.6683 77.6585 19.0587 77.6585H50.5078V86.538C50.5078 87.0818 50.6706 87.5865 50.9507 88.0033H19.0555C16.1998 87.9903 13.891 85.6785 13.891 82.8229ZM53.1935 87.9905C52.3859 87.9905 51.7282 87.3328 51.7282 86.5252V65.2426C51.7282 64.4351 52.386 63.7773 53.1935 63.7773H65.3424C65.3684 63.7773 65.3814 63.7904 65.4042 63.7904H69.3085C69.3345 63.7904 69.3475 63.7773 69.3703 63.7773H85.4238C86.2313 63.7773 86.8891 64.4351 86.8891 65.2426V86.5252C86.8891 87.3328 86.2313 87.9905 85.4238 87.9905H53.1935Z" fill="black"/>
<path d="M89.3939 87.9904H89.319C88.9771 87.9904 88.7134 88.2671 88.7134 88.596C88.7134 88.9379 88.9902 89.2017 89.319 89.2017H89.3939C89.7358 89.2017 89.9996 88.9249 89.9996 88.596C90.0126 88.2671 89.7358 87.9904 89.3939 87.9904Z" fill="black"/>
<path d="M56.6069 73.2624H62.1523C62.9859 73.2624 63.6664 72.5818 63.6664 71.7482V68.4236C63.6664 67.59 62.9859 66.9094 62.1523 66.9094H56.6069C55.7733 66.9094 55.0928 67.59 55.0928 68.4236V71.745C55.0895 72.5916 55.7733 73.2624 56.6069 73.2624ZM56.3139 68.4236C56.3139 68.2608 56.4409 68.1207 56.6037 68.1207H62.149C62.3118 68.1207 62.4388 68.2608 62.4388 68.4236V71.745C62.4388 71.9078 62.3118 72.0348 62.149 72.0348H56.6037C56.4409 72.0348 56.3139 71.9078 56.3139 71.745V68.4236Z" fill="black"/>
<path d="M55.7082 79.9804C56.0501 79.9804 56.3138 79.7036 56.3138 79.3747V77.6684C56.3138 77.3265 56.037 77.0627 55.7082 77.0627C55.3662 77.0627 55.1025 77.3395 55.1025 77.6684V79.3747C55.0895 79.7036 55.3663 79.9804 55.7082 79.9804Z" fill="#018580"/>
<path d="M58.98 77.6579V79.3642C58.98 79.7061 59.2568 79.9699 59.5856 79.9699C59.9276 79.9699 60.1913 79.6931 60.1913 79.3642V77.6579C60.1913 77.316 59.9145 77.0522 59.5856 77.0522C59.2568 77.0522 58.98 77.329 58.98 77.6579Z" fill="#018580"/>
<path d="M63.4772 77.0527C63.1353 77.0527 62.8716 77.3295 62.8716 77.6584V79.3647C62.8716 79.7066 63.1484 79.9703 63.4772 79.9703C63.8192 79.9703 64.0829 79.6936 64.0829 79.3647V77.6584C64.0829 77.3295 63.8159 77.0527 63.4772 77.0527Z" fill="#018580"/>
<path d="M67.3654 79.9804C67.7073 79.9804 67.971 79.7036 67.971 79.3747V77.6684C67.971 77.3265 67.6943 77.0627 67.3654 77.0627C67.0235 77.0627 66.7597 77.3395 66.7597 77.6684V79.3747C66.7467 79.7036 67.0267 79.9804 67.3654 79.9804Z" fill="#018580"/>
<path d="M71.2429 77.0527C70.901 77.0527 70.6372 77.3295 70.6372 77.6584V79.3647C70.6372 79.7066 70.914 79.9703 71.2429 79.9703C71.5848 79.9703 71.8485 79.6936 71.8485 79.3647V77.6584C71.8616 77.3295 71.5848 77.0527 71.2429 77.0527Z" fill="#018580"/>
<path d="M74.5293 77.6579V79.3642C74.5293 79.7061 74.8061 79.9699 75.135 79.9699C75.4638 79.9699 75.7406 79.6931 75.7406 79.3642V77.6579C75.7406 77.316 75.4638 77.0522 75.135 77.0522C74.8061 77.0522 74.5293 77.329 74.5293 77.6579Z" fill="#018580"/>
<path d="M79.0222 77.0527C78.6803 77.0527 78.4165 77.3295 78.4165 77.6584V79.3647C78.4165 79.7066 78.6933 79.9703 79.0222 79.9703C79.3641 79.9703 79.6278 79.6936 79.6278 79.3647V77.6584C79.6311 77.3295 79.351 77.0527 79.0222 77.0527Z" fill="#018580"/>
<path d="M82.9011 77.0527C82.5592 77.0527 82.2954 77.3295 82.2954 77.6584V79.3647C82.2954 79.7066 82.5722 79.9703 82.9011 79.9703C83.243 79.9703 83.5067 79.6936 83.5067 79.3647V77.6584C83.5198 77.3295 83.243 77.0527 82.9011 77.0527Z" fill="#018580"/>
<path d="M75.3106 83.2522H67.3654C67.0235 83.2522 66.7598 83.529 66.7598 83.8579C66.7598 84.1867 67.0365 84.4635 67.3654 84.4635H75.3106C75.6525 84.4635 75.9163 84.1867 75.9163 83.8579C75.9163 83.529 75.6395 83.2522 75.3106 83.2522Z" fill="black"/>
<path d="M63.4773 83.2522H55.7111C55.3692 83.2522 55.1055 83.529 55.1055 83.8579C55.1055 84.1867 55.3823 84.4635 55.7111 84.4635H63.4773C63.8192 84.4635 64.0829 84.1867 64.0829 83.8579C64.0829 83.529 63.8159 83.2522 63.4773 83.2522Z" fill="black"/>
<path d="M73.7834 67.4663H82.3736C82.7155 67.4663 82.9793 67.1895 82.9793 66.8607C82.9793 66.5318 82.7025 66.255 82.3736 66.255H73.7834C73.4415 66.255 73.1777 66.5318 73.1777 66.8607C73.1777 67.1863 73.4545 67.4663 73.7834 67.4663Z" fill="black"/>
<path d="M70.0319 67.4663H71.1423C71.4842 67.4663 71.7479 67.1895 71.7479 66.8607C71.7479 66.5318 71.4712 66.255 71.1423 66.255H70.0319C69.69 66.255 69.4263 66.5318 69.4263 66.8607C69.4263 67.1863 69.69 67.4663 70.0319 67.4663Z" fill="black"/>
</svg>
