<svg width="120" height="120" viewBox="0 0 120 120" fill="none" xmlns="http://www.w3.org/2000/svg">
<path d="M49.3222 31.6814C49.3222 30.6425 50.8998 30.6425 50.8998 31.6814V37.4723C50.8998 38.5112 49.3222 38.5112 49.3222 37.4723V31.6814ZM28.2556 70.9287C27.3514 71.4481 26.5818 70.0822 27.4668 69.5627L32.4881 66.6577C33.3731 66.1382 34.1619 67.5042 33.2769 68.0236L28.2556 70.9287ZM72.7551 69.5627C73.6594 70.0822 72.8706 71.4481 71.9663 70.9287L66.945 68.0236C66.06 67.5042 66.8296 66.1382 67.7338 66.6577L72.7551 69.5627ZM24.4271 58.1733C23.3882 58.1733 23.3882 56.5957 24.4271 56.5957H30.218C31.2569 56.5957 31.2569 58.1733 30.218 58.1733H24.4271ZM27.4668 45.2256C26.5626 44.7061 27.3514 43.3401 28.2556 43.8596L33.2769 46.7647C34.1619 47.2841 33.3924 48.6501 32.4881 48.1306L27.4668 45.2256ZM36.586 35.5292C36.0666 34.6249 37.4325 33.8361 37.952 34.7404L40.8571 39.7617C41.3765 40.6467 40.0105 41.4547 39.4911 40.5505L36.586 35.5292ZM75.8141 56.5957C76.853 56.5957 76.853 58.1733 75.8141 58.1733H70.0232C68.9843 58.1733 68.9843 56.5957 70.0232 56.5957H75.8141ZM71.9856 43.8596C72.8898 43.3401 73.6786 44.7061 72.7744 45.2256L67.753 48.1306C66.868 48.6501 66.06 47.2841 66.9642 46.7647L71.9856 43.8596ZM62.2892 34.7404C62.8086 33.8554 64.1746 34.6249 63.6551 35.5292L60.7501 40.5505C60.2306 41.4547 58.8647 40.6659 59.3841 39.7617L62.2892 34.7404ZM46.6672 56.2302C47.4945 56.4611 48.0332 55.6723 48.0524 54.9989V45.745C48.0524 42.0896 44.3585 42.5706 42.5308 44.0712C41.1841 45.1678 41.2996 46.8609 41.7036 48.2845C41.9922 49.285 40.4915 49.7274 40.1837 48.727C40.0683 48.3615 39.9913 47.9382 39.9144 47.515C36.586 47.8805 35.6818 51.0357 36.6822 53.1712C37.2594 52.8826 37.8943 52.748 38.4907 52.7095C39.1256 50.6124 41.4727 49.9968 41.6266 51.305C41.6843 51.7475 41.3765 52.1323 40.934 52.19C39.8951 52.3247 39.4911 54.2678 40.4338 55.0951C41.2226 55.7877 40.1645 56.9613 39.3949 56.2687C38.837 55.7685 38.4907 55.0566 38.3752 54.2871C35.0854 54.6526 35.4509 59.116 36.6437 60.809C37.2594 60.001 38.1636 59.3277 39.3949 58.9236C40.3761 58.5966 40.8763 60.0972 39.8951 60.4243C35.8934 61.7518 36.663 67.0424 40.453 67.889C41.6074 68.1775 42.8002 67.1194 42.8387 66.119C41.0302 65.8304 40.0105 64.0219 41.1264 63.541C41.5304 63.3678 41.9922 63.5602 42.1653 63.945C42.5886 64.9262 44.5317 64.7145 45.0319 63.5987C45.4552 62.656 46.8788 63.2909 46.4748 64.2336C46.09 65.0993 45.3205 65.715 44.4355 66.0035C44.474 67.4465 43.3966 68.7932 42.0691 69.2934C43.0503 73.1796 48.0524 72.8911 48.0524 66.8693V57.5962C47.6869 57.7693 47.2828 57.8655 46.8596 57.8463C46.7057 59.3084 45.5321 60.8475 44.7048 59.9241C44.4163 59.597 44.4355 59.0968 44.7626 58.8082C45.7053 57.9617 45.3012 56.0186 44.2623 55.9031C43.2234 55.7685 43.4158 54.2101 44.4547 54.3448C45.5129 54.4602 46.3017 55.249 46.6672 56.2302ZM53.3239 56.2687C53.4008 56.2687 53.4778 56.2494 53.5547 56.2302C54.2666 54.3063 56.479 53.7676 56.6329 55.0181C56.6907 55.4414 56.3828 55.8454 55.9403 55.9031C54.9014 56.0378 54.4974 57.9809 55.4401 58.8082C56.2289 59.5008 55.1708 60.6744 54.4012 59.9818C53.8048 59.4431 53.4393 58.6543 53.3623 57.8463C52.9391 57.8655 52.5351 57.7693 52.1695 57.5962V66.8693C52.1695 72.8911 57.1716 73.1604 58.1528 69.2934C56.8061 68.7932 55.7287 67.4272 55.7864 66.0035L54.8822 65.5803C54.0549 65.0416 53.0737 63.6949 54.1319 63.2139C54.5167 63.0408 54.9976 63.2139 55.1708 63.6179C55.2862 63.868 55.4978 64.0989 55.748 64.272C56.5175 64.7915 57.7103 64.7145 58.0374 63.9642C58.4414 63.0215 59.8843 63.6564 59.4803 64.5991C59.0955 65.4649 58.2875 66.0035 57.364 66.1382C57.4025 67.1386 58.5953 68.1775 59.7496 67.9082C63.5397 67.0617 64.3285 61.771 60.3076 60.4435C59.3264 60.1164 59.8266 58.6351 60.8078 58.9429C62.0391 59.3469 62.9433 60.0203 63.5589 60.8283C64.771 59.1545 65.1173 54.6718 61.8274 54.3063C61.6351 55.6338 60.5 57.1344 59.6919 56.211C59.4033 55.8839 59.4226 55.3837 59.7496 55.0951C60.6923 54.2678 60.2883 52.3055 59.2494 52.19C58.2105 52.0554 58.4029 50.497 59.4418 50.6317C60.5577 50.7664 61.3849 51.6513 61.6928 52.7287C62.3084 52.7672 62.9241 52.9019 63.5205 53.1905C64.5209 51.0549 63.6167 47.919 60.2883 47.5342C60.1921 48.2076 60.0382 49.5543 59.057 49.2657C58.6338 49.1503 58.4029 48.7078 58.5184 48.3038C58.9416 46.8801 59.0378 45.1871 57.6911 44.0905C56.5945 43.2055 54.8437 42.6475 53.5547 43.167C52.5735 43.571 52.1695 44.533 52.1695 45.7642V55.0181C52.208 55.5761 52.6313 56.3071 53.3239 56.2687ZM56.1712 45.4179C57.2101 45.2833 57.3833 46.8609 56.3636 46.9763C55.3247 47.111 54.9207 49.0541 55.8634 49.8814C56.6329 50.574 55.594 51.7475 54.8245 51.0549C52.9006 49.3619 53.7279 45.7258 56.1712 45.4179ZM60.3268 45.822L60.346 45.9182C65.1365 46.3799 66.464 51.0934 64.8095 54.0947C66.5602 56.0955 66.3293 60.3088 64.3285 62.2904C65.252 65.2532 63.3858 68.697 60.1344 69.3704C59.9997 69.4088 59.8651 69.4281 59.7496 69.4473C58.4606 75.2382 50.6112 74.8919 50.6112 66.8308V45.7258C50.6112 43.8211 51.4 42.3205 52.9968 41.6856C54.786 40.916 57.1909 41.5894 58.7107 42.8399C59.7496 43.6864 60.2114 44.7446 60.3268 45.822ZM43.8776 46.9763C42.8387 46.8416 43.0311 45.2833 44.07 45.4179C46.4941 45.7258 47.3406 49.3619 45.4167 51.0742C44.6471 51.7668 43.589 50.5932 44.3778 49.9006C45.3012 49.0541 44.8972 47.111 43.8776 46.9763ZM39.8759 45.9182C40.0105 44.7831 40.4338 43.7057 41.5304 42.8207C44.6279 40.3004 49.63 40.8583 49.63 45.7258V66.8501C49.63 74.9111 41.7805 75.2575 40.4915 69.4665C40.3568 69.4473 40.2414 69.4281 40.1067 69.3896C36.8554 68.7162 34.9892 65.2725 35.8934 62.3097C33.9118 60.3281 33.6617 56.1148 35.4125 54.1139C33.7579 51.0934 35.1046 46.3799 39.8759 45.9182ZM50.111 14.6742C52.4773 14.6742 53.7086 17.5793 51.9964 19.2531C50.2841 20.9461 47.4175 19.6956 47.4175 17.3484C47.4368 15.8863 48.6488 14.6742 50.111 14.6742ZM50.8998 16.5789C49.8801 15.54 48.3025 17.1175 49.3414 18.1372C50.3611 19.1569 51.9194 17.5985 50.8998 16.5789ZM63.2511 96.1124C64.29 96.1124 64.29 97.69 63.2511 97.69H59.615C58.5761 97.69 58.5761 96.1124 59.615 96.1124H63.2511ZM63.2511 92.0722C64.29 92.0722 64.29 93.6498 63.2511 93.6498H40.7224C39.6835 93.6498 39.6835 92.0722 40.7224 92.0722H63.2511ZM56.2674 96.1124C57.3063 96.1124 57.3063 97.69 56.2674 97.69H40.7224C39.6835 97.69 39.6835 96.1124 40.7224 96.1124H56.2674ZM40.7224 87.0509C39.6835 87.0509 39.6835 85.4733 40.7224 85.4733H44.3585C45.3974 85.4733 45.3974 87.0509 44.3585 87.0509H40.7224ZM40.7224 83.03C39.6835 83.03 39.6835 81.4524 40.7224 81.4524H63.2704C64.3093 81.4524 64.3093 83.03 63.2704 83.03H40.7224ZM47.7061 87.0509C46.6672 87.0509 46.6672 85.4733 47.7061 85.4733H63.2511C64.29 85.4733 64.29 87.0509 63.2511 87.0509H47.7061ZM69.0805 93.5536L79.104 83.1262L73.0245 79.6439L69.0805 93.5536ZM74.4674 90.2061L68.0416 96.9012C67.4644 97.5361 66.464 96.9589 66.6949 96.1701L71.5816 78.8551C71.1391 78.605 70.7543 78.2202 71.0813 77.6623L79.3541 63.2331V29.1034C79.3541 27.3142 77.8919 25.852 76.1027 25.852H65.6945C65.2712 27.064 64.1169 27.9106 62.7894 27.9106H37.3941C36.0666 27.9106 34.9122 27.064 34.489 25.852H24.1192C22.33 25.852 20.8679 27.3142 20.8679 29.1034V99.0752C20.8679 100.864 22.33 102.327 24.1192 102.327H76.1219C77.9111 102.327 79.3733 100.864 79.3733 99.0752V85.1078L74.4674 90.2061ZM101.998 43.167C102.864 41.6471 103.768 40.5505 103.287 38.8382C102.46 35.7985 98.4006 35.356 96.8807 38.011L95.9187 39.6848L101.998 43.167ZM104.326 42.282L103.364 43.9558L103.614 44.1097C103.999 44.3213 104.115 44.8023 103.903 45.1871L85.2219 77.7585V107.406C85.2219 107.848 84.8756 108.194 84.4331 108.194H15.7888C15.3463 108.194 15 107.848 15 107.406V20.7922C15 20.3497 15.3463 20.0034 15.7888 20.0034H34.3736C34.4698 19.3877 34.7968 18.7336 35.2393 18.3104C35.7972 17.7524 36.5668 17.4061 37.4133 17.4061H43.993C43.4543 16.0017 42.8194 14.8281 43.8583 13.3275C44.4355 12.481 45.359 12 46.3979 12H53.8433C55.9981 12 57.4795 14.1548 56.7099 16.1748L56.2289 17.4254H62.8086C64.3285 17.4254 65.6175 18.5412 65.8484 20.0226H84.4331C84.8756 20.0226 85.2219 20.3689 85.2219 20.8114V53.0173L93.2253 39.0691C93.4369 38.6843 93.9179 38.5689 94.3027 38.7805L94.5528 38.9152C95.6109 37.0683 96.265 35.5099 98.5737 34.875C102.96 33.6822 106.539 38.3765 104.326 42.282ZM83.6443 80.5097L81.7782 83.7803C81.605 84.0689 81.278 84.2228 80.9509 84.1651V99.0944C80.9509 101.749 78.7769 103.923 76.1219 103.923H24.1192C21.4643 103.923 19.2903 101.749 19.2903 99.0944V29.1034C19.2903 26.4484 21.4643 24.2744 24.1192 24.2744H34.3543V21.581H16.5776V106.617H83.6443V80.5097ZM80.9509 60.4627L83.6443 55.7492V21.581H65.8868V24.2744H76.1219C78.7769 24.2744 80.9509 26.4484 80.9509 29.1034V60.4627ZM102.133 45.0716L94.1872 40.512L85.1257 56.3071C83.8367 58.6735 82.1245 61.3862 80.8355 63.7718C80.8162 63.7911 80.8162 63.8103 80.797 63.8296L72.8321 77.7393L80.7777 82.2989L102.133 45.0716ZM25.6583 90.4946H35.9127C36.3552 90.4946 36.7015 90.8409 36.7015 91.2834V98.4403C36.7015 98.8828 36.3552 99.2291 35.9127 99.2291H25.6583C25.2158 99.2291 24.8695 98.8828 24.8695 98.4403V91.2834C24.8695 90.8602 25.2158 90.4946 25.6583 90.4946ZM35.1239 92.0915H26.4471V97.6707H35.1239V92.0915ZM25.6583 79.8748H35.9127C36.3552 79.8748 36.7015 80.2211 36.7015 80.6636V87.8204C36.7015 88.2629 36.3552 88.6092 35.9127 88.6092H25.6583C25.2158 88.6092 24.8695 88.2629 24.8695 87.8204V80.6636C24.8695 80.2403 25.2158 79.8748 25.6583 79.8748ZM35.1239 81.4524H26.4471V87.0316H35.1239V81.4524ZM45.1473 18.9837H37.4325C37.0285 18.9837 36.6437 19.1569 36.3744 19.4262C35.9511 19.8495 35.9319 20.2535 35.9319 20.7922V24.8516C35.9319 25.6788 36.6053 26.3522 37.4325 26.3522H62.8279C63.6551 26.3522 64.3285 25.6788 64.3285 24.8516V20.4843C64.3285 19.6571 63.6551 18.9837 62.8279 18.9837H55.1131C54.5744 18.9837 54.1896 18.4258 54.382 17.9063L55.267 15.5977C55.6518 14.6165 54.9399 13.5583 53.8625 13.5583H46.4171C45.3397 13.5583 44.6471 14.5972 45.0127 15.5977C45.1666 16.0017 45.9554 17.8871 45.9554 18.1949C45.9361 18.6374 45.5706 18.9837 45.1473 18.9837Z" fill="black"/>
<path d="M49.3222 31.6813C49.3222 30.6424 50.8998 30.6424 50.8998 31.6813V37.4722C50.8998 38.5111 49.3222 38.5111 49.3222 37.4722V31.6813ZM28.2556 70.9286C27.3514 71.448 26.5818 70.0821 27.4668 69.5626L32.4881 66.6576C33.3731 66.1381 34.1619 67.5041 33.2769 68.0235L28.2556 70.9286ZM72.7551 69.5626C73.6594 70.0821 72.8706 71.448 71.9663 70.9286L66.945 68.0235C66.06 67.5041 66.8296 66.1381 67.7338 66.6576L72.7551 69.5626ZM24.4271 58.1732C23.3882 58.1732 23.3882 56.5956 24.4271 56.5956H30.218C31.2569 56.5956 31.2569 58.1732 30.218 58.1732H24.4271ZM27.4668 45.2254C26.5626 44.706 27.3514 43.34 28.2556 43.8595L33.2769 46.7646C34.1619 47.284 33.3924 48.65 32.4881 48.1305L27.4668 45.2254ZM36.586 35.5291C36.0666 34.6248 37.4325 33.836 37.952 34.7403L40.8571 39.7616C41.3765 40.6466 40.0105 41.4546 39.4911 40.5504L36.586 35.5291ZM75.8141 56.5956C76.853 56.5956 76.853 58.1732 75.8141 58.1732H70.0232C68.9843 58.1732 68.9843 56.5956 70.0232 56.5956H75.8141ZM71.9856 43.8595C72.8898 43.34 73.6786 44.706 72.7744 45.2254L67.753 48.1305C66.868 48.65 66.06 47.284 66.9642 46.7646L71.9856 43.8595ZM62.2892 34.7403C62.8086 33.8553 64.1746 34.6248 63.6551 35.5291L60.7501 40.5504C60.2306 41.4546 58.8647 40.6658 59.3841 39.7616L62.2892 34.7403ZM46.6672 56.2301C47.4945 56.461 48.0332 55.6722 48.0524 54.9988V45.7449C48.0524 42.0895 44.3585 42.5705 42.5308 44.0711C41.1841 45.1677 41.2996 46.8608 41.7036 48.2844C41.9922 49.2849 40.4915 49.7273 40.1837 48.7269C40.0683 48.3614 39.9913 47.9381 39.9144 47.5149C36.586 47.8804 35.6818 51.0356 36.6822 53.1711C37.2594 52.8825 37.8943 52.7479 38.4907 52.7094C39.1256 50.6123 41.4727 49.9967 41.6266 51.3049C41.6843 51.7474 41.3765 52.1322 40.934 52.1899C39.8951 52.3246 39.4911 54.2677 40.4338 55.095C41.2226 55.7876 40.1645 56.9612 39.3949 56.2686C38.837 55.7684 38.4907 55.0565 38.3752 54.287C35.0854 54.6525 35.4509 59.1159 36.6437 60.8089C37.2594 60.0009 38.1636 59.3275 39.3949 58.9235C40.3761 58.5965 40.8763 60.0971 39.8951 60.4242C35.8934 61.7517 36.663 67.0423 40.453 67.8889C41.6074 68.1774 42.8002 67.1193 42.8387 66.1189C41.0302 65.8303 40.0105 64.0218 41.1264 63.5409C41.5304 63.3677 41.9922 63.5601 42.1653 63.9449C42.5886 64.9261 44.5317 64.7144 45.0319 63.5986C45.4552 62.6559 46.8788 63.2908 46.4748 64.2335C46.09 65.0992 45.3205 65.7149 44.4355 66.0034C44.474 67.4464 43.3966 68.7931 42.0691 69.2933C43.0503 73.1795 48.0524 72.891 48.0524 66.8692V57.5961C47.6869 57.7692 47.2828 57.8654 46.8596 57.8462C46.7057 59.3083 45.5321 60.8474 44.7048 59.924C44.4163 59.5969 44.4355 59.0967 44.7626 58.8081C45.7053 57.9616 45.3012 56.0185 44.2623 55.903C43.2234 55.7684 43.4158 54.21 44.4547 54.3447C45.5129 54.4601 46.3017 55.2489 46.6672 56.2301ZM53.3239 56.2686C53.4008 56.2686 53.4778 56.2493 53.5547 56.2301C54.2666 54.3062 56.479 53.7675 56.6329 55.018C56.6907 55.4413 56.3828 55.8453 55.9403 55.903C54.9014 56.0377 54.4974 57.9808 55.4401 58.8081C56.2289 59.5007 55.1708 60.6743 54.4012 59.9817C53.8048 59.443 53.4393 58.6542 53.3623 57.8462C52.9391 57.8654 52.5351 57.7692 52.1695 57.5961V66.8692C52.1695 72.891 57.1716 73.1603 58.1528 69.2933C56.8061 68.7931 55.7287 67.4271 55.7864 66.0034L54.8822 65.5802C54.0549 65.0415 53.0737 63.6948 54.1319 63.2138C54.5167 63.0407 54.9976 63.2138 55.1708 63.6178C55.2862 63.8679 55.4978 64.0988 55.748 64.2719C56.5175 64.7914 57.7103 64.7144 58.0374 63.9641C58.4414 63.0214 59.8843 63.6563 59.4803 64.599C59.0955 65.4648 58.2875 66.0034 57.364 66.1381C57.4025 67.1385 58.5953 68.1774 59.7496 67.9081C63.5397 67.0616 64.3285 61.7709 60.3076 60.4434C59.3264 60.1163 59.8266 58.6349 60.8078 58.9428C62.0391 59.3468 62.9433 60.0201 63.5589 60.8282C64.771 59.1544 65.1173 54.6717 61.8274 54.3062C61.6351 55.6337 60.5 57.1343 59.6919 56.2109C59.4033 55.8838 59.4226 55.3836 59.7496 55.095C60.6923 54.2677 60.2883 52.3054 59.2494 52.1899C58.2105 52.0553 58.4029 50.4969 59.4418 50.6316C60.5577 50.7662 61.3849 51.6512 61.6928 52.7286C62.3084 52.7671 62.9241 52.9018 63.5205 53.1903C64.5209 51.0548 63.6167 47.9189 60.2883 47.5341C60.1921 48.2075 60.0382 49.5542 59.057 49.2656C58.6338 49.1502 58.4029 48.7077 58.5184 48.3037C58.9416 46.88 59.0378 45.187 57.6911 44.0904C56.5945 43.2054 54.8437 42.6474 53.5547 43.1669C52.5735 43.5709 52.1695 44.5328 52.1695 45.7641V55.018C52.208 55.576 52.6313 56.307 53.3239 56.2686ZM56.1712 45.4178C57.2101 45.2832 57.3833 46.8608 56.3636 46.9762C55.3247 47.1109 54.9207 49.054 55.8634 49.8813C56.6329 50.5739 55.594 51.7474 54.8245 51.0548C52.9006 49.3618 53.7279 45.7257 56.1712 45.4178ZM60.3268 45.8219L60.346 45.918C65.1365 46.3798 66.464 51.0933 64.8095 54.0946C66.5602 56.0954 66.3293 60.3087 64.3285 62.2903C65.252 65.2531 63.3858 68.6969 60.1344 69.3702C59.9997 69.4087 59.8651 69.428 59.7496 69.4472C58.4606 75.2381 50.6112 74.8918 50.6112 66.8307V45.7257C50.6112 43.821 51.4 42.3204 52.9968 41.6855C54.786 40.9159 57.1909 41.5893 58.7107 42.8398C59.7496 43.6863 60.2114 44.7445 60.3268 45.8219ZM43.8776 46.9762C42.8387 46.8415 43.0311 45.2832 44.07 45.4178C46.4941 45.7257 47.3406 49.3618 45.4167 51.0741C44.6471 51.7667 43.589 50.5931 44.3778 49.9005C45.3012 49.054 44.8972 47.1109 43.8776 46.9762ZM39.8759 45.918C40.0105 44.783 40.4338 43.7056 41.5304 42.8206C44.6279 40.3003 49.63 40.8582 49.63 45.7257V66.85C49.63 74.911 41.7805 75.2573 40.4915 69.4664C40.3568 69.4472 40.2414 69.428 40.1067 69.3895C36.8554 68.7161 34.9892 65.2724 35.8934 62.3096C33.9118 60.328 33.6617 56.1147 35.4125 54.1138C33.7579 51.0933 35.1046 46.3798 39.8759 45.918Z" fill="#018580"/>
</svg>
