<svg width="120" height="120" viewBox="0 0 120 120" fill="none" xmlns="http://www.w3.org/2000/svg">
<path d="M113.046 88.2693H110.535L108.879 81.3095C108.802 80.9915 108.562 80.7402 108.249 80.6479C97.4559 77.5194 89.3999 76.3808 82.1329 76.9449C75.1067 77.4988 68.5213 79.5965 60.1837 83.9612C51.8455 79.6017 45.2601 77.4989 38.2345 76.9502C30.9674 76.3809 22.9107 77.5246 12.1184 80.6531C11.8058 80.7455 11.5649 80.9968 11.4881 81.3148L9.83277 88.2745L7.32153 88.2694C6.04031 88.2694 5 89.3105 5 90.5927V93.116C5 94.3982 6.04035 95.4393 7.32153 95.4393H113.048C114.329 95.4393 115.369 94.3982 115.369 93.116V90.5927C115.369 89.3105 114.329 88.2694 113.048 88.2694L113.046 88.2693ZM59.2762 93.6288H7.31961C7.03775 93.6288 6.80713 93.398 6.80713 93.1159V90.5925C6.80713 90.3104 7.03775 90.0796 7.31961 90.0796H59.2762V93.6288ZM59.2762 88.2693H11.6911L12.2958 85.7305C14.4585 85.4125 22.7249 84.2842 31.6014 84.1303C32.1037 84.12 32.4983 83.7097 32.488 83.2071C32.4778 82.7147 32.0781 82.3198 31.5861 82.3198H31.5707C23.3811 82.4634 15.6985 83.4276 12.7466 83.8379L13.1258 82.2429C32.7542 76.6218 43.7012 77.4065 59.2756 85.5355L59.2762 88.2693ZM61.0904 85.5357C76.67 77.4066 87.6171 76.6167 107.24 82.243L107.666 84.0227C101.987 83.5868 96.8111 83.4637 92.3011 83.6894C91.804 83.715 91.4196 84.1407 91.4401 84.6382C91.4657 85.1357 91.8808 85.5152 92.3882 85.4998C96.9801 85.2742 102.269 85.4024 108.106 85.8691L108.68 88.2693H61.0905L61.0904 85.5357ZM113.559 93.1159C113.559 93.398 113.328 93.6288 113.046 93.6288H61.0896V90.0797H113.046C113.328 90.0797 113.559 90.3105 113.559 90.5926V93.1159ZM35.2302 83.2122C35.2404 82.7148 35.6504 82.3147 36.1578 82.3301C36.9111 82.3506 37.6542 82.3763 38.3666 82.4122C38.8637 82.4378 39.2481 82.8635 39.2276 83.361C39.2019 83.8431 38.8022 84.2226 38.3256 84.2226H38.2795C37.5825 84.1867 36.8548 84.1611 36.1168 84.1457C35.6146 84.1303 35.2199 83.7149 35.2302 83.2122Z" fill="#018580"/>
<path d="M93.636 41.6546L61.0744 25.0664C60.9052 24.9784 60.7028 24.9784 60.5336 25.0634L26.7336 41.9578C26.5281 42.0611 26.3982 42.2736 26.3982 42.5044C26.4012 42.7352 26.5311 42.9477 26.7396 43.0479L39.085 49.0388V66.0763C39.085 66.2706 39.1757 66.4528 39.3328 66.5651C45.5689 71.141 52.8747 73.4275 60.1802 73.4275C67.4859 73.4275 74.7919 71.141 81.0276 66.5651C81.1847 66.4497 81.2753 66.2676 81.2753 66.0763V48.9929L87.6414 45.7743V57.8929C85.9313 58.2299 84.6231 59.9668 84.6231 62.0649C84.6231 64.2391 87.4632 67.5609 87.7864 67.9344C87.9012 68.065 88.0674 68.1409 88.2427 68.1409C88.4179 68.1409 88.5841 68.065 88.6989 67.9344C89.0222 67.564 91.8653 64.2391 91.8653 62.0649C91.8653 59.9698 90.5601 58.236 88.853 57.8929V45.1641L93.6389 42.7441C93.8413 42.6408 93.9713 42.4313 93.9713 42.2036C93.9713 41.9758 93.8444 41.7633 93.6389 41.6601L93.636 41.6546ZM90.6509 62.0626C90.6509 63.2923 89.1795 65.4027 88.2398 66.5808C87.3002 65.3997 85.8288 63.2923 85.8288 62.0626C85.8288 60.3926 86.9104 59.0353 88.2368 59.0322H88.2429H88.2459C89.5722 59.0383 90.6509 60.3926 90.6509 62.0596L90.6509 62.0626ZM40.294 65.767V60.9208C46.3125 65.0413 53.2465 67.106 60.1807 67.106C67.1149 67.106 74.0491 65.0413 80.0675 60.9208V65.767C68.1359 74.3635 52.2317 74.3635 40.294 65.767ZM80.0675 59.4391C68.1328 68.0356 52.2317 68.0356 40.294 59.4391V49.6253L60.3076 59.3357C60.3922 59.3752 60.4798 59.3964 60.5704 59.3964C60.6641 59.3964 60.7577 59.3752 60.8423 59.3327L80.067 49.6068V59.4415L80.0675 59.4391ZM88.0984 44.184L60.1776 44.181C59.8453 44.181 59.5733 44.4543 59.5733 44.7883C59.5733 45.1223 59.8453 45.3956 60.1776 45.3956H85.6991L60.5674 58.1088L28.3778 42.4923L60.8003 26.2896L92.023 42.1976L88.0984 44.184Z" fill="black"/>
</svg>
