<svg width="120" height="120" viewBox="0 0 120 120" fill="none" xmlns="http://www.w3.org/2000/svg">
<path d="M35.9576 95.5043H54.3421C59.5304 95.5043 65.7961 75.7811 57.4579 75.7811H32.8418C24.5036 75.7811 30.7693 95.5043 35.9576 95.5043ZM40.9758 81.622H49.326C52.8743 81.622 54.7125 85.9411 52.1694 88.4841C51.4365 89.2109 50.4333 89.6655 49.326 89.6655H40.9758C37.4274 89.6655 35.5892 85.3464 38.1323 82.8034C38.8592 82.0765 39.8684 81.622 40.9758 81.622ZM49.326 83.2219H40.9758C38.8532 83.2219 37.7298 85.8149 39.2677 87.3487C39.7042 87.7912 40.313 88.0636 40.9758 88.0636H49.326C51.4486 88.0636 52.5719 85.4705 51.0341 83.9307C50.5975 83.4942 49.9908 83.2219 49.326 83.2219ZM53.429 97.1062C53.3048 99.1947 52.4017 101.085 51.006 102.481C47.7601 105.726 42.5377 105.726 39.2897 102.481C37.9 101.085 36.9909 99.1947 36.8707 97.1062H35.9576C29.6619 97.1062 23.2721 78.4202 30.1786 74.782C26.2337 71.2678 22.4471 66.7625 19.6437 61.5744C12.8053 48.9176 12.9755 33.9319 23.8228 23.4837C33.8811 13.8003 49.6163 12.2965 61.3827 19.539H90.6485C93.2937 19.539 95.4503 21.7016 95.4503 24.3467V49.7345C95.4503 52.3796 93.2937 54.5422 90.6485 54.5422H73.6597C71.1967 62.2893 66.1665 69.4016 60.1212 74.782C67.0296 78.4202 60.6318 97.1062 54.3421 97.1062H53.429ZM38.4787 97.1062C38.8812 102.719 45.7776 105.444 49.8766 101.347C50.984 100.24 51.7049 98.7541 51.823 97.1062H38.4787ZM31.9788 74.2313C32.2511 74.1973 32.5415 74.1792 32.8418 74.1792H57.4599C57.7603 74.1792 58.0446 74.1953 58.323 74.2313C64.3683 69.0772 69.4606 62.1071 71.9796 54.5422H64.8329L49.5182 66.9447C47.6679 68.4425 44.9486 67.1089 44.9486 64.7702V24.3447C44.9486 21.6996 47.1113 19.537 49.7565 19.537H58.0727C47.2194 14.2488 33.7269 16.1671 24.9302 24.635C14.6156 34.5727 14.5595 48.7974 21.0534 60.8135C23.9409 66.1598 27.9038 70.7512 31.9788 74.2313ZM37.4515 49.4842C41.4984 55.6314 43.621 63.3625 44.7404 70.9114C44.8945 71.9506 43.3106 72.1889 43.1564 71.1437C42.0731 63.8051 40.0166 56.2622 36.0718 50.3072C31.8546 52.1514 27.0688 49.0637 27.0688 44.4163C27.0688 40.8641 29.9463 37.9847 33.4946 37.9847C37.047 37.9847 39.9265 40.8621 39.9265 44.4163C39.9265 46.4527 38.9733 48.2988 37.4515 49.4842ZM36.9128 40.9982C33.8751 37.9667 28.6707 40.1232 28.6707 44.4143C28.6707 48.6993 33.8751 50.8558 36.9128 47.8263C38.7971 45.9421 38.7971 42.8825 36.9128 40.9982ZM97.9654 87.3307C99.2149 87.3307 99.2149 89.2269 97.9654 89.2269C96.7219 89.2269 96.7219 87.3307 97.9654 87.3307ZM94.3049 87.3307C95.5485 87.3307 95.5485 89.2269 94.3049 89.2269C93.0554 89.2269 93.0554 87.3307 94.3049 87.3307ZM90.8587 87.5249C91.914 87.5249 91.914 89.1248 90.8587 89.1248H73.4494C72.3942 89.1248 72.3942 87.5249 73.4494 87.5249H90.8587ZM98.4019 75.6269C99.4572 75.6269 99.4572 77.2328 98.4019 77.2328H73.4494C72.3942 77.2328 72.3942 75.6269 73.4494 75.6269H98.4019ZM98.4019 81.5759C99.4572 81.5759 99.4572 83.1758 98.4019 83.1758H73.4494C72.3942 83.1758 72.3942 81.5759 73.4494 81.5759H98.4019ZM63.6194 47.8563C62.5641 47.8563 62.5641 46.2564 63.6194 46.2564H86.8418C87.8971 46.2564 87.8971 47.8563 86.8418 47.8563H63.6194ZM53.5611 41.4928C52.5119 41.4928 52.5119 39.8869 53.5611 39.8869H86.8418C87.8971 39.8869 87.8971 41.4928 86.8418 41.4928H53.5611ZM53.5611 35.1233C52.5119 35.1233 52.5119 33.5235 53.5611 33.5235H86.8418C87.8971 33.5235 87.8971 35.1233 86.8418 35.1233H53.5611ZM53.5611 28.7559C52.5119 28.7559 52.5119 27.156 53.5611 27.156H86.8418C87.8971 27.156 87.8971 28.7559 86.8418 28.7559H53.5611ZM56.8071 43.0146C59.0378 43.0146 60.848 44.8247 60.848 47.0554C60.848 49.292 59.0378 51.1021 56.8071 51.1021C54.5704 51.1021 52.7602 49.292 52.7602 47.0554C52.7602 44.8247 54.5704 43.0146 56.8071 43.0146ZM59.2481 47.0554C59.2481 45.7098 58.1528 44.6145 56.8071 44.6145C55.4555 44.6145 54.3601 45.7098 54.3601 47.0554C54.3601 48.407 55.4555 49.5022 56.8071 49.5022C58.1528 49.5022 59.2481 48.405 59.2481 47.0554ZM46.5566 64.7702C46.5566 65.7974 47.738 66.336 48.515 65.7073L64.05 53.1245C64.1981 53.0004 64.3744 52.9423 64.5486 52.9423H90.6485C92.4086 52.9423 93.8504 51.4946 93.8504 49.7345V24.3447C93.8504 22.5846 92.4086 21.1369 90.6485 21.1369H49.7565C47.9963 21.1369 46.5546 22.5846 46.5546 24.3447V64.7702H46.5566ZM70.5779 69.2535H101.275C103.324 69.2535 105 70.9274 105 72.9718V102.192C105 104.531 102.281 105.864 100.43 104.367L89.1346 95.218H70.5799C68.5314 95.218 66.8554 93.544 66.8554 91.4936V72.9718C66.8534 70.9274 68.5294 69.2535 70.5779 69.2535ZM101.275 70.8533H70.5779C69.4145 70.8533 68.4553 71.8065 68.4553 72.9698V91.4896C68.4553 92.653 69.4145 93.6061 70.5779 93.6061L89.411 93.6121C89.5872 93.6121 89.7634 93.6682 89.9156 93.7883L101.438 103.125C102.215 103.756 103.396 103.215 103.396 102.188V72.9718C103.398 71.8085 102.439 70.8533 101.275 70.8533Z" fill="black"/>
<path d="M97.9654 87.3307C99.2149 87.3307 99.2149 89.2269 97.9654 89.2269C96.7219 89.2269 96.7219 87.3307 97.9654 87.3307ZM94.3049 87.3307C95.5485 87.3307 95.5485 89.2269 94.3049 89.2269C93.0554 89.2269 93.0554 87.3307 94.3049 87.3307ZM90.8587 87.5249C91.914 87.5249 91.914 89.1248 90.8587 89.1248H73.4494C72.3942 89.1248 72.3942 87.5249 73.4494 87.5249H90.8587ZM98.4019 75.6269C99.4572 75.6269 99.4572 77.2328 98.4019 77.2328H73.4494C72.3942 77.2328 72.3942 75.6269 73.4494 75.6269H98.4019ZM98.4019 81.5759C99.4572 81.5759 99.4572 83.1758 98.4019 83.1758H73.4494C72.3942 83.1758 72.3942 81.5759 73.4494 81.5759H98.4019ZM63.6194 47.8563C62.5641 47.8563 62.5641 46.2564 63.6194 46.2564H86.8418C87.8971 46.2564 87.8971 47.8563 86.8418 47.8563H63.6194ZM53.5611 41.4928C52.5119 41.4928 52.5119 39.8869 53.5611 39.8869H86.8418C87.8971 39.8869 87.8971 41.4928 86.8418 41.4928H53.5611ZM53.5611 35.1233C52.5119 35.1233 52.5119 33.5235 53.5611 33.5235H86.8418C87.8971 33.5235 87.8971 35.1233 86.8418 35.1233H53.5611ZM53.5611 28.7559C52.5119 28.7559 52.5119 27.156 53.5611 27.156H86.8418C87.8971 27.156 87.8971 28.7559 86.8418 28.7559H53.5611ZM56.8071 43.0146C59.0378 43.0146 60.848 44.8247 60.848 47.0554C60.848 49.292 59.0378 51.1021 56.8071 51.1021C54.5704 51.1021 52.7602 49.292 52.7602 47.0554C52.7602 44.8247 54.5704 43.0146 56.8071 43.0146ZM59.2481 47.0554C59.2481 45.7098 58.1528 44.6145 56.8071 44.6145C55.4555 44.6145 54.3601 45.7098 54.3601 47.0554C54.3601 48.407 55.4555 49.5022 56.8071 49.5022C58.1528 49.5022 59.2481 48.405 59.2481 47.0554Z" fill="#018580"/>
</svg>
