<svg width="120" height="120" viewBox="0 0 120 120" fill="none" xmlns="http://www.w3.org/2000/svg">
<path d="M50.8018 96.4528L50.6138 88.4887C50.6138 86.5217 48.6009 84.4827 48.5151 84.397L43.737 79.611L39.4969 75.5407L39.4556 75.505C37.623 74.0771 35.9598 74.8833 35.8898 74.9182C35.5851 75.0708 35.3107 75.2347 35.0668 75.4092V65.483C35.0668 63.3362 33.4817 61.5897 31.5334 61.5897C29.5851 61.5897 28 63.3362 28 65.483V79.4634L28.0007 79.4898C28.0082 79.6414 28.2032 83.2222 29.7061 85.104L34.6872 89.9212L36.6195 92.0329L36.6535 92.0668C37.3673 92.7178 38.4235 93.9432 38.4235 94.5056L38.4258 94.5545C38.427 94.5677 38.5262 95.6467 38.5682 96.4522H37.5402C36.7609 96.4522 36.1268 97.0873 36.1268 97.8679V103H37.1868V97.8679C37.1868 97.6761 37.3487 97.514 37.5402 97.514H50.7904C50.9819 97.514 51.1438 97.6761 51.1438 97.8679V103H52.2038V97.8679C52.2038 97.0912 51.5758 96.459 50.8018 96.4528ZM37.3849 91.2979L35.4575 89.1917L30.5135 84.4148C29.282 82.8411 29.073 79.6692 29.06 79.4485V65.483C29.06 63.9217 30.1696 62.6515 31.5334 62.6515C32.8972 62.6515 34.0068 63.9217 34.0068 65.483V76.5236C33.8479 76.7935 33.7382 77.0797 33.6782 77.3814C33.3833 78.8653 34.4443 80.1127 34.4896 80.165L40.8915 86.4437L41.633 85.6851L35.2804 79.457C35.1898 79.3441 34.5384 78.4911 34.7178 77.5888C34.8491 76.9283 35.4029 76.3494 36.3591 75.8703C36.4055 75.8484 37.5041 75.3446 38.7839 76.3269L42.9956 80.3696L47.7653 85.1474C48.2627 85.6474 49.5538 87.2223 49.5539 88.5013L49.7394 96.3651H39.6253C39.5844 95.5974 39.498 94.6393 39.4833 94.4779C39.4578 93.2666 37.7736 91.6541 37.3849 91.2979Z" fill="#018580"/>
<path d="M88.0679 61.5897C86.1196 61.5897 84.5345 63.3362 84.5345 65.483V75.4092C84.2906 75.2347 84.0162 75.0708 83.7115 74.9182C83.6415 74.8833 81.9785 74.0773 80.1457 75.505L75.8562 79.6189L71.0861 84.397C71.0004 84.4827 68.9875 86.5217 68.9877 88.4761L68.7995 96.4528C68.0254 96.459 67.3975 97.0912 67.3975 97.8679V103H68.4575V97.8679C68.4575 97.6761 68.6193 97.514 68.8108 97.514H82.0611C82.2526 97.514 82.4144 97.6761 82.4144 97.8679V103H83.4744V97.8679C83.4744 97.0873 82.8404 96.4522 82.0611 96.4522H81.033C81.075 95.6467 81.1743 94.5677 81.1755 94.5545L81.1777 94.5056C81.1777 93.9432 82.234 92.7178 82.9478 92.0668L84.9141 89.9212L89.8491 85.1545L89.8951 85.104C91.3981 83.2222 91.5931 79.6414 91.6006 79.4898L91.6013 65.483C91.6013 63.3362 90.0161 61.5897 88.0679 61.5897ZM90.5412 79.4487C90.5284 79.6692 90.3223 82.8373 89.0878 84.4148L84.1665 89.1684L82.2164 91.2979C81.8276 91.6541 80.1435 93.2666 80.118 94.4779C80.1032 94.6393 80.0169 95.5974 79.976 96.3651H69.8619L70.0475 88.4887C70.0475 87.2223 71.3385 85.6474 71.8356 85.1478L76.5977 80.3776L80.8174 76.3269C82.0972 75.3446 83.1956 75.8482 83.2374 75.8681C84.1954 76.3478 84.7487 76.9247 84.8822 77.5824C85.0664 78.4899 84.4119 79.344 84.321 79.457L77.9683 85.6851L78.7098 86.4437L85.0819 80.1967L85.1117 80.165C85.1569 80.1127 86.218 78.8653 85.9231 77.3814C85.8631 77.0797 85.7534 76.7935 85.5945 76.5236V65.483C85.5945 63.9217 86.704 62.6515 88.0679 62.6515C89.4317 62.6515 90.5412 63.9217 90.5412 65.483V79.4487Z" fill="#018580"/>
<path d="M76.9677 27.122C76.9677 27.9831 77.9208 28.6868 79.0966 28.6868C80.9346 28.6868 82.4311 29.928 82.4311 31.4571C82.4311 32.8141 81.2523 33.9394 79.6993 34.1769V34.6312C79.6993 34.9638 79.4291 35.234 79.0966 35.234C78.764 35.234 78.4938 34.9638 78.4938 34.6312V34.1769C76.9438 33.9394 75.7621 32.814 75.7621 31.4571C75.7621 31.1246 76.0323 30.8544 76.3648 30.8544C76.6974 30.8544 76.9676 31.1246 76.9676 31.4571C76.9676 32.3182 77.9207 33.0219 79.0966 33.0219C80.2694 33.0219 81.2255 32.3212 81.2255 31.4571C81.2255 30.5961 80.2724 29.8923 79.0966 29.8923C77.2586 29.8923 75.7621 28.6512 75.7621 27.122C75.7621 25.7651 76.9409 24.6398 78.4939 24.4022V23.9331C78.4939 23.6005 78.7641 23.3303 79.0966 23.3303C79.4292 23.3303 79.6994 23.6005 79.6994 23.9331V24.4022C81.2493 24.6398 82.4311 25.7651 82.4311 27.122C82.4311 27.4546 82.1609 27.7248 81.8284 27.7248C81.4958 27.7248 81.2256 27.4546 81.2256 27.122C81.2256 26.261 80.2725 25.5573 79.0966 25.5573C77.9238 25.5573 76.9677 26.258 76.9677 27.122ZM87.9363 29.2896C87.9363 34.1652 83.9724 38.1291 79.0968 38.1291C74.2213 38.1291 70.2573 34.1652 70.2573 29.2896C70.2573 24.4141 74.2212 20.4501 79.0968 20.4501C83.9723 20.4501 87.9363 24.414 87.9363 29.2896ZM86.7308 29.2896C86.7308 25.0792 83.3073 21.6557 79.0969 21.6557C74.8864 21.6557 71.4629 25.0792 71.4629 29.2896C71.4629 33.5 74.8864 36.9236 79.0969 36.9236C83.3073 36.9236 86.7308 33.5 86.7308 29.2896ZM51.6821 58.1121C51.6821 61.1794 49.185 63.6765 46.1178 63.6765C43.0505 63.6765 40.5534 61.1793 40.5534 58.1121C40.5534 55.0448 43.0506 52.5477 46.1178 52.5477C49.185 52.5477 51.6821 55.0449 51.6821 58.1121ZM50.4766 58.1121C50.4766 55.707 48.5199 53.7532 46.1178 53.7532C43.7127 53.7532 41.7589 55.7099 41.7589 58.1121C41.7589 60.5172 43.7156 62.471 46.1178 62.471C48.5229 62.471 50.4766 60.5143 50.4766 58.1121ZM90.3985 29.2896C90.3985 35.5191 85.33 40.5904 79.0977 40.5904C79.0532 40.5904 79.0086 40.5845 78.9641 40.5845C79.0858 41.3832 79.166 42.1909 79.166 43.0015C79.166 46.9535 77.711 50.7129 75.0803 53.6463C75.0655 53.6671 75.0595 53.6908 75.0417 53.7116C71.1579 57.8864 70.4157 60.5052 70.5047 64.2165C71.0688 64.4303 71.4726 64.9707 71.4726 65.6091V68.2102C71.4726 68.9317 70.9589 69.5345 70.276 69.674C70.4215 69.9591 70.5106 70.2798 70.5106 70.6212V72.1919C70.5106 73.3619 69.5575 74.315 68.3876 74.315H67.5324C67.2355 76.5449 65.3263 78.273 63.0162 78.273C60.7061 78.273 58.7969 76.5449 58.5 74.315H57.4904C56.3205 74.315 55.3674 73.3619 55.3674 72.1919V70.6212C55.3674 70.2798 55.4565 69.962 55.602 69.674C54.9191 69.5374 54.4054 68.9317 54.4054 68.2102V65.7813L53.5621 66.6246C53.2622 66.9245 52.8762 67.073 52.4724 67.073C52.0745 67.073 51.6588 66.9275 51.2877 66.6395C50.9789 66.399 50.6701 66.1496 50.3643 65.9031C49.8595 66.1703 49.1825 66.4494 48.6213 66.6217C48.5797 67.0136 48.5381 67.4055 48.4936 67.7975C48.3837 68.7239 47.7008 69.3979 46.8754 69.3979H45.367C44.5326 69.3979 43.8675 68.7417 43.7487 67.8034C43.6983 67.4115 43.6567 67.0165 43.6122 66.6217C43.0094 66.4435 42.4304 66.203 41.8782 65.9031C41.5723 66.1525 41.2635 66.4019 40.9547 66.6454C40.5925 66.9305 40.1739 67.073 39.773 67.073C39.3662 67.073 38.9742 66.9245 38.6803 66.6306L37.6144 65.5646C37.0235 64.9738 37.0176 64.0385 37.5995 63.2932C37.84 62.9814 38.0924 62.6696 38.3389 62.3608C38.039 61.8085 37.7985 61.2295 37.6203 60.6237C37.2284 60.5822 36.8334 60.5406 36.4415 60.4931C35.5151 60.3832 34.8411 59.7003 34.8411 58.8749V57.3665C34.8411 56.5321 35.4973 55.867 36.4356 55.7482C36.8275 55.6977 37.2225 55.6562 37.6203 55.6116C37.7985 55.0089 38.039 54.4269 38.3389 53.8776C38.0895 53.5718 37.84 53.263 37.5966 52.9542C37.5491 52.8949 37.5105 52.8295 37.4719 52.7672C37.4511 52.7345 37.4243 52.7048 37.4065 52.6692C37.4065 52.6662 37.4036 52.6633 37.4036 52.6633C37.1363 52.1793 37.0948 51.6359 37.2789 51.1786C37.3531 50.9946 37.463 50.8253 37.6084 50.6798L38.6744 49.6139C38.7605 49.5278 38.8585 49.4565 38.9564 49.3942C39.5384 49.0349 40.3104 49.1002 40.9488 49.599C40.9874 49.6287 41.023 49.6584 41.0616 49.6881C41.3348 49.9019 41.608 50.1187 41.8782 50.3384C42.4304 50.0385 43.0124 49.798 43.6182 49.6198C43.6597 49.2279 43.6983 48.836 43.7429 48.444C43.8498 47.5176 44.5327 46.8435 45.3611 46.8435H46.8695C47.2139 46.8435 47.5257 46.9593 47.787 47.1553C47.4277 45.8103 47.2406 44.4176 47.2406 43.0103C47.2406 34.2095 54.4025 27.0476 63.2033 27.0476C64.8126 27.0476 66.3923 27.3 67.9125 27.7691C68.6637 22.2612 73.3848 18 79.0947 18C85.3242 18 90.3955 23.0685 90.3955 29.3008L90.3985 29.2896ZM48.6926 49.6291C48.6659 49.5667 48.6362 49.5073 48.6065 49.445C48.6125 49.5014 48.6184 49.5549 48.6243 49.6113C48.6451 49.6172 48.6689 49.6231 48.6897 49.6291L48.6926 49.6291ZM53.6987 64.0266C53.3721 63.6139 53.0396 63.2012 52.7129 62.8033C52.71 62.7974 52.707 62.7914 52.704 62.7855C52.6773 62.7499 52.6595 62.7083 52.6417 62.6697C52.6268 62.637 52.606 62.6103 52.6001 62.5747C52.5912 62.5361 52.5912 62.5004 52.5882 62.4589C52.5853 62.4203 52.5793 62.3817 52.5823 62.3431C52.5853 62.3104 52.6031 62.2777 52.612 62.2451C52.6239 62.2035 52.6357 62.1619 52.6565 62.1204C52.6595 62.1144 52.6595 62.1085 52.6625 62.1026C53.0752 61.4256 53.381 60.6921 53.5681 59.9172C53.571 59.9113 53.574 59.9053 53.577 59.8994C53.5889 59.8608 53.6096 59.8281 53.6275 59.7925C53.6453 59.7569 53.6601 59.7183 53.6839 59.6886C53.7047 59.6618 53.7344 59.644 53.7581 59.6203C53.7908 59.5906 53.8175 59.5609 53.8561 59.5401C53.8828 59.5253 53.9155 59.5164 53.9481 59.5074C53.9897 59.4926 54.0313 59.4718 54.0788 59.4659C54.0847 59.4659 54.0907 59.4599 54.0966 59.4599C54.6162 59.4065 55.1418 59.3471 55.6614 59.2848C55.9197 59.2521 56.1988 59.1066 56.1988 58.8631V57.3547C56.1988 57.1083 55.9227 56.9628 55.6644 56.9331C55.1418 56.8737 54.6162 56.8173 54.0996 56.7668C54.0818 56.7638 54.0669 56.7549 54.0491 56.752C53.9986 56.7431 53.9541 56.7282 53.9095 56.7074C53.8858 56.6955 53.862 56.6837 53.8383 56.6688C53.7967 56.6421 53.764 56.6124 53.7284 56.5797C53.7106 56.5619 53.6928 56.5441 53.6779 56.5263C53.6482 56.4877 53.6275 56.4432 53.6067 56.3956C53.5978 56.3749 53.5859 56.3541 53.58 56.3303C53.577 56.3214 53.571 56.3155 53.571 56.3095C53.384 55.5376 53.0811 54.8011 52.6684 54.1242C52.6654 54.1182 52.6654 54.1123 52.6625 54.1064C52.6387 54.0678 52.6298 54.0262 52.6179 53.9817C52.609 53.949 52.5912 53.9163 52.5882 53.8837C52.5823 53.8451 52.5912 53.8065 52.5942 53.7679C52.5971 53.7293 52.5942 53.6907 52.606 53.655C52.615 53.6224 52.6357 53.5927 52.6476 53.56C52.6654 53.5185 52.6803 53.4798 52.71 53.4442C52.7129 53.4383 52.7159 53.4323 52.7189 53.4294C53.0485 53.0256 53.378 52.6099 53.7017 52.2001C53.8621 51.9952 53.9571 51.6953 53.7849 51.5201L52.7189 50.4542C52.5437 50.279 52.2468 50.374 52.0419 50.5344C51.6292 50.861 51.2195 51.1936 50.8186 51.5202C50.8008 51.535 50.777 51.541 50.7592 51.5529C50.7325 51.5707 50.7058 51.5826 50.679 51.5974C50.6167 51.6241 50.5543 51.639 50.489 51.6449C50.4712 51.6479 50.4534 51.6598 50.4356 51.6598C50.4237 51.6598 50.4118 51.6568 50.3999 51.6538C50.3821 51.6538 50.3643 51.6508 50.3465 51.6479C50.293 51.639 50.2396 51.6241 50.1891 51.6004C50.1743 51.5944 50.1565 51.5885 50.1416 51.5796C50.1357 51.5766 50.1268 51.5736 50.1208 51.5707C49.4438 51.1579 48.7104 50.8521 47.9355 50.6651C47.9206 50.6621 47.9117 50.6532 47.8998 50.6472C47.8583 50.6354 47.8226 50.6146 47.784 50.5938C47.7543 50.576 47.7247 50.5641 47.7009 50.5433C47.6682 50.5166 47.6445 50.4839 47.6178 50.4513C47.597 50.4246 47.5762 50.4038 47.5584 50.3741C47.5376 50.3384 47.5287 50.2969 47.5138 50.2553C47.5049 50.2226 47.4901 50.193 47.4841 50.1573C47.4841 50.1514 47.4782 50.1454 47.4782 50.1365C47.4248 49.6169 47.3654 49.0914 47.303 48.5717C47.2704 48.3134 47.1249 48.0343 46.8814 48.0343H45.373C45.1265 48.0343 44.981 48.3104 44.9513 48.5688C44.892 49.0884 44.8355 49.6169 44.7851 50.1336C44.7851 50.1395 44.7791 50.1454 44.7791 50.1514C44.7732 50.1989 44.7554 50.2405 44.7376 50.285C44.7257 50.3147 44.7197 50.3444 44.7049 50.3741C44.6841 50.4127 44.6515 50.4424 44.6218 50.475C44.598 50.4988 44.5802 50.5285 44.5535 50.5493C44.5238 50.573 44.4852 50.5879 44.4495 50.6057C44.4139 50.6235 44.3812 50.6443 44.3427 50.6561C44.3367 50.6591 44.3308 50.6621 44.3219 50.6651C43.5499 50.8521 42.8164 51.155 42.1395 51.5677C42.1335 51.5707 42.1276 51.5736 42.1187 51.5766C42.1157 51.5796 42.1127 51.5826 42.1068 51.5855C42.092 51.5944 42.0741 51.5944 42.0593 51.6033C42.0148 51.6212 41.9702 51.636 41.9257 51.6449C41.899 51.6508 41.8752 51.6538 41.8514 51.6538C41.8425 51.6538 41.8336 51.6568 41.8247 51.6568C41.8128 51.6568 41.801 51.6479 41.7891 51.6479C41.7119 51.6449 41.6377 51.6241 41.5664 51.5915C41.5456 51.5826 41.5278 51.5736 41.51 51.5618C41.4862 51.5469 41.4595 51.541 41.4387 51.5232C41.0676 51.2203 40.6875 50.9174 40.3134 50.6235C40.2777 50.5968 40.2451 50.57 40.2124 50.5433C40.0461 50.4127 39.8205 50.3355 39.6482 50.3978C39.6067 50.4127 39.5651 50.4275 39.5324 50.4602L38.4665 51.5261C38.4131 51.5795 38.3893 51.6508 38.3834 51.7221C38.3685 51.8438 38.4101 51.9774 38.4843 52.0992C38.5051 52.1348 38.5229 52.1704 38.5497 52.2001C38.8733 52.6099 39.2059 53.0226 39.5355 53.4235C39.5414 53.4324 39.5444 53.4442 39.5503 53.4531C39.5592 53.465 39.5652 53.4799 39.5711 53.4947C39.6038 53.5482 39.6335 53.6046 39.6483 53.664C39.6513 53.6758 39.6483 53.6907 39.6513 53.7026C39.6631 53.7649 39.6691 53.8273 39.6602 53.8896C39.6572 53.9104 39.6453 53.9312 39.6424 53.952C39.6305 53.9995 39.6216 54.047 39.5978 54.0915C39.5949 54.0975 39.5889 54.1004 39.5859 54.1064C39.583 54.1123 39.583 54.1183 39.58 54.1242C39.1673 54.7982 38.8644 55.5316 38.6774 56.3007C38.6744 56.3066 38.6714 56.3125 38.6685 56.3214C38.6625 56.3452 38.6506 56.363 38.6417 56.3838C38.6209 56.4313 38.6002 56.4758 38.5705 56.5174C38.5556 56.5382 38.5378 56.553 38.52 56.5709C38.4873 56.6065 38.4517 56.6362 38.4131 56.6629C38.3893 56.6778 38.3686 56.6896 38.3448 56.7015C38.3003 56.7223 38.2528 56.7371 38.2053 56.746C38.1874 56.749 38.1756 56.7609 38.1577 56.7609C37.6381 56.8143 37.1126 56.8737 36.5929 56.9391C36.3317 56.9717 36.0525 57.1172 36.0525 57.3607V58.8691C36.0525 59.1155 36.3317 59.261 36.59 59.2907C37.1126 59.3531 37.6381 59.4095 38.1548 59.4629C38.1607 59.4629 38.1667 59.4689 38.1726 59.4689C38.2171 59.4748 38.2587 59.4926 38.3003 59.5075C38.3329 59.5193 38.3656 59.5253 38.3923 59.5431C38.4279 59.5639 38.4576 59.5936 38.4873 59.6233C38.5141 59.647 38.5437 59.6648 38.5645 59.6945C38.5883 59.7242 38.6002 59.7628 38.618 59.7955C38.6358 59.8311 38.6566 59.8638 38.6685 59.9024C38.6714 59.9083 38.6744 59.9143 38.6774 59.9202C38.8644 60.6892 39.1673 61.4227 39.577 62.0967C39.58 62.1026 39.58 62.1085 39.583 62.1145C39.6067 62.1531 39.6156 62.1976 39.6275 62.2392C39.6364 62.2718 39.6542 62.3045 39.6572 62.3372C39.6632 62.3758 39.6542 62.4114 39.6513 62.45C39.6483 62.4886 39.6513 62.5272 39.6424 62.5658C39.6335 62.5985 39.6156 62.6282 39.6008 62.6578C39.583 62.6994 39.5652 62.741 39.5384 62.7766C39.5355 62.7826 39.5355 62.7885 39.5295 62.7915C39.2 63.1983 38.8704 63.611 38.5497 64.0237C38.3893 64.2316 38.2943 64.5314 38.4665 64.7037L39.5324 65.7696C39.7047 65.9418 40.0045 65.8498 40.2094 65.6894C40.6221 65.3658 41.0348 65.0332 41.4357 64.7066C41.4417 64.7036 41.4476 64.7006 41.4536 64.6977C41.4892 64.668 41.5308 64.6531 41.5723 64.6353C41.602 64.6205 41.6287 64.6026 41.6614 64.5937C41.703 64.5819 41.7445 64.5848 41.7861 64.5819C41.8217 64.5789 41.8544 64.5729 41.89 64.5759C41.9286 64.5819 41.9643 64.5967 42.0029 64.6086C42.0415 64.6205 42.0801 64.6294 42.1127 64.6502C42.1187 64.6531 42.1276 64.6531 42.1335 64.6561C42.8105 65.0688 43.541 65.3746 44.31 65.5587C44.3159 65.5587 44.3189 65.5647 44.3248 65.5647C44.3694 65.5766 44.408 65.6003 44.4466 65.6211C44.4763 65.6359 44.5089 65.6478 44.5356 65.6686C44.5653 65.6924 44.5891 65.725 44.6128 65.7547C44.6366 65.7844 44.6663 65.8082 44.6871 65.8408C44.7049 65.8705 44.7108 65.9032 44.7227 65.9358C44.7376 65.9774 44.7554 66.019 44.7613 66.0635C44.7613 66.0694 44.7672 66.0754 44.7672 66.0813C44.8207 66.6009 44.8801 67.1265 44.9454 67.6461C44.9781 67.9074 45.1236 68.1865 45.367 68.1865H46.8754C47.1219 68.1865 47.2674 67.9074 47.2971 67.6491C47.3594 67.1295 47.4158 66.6039 47.4693 66.0843C47.4693 66.0754 47.4752 66.0695 47.4752 66.0605C47.4812 66.016 47.499 65.9804 47.5138 65.9388C47.5257 65.9061 47.5346 65.8705 47.5524 65.8379C47.5732 65.8052 47.5999 65.7785 47.6237 65.7517C47.6504 65.7221 47.6712 65.6924 47.7039 65.6686C47.7306 65.6478 47.7632 65.6359 47.7959 65.6181C47.8345 65.5973 47.8731 65.5766 47.9147 65.5647C47.9236 65.5617 47.9295 65.5558 47.9355 65.5558C48.5234 65.4251 49.6309 64.9679 50.0881 64.6679C50.097 64.662 50.1059 64.662 50.1149 64.6561C50.1535 64.6353 50.1921 64.6234 50.2307 64.6086C50.2663 64.5967 50.2989 64.5818 50.3346 64.5759C50.3732 64.57 50.4118 64.5759 50.4504 64.5759C50.489 64.5789 50.5276 64.5759 50.5632 64.5848C50.5988 64.5937 50.6285 64.6115 50.6642 64.6264C50.7028 64.6442 50.7414 64.659 50.777 64.6858C50.7859 64.6917 50.7948 64.6917 50.8037 64.7006C51.2075 65.0302 51.6232 65.3627 52.033 65.6834C52.2379 65.8438 52.5378 65.9388 52.713 65.7666L53.7789 64.7007C53.9541 64.5255 53.8591 64.2286 53.6987 64.0237L53.6987 64.0266ZM61.7454 44.854C61.7425 43.8356 60.531 43.794 60.3915 43.794H60.3707C59.7502 43.794 58.8416 44.0998 58.8208 44.952C58.8178 45.0796 58.8475 45.1093 58.8623 45.1242C59.1266 45.3944 60.2876 45.4359 61.7425 45.4389V44.8569L61.7454 44.854ZM62.9509 64.1125H63.8952V46.6388H62.9509L62.9509 64.1125ZM55.611 68.2071C55.611 68.3645 55.7416 68.4951 55.899 68.4951H69.9849C70.1423 68.4951 70.2729 68.3645 70.2729 68.2071V65.606C70.2729 65.4487 70.1423 65.318 69.9849 65.318H55.899C55.7416 65.318 55.611 65.4487 55.611 65.606V68.2071ZM55.0647 64.3679C55.1567 64.3055 55.2547 64.258 55.3616 64.2164C55.3645 63.097 55.3467 61.8529 55.1329 60.5583C54.9637 60.5761 54.7945 60.5969 54.6222 60.6147C54.4441 61.2205 54.2036 61.8024 53.9007 62.3577C54.1472 62.6606 54.3966 62.9664 54.643 63.2782C54.9102 63.6137 55.0468 63.9967 55.0647 64.3679ZM66.3123 74.3118H59.7205C60.0056 75.8737 61.3714 77.0643 63.0163 77.0643C64.6613 77.0643 66.0272 75.8737 66.3123 74.3118ZM69.3082 70.621C69.3082 70.1163 68.8955 69.7036 68.3907 69.7036H57.4905C56.9858 69.7036 56.5731 70.1163 56.5731 70.621V72.1918C56.5731 72.6965 56.9858 73.1092 57.4905 73.1092H68.3907C68.8955 73.1092 69.3082 72.6965 69.3082 72.1918V70.621ZM77.738 40.498C72.1499 39.821 67.8001 35.0584 67.8001 29.2892C67.8001 29.1882 67.812 29.0902 67.815 28.9893C66.3304 28.5023 64.7863 28.244 63.2067 28.244C55.0711 28.244 48.4496 34.8654 48.4496 43.0011C48.4496 45.5724 49.1236 48.0963 50.3915 50.3143C50.6884 50.0738 50.9853 49.8304 51.2853 49.5928C52.0187 49.0138 52.9748 49.0197 53.5627 49.6047L54.6286 50.6706C55.2224 51.2645 55.2284 52.1998 54.6434 52.9451C54.4 53.2539 54.1505 53.5656 53.9011 53.8715C54.204 54.4238 54.4445 55.0087 54.6227 55.6145C55.0146 55.6561 55.4065 55.6947 55.7985 55.7392C56.7249 55.8461 57.3989 56.529 57.3989 57.3574V58.8658C57.3989 59.5398 56.9714 60.0951 56.3181 60.3504C56.5438 61.7014 56.5675 62.9722 56.5646 64.1154H61.7429V46.6447C59.6882 46.6417 58.5926 46.5704 58.0017 45.9677C57.7374 45.6975 57.6068 45.3471 57.6157 44.9255C57.6513 43.3904 59.0766 42.5768 60.4038 42.5916C61.9004 42.6065 62.9485 43.5388 62.9485 44.8572V45.4392H63.8927V44.8572C63.8957 43.5388 64.9408 42.6065 66.4374 42.5916C67.7617 42.5768 69.1899 43.3904 69.2255 44.9255C69.2344 45.3471 69.1068 45.6974 68.8395 45.9677C68.2486 46.5704 67.15 46.6417 65.0983 46.6447V64.1154H69.2967C69.2255 60.288 70.0391 57.399 73.9377 53.1354C73.9407 53.1294 73.9436 53.1235 73.9466 53.1205C76.5357 50.374 77.961 46.7812 77.961 43.004C77.961 42.1637 77.8749 41.3264 77.7353 40.5039L77.738 40.498ZM67.9841 45.1211C67.9989 45.1062 68.0286 45.0765 68.0256 44.9489C68.0049 44.0967 67.0962 43.7909 66.4757 43.7909H66.4549C66.3153 43.7909 65.1039 43.8354 65.1009 44.8539V45.4358C66.5559 45.4329 67.7169 45.3913 67.9811 45.1211H67.9841ZM89.1962 29.2892C89.1962 23.7248 84.6681 19.197 79.104 19.197C73.5398 19.197 69.0118 23.725 69.0118 29.2892C69.0118 34.8535 73.5398 39.3814 79.104 39.3814C84.6681 39.3814 89.1962 34.8533 89.1962 29.2892ZM63.209 24.8561C63.5415 24.8561 63.8117 24.5859 63.8117 24.2534V19.9361C63.8117 19.6035 63.5415 19.3333 63.209 19.3333C62.8764 19.3333 62.6062 19.6035 62.6062 19.9361V24.2534C62.6062 24.5859 62.8764 24.8561 63.209 24.8561ZM86.0394 44.3191H81.8824C81.5498 44.3191 81.2796 44.5894 81.2796 44.9219C81.2796 45.2545 81.5498 45.5247 81.8824 45.5247H86.0394C86.3719 45.5247 86.6421 45.2545 86.6421 44.9219C86.6421 44.5894 86.3719 44.3191 86.0394 44.3191ZM76.9239 57.6715C76.6923 57.431 76.3123 57.4251 76.0717 57.6567C75.8312 57.8883 75.8253 58.2684 76.0569 58.5089L78.9192 61.4841C79.038 61.6058 79.1954 61.6682 79.3527 61.6682C79.5042 61.6682 79.6526 61.6118 79.7714 61.4989C80.0119 61.2673 80.0179 60.8873 79.7863 60.6467L76.9239 57.6715ZM40.3816 45.5247H44.5386C44.8711 45.5247 45.1413 45.2545 45.1413 44.922C45.1413 44.5894 44.8711 44.3192 44.5386 44.3192H40.3816C40.049 44.3192 39.7788 44.5894 39.7788 44.922C39.7788 45.2545 40.049 45.5247 40.3816 45.5247ZM48.1668 30.7319C48.2856 30.8507 48.44 30.9071 48.5944 30.9071C48.7488 30.9071 48.9032 30.8477 49.022 30.7319C49.2565 30.4973 49.2565 30.1143 49.022 29.8797L45.9696 26.8273C45.735 26.5928 45.352 26.5928 45.1174 26.8273C44.8828 27.0619 44.8828 27.4449 45.1174 27.6795L48.1698 30.7319H48.1668Z" fill="black"/>
</svg>
