<svg width="100" height="100" viewBox="0 0 100 100" fill="none" xmlns="http://www.w3.org/2000/svg">
<path d="M89.8041 27.9573L76.491 12.2771C76.3388 12.0954 76.1178 11.9922 75.8821 11.9922C75.6464 11.9922 75.4254 12.0954 75.2732 12.2771L61.9601 27.9573C61.7588 28.193 61.7146 28.5269 61.8423 28.8118C61.9749 29.0966 62.2597 29.2783 62.569 29.2783H66.6841V42.5763H55.6891C52.9981 42.5763 50.8079 44.7664 50.8079 47.4575V53.4583H39.366C36.6749 53.4583 34.4848 55.6485 34.4848 58.3395V64.3796H23.0428C20.3518 64.3796 18.1616 66.5698 18.1616 69.2609V92.1885H10.8004C10.3585 92.1885 10 92.547 10 92.9889V94.8746C10 97.5657 12.1902 99.7558 14.8812 99.7558H31.2039C33.8949 99.7558 36.0851 97.5657 36.0851 94.8746V88.8345H47.527C50.218 88.8345 52.4082 86.6443 52.4082 83.9533V76.0274H63.8502C66.5412 76.0274 68.7314 73.8372 68.7314 71.1462V65.1454H80.1733C82.8643 65.1454 85.0545 62.9552 85.0545 60.2642V29.2733H89.1992C89.5134 29.2733 89.7934 29.0916 89.9259 28.8068C90.0585 28.522 90.0094 28.188 89.8081 27.9523L89.8041 27.9573ZM42.6364 69.2605V83.9577C42.6364 85.2246 43.1324 86.3689 43.9278 87.238H36.0805V69.2648C36.0805 67.4576 37.5538 65.9844 39.3609 65.9844C41.168 65.9844 42.6413 67.4576 42.6413 69.2648L42.6364 69.2605ZM11.5964 94.8797V93.7944H26.3188V94.8797C26.3188 96.1466 26.8147 97.2909 27.6102 98.16H14.8817C13.0746 98.16 11.6014 96.6868 11.6014 94.8797H11.5964ZM31.2002 98.1551C29.3931 98.1551 27.9199 96.6819 27.9199 94.8748V92.9891C27.9199 92.5471 27.5614 92.1886 27.1194 92.1886H19.7583V69.261C19.7583 67.4538 21.2315 65.9806 23.0386 65.9806H35.7671C34.9716 66.8498 34.4757 67.994 34.4757 69.261V94.8751C34.4757 96.6822 33.0024 98.1555 31.1953 98.1555L31.2002 98.1551ZM47.5229 87.2387C45.7157 87.2387 44.2425 85.7654 44.2425 83.9583V69.2611C44.2425 66.5701 42.0523 64.3799 39.3613 64.3799H36.0809V58.3398C36.0809 56.5326 37.5542 55.0594 39.3613 55.0594H51.422C51.4809 55.0741 51.5399 55.0987 51.6037 55.0987C51.6675 55.0987 51.7265 55.0741 51.7854 55.0594H52.0899C51.2943 55.9286 50.7984 57.0728 50.7984 58.3398V83.9539C50.7984 85.761 49.3252 87.2343 47.518 87.2343L47.5229 87.2387ZM52.4041 58.3396C52.4041 56.5325 53.8773 55.0593 55.6844 55.0593C57.4916 55.0593 58.9648 56.5325 58.9648 58.3396V71.1473C58.9648 72.4143 59.4608 73.5585 60.2563 74.4277H52.409V58.3401L52.4041 58.3396ZM67.1214 71.1511C67.1214 72.9582 65.6481 74.4315 63.841 74.4315C62.0339 74.4315 60.5606 72.9582 60.5606 71.1511V58.3434C60.5606 55.6524 58.3704 53.4622 55.6794 53.4622H52.399V47.4614C52.399 45.6543 53.8723 44.181 55.6794 44.181H68.4079C67.6124 45.0502 67.1165 46.1944 67.1165 47.4614V71.1559L67.1214 71.1511ZM68.7271 47.4566C68.7271 45.6495 70.2003 44.1762 72.0075 44.1762C73.8146 44.1762 75.2878 45.6495 75.2878 47.4566V60.2643C75.2878 61.5312 75.7838 62.6755 76.5793 63.5447H68.732V47.4571L68.7271 47.4566ZM84.2452 27.6718C83.8032 27.6718 83.4447 28.0303 83.4447 28.4723V60.264C83.4447 62.0711 81.9715 63.5443 80.1644 63.5443C78.3572 63.5443 76.884 62.0711 76.884 60.264V47.4563C76.884 44.7652 74.6938 42.5751 72.0028 42.5751H68.2756V28.4713C68.2756 28.0293 67.9172 27.6708 67.4752 27.6708H64.2931L75.8774 14.0284L87.4616 27.6708L84.2452 27.6718ZM59.0773 17.1041V15.5572C59.0773 14.5456 57.938 13.6911 56.5876 13.6911H54.6823C52.4233 13.6911 50.5868 12.1344 50.5868 10.2193V8.67235C50.5868 6.75723 52.4233 5.20052 54.6823 5.20052H54.8345V4.07597C54.8345 3.63401 55.193 3.27553 55.6349 3.27553C56.0769 3.27553 56.4354 3.63401 56.4354 4.07597V5.20052H56.5876C58.8465 5.20052 60.6831 6.75723 60.6831 8.67235C60.6831 9.11431 60.3246 9.47279 59.8826 9.47279C59.4407 9.47279 59.0822 9.11431 59.0822 8.67235C59.0822 7.66074 57.9429 6.80626 56.5925 6.80626H54.6871C53.3367 6.80626 52.1974 7.66072 52.1974 8.67235V10.2193C52.1974 11.2309 53.3367 12.0853 54.6871 12.0853H56.5925C58.8514 12.0853 60.6879 13.6421 60.6879 15.5572V17.1041C60.6879 19.0192 58.8514 20.5759 56.5925 20.5759H56.4402V21.8183C56.4402 22.2603 56.0817 22.6188 55.6398 22.6188C55.1978 22.6188 54.8393 22.2603 54.8393 21.8183V20.5759H54.6871C52.4282 20.5759 50.5916 19.0192 50.5916 17.1041C50.5916 16.6621 50.9501 16.3036 51.3921 16.3036C51.834 16.3036 52.1925 16.6621 52.1925 17.1041C52.1925 18.1157 53.3318 18.9702 54.6823 18.9702H56.5876C57.938 18.9702 59.0773 18.1157 59.0773 17.1041ZM17.4988 37.1893V49.1174C17.4988 50.4678 18.5497 51.5678 19.8461 51.5678H43.5054C44.8018 51.5678 45.8528 50.4678 45.8528 49.1174V37.2189C46.6679 36.9439 47.2179 36.1876 47.2179 35.2889V31.2867C47.2179 30.1622 46.334 29.2439 45.2536 29.2439H36.4242V27.8345C36.4242 26.6903 35.4961 25.7622 34.352 25.7622H29.0043C27.8601 25.7622 26.932 26.6903 26.932 27.8345V29.2439H18.1026C17.0174 29.2439 16.1384 30.1622 16.1384 31.2867V35.2595C16.1384 36.1582 16.6884 36.9193 17.5035 37.1944L17.4988 37.1893ZM43.5064 49.9669H19.8472C19.4445 49.9669 19.1007 49.5789 19.1007 49.1173V37.6607L29.4672 40.6071V42.3996C29.4672 43.3129 30.2136 44.0594 31.127 44.0594H32.227C33.1404 44.0594 33.8868 43.3129 33.8868 42.3996V40.612L44.2532 37.6853V49.1124C44.2532 49.574 43.9144 49.962 43.5068 49.962L43.5064 49.9669ZM31.0726 42.3995V38.4071C31.0726 38.3777 31.1021 38.3482 31.1316 38.3482H32.2315C32.261 38.3482 32.2905 38.3777 32.2905 38.4071V42.3995C32.2905 42.429 32.261 42.4585 32.2315 42.4585H31.1316C31.1021 42.4585 31.0726 42.429 31.0726 42.3995ZM28.5338 27.8293C28.5338 27.574 28.7499 27.3579 29.0053 27.3579H34.353C34.6083 27.3579 34.8244 27.574 34.8244 27.8293V29.2387H28.5338V27.8293ZM17.7353 31.2816C17.7353 31.0409 17.9023 30.8396 18.0987 30.8396H45.2553C45.4517 30.8396 45.6187 31.0409 45.6187 31.2816V35.2838C45.6187 35.4949 45.5058 35.6668 45.3339 35.7159L33.887 38.9471V38.4069C33.887 37.4936 33.1406 36.7471 32.2273 36.7471H31.1273C30.2139 36.7471 29.4675 37.4936 29.4675 38.4069V38.9422L18.0206 35.6865C17.8487 35.6374 17.7358 35.4704 17.7358 35.2543L17.7353 31.2816ZM55.6316 25.8995C62.7718 25.8995 68.5814 20.0902 68.5814 12.9498C68.5814 5.80935 62.772 0 55.6316 0C48.4912 0 42.6819 5.80935 42.6819 12.9498C42.6819 20.0902 48.4912 25.8995 55.6316 25.8995ZM55.6316 1.60159C61.8879 1.60159 66.9802 6.69399 66.9802 12.9501C66.9802 19.2063 61.8878 24.2987 55.6316 24.2987C49.3755 24.2987 44.2831 19.2063 44.2831 12.9501C44.2831 6.69399 49.3755 1.60159 55.6316 1.60159Z" fill="black"/>
<path d="M59.0773 17.1041V15.5572C59.0773 14.5456 57.938 13.6911 56.5876 13.6911H54.6823C52.4233 13.6911 50.5868 12.1344 50.5868 10.2193V8.67235C50.5868 6.75723 52.4233 5.20052 54.6823 5.20052H54.8345V4.07597C54.8345 3.63401 55.193 3.27553 55.6349 3.27553C56.0769 3.27553 56.4354 3.63401 56.4354 4.07597V5.20052H56.5876C58.8465 5.20052 60.6831 6.75723 60.6831 8.67235C60.6831 9.11431 60.3246 9.47279 59.8826 9.47279C59.4407 9.47279 59.0822 9.11431 59.0822 8.67235C59.0822 7.66074 57.9429 6.80626 56.5925 6.80626H54.6871C53.3367 6.80626 52.1974 7.66072 52.1974 8.67235V10.2193C52.1974 11.2309 53.3367 12.0853 54.6871 12.0853H56.5925C58.8514 12.0853 60.6879 13.6421 60.6879 15.5572V17.1041C60.6879 19.0192 58.8514 20.5759 56.5925 20.5759H56.4402V21.8183C56.4402 22.2603 56.0817 22.6188 55.6398 22.6188C55.1978 22.6188 54.8393 22.2603 54.8393 21.8183V20.5759H54.6871C52.4282 20.5759 50.5916 19.0192 50.5916 17.1041C50.5916 16.6621 50.9501 16.3036 51.3921 16.3036C51.834 16.3036 52.1925 16.6621 52.1925 17.1041C52.1925 18.1157 53.3318 18.9702 54.6823 18.9702H56.5876C57.938 18.9702 59.0773 18.1157 59.0773 17.1041ZM17.4988 37.1893V49.1174C17.4988 50.4678 18.5497 51.5678 19.8461 51.5678H43.5054C44.8018 51.5678 45.8528 50.4678 45.8528 49.1174V37.2189C46.6679 36.9439 47.2179 36.1876 47.2179 35.2889V31.2867C47.2179 30.1622 46.334 29.2439 45.2536 29.2439H36.4242V27.8345C36.4242 26.6903 35.4961 25.7622 34.352 25.7622H29.0043C27.8601 25.7622 26.932 26.6903 26.932 27.8345V29.2439H18.1026C17.0174 29.2439 16.1384 30.1622 16.1384 31.2867V35.2595C16.1384 36.1582 16.6884 36.9193 17.5035 37.1944L17.4988 37.1893ZM43.5064 49.9669H19.8472C19.4445 49.9669 19.1007 49.5789 19.1007 49.1173V37.6607L29.4672 40.6071V42.3996C29.4672 43.3129 30.2136 44.0594 31.127 44.0594H32.227C33.1404 44.0594 33.8868 43.3129 33.8868 42.3996V40.612L44.2532 37.6853V49.1124C44.2532 49.574 43.9144 49.962 43.5068 49.962L43.5064 49.9669ZM31.0726 42.3995V38.4071C31.0726 38.3777 31.1021 38.3482 31.1316 38.3482H32.2315C32.261 38.3482 32.2905 38.3777 32.2905 38.4071V42.3995C32.2905 42.429 32.261 42.4585 32.2315 42.4585H31.1316C31.1021 42.4585 31.0726 42.429 31.0726 42.3995ZM28.5338 27.8293C28.5338 27.574 28.7499 27.3579 29.0053 27.3579H34.353C34.6083 27.3579 34.8244 27.574 34.8244 27.8293V29.2387H28.5338V27.8293ZM17.7353 31.2816C17.7353 31.0409 17.9023 30.8396 18.0987 30.8396H45.2553C45.4517 30.8396 45.6187 31.0409 45.6187 31.2816V35.2838C45.6187 35.4949 45.5058 35.6668 45.3339 35.7159L33.887 38.9471V38.4069C33.887 37.4936 33.1406 36.7471 32.2273 36.7471H31.1273C30.2139 36.7471 29.4675 37.4936 29.4675 38.4069V38.9422L18.0206 35.6865C17.8487 35.6374 17.7358 35.4704 17.7358 35.2543L17.7353 31.2816Z" fill="#018580"/>
</svg>
