<svg width="100" height="100" viewBox="0 0 100 100" fill="none" xmlns="http://www.w3.org/2000/svg">
<path d="M88.4888 52.461C88.3742 52.1697 88.2596 51.9012 88.132 51.6099C88.0927 51.5216 88.0567 51.4201 88.0174 51.3317C87.8767 51.0142 87.7261 50.7098 87.5722 50.4053C87.533 50.3169 87.4969 50.2416 87.4577 50.15C87.1271 35.5868 80.7669 29.7075 79.3561 28.5913C79.1925 22.2181 73.9617 17.0884 67.5491 17.0884C62.3575 17.0884 57.9383 20.4665 56.3512 25.1244C54.7898 20.4141 50.3577 17 45.1265 17C38.7141 17 33.4703 22.1293 33.3194 28.5029C31.9217 29.6191 25.5485 35.4981 25.2179 50.0616C25.1786 50.1369 25.1426 50.2154 25.1033 50.2907C24.9495 50.6082 24.7989 50.9127 24.645 51.2433C24.6058 51.3316 24.5698 51.42 24.5305 51.5084C24.4028 51.7866 24.2882 52.0812 24.1737 52.3594C24.1737 52.3725 24.1737 52.3856 24.1606 52.3987C23.1818 54.9748 22.6745 57.718 22.6745 60.4871C18.3832 62.317 15.375 66.569 15.375 71.5216C15.375 76.2451 18.1312 80.3338 22.1181 82.288H19.3554C19.0117 82.288 18.7465 82.5662 18.7465 82.8968C18.7465 83.2405 19.0248 83.5057 19.3554 83.5057H81.1494C81.4931 83.5057 81.7582 83.2274 81.7582 82.8968C81.7582 82.5531 81.48 82.288 81.1494 82.288H74.4717C83.4867 79.2012 90.0002 70.6577 90.0002 60.6019C90.0002 57.8327 89.4929 55.0667 88.5142 52.4873C88.5011 52.5004 88.5019 52.4741 88.4888 52.461ZM26.3772 50.533C29.2349 45.06 34.2987 41.011 40.358 39.5119C40.6886 39.4366 40.8915 39.0929 40.8032 38.7623C40.7279 38.4317 40.3842 38.2287 40.0536 38.3171C34.4791 39.7017 29.6937 43.1289 26.558 47.8131C27.5498 34.2286 34.2012 29.391 34.2765 29.3382C34.3158 29.312 34.3387 29.2858 34.3649 29.2498C34.3649 29.2498 34.3779 29.2498 34.3779 29.2367C36.0539 27.3971 38.4663 26.4314 40.8657 26.6475C42.7577 26.8112 44.3584 27.7277 45.2455 29.1484C45.3601 29.3382 45.563 29.4397 45.7659 29.4397C45.8805 29.4397 45.9951 29.4135 46.0965 29.3513C46.3879 29.1746 46.4763 28.7916 46.2864 28.5003C45.1833 26.7491 43.252 25.6295 40.9672 25.4266C38.7184 25.2236 36.4598 25.9339 34.6431 27.3448C35.3665 22.2154 39.7855 18.2544 45.1178 18.2544C50.9574 18.2544 55.7198 23.0041 55.7198 28.8439V36.1566C53.0913 35.8129 51.0586 33.5674 51.0586 30.8505V30.4054C51.0586 30.0617 50.7804 29.7965 50.4497 29.7965C50.106 29.7965 49.8409 30.0748 49.8409 30.4054V30.8505C49.8409 34.2548 52.4301 37.047 55.7329 37.4005V47.9766C54.3744 45.8948 52.0242 44.4971 49.3597 44.4971C47.3269 44.4971 45.412 45.2827 43.975 46.7328C42.5413 48.1665 41.7524 50.0847 41.7524 52.1044V57.4367C41.7524 57.7804 42.0307 58.0456 42.3613 58.0456C42.705 58.0456 42.9701 57.7674 42.9701 57.4367V52.1044C42.9701 50.4023 43.6313 48.8049 44.8359 47.597C46.0405 46.3924 47.6412 45.7312 49.3433 45.7312C52.8589 45.7312 55.7166 48.5889 55.7166 52.1044V55.6593C55.7166 62.5268 50.1289 68.1142 43.2617 68.1142C41.5988 68.1142 39.9982 67.7836 38.5514 67.1747C37.3337 64.0651 34.8557 61.5871 31.7461 60.3694C31.1504 58.9095 30.8066 57.3219 30.8066 55.646C30.8066 55.3023 30.5284 55.0371 30.1978 55.0371C29.8672 55.0371 29.589 55.3154 29.589 55.646C29.589 57.1321 29.8443 58.5528 30.2862 59.8981C29.3598 59.6689 28.4073 59.5314 27.4155 59.5314C26.2207 59.5314 25.0652 59.7082 23.9621 60.0388C24.0177 56.7393 24.842 53.453 26.3772 50.533ZM56.3315 78.6186C57.0418 80.18 58.3642 81.5254 59.9878 82.3143L52.5344 82.311C54.2235 81.5516 55.5819 80.2029 56.3315 78.6186ZM51.0221 81.5516C49.2709 82.0098 47.4542 82.2357 45.6146 82.2357C42.1351 82.2357 38.8584 81.3977 35.9519 79.9378C38.073 77.7807 39.3791 74.8215 39.3791 71.558C39.3791 70.5662 39.2383 69.6038 39.0124 68.6775C39.546 68.8542 40.1057 69.0081 40.6622 69.1226V70.1636C40.6622 74.3928 44.1026 77.833 48.3317 77.833H49.5134C49.8571 77.833 50.1222 77.5548 50.1222 77.2242C50.1222 76.8805 49.844 76.6153 49.5134 76.6153H48.3317C44.7768 76.6153 41.893 73.7348 41.893 70.1766V69.3256C42.3382 69.378 42.7931 69.4009 43.2645 69.4009C48.7997 69.4009 53.5758 66.1013 55.7327 61.3648V75.9415C55.7327 78.4259 53.703 80.8511 51.0221 81.5516ZM16.6291 71.5453C16.6291 65.6172 21.454 60.7923 27.382 60.7923C33.31 60.7923 38.1349 65.6172 38.1349 71.5453C38.1349 77.4733 33.31 82.2982 27.382 82.2982C21.4507 82.2982 16.6291 77.4766 16.6291 71.5453ZM34.9858 80.815C36.0889 81.3976 37.2575 81.9083 38.4653 82.3142H32.6519C33.4767 81.8919 34.2754 81.3976 34.9858 80.815ZM67.071 82.3109C65.2412 82.3109 63.4147 82.0818 61.6635 81.6268C58.9859 80.9427 56.9532 78.504 56.9532 75.977V61.4004C59.1103 66.1369 63.8861 69.4364 69.4214 69.4364C69.8797 69.4364 70.3346 69.4102 70.7929 69.3742V70.2253C70.7929 73.7801 67.9124 76.664 64.3542 76.664H63.1725C62.8288 76.664 62.5637 76.9422 62.5637 77.2728C62.5637 77.6165 62.8419 77.8816 63.1725 77.8816H64.3542C68.5834 77.8816 72.0236 74.4413 72.0236 70.2122V69.1713C78.3346 67.9536 83.1201 62.3922 83.1201 55.7242C83.1201 55.3805 82.8419 55.1154 82.5113 55.1154C82.1676 55.1154 81.9024 55.3936 81.9024 55.7242C81.9024 62.5917 76.3148 68.1791 69.4476 68.1791C62.5801 68.1791 56.9928 62.5915 56.9928 55.7242V52.1694C56.9928 48.6538 59.8504 45.7961 63.366 45.7961C65.0681 45.7961 66.6655 46.4573 67.8734 47.662C69.078 48.8666 69.7392 50.4673 69.7392 52.1694V57.5017C69.7392 57.8454 70.0175 58.1105 70.3481 58.1105C70.6918 58.1105 70.9569 57.8323 70.9569 57.5017V52.1694C70.9569 50.1497 70.1713 48.2348 68.7343 46.7978C67.3007 45.3641 65.3824 44.562 63.3497 44.562C60.6819 44.562 58.3349 45.9466 56.9765 48.0285V37.4029C60.3153 37.0985 62.9438 34.2801 62.9438 30.853V30.4078C62.9438 30.0641 62.6655 29.7989 62.3349 29.7989C61.9912 29.7989 61.7261 30.0772 61.7261 30.4078V30.853C61.7261 33.596 59.6442 35.8678 56.9896 36.1722V28.9218C56.9896 23.0821 61.7392 18.3322 67.5791 18.3322C72.9114 18.3322 77.3172 22.293 78.0538 27.4226C76.2502 26.0249 73.9915 25.3146 71.7297 25.5044C69.458 25.7073 67.5136 26.8235 66.4105 28.5781C66.2337 28.8694 66.3221 29.2524 66.6003 29.4292C66.7018 29.4913 66.8163 29.5175 66.9309 29.5175C67.1339 29.5175 67.3368 29.4161 67.4514 29.2262C68.3417 27.8056 69.9392 26.889 71.8311 26.7253C74.2174 26.5093 76.643 27.488 78.3189 29.3145C78.3189 29.3145 78.332 29.3145 78.332 29.3276L78.4204 29.416C78.4957 29.4684 85.1503 34.254 86.1389 47.8909C83.003 43.2068 78.2174 39.7763 72.6433 38.3949C72.3127 38.3066 71.9821 38.5095 71.8937 38.8401C71.8184 39.1707 72.0083 39.5013 72.3389 39.5897C78.3946 41.0889 83.4613 45.138 86.3197 50.6108C87.9204 53.6845 88.7714 57.151 88.7714 60.6271C88.7583 72.5717 79.0333 82.3098 67.072 82.3098L67.071 82.3109Z" fill="black"/>
<path d="M30.0458 77.8819V74.8966H33.0311C33.3748 74.8966 33.64 74.6183 33.64 74.2877V70.2124C33.64 69.8687 33.3617 69.6036 33.0311 69.6036H30.0458V66.6052C30.0458 66.2615 29.7676 65.9963 29.437 65.9963H25.3617C25.018 65.9963 24.7528 66.2746 24.7528 66.6052V69.5905H21.7675C21.4238 69.5905 21.1587 69.8687 21.1587 70.1993V74.2747C21.1587 74.6184 21.4369 74.8835 21.7675 74.8835H24.7528V77.8688C24.7528 78.2125 25.0311 78.4776 25.3617 78.4776H29.437C29.7676 78.5038 30.0458 78.2223 30.0458 77.8819ZM28.815 74.2877V77.2697H25.9705V74.2844C25.9705 73.9407 25.6923 73.6756 25.3617 73.6756H22.3764V70.8311H25.3617C25.7054 70.8311 25.9705 70.5528 25.9705 70.2222V67.2369H28.815V70.2222C28.815 70.5659 29.0932 70.8311 29.4238 70.8311H32.4091V73.6756L29.4238 73.6789C29.0965 73.6658 28.815 73.944 28.815 74.2877Z" fill="#018580"/>
<path d="M14.9754 61.476C15.09 61.5906 15.2536 61.6528 15.4075 61.6528C15.5613 61.6528 15.725 61.5906 15.8396 61.476C16.0818 61.2338 16.0818 60.841 15.8396 60.5988L13.6922 58.4514C13.45 58.2092 13.0572 58.2092 12.815 58.4514C12.5727 58.6937 12.5727 59.0865 12.815 59.3287L14.9754 61.476Z" fill="#018580"/>
<path d="M10.6088 64.0158H13.6432C13.9869 64.0158 14.2521 63.7375 14.2521 63.4069C14.2521 63.0632 13.9738 62.7981 13.6432 62.7981H10.6088C10.2651 62.7981 10 63.0763 10 63.4069C10 63.7506 10.2782 64.0158 10.6088 64.0158Z" fill="#018580"/>
<path d="M17.1582 57.1712V59.2792C17.1582 59.6229 17.4364 59.8881 17.767 59.8881C18.0976 59.8881 18.3759 59.6098 18.3759 59.2792V57.1712C18.3759 56.8275 18.0976 56.5624 17.767 56.5624C17.4397 56.5624 17.1582 56.8308 17.1582 57.1712Z" fill="#018580"/>
<path d="M11.3448 57.8585C11.4594 57.9731 11.6231 58.0353 11.7769 58.0353C11.9307 58.0353 12.0944 57.9731 12.209 57.8585C12.4512 57.6163 12.4512 57.2235 12.209 56.9812L11.7147 56.487C11.4725 56.2447 11.0797 56.2447 10.8374 56.487C10.5952 56.7292 10.5952 57.122 10.8374 57.3642L11.3448 57.8585Z" fill="#018580"/>
</svg>
