<svg width="54" height="54" viewBox="0 0 54 54" fill="none" xmlns="http://www.w3.org/2000/svg">
<path d="M53.6112 40.7252L40.6289 33.1041C40.3242 32.9236 39.9351 32.9752 39.6866 33.2237L34.1847 38.7233C33.519 39.3891 32.5743 39.5602 31.7186 39.1687C28.2375 37.5676 24.7237 35.0874 21.8216 32.185C18.9147 29.2781 16.4346 25.7642 14.838 22.2877C14.4442 21.432 14.6153 20.485 15.2788 19.8168L20.7806 14.3172C21.0314 14.0664 21.0806 13.6796 20.9001 13.3725L13.2721 0.389871C13.1244 0.136688 12.8431 -0.0133439 12.5501 0.00775661C4.99469 0.500049 2.02473 4.28602 0.859915 7.37314C-0.715381 11.5553 -0.112928 17.4181 2.55709 23.8767C5.00675 29.8006 9.03171 35.8229 13.6028 40.3941C18.174 44.9654 24.1936 48.9927 30.1197 51.4424C34.222 53.1373 38.0832 54 41.4258 54C43.3457 54 45.0968 53.714 46.6252 53.1397C49.7149 51.9769 53.5007 49.0044 53.9928 41.4467C54.0116 41.1537 53.8639 40.8747 53.6107 40.7247L53.6112 40.7252ZM19.2523 13.6419L16.315 16.5769L8.02388 2.46007C9.24049 2.01935 10.6259 1.72863 12.1755 1.59504L19.2502 13.642L19.2523 13.6419ZM46.0767 51.6847C37.5605 54.8917 23.1596 47.751 14.7046 39.295C6.24905 30.8368 -0.891094 16.4385 2.31531 7.92209C3.12408 5.77711 4.55403 4.16192 6.58877 3.09057L15.1776 17.7139L14.1719 18.7173C13.0537 19.8402 12.756 21.4952 13.4171 22.9369C15.0885 26.5775 17.6812 30.2531 20.7145 33.2843C23.7479 36.3178 27.4189 38.9059 31.064 40.5819C32.5033 41.2407 34.1583 40.9429 35.2788 39.8224L36.2845 38.8167L50.9075 47.4057C49.8361 49.4405 48.221 50.8729 46.0737 51.6816L46.0767 51.6847ZM51.5387 45.9741L37.4223 37.6827L40.3572 34.7501L52.4038 41.8226C52.2702 43.3745 51.9794 44.7574 51.5387 45.9741ZM44.7688 0.312688C41.6675 -0.406987 38.4725 0.125148 35.772 1.81067C33.0715 3.49619 31.1891 6.13112 30.4694 9.23247C29.6771 12.6527 30.4132 16.1784 32.4878 18.9918L30.8328 22.0956C30.6851 22.3745 30.7179 22.7121 30.9195 22.9559C31.1188 23.1997 31.447 23.2982 31.747 23.2044L35.7134 21.9948C36.8433 22.7098 38.0763 23.2232 39.3891 23.5279C40.2916 23.7366 41.1918 23.8374 42.0802 23.8374C47.4976 23.8374 52.4136 20.1077 53.6888 14.608C54.4061 11.5089 53.874 8.31384 52.1885 5.61326C50.5031 2.91268 47.8677 1.03002 44.7688 0.312688ZM52.1718 14.2561C51.063 19.0384 46.792 22.2804 42.0803 22.2804C41.3091 22.2804 40.5238 22.1937 39.7409 22.0108C38.4938 21.7225 37.3264 21.2138 36.2715 20.4988C36.1402 20.4097 35.9878 20.3652 35.8355 20.3652C35.7581 20.3652 35.6831 20.3769 35.6081 20.398L33.0904 21.1669L34.0961 19.2774C34.2414 19.0032 34.211 18.6656 34.0164 18.4241C32.0027 15.9251 31.262 12.7018 31.9863 9.58181C32.6099 6.88591 34.2485 4.59323 36.595 3.12802C38.9416 1.66286 41.7194 1.20106 44.4175 1.8246C47.111 2.44819 49.4036 4.08445 50.8663 6.43341C52.3314 8.78004 52.7956 11.558 52.172 14.2537L52.1718 14.2561ZM48.1445 11.9212C48.1445 12.3502 47.7976 12.6995 47.3663 12.6995H36.7893C36.3603 12.6995 36.011 12.3526 36.011 11.9212C36.011 11.4922 36.3579 11.1429 36.7893 11.1429H47.3663C47.7952 11.1429 48.1445 11.4899 48.1445 11.9212ZM48.1445 8.38611C48.1445 8.8151 47.7976 9.16441 47.3663 9.16441H40.3899C39.961 9.16441 39.6117 8.81747 39.6117 8.38611C39.6117 7.95711 39.9586 7.6078 40.3899 7.6078H47.3663C47.7952 7.6078 48.1445 7.95475 48.1445 8.38611ZM36.0133 8.38611C36.0133 7.95711 36.3602 7.6078 36.7916 7.6078H36.7939C37.2229 7.6078 37.5722 7.95475 37.5722 8.38611C37.5722 8.8151 37.2252 9.16441 36.7939 9.16441C36.3649 9.16441 36.0156 8.81747 36.0156 8.38611H36.0133ZM48.1445 15.4514C48.1445 15.8804 47.7976 16.2297 47.3663 16.2297H36.7893C36.3603 16.2297 36.011 15.8828 36.011 15.4514C36.011 15.0224 36.3579 14.6731 36.7893 14.6731H47.3663C47.7952 14.6731 48.1445 15.0201 48.1445 15.4514Z" fill="black"/>
<path d="M44.7689 0.312688C41.6675 -0.406987 38.4725 0.125148 35.772 1.81067C33.0715 3.49619 31.1891 6.13112 30.4694 9.23247C29.6771 12.6527 30.4132 16.1784 32.4878 18.9918L30.8328 22.0956C30.6851 22.3745 30.7179 22.7121 30.9195 22.9559C31.1188 23.1997 31.447 23.2982 31.747 23.2044L35.7134 21.9948C36.8433 22.7098 38.0764 23.2232 39.3891 23.5279C40.2916 23.7366 41.1918 23.8374 42.0802 23.8374C47.4976 23.8374 52.4136 20.1077 53.6888 14.608C54.4061 11.5089 53.874 8.31384 52.1885 5.61326C50.5031 2.91268 47.8677 1.03002 44.7689 0.312688ZM52.1718 14.2561C51.063 19.0384 46.792 22.2804 42.0803 22.2804C41.3091 22.2804 40.5238 22.1937 39.7409 22.0108C38.4938 21.7225 37.3264 21.2138 36.2715 20.4988C36.1402 20.4097 35.9879 20.3652 35.8355 20.3652C35.7581 20.3652 35.6831 20.3769 35.6081 20.398L33.0904 21.1669L34.0961 19.2774C34.2414 19.0032 34.211 18.6656 34.0164 18.4241C32.0027 15.9251 31.262 12.7018 31.9863 9.58181C32.6099 6.88591 34.2485 4.59323 36.595 3.12802C38.9416 1.66286 41.7194 1.20106 44.4175 1.8246C47.111 2.44819 49.4036 4.08444 50.8663 6.43341C52.3314 8.78004 52.7956 11.558 52.172 14.2537L52.1718 14.2561ZM48.1446 11.9212C48.1446 12.3502 47.7976 12.6995 47.3663 12.6995H36.7893C36.3603 12.6995 36.011 12.3526 36.011 11.9212C36.011 11.4922 36.3579 11.1429 36.7893 11.1429H47.3663C47.7952 11.1429 48.1446 11.4899 48.1446 11.9212ZM48.1446 8.38611C48.1446 8.8151 47.7976 9.16441 47.3663 9.16441H40.3899C39.961 9.16441 39.6117 8.81747 39.6117 8.38611C39.6117 7.95711 39.9586 7.6078 40.3899 7.6078H47.3663C47.7952 7.6078 48.1446 7.95475 48.1446 8.38611ZM36.0133 8.38611C36.0133 7.95711 36.3602 7.6078 36.7916 7.6078H36.7939C37.2229 7.6078 37.5722 7.95475 37.5722 8.38611C37.5722 8.8151 37.2252 9.16441 36.7939 9.16441C36.3649 9.16441 36.0156 8.81747 36.0156 8.38611H36.0133ZM48.1446 15.4514C48.1446 15.8804 47.7976 16.2297 47.3663 16.2297H36.7893C36.3603 16.2297 36.011 15.8828 36.011 15.4514C36.011 15.0224 36.3579 14.6731 36.7893 14.6731H47.3663C47.7952 14.6731 48.1446 15.0201 48.1446 15.4514Z" fill="#018580"/>
</svg>
