<svg width="500" height="385" viewBox="0 0 500 385" fill="none" xmlns="http://www.w3.org/2000/svg">
<g clip-path="url(#clip0_56_302)">
<path d="M386.659 250.73H330.314C326.827 250.73 324 247.906 324 244.42V216.31C324 212.824 326.827 210 330.314 210H386.659C390.147 210 392.973 212.824 392.973 216.31V244.42C392.973 247.906 390.147 250.73 386.659 250.73Z" fill="white"/>
<path d="M358.488 266.657L367.416 245.508H349.559L358.488 266.657Z" fill="white"/>
<path d="M358.274 223.371H374.403V225.729L382.31 221.174L374.403 216.618V218.975H358.274V223.371Z" fill="#018580"/>
<path d="M382.31 232.64H366.181V230.281L358.274 234.837L366.181 239.394V237.034H382.31V232.64Z" fill="black"/>
<path d="M348.374 236.785L347.606 237.065C347.606 237.065 345.213 234.335 343.971 231.36C342.729 228.387 342.685 224.755 342.685 224.755L343.246 224.52L339.835 216.363C339.228 216.837 338.648 217.448 338.178 218.239C336.249 221.499 336.439 226.502 338.38 231.388C340.322 236.274 342.398 240.633 346.187 243.374C348.423 244.992 350.337 245.276 351.825 245.04L348.374 236.785Z" fill="#018580"/>
<path d="M350.822 235.825L349.761 236.21L353.253 244.562C353.648 244.433 354.002 244.274 354.308 244.106C355.21 243.613 355.605 242.528 355.226 241.574L353.403 236.982C352.998 235.964 351.855 235.45 350.822 235.825Z" fill="#018580"/>
<path d="M342.502 214.933C342.073 215.087 341.605 215.296 341.136 215.574L344.618 223.906L345.792 223.416C346.809 222.992 347.301 221.833 346.9 220.807L345.069 216.11C344.67 215.09 343.532 214.561 342.502 214.933Z" fill="#018580"/>
<path d="M100.019 377.801V283.807C100.019 283.807 98.9737 258.48 112.298 251.17C125.622 243.859 181.793 247.776 181.793 247.776V377.802H100.019V377.801Z" fill="black"/>
<path d="M199.602 166.287C199.602 166.287 196.206 194.747 194.899 197.097C193.594 199.447 193.594 199.447 193.594 199.447L187.062 203.886C187.062 203.886 199.602 221.641 215.016 224.513C230.431 227.385 229.124 218.247 229.124 218.247L226.773 213.287L229.908 186.131C229.908 186.131 201.953 173.338 199.602 166.287Z" fill="#FFB192"/>
<path d="M178.962 206.236L189.151 201.798C189.151 201.798 195.682 212.503 210.835 218.769C225.988 225.034 226.25 221.38 227.034 218.769C227.818 216.157 226.772 213.285 226.772 213.285L227.894 204.144L233.952 206.163L254.987 376.211L200.907 378.822L178.962 206.236Z" fill="#F0F0F0"/>
<path d="M228.862 204.322C228.862 204.322 232.519 212.763 235.916 232.607C239.313 252.452 242.448 285.871 243.232 308.848C244.015 331.825 244.538 384.305 244.538 384.305C244.538 384.305 311.943 384.305 312.727 384.305C313.51 384.305 318.214 358.457 318.214 358.457C318.214 358.457 288.43 332.957 286.863 328.778C285.818 325.993 286.34 274.382 281.898 250.623C277.457 226.863 271.71 222.076 259.691 216.158C247.271 210.041 228.862 204.322 228.862 204.322Z" fill="white"/>
<path d="M264.394 354.386C264.045 354.386 263.763 354.103 263.763 353.755C263.763 351.889 263.43 325.366 263.11 299.716C262.788 274.063 262.456 247.536 262.456 245.661C262.456 245.313 262.738 245.03 263.087 245.03C263.435 245.03 263.718 245.313 263.718 245.661C263.718 247.527 264.05 274.05 264.371 299.7C264.693 325.353 265.025 351.88 265.025 353.755C265.025 354.105 264.742 354.386 264.394 354.386Z" fill="black"/>
<path d="M128.539 348.011L128.017 384.304H207.439C207.439 384.304 210.834 353.494 209.529 350.623C208.224 347.749 128.539 348.011 128.539 348.011Z" fill="white"/>
<path d="M216.932 196.314C220.169 198.921 224.596 201.014 228.044 202.28L229.909 186.131C229.909 186.131 208.911 176.519 201.787 169.366C203.274 177.492 206.936 188.26 216.932 196.314Z" fill="#A68D83" fill-opacity="0.88"/>
<path d="M254.467 113.284C254.467 113.284 259.954 122.683 260.998 134.172C262.044 145.661 260.998 175.165 251.593 187.698C242.188 200.23 222.594 196.574 213.711 189.002C205.558 182.054 197.512 174.381 195.423 159.238C193.334 144.094 199.865 115.373 218.414 109.368C236.962 103.364 254.467 113.284 254.467 113.284Z" fill="#FFB192"/>
<path d="M278.035 367.889C278.035 367.889 277.115 367.889 275.712 367.851C275.384 367.839 275.017 367.851 274.637 367.839C273.287 367.801 271.646 367.763 269.99 367.712C269.624 367.699 269.245 367.686 268.879 367.675C267.238 367.637 265.836 367.839 264.523 367.763H264.486C264.207 367.749 263.804 367.788 263.475 367.8C263.31 367.813 263.159 367.826 263.058 367.813C262.3 367.675 262.149 367.498 261.329 367.132C260.267 366.652 245.91 363.446 234.229 363.523C222.561 363.573 212.093 364.368 210.39 362.942C208.672 361.491 207.637 346.84 217.6 345.879L229.849 350.524C229.849 350.524 257.819 347.205 268.074 354.763C278.351 362.324 278.035 367.889 278.035 367.889Z" fill="#FFB192"/>
<path d="M264.486 367.764C264.207 367.75 263.804 367.789 263.475 367.801C263.224 367.398 262.692 366.666 262.401 366.362C259.245 363.144 251.618 361.062 248.852 360.393C248.601 360.33 248.435 360.078 248.5 359.826C248.55 359.574 248.815 359.423 249.081 359.473C253.108 360.445 261.658 362.931 264.082 367.007C264.158 367.119 264.36 367.512 264.486 367.764Z" fill="black"/>
<path d="M269.994 367.712C269.629 367.704 269.25 367.694 268.884 367.673C265.438 361.39 259.797 359.588 252.828 357.347L252.415 357.21C252.178 357.13 252.032 356.861 252.115 356.61C252.196 356.372 252.453 356.226 252.716 356.309L253.116 356.444C260.484 358.808 266.414 360.707 269.994 367.712Z" fill="black"/>
<path d="M275.714 367.851C275.385 367.843 275.019 367.846 274.639 367.837C272.549 363.445 265.629 356.092 256.476 354.38C256.212 354.336 256.04 354.091 256.084 353.827C256.141 353.576 256.385 353.406 256.637 353.449C266.067 355.22 273.674 362.917 275.714 367.851Z" fill="black"/>
<path d="M201.692 146.314C201.692 146.314 207.44 143.572 211.49 135.87C215.539 128.167 215.016 121.249 215.016 121.249C215.016 121.249 222.332 120.074 233.305 123.337C244.277 126.601 257.34 131.04 268.313 124.773C279.287 118.508 279.287 108.455 273.93 104.278C267.932 99.5982 256.034 102.45 256.034 102.45C256.034 102.45 260.606 98.0119 258.124 95.4009C255.642 92.7899 246.628 96.1846 246.628 96.1846C246.628 96.1846 235.656 87.4379 214.885 88.4828C194.115 89.5277 184.188 104.018 183.012 120.206C181.836 136.395 187.714 152.582 187.714 152.582L201.692 146.314Z" fill="black"/>
<path d="M243.83 150.237C242.653 153.137 242.682 156.504 242.385 159.582C242.154 161.976 241.714 164.768 243.909 166.384C244.957 167.156 249.917 169.239 247.365 170.926C246.393 171.57 244.763 171.394 243.657 171.342C242.894 171.307 242.124 171.276 241.362 171.219C240.544 171.157 239.741 170.911 238.92 170.906C238.439 170.903 238.29 171.543 238.681 171.788C240.001 172.613 241.934 172.867 243.472 172.927C245.01 172.988 246.053 172.916 247.438 172.23C248.291 171.808 249.115 171.21 249.251 170.199C249.403 169.061 248.548 168.04 247.691 167.404C246.704 166.672 245.491 166.331 244.494 165.617C243.11 164.627 243.225 162.96 243.322 161.417C243.555 157.704 244.409 154.057 244.741 150.361C244.792 149.797 244.009 149.797 243.83 150.237Z" fill="black"/>
<path d="M250.922 162.409C252.508 162.69 254.11 161.133 254.5 158.932C254.89 156.731 253.92 154.72 252.333 154.439C250.747 154.158 249.145 155.715 248.755 157.916C248.365 160.117 249.335 162.129 250.922 162.409Z" fill="black"/>
<path d="M230.773 161.015C232.484 161.269 234.158 159.551 234.511 157.177C234.865 154.803 233.764 152.672 232.053 152.417C230.341 152.163 228.667 153.881 228.314 156.255C227.96 158.629 229.061 160.76 230.773 161.015Z" fill="black"/>
<path d="M249.854 149.847C251.075 150.053 252.307 149.844 253.539 149.929C253.835 149.95 254.127 149.994 254.423 150.021C254.633 150.042 254.03 149.96 254.323 150.008C254.386 150.018 254.449 150.028 254.511 150.038C254.665 150.064 254.819 150.097 254.971 150.134C255.234 150.197 255.487 150.297 255.75 150.353C255.988 150.406 256.253 150.462 256.494 150.451C256.628 150.433 256.762 150.414 256.895 150.396C256.812 150.411 256.726 150.427 256.643 150.442C256.642 150.471 257.1 150.398 257.143 150.387C257.844 150.225 258.276 149.414 258.08 148.738C258.023 148.542 257.937 148.366 257.813 148.205C257.762 148.136 257.709 148.069 257.653 148.002C257.702 148.058 257.752 148.115 257.801 148.171C257.749 148.098 257.695 148.026 257.638 147.957C257.568 147.841 257.476 147.747 257.359 147.678C257.262 147.602 257.166 147.524 257.065 147.453C256.74 147.229 256.315 147.097 255.932 146.999C255.203 146.811 254.438 146.715 253.687 146.711C252.94 146.708 252.203 146.786 251.464 146.888C250.813 146.978 250.088 147.2 249.559 147.592C249.151 147.896 248.9 148.286 248.97 148.82C249.031 149.264 249.38 149.768 249.854 149.847Z" fill="black"/>
<path d="M235.92 146.354C235.754 146.256 235.584 146.17 235.41 146.09C235.262 146.024 234.856 145.812 235.163 145.978C235.051 145.918 234.94 145.856 234.826 145.799C234.321 145.544 233.796 145.374 233.249 145.234C232.057 144.929 230.802 144.852 229.579 144.981C228.275 145.119 227.084 145.434 225.954 146.114C225.795 146.21 225.631 146.305 225.498 146.437C225.409 146.551 225.32 146.666 225.234 146.781C225.26 146.743 225.284 146.705 225.309 146.667C224.96 146.911 224.758 147.311 224.761 147.731C224.763 148.136 224.974 148.476 225.326 148.671C225.752 148.908 226.157 148.795 226.596 148.681C226.376 148.681 226.155 148.681 225.935 148.681C226.298 148.738 226.553 148.752 226.919 148.671C226.931 148.669 227.271 148.584 227.048 148.632C226.837 148.676 227.402 148.588 227.464 148.579C227.536 148.569 227.93 148.53 227.515 148.57C227.592 148.563 227.668 148.553 227.745 148.544C227.942 148.52 228.139 148.494 228.337 148.479C229.199 148.41 230.058 148.373 230.923 148.344C231.725 148.318 232.541 148.311 233.342 148.346C233.686 148.361 234.028 148.372 234.372 148.382C234.564 148.387 234.483 148.417 234.349 148.376C234.421 148.399 234.493 148.411 234.565 148.431C234.707 148.471 234.848 148.517 234.985 148.57C235.542 148.782 236.211 148.381 236.417 147.867C236.64 147.311 236.45 146.67 235.92 146.354Z" fill="black"/>
<path d="M242.123 182.65C243.321 180.242 245.503 178.475 248.025 177.339C245.837 177.117 235.501 176.161 232.893 177.641C229.973 179.298 233.434 185.955 239.475 186.289C240.11 186.325 240.687 186.273 241.238 186.187C241.286 184.972 241.566 183.769 242.123 182.65Z" fill="black"/>
<path d="M194.376 168.638C194.376 168.638 195.422 172.685 201.43 177.385C207.44 182.084 216.148 185.522 216.148 185.522L216.845 182.476C216.845 182.476 207.831 178.558 203.651 174.251C199.47 169.943 198.949 167.593 198.949 167.593L194.376 168.638Z" fill="#DEE1EB"/>
<path d="M217.89 180.222C222.727 179.997 225.425 183.818 225.762 186.29C226.099 188.763 223.776 191.535 218.341 189.101C211.588 186.076 213.055 180.448 217.89 180.222Z" fill="black"/>
<path d="M198.165 138.742C198.165 138.742 200.252 123.737 210.314 113.545C229.516 94.0935 245.845 95.2684 245.845 95.2684C245.845 95.2684 245.714 92.5274 239.575 90.4388C233.811 88.4777 231.215 89.5251 231.215 89.5251C231.215 89.5251 215.408 90.83 202.084 105.582C188.76 120.334 187.323 139.133 187.323 139.133L198.165 138.742Z" fill="white"/>
<path d="M196.728 136.915C184.149 134.784 177.134 144.618 176.611 154.539C176.088 164.461 183.303 172.004 192.94 171.249C214.624 169.552 212.143 139.526 196.728 136.915Z" fill="white"/>
<path d="M190.465 161.606C187.145 161.606 184.337 159.938 182.733 157.001C181.015 153.855 181.159 149.982 183.101 147.135C183.249 146.921 183.543 146.865 183.759 147.01C183.975 147.158 184.03 147.452 183.884 147.668C182.14 150.225 182.015 153.71 183.565 156.547C185.037 159.24 187.632 160.765 190.708 160.655C193.582 160.578 196.017 159.264 197.567 156.955C199.335 154.32 199.741 150.679 198.602 147.683C197.472 144.711 194.373 142.683 191.555 143.052C191.301 143.086 191.057 142.904 191.023 142.645C190.989 142.386 191.171 142.148 191.43 142.114C194.726 141.675 198.187 143.926 199.486 147.346C200.73 150.621 200.286 154.6 198.352 157.481C196.627 160.053 193.921 161.515 190.732 161.601C190.642 161.605 190.554 161.605 190.465 161.606Z" fill="#E6E6E6"/>
<path d="M181.313 202.58C181.313 202.58 143.169 211.979 129.846 227.123C116.523 242.266 110.252 316.941 109.991 330.778C109.729 344.617 119.396 350.362 125.144 354.278C130.892 358.193 156.234 365.243 176.612 366.289C196.99 367.333 216.323 366.289 216.323 366.289C216.323 366.289 216.258 361.849 219.393 355.322C222.301 349.269 225.99 348.012 225.99 348.012L208.485 341.745C208.485 341.745 205.421 286.858 200.647 260.284C195.161 229.734 181.313 202.58 181.313 202.58Z" fill="white"/>
<path d="M244.538 332.975C244.452 332.975 244.365 332.958 244.283 332.921C243.964 332.78 243.82 332.408 243.961 332.09C247.535 324.031 251.238 308.211 253.323 297.112L253.495 296.214C254.126 292.95 254.912 288.889 253.345 286.087C252.545 284.657 250.74 281.555 249.003 278.573C247.201 275.478 245.5 272.552 245.028 271.68C244.108 269.975 247.004 265.422 251.199 259.177C252.331 257.488 253.311 256.032 253.881 255.045C255.376 252.461 254.381 250.093 253.228 247.351L252.836 246.407C251.791 243.845 250.603 241.278 249.457 238.796C248.988 237.781 248.518 236.767 248.056 235.746C247.444 234.397 246.828 233.024 246.204 231.634C242.511 223.41 238.694 214.904 233.806 206.689C233.627 206.39 233.726 206.002 234.026 205.824C234.325 205.647 234.713 205.745 234.892 206.044C239.817 214.323 243.65 222.86 247.357 231.118C247.979 232.506 248.594 233.877 249.207 235.226C249.669 236.243 250.136 237.255 250.603 238.267C251.757 240.762 252.949 243.342 254.005 245.931L254.393 246.862C255.568 249.658 256.783 252.549 254.974 255.675C254.381 256.7 253.393 258.172 252.247 259.878C250.061 263.136 245.51 269.915 246.139 271.08C246.602 271.935 248.299 274.85 250.096 277.938C251.836 280.928 253.646 284.038 254.447 285.471C256.24 288.677 255.405 292.989 254.736 296.454L254.564 297.344C253.804 301.386 249.781 322.082 245.117 332.601C245.01 332.837 244.781 332.975 244.538 332.975Z" fill="black"/>
<path d="M207.309 335.195C207.147 335.195 206.984 335.133 206.86 335.01C203.892 332.02 189.576 307.245 188.51 302.587C187.927 300.037 189.391 293.568 190.807 287.311C191.904 282.464 193.039 277.451 192.717 276.095C192.235 274.067 188.574 271.077 185.034 268.187C180.757 264.695 176.334 261.085 175.478 257.833C174.505 254.135 175.337 230.996 175.887 215.684C176.086 210.178 176.241 205.829 176.241 204.279C176.241 203.93 176.524 203.648 176.872 203.648C177.221 203.648 177.504 203.93 177.504 204.279C177.504 205.853 177.347 210.212 177.149 215.731C176.635 230.043 175.774 253.995 176.699 257.513C177.452 260.368 181.904 264.004 185.833 267.212C189.706 270.374 193.364 273.361 193.946 275.806C194.336 277.446 193.272 282.147 192.039 287.591C190.718 293.425 189.222 300.035 189.741 302.308C190.787 306.875 204.841 331.187 207.758 334.123C208.003 334.37 208.002 334.77 207.754 335.015C207.631 335.133 207.47 335.195 207.309 335.195Z" fill="black"/>
<path d="M155.972 324.36C155.943 324.36 155.913 324.357 155.884 324.354C155.539 324.304 155.298 323.985 155.347 323.641C155.811 320.358 163.058 254.99 163.391 249.982C163.415 249.634 163.714 249.361 164.063 249.394C164.41 249.418 164.674 249.718 164.651 250.065C164.318 255.08 157.062 320.531 156.597 323.817C156.552 324.133 156.282 324.36 155.972 324.36Z" fill="black"/>
<path d="M207.962 342.115C207.883 342.115 207.803 342.1 207.725 342.069C206.12 341.418 199.023 339.027 190.041 335.999C171.911 329.887 147.079 321.519 142.357 319.067C142.048 318.907 141.928 318.526 142.088 318.217C142.249 317.906 142.629 317.783 142.939 317.948C147.575 320.354 173.374 329.049 190.445 334.802C199.449 337.837 206.561 340.233 208.201 340.897C208.524 341.028 208.68 341.397 208.548 341.718C208.447 341.964 208.211 342.115 207.962 342.115Z" fill="black"/>
<path d="M199.243 368.144C183.286 368.144 152.351 365.269 128.851 356.963C128.522 356.846 128.35 356.486 128.466 356.157C128.581 355.829 128.946 355.657 129.272 355.772C158.959 366.266 200.488 368.058 208.215 366.324C208.556 366.251 208.893 366.463 208.969 366.803C209.046 367.143 208.831 367.48 208.492 367.557C206.82 367.932 203.586 368.144 199.243 368.144Z" fill="black"/>
<path d="M480.326 276.21L430.38 375.079L284.773 376.123L329.709 274.816L480.326 276.21Z" fill="#F0F0F0"/>
<path d="M188.134 375.508L188.162 367.594H282.421L325.79 272.554H476.537L480.326 276.208H333.063L287.996 375.426C287.996 375.426 188.134 375.245 188.134 375.508Z" fill="white"/>
<path d="M404.715 330.767C403.07 335.699 394.142 339.507 384.774 339.273C375.405 339.038 369.144 334.851 370.788 329.919C372.434 324.988 381.362 321.18 390.73 321.415C400.098 321.649 406.36 325.837 404.715 330.767Z" fill="white"/>
<path d="M287.994 376.058C287.907 376.058 287.818 376.039 287.733 376.001C287.416 375.857 287.276 375.484 287.42 375.166L332.654 275.579H480.324C480.673 275.579 480.956 275.861 480.956 276.21C480.956 276.558 480.673 276.841 480.324 276.841H333.469L288.569 375.688C288.465 375.92 288.234 376.058 287.994 376.058Z" fill="white"/>
<path d="M189.152 375.427H0V384.826H189.152V375.427Z" fill="#211F20"/>
<path d="M499.808 375.427H188.162V384.826H499.808V375.427Z" fill="#383838"/>
<path d="M143.999 155.202H82.8517C79.0672 155.202 76 152.135 76 148.354V117.847C76 114.065 79.0685 111 82.8517 111H143.999C147.784 111 150.851 114.067 150.851 117.847V148.354C150.851 152.136 147.782 155.202 143.999 155.202Z" fill="white"/>
<path d="M168.277 133.101L145.312 123.417V142.785L168.277 133.101Z" fill="white"/>
<path d="M98.9187 137.328C101.255 137.328 103.149 135.436 103.149 133.101C103.149 130.766 101.255 128.873 98.9187 128.873C96.5824 128.873 94.6885 130.766 94.6885 133.101C94.6885 135.436 96.5824 137.328 98.9187 137.328Z" fill="#018580"/>
<path d="M113.425 137.328C115.761 137.328 117.655 135.436 117.655 133.101C117.655 130.766 115.761 128.873 113.425 128.873C111.089 128.873 109.195 130.766 109.195 133.101C109.195 135.436 111.089 137.328 113.425 137.328Z" fill="#018580"/>
<path d="M127.932 137.328C130.268 137.328 132.162 135.436 132.162 133.101C132.162 130.766 130.268 128.873 127.932 128.873C125.596 128.873 123.702 130.766 123.702 133.101C123.702 135.436 125.596 137.328 127.932 137.328Z" fill="#018580"/>
<path d="M441.583 0H300.416C291.349 0 284 7.34466 284 16.4056V83.3342C284 92.3951 291.349 99.7398 300.416 99.7398H313.07C313.425 105.807 312.556 114.832 307.486 126.372C323.796 118.854 333.188 107.564 338.093 99.7398H441.583C450.649 99.7398 457.999 92.3951 457.999 83.3342V16.4056C457.999 7.34592 450.648 0 441.583 0Z" fill="white"/>
<path d="M381.362 31.8976H311.345C309.422 31.8976 307.861 30.339 307.861 28.4171C307.861 26.4938 309.42 24.9353 311.345 24.9353H381.362C383.285 24.9353 384.846 26.4938 384.846 28.4171C384.846 30.339 383.286 31.8976 381.362 31.8976Z" fill="#018580"/>
<path d="M431.568 52.1762H309.995C308.817 52.1762 307.862 51.2221 307.862 50.0447C307.862 48.8673 308.818 47.912 309.995 47.912H431.568C432.746 47.912 433.701 48.8673 433.701 50.0447C433.701 51.2221 432.746 52.1762 431.568 52.1762Z" fill="#018580"/>
<path d="M431.568 64.0135H309.995C308.817 64.0135 307.862 63.0594 307.862 61.8807C307.862 60.7033 308.818 59.7493 309.995 59.7493H431.568C432.746 59.7493 433.701 60.7033 433.701 61.8807C433.701 63.0581 432.746 64.0135 431.568 64.0135Z" fill="#018580"/>
<path d="M405.048 76.6331H309.995C308.817 76.6331 307.862 75.6778 307.862 74.5004C307.862 73.3229 308.818 72.3689 309.995 72.3689H405.048C406.227 72.3689 407.182 73.3229 407.182 74.5004C407.182 75.6778 406.227 76.6331 405.048 76.6331Z" fill="#018580"/>
<path d="M430.614 31.8976H397.212C395.289 31.8976 393.729 30.339 393.729 28.4171C393.729 26.4938 395.288 24.9353 397.212 24.9353H430.614C432.537 24.9353 434.096 26.4938 434.096 28.4171C434.096 30.339 432.537 31.8976 430.614 31.8976Z" fill="#018580"/>
<path d="M47.4511 268.56H9.52551C8.13143 268.56 7 267.429 7 266.036V240.144C7 238.75 8.13143 237.62 9.52551 237.62H47.4511C48.8452 237.62 49.9766 238.75 49.9766 240.144V266.036C49.9766 267.429 48.8464 268.56 47.4511 268.56Z" fill="white"/>
<path d="M28.7499 257.713C28.5365 257.713 28.3218 257.642 28.1463 257.496L7.50532 240.46C7.1025 240.127 7.04566 239.531 7.37777 239.127C7.71366 238.723 8.30968 238.669 8.71123 239L28.7322 255.525L48.243 238.558C48.637 238.216 49.2355 238.256 49.579 238.651C49.9225 239.046 49.8808 239.643 49.4868 239.987L29.3699 257.48C29.1944 257.635 28.9721 257.713 28.7499 257.713Z" fill="black"/>
<path d="M8.11011 267.853C7.87524 267.853 7.64033 267.768 7.45723 267.592C7.07714 267.231 7.06203 266.633 7.42444 266.253L21.8602 251.087C22.2176 250.708 22.8212 250.692 23.1987 251.054C23.5788 251.415 23.594 252.013 23.2316 252.393L8.79579 267.561C8.61016 267.755 8.36014 267.853 8.11011 267.853Z" fill="black"/>
<path d="M48.867 267.298C48.6245 267.298 48.3808 267.206 48.1964 267.02L33.8187 252.613C33.45 252.243 33.45 251.642 33.8212 251.274C34.1925 250.904 34.7923 250.905 35.161 251.275L49.5387 265.683C49.9074 266.053 49.9075 266.653 49.5362 267.022C49.3506 267.207 49.1094 267.298 48.867 267.298Z" fill="black"/>
<path d="M51.9478 249.325C58.9455 249.325 64.6183 243.656 64.6183 236.663C64.6183 229.669 58.9455 224 51.9478 224C44.9501 224 39.2773 229.669 39.2773 236.663C39.2773 243.656 44.9501 249.325 51.9478 249.325Z" fill="#FF5F42"/>
<path d="M49.632 236.74L49.608 236.464C49.912 236.6 50.176 236.776 50.4 236.992C50.624 237.208 50.796 237.444 50.916 237.7C51.036 237.956 51.096 238.22 51.096 238.492C51.096 238.948 50.968 239.368 50.712 239.752C50.464 240.128 50.128 240.432 49.704 240.664C49.28 240.888 48.808 241 48.288 241C47.768 241 47.296 240.888 46.872 240.664C46.448 240.432 46.108 240.128 45.852 239.752C45.604 239.368 45.48 238.948 45.48 238.492C45.48 238.124 45.556 237.808 45.708 237.544C45.868 237.272 46.064 237.044 46.296 236.86C46.536 236.676 46.772 236.524 47.004 236.404L46.908 236.74C46.708 236.66 46.512 236.548 46.32 236.404C46.136 236.252 45.984 236.06 45.864 235.828C45.744 235.596 45.684 235.324 45.684 235.012C45.684 234.564 45.8 234.16 46.032 233.8C46.264 233.432 46.576 233.14 46.968 232.924C47.368 232.708 47.808 232.6 48.288 232.6C48.776 232.6 49.212 232.708 49.596 232.924C49.988 233.14 50.3 233.432 50.532 233.8C50.764 234.16 50.88 234.564 50.88 235.012C50.88 235.356 50.812 235.644 50.676 235.876C50.54 236.108 50.376 236.292 50.184 236.428C49.992 236.564 49.808 236.668 49.632 236.74ZM47.124 235.036C47.124 235.252 47.172 235.444 47.268 235.612C47.372 235.78 47.512 235.916 47.688 236.02C47.864 236.116 48.064 236.164 48.288 236.164C48.512 236.164 48.708 236.116 48.876 236.02C49.052 235.916 49.188 235.78 49.284 235.612C49.388 235.444 49.44 235.252 49.44 235.036C49.44 234.716 49.328 234.452 49.104 234.244C48.888 234.028 48.616 233.92 48.288 233.92C47.952 233.92 47.672 234.028 47.448 234.244C47.232 234.452 47.124 234.716 47.124 235.036ZM48.288 239.68C48.672 239.68 48.996 239.564 49.26 239.332C49.524 239.092 49.656 238.804 49.656 238.468C49.656 238.236 49.596 238.028 49.476 237.844C49.356 237.66 49.192 237.516 48.984 237.412C48.776 237.3 48.544 237.244 48.288 237.244C48.032 237.244 47.8 237.3 47.592 237.412C47.384 237.516 47.22 237.66 47.1 237.844C46.98 238.028 46.92 238.236 46.92 238.468C46.92 238.804 47.052 239.092 47.316 239.332C47.58 239.564 47.904 239.68 48.288 239.68ZM54.4662 241.12C54.1702 241.12 53.8542 241.076 53.5182 240.988C53.1822 240.892 52.9062 240.756 52.6902 240.58C52.5862 240.492 52.5022 240.38 52.4382 240.244C52.3822 240.1 52.3542 239.964 52.3542 239.836C52.3542 239.7 52.4102 239.572 52.5222 239.452C52.6422 239.332 52.8102 239.272 53.0262 239.272C53.1702 239.272 53.3502 239.348 53.5662 239.5C53.6942 239.58 53.8342 239.652 53.9862 239.716C54.1382 239.78 54.2942 239.812 54.4542 239.812C54.8382 239.812 55.1702 239.744 55.4502 239.608C55.7302 239.464 55.9462 239.268 56.0982 239.02C56.2502 238.772 56.3262 238.48 56.3262 238.144C56.3262 237.84 56.2542 237.58 56.1102 237.364C55.9742 237.148 55.7902 236.98 55.5582 236.86C55.3342 236.74 55.0902 236.68 54.8262 236.68C54.5782 236.68 54.3622 236.72 54.1782 236.8C53.9942 236.88 53.8262 236.964 53.6742 237.052C53.5222 237.132 53.3702 237.172 53.2182 237.172C52.9542 237.172 52.7582 237.116 52.6302 237.004C52.5022 236.884 52.4222 236.744 52.3902 236.584C52.3582 236.424 52.3502 236.28 52.3662 236.152L52.7382 233.236C52.7702 233.068 52.8502 232.932 52.9782 232.828C53.1142 232.716 53.2742 232.66 53.4582 232.66H56.9262C57.1182 232.66 57.2782 232.724 57.4062 232.852C57.5342 232.98 57.5982 233.14 57.5982 233.332C57.5982 233.516 57.5342 233.672 57.4062 233.8C57.2782 233.92 57.1182 233.98 56.9262 233.98H53.8302L53.9622 233.872L53.6382 236.308L53.4822 235.852C53.5302 235.772 53.6342 235.696 53.7942 235.624C53.9542 235.552 54.1382 235.492 54.3462 235.444C54.5542 235.388 54.7582 235.36 54.9582 235.36C55.4942 235.36 55.9742 235.484 56.3982 235.732C56.8222 235.972 57.1542 236.304 57.3942 236.728C57.6422 237.144 57.7662 237.616 57.7662 238.144C57.7662 238.744 57.6302 239.268 57.3582 239.716C57.0862 240.164 56.7022 240.512 56.2062 240.76C55.7182 241 55.1382 241.12 54.4662 241.12Z" fill="white"/>
<path d="M476.075 159.671H402.051C399.262 159.671 397 157.41 397 154.623V143.048C397 140.26 399.262 138 402.051 138H476.075C478.864 138 481.126 140.26 481.126 143.048V154.623C481.126 157.41 478.864 159.671 476.075 159.671Z" fill="white"/>
<path d="M407.395 154.517C407.063 154.517 406.795 154.399 406.595 154.162C406.393 153.926 406.304 153.629 406.328 153.275L406.648 150.468C406.672 150.398 406.66 150.351 406.614 150.326C406.564 150.302 406.506 150.314 406.434 150.361L404.125 152.031C403.839 152.244 403.544 152.321 403.236 152.262C402.929 152.203 402.68 152.019 402.489 151.711C402.276 151.333 402.236 151.001 402.364 150.716C402.496 150.432 402.714 150.231 403.022 150.112L405.617 148.94C405.689 148.916 405.725 148.881 405.725 148.834C405.725 148.787 405.689 148.752 405.617 148.728L403.022 147.556C402.69 147.413 402.477 147.188 402.383 146.88C402.289 146.573 402.324 146.265 402.489 145.957C402.679 145.649 402.929 145.466 403.236 145.405C403.544 145.347 403.841 145.412 404.125 145.601L406.434 147.306C406.506 147.354 406.564 147.365 406.614 147.341C406.66 147.317 406.672 147.27 406.648 147.198L406.328 144.393C406.303 144.039 406.399 143.742 406.614 143.505C406.827 143.267 407.111 143.15 407.466 143.15C407.798 143.15 408.071 143.269 408.283 143.505C408.495 143.741 408.578 144.037 408.53 144.393L408.211 147.198C408.187 147.27 408.198 147.317 408.246 147.341C408.293 147.365 408.354 147.354 408.426 147.306L410.735 145.636C411.019 145.423 411.321 145.347 411.642 145.405C411.961 145.465 412.202 145.649 412.37 145.957C412.583 146.335 412.624 146.667 412.493 146.952C412.363 147.236 412.144 147.437 411.835 147.556L409.241 148.728C409.171 148.752 409.135 148.787 409.135 148.834C409.135 148.882 409.171 148.917 409.241 148.94L411.835 150.112C412.168 150.254 412.388 150.48 412.493 150.788C412.6 151.095 412.56 151.403 412.37 151.711C412.202 152.019 411.961 152.203 411.642 152.262C411.321 152.321 411.019 152.255 410.735 152.066L408.426 150.361C408.354 150.314 408.294 150.302 408.246 150.326C408.198 150.351 408.187 150.398 408.211 150.468L408.53 153.275C408.578 153.629 408.49 153.926 408.265 154.162C408.039 154.399 407.749 154.517 407.395 154.517Z" fill="black" fill-opacity="0.75"/>
<path d="M422.705 154.517C422.373 154.517 422.106 154.399 421.906 154.162C421.704 153.926 421.615 153.629 421.638 153.275L421.959 150.468C421.983 150.398 421.97 150.351 421.923 150.326C421.875 150.302 421.817 150.314 421.745 150.361L419.436 152.031C419.15 152.244 418.855 152.321 418.547 152.262C418.24 152.203 417.991 152.019 417.8 151.711C417.587 151.333 417.547 151.001 417.675 150.716C417.805 150.432 418.024 150.231 418.333 150.112L420.928 148.94C421 148.916 421.036 148.881 421.036 148.834C421.036 148.787 421 148.752 420.928 148.728L418.333 147.556C418.001 147.413 417.788 147.188 417.693 146.88C417.6 146.573 417.635 146.265 417.8 145.957C417.99 145.649 418.24 145.466 418.547 145.405C418.855 145.347 419.152 145.412 419.436 145.601L421.745 147.306C421.817 147.354 421.875 147.365 421.923 147.341C421.97 147.317 421.983 147.27 421.959 147.198L421.638 144.393C421.614 144.039 421.71 143.742 421.923 143.505C422.137 143.267 422.421 143.15 422.777 143.15C423.109 143.15 423.382 143.269 423.594 143.505C423.806 143.741 423.889 144.037 423.841 144.393L423.522 147.198C423.498 147.27 423.509 147.317 423.557 147.341C423.604 147.365 423.665 147.354 423.735 147.306L426.045 145.636C426.329 145.423 426.632 145.347 426.952 145.405C427.271 145.465 427.513 145.649 427.68 145.957C427.892 146.335 427.934 146.667 427.804 146.952C427.674 147.236 427.455 147.437 427.146 147.556L424.552 148.728C424.48 148.752 424.445 148.787 424.445 148.834C424.445 148.882 424.48 148.917 424.552 148.94L427.146 150.112C427.478 150.254 427.699 150.48 427.804 150.788C427.911 151.095 427.871 151.403 427.68 151.711C427.513 152.019 427.271 152.203 426.952 152.262C426.632 152.321 426.329 152.255 426.045 152.066L423.735 150.361C423.665 150.314 423.604 150.302 423.557 150.326C423.509 150.351 423.498 150.398 423.522 150.468L423.841 153.275C423.889 153.629 423.801 153.926 423.575 154.162C423.35 154.399 423.06 154.517 422.705 154.517Z" fill="black" fill-opacity="0.75"/>
<path d="M438.015 154.517C437.683 154.517 437.416 154.399 437.215 154.162C437.013 153.926 436.924 153.629 436.948 153.275L437.269 150.468C437.292 150.398 437.28 150.351 437.234 150.326C437.186 150.302 437.126 150.314 437.056 150.361L434.745 152.031C434.459 152.244 434.164 152.321 433.857 152.262C433.549 152.203 433.3 152.019 433.111 151.711C432.896 151.333 432.856 151.001 432.986 150.716C433.116 150.432 433.334 150.231 433.644 150.112L436.239 148.94C436.309 148.916 436.345 148.881 436.345 148.834C436.345 148.787 436.309 148.752 436.239 148.728L433.644 147.556C433.312 147.413 433.097 147.188 433.004 146.88C432.91 146.573 432.945 146.265 433.111 145.957C433.299 145.649 433.549 145.466 433.857 145.405C434.164 145.347 434.461 145.412 434.745 145.601L437.056 147.306C437.126 147.354 437.186 147.365 437.234 147.341C437.28 147.317 437.292 147.27 437.269 147.198L436.948 144.393C436.923 144.039 437.02 143.742 437.234 143.505C437.447 143.267 437.731 143.15 438.087 143.15C438.419 143.15 438.691 143.269 438.903 143.505C439.118 143.742 439.2 144.037 439.151 144.393L438.832 147.198C438.807 147.27 438.819 147.317 438.868 147.341C438.914 147.365 438.974 147.354 439.046 147.306L441.355 145.636C441.64 145.423 441.941 145.347 442.262 145.405C442.582 145.465 442.824 145.649 442.991 145.957C443.203 146.335 443.244 146.667 443.114 146.952C442.984 147.236 442.765 147.437 442.456 147.556L439.863 148.728C439.791 148.752 439.755 148.787 439.755 148.834C439.755 148.882 439.791 148.917 439.863 148.94L442.456 150.112C442.789 150.254 443.008 150.48 443.114 150.788C443.22 151.095 443.18 151.403 442.991 151.711C442.824 152.019 442.582 152.203 442.262 152.262C441.941 152.321 441.64 152.255 441.355 152.066L439.046 150.361C438.974 150.314 438.914 150.302 438.868 150.326C438.819 150.351 438.807 150.398 438.832 150.468L439.151 153.275C439.2 153.629 439.11 153.926 438.885 154.162C438.659 154.399 438.369 154.517 438.015 154.517Z" fill="black" fill-opacity="0.75"/>
<path d="M453.327 154.517C452.993 154.517 452.727 154.399 452.526 154.162C452.324 153.926 452.236 153.629 452.26 153.275L452.579 150.468C452.603 150.398 452.592 150.351 452.544 150.326C452.496 150.302 452.438 150.314 452.366 150.361L450.056 152.031C449.771 152.244 449.475 152.321 449.167 152.262C448.86 152.203 448.612 152.019 448.421 151.711C448.208 151.333 448.167 151.001 448.296 150.716C448.426 150.432 448.646 150.231 448.954 150.112L451.549 148.94C451.621 148.916 451.656 148.881 451.656 148.834C451.656 148.787 451.621 148.752 451.549 148.728L448.954 147.556C448.622 147.413 448.408 147.188 448.315 146.88C448.22 146.573 448.256 146.265 448.421 145.957C448.61 145.649 448.86 145.466 449.167 145.405C449.475 145.347 449.772 145.412 450.056 145.601L452.366 147.306C452.438 147.354 452.496 147.365 452.544 147.341C452.592 147.317 452.603 147.27 452.579 147.198L452.26 144.393C452.234 144.039 452.33 143.742 452.544 143.505C452.759 143.267 453.043 143.15 453.397 143.15C453.73 143.15 454.002 143.269 454.214 143.505C454.427 143.741 454.51 144.037 454.462 144.393L454.142 147.198C454.119 147.27 454.13 147.317 454.178 147.341C454.225 147.365 454.285 147.354 454.357 147.306L456.667 145.636C456.951 145.423 457.253 145.347 457.573 145.405C457.893 145.465 458.134 145.649 458.301 145.957C458.514 146.335 458.556 146.667 458.425 146.952C458.294 147.236 458.076 147.437 457.767 147.556L455.173 148.728C455.102 148.752 455.067 148.787 455.067 148.834C455.067 148.882 455.102 148.917 455.173 148.94L457.767 150.112C458.1 150.254 458.32 150.48 458.425 150.788C458.532 151.095 458.491 151.403 458.301 151.711C458.134 152.019 457.893 152.203 457.573 152.262C457.253 152.321 456.951 152.255 456.667 152.066L454.357 150.361C454.285 150.314 454.226 150.302 454.178 150.326C454.13 150.351 454.119 150.398 454.142 150.468L454.462 153.275C454.51 153.629 454.422 153.926 454.197 154.162C453.971 154.399 453.68 154.517 453.327 154.517Z" fill="black" fill-opacity="0.75"/>
<path d="M468.636 154.517C468.304 154.517 468.037 154.399 467.837 154.162C467.635 153.926 467.546 153.629 467.569 153.275L467.89 150.468C467.914 150.398 467.901 150.351 467.854 150.326C467.806 150.302 467.747 150.314 467.676 150.361L465.367 152.031C465.081 152.244 464.786 152.321 464.478 152.262C464.171 152.203 463.922 152.019 463.732 151.711C463.518 151.333 463.478 151.001 463.607 150.716C463.737 150.432 463.955 150.231 464.264 150.112L466.859 148.94C466.931 148.916 466.967 148.881 466.967 148.834C466.967 148.787 466.931 148.752 466.859 148.728L464.264 147.556C463.932 147.413 463.719 147.188 463.624 146.88C463.531 146.573 463.566 146.265 463.732 145.957C463.921 145.649 464.171 145.466 464.478 145.405C464.786 145.347 465.083 145.412 465.367 145.601L467.676 147.306C467.747 147.354 467.806 147.365 467.854 147.341C467.901 147.317 467.914 147.27 467.89 147.198L467.569 144.393C467.545 144.039 467.641 143.742 467.854 143.505C468.068 143.267 468.352 143.15 468.708 143.15C469.04 143.15 469.313 143.269 469.525 143.505C469.737 143.741 469.821 144.037 469.773 144.393L469.453 147.198C469.428 147.27 469.44 147.317 469.488 147.341C469.535 147.365 469.594 147.354 469.666 147.306L471.976 145.636C472.26 145.423 472.563 145.347 472.883 145.405C473.202 145.465 473.445 145.649 473.611 145.957C473.823 146.335 473.865 146.667 473.735 146.952C473.605 147.236 473.387 147.437 473.077 147.556L470.483 148.728C470.411 148.752 470.377 148.787 470.377 148.834C470.377 148.882 470.411 148.917 470.483 148.94L473.077 150.112C473.409 150.254 473.629 150.48 473.735 150.788C473.842 151.095 473.802 151.403 473.611 151.711C473.445 152.019 473.202 152.203 472.883 152.262C472.563 152.321 472.26 152.255 471.976 152.066L469.666 150.361C469.594 150.314 469.535 150.302 469.488 150.326C469.44 150.351 469.428 150.398 469.453 150.468L469.773 153.275C469.821 153.629 469.732 153.926 469.506 154.162C469.281 154.399 468.991 154.517 468.636 154.517Z" fill="#018580"/>
</g>
<defs>
<clipPath id="clip0_56_302">
<rect width="500" height="385" fill="white"/>
</clipPath>
</defs>
</svg>
