<svg width="60" height="54" viewBox="0 0 60 54" fill="none" xmlns="http://www.w3.org/2000/svg">
<path d="M29.5243 31.1106V29.3312H25.5591L23.7085 27.4806V20.6624L25.5591 18.8118H33.4862L35.3368 20.6624V28.6699L34.6754 29.3312H33.9192L33.2578 28.6699V22.0445L31.5496 20.3362H27.4955L25.7872 22.0445V26.1016L27.4955 27.8098H31.4784V29.4113L33.1837 31.1137H35.4139L37.1192 29.4113V19.9302L34.2247 17.0356H24.8232L21.9287 19.9302V28.2224L24.8232 31.1169L29.5243 31.1106ZM31.4787 25.3601L30.8144 26.0245H28.2343L27.5699 25.3601V22.777L28.2343 22.1127H30.8144L31.4787 22.777V25.3601Z" fill="#018580"/>
<path d="M57.4344 19.5856L52.0279 15.5433V11.249L49.1334 8.35448H42.416L31.241 0H27.8097L16.6347 8.35448H9.91734L7.02281 11.249V15.5433L1.61631 19.5856L0 22.8123V51.1055L2.89454 54H56.1555L59.05 51.1055L59.0471 22.8123L57.4344 19.5856ZM56.0316 20.76L56.3816 21.4599L52.0279 24.7163V17.7707L56.0316 20.76ZM28.3997 1.77946H30.6506L39.444 8.35448L19.6032 8.35745L28.3997 1.77946ZM10.6498 10.137H48.3946L50.2452 11.9876V26.0454L30.6481 40.7021H28.3972L8.80015 26.0454V11.9876L10.6498 10.137ZM7.01985 17.7679V24.7136L2.66616 21.4602L3.01612 20.7603L7.01985 17.7679ZM57.2682 50.3674L55.4176 52.218L3.6303 52.221L1.77969 50.3704V23.2343L1.85977 23.0771L27.81 42.4821H31.2413L57.1885 23.0771L57.2686 23.2343L57.2682 50.3674Z" fill="black"/>
</svg>
