<svg width="36" height="54" viewBox="0 0 36 54" fill="none" xmlns="http://www.w3.org/2000/svg">
<path d="M17.5814 0C7.87889 0 0 7.87889 0 17.5814C0 21.0791 1.02861 24.3391 2.78634 27.0785L12.4404 42.1286C11.4475 42.4026 10.5321 42.7453 9.73256 43.1686C7.68415 44.2531 6.27907 45.8399 6.27907 47.7209C6.27907 49.602 7.68415 51.1888 9.73256 52.2733C11.781 53.3577 14.5439 54 17.5814 54C20.6189 54 23.3818 53.3577 25.4302 52.2733C27.4786 51.1888 28.8837 49.602 28.8837 47.7209C28.8837 45.8399 27.4786 44.2531 25.4302 43.1686C24.6331 42.7466 23.7117 42.4033 22.7224 42.1286L32.3765 27.0785C34.1342 24.3392 35.1628 21.0791 35.1628 17.5814C35.1628 7.87889 27.2839 0 17.5814 0ZM17.5814 1.25581C26.6052 1.25581 33.907 8.55758 33.907 17.5814C33.907 20.8328 32.9502 23.8463 31.3169 26.3917L17.5814 47.7994L3.84593 26.3917C2.21259 23.8462 1.25581 20.8328 1.25581 17.5814C1.25581 8.55758 8.55758 1.25581 17.5814 1.25581ZM17.5814 10.6744C13.7742 10.6744 10.6744 13.7743 10.6744 17.5814C10.6744 21.3885 13.7742 24.4884 17.5814 24.4884C21.3886 24.4884 24.4884 21.3885 24.4884 17.5814C24.4884 13.7743 21.3886 10.6744 17.5814 10.6744ZM17.5814 11.9302C20.7099 11.9302 23.2326 14.4529 23.2326 17.5814C23.2326 20.7099 20.7099 23.2326 17.5814 23.2326C14.4529 23.2326 11.9302 20.7099 11.9302 17.5814C11.9302 14.4529 14.4529 11.9302 17.5814 11.9302ZM13.1664 43.2471L17.0516 49.3103C17.1083 49.3994 17.1866 49.4728 17.2792 49.5237C17.3718 49.5745 17.4758 49.6012 17.5814 49.6012C17.687 49.6012 17.791 49.5745 17.8836 49.5237C17.9762 49.4728 18.0545 49.3994 18.1112 49.3103L21.9964 43.2471C23.0643 43.5158 24.0349 43.86 24.8416 44.2871C26.6565 45.2479 27.6279 46.4809 27.6279 47.7209C27.6279 48.9609 26.6565 50.194 24.8416 51.1548C23.0266 52.1157 20.4392 52.7442 17.5814 52.7442C14.7236 52.7442 12.1362 52.1157 10.3212 51.1548C8.50625 50.194 7.53488 48.9609 7.53488 47.7209C7.53488 46.4809 8.50625 45.2479 10.3212 44.2871C11.1284 43.8597 12.0974 43.5159 13.1664 43.2471Z" fill="black"/>
<path d="M17.5814 10.6744C13.7742 10.6744 10.6744 13.7743 10.6744 17.5814C10.6744 21.3885 13.7742 24.4884 17.5814 24.4884C21.3886 24.4884 24.4884 21.3885 24.4884 17.5814C24.4884 13.7743 21.3886 10.6744 17.5814 10.6744ZM17.5814 11.9302C20.7099 11.9302 23.2326 14.4529 23.2326 17.5814C23.2326 20.7099 20.7099 23.2326 17.5814 23.2326C14.4529 23.2326 11.9302 20.7099 11.9302 17.5814C11.9302 14.4529 14.4529 11.9302 17.5814 11.9302Z" fill="#018580"/>
</svg>
