<svg width="500" height="385" viewBox="0 0 500 385" fill="none" xmlns="http://www.w3.org/2000/svg">
<g clip-path="url(#clip0_56_302)">
<path d="M102.477 137.307C102.477 127.605 108.851 119.641 116.697 119.641C124.544 119.641 130.918 127.532 130.918 137.307C130.918 147.082 124.544 154.884 116.697 154.884C108.851 154.884 102.477 147.008 102.477 137.307ZM105.421 137.307C105.421 145.374 110.485 151.94 116.697 151.94C122.91 151.94 127.974 145.374 127.974 137.307C127.974 129.239 122.925 122.585 116.697 122.585C110.47 122.585 105.421 129.239 105.421 137.307Z" fill="black"/>
<path d="M74.4907 137.307C74.4907 127.605 80.8651 119.641 88.7117 119.641C96.5582 119.641 102.933 127.532 102.933 137.307C102.933 147.082 96.5582 154.884 88.7117 154.884C80.8651 154.884 74.4907 147.008 74.4907 137.307ZM77.435 137.307C77.435 145.374 82.4845 151.94 88.7117 151.94C94.9388 151.94 99.9883 145.374 99.9883 137.307C99.9883 129.239 94.9241 122.585 88.7117 122.585C82.4992 122.585 77.435 129.239 77.435 137.307Z" fill="black"/>
<path d="M46.4907 137.307C46.4907 127.605 52.8798 119.641 60.7264 119.641C68.5729 119.641 74.9473 127.532 74.9473 137.307C74.9473 147.082 68.5582 154.884 60.7264 154.884C52.8946 154.884 46.4907 147.008 46.4907 137.307ZM49.435 137.307C49.435 145.374 54.4992 151.94 60.7264 151.94C66.9535 151.94 72.003 145.374 72.003 137.307C72.003 129.239 66.9388 122.585 60.7264 122.585C54.5139 122.585 49.435 129.239 49.435 137.307Z" fill="black"/>
<path d="M18.5059 137.307C18.5059 127.605 24.895 119.641 32.7415 119.641C40.588 119.641 46.9624 127.532 46.9624 137.307C46.9624 147.082 40.5733 154.884 32.7415 154.884C24.9097 154.884 18.5059 147.008 18.5059 137.307ZM21.4502 137.307C21.4502 145.374 26.5143 151.94 32.7415 151.94C38.9687 151.94 44.0181 145.374 44.0181 137.307C44.0181 129.239 38.954 122.585 32.7415 122.585C26.5291 122.585 21.4502 129.239 21.4502 137.307Z" fill="black"/>
<path d="M130.462 137.307C130.462 127.605 136.836 119.641 144.683 119.641C152.529 119.641 158.918 127.532 158.918 137.307C158.918 147.082 152.529 154.884 144.683 154.884C136.836 154.884 130.462 147.008 130.462 137.307ZM133.406 137.307C133.406 145.374 138.47 151.94 144.683 151.94C150.895 151.94 155.974 145.374 155.974 137.307C155.974 129.239 150.91 122.585 144.683 122.585C138.456 122.585 133.406 129.239 133.406 137.307Z" fill="black"/>
<path d="M0.000152588 380.137H175.303L175.303 137.645L0.000152588 137.645L0.000152588 380.137Z" fill="white"/>
<path opacity="0.6" d="M15.7963 380.137H175.303L175.303 137.645L15.7963 137.645L15.7963 380.137Z" fill="white"/>
<path opacity="0.2" d="M5.25633 380.137L4.52025 153.515L3.78418 380.137H5.25633Z" fill="black"/>
<path opacity="0.2" d="M12.5879 380.137L11.8518 167.633L11.1157 380.137H12.5879Z" fill="black"/>
<path opacity="0.2" d="M7.44922 137.822L8.18529 308.193L8.92136 137.822H7.44922Z" fill="black"/>
<path d="M148.923 149.172C149.074 149.957 149.445 150.683 149.993 151.265C150.541 151.846 151.243 152.26 152.018 152.457C152.792 152.655 153.607 152.628 154.367 152.379C155.126 152.13 155.799 151.671 156.308 151.054C156.816 150.437 157.138 149.688 157.236 148.895C157.334 148.102 157.205 147.297 156.862 146.575C156.52 145.853 155.98 145.243 155.303 144.816C154.627 144.39 153.844 144.165 153.045 144.167C151.838 144.294 150.73 144.889 149.959 145.826C149.188 146.762 148.816 147.964 148.923 149.172Z" fill="black"/>
<path d="M153.31 150.659C153.52 150.657 153.728 150.61 153.918 150.521C154.109 150.432 154.278 150.304 154.414 150.144C157.38 146.529 158.976 141.983 158.919 137.307C158.919 127.605 152.53 119.641 144.683 119.641C138.913 119.641 133.745 123.91 131.537 130.491C131.475 130.674 131.45 130.868 131.463 131.062C131.476 131.255 131.528 131.444 131.614 131.618C131.7 131.791 131.819 131.946 131.965 132.074C132.111 132.201 132.281 132.299 132.465 132.36C132.648 132.422 132.842 132.447 133.036 132.434C133.229 132.421 133.418 132.37 133.592 132.284C133.765 132.198 133.92 132.078 134.048 131.932C134.175 131.786 134.272 131.617 134.334 131.433C136.13 126.06 140.223 122.6 144.639 122.6C150.866 122.6 155.931 129.181 155.931 137.322C155.993 141.29 154.653 145.153 152.147 148.23C151.96 148.444 151.838 148.707 151.797 148.988C151.755 149.269 151.796 149.556 151.915 149.815C152.033 150.073 152.223 150.292 152.463 150.444C152.703 150.597 152.982 150.676 153.266 150.674L153.31 150.659Z" fill="black"/>
<g opacity="0.4">
<path d="M153.31 150.659C153.52 150.657 153.728 150.61 153.918 150.521C154.109 150.432 154.278 150.304 154.414 150.144C157.38 146.529 158.976 141.983 158.919 137.307C158.919 127.605 152.53 119.641 144.683 119.641C138.913 119.641 133.745 123.91 131.537 130.491C131.475 130.674 131.45 130.868 131.463 131.062C131.476 131.255 131.528 131.444 131.614 131.618C131.7 131.791 131.819 131.946 131.965 132.074C132.111 132.201 132.281 132.299 132.465 132.36C132.648 132.422 132.842 132.447 133.036 132.434C133.229 132.421 133.418 132.37 133.592 132.284C133.765 132.198 133.92 132.078 134.048 131.932C134.175 131.786 134.272 131.617 134.334 131.433C136.13 126.06 140.223 122.6 144.639 122.6C150.866 122.6 155.931 129.181 155.931 137.322C155.993 141.29 154.653 145.153 152.147 148.23C151.96 148.444 151.838 148.707 151.797 148.988C151.755 149.269 151.796 149.556 151.915 149.815C152.033 150.073 152.223 150.292 152.463 150.444C152.703 150.597 152.982 150.676 153.266 150.674L153.31 150.659Z" fill="white"/>
</g>
<path d="M120.937 149.172C121.09 149.952 121.462 150.673 122.009 151.25C122.556 151.826 123.256 152.236 124.026 152.431C124.797 152.625 125.607 152.597 126.363 152.349C127.118 152.101 127.787 151.644 128.292 151.03C128.798 150.416 129.118 149.672 129.217 148.883C129.316 148.094 129.188 147.294 128.849 146.574C128.51 145.855 127.974 145.247 127.303 144.821C126.632 144.395 125.854 144.168 125.059 144.167C123.853 144.294 122.744 144.889 121.973 145.826C121.202 146.762 120.83 147.964 120.937 149.172Z" fill="black"/>
<path d="M125.31 150.659C125.522 150.659 125.732 150.613 125.926 150.524C126.119 150.435 126.29 150.305 126.428 150.144C129.39 146.527 130.981 141.981 130.919 137.307C130.919 127.605 124.544 119.641 116.698 119.641C110.912 119.641 105.76 123.91 103.551 130.491C103.426 130.862 103.454 131.267 103.628 131.618C103.802 131.968 104.108 132.235 104.479 132.36C104.85 132.485 105.255 132.458 105.606 132.284C105.956 132.11 106.223 131.804 106.348 131.433C108.144 126.06 112.237 122.6 116.653 122.6C122.881 122.6 127.93 129.181 127.93 137.322C127.998 141.288 126.663 145.151 124.161 148.23C123.975 148.443 123.853 148.705 123.811 148.984C123.77 149.264 123.809 149.55 123.926 149.808C124.042 150.066 124.231 150.284 124.468 150.438C124.706 150.592 124.983 150.674 125.265 150.674L125.31 150.659Z" fill="black"/>
<g opacity="0.4">
<path d="M125.31 150.659C125.522 150.659 125.732 150.613 125.926 150.524C126.119 150.435 126.29 150.305 126.428 150.144C129.39 146.527 130.981 141.981 130.919 137.307C130.919 127.605 124.544 119.641 116.698 119.641C110.912 119.641 105.76 123.91 103.551 130.491C103.426 130.862 103.454 131.267 103.628 131.618C103.802 131.968 104.108 132.235 104.479 132.36C104.85 132.485 105.255 132.458 105.606 132.284C105.956 132.11 106.223 131.804 106.348 131.433C108.144 126.06 112.237 122.6 116.653 122.6C122.881 122.6 127.93 129.181 127.93 137.322C127.998 141.288 126.663 145.151 124.161 148.23C123.975 148.443 123.853 148.705 123.811 148.984C123.77 149.264 123.809 149.55 123.926 149.808C124.042 150.066 124.231 150.284 124.468 150.438C124.706 150.592 124.983 150.674 125.265 150.674L125.31 150.659Z" fill="white"/>
</g>
<path d="M92.9371 149.172C93.0879 149.957 93.4586 150.682 94.006 151.263C94.5534 151.845 95.2549 152.259 96.0286 152.457C96.8023 152.654 97.6163 152.628 98.3757 152.381C99.135 152.133 99.8084 151.675 100.317 151.06C100.826 150.444 101.149 149.697 101.249 148.904C101.349 148.112 101.221 147.307 100.881 146.585C100.541 145.862 100.003 145.251 99.3287 144.823C98.6545 144.395 97.8725 144.168 97.0739 144.167C95.8663 144.294 94.7567 144.889 93.9832 145.825C93.2097 146.761 92.8341 147.963 92.9371 149.172Z" fill="black"/>
<path d="M97.3242 150.659C97.5368 150.659 97.7469 150.613 97.9401 150.524C98.1332 150.435 98.3048 150.305 98.443 150.144C101.379 146.517 102.942 141.972 102.859 137.307C102.859 127.605 96.485 119.641 88.6385 119.641C82.853 119.641 77.7005 123.91 75.4922 130.491C75.4299 130.674 75.4044 130.869 75.4173 131.062C75.4302 131.256 75.4812 131.445 75.5674 131.618C75.6536 131.792 75.7733 131.947 75.9195 132.074C76.0658 132.202 76.2358 132.299 76.4197 132.36C76.6033 132.423 76.7975 132.448 76.991 132.435C77.1845 132.422 77.3735 132.371 77.5473 132.285C77.721 132.199 77.876 132.079 78.0033 131.933C78.1307 131.787 78.2279 131.617 78.2893 131.433C80.0853 126.06 84.1779 122.6 88.5943 122.6C94.8068 122.6 99.871 129.181 99.871 137.322C99.941 141.291 98.6003 145.156 96.0876 148.23C95.9 148.444 95.7782 148.707 95.737 148.988C95.6957 149.269 95.7367 149.556 95.855 149.815C95.9733 150.073 96.1638 150.292 96.4036 150.444C96.6434 150.597 96.9222 150.676 97.2064 150.674L97.3242 150.659Z" fill="black"/>
<g opacity="0.4">
<path d="M97.3242 150.659C97.5368 150.659 97.7469 150.613 97.9401 150.524C98.1332 150.435 98.3048 150.305 98.443 150.144C101.379 146.517 102.942 141.972 102.859 137.307C102.859 127.605 96.485 119.641 88.6385 119.641C82.853 119.641 77.7005 123.91 75.4922 130.491C75.4299 130.674 75.4044 130.869 75.4173 131.062C75.4302 131.256 75.4812 131.445 75.5674 131.618C75.6536 131.792 75.7733 131.947 75.9195 132.074C76.0658 132.202 76.2358 132.299 76.4197 132.36C76.6033 132.423 76.7975 132.448 76.991 132.435C77.1845 132.422 77.3735 132.371 77.5473 132.285C77.721 132.199 77.876 132.079 78.0033 131.933C78.1307 131.787 78.2279 131.617 78.2893 131.433C80.0853 126.06 84.1779 122.6 88.5943 122.6C94.8068 122.6 99.871 129.181 99.871 137.322C99.941 141.291 98.6003 145.156 96.0876 148.23C95.9 148.444 95.7782 148.707 95.737 148.988C95.6957 149.269 95.7367 149.556 95.855 149.815C95.9733 150.073 96.1638 150.292 96.4036 150.444C96.6434 150.597 96.9222 150.676 97.2064 150.674L97.3242 150.659Z" fill="white"/>
</g>
<path d="M64.9518 149.172C65.1026 149.957 65.4733 150.682 66.0207 151.263C66.5681 151.845 67.2696 152.259 68.0433 152.457C68.817 152.654 69.631 152.628 70.3903 152.381C71.1497 152.133 71.823 151.675 72.3318 151.06C72.8405 150.444 73.1637 149.697 73.2636 148.904C73.3636 148.112 73.2361 147.307 72.896 146.585C72.556 145.862 72.0175 145.251 71.3433 144.823C70.6691 144.395 69.8871 144.168 69.0885 144.167C67.881 144.294 66.7713 144.889 65.9979 145.825C65.2244 146.761 64.8488 147.963 64.9518 149.172Z" fill="black"/>
<path d="M69.3384 150.659C69.551 150.659 69.7611 150.613 69.9543 150.524C70.1474 150.435 70.319 150.305 70.4572 150.144C73.3927 146.517 74.9564 141.972 74.8736 137.307C74.8736 127.605 68.4845 119.641 60.6527 119.641C54.8672 119.641 49.7147 123.91 47.5065 130.491C47.429 130.677 47.3906 130.877 47.3937 131.079C47.3968 131.281 47.4414 131.479 47.5245 131.663C47.6077 131.847 47.7278 132.012 47.8773 132.147C48.0268 132.283 48.2025 132.386 48.3935 132.451C48.5846 132.515 48.7869 132.54 48.9879 132.523C49.1889 132.506 49.3844 132.449 49.5621 132.353C49.7398 132.258 49.896 132.127 50.021 131.969C50.146 131.81 50.2372 131.628 50.2888 131.433C52.0848 126.06 56.1774 122.6 60.5938 122.6C66.8063 122.6 71.8705 129.181 71.8705 137.322C71.9328 141.29 70.5931 145.153 68.087 148.23C67.8995 148.444 67.7777 148.707 67.7364 148.988C67.6952 149.269 67.7361 149.556 67.8544 149.815C67.9727 150.073 68.1633 150.292 68.4031 150.444C68.6429 150.597 68.9217 150.676 69.2059 150.674L69.3384 150.659Z" fill="black"/>
<g opacity="0.4">
<path d="M69.3384 150.659C69.551 150.659 69.7611 150.613 69.9543 150.524C70.1474 150.435 70.319 150.305 70.4572 150.144C73.3927 146.517 74.9564 141.972 74.8736 137.307C74.8736 127.605 68.4845 119.641 60.6527 119.641C54.8672 119.641 49.7147 123.91 47.5065 130.491C47.429 130.677 47.3906 130.877 47.3937 131.079C47.3968 131.281 47.4414 131.479 47.5245 131.663C47.6077 131.847 47.7278 132.012 47.8773 132.147C48.0268 132.283 48.2025 132.386 48.3935 132.451C48.5846 132.515 48.7869 132.54 48.9879 132.523C49.1889 132.506 49.3844 132.449 49.5621 132.353C49.7398 132.258 49.896 132.127 50.021 131.969C50.146 131.81 50.2372 131.628 50.2888 131.433C52.0848 126.06 56.1774 122.6 60.5938 122.6C66.8063 122.6 71.8705 129.181 71.8705 137.322C71.9328 141.29 70.5931 145.153 68.087 148.23C67.8995 148.444 67.7777 148.707 67.7364 148.988C67.6952 149.269 67.7361 149.556 67.8544 149.815C67.9727 150.073 68.1633 150.292 68.4031 150.444C68.6429 150.597 68.9217 150.676 69.2059 150.674L69.3384 150.659Z" fill="white"/>
</g>
<path d="M36.9668 149.172C36.9668 151.94 38.8217 154.178 41.0888 154.178C42.2553 153.958 43.3082 153.337 44.0658 152.423C44.8234 151.509 45.238 150.359 45.238 149.172C45.238 147.985 44.8234 146.836 44.0658 145.922C43.3082 145.008 42.2553 144.387 41.0888 144.167C38.8217 144.167 36.9668 146.375 36.9668 149.172Z" fill="black"/>
<path d="M41.3535 150.659C41.5662 150.659 41.7763 150.613 41.9694 150.524C42.1626 150.435 42.3341 150.305 42.4724 150.144C45.4023 146.514 46.9653 141.971 46.8888 137.307C46.8888 127.605 40.4997 119.641 32.6679 119.641C26.8823 119.641 21.7151 123.91 19.5216 130.491C19.4441 130.677 19.4058 130.877 19.4089 131.079C19.412 131.281 19.4565 131.479 19.5397 131.663C19.6229 131.847 19.7429 132.012 19.8924 132.147C20.0419 132.283 20.2176 132.386 20.4087 132.451C20.5997 132.515 20.802 132.54 21.0031 132.523C21.2041 132.506 21.3995 132.449 21.5772 132.353C21.7549 132.258 21.9112 132.127 22.0362 131.969C22.1612 131.81 22.2523 131.628 22.304 131.433C24.1 126.06 28.1925 122.6 32.609 122.6C38.8214 122.6 43.8856 129.181 43.8856 137.322C43.948 141.29 42.6082 145.153 40.1022 148.23C39.9734 148.376 39.8749 148.547 39.8126 148.732C39.7502 148.916 39.7251 149.112 39.7388 149.306C39.7525 149.501 39.8047 149.69 39.8923 149.865C39.98 150.039 40.1014 150.194 40.2494 150.321C40.4011 150.449 40.5771 150.544 40.7669 150.603C40.9566 150.661 41.1562 150.68 41.3535 150.659Z" fill="black"/>
<g opacity="0.4">
<path d="M41.3535 150.659C41.5662 150.659 41.7763 150.613 41.9694 150.524C42.1626 150.435 42.3341 150.305 42.4724 150.144C45.4023 146.514 46.9653 141.971 46.8888 137.307C46.8888 127.605 40.4997 119.641 32.6679 119.641C26.8823 119.641 21.7151 123.91 19.5216 130.491C19.4441 130.677 19.4058 130.877 19.4089 131.079C19.412 131.281 19.4565 131.479 19.5397 131.663C19.6229 131.847 19.7429 132.012 19.8924 132.147C20.0419 132.283 20.2176 132.386 20.4087 132.451C20.5997 132.515 20.802 132.54 21.0031 132.523C21.2041 132.506 21.3995 132.449 21.5772 132.353C21.7549 132.258 21.9112 132.127 22.0362 131.969C22.1612 131.81 22.2523 131.628 22.304 131.433C24.1 126.06 28.1925 122.6 32.609 122.6C38.8214 122.6 43.8856 129.181 43.8856 137.322C43.948 141.29 42.6082 145.153 40.1022 148.23C39.9734 148.376 39.8749 148.547 39.8126 148.732C39.7502 148.916 39.7251 149.112 39.7388 149.306C39.7525 149.501 39.8047 149.69 39.8923 149.865C39.98 150.039 40.1014 150.194 40.2494 150.321C40.4011 150.449 40.5771 150.544 40.7669 150.603C40.9566 150.661 41.1562 150.68 41.3535 150.659Z" fill="white"/>
</g>
<path d="M61.86 249.205H49.5234V270.242H61.86V249.205Z" fill="black"/>
<path d="M81.8371 233.894H69.5005V270.242H81.8371V233.894Z" fill="black"/>
<path d="M101.829 239.636H89.4922V270.242H101.829V239.636Z" fill="black"/>
<path d="M121.82 224.325H109.484V270.242H121.82V224.325Z" fill="black"/>
<path d="M141.798 209.015H129.461V270.242H141.798V209.015Z" fill="black"/>
<path d="M158.257 267.327H32.5796V273.156H158.257V267.327Z" fill="black"/>
<path d="M37.8787 253.533L35.1699 250.117L75.4773 218.039L95.4248 229.61L149.276 183.709L152.102 187.021L95.9107 234.94L75.8747 223.31L37.8787 253.533Z" fill="#018580"/>
<path d="M153.899 182.664L145.713 183.93L151.484 190.083L153.899 182.664Z" fill="#018580"/>
<g opacity="0.3">
<path d="M103.845 292.118H32.7261C32.3356 292.118 31.9612 291.963 31.6851 291.687C31.409 291.41 31.2539 291.036 31.2539 290.646C31.2539 290.255 31.409 289.881 31.6851 289.605C31.9612 289.329 32.3356 289.173 32.7261 289.173H103.845C104.236 289.173 104.61 289.329 104.886 289.605C105.162 289.881 105.318 290.255 105.318 290.646C105.318 291.036 105.162 291.41 104.886 291.687C104.61 291.963 104.236 292.118 103.845 292.118Z" fill="black"/>
</g>
<g opacity="0.3">
<path d="M158.786 305.234H42.8843C42.4938 305.234 42.1194 305.079 41.8433 304.803C41.5672 304.527 41.4121 304.153 41.4121 303.762C41.4121 303.372 41.5672 302.997 41.8433 302.721C42.1194 302.445 42.4938 302.29 42.8843 302.29H158.786C159.177 302.29 159.551 302.445 159.827 302.721C160.103 302.997 160.258 303.372 160.258 303.762C160.258 304.153 160.103 304.527 159.827 304.803C159.551 305.079 159.177 305.234 158.786 305.234Z" fill="black"/>
<path d="M158.904 312.61H32.7261C32.3356 312.61 31.9612 312.455 31.6851 312.179C31.409 311.903 31.2539 311.528 31.2539 311.138C31.2539 310.747 31.409 310.373 31.6851 310.097C31.9612 309.821 32.3356 309.666 32.7261 309.666H158.904C159.294 309.666 159.669 309.821 159.945 310.097C160.221 310.373 160.376 310.747 160.376 311.138C160.376 311.528 160.221 311.903 159.945 312.179C159.669 312.455 159.294 312.61 158.904 312.61Z" fill="black"/>
<path d="M159.11 319.985H32.8882C32.4977 319.985 32.1233 319.83 31.8472 319.554C31.5711 319.278 31.416 318.904 31.416 318.513C31.416 318.123 31.5711 317.748 31.8472 317.472C32.1233 317.196 32.4977 317.041 32.8882 317.041H159.11C159.5 317.041 159.875 317.196 160.151 317.472C160.427 317.748 160.582 318.123 160.582 318.513C160.582 318.904 160.427 319.278 160.151 319.554C159.875 319.83 159.5 319.985 159.11 319.985Z" fill="black"/>
<path d="M138.647 327.361H33.0503C32.6598 327.361 32.2854 327.206 32.0093 326.93C31.7332 326.654 31.5781 326.279 31.5781 325.889C31.5781 325.498 31.7332 325.124 32.0093 324.848C32.2854 324.572 32.6598 324.417 33.0503 324.417H138.647C139.038 324.417 139.412 324.572 139.688 324.848C139.964 325.124 140.119 325.498 140.119 325.889C140.119 326.279 139.964 326.654 139.688 326.93C139.412 327.206 139.038 327.361 138.647 327.361Z" fill="black"/>
</g>
<g opacity="0.3">
<path d="M158.786 340.595H42.8843C42.4938 340.595 42.1194 340.44 41.8433 340.164C41.5672 339.888 41.4121 339.514 41.4121 339.123C41.4121 338.733 41.5672 338.358 41.8433 338.082C42.1194 337.806 42.4938 337.651 42.8843 337.651H158.786C159.177 337.651 159.551 337.806 159.827 338.082C160.103 338.358 160.258 338.733 160.258 339.123C160.258 339.514 160.103 339.888 159.827 340.164C159.551 340.44 159.177 340.595 158.786 340.595Z" fill="black"/>
<path d="M158.904 347.971H32.7261C32.3356 347.971 31.9612 347.816 31.6851 347.54C31.409 347.264 31.2539 346.889 31.2539 346.499C31.2539 346.108 31.409 345.734 31.6851 345.458C31.9612 345.182 32.3356 345.027 32.7261 345.027H158.904C159.294 345.027 159.669 345.182 159.945 345.458C160.221 345.734 160.376 346.108 160.376 346.499C160.376 346.889 160.221 347.264 159.945 347.54C159.669 347.816 159.294 347.971 158.904 347.971Z" fill="black"/>
<path d="M159.11 355.42H32.8882C32.4977 355.42 32.1233 355.265 31.8472 354.989C31.5711 354.713 31.416 354.338 31.416 353.948C31.416 353.557 31.5711 353.183 31.8472 352.907C32.1233 352.631 32.4977 352.476 32.8882 352.476H159.11C159.5 352.476 159.875 352.631 160.151 352.907C160.427 353.183 160.582 353.557 160.582 353.948C160.582 354.338 160.427 354.713 160.151 354.989C159.875 355.265 159.5 355.42 159.11 355.42Z" fill="black"/>
<path d="M138.647 362.781H33.0503C32.6598 362.781 32.2854 362.625 32.0093 362.349C31.7332 362.073 31.5781 361.699 31.5781 361.308C31.5781 360.918 31.7332 360.544 32.0093 360.268C32.2854 359.991 32.6598 359.836 33.0503 359.836H138.647C139.038 359.836 139.412 359.991 139.688 360.268C139.964 360.544 140.119 360.918 140.119 361.308C140.119 361.699 139.964 362.073 139.688 362.349C139.412 362.625 139.038 362.781 138.647 362.781Z" fill="black"/>
</g>
<g opacity="0.3">
<path d="M103.845 169.812H32.7261C32.3356 169.812 31.9612 169.657 31.6851 169.381C31.409 169.105 31.2539 168.73 31.2539 168.34C31.2539 167.949 31.409 167.575 31.6851 167.299C31.9612 167.023 32.3356 166.868 32.7261 166.868H103.845C104.236 166.868 104.61 167.023 104.886 167.299C105.162 167.575 105.318 167.949 105.318 168.34C105.318 168.73 105.162 169.105 104.886 169.381C104.61 169.657 104.236 169.812 103.845 169.812Z" fill="#018580"/>
</g>
<path d="M326.154 25.0684H495.2C496.909 25.0684 498.294 26.4535 498.294 28.1621V307.428C498.294 309.136 496.909 310.521 495.2 310.521H326.154C324.446 310.521 323.061 309.136 323.061 307.428V28.1621C323.061 26.4535 324.446 25.0684 326.154 25.0684Z" stroke="black" stroke-width="4"/>
<path d="M363.297 21.6847H458.073C458.323 21.6847 458.563 21.784 458.74 21.9606C458.916 22.1373 459.016 22.377 459.016 22.6269V32.1075H362.34V22.6269C362.34 22.5019 362.365 22.3781 362.413 22.2629C362.461 22.1476 362.532 22.0431 362.621 21.9554C362.71 21.8677 362.816 21.7986 362.932 21.7521C363.048 21.7056 363.172 21.6827 363.297 21.6847Z" fill="black"/>
<path opacity="0.9" d="M493.213 32.1074H328.156V303.439H493.213V32.1074Z" fill="white"/>
<path d="M443.028 44.5912H414.012L413.673 43.5754C413.468 42.9464 413.069 42.3985 412.534 42.0099C411.999 41.6213 411.354 41.4121 410.692 41.4121C410.031 41.4121 409.386 41.6213 408.851 42.0099C408.315 42.3985 407.916 42.9464 407.711 43.5754L407.373 44.5912H378.327C377.201 44.5912 376.121 44.145 375.324 43.3503C374.527 42.5556 374.077 41.4772 374.073 40.3514V29.6636C374.081 28.539 374.532 27.4629 375.328 26.669C376.125 25.8751 377.203 25.4277 378.327 25.4238H443.102C444.225 25.4277 445.301 25.8757 446.095 26.6699C446.89 27.4642 447.338 28.5403 447.341 29.6636V40.3808C447.338 40.9414 447.223 41.4956 447.003 42.0114C446.784 42.5273 446.464 42.9945 446.063 43.386C445.662 43.7776 445.187 44.0857 444.666 44.2926C444.145 44.4994 443.589 44.6009 443.028 44.5912ZM416.029 41.6469H443.028C443.199 41.6489 443.368 41.6167 443.526 41.5523C443.684 41.4879 443.828 41.3925 443.948 41.2718C444.069 41.1511 444.165 41.0075 444.229 40.8495C444.293 40.6914 444.326 40.5221 444.324 40.3514V29.6636C444.324 29.32 444.187 28.9905 443.944 28.7476C443.701 28.5046 443.372 28.3681 443.028 28.3681H378.254C378.082 28.3662 377.912 28.3983 377.753 28.4625C377.594 28.5267 377.45 28.6218 377.328 28.7423C377.206 28.8628 377.109 29.0063 377.043 29.1644C376.977 29.3226 376.943 29.4922 376.943 29.6636V40.3808C376.943 40.5522 376.977 40.7219 377.043 40.88C377.109 41.0382 377.206 41.1816 377.328 41.3021C377.45 41.4226 377.594 41.5177 377.753 41.582C377.912 41.6462 378.082 41.6783 378.254 41.6763H405.341C405.862 40.7107 406.634 39.904 407.576 39.3417C408.519 38.7794 409.595 38.4825 410.692 38.4825C411.79 38.4825 412.866 38.7794 413.808 39.3417C414.75 39.904 415.523 40.7107 416.044 41.6763L416.029 41.6469Z" fill="black"/>
<g opacity="0.5">
<path d="M443.028 44.5912H414.012L413.673 43.5754C413.468 42.9464 413.069 42.3985 412.534 42.0099C411.999 41.6213 411.354 41.4121 410.692 41.4121C410.031 41.4121 409.386 41.6213 408.851 42.0099C408.315 42.3985 407.916 42.9464 407.711 43.5754L407.373 44.5912H378.327C377.201 44.5912 376.121 44.145 375.324 43.3503C374.527 42.5556 374.077 41.4772 374.073 40.3514V29.6636C374.081 28.539 374.532 27.4629 375.328 26.669C376.125 25.8751 377.203 25.4277 378.327 25.4238H443.102C444.225 25.4277 445.301 25.8757 446.095 26.6699C446.89 27.4642 447.338 28.5403 447.341 29.6636V40.3808C447.338 40.9414 447.223 41.4956 447.003 42.0114C446.784 42.5273 446.464 42.9945 446.063 43.386C445.662 43.7776 445.187 44.0857 444.666 44.2926C444.145 44.4994 443.589 44.6009 443.028 44.5912ZM416.029 41.6469H443.028C443.199 41.6489 443.368 41.6167 443.526 41.5523C443.684 41.4879 443.828 41.3925 443.948 41.2718C444.069 41.1511 444.165 41.0075 444.229 40.8495C444.293 40.6914 444.326 40.5221 444.324 40.3514V29.6636C444.324 29.32 444.187 28.9905 443.944 28.7476C443.701 28.5046 443.372 28.3681 443.028 28.3681H378.254C378.082 28.3662 377.912 28.3983 377.753 28.4625C377.594 28.5267 377.45 28.6218 377.328 28.7423C377.206 28.8628 377.109 29.0063 377.043 29.1644C376.977 29.3226 376.943 29.4922 376.943 29.6636V40.3808C376.943 40.5522 376.977 40.7219 377.043 40.88C377.109 41.0382 377.206 41.1816 377.328 41.3021C377.45 41.4226 377.594 41.5177 377.753 41.582C377.912 41.6462 378.082 41.6783 378.254 41.6763H405.341C405.862 40.7107 406.634 39.904 407.576 39.3417C408.519 38.7794 409.595 38.4825 410.692 38.4825C411.79 38.4825 412.866 38.7794 413.808 39.3417C414.75 39.904 415.523 40.7107 416.044 41.6763L416.029 41.6469Z" fill="white"/>
</g>
<path d="M438.494 23.7161H382.876C382.071 23.7161 381.419 24.3686 381.419 25.1735V28.6625C381.419 29.4674 382.071 30.1199 382.876 30.1199H438.494C439.299 30.1199 439.951 29.4674 439.951 28.6625V25.1735C439.951 24.3686 439.299 23.7161 438.494 23.7161Z" fill="black"/>
<path opacity="0.2" d="M438.494 23.7161H382.876C382.071 23.7161 381.419 24.3686 381.419 25.1735V28.6625C381.419 29.4674 382.071 30.1199 382.876 30.1199H438.494C439.299 30.1199 439.951 29.4674 439.951 28.6625V25.1735C439.951 24.3686 439.299 23.7161 438.494 23.7161Z" fill="white"/>
<path d="M480.305 259.416C484.279 242.577 473.85 225.705 457.011 221.73C440.172 217.756 423.3 228.185 419.326 245.024C415.351 261.863 425.78 278.735 442.619 282.71C459.458 286.684 476.33 276.255 480.305 259.416Z" fill="#018580"/>
<path opacity="0.3" d="M449.829 252.252H481.156C481.156 258.448 479.319 264.505 475.877 269.657C472.435 274.808 467.542 278.824 461.818 281.195C456.093 283.566 449.794 284.186 443.718 282.977C437.641 281.769 432.059 278.785 427.677 274.404C423.296 270.023 420.313 264.441 419.104 258.364C417.895 252.287 418.516 245.988 420.887 240.264C423.258 234.539 427.273 229.647 432.425 226.204C437.576 222.762 443.633 220.925 449.829 220.925H449.947L449.829 252.252Z" fill="white"/>
<path opacity="0.3" d="M449.829 252.252L466.729 278.618C462.632 281.247 457.979 282.885 453.138 283.402C448.298 283.919 443.404 283.301 438.844 281.597C434.284 279.892 430.184 277.149 426.869 273.584C423.554 270.019 421.116 265.73 419.747 261.059C418.379 256.387 418.118 251.461 418.985 246.671C419.852 241.88 421.824 237.358 424.744 233.463C427.663 229.568 431.451 226.407 435.805 224.23C440.159 222.054 444.961 220.922 449.829 220.925H449.932L449.829 252.252Z" fill="white"/>
<path opacity="0.3" d="M449.83 252.252L423.419 269.093C420.4 264.358 418.71 258.899 418.524 253.286C418.339 247.674 419.666 242.115 422.365 237.191C425.065 232.267 429.039 228.159 433.87 225.298C438.702 222.436 444.214 220.926 449.83 220.925H449.933L449.83 252.252Z" fill="white"/>
<g opacity="0.5">
<path d="M340.051 80.703V154.634H481.377V80.703H340.051ZM480.214 92.2446H455.761V81.8071H480.214V92.2446ZM402.116 92.2446H376.943V81.8071H402.116V92.2446ZM403.221 81.8071H428.38V92.2446H403.279L403.221 81.8071ZM402.116 93.3487V153.53H376.943V93.3782L402.116 93.3487ZM403.221 93.3487H428.38V153.53H403.279L403.221 93.3487ZM429.484 93.3487H454.657V153.53H429.484V93.3487ZM429.484 92.2446V81.8071H454.657V92.2446H429.484ZM375.839 81.8071V92.2446H341.155V81.8071H375.839ZM341.155 93.3782H375.839V153.559H341.155V93.3782ZM455.761 153.559V93.3782H480.214V153.559H455.761Z" fill="black"/>
<path d="M384.966 103.683H395.153C395.544 103.683 395.918 103.528 396.194 103.252C396.47 102.976 396.625 102.601 396.625 102.211C396.625 101.821 396.47 101.446 396.194 101.17C395.918 100.894 395.544 100.739 395.153 100.739H384.966C384.575 100.739 384.201 100.894 383.925 101.17C383.649 101.446 383.494 101.821 383.494 102.211C383.494 102.601 383.649 102.976 383.925 103.252C384.201 103.528 384.575 103.683 384.966 103.683Z" fill="black"/>
<path d="M410.641 117.035H421.697C422.087 117.035 422.462 116.88 422.738 116.604C423.014 116.328 423.169 115.954 423.169 115.563C423.169 115.173 423.014 114.798 422.738 114.522C422.462 114.246 422.087 114.091 421.697 114.091H410.641C410.251 114.091 409.876 114.246 409.6 114.522C409.324 114.798 409.169 115.173 409.169 115.563C409.169 115.954 409.324 116.328 409.6 116.604C409.876 116.88 410.251 117.035 410.641 117.035Z" fill="black"/>
<path d="M422.227 140.811H410.641C410.251 140.811 409.876 140.966 409.6 141.242C409.324 141.518 409.169 141.892 409.169 142.283C409.169 142.673 409.324 143.048 409.6 143.324C409.876 143.6 410.251 143.755 410.641 143.755H422.183C422.573 143.755 422.948 143.6 423.224 143.324C423.5 143.048 423.655 142.673 423.655 142.283C423.655 141.892 423.5 141.518 423.224 141.242C422.948 140.966 422.573 140.811 422.183 140.811H422.227Z" fill="black"/>
<path d="M447.842 127.444H435.667C435.277 127.444 434.902 127.599 434.626 127.875C434.35 128.151 434.195 128.525 434.195 128.916C434.195 129.306 434.35 129.681 434.626 129.957C434.902 130.233 435.277 130.388 435.667 130.388H447.871C448.262 130.388 448.636 130.233 448.912 129.957C449.188 129.681 449.343 129.306 449.343 128.916C449.343 128.525 449.188 128.151 448.912 127.875C448.636 127.599 448.262 127.444 447.871 127.444H447.842Z" fill="black"/>
<path d="M474.178 100.739H461.812C461.422 100.739 461.047 100.894 460.771 101.17C460.495 101.446 460.34 101.821 460.34 102.211C460.34 102.601 460.495 102.976 460.771 103.252C461.047 103.528 461.422 103.683 461.812 103.683H474.178C474.568 103.683 474.943 103.528 475.219 103.252C475.495 102.976 475.65 102.601 475.65 102.211C475.65 101.821 475.495 101.446 475.219 101.17C474.943 100.894 474.568 100.739 474.178 100.739Z" fill="black"/>
<path d="M472.588 140.811H461.812C461.422 140.811 461.047 140.966 460.771 141.242C460.495 141.518 460.34 141.892 460.34 142.283C460.34 142.673 460.495 143.048 460.771 143.324C461.047 143.6 461.422 143.755 461.812 143.755H472.588C472.978 143.755 473.353 143.6 473.629 143.324C473.905 143.048 474.06 142.673 474.06 142.283C474.06 141.892 473.905 141.518 473.629 141.242C473.353 140.966 472.978 140.811 472.588 140.811Z" fill="black"/>
<path d="M384.966 130.388H393.696C394.086 130.388 394.461 130.233 394.737 129.957C395.013 129.681 395.168 129.306 395.168 128.916C395.168 128.525 395.013 128.151 394.737 127.875C394.461 127.599 394.086 127.444 393.696 127.444H384.966C384.575 127.444 384.201 127.599 383.925 127.875C383.649 128.151 383.494 128.525 383.494 128.916C383.494 129.306 383.649 129.681 383.925 129.957C384.201 130.233 384.575 130.388 384.966 130.388Z" fill="black"/>
<path d="M395.153 140.811H384.966C384.575 140.811 384.201 140.966 383.925 141.242C383.649 141.518 383.494 141.892 383.494 142.283C383.494 142.673 383.649 143.048 383.925 143.324C384.201 143.6 384.575 143.755 384.966 143.755H395.153C395.544 143.755 395.918 143.6 396.194 143.324C396.47 143.048 396.625 142.673 396.625 142.283C396.625 141.892 396.47 141.518 396.194 141.242C395.918 140.966 395.544 140.811 395.153 140.811Z" fill="black"/>
<path d="M346.469 103.683H369.759C370.149 103.683 370.523 103.528 370.8 103.252C371.076 102.976 371.231 102.601 371.231 102.211C371.231 101.821 371.076 101.446 370.8 101.17C370.523 100.894 370.149 100.739 369.759 100.739H346.469C346.079 100.739 345.704 100.894 345.428 101.17C345.152 101.446 344.997 101.821 344.997 102.211C344.997 102.601 345.152 102.976 345.428 103.252C345.704 103.528 346.079 103.683 346.469 103.683Z" fill="black"/>
<path d="M346.469 117.035H361.971C362.361 117.035 362.736 116.88 363.012 116.604C363.288 116.328 363.443 115.954 363.443 115.563C363.443 115.173 363.288 114.798 363.012 114.522C362.736 114.246 362.361 114.091 361.971 114.091H346.469C346.079 114.091 345.704 114.246 345.428 114.522C345.152 114.798 344.997 115.173 344.997 115.563C344.997 115.954 345.152 116.328 345.428 116.604C345.704 116.88 346.079 117.035 346.469 117.035Z" fill="black"/>
<path d="M369.759 127.444H346.469C346.079 127.444 345.704 127.599 345.428 127.875C345.152 128.151 344.997 128.525 344.997 128.916C344.997 129.306 345.152 129.681 345.428 129.957C345.704 130.233 346.079 130.388 346.469 130.388H369.759C370.149 130.388 370.523 130.233 370.8 129.957C371.076 129.681 371.231 129.306 371.231 128.916C371.231 128.525 371.076 128.151 370.8 127.875C370.523 127.599 370.149 127.444 369.759 127.444Z" fill="black"/>
<path d="M358.114 140.811H346.469C346.079 140.811 345.704 140.966 345.428 141.242C345.152 141.518 344.997 141.892 344.997 142.283C344.997 142.673 345.152 143.048 345.428 143.324C345.704 143.6 346.079 143.755 346.469 143.755H358.114C358.504 143.755 358.879 143.6 359.155 143.324C359.431 143.048 359.586 142.673 359.586 142.283C359.586 141.892 359.431 141.518 359.155 141.242C358.879 140.966 358.504 140.811 358.114 140.811Z" fill="black"/>
</g>
<g opacity="0.5">
<path d="M396.64 65.2011H341.523C341.132 65.2011 340.758 65.046 340.482 64.7699C340.206 64.4939 340.051 64.1194 340.051 63.729C340.051 63.3385 340.206 62.9641 340.482 62.688C340.758 62.4119 341.132 62.2568 341.523 62.2568H396.64C397.03 62.2568 397.405 62.4119 397.681 62.688C397.957 62.9641 398.112 63.3385 398.112 63.729C398.112 64.1194 397.957 64.4939 397.681 64.7699C397.405 65.046 397.03 65.2011 396.64 65.2011Z" fill="black"/>
</g>
<g opacity="0.5">
<path d="M377.311 73.4599H341.523C341.132 73.4599 340.758 73.3048 340.482 73.0287C340.206 72.7527 340.051 72.3782 340.051 71.9878C340.051 71.5973 340.206 71.2229 340.482 70.9468C340.758 70.6707 341.132 70.5156 341.523 70.5156H377.311C377.701 70.5156 378.076 70.6707 378.352 70.9468C378.628 71.2229 378.783 71.5973 378.783 71.9878C378.783 72.3782 378.628 72.7527 378.352 73.0287C378.076 73.3048 377.701 73.4599 377.311 73.4599Z" fill="black"/>
</g>
<g opacity="0.5">
<path d="M412.642 167.398H341.523C341.132 167.398 340.758 167.243 340.482 166.966C340.206 166.69 340.051 166.316 340.051 165.925C340.051 165.535 340.206 165.161 340.482 164.885C340.758 164.608 341.132 164.453 341.523 164.453H412.642C413.033 164.453 413.407 164.608 413.683 164.885C413.959 165.161 414.114 165.535 414.114 165.925C414.114 166.316 413.959 166.69 413.683 166.966C413.407 167.243 413.033 167.398 412.642 167.398Z" fill="black"/>
</g>
<path d="M348.839 225.753H340.051V234.542H348.839V225.753Z" fill="#018580"/>
<g opacity="0.5">
<path d="M398.863 231.627H355.229C354.839 231.627 354.464 231.472 354.188 231.196C353.912 230.92 353.757 230.546 353.757 230.155C353.757 229.765 353.912 229.39 354.188 229.114C354.464 228.838 354.839 228.683 355.229 228.683H398.863C399.254 228.683 399.628 228.838 399.904 229.114C400.18 229.39 400.336 229.765 400.336 230.155C400.336 230.546 400.18 230.92 399.904 231.196C399.628 231.472 399.254 231.627 398.863 231.627Z" fill="black"/>
</g>
<path d="M348.839 240.49H340.051V249.278H348.839V240.49Z" fill="#018580"/>
<g opacity="0.5">
<path d="M398.863 246.349H355.229C354.839 246.349 354.464 246.194 354.188 245.918C353.912 245.641 353.757 245.267 353.757 244.877C353.757 244.486 353.912 244.112 354.188 243.836C354.464 243.56 354.839 243.404 355.229 243.404H398.863C399.254 243.404 399.628 243.56 399.904 243.836C400.18 244.112 400.336 244.486 400.336 244.877C400.336 245.267 400.18 245.641 399.904 245.918C399.628 246.194 399.254 246.349 398.863 246.349Z" fill="black"/>
</g>
<path d="M348.839 255.211H340.051V264H348.839V255.211Z" fill="#018580"/>
<g opacity="0.5">
<path d="M398.863 261.085H355.229C354.839 261.085 354.464 260.93 354.188 260.654C353.912 260.378 353.757 260.003 353.757 259.613C353.757 259.222 353.912 258.848 354.188 258.572C354.464 258.296 354.839 258.141 355.229 258.141H398.863C399.254 258.141 399.628 258.296 399.904 258.572C400.18 258.848 400.336 259.222 400.336 259.613C400.336 260.003 400.18 260.378 399.904 260.654C399.628 260.93 399.254 261.085 398.863 261.085Z" fill="black"/>
</g>
<path d="M348.839 269.947H340.051V278.736H348.839V269.947Z" fill="#018580"/>
<g opacity="0.5">
<path d="M398.863 275.821H355.229C354.839 275.821 354.464 275.666 354.188 275.39C353.912 275.114 353.757 274.739 353.757 274.349C353.757 273.958 353.912 273.584 354.188 273.308C354.464 273.032 354.839 272.877 355.229 272.877H398.863C399.254 272.877 399.628 273.032 399.904 273.308C400.18 273.584 400.336 273.958 400.336 274.349C400.336 274.739 400.18 275.114 399.904 275.39C399.628 275.666 399.254 275.821 398.863 275.821Z" fill="black"/>
</g>
<g opacity="0.5">
<path d="M479.36 180.558H351.666C351.276 180.558 350.902 180.403 350.625 180.127C350.349 179.851 350.194 179.477 350.194 179.086C350.194 178.696 350.349 178.321 350.625 178.045C350.902 177.769 351.276 177.614 351.666 177.614H479.36C479.751 177.614 480.125 177.769 480.401 178.045C480.677 178.321 480.833 178.696 480.833 179.086C480.833 179.477 480.677 179.851 480.401 180.127C480.125 180.403 479.751 180.558 479.36 180.558Z" fill="black"/>
<path d="M479.522 187.934H341.523C341.132 187.934 340.758 187.779 340.482 187.503C340.206 187.227 340.051 186.852 340.051 186.462C340.051 186.071 340.206 185.697 340.482 185.421C340.758 185.145 341.132 184.99 341.523 184.99H479.522C479.912 184.99 480.287 185.145 480.563 185.421C480.839 185.697 480.994 186.071 480.994 186.462C480.994 186.852 480.839 187.227 480.563 187.503C480.287 187.779 479.912 187.934 479.522 187.934Z" fill="black"/>
<path d="M479.684 195.309H341.685C341.295 195.309 340.92 195.154 340.644 194.878C340.368 194.602 340.213 194.228 340.213 193.837C340.213 193.447 340.368 193.072 340.644 192.796C340.92 192.52 341.295 192.365 341.685 192.365H479.684C480.074 192.365 480.449 192.52 480.725 192.796C481.001 193.072 481.156 193.447 481.156 193.837C481.156 194.228 481.001 194.602 480.725 194.878C480.449 195.154 480.074 195.309 479.684 195.309Z" fill="black"/>
<path d="M459.222 202.685H341.848C341.457 202.685 341.083 202.53 340.807 202.254C340.531 201.978 340.375 201.603 340.375 201.213C340.375 200.822 340.531 200.448 340.807 200.172C341.083 199.896 341.457 199.741 341.848 199.741H459.222C459.612 199.741 459.987 199.896 460.263 200.172C460.539 200.448 460.694 200.822 460.694 201.213C460.694 201.603 460.539 201.978 460.263 202.254C459.987 202.53 459.612 202.685 459.222 202.685Z" fill="black"/>
</g>
<path d="M176.953 8.32752e-06H219.262C222.714 8.32752e-06 226.024 1.37109 228.464 3.81165C230.905 6.2522 232.276 9.5623 232.276 13.0138V49.8174C232.276 53.2689 230.905 56.579 228.464 59.0195C226.024 61.4601 222.714 62.8312 219.262 62.8312H206.896L211.313 78.8775L198.063 62.8312H176.953C175.243 62.8331 173.549 62.4979 171.968 61.8448C170.388 61.1916 168.951 60.2334 167.741 59.0247C166.531 57.8161 165.571 56.3808 164.916 54.8009C164.261 53.2211 163.924 51.5276 163.924 49.8174V13.0138C163.924 11.3035 164.261 9.61007 164.916 8.03021C165.571 6.45034 166.531 5.01507 167.741 3.80644C168.951 2.5978 170.388 1.63952 171.968 0.986388C173.549 0.333251 175.243 -0.00192632 176.953 8.32752e-06Z" fill="#018580"/>
<path opacity="0.7" d="M191.703 39.4388C198.98 39.4388 204.879 33.5398 204.879 26.2631C204.879 18.9864 198.98 13.0874 191.703 13.0874C184.426 13.0874 178.527 18.9864 178.527 26.2631C178.527 33.5398 184.426 39.4388 191.703 39.4388Z" fill="white"/>
<path d="M191.704 41.3378C188.217 41.3349 184.839 40.1232 182.145 37.9092C179.451 35.6951 177.608 32.6156 176.93 29.1952C176.251 25.7748 176.78 22.225 178.425 19.1505C180.07 16.076 182.73 13.6669 185.953 12.3337C189.175 11.0004 192.759 10.8254 196.096 11.8384C199.432 12.8514 202.315 14.9899 204.252 17.8895C206.189 20.7891 207.06 24.2705 206.719 27.7407C206.377 31.211 204.842 34.4554 202.377 36.9213C200.977 38.3243 199.313 39.4367 197.481 40.1946C195.65 40.9525 193.686 41.341 191.704 41.3378ZM191.704 15.0011C189.098 15.0015 186.574 15.9053 184.56 17.5586C182.546 19.2118 181.168 21.5121 180.66 24.0676C180.152 26.6231 180.546 29.2757 181.774 31.5733C183.003 33.8709 184.99 35.6715 187.398 36.6683C189.805 37.665 192.483 37.7962 194.976 37.0395C197.47 36.2829 199.623 34.6851 201.071 32.5186C202.518 30.352 203.169 27.7507 202.913 25.1578C202.658 22.5649 201.511 20.1408 199.668 18.2987C198.625 17.2491 197.384 16.417 196.017 15.851C194.65 15.2849 193.184 14.996 191.704 15.0011Z" fill="white"/>
<path d="M202.381 34.2274L199.674 36.934L214.695 51.9551L217.402 49.2486L202.381 34.2274Z" fill="white"/>
<path d="M217.657 55.1023C216.897 55.0954 216.169 54.7947 215.626 54.2632L204.158 42.7952C203.871 42.534 203.641 42.2175 203.48 41.8647C203.319 41.5119 203.231 41.1303 203.222 40.7427C203.213 40.3551 203.282 39.9696 203.426 39.6095C203.569 39.2495 203.785 38.9222 204.058 38.6476C204.332 38.3729 204.658 38.1566 205.018 38.0115C205.378 37.8665 205.763 37.7958 206.15 37.8037C206.538 37.8116 206.92 37.8979 207.273 38.0575C207.627 38.217 207.944 38.4465 208.206 38.7321L219.689 50.2148C220.086 50.617 220.356 51.1276 220.464 51.6824C220.572 52.2372 220.514 52.8116 220.297 53.3335C220.08 53.8555 219.714 54.3017 219.244 54.6164C218.775 54.9311 218.223 55.1001 217.657 55.1023Z" fill="white"/>
<path d="M193.749 20.3009C193.749 20.8832 193.577 21.4524 193.253 21.9366C192.93 22.4208 192.47 22.7982 191.932 23.021C191.394 23.2439 190.802 23.3022 190.231 23.1886C189.66 23.075 189.135 22.7946 188.723 22.3828C188.311 21.971 188.031 21.4464 187.917 20.8753C187.804 20.3041 187.862 19.7121 188.085 19.1741C188.308 18.6361 188.685 18.1763 189.169 17.8528C189.654 17.5293 190.223 17.3566 190.805 17.3566C191.586 17.3566 192.335 17.6668 192.887 18.2189C193.439 18.7711 193.749 19.52 193.749 20.3009Z" fill="white"/>
<path d="M198.122 22.4502C198.122 22.7413 198.036 23.0259 197.874 23.268C197.712 23.5101 197.482 23.6988 197.213 23.8102C196.944 23.9217 196.648 23.9508 196.363 23.894C196.077 23.8372 195.815 23.697 195.609 23.4911C195.403 23.2852 195.263 23.0229 195.206 22.7374C195.149 22.4518 195.178 22.1558 195.29 21.8868C195.401 21.6178 195.59 21.3879 195.832 21.2261C196.074 21.0643 196.359 20.978 196.65 20.978C197.04 20.978 197.415 21.1331 197.691 21.4092C197.967 21.6853 198.122 22.0597 198.122 22.4502Z" fill="white"/>
<path d="M316.099 270.713H96.8379V306H316.099V270.713Z" fill="white"/>
<path opacity="0.8" d="M316.099 270.713H96.8379V306H316.099V270.713Z" fill="white"/>
<path opacity="0.2" d="M316.1 280.046V277.175L165.985 278.368L316.1 280.046Z" fill="black"/>
<path opacity="0.2" d="M316.1 292.412V290.189L248.705 292.603L316.1 292.412Z" fill="black"/>
<path opacity="0.2" d="M316.1 300.686V297.815L207.441 299.478L316.1 300.686Z" fill="black"/>
<path opacity="0.2" d="M145.861 270.713L142.71 297.02L146.464 293.016C147.726 297.818 150.084 302.263 153.354 306C155.699 302.928 157.565 299.518 158.889 295.886L261.292 294.709L159.861 292.486C160.176 291.034 160.339 289.554 160.347 288.069C160.341 286.839 160.223 285.612 159.993 284.404L310.241 284.021L159.64 282.843C159.11 280.861 158.37 278.941 157.432 277.116C159.598 275.206 162.39 274.158 165.278 274.172H316.1V270.713H145.861Z" fill="black"/>
<path d="M149.247 288.158C149.259 292.388 150.946 296.44 153.94 299.429C156.934 302.417 160.99 304.097 165.22 304.101H318.632C318.787 304.101 318.94 304.131 319.083 304.191C319.226 304.25 319.355 304.337 319.465 304.446C319.574 304.555 319.661 304.685 319.72 304.828C319.779 304.971 319.81 305.124 319.81 305.279V306.545C319.81 306.857 319.686 307.157 319.465 307.377C319.244 307.598 318.944 307.722 318.632 307.722H92.0099C89.425 307.723 86.8657 307.211 84.4795 306.217C82.0934 305.223 79.9278 303.766 78.1075 301.931C76.2872 300.095 74.8484 297.918 73.874 295.523C72.8996 293.129 72.409 290.566 72.4304 287.981C72.5577 282.756 74.735 277.791 78.492 274.158C82.249 270.525 87.2843 268.515 92.5104 268.563H318.632C318.944 268.563 319.244 268.687 319.465 268.908C319.686 269.129 319.81 269.429 319.81 269.741V270.992C319.81 271.305 319.686 271.604 319.465 271.825C319.244 272.046 318.944 272.17 318.632 272.17H165.691C161.405 272.161 157.286 273.828 154.213 276.816C151.141 279.803 149.358 283.874 149.247 288.158Z" fill="black"/>
<path d="M149.247 288.158C149.259 292.388 150.946 296.441 153.94 299.429C156.934 302.417 160.99 304.097 165.22 304.101H318.632C318.787 304.101 318.94 304.131 319.083 304.191C319.226 304.25 319.355 304.337 319.465 304.446C319.574 304.555 319.661 304.685 319.72 304.828C319.779 304.971 319.81 305.124 319.81 305.279V306.545C319.81 306.857 319.686 307.157 319.465 307.378C319.244 307.598 318.944 307.722 318.632 307.722H164.336C161.751 307.721 159.192 307.208 156.806 306.213C154.42 305.218 152.254 303.762 150.433 301.927C148.612 300.092 147.172 297.916 146.195 295.522C145.218 293.129 144.725 290.566 144.742 287.981C144.877 282.764 147.053 277.808 150.802 274.177C154.551 270.546 159.574 268.531 164.793 268.563H318.632C318.944 268.563 319.244 268.687 319.465 268.908C319.686 269.129 319.81 269.429 319.81 269.741V270.992C319.81 271.305 319.686 271.604 319.465 271.825C319.244 272.046 318.944 272.17 318.632 272.17H165.691C161.405 272.161 157.286 273.828 154.213 276.816C151.141 279.803 149.358 283.874 149.247 288.158Z" fill="#6A6A6A"/>
<path d="M178.131 278.648V292.795L183.254 287.672L188.215 292.633V278.648H178.131Z" fill="#018580"/>
<path d="M326.684 348.471H107.423V383.759H326.684V348.471Z" fill="white"/>
<path opacity="0.7" d="M326.684 348.471H107.423V383.759H326.684V348.471Z" fill="white"/>
<path opacity="0.2" d="M326.684 357.79V354.919L176.57 356.127L326.684 357.79Z" fill="black"/>
<path opacity="0.2" d="M326.684 370.156V367.948L259.29 370.348L326.684 370.156Z" fill="black"/>
<path opacity="0.2" d="M326.685 378.43V375.574L218.026 377.222L326.685 378.43Z" fill="black"/>
<path opacity="0.2" d="M156.445 348.471L153.265 374.779L157.019 370.774C158.295 375.575 160.657 380.017 163.923 383.759C166.258 380.677 168.119 377.263 169.444 373.63L271.846 372.453L170.416 370.244C170.734 368.793 170.901 367.313 170.916 365.828C170.906 364.597 170.783 363.37 170.548 362.162L320.839 361.824L170.224 360.646C169.694 358.669 168.954 356.754 168.016 354.934C170.171 352.997 172.965 351.923 175.863 351.916H326.728V348.471H156.445Z" fill="black"/>
<path d="M159.832 365.902C159.824 368.003 160.232 370.086 161.031 372.03C161.83 373.974 163.006 375.741 164.49 377.229C165.974 378.717 167.738 379.898 169.68 380.702C171.621 381.507 173.703 381.92 175.805 381.918H329.217C329.529 381.918 329.829 382.043 330.05 382.263C330.27 382.484 330.395 382.784 330.395 383.096V384.362C330.395 384.675 330.27 384.974 330.05 385.195C329.829 385.416 329.529 385.54 329.217 385.54H90.5379C87.9553 385.536 85.399 385.022 83.0156 384.028C80.6322 383.033 78.4688 381.578 76.6495 379.745C74.8302 377.912 73.3909 375.737 72.4143 373.347C71.4376 370.956 70.9428 368.396 70.9584 365.813C71.0819 360.582 73.2591 355.609 77.0193 351.97C80.7795 348.331 85.8206 346.318 91.0531 346.366H329.217C329.529 346.366 329.829 346.49 330.05 346.711C330.27 346.932 330.395 347.232 330.395 347.544V348.81C330.395 349.122 330.27 349.422 330.05 349.643C329.829 349.864 329.529 349.988 329.217 349.988H176.276C172.003 349.978 167.894 351.635 164.823 354.607C161.753 357.578 159.962 361.63 159.832 365.902Z" fill="black"/>
<path d="M159.831 365.902C159.824 368.003 160.231 370.086 161.031 372.03C161.83 373.974 163.006 375.741 164.49 377.229C165.974 378.717 167.737 379.898 169.679 380.702C171.621 381.507 173.702 381.92 175.804 381.918H329.216C329.529 381.918 329.828 382.043 330.049 382.263C330.27 382.484 330.394 382.784 330.394 383.096V384.362C330.394 384.675 330.27 384.974 330.049 385.195C329.828 385.416 329.529 385.54 329.216 385.54H174.921C172.337 385.54 169.779 385.029 167.394 384.036C165.009 383.042 162.844 381.587 161.024 379.753C159.204 377.92 157.765 375.744 156.789 373.351C155.814 370.959 155.322 368.397 155.341 365.813C155.461 360.583 157.635 355.611 161.393 351.971C165.151 348.332 170.19 346.318 175.421 346.366H329.216C329.529 346.366 329.828 346.49 330.049 346.711C330.27 346.932 330.394 347.232 330.394 347.544V348.81C330.394 349.122 330.27 349.422 330.049 349.643C329.828 349.864 329.529 349.988 329.216 349.988H176.275C172.002 349.978 167.894 351.635 164.823 354.607C161.752 357.578 159.962 361.63 159.831 365.902Z" fill="black"/>
<path d="M176.57 361.426V375.574L181.678 370.451L186.639 375.412V361.426H176.57Z" fill="#018580"/>
<path opacity="0.4" d="M159.831 365.902C159.824 368.003 160.231 370.086 161.031 372.03C161.83 373.974 163.006 375.741 164.49 377.229C165.974 378.717 167.737 379.898 169.679 380.702C171.621 381.507 173.702 381.92 175.804 381.918H329.216C329.529 381.918 329.828 382.043 330.049 382.263C330.27 382.484 330.394 382.784 330.394 383.096V384.362C330.394 384.675 330.27 384.974 330.049 385.195C329.828 385.416 329.529 385.54 329.216 385.54H174.921C172.337 385.54 169.779 385.029 167.394 384.036C165.009 383.042 162.844 381.587 161.024 379.753C159.204 377.92 157.765 375.744 156.789 373.351C155.814 370.959 155.322 368.397 155.341 365.813C155.461 360.583 157.635 355.611 161.393 351.971C165.151 348.332 170.19 346.318 175.421 346.366H329.216C329.529 346.366 329.828 346.49 330.049 346.711C330.27 346.932 330.394 347.232 330.394 347.544V348.81C330.394 349.122 330.27 349.422 330.049 349.643C329.828 349.864 329.529 349.988 329.216 349.988H176.275C172.002 349.978 167.894 351.635 164.823 354.607C161.752 357.578 159.962 361.63 159.831 365.902Z" fill="white"/>
<path opacity="0.8" d="M87.6962 344.821H168.929V309.577H87.6962V344.821Z" fill="white"/>
<path opacity="0.2" d="M162.422 313.037H87.6958V309.592H162.334L162.422 313.037Z" fill="black"/>
<path opacity="0.2" d="M162.423 316.04L95.0132 317.483L162.423 318.911V316.04Z" fill="black"/>
<path opacity="0.2" d="M162.422 329.069L91.0381 330.276L162.422 331.291V329.069Z" fill="black"/>
<path opacity="0.2" d="M162.423 336.694L91.6714 338.122L162.423 339.55V336.694Z" fill="black"/>
<path opacity="0.2" d="M87.6958 321.06L156.136 323.121L87.6958 324.564V321.06Z" fill="black"/>
<path d="M269.005 327.022C268.998 331.255 267.312 335.311 264.317 338.303C261.323 341.294 257.265 342.976 253.033 342.98H83.9419C83.6295 342.98 83.33 343.104 83.1091 343.325C82.8882 343.546 82.7642 343.846 82.7642 344.158V345.409C82.7642 345.722 82.8882 346.021 83.1091 346.242C83.33 346.463 83.6295 346.587 83.9419 346.587H253.916C256.501 346.591 259.06 346.082 261.447 345.091C263.834 344.099 266.001 342.644 267.822 340.809C269.643 338.975 271.082 336.797 272.055 334.403C273.029 332.009 273.519 329.445 273.495 326.86C273.376 321.63 271.202 316.658 267.444 313.018C263.686 309.379 258.646 307.365 253.415 307.413H83.9419C83.6295 307.413 83.33 307.537 83.1091 307.758C82.8882 307.979 82.7642 308.279 82.7642 308.591V309.857C82.7642 310.169 82.8882 310.469 83.1091 310.69C83.33 310.911 83.6295 311.035 83.9419 311.035H252.561C256.847 311.026 260.966 312.693 264.039 315.68C267.111 318.668 268.894 322.738 269.005 327.022Z" fill="black"/>
<path opacity="0.4" d="M269.005 327.022C268.998 331.255 267.312 335.311 264.317 338.303C261.323 341.294 257.265 342.976 253.033 342.98H83.9419C83.6295 342.98 83.33 343.104 83.1091 343.325C82.8882 343.546 82.7642 343.846 82.7642 344.158V345.409C82.7642 345.722 82.8882 346.021 83.1091 346.242C83.33 346.463 83.6295 346.587 83.9419 346.587H253.916C256.501 346.591 259.06 346.082 261.447 345.091C263.834 344.099 266.001 342.644 267.822 340.809C269.643 338.975 271.082 336.797 272.055 334.403C273.029 332.009 273.519 329.445 273.495 326.86C273.376 321.63 271.202 316.658 267.444 313.018C263.686 309.379 258.646 307.365 253.415 307.413H83.9419C83.6295 307.413 83.33 307.537 83.1091 307.758C82.8882 307.979 82.7642 308.279 82.7642 308.591V309.857C82.7642 310.169 82.8882 310.469 83.1091 310.69C83.33 310.911 83.6295 311.035 83.9419 311.035H252.561C256.847 311.026 260.966 312.693 264.039 315.68C267.111 318.668 268.894 322.738 269.005 327.022Z" fill="white"/>
<path d="M330.674 327.228C330.674 331.914 328.813 336.407 325.5 339.72C322.187 343.033 317.693 344.894 313.008 344.894H162.422V309.563H313.023C317.706 309.567 322.195 311.429 325.505 314.742C328.815 318.055 330.674 322.546 330.674 327.228Z" fill="white"/>
<path opacity="0.7" d="M162.422 309.592V344.924H313.038C317.723 344.924 322.216 343.062 325.529 339.749C328.842 336.436 330.703 331.943 330.703 327.258C330.703 322.573 328.842 318.079 325.529 314.766C322.216 311.453 317.723 309.592 313.038 309.592H162.422Z" fill="white"/>
<path opacity="0.2" d="M162.422 318.911V316.04L312.537 317.247L162.422 318.911Z" fill="black"/>
<path opacity="0.2" d="M162.422 339.55V336.694L271.081 338.343L162.422 339.55Z" fill="black"/>
<path opacity="0.2" d="M313.273 313.037C316.171 313.043 318.964 314.118 321.12 316.055C320.181 317.881 319.436 319.8 318.897 321.781L168.296 322.959L318.558 323.327C318.323 324.54 318.2 325.772 318.19 327.008C318.193 328.495 318.366 329.976 318.705 331.424L217.26 333.632L319.648 334.825C320.535 337.267 321.674 339.611 323.048 341.817C326.13 339.673 328.449 336.602 329.667 333.051C330.886 329.499 330.942 325.652 329.826 322.067C328.71 318.482 326.481 315.346 323.463 313.113C320.444 310.88 316.792 309.668 313.038 309.651H162.422V313.096L313.273 313.037Z" fill="black"/>
<path d="M329.275 327.022C329.267 331.255 327.582 335.311 324.587 338.303C321.593 341.294 317.535 342.976 313.302 342.98H159.89C159.578 342.98 159.278 343.104 159.057 343.325C158.836 343.546 158.712 343.846 158.712 344.158V345.409C158.712 345.722 158.836 346.021 159.057 346.242C159.278 346.463 159.578 346.587 159.89 346.587H314.186C316.77 346.591 319.33 346.082 321.717 345.091C324.104 344.099 326.271 342.644 328.092 340.809C329.912 338.975 331.351 336.797 332.325 334.403C333.299 332.009 333.789 329.445 333.765 326.86C333.645 321.63 331.472 316.658 327.714 313.018C323.956 309.379 318.916 307.365 313.685 307.413H159.89C159.578 307.413 159.278 307.537 159.057 307.758C158.836 307.979 158.712 308.279 158.712 308.591V309.857C158.712 310.169 158.836 310.469 159.057 310.69C159.278 310.911 159.578 311.035 159.89 311.035H312.831C317.117 311.026 321.236 312.693 324.309 315.68C327.381 318.668 329.164 322.738 329.275 327.022Z" fill="black"/>
<path d="M312.537 322.547V336.694L307.414 331.571L302.453 336.532V322.547H312.537Z" fill="#018580"/>
<path d="M352.329 123.689H348.649C347.965 123.703 347.294 123.88 346.693 124.206C346.091 124.531 345.576 124.995 345.189 125.559L341.538 130.888C340.814 131.941 340.353 133.152 340.194 134.421C340.035 135.689 340.183 136.976 340.626 138.175L341.185 139.648C347.294 139.942 354.125 135.761 354.125 135.761L356.216 134.789C356.647 134.601 357.038 134.329 357.364 133.989C357.69 133.649 357.945 133.247 358.115 132.808C358.284 132.368 358.365 131.899 358.353 131.428C358.34 130.957 358.234 130.494 358.041 130.064L356.171 126.015C355.823 125.299 355.275 124.698 354.593 124.286C353.912 123.873 353.126 123.666 352.329 123.689Z" fill="#EEC1BB"/>
<path d="M282.564 130.182C292.015 137.822 302.217 145.183 313.479 149.688L312.081 149.393C313.111 149.643 315.82 148.613 317.233 147.921C325.094 144.093 332.544 138.352 339.61 133.111C340.333 132.588 341.22 132.34 342.11 132.413C342.999 132.487 343.834 132.876 344.461 133.511C345.089 134.146 345.469 134.984 345.532 135.875C345.596 136.766 345.338 137.649 344.807 138.367C337.755 147.2 321.885 165.145 309.313 162.525C295.534 158.417 283.359 150.748 272.51 141.37C265.473 134.598 274.909 124.013 282.564 130.182Z" fill="#EBC0BB"/>
<path d="M262.734 119.774C259.29 129.372 264.84 138.912 278.192 150.144C284.831 149.158 293.797 135.54 293.797 135.54C293.797 135.54 275.012 116.756 262.734 119.774Z" fill="white"/>
<path d="M274.218 60.1517C274.218 60.1517 261.071 46.6963 243.936 63.5818C226.8 80.4673 223.458 136.409 223.458 136.409L268.182 145.094C268.182 145.094 273.967 138.455 276.941 119.302C279.915 100.15 281.49 81.8364 285.259 77.5672C289.027 73.2979 274.218 60.1517 274.218 60.1517Z" fill="black"/>
<path d="M312.626 343.451L302.939 339.594L306.722 325.477L310.211 312.522L322.46 315.23L317.263 330.173L312.626 343.451Z" fill="#EEC1BB"/>
<path opacity="0.2" d="M317.145 330.482L306.619 325.741L310.167 312.654L322.43 315.304L317.145 330.482Z" fill="black"/>
<path d="M239.327 216.243C239.327 216.243 320.295 205.32 342.79 219.688C365.284 234.056 321.723 321.561 321.723 321.561L308.091 318.616C308.091 318.616 318.308 249.249 317.543 246.349C316.777 243.449 278.648 262.366 226.461 264.162L239.327 216.243Z" fill="black"/>
<path opacity="0.2" d="M239.327 216.243C239.327 216.243 320.295 205.32 342.79 219.688C365.284 234.056 321.723 321.561 321.723 321.561L308.091 318.616C308.091 318.616 318.308 249.249 317.543 246.349C316.777 243.449 278.648 262.366 226.461 264.162L239.327 216.243Z" fill="black"/>
<path d="M307.34 314.2L324.491 319.765L321.414 327.582L305.662 322.223L307.34 314.2Z" fill="black"/>
<path d="M321.591 345.63C319.736 345.63 316.467 342.686 315.79 341.979C315.751 341.942 315.721 341.897 315.702 341.847V341.758C315.699 341.665 315.724 341.572 315.776 341.493C315.864 341.39 318.013 338.549 320.074 338.461C320.386 338.429 320.7 338.467 320.996 338.571C321.291 338.675 321.56 338.844 321.782 339.064C322.297 339.55 322.474 340.021 322.297 340.463C322.017 341.17 320.825 341.552 319.485 341.788C320.569 341.942 321.589 342.396 322.43 343.098C322.577 343.246 322.691 343.423 322.765 343.619C322.839 343.814 322.87 344.023 322.857 344.232C322.857 345.085 322.4 345.424 322.076 345.542C321.922 345.602 321.757 345.632 321.591 345.63ZM317.027 342.141C318.735 343.613 321.002 345.203 321.811 344.879C321.811 344.879 322.106 344.776 322.135 344.187C322.141 344.076 322.124 343.964 322.083 343.86C322.042 343.756 321.98 343.662 321.9 343.584C321.105 342.701 318.646 342.288 317.027 342.171V342.141ZM320.236 339.197H320.104C318.802 339.539 317.648 340.299 316.821 341.361C319.073 341.258 321.37 340.831 321.605 340.227C321.679 340.036 321.429 339.756 321.267 339.609C320.985 339.353 320.616 339.216 320.236 339.226V339.197Z" fill="#018580"/>
<path d="M301.129 333.573C301.511 332.484 314.658 337.71 314.658 337.71C314.658 337.71 320.193 348.795 327.613 353.3C335.032 357.805 328.967 361.161 320.002 358.232L297.802 351.003C291.398 348.942 297.169 344.82 301.129 333.573Z" fill="black"/>
<path opacity="0.4" d="M307.34 314.2L324.491 319.765L321.414 327.582L305.662 322.223L307.34 314.2Z" fill="white"/>
<path d="M354.876 371.466L344.836 374.293L339.242 360.779L334.148 348.383L345.513 343.083L350.474 358.114L354.876 371.466Z" fill="#EEC1BB"/>
<path d="M340.375 367.197C340.375 366.049 354.537 367.3 354.537 367.3C354.537 367.3 363.002 376.354 371.393 378.547C379.785 380.741 374.941 385.687 365.505 385.466L342.171 384.878C335.473 384.716 339.801 379.107 340.375 367.197Z" fill="black"/>
<path d="M361.972 371.084C359.908 370.803 357.913 370.15 356.083 369.155L355.98 369.081C355.975 369.042 355.975 369.003 355.98 368.964C355.974 368.93 355.974 368.895 355.98 368.861C355.964 368.813 355.964 368.761 355.98 368.713C355.98 368.551 357.29 365.313 359.219 364.562C359.509 364.443 359.823 364.391 360.136 364.408C360.449 364.426 360.754 364.514 361.03 364.665C361.663 364.974 361.957 365.372 361.928 365.857C361.854 366.608 360.794 367.33 359.616 367.918C360.71 367.755 361.827 367.903 362.84 368.345C363.021 368.445 363.178 368.582 363.303 368.747C363.427 368.912 363.515 369.101 363.562 369.302C363.656 369.556 363.672 369.833 363.606 370.095C363.54 370.358 363.397 370.595 363.194 370.774C362.836 371.019 362.403 371.129 361.972 371.084ZM357.305 368.964C359.381 369.891 361.986 370.76 362.678 370.215C362.678 370.215 362.929 370.024 362.796 369.464C362.772 369.354 362.724 369.251 362.655 369.162C362.586 369.073 362.499 369 362.399 368.949C361.368 368.331 358.895 368.669 357.305 368.964ZM359.955 365.121C359.768 365.121 359.584 365.156 359.41 365.224C358.275 365.912 357.388 366.943 356.878 368.169C359.013 367.433 361.088 366.358 361.147 365.725C361.147 365.519 360.838 365.313 360.647 365.224C360.427 365.138 360.19 365.103 359.955 365.121Z" fill="#018580"/>
<path opacity="0.2" d="M350.563 358.423L339.33 361.058L334.178 348.516L345.528 343.157L350.563 358.423Z" fill="black"/>
<path d="M262.292 226.71C262.292 226.71 261.129 210.693 260.585 207.425C260.134 204.185 259.471 200.979 258.597 197.827C255.049 187.154 207.455 199.711 207.455 199.711L206.1 207.072C206.1 207.072 184.622 247.571 198.975 262.16C203.392 266.576 211.886 268.578 220.616 268.519C220.616 268.519 247.306 269.8 296.947 267.489C296.947 267.489 293.266 296.402 334.177 353.05L347.868 348.633C347.868 348.633 320.839 245.789 318.543 243.964C298.757 227.976 262.292 226.71 262.292 226.71Z" fill="#030303"/>
<path d="M331.704 352.358L348.707 346.337L351.019 354.419L335.252 359.748L331.704 352.358Z" fill="black"/>
<path d="M278.295 127.443C278.295 127.443 276.587 131.624 274.203 138.926C273.628 140.634 273.04 142.518 272.421 144.55C271.612 147.214 270.743 150.144 269.874 153.383C269.241 155.679 268.608 158.079 267.99 160.611C267.372 163.143 266.709 165.881 266.076 168.663C266.076 168.987 265.929 169.326 265.87 169.65C263.178 181.041 261.212 192.591 259.982 204.23L207.691 199.667C207.683 188.19 208.278 176.721 209.472 165.307C210.415 155.418 212.243 145.633 214.934 136.07C217.01 129.181 219.689 123.263 223.134 119.391C223.134 119.45 251.487 110.146 278.295 127.443Z" fill="white"/>
<path d="M251.65 111.942C235.913 106.907 229.803 119.302 229.803 119.302L238.18 118.478L255.183 139.824L265.149 126.913L271.421 130.285C271.421 130.285 265.282 116.299 251.65 111.942Z" fill="black"/>
<path opacity="0.6" d="M251.65 111.942C235.913 106.907 229.803 119.302 229.803 119.302L238.18 118.478L255.183 139.824L265.149 126.913L271.421 130.285C271.421 130.285 265.282 116.299 251.65 111.942Z" fill="white"/>
<path d="M254.741 138.661L240.313 117.065C247.115 113.988 251.62 100.974 252.606 93.6431L262.793 109.042C259.466 113.988 257.243 119.641 264.869 123.91C264.898 123.91 254.726 138.617 254.741 138.661Z" fill="#EEC1BB"/>
<path opacity="0.2" d="M256.758 99.9291L262.793 109.042C262 110.172 261.315 111.375 260.747 112.634C257.729 111.279 254.52 106.745 255.271 103.609C255.527 102.299 256.031 101.05 256.758 99.9291Z" fill="black"/>
<path d="M206.881 201.33L223.237 202.405L222.648 207.028L205.276 205.776L206.881 201.33Z" fill="black"/>
<path d="M261.292 209.781L224.621 207.16L225.209 202.538L260.703 204.878L261.292 209.781Z" fill="black"/>
<path d="M247.851 209.766H247.704L243.287 209.471C242.76 209.437 242.267 209.198 241.915 208.804C241.563 208.41 241.379 207.894 241.403 207.366L241.521 204.422C241.519 204.143 241.578 203.868 241.692 203.614C241.806 203.36 241.974 203.133 242.183 202.95C242.378 202.763 242.61 202.62 242.863 202.529C243.117 202.438 243.387 202.4 243.655 202.42L248.248 202.685C248.516 202.7 248.778 202.768 249.019 202.885C249.26 203.003 249.475 203.167 249.652 203.368C249.829 203.57 249.964 203.804 250.049 204.059C250.134 204.313 250.168 204.582 250.148 204.849L249.927 207.911C249.879 208.425 249.638 208.902 249.253 209.246C248.868 209.59 248.367 209.775 247.851 209.766ZM242.934 204.407L242.802 207.352C242.797 207.495 242.848 207.635 242.944 207.742C243.04 207.848 243.174 207.914 243.317 207.926L247.733 208.235C247.879 208.243 248.023 208.194 248.133 208.097C248.243 208.001 248.311 207.865 248.322 207.72L248.543 204.672C248.55 204.598 248.542 204.523 248.519 204.452C248.497 204.381 248.46 204.316 248.41 204.26C248.362 204.207 248.303 204.163 248.237 204.133C248.171 204.103 248.1 204.086 248.028 204.083L243.435 203.818C243.288 203.813 243.145 203.866 243.037 203.966C242.982 204.013 242.937 204.071 242.907 204.137C242.876 204.204 242.86 204.276 242.86 204.348L242.934 204.407Z" fill="white"/>
<path opacity="0.5" d="M331.704 352.358L348.707 346.337L351.019 354.419L335.252 359.748L331.704 352.358Z" fill="white"/>
<path d="M288.349 89.683C288.273 89.6852 288.198 89.6656 288.133 89.6265C288.068 89.5874 288.015 89.5303 287.981 89.4621C287.574 88.6681 286.991 87.9772 286.276 87.4416C285.562 86.906 284.736 86.5398 283.859 86.3706C283.804 86.369 283.751 86.3559 283.701 86.3323C283.651 86.3087 283.607 86.2752 283.571 86.2337C283.535 86.1922 283.508 86.1437 283.492 86.0912C283.476 86.0388 283.47 85.9836 283.477 85.929C283.491 85.8237 283.545 85.7276 283.626 85.6595C283.708 85.5914 283.812 85.5563 283.918 85.561C284.936 85.7351 285.899 86.1454 286.73 86.759C287.561 87.3726 288.237 88.1723 288.703 89.0941C288.728 89.1413 288.743 89.193 288.748 89.2463C288.753 89.2995 288.747 89.3532 288.73 89.404C288.714 89.4549 288.687 89.5019 288.652 89.5422C288.617 89.5826 288.574 89.6154 288.526 89.6388L288.349 89.683Z" fill="black"/>
<path d="M283.433 96.0573C283.593 98.1005 283.999 100.117 284.64 102.064C284.12 102.382 283.521 102.551 282.91 102.551C282.3 102.551 281.701 102.382 281.181 102.064L283.433 96.0573Z" fill="#EBC0BB"/>
<path d="M286.687 93.864C286.304 94.7767 285.509 95.3361 284.891 95.0711C284.272 94.8061 284.081 93.864 284.464 92.9513C284.847 92.0385 285.642 91.4791 286.26 91.7441C286.878 92.0091 287.055 92.9365 286.687 93.864Z" fill="black"/>
<path d="M285.979 91.6851H288.291C288.291 91.6851 286.613 92.9953 285.979 91.6851Z" fill="black"/>
<path d="M252.798 101.784C252.853 101.935 252.928 102.078 253.019 102.211C253.166 102.505 253.328 102.77 253.49 103.065C254.435 104.877 255.719 106.491 257.273 107.82C262.293 111.986 266.621 113.311 270.522 112.236C270.714 112.236 270.89 112.118 271.082 112.059C276.853 109.881 281.387 103.227 285.229 94.2465C286.893 90.7696 287.982 87.0458 288.453 83.2201C288.453 83.2201 288.453 83.0876 288.453 83.0582C288.453 83.0287 288.453 82.749 288.453 82.6165C288.641 80.4163 288.277 78.204 287.392 76.1806C286.508 74.1572 285.132 72.3869 283.389 71.0307C281.901 69.8055 280.281 68.7489 278.56 67.8803C261.837 59.1947 244.716 85.6197 252.798 101.784Z" fill="#EEC1BB"/>
<path d="M288.453 83.0731C288.453 83.0731 283.418 95.3802 269.639 94.8502C269.639 94.8502 258.627 104.728 251.458 101.328C241.668 96.6904 240.078 78.6419 250.486 66.32C264.015 50.3325 292.281 62.728 288.453 83.0731Z" fill="black"/>
<path d="M277.073 94.3203C278.001 92.4653 278.075 88.6231 274.998 87.5926C271.921 86.5621 266.459 93.0248 272.937 98.3392C273.864 99.1047 275.204 98.1773 277.073 94.3203Z" fill="#EEC1BB"/>
<path d="M274.218 60.1517C274.218 60.1517 286.952 62.9783 290.897 70.6629C295.52 79.643 295.519 86.5179 282.594 90.684C282.594 90.684 266.739 74.991 259.776 73.1213C255.716 72.0059 251.57 71.2327 247.38 70.8101C252.371 57.6196 269.198 54.4104 274.218 60.1517Z" fill="black"/>
<path d="M269.668 94.8502C261.659 110.852 244.053 138.043 225.283 118.861C225.283 118.861 232.025 97.1615 245.642 88.2108C259.26 79.2602 269.668 94.8502 269.668 94.8502Z" fill="black"/>
<path d="M266.768 121.54C273.614 126.604 264.854 143.269 273.496 146.979C272.684 145.856 272.173 144.544 272.014 143.167C271.854 141.791 272.05 140.396 272.583 139.117C274.394 134.583 281.74 122.6 278.81 106.377L266.768 121.54Z" fill="black"/>
<path opacity="0.2" d="M231.304 156.68C231.304 156.68 220.116 164.262 209.531 165.204C210.461 155.351 212.269 145.601 214.934 136.07C216.288 135.308 217.799 134.865 219.35 134.775C227.212 134.922 230.082 142.297 230.082 142.297C230.933 147.044 231.342 151.859 231.304 156.68Z" fill="black"/>
<path d="M272.141 209.192L269.786 206.365C269.343 205.849 268.783 205.446 268.153 205.19C267.523 204.934 266.842 204.832 266.164 204.893L259.716 205.364C258.442 205.457 257.209 205.854 256.12 206.523C255.031 207.192 254.119 208.112 253.46 209.206L252.635 210.576C256.227 215.537 263.75 218.26 263.75 218.26L265.811 219.276C266.225 219.5 266.68 219.639 267.148 219.686C267.616 219.733 268.089 219.687 268.54 219.55C268.99 219.413 269.409 219.188 269.772 218.888C270.135 218.589 270.435 218.22 270.654 217.804L272.715 213.741C273.085 213.012 273.227 212.189 273.125 211.378C273.023 210.568 272.68 209.806 272.141 209.192Z" fill="#EEC1BB"/>
<path d="M226.814 141.517C226.634 150.789 227.299 160.057 228.801 169.208C229.353 172.136 230.066 175.03 230.936 177.879L230.288 176.598C233.689 181.795 238.665 186.609 243.007 191.32L250.28 198.828L257.641 206.38C258.289 207.033 258.672 207.903 258.717 208.822C258.762 209.741 258.465 210.644 257.884 211.358C257.302 212.071 256.477 212.543 255.568 212.684C254.659 212.825 253.729 212.625 252.959 212.121C249.912 210.193 247.071 208.161 244.126 206.1C235.146 199.343 226.092 193.028 219.1 184.018C213.005 170.518 211.518 155.517 212.033 140.855C212.902 131.065 227.094 131.786 226.976 141.606L226.814 141.517Z" fill="#EBC0BB"/>
<path d="M222.633 119.538C212.991 122.85 209.001 133.155 208.574 150.586C213.506 155.164 229.729 153.648 229.729 153.648C229.729 153.648 232.659 127.237 222.633 119.538Z" fill="white"/>
<path d="M326.537 222.735V227.343C326.537 228.536 325.065 229.022 323.946 229.022H231.039C229.847 229.022 228.404 228.536 228.404 227.343V222.691L326.537 222.735Z" fill="black"/>
<path opacity="0.4" d="M326.537 222.735V227.343C326.537 228.536 325.065 229.022 323.946 229.022H231.039C229.847 229.022 228.404 228.536 228.404 227.343V222.691L326.537 222.735Z" fill="white"/>
<path opacity="0.2" d="M326.538 222.735V227.343C326.538 228.536 325.066 229.022 323.947 229.022H262.676C261.484 229.022 260.07 228.536 260.07 227.343V222.691L326.538 222.735Z" fill="black"/>
<path d="M342.083 174.479L331.013 224.635C330.816 225.442 330.357 226.161 329.706 226.678C329.056 227.195 328.252 227.481 327.421 227.49H267.063C266.688 227.479 266.32 227.382 265.988 227.206C265.657 227.03 265.37 226.78 265.151 226.475C264.932 226.171 264.786 225.819 264.724 225.449C264.662 225.079 264.687 224.699 264.796 224.34L275.851 174.552C276.075 173.794 276.553 173.136 277.204 172.689C277.856 172.241 278.641 172.031 279.429 172.094H339.86C341.45 172.094 342.437 172.874 342.083 174.479Z" fill="black"/>
<path opacity="0.4" d="M342.083 174.479L331.013 224.635C330.816 225.442 330.357 226.161 329.706 226.678C329.056 227.195 328.251 227.481 327.42 227.49H269.065C268.688 227.482 268.319 227.386 267.985 227.211C267.652 227.036 267.364 226.786 267.143 226.481C266.922 226.176 266.775 225.824 266.712 225.453C266.65 225.081 266.674 224.701 266.783 224.34L277.839 174.552C278.063 173.792 278.543 173.132 279.197 172.684C279.852 172.236 280.64 172.027 281.431 172.094H339.801C341.45 172.094 342.436 172.874 342.083 174.479Z" fill="white"/>
<path opacity="0.2" d="M312.287 199.976C312.287 204.26 307.679 207.749 304.308 207.749C300.936 207.749 298.934 204.26 299.891 199.976C300.848 195.692 304.219 192.321 307.517 192.203C306.56 196.487 308.621 199.976 311.933 199.976H312.287Z" fill="black"/>
</g>
<defs>
<clipPath id="clip0_56_302">
<rect width="500" height="385" fill="white"/>
</clipPath>
</defs>
</svg>
