<svg width="500" height="385" viewBox="0 0 500 385" fill="none" xmlns="http://www.w3.org/2000/svg">
<g clip-path="url(#clip0_56_302)">
<path d="M450.4 362.89L449.745 362.487C487.025 301.858 506.452 247.078 507.488 199.67C508.558 150.642 489.547 120.664 473.411 104.148C457.914 88.2867 437.626 77.2532 416.284 73.0803C396.275 69.1689 376.694 71.6539 362.56 79.8983L362.172 79.2332C376.465 70.8962 396.244 68.377 416.431 72.325C437.925 76.5276 458.356 87.6386 473.962 103.61C490.201 120.231 509.333 150.391 508.257 199.687C507.219 247.234 487.753 302.143 450.4 362.89Z" fill="white"/>
<path opacity="0.4" d="M480.283 148.041C462.873 110.324 429.053 80.8437 386.985 75.7192C353.421 71.6305 319.667 71.0836 285.958 69.0267C250.381 66.8559 215.549 60.2545 180.392 54.4699C157.825 50.7567 138.054 56.241 116.173 64.1788C86.2834 75.0215 57.4003 110.029 44.3665 138.037C12.9651 205.514 30.3092 290.391 57.9804 356.146C59.336 359.367 68.6812 385 71.4828 385C71.4862 385 437.472 385 437.472 385C459.551 352.618 477.647 317.005 487.693 280.233C499.63 236.538 499.504 189.682 480.283 148.041Z" fill="white"/>
<path d="M35.0239 283.562C20.6536 238.752 14.3265 199.786 16.2178 167.747C17.7907 141.1 25.0454 118.968 37.7798 101.966C66.9571 63.0112 115.691 63.7812 116.182 63.7944L116.163 64.5638C115.69 64.549 67.323 63.7978 38.3897 102.436C25.7498 119.315 18.5484 141.307 16.9857 167.801C15.1014 199.742 21.4165 238.611 35.7567 283.328L35.0239 283.562Z" fill="white"/>
<path d="M386.738 288.801H124.114C118.878 288.801 114.634 284.556 114.634 279.321V23.8644C114.634 18.6288 118.878 14.3844 124.114 14.3844H386.738C391.973 14.3844 396.218 18.6288 396.218 23.8644V279.321C396.218 284.556 391.973 288.801 386.738 288.801Z" fill="white"/>
<path d="M386.737 289.185H124.113C118.674 289.185 114.249 284.76 114.249 279.32V23.8644C114.249 18.425 118.674 14 124.113 14H386.737C392.177 14 396.602 18.4253 396.602 23.8644V279.321C396.602 284.76 392.177 289.185 386.737 289.185ZM124.113 14.769C119.098 14.769 115.018 18.8491 115.018 23.8641V279.32C115.018 284.335 119.098 288.416 124.113 288.416H386.737C391.752 288.416 395.833 284.335 395.833 279.32V23.8644C395.833 18.8494 391.752 14.7694 386.737 14.7694H124.113V14.769Z" fill="#6FC7C4"/>
<path d="M363.905 46.3557H303.895V50.7346H363.905V46.3557Z" fill="black"/>
<path d="M380.659 65.2048H285.046V69.5837H380.659V65.2048Z" fill="#018580"/>
<path d="M371.162 78.1559H285.046V82.5347H371.162V78.1559Z" fill="#018580"/>
<path d="M361.272 91.1066H285.046V95.4854H361.272V91.1066Z" fill="#6FC7C4"/>
<path d="M380.659 104.057H285.046V108.436H380.659V104.057Z" fill="#6FC7C4"/>
<path d="M355.624 117.008H285.046V121.387H355.624V117.008Z" fill="#6FC7C4"/>
<path d="M226.697 188.045H134.932V192.424H226.697V188.045Z" fill="#018580"/>
<path d="M372.466 199.97H135.195V204.349H372.466V199.97Z" fill="#6FC7C4"/>
<path d="M373.107 220.738H136.951V266.129H373.107V220.738Z" fill="white"/>
<path d="M373.792 266.808H137.066V220.839H373.792V266.808ZM137.643 266.231H373.215V221.416H137.643V266.231Z" fill="#018580"/>
<path d="M373.503 257.153H137.354V257.73H373.503V257.153Z" fill="#018580"/>
<path d="M373.503 248.074H137.354V248.651H373.503V248.074Z" fill="#018580"/>
<path d="M373.503 238.996H137.354V239.573H373.503V238.996Z" fill="#018580"/>
<path d="M373.503 229.917H137.354V230.494H373.503V229.917Z" fill="#018580"/>
<path d="M334.434 221.127H333.857V266.519H334.434V221.127Z" fill="#018580"/>
<path d="M295.076 221.127H294.499V266.519H295.076V221.127Z" fill="#018580"/>
<path d="M255.718 221.127H255.141V266.519H255.718V221.127Z" fill="#018580"/>
<path d="M216.359 221.127H215.782V266.519H216.359V221.127Z" fill="#018580"/>
<path d="M177.001 221.127H176.424V266.519H177.001V221.127Z" fill="#018580"/>
<path d="M143.84 259.331C147.273 254.548 148.015 248.39 151.082 243.353C152.578 240.896 154.559 238.46 157.299 237.361C162.023 235.467 163.229 241.564 163.329 244.95C163.477 249.93 162.651 255.334 166.765 259.074C168.138 260.322 169.955 261.063 171.808 260.571C174.031 259.981 175.414 257.945 176.514 256.075C179.663 250.721 181.663 244.584 183.851 238.793C184.956 235.868 186.361 232.12 189.255 230.481C193.381 228.145 193.832 233.314 193.822 236.038C193.811 239.024 193.842 242.009 193.868 244.995C193.881 246.43 193.585 249.424 195.272 250.223C196.265 250.694 197.051 249.795 197.608 249.073C198.092 248.445 198.429 247.711 198.912 247.086C199.367 246.498 199.771 246.143 200.592 246.075C201.345 246.012 201.706 246.004 202.218 246.698C202.503 247.085 202.635 247.629 202.755 248.083C203.349 250.323 202.739 252.86 204.008 254.929C204.715 256.081 206.234 257.23 207.662 257.004C210.545 256.549 211.277 251.851 211.623 249.593C212.086 246.572 212.518 243.568 213.351 240.619C214.189 237.649 215.276 234.102 217.534 231.881C218.393 231.035 219.577 230.192 220.849 230.334C222.706 230.543 223.288 232.639 223.742 234.142C224.767 237.535 225.381 241.085 225.378 244.634C225.376 247.085 224.663 250.152 226.297 252.273C227.174 253.412 228.661 254.065 230.084 253.71C232.164 253.192 232.666 251.173 233.089 249.343C233.173 248.979 233.236 248.602 233.373 248.253C233.779 247.221 233.94 247.101 235.053 247.056C236.279 247.006 236.327 247.293 236.524 248.308C236.722 249.332 236.619 250.366 236.928 251.378C237.317 252.658 238.217 253.836 239.698 253.395C241.065 252.987 241.797 251.525 242.249 250.289C243.547 246.737 243.426 242.804 243.62 239.086C243.748 236.624 243.947 233.978 245.084 231.743C245.824 230.289 248.009 227.933 249.698 229.468C251.897 231.465 251.682 236.331 251.732 239.017C251.84 244.781 250.873 250.568 251.679 256.312C251.98 258.46 252.59 261.668 254.974 262.481C258.275 263.606 260.707 260.012 261.584 257.383C262.282 255.292 262.441 253.104 262.937 250.97C263.198 249.848 263.598 247.798 265.129 248.439C266.45 248.991 266.995 250.86 268.156 251.704C271.906 254.432 274.202 249.111 274.643 246.231C275.288 242.021 274.623 237.384 276.199 233.356C276.598 232.338 277.223 231.258 278.158 230.642C280.45 229.133 282.706 231.22 283.396 233.354C283.92 234.972 283.821 236.788 283.852 238.468C283.885 240.291 283.934 242.114 283.967 243.937C284.023 246.949 283.753 250.023 283.946 253.025C284.081 255.11 284.87 257.011 286.672 258.188C291.197 261.145 296.487 256.533 299.375 253.297C302.655 249.62 304.862 245.25 306.559 240.665C307.417 238.346 308.277 235.977 309.619 233.886C310.356 232.739 312.405 229.986 314.085 230.747C315.18 231.242 315.544 233.222 315.78 234.242C316.177 235.964 316.367 237.732 316.51 239.49C316.783 242.837 316.802 246.192 316.863 249.547C316.915 252.388 317.156 256.673 320.313 257.823C325.244 259.619 327.595 252.558 328.96 249.297C330.091 246.596 331.469 242.931 334.099 241.325C336.334 239.959 337.891 242.065 338.717 243.939C339.51 245.736 339.919 247.732 339.944 249.692C339.961 251.061 339.854 252.775 341.353 253.436C344.625 254.878 347.605 249.466 348.877 247.333C350.036 245.388 350.916 243.35 351.888 241.31C353.108 238.747 357.107 233.847 358.769 238.758C359.397 240.613 359.177 242.613 359.053 244.528C358.913 246.7 358.758 248.879 358.827 251.057C358.906 253.573 359.361 259.062 363.158 258.479C365.459 258.126 367.828 255.592 369.552 254.155C372.077 252.049 374.46 249.787 376.721 247.401C377.061 247.041 376.518 246.496 376.177 246.856C373.915 249.243 371.533 251.505 369.008 253.611C367.655 254.739 366.279 255.882 364.818 256.867C362.917 258.147 361.057 257.567 360.299 255.606C358.81 251.758 359.716 246.997 359.917 242.992C360.035 240.61 359.736 235.159 356.088 235.821C353.902 236.217 352.393 238.574 351.48 240.392C350.444 242.454 349.596 244.576 348.431 246.575C347.275 248.557 345.943 250.917 344.017 252.248C342.565 253.252 340.864 252.777 340.701 250.826C340.627 249.935 340.723 249.049 340.618 248.155C340.315 245.573 339.333 241.306 336.536 240.26C332.655 238.809 329.829 245.338 328.724 247.895C327.594 250.511 326.717 253.862 324.627 255.904C323.154 257.343 320.762 257.843 319.256 256.178C318.154 254.961 317.876 253.041 317.722 251.476C317.123 245.394 318.029 239.112 316.294 233.15C315.794 231.431 314.841 229.307 312.714 230.06C309.146 231.323 307.522 235.957 306.307 239.15C304.364 244.255 302.211 249.141 298.425 253.2C296.241 255.541 293.074 258.436 289.656 258.367C285.169 258.276 284.61 253.799 284.739 250.368C284.864 247.012 284.732 243.647 284.66 240.291C284.601 237.587 284.964 234.365 283.629 231.892C282.779 230.317 280.975 229.061 279.115 229.391C277.535 229.671 276.361 231.16 275.722 232.528C274.005 236.21 274.459 240.652 274.072 244.592C273.85 246.843 273.45 250.704 270.816 251.487C267.502 252.472 267.397 247.492 264.609 247.397C261.654 247.297 261.63 254.394 261.118 256.261C260.488 258.565 259.289 261.314 256.665 261.814C255.042 262.123 253.96 261.102 253.33 259.706C251.897 256.533 252.073 252.535 252.162 249.134C252.229 246.595 252.456 244.063 252.5 241.524C252.548 238.786 253.093 227.025 247.871 228.286C244.258 229.159 243.333 233.824 243.011 236.915C242.583 241.034 242.945 245.253 241.77 249.276C241.464 250.322 241.059 251.529 240.183 252.24C239.272 252.981 238.184 252.348 237.734 251.395C237.429 250.748 237.444 249.934 237.384 249.244C237.283 248.072 237.136 246.33 235.831 245.838C234.323 245.27 233.086 246.812 232.632 248.051C232.07 249.585 232.253 251.603 230.695 252.619C229.131 253.639 227.295 252.677 226.541 251.167C225.755 249.594 226.039 247.678 226.115 245.986C226.193 244.267 226.119 242.549 225.921 240.84C225.586 237.944 225.044 234.767 223.853 232.085C222.211 228.386 218.55 229.369 216.372 232.027C212.674 236.539 211.744 243.397 210.942 248.963C210.685 250.749 210.346 252.601 209.547 254.234C209.138 255.071 208.55 256.061 207.554 256.23C205.888 256.512 204.509 254.591 204.144 253.226C203.549 251.006 204.111 243.131 199.488 245.548C198.053 246.299 197.916 248.09 196.692 248.991C194.779 250.399 194.661 247.286 194.648 246.081C194.627 244.273 194.617 242.466 194.601 240.658C194.58 238.23 194.765 235.709 194.469 233.294C194.28 231.753 193.81 229.956 192.218 229.321C187.91 227.6 184.696 234.554 183.54 237.469C181.089 243.651 179.125 250.258 175.676 255.977C173.783 259.118 170.553 261.47 167.31 258.531C164.992 256.43 164.139 253.345 164.078 250.322C163.999 246.394 165.176 238.452 160.467 236.41C156.363 234.631 152.014 240.291 150.279 243.202C147.313 248.176 146.546 254.25 143.177 258.944C142.887 259.346 143.554 259.731 143.84 259.331Z" fill="black"/>
<path d="M451.045 48.8219C434.884 48.8219 421.784 61.9222 421.784 78.0823C421.784 88.1578 426.878 97.0426 434.629 102.306L433.506 115.786L444.488 106.596C446.597 107.079 448.789 107.342 451.045 107.342C467.204 107.342 480.305 94.2421 480.305 78.082C480.305 61.9219 467.205 48.8219 451.045 48.8219Z" fill="white"/>
<path d="M433.046 116.672L434.227 102.497C426.191 96.9512 421.4 87.8417 421.4 78.082C421.4 61.7356 434.698 48.4369 451.045 48.4369C467.392 48.4369 480.69 61.7356 480.69 78.082C480.69 94.4283 467.392 107.727 451.045 107.727C448.891 107.727 446.72 107.487 444.589 107.013L433.046 116.672ZM451.045 49.2062C435.123 49.2062 422.169 62.1597 422.169 78.082C422.169 87.6613 426.908 96.5979 434.845 101.987L435.031 102.113L433.965 114.899L444.388 106.178L444.574 106.221C446.708 106.709 448.885 106.957 451.044 106.957C466.966 106.957 479.92 94.0039 479.92 78.0817C479.92 62.1594 466.967 49.2062 451.045 49.2062Z" fill="#018580"/>
<path d="M456.024 84.2378H447.324V93.2666H456.024V84.2378Z" fill="white"/>
<path d="M456.409 93.6513H446.939V83.8534H456.409V93.6513ZM447.709 92.8819H455.639V84.6227H447.709V92.8819Z" fill="#018580"/>
<path d="M458.733 77.9995C458.733 73.9905 455.391 70.7623 451.341 70.9482C447.655 71.1175 444.661 74.2207 444.616 77.9109C444.6 79.2237 444.943 80.4534 445.553 81.5108C446.65 83.412 447.324 85.5268 447.324 87.7217V89.3268H456.024V87.6583C456.024 85.4924 456.692 83.4059 457.782 81.5342C458.386 80.4953 458.733 79.2886 458.733 77.9995Z" fill="white"/>
<path d="M456.409 89.7112H446.939V87.7216C446.939 85.7053 446.361 83.6806 445.22 81.7031C444.557 80.5537 444.215 79.2406 444.231 77.9062C444.279 74.0351 447.461 70.7413 451.324 70.5635C453.397 70.4705 455.331 71.198 456.815 72.6158C458.3 74.0342 459.118 75.9465 459.118 77.9994C459.118 79.3107 458.771 80.5998 458.114 81.7271C456.983 83.6711 456.409 85.6668 456.409 87.6576V89.7112ZM447.708 88.9418H455.639V87.6579C455.639 85.529 456.248 83.4037 457.449 81.3403C458.037 80.3303 458.348 79.175 458.348 77.9994C458.348 76.1582 457.614 74.4441 456.283 73.1722C454.952 71.9012 453.219 71.2457 451.358 71.3322C447.896 71.4916 445.043 74.4447 445 77.9157C444.986 79.1119 445.292 80.2887 445.885 81.3184C447.095 83.4141 447.708 85.5686 447.708 87.7216L447.708 88.9418Z" fill="#018580"/>
<path d="M450.064 77.171C449.517 77.9503 448.6 78.2498 448.015 77.8398C447.431 77.4299 447.4 76.4653 447.947 75.686C448.494 74.9066 449.411 74.6072 449.996 75.0171C450.58 75.4271 450.611 76.3917 450.064 77.171Z" fill="white"/>
<path d="M448.619 78.4093C448.318 78.4093 448.035 78.3238 447.795 78.1545C447.411 77.8852 447.189 77.4444 447.173 76.9135C447.157 76.4238 447.321 75.9095 447.633 75.4647C447.945 75.0203 448.372 74.6916 448.838 74.5398C449.336 74.3767 449.838 74.4374 450.217 74.7027C450.595 74.968 450.823 75.4201 450.839 75.9437C450.855 76.4333 450.691 76.9477 450.379 77.3921C450.067 77.8368 449.639 78.1655 449.174 78.3176C448.985 78.3788 448.799 78.4093 448.619 78.4093ZM449.39 75.2179C449.29 75.2179 449.185 75.2355 449.077 75.2712C448.772 75.3703 448.476 75.6017 448.262 75.9064C448.048 76.2114 447.932 76.5697 447.942 76.8889C447.951 77.1717 448.056 77.3973 448.237 77.5244C448.419 77.6506 448.665 77.6743 448.935 77.5854C449.243 77.4847 449.532 77.2588 449.749 76.9498C449.964 76.6451 450.08 76.2872 450.07 75.9677C450.061 75.6848 449.956 75.4592 449.775 75.3321C449.667 75.2567 449.535 75.2179 449.39 75.2179Z" fill="#018580"/>
<path d="M438.122 65.6118L437.644 66.2142L442.027 69.6937L442.505 69.0913L438.122 65.6118Z" fill="#018580"/>
<path d="M451.408 58.2914L450.639 58.316L450.879 65.8246L451.648 65.7999L451.408 58.2914Z" fill="#018580"/>
<path d="M464.334 64.0967L459.794 68.5133L460.33 69.0649L464.871 64.6482L464.334 64.0967Z" fill="#018580"/>
<path d="M83.8929 85.7818C83.8929 71.5736 72.375 60.0558 58.1669 60.0558C43.9588 60.0558 32.4409 71.5736 32.4409 85.7818C32.4409 99.9899 43.9588 111.508 58.1669 111.508C60.5014 111.508 62.7609 111.191 64.9111 110.608L73.8414 118.08L72.9065 106.861C79.547 102.209 83.8929 94.505 83.8929 85.7818Z" fill="white"/>
<path d="M74.3011 118.967L64.8174 111.031C62.6429 111.603 60.4069 111.892 58.1668 111.892C43.7691 111.892 32.0562 100.179 32.0562 85.7817C32.0562 71.384 43.7694 59.671 58.1668 59.671C72.5645 59.671 84.2775 71.3843 84.2775 85.7817C84.2775 94.2132 80.1808 102.146 73.3077 107.048L74.3011 118.967ZM65.0042 110.184L73.3816 117.194L72.5048 106.673L72.6855 106.546C79.4625 101.798 83.5081 94.0356 83.5081 85.7814C83.5081 71.8083 72.1398 60.4401 58.1668 60.4401C44.1938 60.4401 32.8255 71.8083 32.8255 85.7814C32.8255 99.7544 44.1938 111.123 58.1668 111.123C60.4056 111.123 62.6408 110.825 64.8103 110.237L65.0042 110.184Z" fill="#018580"/>
<path d="M57.8278 93.8066L50.5337 86.5125L51.0775 85.9685L57.5761 92.467L65.108 75.3098L65.8128 75.6194L57.8278 93.8066Z" fill="#018580"/>
<path d="M137.114 80.2242C135.498 83.1022 135.017 86.4862 135.774 89.7011C136.527 92.9165 138.459 95.7335 141.186 97.5923C141.025 98.4248 140.946 99.2717 140.943 100.119C140.935 103.273 142.057 106.33 144.101 108.731C146.147 111.132 148.983 112.718 152.098 113.21C153.815 116.124 156.535 118.313 159.747 119.371C162.959 120.426 166.446 120.275 169.554 118.944C172.666 117.616 175.186 115.201 176.645 112.147C178.103 115.201 180.623 117.616 183.735 118.944C186.842 120.275 190.33 120.426 193.542 119.371C196.754 118.313 199.475 116.123 201.192 113.21C204.307 112.718 207.142 111.132 209.189 108.731C211.232 106.33 212.354 103.273 212.347 100.119C212.343 99.2717 212.264 98.4248 212.103 97.5923C214.831 95.7335 216.763 92.9165 217.515 89.7011C218.272 86.4858 217.791 83.1018 216.175 80.2242C217.795 77.8091 218.58 74.9311 218.401 72.0279C218.225 69.1247 217.1 66.3616 215.2 64.1618C216.419 60.6128 216.074 56.712 214.257 53.4281C212.44 50.1443 209.318 47.787 205.665 46.9365C206.034 45.9101 206.228 44.8264 206.239 43.7355C206.249 39.641 203.658 35.9914 199.787 34.6636C198.568 33.788 188.115 26.5391 180.947 28.5632C179.233 29.0117 177.717 30.0236 176.645 31.434C175.574 30.0236 174.057 29.0117 172.344 28.5632C165.175 26.5392 154.723 33.8024 153.504 34.6636C149.633 35.9914 147.041 39.641 147.052 43.7355C147.063 44.8264 147.256 45.9101 147.626 46.9365C143.973 47.787 140.851 50.1446 139.033 53.4281C137.216 56.7116 136.872 60.6124 138.091 64.1618C136.191 66.3616 135.065 69.1247 134.89 72.0279C134.711 74.9311 135.496 77.8091 137.116 80.2242H137.114ZM189.19 92.1521C184.803 92.1701 180.684 94.2622 178.078 97.7933V62.1086C178.078 60.5081 178.713 58.9758 179.842 57.8455C180.971 56.7151 182.502 56.0799 184.1 56.0799C184.738 55.9184 185.186 55.3442 185.186 54.6875C185.186 54.0309 184.738 53.4567 184.1 53.2952C181.86 53.2988 179.709 54.1565 178.078 55.6924V34.5484C178.698 32.9371 180.035 31.7099 181.691 31.2325C185.448 30.199 190.638 32.4526 194.223 34.4479C190.007 35.5603 187.064 39.3714 187.054 43.7347C187.215 44.3734 187.788 44.822 188.444 44.822C189.1 44.822 189.674 44.3734 189.835 43.7347C189.835 39.9666 192.882 36.9092 196.646 36.9021C197.341 36.8985 198.033 37.0061 198.696 37.2179C200.571 37.7992 202.101 39.1664 202.894 40.9643C203.686 42.7621 203.661 44.8148 202.825 46.5911H202.682C199.18 46.5947 195.821 47.9834 193.337 50.4524C190.853 52.9248 189.444 56.2765 189.419 59.7823C189.312 60.213 189.408 60.6651 189.681 61.0132C189.95 61.3612 190.369 61.5658 190.81 61.5658C191.251 61.5658 191.67 61.3612 191.939 61.0132C192.211 60.6651 192.308 60.2129 192.201 59.7823C192.179 56.6244 193.584 53.628 196.018 51.622C198.456 49.616 201.664 48.8157 204.754 49.4473C207.847 50.0753 210.489 52.067 211.948 54.866C213.406 57.6651 213.525 60.9737 212.274 63.8732C212.066 64.3936 212.177 64.9857 212.561 65.3947C215.572 68.3876 216.478 72.902 214.862 76.8275C213.242 80.7534 209.417 83.312 205.176 83.3084C204.746 83.2008 204.294 83.2977 203.947 83.5704C203.599 83.8396 203.395 84.2594 203.395 84.7008C203.395 85.1423 203.599 85.5621 203.947 85.8313C204.294 86.104 204.746 86.2009 205.176 86.0932C208.539 86.1004 211.779 84.8157 214.224 82.5047C216.338 87.3923 214.449 93.0878 209.836 95.739C209.291 96.062 209.026 96.7044 209.177 97.318C209.442 98.251 209.571 99.2199 209.564 100.189C209.582 105.565 205.517 110.079 200.173 110.61C199.71 110.668 199.302 110.944 199.083 111.357C197.215 114.927 193.57 117.213 189.548 117.335C185.526 117.461 181.744 115.408 179.662 111.959C177.576 108.514 177.504 104.212 179.479 100.698C181.454 97.1853 185.164 95.0106 189.19 95.007C189.57 95.007 189.935 94.8563 190.204 94.5872C190.473 94.318 190.624 93.952 190.624 93.5716C190.616 92.7857 189.975 92.1505 189.19 92.1505L189.19 92.1521ZM140.685 65.5255C141.068 65.1164 141.18 64.5243 140.972 64.004C139.721 61.1045 139.839 57.7958 141.298 54.9968C142.757 52.1977 145.399 50.2061 148.492 49.5781C151.582 48.9465 154.79 49.7468 157.227 51.7528C159.661 53.7588 161.066 56.7552 161.045 59.9131C161.206 60.5519 161.78 61.0004 162.436 61.0004C163.091 61.0004 163.665 60.5519 163.826 59.9131C163.819 56.3964 162.421 53.0303 159.937 50.5436C157.453 48.0568 154.091 46.6572 150.578 46.65H150.435C149.6 44.8737 149.575 42.821 150.367 41.0232C151.159 39.2254 152.689 37.8581 154.564 37.2768C155.227 37.0651 155.919 36.9574 156.614 36.961C160.378 36.9682 163.425 40.0256 163.425 43.7936C163.318 44.2242 163.414 44.6764 163.687 45.0244C163.956 45.3725 164.375 45.577 164.816 45.577C165.257 45.577 165.676 45.3725 165.945 45.0244C166.217 44.6763 166.314 44.2242 166.207 43.7936C166.196 39.4299 163.253 35.6189 159.038 34.5068C162.622 32.5115 167.813 30.2005 171.569 31.2915C173.214 31.74 174.558 32.9278 175.211 34.5068V55.6931C173.58 54.1571 171.429 53.2995 169.189 53.2959C168.551 53.4574 168.103 54.0315 168.103 54.6882C168.103 55.3449 168.551 55.9191 169.189 56.0806C170.787 56.0806 172.318 56.7157 173.447 57.8461C174.576 58.9766 175.211 60.5088 175.211 62.1093V97.794C172.59 94.2521 168.447 92.16 164.041 92.1528C163.611 92.0452 163.16 92.1421 162.812 92.4148C162.464 92.6839 162.26 93.1038 162.26 93.5452C162.26 93.9866 162.464 94.4065 162.812 94.6756C163.16 94.9484 163.611 95.0452 164.041 94.9376C168.077 94.934 171.798 97.1087 173.78 100.625C175.762 104.142 175.698 108.459 173.605 111.915C171.515 115.367 167.726 117.427 163.693 117.294C159.661 117.165 156.012 114.868 154.148 111.287C153.929 110.874 153.521 110.598 153.058 110.54C147.714 110.009 143.649 105.495 143.667 100.119C143.664 99.1502 143.789 98.1849 144.04 97.2483C144.194 96.6383 143.933 95.9959 143.395 95.6693C138.782 93.0174 136.893 87.3224 139.007 82.435C141.452 84.746 144.692 86.0308 148.055 86.0235C148.485 86.1312 148.937 86.0343 149.284 85.7615C149.632 85.4924 149.836 85.0725 149.836 84.6311C149.836 84.1897 149.632 83.7699 149.284 83.5007C148.937 83.228 148.485 83.1311 148.055 83.2387C143.904 83.1598 140.19 80.6299 138.592 76.7901C136.997 72.954 137.817 68.5329 140.685 65.5255Z" fill="#018580"/>
<path d="M161.03 72.444C160.406 75.3866 157.811 77.4931 154.807 77.4967C154.119 77.4967 153.434 77.3782 152.785 77.1522C152.054 76.9333 151.28 77.3244 151.022 78.0421C150.81 78.7706 151.201 79.5349 151.911 79.7933C154.47 80.6653 157.288 80.3531 159.592 78.9392C161.897 77.5217 163.456 75.1533 163.84 72.4726C167.066 72.1855 170.063 70.6927 172.242 68.2955C172.611 68.0515 172.848 67.6532 172.884 67.2118C172.919 66.7704 172.747 66.3362 172.421 66.0384C172.095 65.7405 171.651 65.6077 171.213 65.6795C170.78 65.7549 170.403 66.024 170.192 66.4152C167.933 68.8123 164.693 70.0181 161.42 69.6843C158.148 69.3506 155.216 67.5097 153.488 64.707C152.538 63.085 152.04 61.2333 152.054 59.3529C152.054 58.9725 151.904 58.6065 151.635 58.3373C151.366 58.0682 151 57.9175 150.62 57.9175C149.828 57.9175 149.187 58.5598 149.187 59.3529C149.179 66.103 154.28 71.7586 160.986 72.4439L161.03 72.444Z" fill="black"/>
<path d="M164.73 86.3388H163.683C157.923 86.3639 153.076 90.6665 152.356 96.3872C150.829 96.4697 149.334 96.8716 147.968 97.5642C147.538 98.0091 147.441 98.6838 147.732 99.2328C148.022 99.7819 148.631 100.083 149.244 99.9757C150.395 99.3764 151.675 99.0678 152.972 99.0713C155.757 99.0606 158.356 100.474 159.865 102.821C161.371 105.168 161.579 108.122 160.414 110.655C160.242 111.086 160.288 111.574 160.539 111.965C160.79 112.352 161.213 112.6 161.675 112.622C162.22 112.614 162.715 112.299 162.951 111.803C164.328 108.76 164.242 105.254 162.722 102.283C161.202 99.3084 158.41 97.1911 155.137 96.5309C155.714 92.2282 159.403 89.0272 163.74 89.0667C164.009 89.0524 164.274 89.0524 164.543 89.0667C165.188 88.9591 165.683 88.428 165.74 87.7749C165.798 87.1218 165.403 86.5153 164.787 86.2964L164.73 86.3388Z" fill="black"/>
<path d="M198.466 80.2821C199.441 80.2713 200.409 80.1098 201.334 79.7941C202.044 79.5357 202.434 78.7713 202.223 78.0429C201.965 77.3252 201.191 76.9341 200.459 77.1529C199.803 77.3826 199.115 77.4974 198.423 77.4974C195.423 77.4867 192.835 75.3838 192.215 72.4448C198.922 71.7594 204.022 66.1039 204.015 59.3538C204.122 58.9231 204.026 58.471 203.753 58.1229C203.484 57.7749 203.065 57.5703 202.624 57.5703C202.183 57.5703 201.764 57.7749 201.495 58.1229C201.222 58.471 201.126 58.9232 201.233 59.3538C201.247 64.7186 197.165 69.2046 191.827 69.6888C188.548 70.0692 185.286 68.8491 183.053 66.416C182.841 66.0249 182.465 65.7557 182.031 65.6804C181.594 65.6086 181.149 65.7414 180.823 66.0392C180.497 66.3371 180.325 66.7713 180.361 67.2126C180.396 67.654 180.633 68.0523 181.002 68.2964C183.182 70.6936 186.178 72.1864 189.404 72.4735C190.067 76.9699 193.928 80.2964 198.466 80.2821Z" fill="black"/>
<path d="M189.347 107.296C189.351 108.861 189.688 110.408 190.337 111.832C190.573 112.327 191.068 112.643 191.613 112.65C192.075 112.629 192.498 112.381 192.749 111.994C193 111.603 193.047 111.115 192.875 110.684C191.405 107.512 192.115 103.754 194.638 101.332C197.162 98.9132 200.94 98.3677 204.044 99.9754C204.729 100.298 205.542 100.033 205.908 99.3725C206.223 98.6978 205.965 97.8904 205.32 97.5208C203.961 96.8282 202.47 96.4263 200.947 96.3438C200.226 90.6237 195.38 86.3212 189.62 86.2955H188.573C188.136 86.2237 187.691 86.3565 187.365 86.6579C187.042 86.9629 186.874 87.3971 186.913 87.8386C186.953 88.28 187.193 88.6783 187.566 88.9187C187.935 89.1592 188.397 89.213 188.817 89.0659C189.086 89.0515 189.351 89.0515 189.62 89.0659C193.957 89.0264 197.645 92.2274 198.222 96.53C193.079 97.542 189.365 102.05 189.347 107.296Z" fill="black"/>
<path d="M150.093 369.698C145.447 369.767 138.784 369.874 134.476 369.936C134.522 367.851 134.599 365.774 134.691 363.873C134.899 359.134 135.168 355.472 135.168 355.472L148.486 355.38C148.486 355.38 148.424 356.703 148.486 358.688C148.57 361.627 148.916 366.012 150.093 369.698Z" fill="#FFBC96"/>
<path d="M155.252 376.21C152.697 375.419 151.098 372.81 150.097 369.696C145.447 369.768 138.784 369.871 134.473 369.936C134.357 374.843 134.4 379.781 134.871 382.554C135.075 383.756 136.106 384.637 137.325 384.637H160.212C162.077 384.637 163.686 383.078 163.493 381.222C163.262 379.002 160.643 377.879 155.252 376.21Z" fill="black"/>
<path d="M148.485 358.688L134.691 363.873C134.899 359.134 135.168 355.472 135.168 355.472L148.485 355.38C148.485 355.38 148.424 356.703 148.485 358.688Z" fill="#D28572"/>
<path d="M141.57 384.438C141.081 382.119 140.111 380.507 138.684 379.645C136.815 378.518 134.764 379.08 134.743 379.086L134.531 378.347C134.626 378.32 136.911 377.681 139.072 378.981C140.694 379.956 141.788 381.739 142.323 384.28L141.57 384.438Z" fill="white"/>
<path d="M81.6976 352.887C81.6976 352.887 80.2204 356.318 79.1587 360.542C78.6509 362.558 78.2432 364.758 78.1355 366.843C73.7578 365.266 67.4953 363.004 63.4331 361.535C65.318 356.903 67.3337 352.364 68.4185 349.979L68.4493 349.917C68.9186 348.871 69.2033 348.256 69.2033 348.256L81.6976 352.887Z" fill="#FFBC96"/>
<path d="M80.6511 374.76C78.5415 373.117 77.9694 370.11 78.1353 366.843C73.7607 365.265 67.4933 363.003 63.4372 361.538C61.5923 366.086 59.8853 370.72 59.344 373.48C59.1092 374.676 59.7616 375.866 60.9021 376.298L82.3073 384.398C84.0519 385.058 86.1092 384.168 86.585 382.365C87.1543 380.207 85.1032 378.23 80.6511 374.76Z" fill="black"/>
<path d="M81.6978 352.887C81.6978 352.887 80.2206 356.318 79.1589 360.542L67.9956 351.148L68.4188 349.979L68.4495 349.917C68.9188 348.871 69.2035 348.256 69.2035 348.256L81.6978 352.887Z" fill="#D28572"/>
<path d="M64.3258 377.485L63.6435 377.129C66.5101 371.634 61.4585 368.913 61.2422 368.8L61.5982 368.118C61.6586 368.149 67.5435 371.316 64.3258 377.485Z" fill="white"/>
<path d="M155.025 358.073L130.536 359.996L125.405 272.543L117.819 243.793L107.894 206.194L107.379 204.232L104.986 195.169L104.632 193.815L109.318 193.392L134.637 191.123L136.168 198.047V198.055L151.332 266.627C151.825 268.858 152.117 271.136 152.194 273.42L155.025 358.073Z" fill="black"/>
<path d="M119.766 224.336L117.819 243.793L114.665 275.29C114.303 278.914 113.495 282.491 112.257 285.915L86.1678 358.073L64.2412 349.61L84.6291 275.752C89.8838 245.347 89.0144 222.012 90.3685 207.21C90.4531 206.287 90.5454 205.402 90.6455 204.548C91.1917 200.016 92.038 196.423 93.4767 193.815L104.986 195.169L113.095 196.123L114.857 203.578L115.211 205.086L119.766 224.336Z" fill="black"/>
<path opacity="0.6" d="M136.168 198.047L136.432 200.996C136.432 200.996 102.068 210.228 90.3687 207.21C90.4533 206.287 90.5456 205.402 90.6456 204.548C91.1919 200.016 92.0382 196.423 93.4768 193.815L104.986 195.169L104.632 193.815L109.318 193.392L134.637 191.123L136.168 198.047Z" fill="#1B1B43"/>
<path d="M125.032 272.961L113.544 227.584L104.13 224.571L104.365 223.838L114.185 226.981L114.238 227.188L125.778 272.772L125.032 272.961Z" fill="#211F20"/>
<path d="M142.658 274.957L142.388 274.238C148.425 271.973 151.706 269.872 151.739 269.851L152.156 270.497C152.021 270.584 148.781 272.661 142.658 274.957Z" fill="#211F20"/>
<path d="M113.249 282.674C113.191 282.668 107.382 282.076 101.648 280.547L101.846 279.804C107.521 281.317 113.268 281.903 113.326 281.909L113.249 282.674Z" fill="#211F20"/>
<path d="M66.2849 342.961L66.019 343.684L88.3298 351.89L88.5957 351.167L66.2849 342.961Z" fill="#211F20"/>
<path d="M154.616 351.522L130.189 353.244L130.244 354.012L154.671 352.29L154.616 351.522Z" fill="#211F20"/>
<path d="M102.901 138.166L92.4947 142.355C89.4708 143.572 87.0575 145.945 85.7896 148.948L77.0546 169.853C75.3042 174.043 76.4696 178.883 79.9348 181.817C82.7965 184.24 86.7393 184.938 90.2586 183.644L97.6438 180.929L102.901 138.166Z" fill="#E9ECFA"/>
<path d="M175.69 121.7C173.745 122.662 171.501 126.754 172.352 128.226C173.05 129.432 174.674 127.8 175.21 127.239C176.195 126.211 178.736 123.464 177.333 121.903C176.885 121.405 176.302 121.397 175.69 121.7Z" fill="#FFBC96"/>
<path d="M170.982 123.179C169.368 124.628 168.309 129.172 169.525 130.361C170.521 131.335 171.646 129.325 172.012 128.642C172.683 127.387 174.39 124.057 172.619 122.931C172.054 122.572 171.49 122.722 170.982 123.179Z" fill="#FFBC96"/>
<path d="M167.857 125.461C166.226 126.861 165.078 131.161 166.257 132.252C167.223 133.147 168.381 131.232 168.757 130.58C169.449 129.385 171.213 126.214 169.484 125.193C168.931 124.868 168.37 125.021 167.857 125.461Z" fill="#FFBC96"/>
<path d="M164.879 126.525C163.248 127.925 162.1 132.224 163.279 133.316C164.245 134.211 165.403 132.295 165.78 131.644C166.472 130.448 168.236 127.278 166.506 126.257C165.954 125.932 165.393 126.085 164.879 126.525Z" fill="#FFBC96"/>
<path d="M102.901 138.287L92.0662 156.914C92.0662 156.914 94.8873 187.689 92.8355 191.468C90.7838 195.248 86.1677 198.217 88.9888 200.377C91.8098 202.536 114.121 206.316 138.227 200.647C144.895 198.757 140.279 195.248 138.74 193.628C137.202 192.008 135.15 151.245 135.15 151.245L121.287 138.612L111.044 135.857L102.901 138.287Z" fill="white"/>
<path opacity="0.2" d="M121.077 138.614C119.154 141.98 96.5154 145.441 102.901 138.165L109.441 136.787L121.077 138.614Z" fill="#1B1B43"/>
<path d="M150.409 160.541L141.476 147.291C139.404 143.924 136.026 141.57 132.15 140.792L121.302 138.614L127.713 162.657C127.713 162.657 137.715 176.697 146.754 179.967C154.867 182.902 165.628 178.082 171.562 146.371L158.11 144.537L150.409 160.541Z" fill="#E9ECFA"/>
<path d="M178.939 127.523C177.579 127.349 172.912 134.383 172.912 134.383L165.37 136.951C162.608 137.892 160.339 139.903 159.074 142.533L158.109 144.537L171.561 146.371C171.783 145.188 172 143.977 172.207 142.717C176.823 138.55 181.952 127.907 178.939 127.523Z" fill="#FFBC96"/>
<path d="M123.148 108.891L125.877 112.665C126.341 113.307 126.053 114.177 125.278 114.477L122.365 115.601L120.31 111.038L123.148 108.891Z" fill="#D28572"/>
<path d="M105.509 129.62C106.194 122.681 105.917 115.726 105.917 115.726L118.35 116.626C118.242 118.011 118.227 119.442 118.281 120.881C118.365 123.15 118.619 125.451 118.973 127.674C119.165 128.897 119.388 130.097 119.627 131.251L105.509 129.62Z" fill="#FFBC96"/>
<path d="M118.973 127.674C113.711 125.489 111.688 120.788 111.688 120.788L118.281 120.881C118.365 123.15 118.619 125.451 118.973 127.674Z" fill="#D28572"/>
<path d="M105.507 129.617L102.901 138.165C108.9 139.608 115.043 139.671 121.302 138.614L119.628 131.249L105.507 129.617Z" fill="#FFF5E8"/>
<path d="M122.84 102.519L124.128 119.72C124.243 120.455 123.794 121.131 123.159 121.724C122.069 122.741 120.573 123.206 119.083 123.144L110.274 122.778L103.991 115.726L108.864 100.723L117.711 100.595L122.84 102.519Z" fill="#FFBC96"/>
<path d="M108.383 112.745C108.383 112.745 110.691 119.958 105.786 123.612C100.497 121.881 90.6876 105.821 102.901 100.724C102.901 100.724 106.267 92.1646 115.403 95.3383C123.468 98.1397 125.597 103.032 125.597 103.032C125.597 103.032 119.923 107.263 113.288 103.321C113.288 103.321 113.961 111.879 108.383 112.745Z" fill="#1B1B43"/>
<path d="M111.638 109.798C113.074 111.577 112.932 114.074 111.32 115.375C109.709 116.676 107.238 116.289 105.802 114.51C104.366 112.732 104.508 110.235 106.119 108.934C107.731 107.633 110.202 108.02 111.638 109.798Z" fill="#FFBC96"/>
<path d="M109.866 113.937C109.835 113.813 109.067 110.879 107.001 111.328L106.879 110.764C108.968 110.311 110.115 112.551 110.426 113.797L109.866 113.937Z" fill="#1B1B43"/>
<path opacity="0.4" d="M120.846 113.898C121.171 112.52 120.317 111.138 118.939 110.813C117.56 110.487 116.179 111.341 115.854 112.719C115.528 114.098 116.382 115.479 117.76 115.805C119.139 116.13 120.52 115.277 120.846 113.898Z" fill="#FE5B52"/>
<path d="M91.7849 201.966C89.4504 201.41 88.1305 200.543 87.7483 199.317C87.1266 197.319 89.1894 195.031 91.0091 193.012C91.2931 192.697 91.5676 192.393 91.8191 192.102C92.3225 191.522 92.669 190.832 92.8217 190.109C94.509 182.111 91.7123 157.208 91.6843 156.957L92.4484 156.871C92.5653 157.899 95.2876 182.149 93.5747 190.267C93.3956 191.119 92.9894 191.927 92.4007 192.607C92.1459 192.9 91.868 193.209 91.5809 193.527C89.9815 195.301 87.9914 197.509 88.4831 199.088C88.773 200.021 89.944 200.736 91.9628 201.217L91.7849 201.966Z" fill="#1B1B43"/>
<path d="M136.45 201.38L136.415 200.612C139.044 200.495 140.651 199.867 141.064 198.797C141.48 197.718 140.721 196.111 138.982 194.387C138.537 193.945 138.227 193.375 138.086 192.739C136.703 186.522 135.23 165.968 135.215 165.761L135.983 165.707C135.997 165.913 137.466 186.41 138.837 192.572C138.946 193.064 139.184 193.503 139.524 193.84C141.519 195.818 142.321 197.677 141.782 199.074C141.243 200.471 139.449 201.247 136.45 201.38Z" fill="#1B1B43"/>
<path d="M149.024 163.98L148.333 163.642L157.886 144.118L171.613 145.99L171.51 146.752L158.333 144.956L149.024 163.98Z" fill="#1B1B43"/>
<path d="M380.446 115.982C375.894 113.226 374.868 105.34 379.1 102.967C383.331 100.595 386.024 102.711 386.024 102.711C386.024 102.711 400.217 97.5341 405.578 110.725C409.617 120.663 406.412 125.856 409.938 130.857C413.956 136.555 420.388 141.692 411.99 151.693L392.371 146.885L387.242 122.714L380.446 115.982Z" fill="#1B1B43"/>
<path d="M448.341 337.527L433.916 343.874C433.916 343.874 435.988 349.23 437.762 355.46L452.596 350.722L448.341 337.527Z" fill="#FFBC96"/>
<path d="M452.596 350.721L437.762 355.46C439.794 362.597 441.434 370.881 439.116 373.583C436.102 377.098 433.473 380.003 432.842 382.447C432.471 383.884 433.946 385.095 435.271 384.427L454.436 374.761C457.612 373.159 458.981 369.354 457.554 366.096L452.596 350.721Z" fill="black"/>
<path d="M454.195 355.682L439.061 360.417L439.29 361.152L454.425 356.417L454.195 355.682Z" fill="white"/>
<path d="M436.304 377.427L436.145 376.674C439.818 375.895 441.955 374.545 442.498 372.664C443.391 369.57 439.712 365.949 439.674 365.913L440.211 365.362C440.376 365.523 444.257 369.345 443.238 372.877C442.61 375.053 440.277 376.583 436.304 377.427Z" fill="white"/>
<path d="M392.627 351.533L375.958 353.072C375.958 353.072 376.391 358.989 375.878 364.928L391.913 364.692L392.627 351.533Z" fill="#FFBC96"/>
<path d="M375.878 364.928C375.425 370.186 374.232 375.461 371.342 376.665C365.187 379.23 360.314 381.025 360.827 384.615H384.49C388.047 384.615 390.983 381.834 391.175 378.282L391.913 364.692L375.878 364.928Z" fill="black"/>
<path d="M375.962 368.548L375.949 369.317L391.337 369.573L391.35 368.803L375.962 368.548Z" fill="white"/>
<path d="M370.95 379.578C369.927 379.578 368.735 379.427 367.379 379.125L367.547 378.373C370.92 379.128 373.213 378.895 374.172 377.704C375.449 376.118 374.147 373.266 374.135 373.237L374.832 372.913C374.895 373.048 376.345 376.232 374.771 378.186C374.025 379.113 372.746 379.578 370.95 379.578Z" fill="white"/>
<path d="M392.409 355.48C392.209 355.549 392.024 355.595 391.855 355.634C388.524 356.403 377.499 355.634 377.499 355.634C376.999 355.526 376.522 355.387 376.068 355.226C365.759 351.471 366.459 333.445 368.005 317.681C369.429 303.225 363.389 229.46 367.559 204.394L393.656 198.685L393.809 203.078L394.125 212.049L394.679 227.921C394.679 227.921 395.664 243.277 397.01 262.519C399.026 291.369 401.857 328.968 403.396 336.661C405.85 348.902 396.579 354.264 392.409 355.48Z" fill="black"/>
<path d="M451.45 339.5C450.873 340.17 450.234 340.762 449.55 341.278C446.041 343.978 441.31 344.97 437.155 346.094C436.424 346.294 435.663 346.44 434.886 346.532C431.016 347.009 426.792 346.124 424.984 342.839C415.721 325.96 405.281 292.454 397.01 262.519C390.963 240.661 386.078 220.697 383.647 210.518C382.577 206.017 381.985 203.432 381.985 203.432L393.81 203.078L413.913 202.471C414.459 205.179 415.082 208.033 415.783 210.995C422.645 240.284 436.163 280.552 441.456 295.955C444.633 305.179 449.442 313.412 451.558 323.075C452.681 328.191 455.297 335.061 451.45 339.5Z" fill="black"/>
<path opacity="0.6" d="M415.782 210.995C407.573 212.341 400.334 212.518 394.125 212.049C390.217 211.757 386.716 211.203 383.646 210.518C373.114 208.195 367.559 204.394 367.559 204.394L393.656 198.685L393.809 203.078L413.913 202.471C414.459 205.179 415.082 208.033 415.782 210.995Z" fill="#211F20"/>
<path d="M396.64 262.623L388.592 234.116L380.314 231.106L380.577 230.383L389.225 233.527L389.279 233.717L397.381 262.414L396.64 262.623Z" fill="#211F20"/>
<path d="M446.046 343.006L445.379 342.622C449.262 335.88 441.478 315.103 431.624 288.797C422.055 263.255 410.147 231.467 405.839 203.105L406.6 202.989C410.895 231.272 422.789 263.018 432.345 288.527C442.27 315.023 450.11 335.949 446.046 343.006Z" fill="#1B1B43"/>
<path d="M373.152 180.167C372.222 186.668 370.829 195.162 370.829 195.162H355.634L359.335 174.828L360.25 169.773C360.25 169.773 373.329 172.85 373.906 172.85C374.13 172.85 373.73 176.128 373.152 180.167Z" fill="#FFBC96"/>
<path d="M373.153 180.167L372.46 181.698L359.335 174.828L360.25 169.773C360.25 169.773 373.33 172.85 373.907 172.85C374.13 172.85 373.73 176.128 373.153 180.167Z" fill="#D28572"/>
<path d="M369.867 175.543C369.867 175.543 372.368 190.161 367.559 204.394C367.559 204.394 391.409 211.703 413.913 202.471L408.72 169.581L410.451 152.847L376.022 153.232L364.29 157.079L369.867 175.543Z" fill="white"/>
<path d="M420.178 150.974C418.658 146.632 415.155 143.277 410.75 141.947L404.285 139.994C401.682 143.785 397.036 148.616 390.255 148.616C382.282 148.616 377.281 144.038 374.526 140.299L370.058 141.388C365.264 142.557 361.538 146.33 360.43 151.138L355.442 172.786L369.867 175.543L370.252 159.002L407.758 157.271L408.72 169.581C408.72 169.581 419.555 164.836 426.736 169.709L420.178 150.974Z" fill="white"/>
<path d="M436.608 149.577C434.531 153.64 431.738 171.25 430.454 184.968C430.03 189.476 428.746 193.031 426.968 195.623C424.353 199.455 420.644 201.193 417.044 200.809C415.659 200.67 414.297 200.216 413.012 199.455C406.819 195.785 407.612 180.105 408.304 173.05C408.519 170.927 408.719 169.581 408.719 169.581C412.374 167.565 418.144 167.273 418.144 167.273C418.221 166.48 418.313 165.68 418.406 164.857C419.19 157.771 420.383 149.731 421.414 144.384C422.568 138.422 424.876 140.638 424.876 140.638C426.03 138.514 427.761 140.345 427.761 140.345C429.3 136.975 431.223 140.153 431.223 140.153C433.623 136.691 434.939 141.884 434.939 141.884C434.939 141.884 442.394 135.744 443.663 137.522C444.302 138.422 439.555 143.807 436.608 149.577Z" fill="#FFBC96"/>
<path d="M377.561 191.282H345.248V195.162H377.561V191.282Z" fill="white"/>
<path d="M359.086 195.196H325.756C324.153 195.196 322.696 194.263 322.026 192.807L309.047 164.627C308.615 163.69 309.3 162.622 310.331 162.622H341.592C343.11 162.622 344.49 163.506 345.125 164.885L359.086 195.196Z" fill="#E9ECFA"/>
<path d="M370.06 195.162C369.652 196.677 369.106 198.07 368.367 199.309C366.582 202.324 363.72 204.394 359.312 204.948C357.804 205.148 356.119 205.156 354.226 204.971C338.955 203.455 334.538 195.1 334.538 195.1C334.538 195.1 332.838 191.553 336.446 192.369C336.446 192.369 337.123 190.115 339.909 192.469C339.909 192.469 339.578 189.676 342.317 192.23C342.317 192.23 341.932 189.392 344.909 191.846C347.894 194.292 350.202 195.016 353.811 195.162C357.411 195.308 370.06 195.162 370.06 195.162Z" fill="#FFBC96"/>
<path d="M369.272 158.993L368.504 159.038L369.465 175.579L370.233 175.534L369.272 158.993Z" fill="#E9ECFA"/>
<path d="M388.594 154.579C386.773 154.579 385.171 154.359 383.823 154.056C379.234 153.021 376.592 150.863 376.482 150.771L376.972 150.179C377.077 150.264 387.471 158.608 402.431 149.632L402.826 150.292C397.342 153.583 392.475 154.579 388.594 154.579Z" fill="#E9ECFA"/>
<path d="M408.511 162.008L407.743 162.066L408.32 169.631L409.088 169.573L408.511 162.008Z" fill="#E9ECFA"/>
<path d="M396.731 173.365C394.259 173.365 392.198 171.529 391.92 169.065L391.302 163.582L401.882 162.885L401.567 168.78C401.433 171.311 399.342 173.325 396.808 173.364C396.783 173.365 396.756 173.365 396.731 173.365ZM392.157 164.296L392.685 168.978C392.921 171.073 394.699 172.621 396.796 172.595C398.927 172.562 400.687 170.868 400.8 168.739L401.067 163.71L392.157 164.296Z" fill="#E9ECFA"/>
<path d="M417.715 167.278L414.95 186.606L415.712 186.715L418.477 167.387L417.715 167.278Z" fill="#D28572"/>
<path d="M431.526 140.102L430.958 140.205L431.535 143.379L432.103 143.276L431.526 140.102Z" fill="#D28572"/>
<path d="M428.064 140.198L427.496 140.301L428.073 143.476L428.641 143.372L428.064 140.198Z" fill="#D28572"/>
<path d="M425.178 140.39L424.61 140.494L425.188 143.668L425.756 143.565L425.178 140.39Z" fill="#D28572"/>
<path d="M434.429 139.747L433.888 139.949L435.683 144.758L436.224 144.556L434.429 139.747Z" fill="#D28572"/>
<path d="M418.134 167.268L408.255 173.023C408.471 170.899 408.671 169.553 408.671 169.553C412.325 167.537 418.134 167.268 418.134 167.268Z" fill="#D28572"/>
<path opacity="0.4" d="M426.969 195.623C424.353 199.455 420.645 201.193 417.044 200.809C417.006 200.555 416.99 200.293 416.99 200.032C416.99 196.739 419.66 194.069 422.953 194.069C424.499 194.069 425.915 194.662 426.969 195.623Z" fill="#FE5B52"/>
<path opacity="0.4" d="M368.367 199.309C366.582 202.324 363.72 204.394 359.312 204.948C359.296 204.763 359.289 204.579 359.289 204.394C359.289 201.101 361.958 198.431 365.251 198.431C366.39 198.431 367.459 198.755 368.367 199.309Z" fill="#FE5B52"/>
<path d="M346.122 196.247C344.601 195.949 342.699 193.596 342.061 192.363L342.573 192.098C343.23 193.367 345.024 195.444 346.233 195.68L346.122 196.247Z" fill="#D28572"/>
<path d="M342.509 196.646C341.219 195.32 340.03 193.668 339.551 192.535L340.083 192.31C340.537 193.384 341.678 194.965 342.923 196.243L342.509 196.646Z" fill="#D28572"/>
<path d="M338.951 196.55C337.66 195.224 336.472 193.572 335.992 192.439L336.524 192.214C336.978 193.287 338.12 194.868 339.364 196.147L338.951 196.55Z" fill="#D28572"/>
<path d="M404.288 139.991C401.68 143.784 397.033 148.616 390.255 148.616C382.285 148.616 377.284 144.038 374.53 140.299L382.754 138.291C382.954 136.814 383.123 135.375 383.262 134.013C383.37 132.944 383.462 131.921 383.547 130.951C383.685 129.359 383.777 127.92 383.854 126.689C383.954 125.004 384.001 123.727 384.024 123.019C384.039 122.612 384.039 122.396 384.039 122.396L395.579 117.78C395.579 117.78 395.195 132.782 398.657 138.291L404.288 139.991Z" fill="#FFBC96"/>
<path d="M393.204 127.972C393.204 127.972 390.117 131.582 383.262 134.013C383.369 132.944 383.462 131.921 383.546 130.951C383.685 129.359 383.777 127.92 383.854 126.689L393.204 127.972Z" fill="#D28572"/>
<path d="M380.959 108.417C380.959 108.417 375.06 124.445 379.292 127.394C383.056 130.018 388.011 130.344 392.884 129.062L396.09 118.162L394.166 107.52L380.959 108.417Z" fill="#FFBC96"/>
<path d="M394.423 118.29C394.423 118.29 390.257 119.888 388.524 114.059C387.114 109.314 380.959 108.417 380.959 108.417L383.459 106.109L395.32 105.788L399.68 111.11L398.205 118.034L394.423 118.29Z" fill="#1B1B43"/>
<path d="M399.806 121.624C398.46 123.955 395.878 124.983 394.038 123.921C392.198 122.858 391.797 120.108 393.143 117.778C394.488 115.447 397.07 114.419 398.91 115.481C400.75 116.543 401.151 119.294 399.806 121.624Z" fill="#FFBC96"/>
<path d="M395.112 121.788L394.535 121.782C394.535 121.746 394.611 118.156 398.172 117.747L398.239 118.321C395.188 118.671 395.113 121.661 395.112 121.788Z" fill="#1B1B43"/>
<path d="M380.174 116.848C380.537 116.848 380.831 116.554 380.831 116.191C380.831 115.828 380.537 115.534 380.174 115.534C379.811 115.534 379.517 115.828 379.517 116.191C379.517 116.554 379.811 116.848 380.174 116.848Z" fill="#1B1B43"/>
<path d="M385.314 117.103C385.314 117.542 384.958 117.898 384.519 117.898C384.079 117.898 383.723 117.542 383.723 117.103C383.723 116.663 384.079 116.307 384.519 116.307C384.958 116.307 385.314 116.663 385.314 117.103Z" fill="#1B1B43"/>
<path d="M381.612 114.693H379.649C379.372 114.693 379.148 114.469 379.148 114.192C379.148 113.915 379.372 113.691 379.649 113.691H381.612C381.889 113.691 382.113 113.915 382.113 114.192C382.113 114.469 381.889 114.693 381.612 114.693Z" fill="#1B1B43"/>
<path d="M386.543 116.071L384.372 115.153C384.117 115.046 383.997 114.752 384.105 114.497C384.213 114.242 384.507 114.123 384.762 114.23L386.933 115.148C387.188 115.256 387.308 115.549 387.2 115.804C387.092 116.059 386.798 116.179 386.543 116.071Z" fill="#1B1B43"/>
<path d="M379.869 121.184C379.755 121.184 379.648 121.117 379.602 121.005C379.217 120.07 379.207 119.351 379.571 118.868C379.955 118.36 380.632 118.291 380.971 118.291L381.705 116.868C381.778 116.726 381.953 116.671 382.093 116.744C382.234 116.817 382.29 116.991 382.217 117.132L381.309 118.895L381.112 118.874C381.104 118.874 380.346 118.797 380.031 119.218C379.802 119.522 379.839 120.064 380.136 120.786C380.197 120.933 380.126 121.102 379.979 121.162C379.943 121.177 379.906 121.184 379.869 121.184Z" fill="#1B1B43"/>
<path d="M380.005 123.69C381.122 125.265 382.537 124.592 383.501 123.785C382.194 123.869 380.96 123.796 380.005 123.69Z" fill="#1B1B43"/>
<path d="M383.501 123.785C384.059 123.319 384.466 122.809 384.576 122.665C384.589 122.648 384.572 122.628 384.55 122.629C381.682 122.8 379.744 122.593 379.451 122.559C379.431 122.557 379.421 122.578 379.429 122.597C379.608 123.046 379.802 123.403 380.005 123.689C380.96 123.796 382.194 123.869 383.501 123.785Z" fill="white"/>
<path opacity="0.4" d="M390.28 120.639C390.28 121.75 389.379 122.651 388.268 122.651C387.157 122.651 386.256 121.75 386.256 120.639C386.256 119.528 387.157 118.627 388.268 118.627C389.379 118.627 390.28 119.528 390.28 120.639Z" fill="#FE5B52"/>
<path d="M513.929 384.231H0V385H513.929V384.231Z" fill="#1B1B43"/>
<path d="M215.235 109.77L210.278 112.672L157.583 143.549C155.962 144.5 154.063 144.276 153.311 143.044L153.309 143.04C152.557 141.808 153.225 140.018 154.811 139.009L206.247 106.303L211.197 103.157L215.235 109.77Z" fill="black"/>
<path opacity="0.6" d="M215.235 109.77L210.279 112.672C209.311 111.745 208.461 110.692 207.744 109.518C207.118 108.493 206.621 107.413 206.248 106.303L211.197 103.157L215.235 109.77Z" fill="black"/>
<path d="M208.272 111.425C207.491 111.902 206.47 111.655 205.993 110.874C205.516 110.092 205.763 109.072 206.544 108.595C207.326 108.117 208.346 108.364 208.823 109.145C209.301 109.927 209.054 110.947 208.272 111.425Z" fill="white"/>
<path d="M233.246 120.465C247.734 120.465 259.479 108.72 259.479 94.2325C259.479 79.7447 247.734 68 233.246 68C218.758 68 207.014 79.7447 207.014 94.2325C207.014 108.72 218.758 120.465 233.246 120.465Z" fill="black"/>
<path d="M233.246 115.511C244.998 115.511 254.524 105.984 254.524 94.2326C254.524 82.4809 244.998 72.9543 233.246 72.9543C221.494 72.9543 211.968 82.4809 211.968 94.2326C211.968 105.984 221.494 115.511 233.246 115.511Z" fill="white"/>
</g>
<defs>
<clipPath id="clip0_56_302">
<rect width="500" height="385" fill="white"/>
</clipPath>
</defs>
</svg>
