<svg width="745" height="800" viewBox="0 0 745 800" fill="none" xmlns="http://www.w3.org/2000/svg">
<g clip-path="url(#clip0_27_312)">
<path d="M519.193 95.0882L517.767 96.586L615.618 189.745L617.044 188.247L519.193 95.0882Z" fill="#090814"/>
<path d="M617.205 178.144L615.139 178.269L615.763 188.447L605.563 188.325L605.541 190.394L617.961 190.541L617.205 178.144Z" fill="#090814"/>
<path d="M529.279 94.435L529.257 96.504L519.057 96.382L519.681 106.56L517.617 106.681L516.862 94.281L529.279 94.435Z" fill="#090814"/>
<path d="M567.409 153.789C573.691 153.789 578.783 148.697 578.783 142.415C578.783 136.133 573.691 131.041 567.409 131.041C561.127 131.041 556.035 136.133 556.035 142.415C556.035 148.697 561.127 153.789 567.409 153.789Z" fill="#090814"/>
<path d="M227.208 95.0879L129.357 188.247L130.783 189.745L228.634 96.5856L227.208 95.0879Z" fill="#090814"/>
<path d="M128.447 190.54L140.867 190.393L140.844 188.324L130.644 188.446L131.268 178.268L129.202 178.143L128.447 190.54Z" fill="#090814"/>
<path d="M229.546 94.287L228.79 106.687L226.724 106.562L227.346 96.384L217.146 96.506L217.124 94.437L229.546 94.287Z" fill="#090814"/>
<path d="M178.997 153.789C185.279 153.789 190.371 148.697 190.371 142.415C190.371 136.133 185.279 131.041 178.997 131.041C172.715 131.041 167.623 136.133 167.623 142.415C167.623 148.697 172.715 153.789 178.997 153.789Z" fill="#090814"/>
<path d="M457.992 235.752H286.347C283.88 235.749 281.514 234.768 279.77 233.023C278.025 231.279 277.044 228.913 277.041 226.446V9.306C277.044 6.83879 278.025 4.47346 279.77 2.72888C281.514 0.984299 283.88 0.00291117 286.347 0H457.992C460.459 0.00264703 462.825 0.983952 464.569 2.72859C466.314 4.47323 467.295 6.83871 467.298 9.306V226.446C467.295 228.913 466.314 231.279 464.569 233.023C462.825 234.768 460.459 235.749 457.992 235.752ZM286.347 2.06799C284.428 2.07011 282.588 2.83336 281.231 4.19029C279.874 5.54722 279.111 7.38701 279.109 9.306V226.446C279.111 228.365 279.874 230.205 281.231 231.562C282.588 232.919 284.428 233.682 286.347 233.684H457.992C459.911 233.682 461.751 232.919 463.108 231.562C464.465 230.205 465.228 228.365 465.23 226.446V9.306C465.228 7.38701 464.465 5.54722 463.108 4.19029C461.751 2.83336 459.911 2.07011 457.992 2.06799H286.347Z" fill="#3F3D56"/>
<path d="M357.894 104.374H320.109C318.875 104.373 317.693 103.882 316.82 103.01C315.948 102.137 315.457 100.955 315.456 99.721V55.135C315.457 53.9013 315.948 52.7186 316.82 51.8463C317.693 50.974 318.875 50.4833 320.109 50.482H357.894C359.128 50.4833 360.31 50.974 361.183 51.8463C362.055 52.7186 362.546 53.9013 362.547 55.135V99.721C362.546 100.955 362.055 102.137 361.183 103.01C360.31 103.882 359.128 104.373 357.894 104.374Z" fill="#018580"/>
<path d="M431.305 125.054H393.523C392.289 125.053 391.107 124.562 390.234 123.69C389.362 122.817 388.871 121.635 388.87 120.401V75.816C388.871 74.5824 389.362 73.3996 390.234 72.5273C391.107 71.655 392.289 71.1643 393.523 71.163H431.305C432.539 71.1643 433.721 71.655 434.594 72.5273C435.466 73.3996 435.957 74.5824 435.958 75.816V120.402C435.957 121.635 435.466 122.818 434.594 123.69C433.721 124.562 432.539 125.053 431.305 125.054Z" fill="#E6E6E6"/>
<path d="M372.37 188.128H334.585C333.351 188.127 332.169 187.636 331.296 186.764C330.424 185.891 329.933 184.709 329.932 183.475V138.889C329.933 137.655 330.424 136.473 331.296 135.6C332.169 134.728 333.351 134.237 334.585 134.236H372.37C373.604 134.237 374.786 134.728 375.659 135.6C376.531 136.473 377.022 137.655 377.023 138.889V183.475C377.022 184.709 376.531 185.891 375.659 186.764C374.786 187.636 373.604 188.127 372.37 188.128Z" fill="black"/>
<path d="M735.034 459.025H563.39C560.923 459.022 558.557 458.041 556.813 456.296C555.068 454.552 554.087 452.186 554.084 449.719V232.579C554.087 230.112 555.068 227.746 556.813 226.002C558.557 224.257 560.923 223.276 563.39 223.273H735.034C737.501 223.276 739.867 224.257 741.611 226.002C743.356 227.746 744.337 230.112 744.34 232.579V449.716C744.337 452.183 743.356 454.549 741.611 456.293C739.867 458.038 737.501 459.019 735.034 459.022V459.025ZM563.39 225.341C561.471 225.343 559.631 226.106 558.274 227.463C556.917 228.82 556.154 230.66 556.152 232.579V449.716C556.154 451.635 556.917 453.475 558.274 454.832C559.631 456.189 561.471 456.952 563.39 456.954H735.034C736.953 456.952 738.793 456.189 740.15 454.832C741.507 453.475 742.27 451.635 742.272 449.716V232.579C742.27 230.66 741.507 228.82 740.15 227.463C738.793 226.106 736.953 225.343 735.034 225.341H563.39Z" fill="#3F3D56"/>
<path d="M678.681 271.351H619.743C618.646 271.351 617.594 270.915 616.818 270.14C616.043 269.364 615.607 268.312 615.607 267.215C615.607 266.118 616.043 265.066 616.818 264.29C617.594 263.515 618.646 263.079 619.743 263.079H678.681C679.778 263.079 680.83 263.515 681.605 264.29C682.381 265.066 682.817 266.118 682.817 267.215C682.817 268.312 682.381 269.364 681.605 270.14C680.83 270.915 679.778 271.351 678.681 271.351Z" fill="#018580"/>
<path d="M707.633 310.646H590.791C589.694 310.646 588.642 310.21 587.867 309.435C587.091 308.659 586.655 307.607 586.655 306.51C586.655 305.413 587.091 304.361 587.867 303.585C588.642 302.81 589.694 302.374 590.791 302.374H707.633C708.73 302.374 709.782 302.81 710.558 303.585C711.334 304.361 711.769 305.413 711.769 306.51C711.769 307.607 711.334 308.659 710.558 309.435C709.782 310.21 708.73 310.646 707.633 310.646Z" fill="#E6E6E6"/>
<path d="M707.633 332.36H590.791C589.694 332.36 588.642 331.924 587.867 331.149C587.091 330.373 586.655 329.321 586.655 328.224C586.655 327.127 587.091 326.075 587.867 325.299C588.642 324.524 589.694 324.088 590.791 324.088H707.633C708.73 324.088 709.782 324.524 710.558 325.299C711.334 326.075 711.769 327.127 711.769 328.224C711.769 329.321 711.334 330.373 710.558 331.149C709.782 331.924 708.73 332.36 707.633 332.36Z" fill="#E6E6E6"/>
<path d="M707.633 354.074H590.791C589.694 354.074 588.642 353.638 587.867 352.863C587.091 352.087 586.655 351.035 586.655 349.938C586.655 348.841 587.091 347.789 587.867 347.013C588.642 346.238 589.694 345.802 590.791 345.802H707.633C708.73 345.802 709.782 346.238 710.558 347.013C711.334 347.789 711.769 348.841 711.769 349.938C711.769 351.035 711.334 352.087 710.558 352.863C709.782 353.638 708.73 354.074 707.633 354.074Z" fill="#E6E6E6"/>
<path d="M707.633 375.789H590.791C589.694 375.789 588.642 375.353 587.867 374.578C587.091 373.802 586.655 372.75 586.655 371.653C586.655 370.556 587.091 369.504 587.867 368.728C588.642 367.953 589.694 367.517 590.791 367.517H707.633C708.73 367.517 709.782 367.953 710.558 368.728C711.334 369.504 711.769 370.556 711.769 371.653C711.769 372.75 711.334 373.802 710.558 374.578C709.782 375.353 708.73 375.789 707.633 375.789Z" fill="#E6E6E6"/>
<path d="M707.633 397.503H590.791C589.694 397.503 588.642 397.067 587.867 396.292C587.091 395.516 586.655 394.464 586.655 393.367C586.655 392.27 587.091 391.218 587.867 390.442C588.642 389.667 589.694 389.231 590.791 389.231H707.633C708.73 389.231 709.782 389.667 710.558 390.442C711.334 391.218 711.769 392.27 711.769 393.367C711.769 394.464 711.334 395.516 710.558 396.292C709.782 397.067 708.73 397.503 707.633 397.503Z" fill="#E6E6E6"/>
<path d="M707.633 419.217H590.791C589.694 419.217 588.642 418.781 587.867 418.006C587.091 417.23 586.655 416.178 586.655 415.081C586.655 413.984 587.091 412.932 587.867 412.156C588.642 411.381 589.694 410.945 590.791 410.945H707.633C708.73 410.945 709.782 411.381 710.558 412.156C711.334 412.932 711.769 413.984 711.769 415.081C711.769 416.178 711.334 417.23 710.558 418.006C709.782 418.781 708.73 419.217 707.633 419.217Z" fill="#E6E6E6"/>
<path d="M180.95 459.025H9.306C6.83827 459.022 4.47248 458.04 2.72781 456.295C0.983145 454.55 0.00211719 452.184 0 449.716V232.579C0.00291117 230.112 0.984299 227.746 2.72888 226.002C4.47346 224.257 6.83879 223.276 9.306 223.273H180.95C183.417 223.276 185.783 224.257 187.527 226.002C189.272 227.746 190.253 230.112 190.256 232.579V449.716C190.253 452.183 189.272 454.549 187.527 456.293C185.783 458.038 183.417 459.019 180.95 459.022V459.025ZM9.306 225.341C7.38701 225.343 5.54721 226.106 4.19028 227.463C2.83335 228.82 2.07011 230.66 2.06799 232.579V449.716C2.07011 451.635 2.83335 453.475 4.19028 454.832C5.54721 456.189 7.38701 456.952 9.306 456.954H180.95C182.869 456.952 184.709 456.189 186.066 454.832C187.423 453.475 188.186 451.635 188.188 449.716V232.579C188.186 230.66 187.423 228.82 186.066 227.463C184.709 226.106 182.869 225.343 180.95 225.341H9.306Z" fill="#3F3D56"/>
<path d="M153.728 274.54H102.028C100.931 274.54 99.8791 274.104 99.1035 273.329C98.3278 272.553 97.8921 271.501 97.8921 270.404C97.8921 269.307 98.3278 268.255 99.1035 267.479C99.8791 266.704 100.931 266.268 102.028 266.268H153.728C154.825 266.268 155.877 266.704 156.653 267.479C157.428 268.255 157.864 269.307 157.864 270.404C157.864 271.501 157.428 272.553 156.653 273.329C155.877 274.104 154.825 274.54 153.728 274.54Z" fill="#3F3D56"/>
<path d="M153.728 296.254H102.028C100.931 296.254 99.8791 295.818 99.1035 295.043C98.3278 294.267 97.8921 293.215 97.8921 292.118C97.8921 291.021 98.3278 289.969 99.1035 289.193C99.8791 288.418 100.931 287.982 102.028 287.982H153.728C154.825 287.982 155.877 288.418 156.653 289.193C157.428 289.969 157.864 291.021 157.864 292.118C157.864 293.215 157.428 294.267 156.653 295.043C155.877 295.818 154.825 296.254 153.728 296.254Z" fill="#3F3D56"/>
<path d="M75.5009 308.618H37.7189C36.4853 308.617 35.3026 308.126 34.4302 307.254C33.5579 306.381 33.0672 305.199 33.0659 303.965V259.38C33.0672 258.146 33.5579 256.964 34.4302 256.091C35.3026 255.219 36.4853 254.728 37.7189 254.727H75.5009C76.7346 254.728 77.9173 255.219 78.7896 256.091C79.662 256.964 80.1526 258.146 80.1539 259.38V303.966C80.1526 305.2 79.662 306.382 78.7896 307.255C77.9173 308.127 76.7346 308.618 75.5009 308.619V308.618Z" fill="#018580"/>
<path d="M153.369 340.717H36.5271C35.4302 340.717 34.3782 340.281 33.6025 339.506C32.8269 338.73 32.3911 337.678 32.3911 336.581C32.3911 335.484 32.8269 334.432 33.6025 333.656C34.3782 332.881 35.4302 332.445 36.5271 332.445H153.369C154.466 332.445 155.518 332.881 156.294 333.656C157.069 334.432 157.505 335.484 157.505 336.581C157.505 337.678 157.069 338.73 156.294 339.506C155.518 340.281 154.466 340.717 153.369 340.717Z" fill="#E6E6E6"/>
<path d="M153.369 362.431H36.5271C35.4302 362.431 34.3782 361.995 33.6025 361.22C32.8269 360.444 32.3911 359.392 32.3911 358.295C32.3911 357.198 32.8269 356.146 33.6025 355.37C34.3782 354.595 35.4302 354.159 36.5271 354.159H153.369C154.466 354.159 155.518 354.595 156.294 355.37C157.069 356.146 157.505 357.198 157.505 358.295C157.505 359.392 157.069 360.444 156.294 361.22C155.518 361.995 154.466 362.431 153.369 362.431Z" fill="#E6E6E6"/>
<path d="M153.369 384.145H36.5271C35.4302 384.145 34.3782 383.709 33.6025 382.934C32.8269 382.158 32.3911 381.106 32.3911 380.009C32.3911 378.912 32.8269 377.86 33.6025 377.084C34.3782 376.309 35.4302 375.873 36.5271 375.873H153.369C154.466 375.873 155.518 376.309 156.294 377.084C157.069 377.86 157.505 378.912 157.505 380.009C157.505 381.106 157.069 382.158 156.294 382.934C155.518 383.709 154.466 384.145 153.369 384.145Z" fill="#E6E6E6"/>
<path d="M153.369 405.859H36.5271C35.4302 405.859 34.3782 405.423 33.6025 404.648C32.8269 403.872 32.3911 402.82 32.3911 401.723C32.3911 400.626 32.8269 399.574 33.6025 398.798C34.3782 398.023 35.4302 397.587 36.5271 397.587H153.369C153.912 397.587 154.45 397.694 154.952 397.902C155.454 398.11 155.91 398.414 156.294 398.798C156.678 399.182 156.982 399.638 157.19 400.14C157.398 400.642 157.505 401.18 157.505 401.723C157.505 402.266 157.398 402.804 157.19 403.306C156.982 403.808 156.678 404.264 156.294 404.648C155.91 405.032 155.454 405.336 154.952 405.544C154.45 405.752 153.912 405.859 153.369 405.859Z" fill="#E6E6E6"/>
<path d="M153.369 427.573H36.5271C35.4302 427.573 34.3782 427.137 33.6025 426.362C32.8269 425.586 32.3911 424.534 32.3911 423.437C32.3911 422.34 32.8269 421.288 33.6025 420.512C34.3782 419.737 35.4302 419.301 36.5271 419.301H153.369C154.466 419.301 155.518 419.737 156.294 420.512C157.069 421.288 157.505 422.34 157.505 423.437C157.505 424.534 157.069 425.586 156.294 426.362C155.518 427.137 154.466 427.573 153.369 427.573Z" fill="#E6E6E6"/>
<path d="M229.61 779.478H470.877C471.205 779.478 471.52 779.348 471.752 779.116C471.984 778.884 472.114 778.569 472.114 778.241C472.114 777.913 471.984 777.598 471.752 777.366C471.52 777.134 471.205 777.004 470.877 777.004H229.61C229.282 777.004 228.967 777.134 228.735 777.366C228.503 777.598 228.373 777.913 228.373 778.241C228.373 778.569 228.503 778.884 228.735 779.116C228.967 779.348 229.282 779.478 229.61 779.478Z" fill="#E6E6E6"/>
<path d="M423.74 735.935L431.383 757.614L407.762 759.472L409.846 735.935H423.74Z" fill="#ED9DA0"/>
<path d="M322.947 752.659V782.391H295.827L303.476 752.659H322.947Z" fill="#ED9DA0"/>
<path d="M406.08 536.49L415.99 630.638L427.78 743.755L407.469 746.055L355.909 571.176L329.275 651.696L324.318 759.472H298.918L295.818 709.301C295.818 709.301 297.676 542.064 308.206 536.49C318.736 530.916 406.08 536.49 406.08 536.49Z" fill="#2F2E41"/>
<path d="M330.005 621.444V577.578C330.006 576.364 330.489 575.201 331.347 574.342C332.206 573.484 333.369 573.001 334.583 573H371.755C372.969 573.001 374.132 573.484 374.991 574.342C375.849 575.201 376.332 576.364 376.333 577.578V621.444C376.332 622.658 375.849 623.821 374.991 624.68C374.132 625.538 372.969 626.021 371.755 626.022H334.578C333.364 626.021 332.201 625.538 331.342 624.68C330.484 623.821 330.001 622.658 330 621.444H330.005Z" fill="white"/>
<path d="M313.438 766.632C313.438 766.632 324.029 765.043 324.029 765.573C324.029 766.103 336.738 800.524 324.029 799.994C311.32 799.464 263.129 792.58 266.307 779.871C269.485 767.162 285.371 770.871 285.371 770.871L299.671 762.928L313.438 766.632Z" fill="#2F2E41"/>
<path d="M417.715 755.665C411.625 756.327 407.124 754.076 407.124 754.606C407.124 755.136 394.415 782.436 407.124 781.906C419.833 781.376 464.324 781.606 461.142 768.898C457.96 756.19 445.782 759.898 445.782 759.898L431.482 751.955C431.482 751.955 423.805 755.005 417.715 755.665Z" fill="#2F2E41"/>
<path d="M355.122 359.549C368.584 359.549 379.497 348.636 379.497 335.174C379.497 321.712 368.584 310.799 355.122 310.799C341.66 310.799 330.747 321.712 330.747 335.174C330.747 348.636 341.66 359.549 355.122 359.549Z" fill="#ED9DA0"/>
<path d="M374.489 332.09C374.489 332.09 378.825 375.448 384.4 378.545C389.975 381.642 341.662 384.739 341.662 384.739C341.662 384.739 353.43 345.098 349.714 341.381C345.998 337.664 374.489 332.09 374.489 332.09Z" fill="#ED9DA0"/>
<path d="M322.462 377.306C322.462 377.306 339.805 360.582 359.626 363.679C379.447 366.776 393.693 370.492 393.693 370.492C393.693 370.492 424.043 386.592 424.663 399.603C425.283 412.614 413.514 461.543 413.514 461.543C413.514 461.543 407.939 541.443 407.32 541.443C406.701 541.443 302.642 540.204 302.642 540.204L321.842 436.146L322.462 377.306Z" fill="#E6E6E6"/>
<path d="M326.513 526.35C330.527 527.434 337.445 525.935 344.668 523.569C353.809 520.401 362.737 516.648 371.395 512.333C371.395 512.333 415.995 494.371 428.995 485.08C441.995 475.789 433.331 438.625 433.331 438.625L413.51 444.819L414.749 467.737L365.817 499.326C358.128 500.047 350.537 501.573 343.166 503.879C334.928 506.586 326.926 510.804 324.033 517.279C323.582 518.267 323.262 519.309 323.079 520.379C322.493 523.801 323.881 525.632 326.513 526.35Z" fill="#ED9DA0"/>
<path d="M332.991 426.857L336.707 459.685L342.87 540.685C342.87 540.685 376.97 581.706 357.77 582.945C338.57 584.184 328.039 542.685 328.039 542.685C328.039 542.685 308.839 477.029 309.457 463.402C310.075 449.775 309.457 426.858 309.457 426.858L332.991 426.857Z" fill="#ED9DA0"/>
<path d="M417.23 394.03C417.23 394.03 429.618 398.366 434.573 415.709C439.528 433.052 437.673 444.821 437.673 444.821L411.659 449.157L417.23 394.03Z" fill="#E6E6E6"/>
<path d="M334.849 376.066C334.849 376.066 312.549 371.111 309.449 392.166C307.51 406.332 306.475 420.607 306.349 434.904C306.349 434.904 327.409 424.994 336.699 434.904L334.849 376.066Z" fill="#E6E6E6"/>
<path d="M336.091 304.835C339.269 303.237 342.871 302.687 346.38 303.265C349.849 303.686 353.469 304.689 356.751 303.558C360.495 302.231 363.319 298.23 367.263 298.484C368.939 298.709 370.519 299.397 371.826 300.472C376.982 304.192 380.918 309.361 383.134 315.321C383.576 316.964 384.328 318.506 385.351 319.865C386.032 320.476 386.679 321.123 387.291 321.803C387.895 322.744 388.255 323.82 388.337 324.935C389.128 331.074 387.656 337.291 384.195 342.424C382.144 345.453 379.453 347.986 377.335 351.016C375.218 354.046 368.585 358.902 368.09 356.96C367.595 355.019 366.777 353.079 366.839 351.051C366.972 347.067 369.221 343.789 367.267 340.316C366.056 338.168 363.262 336.044 361.389 337.633C360.649 338.244 360.346 339.232 359.666 339.897C358.33 341.19 355.934 340.714 354.727 339.291C353.613 337.777 346.165 333.093 346.374 331.227C346.752 322.725 350.406 321.336 341.012 321.792C337.514 321.962 334.682 319.549 332.454 316.416C329.515 312.284 332.208 307.045 336.091 304.835Z" fill="#090814"/>
<path d="M532.236 599.947V652.53H663.977C670.921 652.725 677.66 650.165 682.723 645.41C687.787 640.655 690.764 634.09 691.006 627.147C691.247 620.205 688.733 613.449 684.012 608.353C679.291 603.257 672.746 600.236 665.806 599.947C665.197 599.926 664.587 599.926 663.977 599.947H532.236Z" fill="#F2F2F2"/>
<path d="M529 652.125C529 652.662 529.213 653.176 529.592 653.555C529.972 653.934 530.486 654.147 531.022 654.147H666.323C673.671 654.147 680.719 651.228 685.915 646.032C691.111 640.836 694.03 633.788 694.03 626.44C694.03 619.091 691.111 612.044 685.915 606.848C680.719 601.652 673.671 598.732 666.323 598.732H531.023C530.487 598.732 529.972 598.945 529.593 599.325C529.214 599.704 529 600.219 529 600.755C529 601.291 529.214 601.806 529.593 602.185C529.972 602.564 530.487 602.777 531.023 602.777H666.323C672.572 602.818 678.551 605.329 682.956 609.762C687.36 614.195 689.832 620.191 689.832 626.44C689.832 632.689 687.36 638.685 682.956 643.118C678.551 647.551 672.572 650.062 666.323 650.102H531.023C530.486 650.102 529.972 650.316 529.592 650.695C529.213 651.074 529 651.589 529 652.125Z" fill="#E6E6E6"/>
<path d="M532.235 612.081H673.806C673.859 612.082 673.912 612.072 673.961 612.052C674.01 612.032 674.055 612.003 674.093 611.965C674.131 611.928 674.161 611.884 674.182 611.835C674.203 611.786 674.214 611.734 674.214 611.68C674.215 611.627 674.205 611.575 674.185 611.525C674.165 611.476 674.135 611.431 674.098 611.393C674.061 611.355 674.017 611.325 673.968 611.305C673.919 611.284 673.866 611.273 673.813 611.272H532.235C532.128 611.272 532.025 611.315 531.949 611.391C531.873 611.467 531.831 611.57 531.831 611.677C531.831 611.784 531.873 611.887 531.949 611.963C532.025 612.039 532.128 612.081 532.235 612.081Z" fill="#CCCCCC"/>
<path d="M532.235 621.788H673.806C673.859 621.789 673.912 621.779 673.961 621.759C674.01 621.739 674.055 621.71 674.093 621.672C674.131 621.635 674.161 621.591 674.182 621.542C674.203 621.493 674.214 621.441 674.214 621.387C674.215 621.334 674.205 621.282 674.185 621.232C674.165 621.183 674.135 621.138 674.098 621.1C674.061 621.062 674.017 621.032 673.968 621.012C673.919 620.991 673.866 620.98 673.813 620.979H532.235C532.128 620.979 532.025 621.022 531.949 621.098C531.873 621.174 531.831 621.277 531.831 621.384C531.831 621.491 531.873 621.594 531.949 621.67C532.025 621.746 532.128 621.788 532.235 621.788Z" fill="#CCCCCC"/>
<path d="M532.235 631.496H673.806C673.859 631.497 673.912 631.487 673.961 631.467C674.01 631.447 674.055 631.418 674.093 631.38C674.131 631.343 674.161 631.299 674.182 631.25C674.203 631.201 674.214 631.149 674.214 631.095C674.215 631.042 674.205 630.99 674.185 630.94C674.165 630.891 674.135 630.846 674.098 630.808C674.061 630.771 674.017 630.74 673.968 630.72C673.919 630.699 673.866 630.688 673.813 630.687H532.235C532.128 630.687 532.025 630.73 531.949 630.806C531.873 630.882 531.831 630.985 531.831 631.092C531.831 631.199 531.873 631.302 531.949 631.378C532.025 631.454 532.128 631.496 532.235 631.496Z" fill="#CCCCCC"/>
<path d="M532.235 641.204H673.806C673.859 641.205 673.912 641.195 673.961 641.175C674.01 641.155 674.055 641.126 674.093 641.088C674.131 641.051 674.161 641.007 674.182 640.958C674.203 640.909 674.214 640.857 674.214 640.803C674.215 640.75 674.205 640.698 674.185 640.648C674.165 640.599 674.135 640.554 674.098 640.516C674.061 640.478 674.017 640.448 673.968 640.428C673.919 640.407 673.866 640.396 673.813 640.395H532.235C532.128 640.395 532.025 640.438 531.949 640.514C531.873 640.59 531.831 640.693 531.831 640.8C531.831 640.907 531.873 641.01 531.949 641.086C532.025 641.162 532.128 641.204 532.235 641.204Z" fill="#CCCCCC"/>
<path d="M557.069 544.546V597.133H688.811C695.755 597.328 702.494 594.768 707.557 590.013C712.621 585.258 715.598 578.693 715.84 571.75C716.081 564.808 713.567 558.052 708.846 552.956C704.125 547.86 697.58 544.839 690.64 544.55C690.03 544.529 689.421 544.529 688.811 544.55L557.069 544.546Z" fill="#F2F2F2"/>
<path d="M553.834 596.723C553.834 597.26 554.047 597.774 554.427 598.153C554.806 598.532 555.32 598.745 555.856 598.745H691.155C698.503 598.745 705.551 595.826 710.747 590.63C715.943 585.434 718.863 578.386 718.863 571.038C718.863 563.689 715.943 556.642 710.747 551.446C705.551 546.25 698.503 543.33 691.155 543.33H555.855C555.319 543.33 554.804 543.544 554.425 543.923C554.046 544.302 553.833 544.817 553.833 545.353C553.833 545.889 554.046 546.404 554.425 546.783C554.804 547.162 555.319 547.375 555.855 547.375H691.155C697.404 547.416 703.383 549.927 707.788 554.36C712.192 558.793 714.664 564.789 714.664 571.038C714.664 577.287 712.192 583.283 707.788 587.716C703.383 592.149 697.404 594.66 691.155 594.7H555.855C555.319 594.701 554.805 594.914 554.426 595.294C554.047 595.673 553.834 596.187 553.834 596.723Z" fill="#E6E6E6"/>
<path d="M557.07 556.681H698.641C698.748 556.682 698.852 556.641 698.928 556.566C699.005 556.491 699.048 556.388 699.049 556.281C699.051 556.174 699.009 556.07 698.934 555.994C698.859 555.917 698.756 555.873 698.649 555.872H557.07C556.963 555.872 556.86 555.915 556.784 555.991C556.708 556.067 556.666 556.17 556.666 556.277C556.666 556.384 556.708 556.487 556.784 556.563C556.86 556.639 556.963 556.681 557.07 556.681Z" fill="#CCCCCC"/>
<path d="M557.07 566.388H698.641C698.694 566.389 698.747 566.379 698.796 566.359C698.845 566.339 698.89 566.31 698.928 566.273C698.966 566.236 698.996 566.191 699.017 566.142C699.038 566.094 699.049 566.041 699.049 565.988C699.05 565.935 699.04 565.882 699.02 565.833C699 565.784 698.971 565.739 698.934 565.701C698.897 565.663 698.852 565.633 698.804 565.612C698.755 565.591 698.702 565.58 698.649 565.579H557.07C556.963 565.579 556.86 565.622 556.784 565.698C556.708 565.774 556.666 565.877 556.666 565.984C556.666 566.091 556.708 566.194 556.784 566.27C556.86 566.346 556.963 566.388 557.07 566.388Z" fill="#CCCCCC"/>
<path d="M557.07 576.096H698.641C698.748 576.097 698.852 576.056 698.928 575.981C699.005 575.906 699.048 575.803 699.049 575.696C699.051 575.589 699.009 575.485 698.934 575.409C698.859 575.332 698.756 575.288 698.649 575.287H557.07C556.963 575.287 556.86 575.33 556.784 575.406C556.708 575.482 556.666 575.585 556.666 575.692C556.666 575.799 556.708 575.902 556.784 575.978C556.86 576.054 556.963 576.096 557.07 576.096Z" fill="#CCCCCC"/>
<path d="M557.07 585.803H698.641C698.748 585.804 698.852 585.763 698.928 585.688C699.005 585.613 699.048 585.51 699.049 585.403C699.051 585.296 699.009 585.192 698.934 585.116C698.859 585.039 698.756 584.995 698.649 584.994H557.07C556.963 584.994 556.86 585.037 556.784 585.113C556.708 585.189 556.666 585.292 556.666 585.399C556.666 585.506 556.708 585.609 556.784 585.685C556.86 585.761 556.963 585.803 557.07 585.803Z" fill="#CCCCCC"/>
<path d="M655.149 527.005H595.126C594.556 527.005 593.994 527.136 593.483 527.387L578.337 534.971C577.839 535.183 577.414 535.537 577.115 535.989C576.816 536.441 576.657 536.97 576.657 537.512C576.657 538.053 576.816 538.583 577.115 539.035C577.414 539.486 577.839 539.84 578.337 540.052L593.486 547.636C593.997 547.888 594.559 548.019 595.129 548.018H655.152C655.979 548.066 656.792 547.786 657.414 547.239C658.036 546.692 658.418 545.922 658.476 545.095V529.927C658.417 529.101 658.035 528.33 657.413 527.783C656.79 527.236 655.977 526.957 655.149 527.005Z" fill="#090814"/>
<path d="M658.476 529.927V545.095C658.418 545.922 658.036 546.692 657.414 547.239C656.792 547.786 655.979 548.066 655.152 548.018H643.193V527.005H655.151C655.978 526.957 656.791 527.237 657.413 527.784C658.035 528.331 658.417 529.101 658.476 529.927Z" fill="#018580"/>
<path d="M114.679 120.751C112.382 120.751 110.107 120.299 107.984 119.419C105.862 118.54 103.933 117.251 102.309 115.627C100.684 114.002 99.3957 112.073 98.5167 109.95C97.6378 107.828 97.1856 105.553 97.186 103.255V98.5653C97.186 93.9258 99.029 89.4764 102.31 86.1958C105.59 82.9153 110.04 81.0723 114.679 81.0723C114.961 81.0723 115.232 81.1844 115.431 81.3839C115.631 81.5834 115.743 81.8541 115.743 82.1363C115.743 82.4185 115.631 82.6891 115.431 82.8886C115.232 83.0882 114.961 83.2003 114.679 83.2003C112.661 83.2001 110.663 83.5974 108.799 84.3695C106.935 85.1415 105.241 86.2732 103.814 87.6999C102.388 89.1266 101.256 90.8204 100.484 92.6845C99.7115 94.5486 99.314 96.5466 99.314 98.5643V103.255C99.314 107.33 100.933 111.238 103.814 114.12C106.696 117.001 110.604 118.62 114.679 118.62C118.754 118.62 122.662 117.001 125.544 114.12C128.425 111.238 130.044 107.33 130.044 103.255V94.8093C130.044 94.5271 130.156 94.2564 130.356 94.0569C130.555 93.8574 130.826 93.7453 131.108 93.7453C131.39 93.7453 131.661 93.8574 131.86 94.0569C132.06 94.2564 132.172 94.5271 132.172 94.8093V103.255C132.173 105.554 131.721 107.83 130.842 109.953C129.962 112.077 128.673 114.006 127.048 115.631C125.423 117.257 123.493 118.546 121.37 119.425C119.246 120.304 116.97 120.756 114.672 120.755L114.679 120.751Z" fill="black"/>
<path d="M81.8231 120.752C79.5256 120.752 77.2506 120.3 75.1281 119.42C73.0056 118.541 71.077 117.252 69.4526 115.628C67.8282 114.003 66.5397 112.074 65.6608 109.951C64.7819 107.829 64.3297 105.554 64.3301 103.256V94.8103C64.3301 94.5281 64.4422 94.2574 64.6417 94.0579C64.8413 93.8584 65.1119 93.7463 65.3941 93.7463C65.6763 93.7463 65.9469 93.8584 66.1464 94.0579C66.346 94.2574 66.4581 94.5281 66.4581 94.8103V103.256C66.4581 107.331 68.0769 111.239 70.9584 114.121C73.8399 117.002 77.748 118.621 81.8231 118.621C85.8981 118.621 89.8063 117.002 92.6878 114.121C95.5693 111.239 97.1881 107.331 97.1881 103.256V98.5653C97.1881 96.5476 96.7906 94.5496 96.0185 92.6855C95.2463 90.8214 94.1145 89.1276 92.6877 87.7009C91.2609 86.2742 89.5671 85.1426 87.7029 84.3705C85.8388 83.5984 83.8408 83.2011 81.8231 83.2013C81.5409 83.2013 81.2703 83.0892 81.0707 82.8896C80.8712 82.6901 80.7591 82.4195 80.7591 82.1373C80.7591 81.8551 80.8712 81.5844 81.0707 81.3849C81.2703 81.1854 81.5409 81.0733 81.8231 81.0733C86.462 81.0735 90.9108 82.9164 94.1911 86.1965C97.4714 89.4766 99.3145 93.9254 99.3151 98.5643V103.255C99.3159 105.554 98.8638 107.83 97.9846 109.953C97.1054 112.077 95.8164 114.006 94.1912 115.631C92.566 117.257 90.6365 118.546 88.513 119.425C86.3894 120.304 84.1134 120.756 81.8151 120.755L81.8231 120.752Z" fill="black"/>
<path d="M131.108 65.8323C130.826 65.8323 130.555 65.7202 130.356 65.5206C130.156 65.3211 130.044 65.0505 130.044 64.7683V51.6253C130.044 47.5502 128.425 43.6421 125.544 40.7606C122.662 37.8791 118.754 36.2603 114.679 36.2603C110.604 36.2603 106.696 37.8791 103.814 40.7606C100.933 43.6421 99.314 47.5502 99.314 51.6253C99.314 51.9074 99.2019 52.1781 99.0024 52.3776C98.8029 52.5772 98.5322 52.6893 98.25 52.6893C97.9679 52.6893 97.6972 52.5772 97.4977 52.3776C97.2981 52.1781 97.186 51.9074 97.186 51.6253C97.1686 49.317 97.6082 47.0281 98.4794 44.8905C99.3507 42.7529 100.636 40.8088 102.262 39.1704C103.889 37.532 105.823 36.2317 107.954 35.3443C110.085 34.4569 112.37 34 114.679 34C116.987 34 119.272 34.4569 121.403 35.3443C123.534 36.2317 125.469 37.532 127.095 39.1704C128.721 40.8088 130.006 42.7529 130.878 44.8905C131.749 47.0281 132.189 49.317 132.171 51.6253V64.7673C132.171 64.907 132.144 65.0454 132.09 65.1745C132.037 65.3037 131.959 65.421 131.86 65.5199C131.761 65.6188 131.644 65.6973 131.515 65.7509C131.386 65.8045 131.248 65.8321 131.108 65.8323Z" fill="black"/>
<path d="M98.2521 99.6323C97.9699 99.6323 97.6993 99.5202 97.4997 99.3206C97.3002 99.1211 97.1881 98.8505 97.1881 98.5683V51.6253C97.1881 47.5502 95.5693 43.6421 92.6878 40.7606C89.8063 37.8791 85.8981 36.2603 81.8231 36.2603C77.748 36.2603 73.8399 37.8791 70.9584 40.7606C68.0769 43.6421 66.4581 47.5502 66.4581 51.6253V64.7683C66.4581 65.0505 66.346 65.3211 66.1465 65.5206C65.9469 65.7202 65.6763 65.8323 65.3941 65.8323C65.1119 65.8323 64.8413 65.7202 64.6417 65.5206C64.4422 65.3211 64.3301 65.0505 64.3301 64.7683V51.6253C64.3126 49.317 64.7522 47.0281 65.6235 44.8905C66.4947 42.7529 67.7804 40.8088 69.4065 39.1704C71.0326 37.532 72.9668 36.2317 75.0978 35.3443C77.2287 34.4569 79.5142 34 81.8226 34C84.1309 34 86.4165 34.4569 88.5474 35.3443C90.6784 36.2317 92.6126 37.532 94.2387 39.1704C95.8647 40.8088 97.1505 42.7529 98.0217 44.8905C98.893 47.0281 99.3325 49.317 99.3151 51.6253V98.5643C99.3156 98.7042 99.2885 98.8429 99.2353 98.9724C99.1822 99.1019 99.104 99.2196 99.0052 99.3189C98.9065 99.4181 98.7891 99.4968 98.6599 99.5506C98.5306 99.6044 98.3921 99.6321 98.2521 99.6323Z" fill="black"/>
<path d="M120.877 97.2803C120.595 97.2803 120.324 97.1682 120.125 96.9686C119.925 96.7691 119.813 96.4985 119.813 96.2163C119.813 95.9341 119.925 95.6634 120.125 95.4639C120.324 95.2644 120.595 95.1523 120.877 95.1523C124.952 95.1523 128.861 93.5335 131.742 90.652C134.624 87.7705 136.242 83.8623 136.242 79.7873C136.242 75.7122 134.624 71.8041 131.742 68.9226C128.861 66.0411 124.952 64.4223 120.877 64.4223H118.53C118.248 64.4223 117.977 64.3102 117.778 64.1106C117.578 63.9111 117.466 63.6405 117.466 63.3583C117.466 63.0761 117.578 62.8054 117.778 62.6059C117.977 62.4064 118.248 62.2943 118.53 62.2943H120.877C123.186 62.2768 125.474 62.7164 127.612 63.5876C129.75 64.4589 131.694 65.7446 133.332 67.3707C134.971 68.9967 136.271 70.931 137.158 73.0619C138.046 75.1929 138.503 77.4784 138.503 79.7868C138.503 82.0951 138.046 84.3806 137.158 86.5116C136.271 88.6425 134.971 90.5768 133.332 92.2029C131.694 93.8289 129.75 95.1146 127.612 95.9859C125.474 96.8571 123.186 97.2977 120.877 97.2803Z" fill="black"/>
<path d="M116.02 64.4203C115.738 64.4203 115.467 64.3082 115.268 64.1086C115.068 63.9091 114.956 63.6384 114.956 63.3563C114.956 63.0741 115.068 62.8034 115.268 62.6039C115.467 62.4044 115.738 62.2923 116.02 62.2923C117.113 62.2923 118.196 62.0769 119.206 61.6586C120.216 61.2403 121.133 60.6272 121.906 59.8542C122.679 59.0813 123.292 58.1636 123.711 57.1537C124.129 56.1438 124.344 55.0614 124.344 53.9683C124.344 52.8751 124.129 51.7927 123.711 50.7828C123.292 49.7729 122.679 48.8553 121.906 48.0823C121.133 47.3093 120.216 46.6962 119.206 46.2779C118.196 45.8596 117.113 45.6443 116.02 45.6443H114.679C114.397 45.6443 114.126 45.5322 113.927 45.3326C113.727 45.1331 113.615 44.8624 113.615 44.5803C113.615 44.2981 113.727 44.0274 113.927 43.8279C114.126 43.6284 114.397 43.5163 114.679 43.5163H116.02C117.41 43.4891 118.791 43.7393 120.082 44.2522C121.374 44.7652 122.55 45.5306 123.543 46.5036C124.535 47.4767 125.323 48.6379 125.861 49.9193C126.4 51.2006 126.677 52.5765 126.677 53.9663C126.677 55.356 126.4 56.7319 125.861 58.0132C125.323 59.2946 124.535 60.4558 123.543 61.4289C122.55 62.4019 121.374 63.1673 120.082 63.6803C118.791 64.1932 117.41 64.4434 116.02 64.4163V64.4203Z" fill="black"/>
<path d="M116.021 114.989H114.68C114.398 114.989 114.127 114.877 113.928 114.678C113.728 114.478 113.616 114.207 113.616 113.925C113.616 113.643 113.728 113.372 113.928 113.173C114.127 112.973 114.398 112.861 114.68 112.861H116.021C117.114 112.861 118.197 112.646 119.207 112.228C120.217 111.809 121.134 111.196 121.907 110.423C122.68 109.65 123.293 108.733 123.712 107.723C124.13 106.713 124.345 105.63 124.345 104.537C124.345 103.444 124.13 102.362 123.712 101.352C123.293 100.342 122.68 99.4243 121.907 98.6513C121.134 97.8783 120.217 97.2652 119.207 96.8469C118.197 96.4286 117.114 96.2133 116.021 96.2133C115.745 96.2048 115.483 96.089 115.29 95.8905C115.097 95.692 114.99 95.4263 114.99 95.1498C114.99 94.8732 115.097 94.6075 115.29 94.409C115.483 94.2105 115.745 94.0947 116.021 94.0863C117.411 94.0591 118.792 94.3093 120.083 94.8222C121.375 95.3352 122.551 96.1006 123.544 97.0736C124.536 98.0467 125.324 99.2079 125.862 100.489C126.401 101.771 126.678 103.146 126.678 104.536C126.678 105.926 126.401 107.302 125.862 108.583C125.324 109.865 124.536 111.026 123.544 111.999C122.551 112.972 121.375 113.737 120.083 114.25C118.792 114.763 117.411 115.013 116.021 114.986V114.989Z" fill="black"/>
<path d="M75.6253 97.2812C73.317 97.2987 71.0281 96.8591 68.8905 95.9879C66.7529 95.1166 64.8088 93.8309 63.1704 92.2048C61.532 90.5788 60.2317 88.6445 59.3443 86.5136C58.4569 84.3826 58 82.0971 58 79.7887C58 77.4804 58.4569 75.1949 59.3443 73.0639C60.2317 70.933 61.532 68.9987 63.1704 67.3727C64.8088 65.7466 66.7529 64.4609 68.8905 63.5896C71.0281 62.7184 73.317 62.2788 75.6253 62.2962H77.9723C78.2544 62.2962 78.5251 62.4083 78.7246 62.6079C78.9242 62.8074 79.0363 63.0781 79.0363 63.3602C79.0363 63.6424 78.9242 63.9131 78.7246 64.1126C78.5251 64.3121 78.2544 64.4242 77.9723 64.4242H75.6253C73.6075 64.4242 71.6095 64.8217 69.7453 65.5938C67.8812 66.366 66.1873 67.4978 64.7606 68.9246C63.3338 70.3513 62.202 72.0451 61.4299 73.9093C60.6577 75.7735 60.2603 77.7715 60.2603 79.7892C60.2603 81.807 60.6577 83.805 61.4299 85.6692C62.202 87.5333 63.3338 89.2272 64.7606 90.6539C66.1873 92.0807 67.8812 93.2125 69.7453 93.9847C71.6095 94.7568 73.6075 95.1542 75.6253 95.1542C75.9074 95.1542 76.1781 95.2663 76.3776 95.4659C76.5772 95.6654 76.6893 95.9361 76.6893 96.2182C76.6893 96.5004 76.5772 96.7711 76.3776 96.9706C76.1781 97.1701 75.9074 97.2812 75.6253 97.2812Z" fill="black"/>
<path d="M80.4802 64.4213C79.0907 64.4484 77.7097 64.1982 76.418 63.6853C75.1264 63.1723 73.95 62.4069 72.9577 61.4339C71.9654 60.4608 71.1771 59.2996 70.639 58.0182C70.1009 56.7369 69.8237 55.361 69.8237 53.9713C69.8237 52.5815 70.1009 51.2056 70.639 49.9243C71.1771 48.6429 71.9654 47.4817 72.9577 46.5086C73.95 45.5356 75.1264 44.7702 76.418 44.2572C77.7097 43.7443 79.0907 43.4941 80.4802 43.5213H81.8212C82.1034 43.5213 82.374 43.6334 82.5736 43.8329C82.7731 44.0324 82.8852 44.3031 82.8852 44.5853C82.8852 44.8674 82.7731 45.1381 82.5736 45.3376C82.374 45.5372 82.1034 45.6493 81.8212 45.6493H80.4802C79.3871 45.6493 78.3046 45.8646 77.2947 46.2829C76.2848 46.7012 75.3672 47.3143 74.5942 48.0873C73.8213 48.8603 73.2081 49.7779 72.7898 50.7878C72.3715 51.7977 72.1562 52.8801 72.1562 53.9733C72.1562 55.0664 72.3715 56.1488 72.7898 57.1587C73.2081 58.1686 73.8213 59.0863 74.5942 59.8592C75.3672 60.6322 76.2848 61.2453 77.2947 61.6636C78.3046 62.082 79.3871 62.2973 80.4802 62.2973C80.7566 62.3057 81.0189 62.4215 81.2114 62.62C81.4039 62.8185 81.5116 63.0842 81.5116 63.3608C81.5116 63.6373 81.4039 63.903 81.2114 64.1015C81.0189 64.3 80.7566 64.4158 80.4802 64.4243V64.4213Z" fill="black"/>
<path d="M81.8222 114.989H80.4812C79.0917 115.016 77.7107 114.766 76.419 114.253C75.1274 113.74 73.951 112.975 72.9587 112.002C71.9664 111.029 71.1781 109.868 70.64 108.586C70.1019 107.305 69.8247 105.929 69.8247 104.539C69.8247 103.149 70.1019 101.774 70.64 100.492C71.1781 99.2109 71.9664 98.0497 72.9587 97.0766C73.951 96.1036 75.1274 95.3382 76.419 94.8252C77.7107 94.3123 79.0917 94.0621 80.4812 94.0892C80.7634 94.0892 81.034 94.2014 81.2335 94.4009C81.4331 94.6004 81.5452 94.8711 81.5452 95.1532C81.5452 95.4354 81.4331 95.7061 81.2335 95.9056C81.034 96.1051 80.7634 96.2173 80.4812 96.2173C79.388 96.2173 78.3056 96.4326 77.2957 96.8509C76.2858 97.2692 75.3682 97.8823 74.5952 98.6553C73.8223 99.4282 73.2091 100.346 72.7908 101.356C72.3725 102.366 72.1572 103.448 72.1572 104.541C72.1572 105.634 72.3725 106.717 72.7908 107.727C73.2091 108.737 73.8223 109.654 74.5952 110.427C75.3682 111.2 76.2858 111.813 77.2957 112.232C78.3056 112.65 79.388 112.865 80.4812 112.865H81.8222C82.1044 112.865 82.375 112.977 82.5745 113.177C82.7741 113.376 82.8862 113.647 82.8862 113.929C82.8862 114.211 82.7741 114.482 82.5745 114.682C82.375 114.881 82.1044 114.993 81.8222 114.993V114.989Z" fill="black"/>
</g>
<defs>
<clipPath id="clip0_27_312">
<rect width="744.34" height="800" fill="white"/>
</clipPath>
</defs>
</svg>
