<svg width="500" height="385" viewBox="0 0 500 385" fill="none" xmlns="http://www.w3.org/2000/svg">
<g clip-path="url(#clip0_56_302)">
<path d="M77.573 289.702H67.044C66.732 288.55 66.352 287.427 65.906 286.338L74.139 280.127L63.848 266.485L55.036 273.132C53.126 271.873 51.058 270.835 48.867 270.054C48.867 270.031 48.874 270.01 48.874 269.988V258H31.786V269.337C29.915 269.831 28.119 270.508 26.416 271.348L18.659 262.819L6.017 274.316L14.004 283.098C13.314 284.322 12.711 285.601 12.202 286.927C12.129 286.923 12.06 286.905 11.987 286.905H0V303.993H11.091C11.344 305.05 11.649 306.087 12.014 307.095L3.433 313.568L13.724 327.21L22.336 320.713C24.289 322.117 26.423 323.282 28.698 324.168V335.695H45.786V325.364C47.929 324.862 49.98 324.125 51.909 323.175L58.913 330.876L71.555 319.379L64.328 311.433C65.16 309.96 65.866 308.408 66.432 306.789H77.573V289.702ZM47.893 310.59C32.631 319.014 17.135 303.518 25.558 288.255C26.659 286.261 28.316 284.603 30.311 283.502C45.573 275.079 61.069 290.574 52.646 305.837C51.545 307.832 49.888 309.489 47.893 310.59Z" stroke="white" stroke-width="2" stroke-miterlimit="10" stroke-linecap="round" stroke-linejoin="round"/>
<path d="M269 10C269 4.47715 273.477 0 279 0H424C429.523 0 434 4.47715 434 10V81C434 86.5228 429.523 91 424 91H269V10Z" fill="white" fill-opacity="0.37"/>
<path d="M33 101C33 95.4772 37.4772 91 43 91H352V276C352 281.523 347.523 286 342 286H43C37.4772 286 33 281.523 33 276V101Z" fill="white" fill-opacity="0.37"/>
<path d="M78.1619 118.691H57.582V259.476H78.1619V118.691Z" fill="white"/>
<path d="M121.127 149.279H100.547V259.476H121.127V149.279Z" fill="black"/>
<path d="M207.055 144.423H186.476V259.476H207.055V144.423Z" fill="black"/>
<path d="M250.021 201.95H229.441V259.476H250.021V201.95Z" fill="white"/>
<path d="M292.986 177.919H272.406V259.476H292.986V177.919Z" fill="black"/>
<path d="M297.217 181.095H268.174L282.686 164.595L297.217 181.095Z" fill="black"/>
<path d="M164.091 115.16H143.511V259.476H164.091V115.16Z" fill="white"/>
<path d="M168.323 118.218H139.28L153.791 101.717L168.323 118.218Z" fill="white"/>
<path d="M335.951 201.95H315.371V259.476H335.951V201.95Z" fill="white"/>
<path d="M426.589 66.639L426.585 66.2151H426.574C426.271 57.2101 418.818 50.0151 409.758 50.0911C400.556 50.1691 393.133 57.719 393.211 66.921C393.233 69.483 393.861 72.025 395.018 74.306L395.005 74.3121L395.221 74.71L395.41 75.058L395.418 75.054C396.307 76.604 397.432 77.993 398.769 79.193L398.763 79.2001L399.087 79.4771L399.408 79.75L399.414 79.743C402.42 82.178 406.176 83.501 410.041 83.468C413.43 83.439 416.668 82.3991 419.438 80.4601L419.443 80.4681L419.818 80.1901L420.127 79.961L420.121 79.9511C424.107 76.8501 426.492 72.0871 426.58 67.0621H426.593L426.589 66.639ZM394.059 66.915C393.985 58.18 401.031 51.014 409.766 50.94C418.359 50.867 425.434 57.686 425.732 66.223L418.099 66.288C417.841 61.957 414.217 58.53 409.83 58.568C405.301 58.606 401.648 62.322 401.686 66.851C401.698 68.223 402.057 69.5681 402.731 70.7711L399.255 72.365L395.782 73.957C394.675 71.784 394.08 69.358 394.059 66.915ZM417.266 66.7181C417.284 68.7831 416.414 70.778 414.88 72.192C413.528 73.437 411.782 74.1311 409.963 74.1461C408.22 74.1611 406.52 73.547 405.175 72.419L405.171 72.415C404.6 71.934 404.103 71.3671 403.696 70.7291C402.948 69.5591 402.547 68.2151 402.535 66.8421C402.501 62.7801 405.777 59.448 409.838 59.414C413.899 59.38 417.232 62.6571 417.266 66.7181ZM399.321 78.555C398.075 77.436 397.024 76.1431 396.189 74.7021L403.187 71.4941C403.516 71.9621 403.89 72.392 404.304 72.779L399.321 78.555ZM410.034 82.621C406.374 82.652 402.816 81.4061 399.966 79.1051L404.108 74.304L404.952 73.3261C406.396 74.4201 408.162 75.0091 409.97 74.9941C411.823 74.9781 413.608 74.332 415.051 73.164L419.002 79.7361C416.362 81.5971 413.27 82.594 410.034 82.621ZM419.684 79.226L415.692 72.586C417.153 71.128 418.016 69.1771 418.106 67.1341L425.739 67.069C425.65 71.799 423.415 76.285 419.684 79.226Z" fill="white"/>
<path d="M310.71 66.2981H310.699C310.396 57.2931 302.943 50.0981 293.883 50.1741C284.681 50.2521 277.258 57.8021 277.336 67.0041C277.358 69.5661 277.986 72.1081 279.142 74.3891L279.129 74.3951L279.345 74.7931L279.534 75.1411L279.542 75.1371C280.431 76.6871 281.556 78.0761 282.893 79.2751L282.887 79.2821L283.211 79.5591L283.532 79.8321L283.538 79.8251C286.544 82.2601 290.3 83.5831 294.165 83.5501C297.554 83.5211 300.792 82.4811 303.562 80.5431L303.567 80.5511L303.942 80.2731L304.251 80.0441L304.245 80.0341C308.231 76.9331 310.616 72.1701 310.704 67.1451H310.717L310.713 66.7211L310.71 66.2981ZM278.184 66.9981C278.11 58.2631 285.156 51.0971 293.891 51.0231C302.484 50.9501 309.559 57.7691 309.857 66.3061L302.224 66.3711C301.966 62.0401 298.342 58.6131 293.955 58.6511C289.426 58.6891 285.773 62.4051 285.811 66.9341C285.823 68.3061 286.182 69.6511 286.856 70.8541L283.38 72.4481L279.907 74.0401C278.8 71.8671 278.205 69.4411 278.184 66.9981ZM301.391 66.8011C301.409 68.8661 300.539 70.8611 299.005 72.2751C297.654 73.5201 295.907 74.2141 294.088 74.2291C292.345 74.2441 290.645 73.6301 289.3 72.5021L289.296 72.4981C288.725 72.0171 288.228 71.4501 287.821 70.8121C287.073 69.6421 286.672 68.2981 286.66 66.9251C286.626 62.8631 289.902 59.5311 293.963 59.4971C298.024 59.4631 301.357 62.7391 301.391 66.8011ZM283.446 78.6381C282.2 77.5191 281.149 76.2261 280.314 74.7851L287.312 71.5771C287.641 72.0451 288.015 72.4751 288.429 72.8631L283.446 78.6381ZM294.159 82.704C290.499 82.735 286.941 81.4891 284.091 79.1881L288.233 74.3871L289.077 73.4091C290.521 74.5031 292.287 75.0921 294.095 75.0771C295.948 75.0611 297.733 74.4151 299.176 73.2471L303.127 79.8191C300.487 81.6801 297.395 82.677 294.159 82.704ZM303.809 79.3091L299.817 72.6691C301.278 71.2111 302.141 69.2601 302.231 67.2171L309.864 67.1521C309.775 71.8821 307.54 76.3681 303.809 79.3091Z" fill="white"/>
<path d="M351.972 65.046C341.284 65.046 332.589 56.352 332.589 45.664C332.589 35.311 340.747 26.829 350.972 26.307V8.29504C330.82 8.82704 314.589 25.386 314.589 45.664C314.589 66.276 331.359 83.0461 351.972 83.0461C357.738 83.0461 363.474 81.692 368.622 79.121L364.934 70.894L361.242 62.659C358.392 64.224 355.21 65.046 351.972 65.046Z" fill="#6FC7C4"/>
<path d="M382.723 24.447L367.137 33.64C369.864 37.068 371.354 41.291 371.354 45.665C371.354 49.932 369.927 54.087 367.318 57.472L369.609 59.483L380.855 69.354C386.343 62.674 389.354 54.302 389.354 45.666C389.354 38.028 387.064 30.712 382.723 24.447Z" fill="white"/>
<path d="M352.972 8.29504V26.308C357.79 26.561 362.378 28.637 365.788 32.113L381.535 22.826C374.67 13.962 364.128 8.59904 352.972 8.29504Z" fill="black"/>
<path d="M366.016 58.9911C365.094 59.9601 364.072 60.8341 362.96 61.6001L370.391 78.1781C373.808 76.2351 376.879 73.7811 379.545 70.8641L366.016 58.9911Z" fill="black"/>
<path d="M457.435 266.609H452.47V378.878H457.435V266.609Z" fill="white"/>
<path d="M453.344 358.018L423.143 371.035L424.742 374.747L454.943 361.729L453.344 358.018Z" fill="white"/>
<path d="M454.981 361.769L485.182 374.786L486.781 371.075L456.58 358.058L454.981 361.769Z" fill="white"/>
<path d="M425.667 381.957C429.367 381.957 432.367 378.957 432.367 375.257C432.367 371.557 429.367 368.557 425.667 368.557C421.967 368.557 418.967 371.557 418.967 375.257C418.967 378.957 421.967 381.957 425.667 381.957Z" fill="black"/>
<path d="M454.952 381.957C458.652 381.957 461.652 378.957 461.652 375.257C461.652 371.557 458.652 368.557 454.952 368.557C451.252 368.557 448.252 371.557 448.252 375.257C448.252 378.957 451.252 381.957 454.952 381.957Z" fill="black"/>
<path d="M485.749 381.957C489.449 381.957 492.449 378.957 492.449 375.257C492.449 371.557 489.449 368.557 485.749 368.557C482.049 368.557 479.049 371.557 479.049 375.257C479.049 378.957 482.049 381.957 485.749 381.957Z" fill="black"/>
<path d="M483.325 282.821H426.58C422.607 282.821 419.386 279.6 419.386 275.627V273.078C419.386 269.105 422.607 265.884 426.58 265.884H483.325C487.298 265.884 490.519 269.105 490.519 273.078V275.627C490.519 279.6 487.298 282.821 483.325 282.821Z" fill="black"/>
<path d="M473.964 109.432C467.937 104.201 458.813 104.555 452.479 105.673L452.48 105.672C439.086 104.922 436.115 120.721 436.115 120.721L436.123 120.72C434.543 124.242 433.425 127.976 432.842 131.837C430.125 149.829 439.3 149.905 441.505 151.08C446.034 153.494 454.892 152.302 459.534 152.109C464.175 151.916 461.993 152.989 465.152 150.878C467.854 149.072 485.463 148.364 485.344 136.286C485.221 123.995 478.763 113.597 473.964 109.432Z" fill="black"/>
<path d="M466.348 109.432C466.348 109.432 463.432 94.583 468.14 94.04C472.848 93.497 486.43 98.567 485.343 104.18C484.256 109.793 469.407 113.887 469.407 113.887L466.348 109.432Z" fill="black"/>
<path d="M445.275 162.2L455.916 177.246L478.762 162.428L465.172 155.726L464.624 149.851L454.093 150.833L454.65 156.806L445.275 162.2Z" fill="#E9AAA6"/>
<path d="M465.15 155.497L464.624 149.851L454.093 150.833L454.363 153.729L465.15 155.497Z" fill="#D99393"/>
<path d="M440.567 130.919C440.567 130.919 438.7 129.911 436.196 131.03C433.692 132.148 434.289 135.19 435.523 137.804C436.758 140.418 439.406 142.531 441.598 141.983C443.79 141.434 443.197 131.708 440.567 130.919Z" fill="#E9AAA6"/>
<path d="M440.95 133.721C440.95 133.721 440.304 132.573 438.702 132.878C437.1 133.183 436.879 134.743 437.164 135.692C437.449 136.641 437.899 137.85 440.145 137.74C440.145 137.74 439.263 136.926 439.529 136.078C439.795 135.23 441.082 135.326 441.082 135.326L440.95 133.721Z" fill="#D99393"/>
<path d="M440.792 135.383C440.792 135.383 439.543 135.225 439.561 136.354C439.579 137.483 440.59 138.258 441.065 138.312" stroke="#45154B" stroke-width="0.5" stroke-miterlimit="10" stroke-linecap="round" stroke-linejoin="round"/>
<path d="M440.95 133.721C440.95 133.721 440.042 132.739 438.868 132.934C437.834 133.105 436.834 134.143 437.172 135.721C437.448 137.008 438.544 137.383 438.544 137.383" stroke="#45154B" stroke-width="0.5" stroke-miterlimit="10" stroke-linecap="round" stroke-linejoin="round"/>
<path d="M474.147 127.27C474.147 127.27 475.796 125.935 478.463 126.571C481.13 127.207 481.106 130.307 480.376 133.104C479.646 135.901 477.426 138.106 475.178 138.333C471.082 138.747 471.709 128.531 474.147 127.27Z" fill="#E9AAA6"/>
<path d="M474.289 130.094C474.289 130.094 474.712 128.846 476.342 128.85C477.972 128.853 478.478 130.346 478.373 131.331C478.269 132.316 478.049 133.588 475.821 133.895C475.821 133.895 476.537 132.932 476.12 132.148C475.702 131.363 474.455 131.696 474.455 131.696L474.289 130.094Z" fill="#D99393"/>
<path d="M474.75 131.698C474.75 131.698 475.948 131.312 476.139 132.425C476.33 133.538 475.479 134.486 475.023 134.627" stroke="#45154B" stroke-width="0.5" stroke-miterlimit="10" stroke-linecap="round" stroke-linejoin="round"/>
<path d="M474.289 130.094C474.289 130.094 475 128.961 476.19 128.935C477.238 128.912 478.413 129.748 478.372 131.361C478.338 132.677 477.331 133.248 477.331 133.248" stroke="#45154B" stroke-width="0.5" stroke-miterlimit="10" stroke-linecap="round" stroke-linejoin="round"/>
<path d="M440.033 134.499C441.321 148.316 446.741 153.353 456.918 152.405C467.095 151.456 475.137 148.81 473.822 134.705C472.841 124.177 465.59 112.996 455.413 113.944C445.236 114.892 439.052 123.972 440.033 134.499Z" fill="#E9AAA6"/>
<path d="M441.065 124.844C441.065 124.844 444.648 124.334 446.681 123.949C448.035 123.692 454.527 119.677 456.486 119.633C459.205 119.573 466.751 124.318 469.467 125.639C472.905 127.31 471.972 124.1 471.972 124.1C471.972 124.1 469.351 118.729 461.772 116.012C454.193 113.295 446.474 118.249 446.474 118.249C446.474 118.249 440.864 119.957 441.065 124.844Z" fill="#D99393"/>
<path d="M454.29 128.479C454.29 128.479 455.004 134.871 454.385 135.074C453.766 135.277 451.905 136.184 452.653 138.092C453.319 139.79 455.045 139.251 455.045 139.251" stroke="#45154B" stroke-width="0.5" stroke-miterlimit="10" stroke-linecap="round" stroke-linejoin="round"/>
<path d="M445.834 136.307C443.731 135.736 442.427 136.141 442.142 137.191C441.857 138.241 442.698 139.538 444.802 140.109C446.905 140.68 448.842 140.292 449.127 139.242C449.412 138.193 447.938 136.879 445.834 136.307Z" fill="#E28E8D"/>
<path d="M446.113 135.674C446.917 135.643 447.53 134.605 447.482 133.357C447.433 132.109 446.741 131.122 445.937 131.153C445.132 131.185 444.519 132.222 444.568 133.47C444.617 134.719 445.308 135.705 446.113 135.674Z" fill="#34304B"/>
<path d="M447.453 126.979C446.569 126.233 444.287 127.182 442.924 128.161C442.283 128.621 442.652 129.175 442.652 129.175C442.652 129.175 444.797 128.083 446.521 128.734C448.245 129.386 448.337 127.725 447.453 126.979Z" fill="#34304B"/>
<path d="M465.685 135.536C467.738 134.803 469.698 135.04 470.064 136.064C470.43 137.089 469.062 138.513 467.01 139.246C464.957 139.979 462.997 139.742 462.631 138.718C462.265 137.693 463.632 136.268 465.685 135.536Z" fill="#E28E8D"/>
<path d="M464.573 134.955C465.377 134.924 465.99 133.886 465.942 132.638C465.893 131.39 465.201 130.403 464.397 130.435C463.592 130.466 462.979 131.503 463.028 132.752C463.077 134 463.768 134.986 464.573 134.955Z" fill="#34304B"/>
<path d="M462.325 126.406C463.21 125.662 465.49 126.616 466.851 127.599C467.491 128.061 467.12 128.613 467.12 128.613C467.12 128.613 464.977 127.516 463.252 128.163C461.528 128.811 461.44 127.15 462.325 126.406Z" fill="#34304B"/>
<path d="M459.306 140.502C459.306 140.502 458.964 141.837 455.951 142.451C452.938 143.065 451.012 141.679 451.012 141.679C451.012 141.679 452.928 145.949 455.554 145.859C458.18 145.769 459.119 142.089 459.306 140.502Z" fill="white"/>
<path d="M437.346 121.006C437.346 121.006 438.744 129.176 439.179 132.287C439.615 135.397 440.833 135.507 441.343 133.699C441.853 131.89 441.184 125.552 443.017 123.683C444.85 121.814 436.276 117.851 437.346 121.006Z" fill="black"/>
<path d="M475.128 118.496C475.128 118.496 473.73 126.666 473.295 129.777C472.859 132.887 471.641 132.997 471.131 131.189C470.621 129.38 471.29 123.042 469.457 121.173C467.624 119.304 476.197 115.341 475.128 118.496Z" fill="black"/>
<path d="M441.842 124.434C441.842 124.434 453.406 120.236 456.487 117.037C456.487 117.037 464.88 124.22 471.218 123.978L468.441 111.665L446.772 109.07L438.7 122.41L441.842 124.434Z" fill="black"/>
<path d="M438.701 165.115C435.793 166.436 433.525 168.868 432.464 171.881C426.462 188.914 409.35 215.182 409.35 215.182L422.551 224.927C425.586 227.167 431.512 226.37 433.011 222.909L439.932 202.87L438.701 165.115Z" fill="white"/>
<path d="M468.141 156.706C468.141 156.706 487.751 165.234 488.323 166.403C488.895 167.572 482.094 230.007 482.094 230.007L434.44 233.199L436.854 198.781C434.163 190.184 434.024 180.99 436.456 172.316L438.475 165.115L451.838 157.623L457.409 172.9C457.409 172.9 464.876 159.1 468.141 156.706Z" fill="white"/>
<path d="M476.278 187.055L476.71 202.703L449.835 205.954L450.393 220.373L482.095 230.007L485.342 212.285L476.278 187.055Z" fill="white"/>
<path d="M446.659 221.701H408.368L399.888 176.797H438.179L446.659 221.701Z" fill="black"/>
<path d="M401.06 194.686C401.155 193.901 401.948 193.47 402.63 193.849C404.04 194.632 407.014 196.349 407.265 197.034C407.595 197.935 407.594 199.053 405.396 198.374C402.715 197.546 401.243 197.014 401.106 196.275C401.042 195.924 400.989 195.274 401.06 194.686Z" fill="#E9AAA6"/>
<path d="M401.292 198.009C401.32 197.22 402.035 196.691 402.712 196.979C404.109 197.574 407.059 198.892 407.351 199.538C407.735 200.388 407.823 201.495 405.689 201.105C403.086 200.63 401.651 200.291 401.462 199.577C401.373 199.238 401.272 198.601 401.292 198.009Z" fill="#E9AAA6"/>
<path d="M401.95 200.896C401.993 200.113 402.676 199.57 403.304 199.837C404.601 200.389 407.339 201.618 407.599 202.25C407.941 203.082 407.999 204.177 406.007 203.847C403.576 203.445 402.238 203.147 402.077 202.445C401.999 202.111 401.918 201.483 401.95 200.896Z" fill="#E9AAA6"/>
<path d="M402.47 203.948C402.464 203.167 403.057 202.548 403.647 202.738C404.866 203.132 407.443 204.026 407.718 204.623C408.079 205.407 408.197 206.486 406.354 206.395C404.106 206.284 402.864 206.147 402.675 205.47C402.585 205.147 402.474 204.534 402.47 203.948Z" fill="#E9AAA6"/>
<path d="M452.02 210.058C452.02 210.058 449.9 207.21 447.113 205.184C445.01 203.655 443.975 203.548 442.965 202.589L443.809 207.458L443.8 207.45C443.871 207.683 443.77 207.805 443.45 207.792C442.53 207.755 431.157 204.673 430.626 205.013C430.095 205.353 429.438 206.316 433.19 207.97C436.942 209.625 438.986 210.294 438.986 210.294C438.986 210.294 429.033 207.39 428.174 207.968C426.96 208.785 427.874 209.715 431.529 210.809C435.183 211.904 437.848 212.595 437.583 212.829C437.318 213.063 429.574 210.666 428.64 211.005C427.707 211.344 428.037 212.659 430.249 213.296C432.46 213.933 436.343 215.256 436.135 215.412C435.927 215.568 431.961 214.153 431.37 214.315C430.779 214.477 430.107 215.38 431.652 216.314C433.197 217.248 441.773 219.238 444.887 219.456C448.481 219.707 449.863 219.286 451.27 218.653C452.678 218.019 455.186 213.5 452.02 210.058Z" fill="#E9AAA6"/>
<path d="M493.974 175.224L505.684 212.768C507.223 221.35 502.041 229.307 494.216 229.307L450.395 220.374L449.836 205.954L482.878 208.212L477.906 193.774C475.86 187.833 475.325 181.43 476.678 175.294C478.139 168.665 481.454 163.504 487.077 165.791C489.707 166.86 491.746 168.744 493.974 175.224Z" fill="#E9ECFA"/>
<path d="M453.11 156.452L444.056 160.134L452.48 166.2L446.033 165.748L457.411 172.9L453.11 156.452Z" fill="#E9ECFA"/>
<path d="M466.348 155.497L475.459 157.59L466.348 164.209H471.852L457.411 172.9L466.348 155.497Z" fill="#E9ECFA"/>
<path d="M449.836 205.954L488.143 208.074" stroke="black" stroke-width="0.5" stroke-miterlimit="10" stroke-linecap="round" stroke-linejoin="round"/>
<path d="M350.908 322.71C350.908 322.71 352.966 320.234 344.149 321.482C341.187 321.901 332.744 328.995 329.489 329.029C324.312 329.083 317.604 327.546 317.268 327.84C316.093 328.87 314.733 331.044 315.046 331.723C315.046 331.723 334.192 338.919 334.002 338.848C334.002 338.848 345.435 335.784 347.736 336.525C348.899 336.9 346.86 343.743 347.785 344.028L351.496 345.423C353.019 345.37 360.238 326.607 360.238 326.607L350.908 322.71Z" fill="black"/>
<path d="M422.687 335.36C422.687 335.36 422.977 332.153 416.424 338.183C414.223 340.209 411.294 350.84 408.633 352.714C404.4 355.696 398.004 358.235 397.895 358.668C397.512 360.183 397.625 362.745 398.268 363.126C398.268 363.126 418.117 358.19 417.92 358.239C417.92 358.239 425.597 349.229 427.912 348.534C429.082 348.183 431.285 354.975 432.209 354.686L436.056 353.729C437.28 352.821 432.581 333.275 432.581 333.275L422.687 335.36Z" fill="black"/>
<path d="M481.656 233.666C481.656 233.666 444.345 233.165 443.839 233.201C420.019 234.914 391.061 248.268 386.655 252.777C381.025 258.538 413.855 341.924 413.855 341.924L436.26 338.889L421.589 273.7C421.589 273.7 465.573 271.878 469.891 271.568C488.477 270.233 481.656 233.666 481.656 233.666Z" fill="#231F20"/>
<path d="M482.096 230.007L452.391 231.125C452.391 231.125 397.852 230.724 394.622 235.07C389.761 241.609 339.091 320.295 339.091 320.295L361.786 335.636L413.428 274.056L424.11 273.591C424.11 273.591 465.572 271.879 469.89 271.569C488.477 270.233 482.096 230.007 482.096 230.007Z" fill="#211F20"/>
<path d="M464.554 266.609C464.554 266.609 413.554 267.957 412.319 268.31C411.084 268.663 362.731 330.075 362.731 330.075" stroke="black" stroke-width="0.5" stroke-miterlimit="10" stroke-linecap="round" stroke-linejoin="round"/>
<path d="M416.966 277.31L431.201 334.31" stroke="black" stroke-width="0.5" stroke-miterlimit="10" stroke-linecap="round" stroke-linejoin="round"/>
</g>
<defs>
<clipPath id="clip0_56_302">
<rect width="500" height="385" fill="white"/>
</clipPath>
</defs>
</svg>
