<svg width="500" height="385" viewBox="0 0 500 385" fill="none" xmlns="http://www.w3.org/2000/svg">
<g clip-path="url(#clip0_56_302)">
<path d="M70.82 146.642C39.4893 146.642 14 121.152 14 89.8212C14 58.4902 39.4896 33 70.82 33C102.152 33 127.641 58.4902 127.641 89.8212C127.641 121.152 102.152 146.642 70.82 146.642ZM70.82 34.3934C40.2572 34.3934 15.3922 59.258 15.3922 89.8212C15.3922 120.383 40.2569 145.248 70.82 145.248C101.383 145.248 126.249 120.384 126.249 89.8212C126.249 59.258 101.383 34.3934 70.82 34.3934Z" fill="black"/>
<path d="M61.8933 101.116L61.7969 98.5505C61.4993 93.5127 63.1721 88.3785 67.6186 83.0434C70.7787 79.2922 73.3438 76.132 73.3438 72.775C73.3438 69.3172 71.0763 67.0456 66.1389 66.8488C62.8823 66.8488 58.9261 68.035 56.3611 69.8119L53 59.0488C56.5622 56.974 62.4884 55 69.4921 55C82.5346 55 88.4529 62.2087 88.4529 70.4026C88.4529 77.9089 83.8134 82.8463 80.0662 86.9955C76.4076 91.0443 74.928 94.896 75.0246 99.3384V101.116H61.8933ZM59.3201 114.745C59.3201 109.51 62.9787 105.759 68.117 105.759C73.4483 105.759 76.9058 109.51 77.0024 114.745C77.0024 119.879 73.4483 123.731 68.117 123.731C62.8823 123.731 59.3201 119.879 59.3201 114.745Z" fill="#018580"/>
<path d="M469.524 46.9775V37.6894H460.228C459.428 31.9476 457.172 26.6732 453.837 22.2548L460.409 15.6831L453.841 9.11536L447.27 15.6871C442.851 12.3525 437.576 10.0966 431.835 9.29679V0H422.547V9.29679C416.805 10.0969 411.531 12.3525 407.112 15.6871L400.54 9.11536L393.973 15.6831L400.544 22.2548C397.21 26.6732 394.954 31.9476 394.154 37.6894H384.857V46.9775H394.154C394.954 52.7193 397.209 57.9937 400.544 62.412L393.973 68.9838L400.54 75.5515L407.112 68.9798C411.53 72.3144 416.805 74.57 422.547 75.3701V84.6669H431.835V75.3701C437.577 74.57 442.851 72.3144 447.27 68.9798L453.841 75.5515L460.409 68.9838L453.837 62.412C457.172 57.9937 459.428 52.7193 460.228 46.9775H469.524Z" fill="white"/>
<path d="M427.191 63.4058C438.829 63.4058 448.263 53.9715 448.263 42.3336C448.263 30.6958 438.829 21.2615 427.191 21.2615C415.553 21.2615 406.119 30.6958 406.119 42.3336C406.119 53.9715 415.553 63.4058 427.191 63.4058Z" fill="#6FC7C4"/>
<path d="M500.206 133.921V127.838H494.118C493.594 124.078 492.116 120.624 489.933 117.73L494.237 113.427L489.935 109.126L485.632 113.429C482.738 111.245 479.284 109.768 475.524 109.244V103.156H469.441V109.244C465.681 109.768 462.227 111.245 459.333 113.429L455.03 109.126L450.729 113.427L455.032 117.73C452.849 120.624 451.371 124.078 450.847 127.838H444.759V133.921H450.847C451.371 137.681 452.849 141.135 455.032 144.029L450.729 148.332L455.03 152.633L459.333 148.33C462.227 150.514 465.681 151.991 469.441 152.515V158.603H475.524V152.515C479.284 151.991 482.738 150.514 485.632 148.33L489.935 152.633L494.237 148.332L489.933 144.029C492.117 141.135 493.594 137.681 494.118 133.921H500.206Z" fill="white"/>
<path d="M486.122 133.085C487.342 125.561 482.234 118.473 474.71 117.252C467.187 116.031 460.099 121.14 458.878 128.663C457.657 136.186 462.766 143.275 470.289 144.496C477.812 145.717 484.901 140.608 486.122 133.085Z" fill="#6FC7C4"/>
<path d="M313.462 86C310.963 80.9998 310.539 75.168 312.199 69.8881C306.281 69.2286 299.447 65.6565 298.028 59.1932C297.908 58.649 297.833 58.1083 297.797 57.5703C295.055 57.924 292.21 58.0452 289.439 57.3985C285.517 56.4804 282.442 53.999 281.414 50.9224C279.704 45.7991 283.618 40.8414 287.202 37.5844C296.787 28.8773 309.298 22.9871 322.43 21L322.743 22.8457C310.006 24.7735 297.871 30.4866 288.575 38.9326C285.395 41.8223 281.897 46.1513 283.302 50.3603C284.285 53.3002 287.362 54.9861 289.915 55.5833C292.482 56.1843 295.198 56.0344 297.832 55.6783C298.323 50.7833 301.832 46.3316 305.03 43.2227C310.624 37.7897 317.469 33.3213 324.826 30.3C327.189 29.3292 329.97 28.3445 332.928 28.4574C336.213 28.577 339.119 30.1991 340.329 32.5885C341.528 34.9531 341.099 37.9981 339.213 40.5333C337.544 42.7724 335.104 44.285 332.949 45.5272C322.883 51.333 311.417 55.3967 299.791 57.2774C299.781 57.279 299.773 57.2805 299.763 57.2821C299.788 57.7904 299.854 58.3015 299.966 58.813C301.16 64.2506 307.33 67.5851 312.81 68.0701C312.828 68.0709 312.844 68.0724 312.862 68.074C313.01 67.7172 313.169 67.3635 313.338 67.0133C316.226 61.0521 321.941 56.4422 328.626 54.6819C331.424 53.9476 334.524 54.1957 336.52 55.3172C337.796 56.034 338.636 57.0935 338.95 58.3825C339.75 61.6792 336.827 64.7524 331.128 66.6019C325.958 68.2797 320.147 70.1405 314.226 70.0209C312.551 74.9677 312.896 80.4883 315.253 85.2018L313.462 86ZM331.896 56.1325C330.992 56.1325 330.053 56.2475 329.159 56.4831C323.029 58.097 317.788 62.3239 315.141 67.7904C315.081 67.9123 315.023 68.0346 314.967 68.157C320.32 68.1324 325.685 66.3912 330.485 64.833C332.225 64.2685 337.839 62.1638 337.021 58.8005C336.829 58.0109 336.32 57.3795 335.51 56.9237C334.581 56.4033 333.281 56.1325 331.896 56.1325ZM332.489 30.319C330.08 30.319 327.671 31.1706 325.616 32.0151C318.493 34.9398 311.867 39.2657 306.452 44.5269C303.604 47.2926 300.483 51.1842 299.864 55.3679C311.106 53.4984 322.181 49.5477 331.918 43.9313C333.903 42.7868 336.143 41.4031 337.594 39.4577C339.047 37.5046 339.42 35.1256 338.545 33.3953C337.647 31.624 335.413 30.4188 332.851 30.3261C332.73 30.3214 332.61 30.319 332.489 30.319Z" fill="black"/>
<path d="M338.011 384.243H187.42L185.295 293.894L199.668 291.52L303.326 274.356L316.048 314.684L338.011 384.243Z" fill="black"/>
<path opacity="0.2" d="M316.048 314.684L199.668 291.519L303.326 274.356L316.048 314.684Z" fill="#211F20"/>
<path d="M262.954 385L254.139 344.508L227.846 337.635L228.231 336.136L255.436 343.247L264.454 384.667L262.954 385Z" fill="#211F20"/>
<path d="M183.277 184.152L174.846 282.32C174.316 288.493 179.152 293.795 185.297 293.778L301.68 293.449C307.345 293.433 311.968 288.873 312.109 283.163L312.173 157.147L256.44 155.275L203.198 158.006L183.277 184.152Z" fill="white"/>
<path d="M303.951 257.133C292.434 263.501 279.207 268.542 281.289 272.117C283.38 275.708 304.323 266.872 304.323 266.872C304.323 266.872 279.002 281.199 280.917 284.853C284.099 290.924 307.295 274.739 307.295 274.739C307.295 274.739 289.165 289.293 291.32 292.345C295.233 297.887 310.267 282.606 310.267 282.606C307.666 285.228 301.212 293.257 303.455 294.98C306.688 297.463 325.622 281.731 325.622 281.731L336.251 273.559L312.967 250.716L303.951 257.133Z" fill="#FFB192"/>
<path d="M125.758 166.363C123.008 162.046 118.425 159.267 113.354 158.849C108.446 158.444 102.537 158.208 99.2477 158.989C92.9321 160.487 72.3571 153.645 71.36 155.822C68.1984 162.729 86.6162 171.725 97.0185 175.096L104.368 191.836L131.038 174.655L125.758 166.363Z" fill="#FFB192"/>
<path d="M372.744 190.734L314.791 142.201C310.574 138.109 305.126 135.548 299.307 134.921L243.394 128.896L193.689 137.249C183.723 138.924 174.958 144.851 169.64 153.513L144.2 195.325L131.038 174.656L104.368 191.836C110.264 205.265 116.16 218.694 122.056 232.123C123.94 236.415 126.002 240.749 128.912 244.444C131.332 247.517 134.533 250.19 138.407 251.056C145.315 252.603 155.237 249.034 159.329 243.188L202.121 182.063L285.1 172.599L340.775 219.703L312.967 250.716L336.251 273.559C343.077 267.634 378.318 241.253 383.464 229.363C389.24 216.02 383.724 199.588 372.744 190.734Z" fill="white"/>
<path d="M302.93 293.086C302.81 292.481 302.719 288.955 312.733 278.859L313.783 279.918C304.255 289.526 304.392 292.805 304.395 292.837L302.93 293.086Z" fill="black"/>
<path d="M292.053 292.473L290.588 292.218C291.384 287.554 295.363 284.318 301.953 278.955C303.496 277.701 305.188 276.324 307.023 274.781L307.975 275.932C306.133 277.481 304.435 278.862 302.886 280.122C296.567 285.261 292.754 288.364 292.053 292.473Z" fill="black"/>
<path d="M280.644 284.756C281.516 282.213 283.491 280.435 285.339 278.764C287.233 277.095 289.294 275.667 291.34 274.239C293.406 272.838 295.519 271.52 297.663 270.262C299.809 269.007 301.963 267.773 304.169 266.624L304.476 267.121C302.475 268.608 300.408 269.989 298.349 271.373L292.157 275.474C290.087 276.822 288.08 278.255 286.134 279.743C285.151 280.478 284.236 281.284 283.363 282.125C282.511 282.973 281.692 283.882 281.191 284.951L280.644 284.756Z" fill="black"/>
<g opacity="0.6">
<path d="M377.652 195.658C377.445 195.405 377.238 195.152 377.025 194.905C371.611 201.398 368.17 209.588 367.572 218.053C366.986 226.358 369.15 234.79 373.432 241.906C373.67 241.67 373.898 241.437 374.131 241.202C370.031 234.299 367.962 226.15 368.529 218.121C369.109 209.915 372.428 201.975 377.652 195.658Z" fill="#E9ECFA"/>
<path d="M158.577 244.153C155.631 240.902 152.233 238.061 148.458 235.786C140.198 230.81 130.441 228.678 120.919 229.531C121.056 229.842 121.192 230.153 121.329 230.465C130.548 229.706 139.973 231.802 147.966 236.618C151.682 238.857 155.025 241.658 157.92 244.865C158.146 244.631 158.371 244.397 158.577 244.153Z" fill="#E9ECFA"/>
<path d="M299.681 151.682C302.993 153.399 306.665 154.207 310.356 154.207C315.247 154.207 320.169 152.786 324.328 150.187L323.55 149.536C316.566 153.783 307.427 154.613 300.121 150.821C293.662 147.47 289.301 140.846 287.932 133.695L286.943 133.589C288.308 141.134 292.878 148.152 299.681 151.682Z" fill="#E9ECFA"/>
<path d="M197.201 136.659C196.345 142.563 193.639 148.196 189.274 152.209C183.31 157.696 174.643 159.801 166.716 158.32L166.186 159.192C167.998 159.554 169.847 159.748 171.701 159.748C178.349 159.748 185.016 157.434 189.922 152.924C194.523 148.693 197.339 142.727 198.177 136.495L197.201 136.659Z" fill="#E9ECFA"/>
<path d="M183.383 204.888L182.621 204.298C190.927 193.395 203.977 185.97 217.529 184.439C231.08 182.912 245.435 187.237 255.928 196.02L255.315 196.763C245.018 188.148 230.926 183.894 217.636 185.402C204.339 186.903 191.534 194.189 183.383 204.888Z" fill="#E9ECFA"/>
<path d="M259.244 210.262C245.709 210.262 232.02 205.299 221.734 196.487L222.356 195.749C233.865 205.61 249.707 210.572 264.727 209.013C279.75 207.459 294.261 199.361 303.544 187.349L304.301 187.944C294.86 200.16 280.102 208.396 264.825 209.976C262.974 210.167 261.11 210.262 259.244 210.262Z" fill="#E9ECFA"/>
</g>
<path d="M144.854 194.938L143.569 195.788L151.371 207.776L152.655 206.927L144.854 194.938Z" fill="black"/>
<path d="M182.487 184.055L180.203 217.706L181.735 217.812L184.02 184.161L182.487 184.055Z" fill="black"/>
<path d="M297.404 181.037L296.415 182.221L314.653 197.707L315.642 196.522L297.404 181.037Z" fill="black"/>
<path d="M244.861 162.276C244.555 162.276 244.248 162.271 243.939 162.26C236.355 161.993 229.633 158.552 226.396 153.278L227.7 152.463C230.673 157.303 236.915 160.463 243.991 160.712C251.544 160.982 258.136 157.954 262.089 152.418L263.336 153.323C259.303 158.971 252.447 162.276 244.861 162.276Z" fill="black"/>
<path d="M355.602 216.609L340.667 218.965L340.905 220.495L355.839 218.139L355.602 216.609Z" fill="black"/>
<path d="M259.851 103.056L259.837 133.657C259.837 142.585 252.663 149.833 243.808 149.833H243.439C234.584 149.833 227.397 142.585 227.397 133.657V103.056H259.851Z" fill="#FFB192"/>
<path d="M252.731 114.836C245.994 124.508 236.483 130.157 227.396 131.342V114.877L244.299 109.779L252.731 114.836Z" fill="black"/>
<path d="M261.712 75.9399L259.052 94.7249L254.615 115.29C254.615 115.29 229.782 125.579 222.685 117.521C220.932 115.539 219.884 112.145 219.307 108.182C218.872 105.31 218.696 102.118 218.672 98.9378C218.566 88.7679 220.025 78.6219 220.025 78.6219L261.712 75.9399Z" fill="#FFB192"/>
<path d="M257.965 95.3121C258.288 86.5228 254.128 80.7462 246.349 77.4005C225.047 90.0291 211.422 88.0459 207.234 68.1001C207.234 68.1001 218.166 69.4781 229.781 61.0388C241.396 52.5995 248.229 52.5995 256.94 63.6221C272.654 67.9278 275.217 81.5337 264.626 94.9676L257.965 95.3121Z" fill="black"/>
<path d="M263.631 102.511C267.589 99.3313 268.768 94.1852 266.265 91.0172C263.761 87.8492 258.523 87.859 254.565 91.039C250.607 94.2191 249.428 99.3651 251.932 102.533C254.435 105.701 259.673 105.691 263.631 102.511Z" fill="#FFB192"/>
<path d="M234.895 93.197C234.826 94.3136 235.513 95.2657 236.431 95.3237C237.349 95.3818 238.148 94.5236 238.218 93.407C238.287 92.2904 237.6 91.3383 236.682 91.2802C235.764 91.2222 234.964 92.0804 234.895 93.197Z" fill="black"/>
<path d="M223.002 94.4096C222.903 95.524 223.566 96.4941 224.482 96.5764C225.398 96.6587 226.22 95.8221 226.318 94.7077C226.417 93.5934 225.754 92.6233 224.839 92.541C223.922 92.4587 223.1 93.2953 223.002 94.4096Z" fill="black"/>
<path d="M230.286 103.245C230.09 103.231 229.883 103.23 229.673 103.228C228.666 103.221 226.982 103.208 226.908 101.297C226.862 100.136 227.567 98.9621 228.133 98.0181L228.419 97.5328L229.439 98.1252L229.139 98.6324C228.655 99.4402 228.052 100.445 228.083 101.25C228.109 101.906 228.363 102.032 229.681 102.042C229.916 102.043 230.15 102.046 230.369 102.061L230.286 103.245Z" fill="black"/>
<path d="M233.494 88.768C233.936 89.9588 234.75 89.5023 237.798 88.8267C240.01 88.3364 241.686 87.8166 241.506 86.992C241.326 86.1677 239.387 85.8966 237.174 86.387C234.962 86.8778 232.868 87.082 233.494 88.768Z" fill="black"/>
<path d="M227.729 89.7293C227.442 90.9224 226.625 90.6159 223.676 90.4459C221.535 90.3223 219.898 90.0888 219.977 89.2822C220.056 88.4756 221.856 87.922 223.997 88.0452C226.138 88.1685 228.135 88.0401 227.729 89.7293Z" fill="black"/>
<path opacity="0.4" d="M240.739 100.291C241.005 102.842 243.272 104.692 245.802 104.424C248.332 104.157 250.167 101.871 249.901 99.3204C249.636 96.7694 247.37 94.9185 244.84 95.1866C242.309 95.4544 240.474 97.7395 240.739 100.291Z" fill="#FF5970"/>
<path opacity="0.4" d="M219.413 108.182C219.378 108.182 219.342 108.194 219.307 108.182C218.872 105.31 218.696 102.118 218.672 98.9377C221.12 98.7835 223.262 100.599 223.521 103.079C223.78 105.631 221.944 107.909 219.413 108.182Z" fill="#FF5970"/>
<path d="M230.311 110.855C229.894 109.384 230.062 108.14 230.809 107.157C232.282 105.224 235.575 104.856 238.095 104.907L238.075 106.093C234.904 106.033 232.658 106.676 231.743 107.879C231.228 108.557 231.129 109.424 231.443 110.528L230.311 110.855Z" fill="black"/>
<path d="M257.898 99.2223C257.57 95.4044 259.213 93.0957 262.78 92.3597L263.015 93.5228C260.008 94.1429 258.791 95.869 259.07 99.1204L257.898 99.2223Z" fill="black"/>
</g>
<defs>
<clipPath id="clip0_56_302">
<rect width="500" height="385" fill="white"/>
</clipPath>
</defs>
</svg>
