<svg width="500" height="518" viewBox="0 0 500 518" fill="none" xmlns="http://www.w3.org/2000/svg">
<path d="M177.7 268.098H232.362C234.57 268.095 236.687 267.217 238.249 265.655C239.811 264.093 240.689 261.976 240.692 259.768V205.105C240.689 202.896 239.811 200.779 238.249 199.217C236.687 197.656 234.57 196.777 232.362 196.774H177.7C175.491 196.777 173.374 197.656 171.812 199.217C170.25 200.779 169.372 202.896 169.369 205.105V259.768C169.372 261.977 170.251 264.094 171.812 265.655C173.374 267.217 175.491 268.095 177.7 268.098ZM232.362 198.107C234.218 198.107 235.998 198.844 237.31 200.156C238.623 201.469 239.36 203.249 239.36 205.105V259.768C239.36 261.624 238.623 263.405 237.311 264.717C235.998 266.03 234.218 266.767 232.362 266.767H194.072C187.874 266.767 181.929 264.305 177.546 259.922C173.163 255.539 170.701 249.594 170.701 243.395V205.105C170.701 204.186 170.882 203.276 171.233 202.426C171.585 201.577 172.101 200.806 172.751 200.156C173.4 199.506 174.172 198.99 175.021 198.639C175.87 198.287 176.78 198.106 177.7 198.106L232.362 198.107Z" fill="#F2F2F2"/>
<path d="M177.7 268.098H232.362C234.57 268.095 236.687 267.217 238.249 265.655C239.811 264.093 240.689 261.976 240.692 259.768V205.105C240.689 202.896 239.811 200.779 238.249 199.217C236.687 197.656 234.57 196.777 232.362 196.774H177.7C175.491 196.777 173.374 197.656 171.812 199.217C170.25 200.779 169.372 202.896 169.369 205.105V259.768C169.372 261.977 170.251 264.094 171.812 265.655C173.374 267.217 175.491 268.095 177.7 268.098Z" fill="black"/>
<path d="M205.364 184.776C209.414 184.776 212.697 181.493 212.697 177.443C212.697 173.393 209.414 170.11 205.364 170.11C201.315 170.11 198.031 173.393 198.031 177.443C198.031 181.493 201.315 184.776 205.364 184.776Z" fill="black"/>
<path d="M270.718 184.486H325.38C327.588 184.483 329.706 183.604 331.267 182.042C332.829 180.48 333.708 178.363 333.711 176.155V121.491C333.708 119.283 332.829 117.165 331.267 115.604C329.706 114.042 327.588 113.163 325.38 113.16H270.718C268.509 113.163 266.392 114.042 264.83 115.604C263.269 117.165 262.39 119.283 262.387 121.491V176.153C262.39 178.362 263.268 180.48 264.83 182.042C266.392 183.604 268.509 184.483 270.718 184.486ZM325.38 114.492C326.299 114.492 327.209 114.673 328.058 115.025C328.907 115.376 329.679 115.892 330.329 116.542C330.979 117.192 331.494 117.963 331.846 118.812C332.198 119.661 332.379 120.571 332.379 121.491V176.153C332.379 178.009 331.641 179.789 330.329 181.102C329.016 182.414 327.236 183.152 325.38 183.152C317.282 183.152 309.264 181.557 301.783 178.458C294.302 175.359 287.504 170.817 281.779 165.092C276.053 159.366 271.511 152.568 268.412 145.087C265.313 137.606 263.718 129.588 263.718 121.491C263.718 120.571 263.899 119.661 264.251 118.812C264.603 117.963 265.118 117.192 265.768 116.542C266.418 115.892 267.19 115.376 268.039 115.025C268.888 114.673 269.798 114.492 270.717 114.492H325.379H325.38Z" fill="#090814"/>
<path d="M298.382 101.159C302.432 101.159 305.715 97.8763 305.715 93.8265C305.715 89.7767 302.432 86.4937 298.382 86.4937C294.333 86.4937 291.05 89.7767 291.05 93.8265C291.05 97.8763 294.333 101.159 298.382 101.159Z" fill="#D6D6E3"/>
<path d="M299.951 145.14C299.017 145.395 298.025 145.342 297.124 144.988C296.223 144.634 295.461 143.998 294.951 143.175C294.44 142.352 294.21 141.386 294.293 140.422C294.377 139.457 294.769 138.546 295.413 137.822C296.057 137.099 296.917 136.604 297.865 136.409C298.814 136.215 299.8 136.332 300.676 136.744C301.552 137.155 302.272 137.839 302.728 138.693C303.184 139.547 303.352 140.525 303.207 141.482C302.926 143.179 301.879 144.654 300.928 146.042C299.869 147.588 298.761 149.1 297.622 150.586C295.039 153.947 292.283 157.172 289.534 160.396C289.4 160.538 289.31 160.716 289.275 160.908C289.239 161.1 289.26 161.298 289.335 161.478C289.41 161.658 289.535 161.813 289.696 161.924C289.857 162.035 290.046 162.097 290.241 162.102L305.883 163.534C307.165 163.651 307.156 161.65 305.883 161.534L290.241 160.102L290.948 161.809C293.977 158.255 297.002 154.696 299.822 150.973C301.206 149.207 302.498 147.371 303.694 145.472C304.714 143.79 305.488 141.87 305.194 139.872C304.688 136.424 301.259 133.656 297.764 134.158C296.042 134.46 294.5 135.405 293.451 136.803C292.401 138.201 291.923 139.946 292.114 141.683C292.664 145.495 296.828 148.039 300.485 147.067C300.733 146.99 300.941 146.819 301.066 146.591C301.19 146.363 301.221 146.096 301.152 145.846C301.083 145.595 300.92 145.382 300.696 145.25C300.473 145.118 300.206 145.078 299.954 145.138L299.951 145.14Z" fill="#090814"/>
<path d="M195.008 97.9886H249.669C251.878 97.9855 253.995 97.1068 255.557 95.5452C257.118 93.9835 257.997 91.8663 258 89.6577V34.9949C257.997 32.7865 257.119 30.6694 255.557 29.1077C253.995 27.546 251.878 26.6673 249.67 26.6641H195.008C192.799 26.6671 190.682 27.5458 189.12 29.1075C187.559 30.6692 186.68 32.7864 186.677 34.9949V89.6584C186.68 91.8668 187.559 93.9839 189.121 95.5454C190.682 97.1069 192.799 97.9855 195.008 97.9886ZM249.669 27.9947C251.525 27.9949 253.305 28.7323 254.618 30.0446C255.93 31.357 256.668 33.1369 256.668 34.9929V89.6563C256.668 91.5126 255.931 93.2928 254.618 94.6053C253.306 95.9178 251.525 96.6552 249.669 96.6552C241.572 96.6553 233.553 95.0604 226.072 91.9615C218.591 88.8626 211.793 84.3204 206.067 78.5944C200.341 72.8684 195.799 66.0706 192.701 58.5891C189.602 51.1077 188.007 43.0893 188.008 34.9916C188.009 33.1363 188.746 31.3573 190.058 30.0455C191.37 28.7338 193.149 27.9966 195.004 27.9961L249.669 27.9947Z" fill="#090814"/>
<path d="M222.672 14.6657C226.722 14.6657 230.005 11.3827 230.005 7.33286C230.005 3.28303 226.722 0 222.672 0C218.622 0 215.339 3.28303 215.339 7.33286C215.339 11.3827 218.622 14.6657 222.672 14.6657Z" fill="#D6D6E3"/>
<path d="M216.266 50.6356C219.687 48.896 224.238 50.1686 225.488 54.0095C225.788 54.8271 225.875 55.7075 225.741 56.568C225.607 57.4285 225.256 58.2407 224.722 58.9283C224.187 59.6158 223.487 60.1562 222.686 60.4984C221.885 60.8407 221.011 60.9737 220.144 60.8848V62.8849C222.416 62.9664 224.575 63.8925 226.2 65.4821C226.933 66.2333 227.463 67.1595 227.738 68.1727C228.013 69.1859 228.025 70.2526 227.773 71.2718C227.486 72.2519 226.901 73.1183 226.098 73.7503C225.296 74.3823 224.317 74.7485 223.297 74.798C222.277 74.8476 221.267 74.5779 220.407 74.0265C219.547 73.4752 218.881 72.6696 218.5 71.7218C218.028 70.5437 216.089 71.0585 216.572 72.2529C216.955 73.2539 217.563 74.1532 218.35 74.8809C219.137 75.6085 220.081 76.1449 221.109 76.4485C222.137 76.752 223.221 76.8145 224.277 76.631C225.333 76.4475 226.332 76.0231 227.198 75.3906C231.004 72.5316 230.618 66.9052 227.333 63.7911C225.349 62.0139 222.805 60.9874 220.143 60.8896C218.848 60.8059 218.882 62.7634 220.143 62.8896C221.324 62.9791 222.509 62.7709 223.588 62.284C224.668 61.7971 225.608 61.0471 226.323 60.1028C227.031 59.1716 227.5 58.0818 227.69 56.928C227.88 55.7742 227.786 54.5914 227.415 53.4825C225.758 48.371 219.85 46.5788 215.256 48.9156C214.109 49.4992 215.121 51.2233 216.268 50.6423L216.266 50.6356Z" fill="#090814"/>
<path d="M390.757 422.096L400.621 423.501L457.988 20.71L448.124 19.3052L390.757 422.096Z" fill="#090814"/>
<path d="M500 511.912H338.097V517.724H500V511.912Z" fill="#D6D6E3"/>
<path d="M421.274 324.384L469.33 517.44L474.943 515.945L426.887 322.9L421.274 324.384Z" fill="#D6D6E3"/>
<path d="M421.125 332.572C425.71 332.572 429.427 328.854 429.427 324.269C429.427 319.684 425.71 315.967 421.125 315.967C416.539 315.967 412.822 319.684 412.822 324.269C412.822 328.854 416.539 332.572 421.125 332.572Z" fill="#090814"/>
<path d="M110.051 263.391C110.051 263.391 120.052 261.666 134.883 248.215C146.616 237.577 162.443 239.669 168.546 241.01C168.754 241.055 168.944 241.162 169.089 241.318C169.234 241.474 169.328 241.67 169.358 241.881C169.389 242.092 169.354 242.307 169.258 242.497C169.162 242.687 169.011 242.843 168.823 242.945C166.356 244.294 162.533 246.266 160.741 246.491C160.741 246.491 164.437 250.315 160.509 252.361C160.038 252.592 159.513 252.688 158.991 252.638C158.47 252.588 157.972 252.393 157.555 252.077C155.665 250.697 150.417 253.831 142.807 255.458C142.807 255.458 113.147 286.152 106.25 280.949L110.051 263.391Z" fill="#9F616A"/>
<path d="M58.9853 221.659C58.9853 221.659 56.2261 233.385 58.9853 241.663L46.5693 243.387L35.5332 237.869V230.626C35.5332 230.626 40.7068 219.59 39.3268 206.83L58.9853 221.659Z" fill="#9F616A"/>
<path d="M23.8297 475.824C23.8297 475.824 14.8328 493.413 16.2425 505.139C17.6521 516.866 4.51608 506.519 5.89601 499.621C6.18819 507.971 2.03488 470.381 0.092856 461.579C-0.11768 460.628 0.0326659 459.632 0.514719 458.786C0.996771 457.939 1.77616 457.302 2.70158 456.998C6.84812 455.633 13.7903 453.961 17.2769 456.518C22.4275 460.304 23.8297 475.824 23.8297 475.824Z" fill="#090814"/>
<path d="M57.9501 495.137C57.9501 495.137 69.6765 510.311 72.7805 510.657C75.8845 511.002 77.954 515.831 72.7805 516.865C62.4512 518.663 51.8277 517.627 42.0407 513.866C41.0613 513.484 40.2385 512.784 39.7042 511.879C39.1699 510.974 38.9549 509.915 39.0939 508.873L41.0717 494.103L57.9501 495.137Z" fill="#090814"/>
<path d="M77.2643 334.084L88.5102 335.582C86.9666 348.718 87.012 361.991 88.6452 375.116V422.351C88.6452 422.351 88.8625 426.512 80.2253 432.562C71.1681 438.859 62.4396 445.616 54.0741 452.806L22.7797 479.918C22.7797 479.918 10.3637 464.743 12.0885 455.776C12.0885 455.776 32.7813 449.223 35.5405 438.532C37.1222 432.414 45.1447 427.286 51.7123 424.062C55.8414 422.057 59.1602 418.7 61.1175 414.548C63.0747 410.396 63.5526 405.699 62.4717 401.238C62.0882 399.688 61.4955 398.197 60.7099 396.807C55.1915 387.15 47.2594 365.423 47.2594 365.423L62.4319 336.498L77.2643 334.084Z" fill="#090814"/>
<path d="M60.7086 496.194C60.7086 496.194 40.3605 499.643 39.6702 501.712C38.9799 503.782 39.6702 498.953 39.6702 498.953C39.6702 498.953 27.9439 463.43 30.6733 432.053C33.4028 400.676 27.2245 379.975 27.2245 379.975C27.2245 379.975 19.9821 356.523 24.1205 343.073C28.259 329.622 71.715 335.486 71.715 335.486C71.715 335.486 56.5398 371.009 56.8846 387.908C56.8846 387.908 55.1605 438.951 52.0565 444.814C52.0862 444.785 56.9143 494.793 60.7086 496.194Z" fill="#090814"/>
<path d="M58.3179 230.626C58.3179 230.626 56.2483 243.372 35.5554 237.869L49.321 342.706C49.321 342.706 89.3275 344.085 88.9827 339.257L80.7355 275.806L58.3179 230.626Z" fill="#018580"/>
<path d="M57.7765 230.281C60.8587 232.692 64.5444 234.21 68.4307 234.668C71.8642 234.931 75.2022 235.922 78.2224 237.577C81.7684 239.563 85.7199 242.45 86.9197 245.966C89.3341 252.864 104.509 264.245 111.406 261.831L108.992 282.524C108.992 282.524 89.3341 281.489 85.8853 273.901L91.741 347.744H86.5675C86.5675 347.744 83.8083 327.741 81.7387 323.603C79.6692 319.464 75.5307 296.702 75.1859 291.183C74.8411 285.665 69.6675 253.935 65.1843 248.448L57.7698 232.41L57.7765 230.281Z" fill="white"/>
<path opacity="0.1" d="M40.1893 217.004C40.6394 213.735 39.7392 211.695 39.3269 207.865L58.9853 222.694C58.9853 222.694 58.513 224.696 58.1533 227.628C57.1618 227.788 56.159 227.868 55.1546 227.868C48.3312 227.868 43.4208 222.537 40.1893 217.004Z" fill="black"/>
<path d="M55.1909 226.841C65.4766 226.841 73.8149 218.503 73.8149 208.217C73.8149 197.931 65.4766 189.593 55.1909 189.593C44.9051 189.593 36.5669 197.931 36.5669 208.217C36.5669 218.503 44.9051 226.841 55.1909 226.841Z" fill="#9F616A"/>
<path d="M73.9094 192.358C74.0194 189.46 73.5489 186.569 72.5254 183.856C72.8095 184.283 72.9296 184.798 72.8635 185.306C72.7974 185.815 72.5495 186.282 72.1658 186.622C71.6114 183.664 70.0928 180.973 67.8472 178.969C69.0719 179.171 69.7015 180.685 69.3992 181.889C68.9856 183.065 68.2495 184.101 67.275 184.879C67.3789 183.057 66.1744 181.356 64.6521 180.358C63.0658 179.447 61.3329 178.819 59.5311 178.503C60.1489 178.723 60.6768 179.14 61.0324 179.691C61.3879 180.242 61.5513 180.895 61.4968 181.548C61.4916 181.77 61.3998 181.981 61.241 182.136C61.068 182.247 60.8645 182.301 60.6594 182.289C58.8664 182.358 57.0709 182.319 55.2827 182.172C53.0841 181.924 50.8729 181.806 48.6604 181.819C41.7405 182.109 34.7855 186.836 33.2356 193.583C32.9142 195.22 32.745 196.883 32.7301 198.551L32.3927 207.07C32.1958 209.555 32.298 212.054 32.6971 214.515C33.1757 216.787 34.1497 218.925 35.5496 220.777C36.9495 222.629 38.7408 224.149 40.7958 225.229C43.2925 221.61 43.5152 216.959 44.3803 212.648C44.517 211.654 44.887 210.706 45.4599 209.881C45.7559 209.474 46.1713 209.168 46.6486 209.007C47.1259 208.846 47.6415 208.837 48.124 208.982C49.0585 209.356 49.4594 210.781 48.6847 211.418C49.377 212.234 50.6706 211.626 51.4513 210.899C53.6351 208.827 55.1384 206.142 55.7625 203.197C56.0736 201.716 56.3853 199.891 57.8388 199.384C58.3388 199.246 58.8613 199.211 59.3753 199.28C62.4064 199.488 67.1468 200.74 70.0807 199.778C72.7745 198.891 73.9094 194.912 73.9094 192.358Z" fill="#090814"/>
<path d="M36.7388 227.035L14.494 246.176C14.494 246.176 1.38833 259.627 6.9067 281.355C6.9067 281.355 9.32106 313.085 12.0802 314.464C12.0802 314.464 21.7371 333.778 22.4267 352.056C22.4267 352.056 36.0499 324.638 41.9205 340.503C47.7911 356.368 60.7166 359.996 60.7166 359.996L56.9226 313.095L53.1286 266.194C53.1286 266.194 33.9797 232.868 36.7388 227.035Z" fill="white"/>
<path d="M26.5659 307.881C26.5659 307.881 21.0476 304.087 12.0811 314.434L34.1539 354.44L41.569 343.246C41.569 343.246 25.8763 312.364 26.5659 307.881Z" fill="#9F616A"/>
<path opacity="0.1" d="M30.1867 267.357C30.1867 267.357 29.4971 292.189 32.2562 301.501Z" fill="black"/>
<path opacity="0.1" d="M86.0588 272.185C86.0588 272.185 81.9204 270.806 81.9204 267.357Z" fill="black"/>
<path d="M333.832 249.688L334.684 255.167C332.142 251.942 327.628 248.128 323.862 245.486C328.312 245.833 333.994 245.727 337.772 244.801L334.19 248.601C353.936 254.068 371.868 249.555 377.188 237.609L378.597 238.237C373.04 250.717 354.35 255.432 333.832 249.688Z" fill="#D6D6E3"/>
<path d="M366.896 71.6185L371.006 67.8959C367.006 68.8022 361.097 68.9234 356.508 68.6057C360.183 71.1365 364.53 74.7934 366.881 77.8903L366.49 72.685C385.268 80.8636 396.357 95.6524 392.971 108.278L394.464 108.678C397.999 95.4912 386.447 80.0682 366.896 71.6185Z" fill="#D6D6E3"/>
<path d="M362.089 168.039L362.941 173.518C360.399 170.293 355.885 166.479 352.118 163.837C356.569 164.184 362.25 164.078 366.028 163.152L362.446 166.952C382.192 172.419 400.125 167.906 405.445 155.961L406.854 156.588C401.296 169.068 382.607 173.783 362.089 168.039Z" fill="#D6D6E3"/>
</svg>
