<svg width="500" height="385" viewBox="0 0 500 385" fill="none" xmlns="http://www.w3.org/2000/svg">
<g clip-path="url(#clip0_56_302)">
<path opacity="0.75" d="M464.486 385.678C456.897 364.96 458.16 345.077 465.967 323.826C473.775 302.577 485.334 282.107 488.382 259.954C489.643 250.799 489.295 241.086 484.281 232.964C477.375 221.776 462.509 215.566 447.948 214.826C433.388 214.085 419.042 218.043 405.615 223.006C397.649 225.95 389.437 229.337 380.802 228.844C361.988 227.768 351.009 209.034 350.464 192.619C349.918 176.204 355.822 159.799 353.301 143.524C349.253 117.393 320.888 95.8403 290.615 95.8911C260.341 95.9419 232.073 117.589 228.139 143.733C224.896 165.286 236.285 188.029 227.762 208.459C221.883 222.552 206.262 233.17 189.137 234.714C150.875 238.163 122.342 201.256 84.1751 197.08C55.6099 193.955 27.8015 210.907 14.2108 233.012C0.620176 255.117 -1.19064 281.275 0.554661 306.305C2.29996 331.334 7.6816 358.46 6.56125 383.517" fill="#E6E6E6"/>
<path opacity="0.75" d="M466.618 332.722C474.205 312.635 485.437 293.286 488.399 272.345C489.624 263.69 489.286 254.509 484.414 246.832C477.703 236.255 463.257 230.386 449.108 229.686C434.958 228.986 421.017 232.727 407.971 237.418C400.23 240.201 392.249 243.404 383.858 242.937C365.576 241.92 354.907 224.211 354.377 208.694C353.847 193.178 359.585 177.67 357.134 162.286C353.2 137.585 325.637 117.212 296.219 117.259C266.8 117.307 239.33 137.77 235.507 162.484C232.356 182.858 243.423 204.356 235.141 223.668C229.427 236.991 214.248 247.028 197.607 248.486C160.426 251.747 132.698 216.859 95.6097 212.911C67.8513 209.957 40.8283 225.982 27.6219 246.878C14.4155 267.774 12.6555 292.501 14.3514 316.161C15.9532 338.507 20.3683 360.768 19.937 383.127H461.881C456.916 366.964 460.489 348.948 466.618 332.722Z" fill="white"/>
<path d="M586.96 387.553H-61.83C-64.133 387.553 -66 386.149 -66 384.417C-66 382.685 -64.133 381.281 -61.83 381.281H586.959C589.262 381.281 591.129 382.685 591.129 384.417C591.13 386.149 589.263 387.553 586.96 387.553Z" fill="black"/>
<path d="M366.067 381.358H159.063C152.051 381.358 146.367 375.674 146.367 368.662V78.857C146.367 71.845 152.051 66.161 159.063 66.161H366.066C373.078 66.161 378.762 71.845 378.762 78.857V368.662C378.763 375.674 373.079 381.358 366.067 381.358Z" fill="#211F20"/>
<path d="M159.064 377.358C154.269 377.358 150.368 373.457 150.368 368.662V78.857C150.368 74.062 154.269 70.161 159.064 70.161H366.068C370.863 70.161 374.764 74.062 374.764 78.857V368.662C374.764 373.457 370.863 377.358 366.068 377.358H159.064Z" fill="#211F20"/>
<path d="M265.596 47.8431L259.455 47.8601C253.35 47.8771 248.414 52.8391 248.431 58.9441L248.45 65.9621L276.699 65.8851L276.68 58.8661C276.663 52.7621 271.701 47.8261 265.596 47.8431ZM262.567 63.0871C259.918 63.0941 257.765 60.9531 257.758 58.3041C257.751 55.6551 259.892 53.5021 262.541 53.4951C265.19 53.4881 267.343 55.6291 267.35 58.2781C267.357 60.9271 265.216 63.0801 262.567 63.0871Z" fill="#B4B4B5"/>
<path d="M299.763 109.634L222.047 109.843L222.051 111.364L299.767 111.155L299.763 109.634Z" fill="#B4B4B5"/>
<path d="M361.697 90.2501H160.864V356.553H361.697V90.2501Z" fill="white"/>
<path d="M361.697 90.2501H262.565V356.553H361.697V90.2501Z" fill="#F7F7F7"/>
<path d="M210.974 119.786C210.934 119.385 210.763 119.073 210.462 118.851C210.16 118.629 209.751 118.518 209.234 118.518C208.882 118.518 208.586 118.568 208.344 118.667C208.102 118.763 207.916 118.897 207.787 119.07C207.661 119.242 207.598 119.438 207.598 119.656C207.591 119.839 207.63 119.998 207.712 120.134C207.799 120.27 207.916 120.387 208.065 120.487C208.215 120.583 208.387 120.667 208.582 120.74C208.778 120.81 208.987 120.87 209.209 120.919L210.124 121.138C210.568 121.237 210.975 121.37 211.347 121.536C211.718 121.701 212.039 121.905 212.311 122.147C212.583 122.389 212.793 122.674 212.943 123.002C213.095 123.33 213.173 123.707 213.176 124.131C213.173 124.754 213.014 125.294 212.699 125.752C212.387 126.206 211.937 126.559 211.347 126.811C210.76 127.059 210.052 127.183 209.224 127.183C208.402 127.183 207.686 127.057 207.076 126.806C206.47 126.554 205.996 126.181 205.654 125.687C205.316 125.19 205.139 124.575 205.122 123.843H207.205C207.229 124.184 207.326 124.469 207.499 124.698C207.674 124.923 207.908 125.094 208.2 125.21C208.495 125.322 208.828 125.379 209.199 125.379C209.564 125.379 209.88 125.326 210.149 125.22C210.42 125.114 210.631 124.966 210.78 124.777C210.929 124.588 211.004 124.371 211.004 124.126C211.004 123.897 210.936 123.705 210.8 123.549C210.667 123.393 210.472 123.261 210.213 123.151C209.958 123.042 209.645 122.943 209.274 122.853L208.165 122.575C207.306 122.366 206.629 122.039 206.131 121.595C205.634 121.151 205.387 120.553 205.391 119.801C205.387 119.184 205.551 118.646 205.883 118.185C206.218 117.724 206.677 117.365 207.26 117.106C207.843 116.847 208.506 116.718 209.249 116.718C210.004 116.718 210.664 116.847 211.227 117.106C211.794 117.365 212.235 117.724 212.55 118.185C212.865 118.646 213.027 119.179 213.037 119.786H210.974ZM223.981 121.948C223.981 123.059 223.77 124.003 223.349 124.782C222.932 125.561 222.362 126.156 221.639 126.567C220.92 126.975 220.111 127.178 219.213 127.178C218.308 127.178 217.496 126.973 216.777 126.562C216.058 126.151 215.489 125.556 215.072 124.777C214.654 123.998 214.445 123.055 214.445 121.948C214.445 120.838 214.654 119.893 215.072 119.115C215.489 118.336 216.058 117.742 216.777 117.335C217.496 116.924 218.308 116.718 219.213 116.718C220.111 116.718 220.92 116.924 221.639 117.335C222.362 117.742 222.932 118.336 223.349 119.115C223.77 119.893 223.981 120.838 223.981 121.948ZM221.798 121.948C221.798 121.229 221.69 120.623 221.475 120.129C221.263 119.635 220.963 119.26 220.575 119.005C220.187 118.75 219.733 118.622 219.213 118.622C218.693 118.622 218.239 118.75 217.851 119.005C217.463 119.26 217.161 119.635 216.946 120.129C216.734 120.623 216.628 121.229 216.628 121.948C216.628 122.668 216.734 123.274 216.946 123.768C217.161 124.262 217.463 124.636 217.851 124.892C218.239 125.147 218.693 125.274 219.213 125.274C219.733 125.274 220.187 125.147 220.575 124.892C220.963 124.636 221.263 124.262 221.475 123.768C221.69 123.274 221.798 122.668 221.798 121.948ZM225.575 127.039V116.857H229.592C230.365 116.857 231.023 117.005 231.566 117.3C232.11 117.592 232.524 117.998 232.809 118.518C233.097 119.035 233.242 119.632 233.242 120.308C233.242 120.984 233.096 121.58 232.804 122.097C232.512 122.615 232.09 123.017 231.536 123.306C230.986 123.594 230.32 123.738 229.538 123.738H226.977V122.013H229.19C229.604 122.013 229.945 121.942 230.214 121.799C230.486 121.653 230.688 121.453 230.82 121.198C230.956 120.939 231.024 120.642 231.024 120.308C231.024 119.97 230.956 119.675 230.82 119.423C230.688 119.168 230.486 118.97 230.214 118.831C229.942 118.689 229.597 118.617 229.18 118.617H227.728V127.039H225.575ZM244.631 120.149C244.562 119.907 244.464 119.693 244.338 119.507C244.212 119.318 244.058 119.159 243.876 119.03C243.697 118.897 243.491 118.796 243.259 118.727C243.031 118.657 242.777 118.622 242.499 118.622C241.978 118.622 241.521 118.752 241.127 119.01C240.735 119.269 240.43 119.645 240.212 120.139C239.993 120.629 239.884 121.229 239.884 121.938C239.884 122.648 239.991 123.251 240.207 123.748C240.422 124.245 240.727 124.625 241.122 124.887C241.516 125.145 241.982 125.274 242.519 125.274C243.006 125.274 243.422 125.188 243.766 125.016C244.114 124.84 244.38 124.593 244.562 124.275C244.747 123.957 244.84 123.581 244.84 123.146L245.278 123.211H242.653V121.59H246.913V122.873C246.913 123.768 246.725 124.537 246.347 125.18C245.969 125.82 245.448 126.313 244.786 126.661C244.123 127.006 243.364 127.178 242.509 127.178C241.554 127.178 240.716 126.968 239.993 126.547C239.27 126.123 238.707 125.521 238.303 124.742C237.902 123.96 237.701 123.032 237.701 121.958C237.701 121.133 237.82 120.397 238.059 119.751C238.301 119.101 238.639 118.551 239.073 118.1C239.507 117.65 240.013 117.307 240.59 117.071C241.166 116.836 241.791 116.718 242.464 116.718C243.041 116.718 243.578 116.803 244.075 116.972C244.572 117.137 245.013 117.373 245.397 117.678C245.785 117.983 246.101 118.346 246.347 118.767C246.592 119.184 246.749 119.645 246.819 120.149H244.631ZM254.82 116.857H256.972V123.47C256.972 124.212 256.795 124.862 256.44 125.419C256.089 125.975 255.597 126.41 254.964 126.721C254.331 127.029 253.593 127.183 252.751 127.183C251.906 127.183 251.167 127.029 250.534 126.721C249.901 126.41 249.409 125.975 249.057 125.419C248.706 124.862 248.53 124.212 248.53 123.47V116.857H250.683V123.286C250.683 123.673 250.768 124.018 250.937 124.32C251.109 124.621 251.351 124.858 251.663 125.031C251.974 125.203 252.337 125.289 252.751 125.289C253.169 125.289 253.532 125.203 253.84 125.031C254.152 124.858 254.392 124.621 254.561 124.32C254.733 124.018 254.82 123.673 254.82 123.286V116.857ZM260.896 116.857V127.039H258.743V116.857H260.896ZM266.277 127.039H262.667V116.857H266.306C267.331 116.857 268.212 117.061 268.951 117.469C269.69 117.873 270.259 118.455 270.657 119.214C271.058 119.973 271.258 120.881 271.258 121.938C271.258 122.999 271.058 123.91 270.657 124.673C270.259 125.435 269.687 126.02 268.941 126.428C268.199 126.835 267.311 127.039 266.277 127.039ZM264.82 125.195H266.187C266.823 125.195 267.359 125.082 267.793 124.857C268.23 124.628 268.559 124.275 268.777 123.798C268.999 123.317 269.11 122.697 269.11 121.938C269.11 121.186 268.999 120.571 268.777 120.094C268.559 119.617 268.232 119.265 267.798 119.04C267.364 118.815 266.828 118.702 266.192 118.702H264.82V125.195ZM272.853 127.039V116.857H279.714V118.632H275.005V121.058H279.361V122.833H275.005V125.264H279.733V127.039H272.853ZM281.425 127.039V116.857H283.578V125.264H287.943V127.039H281.425ZM291.521 116.857V127.039H289.368V116.857H291.521ZM301.809 116.857V127.039H299.949L295.519 120.631H295.445V127.039H293.292V116.857H295.181L299.576 123.261H299.666V116.857H301.809ZM303.587 127.039V116.857H310.448V118.632H305.74V121.058H310.095V122.833H305.74V125.264H310.468V127.039H303.587ZM317.683 119.786C317.643 119.385 317.472 119.073 317.171 118.851C316.869 118.629 316.46 118.518 315.943 118.518C315.591 118.518 315.295 118.568 315.053 118.667C314.811 118.763 314.625 118.897 314.496 119.07C314.37 119.242 314.307 119.438 314.307 119.656C314.3 119.839 314.339 119.998 314.421 120.134C314.508 120.27 314.625 120.387 314.774 120.487C314.924 120.583 315.096 120.667 315.291 120.74C315.487 120.81 315.696 120.87 315.918 120.919L316.833 121.138C317.277 121.237 317.684 121.37 318.056 121.536C318.427 121.701 318.748 121.905 319.02 122.147C319.292 122.389 319.502 122.674 319.652 123.002C319.804 123.33 319.882 123.707 319.885 124.131C319.882 124.754 319.723 125.294 319.408 125.752C319.096 126.206 318.646 126.559 318.056 126.811C317.469 127.059 316.761 127.183 315.933 127.183C315.111 127.183 314.395 127.057 313.785 126.806C313.179 126.554 312.705 126.181 312.363 125.687C312.025 125.19 311.848 124.575 311.831 123.843H313.914C313.938 124.184 314.035 124.469 314.208 124.698C314.383 124.923 314.617 125.094 314.909 125.21C315.204 125.322 315.537 125.379 315.908 125.379C316.273 125.379 316.589 125.326 316.858 125.22C317.129 125.114 317.34 124.966 317.489 124.777C317.638 124.588 317.713 124.371 317.713 124.126C317.713 123.897 317.645 123.705 317.509 123.549C317.376 123.393 317.181 123.261 316.922 123.151C316.667 123.042 316.354 122.943 315.983 122.853L314.874 122.575C314.015 122.366 313.338 122.039 312.84 121.595C312.343 121.151 312.096 120.553 312.1 119.801C312.096 119.184 312.26 118.646 312.592 118.185C312.927 117.724 313.386 117.365 313.969 117.106C314.552 116.847 315.215 116.718 315.958 116.718C316.713 116.718 317.373 116.847 317.936 117.106C318.503 117.365 318.944 117.724 319.259 118.185C319.574 118.646 319.736 119.179 319.746 119.786H317.683Z" fill="#018580"/>
<path d="M338.054 149.434H184.507C183.167 149.434 182.081 148.348 182.081 147.008C182.081 145.668 183.167 144.582 184.507 144.582H338.054C339.394 144.582 340.48 145.668 340.48 147.008C340.48 148.348 339.394 149.434 338.054 149.434Z" fill="#DEDEDE"/>
<path d="M338.054 163.887H184.507C183.167 163.887 182.081 162.801 182.081 161.461C182.081 160.121 183.167 159.035 184.507 159.035H338.054C339.394 159.035 340.48 160.121 340.48 161.461C340.48 162.801 339.394 163.887 338.054 163.887Z" fill="#DEDEDE"/>
<path d="M338.054 178.34H184.507C183.167 178.34 182.081 177.254 182.081 175.914C182.081 174.574 183.167 173.488 184.507 173.488H338.054C339.394 173.488 340.48 174.574 340.48 175.914C340.48 177.254 339.394 178.34 338.054 178.34Z" fill="#DEDEDE"/>
<path d="M338.054 192.793H184.507C183.167 192.793 182.081 191.707 182.081 190.367C182.081 189.027 183.167 187.941 184.507 187.941H338.054C339.394 187.941 340.48 189.027 340.48 190.367C340.48 191.707 339.394 192.793 338.054 192.793Z" fill="#DEDEDE"/>
<path d="M338.054 207.246H184.507C183.167 207.246 182.081 206.16 182.081 204.82C182.081 203.48 183.167 202.394 184.507 202.394H338.054C339.394 202.394 340.48 203.48 340.48 204.82C340.48 206.16 339.394 207.246 338.054 207.246Z" fill="#DEDEDE"/>
<path d="M338.054 221.699H184.507C183.167 221.699 182.081 220.613 182.081 219.273C182.081 217.933 183.167 216.847 184.507 216.847H338.054C339.394 216.847 340.48 217.933 340.48 219.273C340.48 220.613 339.394 221.699 338.054 221.699Z" fill="#DEDEDE"/>
<path d="M338.054 236.152H184.507C183.167 236.152 182.081 235.066 182.081 233.726C182.081 232.386 183.167 231.3 184.507 231.3H338.054C339.394 231.3 340.48 232.386 340.48 233.726C340.48 235.066 339.394 236.152 338.054 236.152Z" fill="#DEDEDE"/>
<path d="M338.054 250.605H184.507C183.167 250.605 182.081 249.519 182.081 248.179C182.081 246.839 183.167 245.753 184.507 245.753H338.054C339.394 245.753 340.48 246.839 340.48 248.179C340.48 249.518 339.394 250.605 338.054 250.605Z" fill="#DEDEDE"/>
<path d="M338.054 265.058H184.507C183.167 265.058 182.081 263.972 182.081 262.632C182.081 261.292 183.167 260.206 184.507 260.206H338.054C339.394 260.206 340.48 261.292 340.48 262.632C340.48 263.971 339.394 265.058 338.054 265.058Z" fill="#DEDEDE"/>
<path d="M338.054 279.51H184.507C183.167 279.51 182.081 278.424 182.081 277.084C182.081 275.744 183.167 274.658 184.507 274.658H338.054C339.394 274.658 340.48 275.744 340.48 277.084C340.48 278.424 339.394 279.51 338.054 279.51Z" fill="#DEDEDE"/>
<path d="M338.054 293.963H184.507C183.167 293.963 182.081 292.877 182.081 291.537C182.081 290.197 183.167 289.111 184.507 289.111H338.054C339.394 289.111 340.48 290.197 340.48 291.537C340.48 292.877 339.394 293.963 338.054 293.963Z" fill="#DEDEDE"/>
<path d="M338.054 308.416H184.507C183.167 308.416 182.081 307.33 182.081 305.99C182.081 304.65 183.167 303.564 184.507 303.564H338.054C339.394 303.564 340.48 304.65 340.48 305.99C340.48 307.33 339.394 308.416 338.054 308.416Z" fill="#DEDEDE"/>
<path d="M183.31 333.714C183.333 342.079 190.133 348.842 198.498 348.819C206.863 348.796 213.626 341.996 213.603 333.631C213.58 325.266 206.78 318.503 198.415 318.526C190.05 318.549 183.287 325.348 183.31 333.714Z" stroke="black" stroke-width="2" stroke-miterlimit="10"/>
<path d="M191.221 328.395L197.03 341.209L209.065 321.38" stroke="#018580" stroke-width="3.4189" stroke-miterlimit="10" stroke-linecap="round" stroke-linejoin="round"/>
<path d="M335.333 345.074C341.632 339.568 342.276 329.999 336.77 323.7C331.265 317.401 321.696 316.757 315.396 322.262C309.097 327.768 308.454 337.337 313.959 343.636C319.464 349.935 329.034 350.579 335.333 345.074Z" stroke="black" stroke-width="2" stroke-miterlimit="10"/>
<path d="M318.099 328.395L323.908 341.209L335.943 321.38" stroke="#018580" stroke-width="3.4189" stroke-miterlimit="10" stroke-linecap="round" stroke-linejoin="round"/>
<path d="M246.134 333.714C246.157 342.079 252.957 348.842 261.322 348.819C269.687 348.796 276.45 341.996 276.427 333.631C276.404 325.266 269.604 318.503 261.239 318.526C252.874 318.549 246.111 325.348 246.134 333.714Z" stroke="black" stroke-width="2" stroke-miterlimit="10"/>
<path d="M254.045 328.395L259.855 341.209L271.889 321.38" stroke="#018580" stroke-width="3.4189" stroke-miterlimit="10" stroke-linecap="round" stroke-linejoin="round"/>
<path d="M322.03 64.864H203.101V83.975H322.03V64.864Z" fill="#B4B4B5"/>
<path d="M319.029 80.9744V67.8644L206.101 67.8644V80.9744L319.029 80.9744Z" fill="#EAEAEA"/>
<path d="M206.159 83.9821H203.741V94.9691H206.159V83.9821Z" fill="#C6C6C6"/>
<path d="M204.452 83.9821H203.741V94.9691H204.452V83.9821Z" fill="#B3B3B3"/>
<path d="M207.012 98.5811V94.8851C207.012 94.5891 206.694 94.3491 206.301 94.3491H203.812C203.419 94.3491 203.101 94.5891 203.101 94.8851V99.1171V101.528C203.101 101.824 203.419 102.064 203.812 102.064H207.012H218.071C218.464 102.064 218.782 101.824 218.782 101.528V99.6531C218.782 99.3571 218.464 99.1171 218.071 99.1171H207.723C207.331 99.1161 207.012 98.8761 207.012 98.5811Z" fill="black"/>
<path d="M207.012 98.5811V94.8851C207.012 94.5891 206.694 94.3491 206.301 94.3491H203.812C203.419 94.3491 203.101 94.5891 203.101 94.8851V99.1171V101.528C203.101 101.824 203.419 102.064 203.812 102.064H207.012H218.071C218.464 102.064 218.782 101.824 218.782 101.528V99.6531C218.782 99.3571 218.464 99.1171 218.071 99.1171H207.723C207.331 99.1161 207.012 98.8761 207.012 98.5811Z" fill="black"/>
<path d="M203.812 101.663C203.713 101.663 203.632 101.602 203.632 101.527V94.884C203.632 94.809 203.713 94.748 203.812 94.748H206.301C206.4 94.748 206.481 94.809 206.481 94.884V98.58C206.481 99.096 207.038 99.516 207.723 99.516H218.071C218.17 99.516 218.251 99.577 218.251 99.652V101.527C218.251 101.602 218.17 101.663 218.071 101.663H203.812Z" fill="black"/>
<path d="M318.972 94.9688H321.39V83.9818H318.972V94.9688Z" fill="#C6C6C6"/>
<path d="M320.679 94.9688H321.39V83.9818H320.679V94.9688Z" fill="#B3B3B3"/>
<path d="M318.118 98.5811V94.8851C318.118 94.5891 318.436 94.3491 318.829 94.3491H321.318C321.711 94.3491 322.029 94.5891 322.029 94.8851V99.1171V101.528C322.029 101.824 321.711 102.064 321.318 102.064H318.118H307.059C306.666 102.064 306.348 101.824 306.348 101.528V99.6531C306.348 99.3571 306.666 99.1171 307.059 99.1171H317.407C317.799 99.1161 318.118 98.8761 318.118 98.5811Z" fill="black"/>
<path d="M318.118 98.5811V94.8851C318.118 94.5891 318.436 94.3491 318.829 94.3491H321.318C321.711 94.3491 322.029 94.5891 322.029 94.8851V99.1171V101.528C322.029 101.824 321.711 102.064 321.318 102.064H318.118H307.059C306.666 102.064 306.348 101.824 306.348 101.528V99.6531C306.348 99.3571 306.666 99.1171 307.059 99.1171H317.407C317.799 99.1161 318.118 98.8761 318.118 98.5811Z" fill="black"/>
<path d="M321.318 101.663C321.417 101.663 321.498 101.602 321.498 101.527V94.884C321.498 94.809 321.417 94.748 321.318 94.748H318.829C318.73 94.748 318.649 94.809 318.649 94.884V98.58C318.649 99.096 318.092 99.516 317.407 99.516H307.059C306.96 99.516 306.879 99.577 306.879 99.652V101.527C306.879 101.602 306.96 101.663 307.059 101.663H321.318Z" fill="black"/>
<path d="M216.154 74.4271C216.158 75.9781 217.418 77.2311 218.969 77.2271C220.52 77.2231 221.773 75.9621 221.769 74.4121C221.765 72.8611 220.504 71.6081 218.954 71.6121C217.403 71.6161 216.149 72.8771 216.154 74.4271Z" fill="#B4B4B5"/>
<path d="M216.813 74.425C216.816 75.612 217.781 76.572 218.968 76.569C220.155 76.566 221.114 75.601 221.111 74.414C221.108 73.227 220.143 72.267 218.956 72.27C217.768 72.273 216.809 73.238 216.813 74.425Z" fill="#D6D6D8"/>
<path d="M303.361 74.4271C303.365 75.9781 304.626 77.2311 306.176 77.2271C307.726 77.2231 308.98 75.9621 308.976 74.4121C308.972 72.8611 307.712 71.6081 306.161 71.6121C304.611 71.6161 303.357 72.8771 303.361 74.4271Z" fill="#B4B4B5"/>
<path d="M304.02 74.425C304.023 75.612 304.988 76.572 306.175 76.569C307.362 76.566 308.322 75.601 308.318 74.414C308.315 73.227 307.35 72.267 306.163 72.27C304.977 72.273 304.017 73.238 304.02 74.425Z" fill="#D6D6D8"/>
<path d="M100.035 145.334C105.389 150.141 107.783 159.844 105.67 168.173C104.914 171.152 103.538 174.645 105.321 177.493C106.35 179.137 108.166 179.928 109.849 180.716C112.574 181.993 115.639 184.628 114.536 188.351C113.355 192.338 108.97 194.124 111.78 198.756C112.69 200.255 113.942 201.537 114.525 203.22C115.146 205.01 114.913 207.075 114.144 208.815C111.818 214.072 105.702 216.686 100.989 218.53C95.9011 220.521 90.4221 221.304 85.0821 220.487C77.0011 219.25 68.3051 214.64 64.0361 206.859C61.6301 202.475 60.7011 197.049 61.9101 192.072C62.4541 189.833 63.4511 187.661 65.0501 186.118C66.3871 184.829 68.0611 184.047 69.5771 183.02C75.1141 179.268 74.0421 171.572 74.1101 165.527C74.1761 159.642 76.0631 153.726 79.2521 149.404C84.7021 142.019 93.6501 139.601 100.035 145.334Z" fill="black"/>
<path d="M115.758 192.018C115.758 192.018 131.849 219.355 127.671 228.837C123.492 238.319 115.758 192.018 115.758 192.018Z" fill="#E3B59B"/>
<path d="M83.299 258.569C83.299 258.569 77.28 288.783 77.28 314.176C77.28 314.176 68.824 354.997 74.939 375.247H84.302C84.302 375.247 85.64 345.033 90.655 326.39C95.671 307.747 99.349 303.247 101.69 289.747C101.69 289.747 97.009 363.89 99.907 372.997H112.391C112.391 372.997 111.388 335.068 113.06 330.247C113.06 330.247 127.327 284.818 123.983 258.568L83.299 258.569Z" fill="black"/>
<path d="M78.943 316.093C78.943 290.7 84.962 260.486 84.962 260.486H124.189C124.129 259.838 124.062 259.196 123.982 258.57H83.299C83.299 258.57 77.28 288.784 77.28 314.177C77.28 314.177 68.824 354.998 74.939 375.248H76.081C70.997 354.453 78.943 316.093 78.943 316.093Z" fill="#211F20"/>
<path d="M103.353 291.664C102.678 295.556 101.891 298.7 100.994 301.651C99.812 322.992 97.739 366.186 99.906 372.998H101.181C99.143 358.352 103.353 291.664 103.353 291.664Z" fill="#211F20"/>
<path d="M91.1632 187.051C91.1632 187.051 75.9712 188.658 72.7192 190.747C69.4672 192.836 57.7352 227.39 58.6992 237.193C59.6632 246.997 84.2532 264.675 84.2532 264.675L86.8242 258.568C86.8242 258.568 73.9672 240.729 68.3422 235.907C68.3422 235.907 76.8602 218.068 78.9492 209.068C78.9492 209.068 86.7172 216.622 86.5032 225.863H122.289C122.289 225.863 125.503 217.747 122.289 208.318C119.531 200.229 117.01 194.151 115.892 192.215C115.676 191.84 115.336 191.561 114.927 191.418L105.342 188.064C103.224 187.392 101.015 187.05 98.7942 187.05L91.1632 187.051Z" fill="#FDCAAD"/>
<path d="M123.323 212.467C123.379 210.575 122.488 208.924 121.984 207.445C119.701 200.882 115.714 196.321 114.881 193.561C114.379 192.452 114.533 192.356 113.528 190.588L109.607 189.344C109.607 189.344 115.27 204.248 106.11 203.445C100.253 202.931 88.7422 190.92 85.9752 187.7C83.9702 187.979 81.6442 188.339 79.4722 188.759C81.2542 192.492 84.6642 201.716 79.7592 209.934L79.7602 209.936C79.7702 209.975 89.5832 238.963 84.2202 255.022C85.8072 257.158 86.8252 258.569 86.8252 258.569L84.8252 263.319H124.492C124.49 263.319 122.447 241.962 123.323 212.467Z" fill="white"/>
<path d="M91.4771 180.436L92.015 188.393L102.712 192.018L101.544 181.682L91.4771 180.436Z" fill="#FDCAAD"/>
<path d="M96.6393 180.382C96.1813 181.096 95.8863 181.925 95.8513 182.834C95.7473 185.547 97.8633 187.831 100.576 187.935C101.124 187.956 101.646 187.865 102.145 187.718L101.503 181.038L96.6393 180.382Z" fill="#E3B59B"/>
<path d="M111.644 166.837C111.69 176.817 108.88 184.32 100.191 184.159C91.502 183.998 82.866 175.271 82.822 165.976C82.779 156.681 88.813 149.354 97.502 149.514C106.191 149.675 111.601 157.542 111.644 166.837Z" fill="#FDCAAD"/>
<path d="M112.54 148.098C109.11 145.283 104.898 143.481 100.552 143.036C96.1901 142.589 91.6431 143.497 87.7961 145.634C84.3991 147.521 80.2331 152.251 79.6361 156.098C79.4411 157.353 79.7991 158.865 80.5601 160.213C80.2211 160.827 80.0071 161.508 79.8231 162.184C79.0201 165.136 78.6881 168.208 78.8401 171.263C78.9511 173.499 79.3441 175.789 80.5531 177.718C81.1691 178.701 82.1241 179.636 83.3181 179.696C84.4551 179.754 85.4821 178.971 86.0091 178.014C86.5361 177.058 86.6621 175.949 86.7751 174.871C87.1241 171.547 87.8521 167.24 87.2171 163.536C89.2591 162.617 97.2691 156.53 96.3611 155.973C99.6071 157.967 102.966 160.002 106.646 160.716C106.967 160.778 107.29 160.831 107.616 160.872C110.647 161.256 113.829 160.123 115.605 157.209C117.615 153.91 114.824 149.971 112.54 148.098Z" fill="black"/>
<path d="M100.946 164.648C100.946 164.648 103.924 169.037 104.652 169.736C105.379 170.435 105.933 170.776 105.826 171.256C105.719 171.737 104.941 172.358 103.754 171.92" stroke="#E3A581" stroke-miterlimit="10" stroke-linecap="round"/>
<path d="M92.9321 170.581C92.9361 171.594 94.5641 172.445 96.5691 172.484C98.5741 172.522 100.195 171.732 100.192 170.72C100.188 169.708 98.5601 168.856 96.5551 168.818C94.5501 168.779 92.9281 169.569 92.9321 170.581Z" fill="#F7877A" fill-opacity="0.35"/>
<path d="M93.9624 162.791C93.9624 162.791 94.2574 161.904 95.9214 161.184C97.5854 160.465 99.0094 161.223 99.0094 161.223" stroke="#373646" stroke-miterlimit="10" stroke-linecap="round"/>
<path d="M110.657 163.311C110.657 163.311 110.26 162.442 108.513 161.802C106.765 161.162 105.427 161.98 105.427 161.98" stroke="#373646" stroke-miterlimit="10" stroke-linecap="round"/>
<path d="M103.705 177.669C103.705 177.669 104.37 177.173 102.88 176.303C101.389 175.433 99.5544 175.706 99.5864 176.451C99.6194 177.196 99.6224 177.728 100.66 178.4C101.698 179.071 103.585 179.197 103.705 177.669Z" fill="#D8677B"/>
<path d="M104.765 177.607C104.765 177.607 100.229 178.283 98.5151 175.188" stroke="#E3A581" stroke-miterlimit="10" stroke-linecap="round"/>
<path d="M107.177 170.599C107.181 171.611 108.698 172.461 110.565 172.497C112.432 172.533 113.942 171.741 113.939 170.728C113.935 169.716 112.418 168.866 110.551 168.83C108.683 168.794 107.173 169.586 107.177 170.599Z" fill="#F7877A" fill-opacity="0.35"/>
<path d="M96.8924 167.877C96.1474 167.848 95.5614 167.216 95.5904 166.471L95.6604 164.637C95.6894 163.892 96.3214 163.306 97.0664 163.335C97.8114 163.363 98.3974 163.996 98.3684 164.741L98.2984 166.575C98.2694 167.32 97.6364 167.906 96.8924 167.877Z" fill="black"/>
<path d="M107.359 167.877C106.614 167.848 106.028 167.216 106.057 166.471L106.127 164.637C106.155 163.892 106.788 163.306 107.533 163.335C108.278 163.363 108.864 163.996 108.835 164.741L108.765 166.575C108.737 167.32 108.104 167.906 107.359 167.877Z" fill="black"/>
<path d="M82.4912 262.581C82.4912 262.581 85.9642 268.012 88.3742 269.886C88.3742 269.886 89.9142 270.731 91.8282 272.679C93.7422 274.627 93.9202 274.416 94.2082 273.971C94.4962 273.525 92.0222 270.37 92.0222 270.37C92.0222 270.37 97.9152 274.046 98.6122 273.391C99.3092 272.736 93.7032 268.614 93.7032 268.614C93.7032 268.614 99.4112 271.369 100.711 270.884C102.01 270.398 95.2052 266.507 95.2052 266.507C95.2052 266.507 101.266 268.27 102.105 267.782C102.944 267.293 96.0362 264.434 95.1672 263.744C94.2982 263.053 93.7262 262.271 95.0102 262.092C96.2942 261.913 98.8692 261.791 98.6822 260.811C98.4962 259.831 94.1382 259.492 92.7482 259.127C91.3582 258.762 87.3052 258.372 86.1882 257.868" fill="#FDCAAD"/>
<path d="M89.1714 218.783C90.5344 219.435 91.9444 219.97 93.3864 220.36C94.8194 220.773 96.2884 221.049 97.7584 221.111C99.2274 221.153 100.686 221.001 102.062 220.572C103.45 220.152 104.653 219.337 105.756 218.42L106.014 218.206L106.297 218.331C107.506 218.868 108.783 219.321 110.051 219.749C111.326 220.167 112.622 220.509 113.929 220.792C115.237 221.08 116.573 221.212 117.9 221.172C119.222 221.142 120.576 220.867 121.696 220.069C120.708 221.043 119.295 221.456 117.938 221.637C116.56 221.795 115.164 221.725 113.804 221.522C111.067 221.133 108.44 220.307 105.891 219.235L106.431 219.146C105.237 220.176 103.871 221.036 102.349 221.488C100.83 221.913 99.2484 222.045 97.7044 221.903C96.1624 221.739 94.6664 221.356 93.2304 220.841C91.8094 220.284 90.4224 219.641 89.1714 218.783Z" fill="#E6E6E6"/>
<path d="M74.9873 375.248C74.9873 375.248 75.4583 380.177 74.4393 384.462C73.4203 388.748 74.6663 392.498 80.1023 392.605C85.5393 392.712 85.7653 389.498 85.6523 384.783C85.5393 380.068 84.4063 378.033 84.4063 375.247C84.4063 372.461 76.6673 371.498 74.9873 375.248Z" fill="white"/>
<path d="M76.564 377.658C76.564 377.658 80.305 375.774 82.671 377.658" stroke="white" stroke-miterlimit="10" stroke-linecap="round" stroke-linejoin="round"/>
<path d="M76.564 380.62C76.564 380.62 80.305 378.736 82.671 380.62" stroke="white" stroke-miterlimit="10" stroke-linecap="round" stroke-linejoin="round"/>
<path d="M76.564 383.871C76.564 383.871 80.305 381.987 82.671 383.871" stroke="white" stroke-miterlimit="10" stroke-linecap="round" stroke-linejoin="round"/>
<path d="M100.457 372.355C100.457 372.355 97.1351 378.171 99.8141 380.62C102.493 383.069 120.6 383.5 122.635 382.695C124.671 381.89 123.492 375.569 118.349 373.854C113.206 372.14 113.278 371.157 112.331 370.523C111.384 369.889 111.813 372.247 109.777 372.032C107.742 371.819 100.457 372.355 100.457 372.355Z" fill="white"/>
<path d="M122.635 381.203C120.599 382.008 102.492 381.577 99.8141 379.128C99.2171 378.583 98.9301 377.866 98.8251 377.088C98.6681 378.416 98.8481 379.738 99.8141 380.621C102.493 383.07 120.6 383.501 122.635 382.696C123.417 382.387 123.72 381.26 123.51 379.896C123.39 380.536 123.101 381.019 122.635 381.203Z" fill="#F5E1CD"/>
<path d="M114.278 372.676C114.278 372.676 113.957 375.569 112.564 376.105" stroke="white" stroke-miterlimit="10" stroke-linecap="round" stroke-linejoin="round"/>
<path d="M116.872 373.868C116.872 373.868 116.551 376.761 115.158 377.297" stroke="white" stroke-miterlimit="10" stroke-linecap="round" stroke-linejoin="round"/>
<path d="M119.332 374.754C119.332 374.754 119.011 377.647 117.618 378.183" stroke="white" stroke-miterlimit="10" stroke-linecap="round" stroke-linejoin="round"/>
<path d="M138.463 230.758L137.415 235.929L138.966 236.571L138.463 230.758Z" fill="#E3B59B"/>
<path d="M110.553 212.76L101.339 257.867H133.053L142.053 212.76H110.553Z" fill="black"/>
<path d="M110.196 214.511H109.409C109.079 214.511 108.797 214.746 108.737 215.07L108.198 217.989H109.486L110.196 214.511Z" fill="black"/>
<path d="M111.195 241.393C112.34 240.136 113.541 238.94 114.749 237.753C115.952 236.559 117.195 235.41 118.438 234.26C119.693 233.123 120.949 231.988 122.245 230.895C123.535 229.797 124.833 228.707 126.188 227.679C125.044 228.937 123.843 230.133 122.635 231.32C121.431 232.513 120.189 233.663 118.945 234.812C117.689 235.948 116.433 237.084 115.138 238.176C113.847 239.275 112.549 240.364 111.195 241.393Z" fill="black"/>
<path d="M116.562 248.25C117.707 246.993 118.908 245.797 120.117 244.61C121.32 243.417 122.563 242.267 123.806 241.117C125.061 239.98 126.317 238.845 127.612 237.752C128.902 236.654 130.2 235.564 131.555 234.536C130.411 235.794 129.21 236.99 128.001 238.177C126.798 239.37 125.555 240.52 124.311 241.669C123.055 242.805 121.799 243.941 120.504 245.033C119.216 246.132 117.916 247.221 116.562 248.25Z" fill="black"/>
<path d="M110.196 247.488C112.234 245.489 114.327 243.552 116.428 241.624C118.528 239.695 120.672 237.816 122.792 235.91C124.952 234.049 127.091 232.164 129.271 230.326C131.451 228.488 133.64 226.66 135.883 224.894C133.845 226.894 131.752 228.831 129.652 230.759C127.551 232.687 125.408 234.568 123.287 236.472C121.126 238.331 118.989 240.219 116.807 242.055C114.627 243.893 112.439 245.721 110.196 247.488Z" fill="black"/>
<path d="M138.05 235.449L137.539 235.384C137.263 235.551 136.711 235.497 136.115 235.346C135.039 235.072 128.582 231.305 128.701 232.269C128.82 233.233 133.893 236.989 133.893 236.989C133.893 236.989 126.676 233.928 127.076 235.256C127.476 236.584 133.125 239.459 133.125 239.459C133.125 239.459 126.451 237.493 126.351 238.444C126.251 239.395 132.745 241.86 132.745 241.86C132.745 241.86 128.656 241.248 128.475 241.747C128.294 242.246 128.341 242.631 131.024 243.412C133.646 244.176 135.338 244.47 135.338 244.47C135.454 244.501 135.584 244.526 135.71 244.553L135.897 244.584C136.806 244.733 137.666 244.121 137.822 243.213L138.95 236.664C139.051 236.078 138.641 235.524 138.05 235.449Z" fill="#FDCAAD"/>
<path d="M442.454 182.264H425.834C425.834 182.264 425.165 187.146 425.004 187.387C424.843 187.628 430.822 196.307 430.822 196.307L442.454 192.771V182.264Z" fill="#4C7BB0"/>
<path d="M377.758 232.184C377.758 232.184 371.144 235.938 367.355 237.144C367.355 237.144 363.842 238.052 361.288 238.9C358.734 239.748 358.67 239.489 358.614 238.981C358.558 238.473 362.142 236.829 362.142 236.829C362.142 236.829 355.309 237.442 354.984 236.578C354.66 235.713 361.437 234.592 361.437 234.592C361.437 234.592 355.175 234.493 354.244 233.514C353.313 232.534 361.047 232.131 361.047 232.131C361.047 232.131 354.914 231.027 354.391 230.243C353.868 229.46 361.234 229.988 362.307 229.77C363.381 229.552 364.233 229.126 363.179 228.417C362.125 227.708 359.906 226.489 360.506 225.727C361.105 224.965 365.103 226.558 366.492 226.845C367.881 227.133 370.746 229.546 376.182 226.508" fill="#FDCAAD"/>
<path d="M427.071 365.606L425.491 369.812L430.615 373.898L436.964 371.256L435.358 364.499L427.071 365.606Z" fill="#EDB790"/>
<path d="M436.964 371.256L435.358 364.499L431.181 365.057C431.257 365.378 432.627 365.553 432.853 367.237C433.114 369.184 430.892 371.398 428.767 371.255C428.101 371.21 427.496 370.998 426.969 370.686L430.615 373.898L436.964 371.256Z" fill="#DAA785"/>
<path d="M437.122 368.291C437.122 368.291 432.387 374.481 424.748 369.765C424.748 369.765 402.329 380.22 409.09 384.352C415.851 388.484 439.374 378.313 439.374 378.313C439.374 378.313 438.646 369.864 437.122 368.291Z" fill="black"/>
<path d="M438.852 374.105C439.201 376.328 438.828 378.545 438.828 378.545C438.828 378.545 415.85 388.485 409.09 384.353C408.067 383.728 407.72 382.956 407.855 382.099C407.328 383.37 407.639 384.561 409.292 385.545C416.099 389.597 439.576 379.506 439.576 379.506C439.576 379.506 439.338 376.758 438.852 374.105Z" fill="#F5E1CD"/>
<path d="M409.09 384.352C411.078 385.567 414.521 385.54 418.384 384.903C417.424 380.535 414.183 378.376 411.779 377.357C408.39 379.984 406.359 382.684 409.09 384.352Z" fill="#F8EADD"/>
<path d="M415.878 375.233C415.878 375.233 418.639 374.732 419.931 378.748" stroke="#F8EADD" stroke-miterlimit="10" stroke-linecap="round" stroke-linejoin="round"/>
<path d="M419.428 373.188C419.428 373.188 422.189 372.687 423.481 376.703" stroke="#F8EADD" stroke-miterlimit="10" stroke-linecap="round" stroke-linejoin="round"/>
<path d="M422.755 371.17C422.755 371.17 425.516 370.669 426.808 374.685" stroke="#F8EADD" stroke-miterlimit="10" stroke-linecap="round" stroke-linejoin="round"/>
<path d="M432.922 376.924C432.263 378.975 430.918 380.841 429.005 382.179C434.744 380.313 439.373 378.313 439.373 378.313C439.373 378.313 438.645 369.864 437.121 368.291C437.121 368.291 435.344 370.608 432.215 371.325C433.336 372.618 433.73 374.411 432.922 376.924Z" fill="black"/>
<path d="M424.749 369.765C426.612 371.105 428.916 371.766 431.195 371.514C433.476 371.262 435.655 370.113 437.172 368.335" stroke="#F8EADD" stroke-width="2" stroke-miterlimit="10" stroke-linecap="round" stroke-linejoin="round"/>
<path d="M453.982 364.973L452.402 369.179L457.526 373.265L463.875 370.623L462.269 363.865L453.982 364.973Z" fill="white"/>
<path d="M463.875 370.623L462.269 363.866L458.092 364.424C458.168 364.745 459.538 364.92 459.764 366.604C460.025 368.551 457.803 370.765 455.678 370.622C455.012 370.577 454.407 370.365 453.88 370.053L457.526 373.265L463.875 370.623Z" fill="white"/>
<path d="M464.034 367.658C464.034 367.658 459.299 373.848 451.66 369.132C451.66 369.132 429.241 379.587 436.002 383.719C442.763 387.851 466.286 377.68 466.286 377.68C466.286 377.68 465.557 369.231 464.034 367.658Z" fill="black"/>
<path d="M465.764 373.472C466.113 375.695 465.741 377.911 465.741 377.911C465.741 377.911 442.762 387.851 436.001 383.719C434.978 383.094 434.632 382.322 434.767 381.465C434.24 382.736 434.551 383.927 436.204 384.911C443.011 388.963 466.488 378.872 466.488 378.872C466.488 378.872 466.25 376.125 465.764 373.472Z" fill="#F5E1CD"/>
<path d="M436.001 383.719C437.99 384.934 441.432 384.907 445.296 384.27C444.336 379.902 441.095 377.743 438.691 376.724C435.302 379.351 433.271 382.051 436.001 383.719Z" fill="#F8EADD"/>
<path d="M442.79 374.6C442.79 374.6 445.551 374.099 446.843 378.115" stroke="#F8EADD" stroke-miterlimit="10" stroke-linecap="round" stroke-linejoin="round"/>
<path d="M446.339 372.555C446.339 372.555 449.1 372.054 450.392 376.07" stroke="#F8EADD" stroke-miterlimit="10" stroke-linecap="round" stroke-linejoin="round"/>
<path d="M449.667 370.537C449.667 370.537 452.427 370.036 453.719 374.052" stroke="#F8EADD" stroke-miterlimit="10" stroke-linecap="round" stroke-linejoin="round"/>
<path d="M459.834 376.291C459.175 378.342 457.83 380.208 455.917 381.546C461.656 379.68 466.285 377.68 466.285 377.68C466.285 377.68 465.558 369.231 464.034 367.658C464.034 367.658 462.257 369.975 459.128 370.692C460.249 371.985 460.642 373.778 459.834 376.291Z" fill="black"/>
<path d="M451.661 369.132C453.524 370.472 455.828 371.133 458.107 370.881C460.388 370.629 462.567 369.48 464.084 367.702" stroke="#F8EADD" stroke-width="2" stroke-miterlimit="10" stroke-linecap="round" stroke-linejoin="round"/>
<path d="M415.415 147.763C421.378 133.315 442.686 145.88 442.317 152.971C441.948 160.061 439.489 167.259 439.104 170.509C438.805 173.032 442.038 181.321 443.501 184.907C442.456 186.528 441.699 188.331 441.302 190.187C441.252 190.422 441.194 190.654 441.136 190.887C440.164 191.338 439.34 191.529 439.34 191.529C428.401 194.527 427.122 188.302 427.122 188.302L425.459 179.16C425.459 179.16 417.198 181.872 413.49 175.782C409.782 169.693 415.415 147.763 415.415 147.763Z" fill="#FDCAAD"/>
<path d="M425.46 179.16C425.46 179.16 425.293 179.214 425.005 179.289L425.46 179.16Z" fill="#E8896D"/>
<path d="M431.927 176.281C431.927 176.281 435.98 187.15 428.152 190.165C427.312 189.21 427.123 188.301 427.123 188.301L425.46 179.159L431.927 176.281Z" fill="#E3B59B"/>
<path d="M418.407 158.126C418.407 158.126 416.193 163.104 415.503 163.976C414.813 164.848 413.867 164.729 413.998 166.353C414.129 167.977 417.08 169.073 418.806 167.866" stroke="#E3A581" stroke-miterlimit="10" stroke-linecap="round"/>
<path d="M422.655 156.85C422.655 156.85 424.959 157.015 426.112 158.1C427.265 159.185 427.252 160.717 427.252 160.717" stroke="#373646" stroke-width="2" stroke-miterlimit="10" stroke-linecap="round"/>
<path d="M413.221 155.195C413.221 155.195 413.78 154.555 415.37 154.481C416.959 154.407 417.818 155.477 417.818 155.477" stroke="#373646" stroke-width="2" stroke-miterlimit="10" stroke-linecap="round"/>
<path d="M422.208 163.244C422.808 163.36 423.394 162.97 423.511 162.377L423.81 160.867C423.927 160.274 423.533 159.694 422.933 159.578C422.333 159.462 421.747 159.852 421.63 160.445L421.331 161.955C421.214 162.548 421.608 163.128 422.208 163.244Z" fill="black"/>
<path d="M414.222 161.123C414.822 161.239 415.408 160.849 415.526 160.256L415.825 158.746C415.942 158.153 415.548 157.573 414.948 157.457C414.349 157.341 413.762 157.731 413.645 158.324L413.346 159.834C413.228 160.427 413.622 161.007 414.222 161.123Z" fill="black"/>
<path d="M423.626 165.594C423.449 166.491 424.668 167.482 426.35 167.808C428.032 168.134 429.539 167.67 429.717 166.773C429.895 165.876 428.675 164.885 426.993 164.559C425.311 164.234 423.803 164.697 423.626 165.594Z" fill="#F7877A" fill-opacity="0.35"/>
<path d="M411.073 162.135C410.91 162.959 411.561 163.779 412.527 163.966C413.493 164.153 414.409 163.636 414.572 162.812C414.735 161.988 414.084 161.168 413.118 160.981C412.152 160.794 411.237 161.311 411.073 162.135Z" fill="#F7877A" fill-opacity="0.35"/>
<path d="M416.7 171.437C416.7 171.437 420.811 172.943 423.566 169.882" stroke="#E3A581" stroke-miterlimit="10" stroke-linecap="round"/>
<path d="M438.317 171.238C436.138 170.715 437.089 166.599 437.768 165.412C438.447 164.225 435.115 162.161 433.903 160.917C433.852 160.864 433.809 160.79 433.765 160.718C433.859 161.13 433.989 161.464 434.174 161.654C435.386 162.898 437.407 165.027 436.728 166.214C436.049 167.401 436.409 171.451 438.588 171.974C438.758 172.015 438.956 171.94 439.166 171.816C439.121 171.498 439.096 171.212 439.091 170.958C438.804 171.183 438.54 171.291 438.317 171.238Z" fill="#EAAA80"/>
<path d="M442.52 142.832C442.472 142.824 442.423 142.839 442.376 142.855C442.02 142.978 441.697 143.194 441.448 143.474C441.337 143.087 441.171 142.715 440.956 142.373C440.914 142.306 440.859 142.233 440.78 142.226C440.65 142.214 440.583 142.378 440.577 142.506C440.569 142.678 440.606 142.849 440.64 143.02C440.293 142.601 439.901 142.183 439.413 141.766C436.709 139.452 432.752 138.258 429.179 138.959C426.629 139.459 424.243 140.799 421.612 140.546C419.266 140.32 417.021 138.831 414.729 139.212C413.197 139.466 411.944 140.631 411.711 142.017C411.478 143.404 412.28 144.923 413.643 145.678C412.267 145.202 410.703 146.263 410.578 147.56C410.285 150.605 411.57 151.668 414.071 151.185C412.936 151.447 411.537 152.341 412.509 152.86C413.327 153.297 417.28 151.434 419.681 151.353C421.741 151.284 424.718 151.669 426.783 152.072C429.184 152.541 431.284 153.974 433.663 152.679C433.652 152.685 433.651 152.708 433.655 152.739C433.574 153.344 432.748 159.733 433.902 160.918C435.114 162.162 438.446 164.226 437.767 165.413C437.088 166.6 436.137 170.715 438.316 171.239C440.196 171.691 444.811 161.393 444.313 154.576C444.313 154.572 444.316 154.568 444.316 154.564C444.321 152.467 442.484 146.941 441.872 145.129C441.829 145 441.761 144.872 441.707 144.744C441.905 144.855 442.098 144.978 442.301 145.081C442.459 145.161 442.638 145.224 442.811 145.186C442.984 145.148 443.136 144.974 443.089 144.805C443.062 144.707 442.98 144.636 442.902 144.57C442.79 144.476 442.677 144.381 442.565 144.287C442.37 144.123 442.154 143.895 442.233 143.655C442.287 143.488 442.463 143.396 442.576 143.262C442.69 143.125 442.694 142.86 442.52 142.832Z" fill="black"/>
<path d="M432.78 160.908C432.78 160.908 438.406 160.536 438.066 163.991C437.555 169.186 432.839 167.206 432.181 166.355" fill="#FDCAAD"/>
<path d="M436.773 164.308C436.773 164.308 437.201 162.322 435.115 162.161C435.115 162.161 433.726 162.617 433.959 163.615C433.959 163.615 435.727 163.828 435.242 165.191C435.242 165.191 434.821 166.082 433.644 165.457C433.644 165.457 433.601 166.075 434.589 166.309C435.578 166.544 436.374 165.771 436.773 164.308Z" fill="#E3B59B"/>
<path d="M436.643 163.56C436.643 163.56 436.748 162.593 435.527 162.229C434.306 161.865 434.068 163.068 433.959 163.616C433.959 163.616 435.853 164.066 435.242 165.192C434.631 166.318 433.636 165.248 433.636 165.248" stroke="#E3A581" stroke-miterlimit="10" stroke-linecap="round"/>
<path d="M416.437 246.378C416.437 246.378 405.639 289.394 406.91 297.13C408.18 304.867 426.461 366.76 426.461 366.76H436.445C436.445 366.76 428.188 304.248 424.695 300.535C424.695 300.535 436.763 269.898 436.445 265.875C436.445 265.875 434.552 297.75 436.451 302.701C438.35 307.653 453.259 364.924 453.259 364.924L462.797 364.901C462.797 364.901 457.405 306.414 454.547 300.844C454.547 300.844 459.946 256.281 458.993 246.378H416.437Z" fill="black"/>
<path d="M418.978 248.552H459.099C459.085 247.712 459.051 246.98 458.993 246.379H416.438C416.438 246.379 405.64 289.395 406.91 297.131C408.18 304.868 426.461 366.761 426.461 366.761H428.36C425.115 355.738 410.577 306.175 409.449 299.305C408.179 291.568 418.978 248.552 418.978 248.552Z" fill="#211F20"/>
<path d="M436.45 267.267C436.21 269.203 436.022 274.382 435.824 279.57C435.512 288.865 435.395 299.946 436.451 302.701C438.35 307.653 453.259 364.924 453.259 364.924L455.23 364.919C452.49 354.422 440.668 309.247 438.99 304.874C437.265 300.375 436.179 272.109 436.45 267.267Z" fill="#211F20"/>
<path d="M436.402 266.632C436.44 266.33 436.46 266.064 436.445 265.874C436.445 265.874 436.429 266.146 436.402 266.632Z" fill="black"/>
<path d="M438.941 268.806C438.979 268.504 438.999 268.238 438.984 268.048C438.984 268.048 438.968 268.32 438.941 268.806Z" fill="black"/>
<path d="M414.934 183.068C410.197 187.754 403.825 198.839 401.103 215.115C401.103 215.115 384.187 218.978 372.287 227.834L374.669 234.302C374.669 234.302 400.044 227.082 407.454 223.368C414.864 219.654 425.345 195.926 424.074 188.086C423.929 187.192 423.776 186.379 423.618 185.639C422.786 181.725 417.813 180.22 414.934 183.068Z" fill="#E6E6E6"/>
<path d="M425.835 182.264C425.835 182.264 419.234 182.264 419.228 182.264C417.452 182.264 415.138 185.758 414.369 187.125C413.052 189.468 413.094 192.373 413.193 194.965C413.615 205.993 414.8 216.967 415.266 227.985C415.628 236.535 415.48 245.135 414.024 253.613C413.903 254.317 413.766 255.019 413.592 255.713L461.237 256.021C461.237 256.021 456.429 230.439 456.217 220.536C456.005 210.633 462.357 198.255 458.334 188.971C454.311 179.687 442.455 182.266 442.455 182.266C442.455 182.266 439.853 194.802 431.446 191.034C424.936 188.115 425.835 182.264 425.835 182.264Z" fill="white"/>
<path d="M450.065 187.845C445.328 192.531 438.956 203.616 436.234 219.892C436.234 219.892 417.603 223.399 409.346 232.064V238.872C409.346 238.872 435.176 231.857 442.586 228.144C449.996 224.43 460.477 200.702 459.206 192.862C459.061 191.968 458.908 191.155 458.75 190.415C457.917 186.502 452.944 184.998 450.065 187.845Z" fill="#E6E6E6"/>
<path d="M409.346 232.295L405.634 231.633L405.067 241.073L409.346 238.536V232.295Z" fill="#E3B59B"/>
<path opacity="0.14" d="M396.101 239.508L384.605 239.986L385.813 267.585C385.819 267.717 385.993 267.767 386.071 267.659L391.154 260.629C391.208 260.555 391.319 260.55 391.379 260.62L397.058 267.203C397.145 267.304 397.314 267.24 397.308 267.108L396.126 240.096L396.101 239.508Z" fill="#606060"/>
<path d="M396.54 266.978L390.861 260.395C390.801 260.326 390.69 260.33 390.636 260.404L385.553 267.434C385.475 267.542 385.301 267.492 385.295 267.36L384.087 239.761L395.582 239.283L396.79 266.882C396.796 267.015 396.627 267.079 396.54 266.978Z" fill="black"/>
<path d="M385.295 267.361L384.087 239.762L395.582 239.284L395.608 239.871L385.924 240.274L387.024 265.4L385.553 267.435C385.474 267.542 385.301 267.493 385.295 267.361Z" fill="black"/>
<path opacity="0.14" d="M389.607 242.344L397.623 234.301L417.958 253.547C418.055 253.639 417.977 253.799 417.843 253.784L409.075 252.803C408.983 252.793 408.905 252.87 408.918 252.96L410.18 261.472C410.199 261.603 410.038 261.683 409.941 261.591L390.038 242.754L389.607 242.344Z" fill="#606060"/>
<path d="M410.356 260.944L409.093 252.432C409.08 252.342 409.157 252.265 409.25 252.275L418.018 253.256C418.152 253.271 418.23 253.111 418.133 253.019L397.798 233.773L389.782 241.816L410.117 261.062C410.214 261.155 410.375 261.075 410.356 260.944Z" fill="black"/>
<path d="M418.133 253.02L397.798 233.774L389.782 241.817L390.215 242.226L396.968 235.451L415.482 252.973L418.02 253.257C418.152 253.272 418.23 253.112 418.133 253.02Z" fill="black"/>
<path d="M386.869 221.718L387.693 221.78C388.17 221.816 388.649 221.754 389.1 221.598L389.879 221.328C390.79 221.012 391.796 221.088 392.647 221.537L393.374 221.921C393.795 222.143 394.259 222.276 394.736 222.312L395.559 222.374C396.524 222.447 397.411 222.915 398 223.662L398.504 224.301C398.796 224.67 399.164 224.976 399.584 225.198L400.311 225.582C401.162 226.031 401.778 226.81 402.005 227.727L402.198 228.51C402.31 228.963 402.519 229.388 402.81 229.758L403.315 230.397C403.905 231.144 404.141 232.1 403.966 233.027L403.815 233.82C403.728 234.278 403.742 234.749 403.854 235.202L404.048 235.985C404.275 236.901 404.092 237.868 403.545 238.646L403.078 239.311C402.807 239.695 402.622 240.131 402.535 240.589L402.386 241.381C402.211 242.308 401.639 243.119 400.815 243.612L400.11 244.034C399.702 244.278 399.352 244.603 399.082 244.987L398.615 245.652C398.068 246.429 397.208 246.944 396.249 247.068L395.429 247.174C394.955 247.235 394.498 247.393 394.091 247.637L393.387 248.059C392.563 248.552 391.561 248.682 390.634 248.415L389.841 248.187C389.382 248.055 388.9 248.019 388.426 248.08L387.606 248.186C386.647 248.31 385.679 248.032 384.943 247.42L384.314 246.897C383.95 246.595 383.526 246.37 383.067 246.238L382.274 246.01C381.346 245.743 380.577 245.105 380.16 244.255L379.804 243.528C379.598 243.108 379.302 242.734 378.938 242.432L378.309 241.909C377.573 241.298 377.137 240.411 377.111 239.468L377.089 238.662C377.076 238.196 376.962 237.738 376.755 237.318L376.399 236.591C375.982 235.741 375.953 234.758 376.322 233.887L376.638 233.142C376.82 232.711 376.908 232.248 376.895 231.782L376.873 230.976C376.847 230.034 377.232 229.125 377.933 228.475L378.531 227.92C378.877 227.599 379.152 227.21 379.335 226.779L379.65 226.034C380.019 225.163 380.75 224.485 381.662 224.17L382.442 223.9C382.893 223.744 383.304 223.497 383.65 223.176L384.249 222.621C384.954 221.975 385.905 221.645 386.869 221.718Z" fill="black"/>
<path d="M403.967 233.028L403.817 233.821C403.73 234.279 403.744 234.75 403.856 235.203L404.05 235.986C404.277 236.902 404.094 237.869 403.547 238.647L403.079 239.312C402.808 239.696 402.624 240.132 402.537 240.59L402.387 241.383C402.212 242.31 401.641 243.121 400.817 243.614L400.112 244.036C399.704 244.28 399.354 244.605 399.084 244.989L398.616 245.654C398.069 246.431 397.209 246.946 396.25 247.07L395.43 247.176C394.956 247.237 394.5 247.395 394.093 247.639L393.388 248.061C392.564 248.554 391.563 248.684 390.636 248.417L389.843 248.189C389.384 248.057 388.902 248.021 388.428 248.082L387.608 248.188C386.649 248.312 385.681 248.034 384.945 247.422L384.316 246.899C383.952 246.597 383.527 246.372 383.068 246.24L382.275 246.012C381.347 245.745 380.579 245.107 380.162 244.257L379.805 243.53C379.599 243.11 379.304 242.736 378.94 242.434L378.311 241.911C377.925 241.591 377.625 241.194 377.42 240.754C377.595 241.407 377.969 241.999 378.506 242.445L379.136 242.968C379.5 243.27 379.795 243.644 380.001 244.064L380.358 244.791C380.775 245.641 381.543 246.279 382.471 246.546L383.264 246.774C383.723 246.906 384.148 247.13 384.512 247.433L385.141 247.956C385.877 248.567 386.845 248.846 387.804 248.722L388.624 248.616C389.098 248.555 389.58 248.591 390.039 248.723L390.832 248.951C391.76 249.218 392.76 249.088 393.584 248.595L394.289 248.173C394.697 247.929 395.152 247.771 395.626 247.71L396.446 247.604C397.405 247.48 398.265 246.965 398.812 246.188L399.28 245.523C399.55 245.139 399.901 244.814 400.308 244.57L401.013 244.148C401.837 243.655 402.408 242.844 402.583 241.917L402.733 241.124C402.82 240.666 403.004 240.23 403.275 239.846L403.743 239.181C404.29 238.404 404.473 237.437 404.246 236.52L404.052 235.737C403.94 235.284 403.927 234.813 404.013 234.355L404.163 233.562C404.291 232.887 404.197 232.197 403.91 231.583C404.035 232.049 404.059 232.542 403.967 233.028Z" fill="black"/>
<path d="M400.584 231.156C402.631 236.768 399.621 242.935 393.861 244.929C388.101 246.923 381.773 243.99 379.727 238.378C377.68 232.766 380.69 226.599 386.45 224.605C392.209 222.61 398.537 225.543 400.584 231.156Z" fill="white"/>
<path d="M391.166 241.018C390.861 241.123 390.522 241.074 390.262 240.885L384.22 236.488C383.791 236.176 383.703 235.585 384.023 235.167C384.343 234.749 384.95 234.664 385.378 234.976L390.201 238.485L392.46 227.847C392.568 227.337 393.081 227.008 393.605 227.114C394.129 227.22 394.466 227.719 394.357 228.229L391.79 240.319C391.723 240.635 391.495 240.896 391.185 241.01C391.179 241.014 391.173 241.016 391.166 241.018Z" fill="#018580"/>
<g opacity="0.4">
<path d="M386.448 224.604C385.893 224.796 385.365 225.028 384.863 225.293L379.273 236.745C379.378 237.292 379.528 237.837 379.725 238.378C379.86 238.748 380.015 239.106 380.185 239.452L387.593 224.275C387.21 224.364 386.828 224.473 386.448 224.604Z" fill="#E6E6E6"/>
<path d="M388.56 224.093L380.651 240.296C381.046 240.942 381.504 241.538 382.015 242.077L390.839 224C390.087 223.955 389.323 223.984 388.56 224.093Z" fill="#E6E6E6"/>
<path d="M400.533 231.027L393.727 244.971C393.772 244.956 393.816 244.944 393.861 244.928C394.9 244.568 395.848 244.071 396.694 243.468L401.209 234.218C401.155 233.197 400.953 232.167 400.584 231.155C400.568 231.112 400.55 231.07 400.533 231.027Z" fill="#E6E6E6"/>
<path d="M398.634 227.833L389.985 245.552C390.331 245.557 390.679 245.546 391.028 245.519L399.265 228.643C399.066 228.362 398.856 228.092 398.634 227.833Z" fill="#E6E6E6"/>
<path d="M393.618 224.526L384.188 243.847C385.118 244.426 386.132 244.869 387.198 245.158L396.561 225.976C395.659 225.352 394.666 224.864 393.618 224.526Z" fill="#E6E6E6"/>
</g>
<path d="M406.247 231.863C404.414 231.027 404.08 232.033 404.08 232.033C403.799 232.185 403.327 232.251 402.805 232.258C401.667 232.274 394.271 230.325 394.646 231.223C395.021 232.121 401.045 234.421 401.045 234.421C401.045 234.421 393.085 233.351 393.836 234.527C394.587 235.703 400.945 237.003 400.945 237.003C400.945 237.003 393.816 236.847 393.971 237.79C394.127 238.733 401.211 239.417 401.211 239.417C401.211 239.417 397.229 240.405 397.183 240.933C397.138 241.461 397.151 241.737 399.923 241.362C402.695 240.987 404.475 241.258 404.475 241.258C404.478 241.258 404.482 241.258 404.485 241.258C405.191 241.254 405.816 240.813 406.105 240.185C407.089 238.052 408.992 233.115 406.247 231.863Z" fill="#FDCAAD"/>
</g>
<defs>
<clipPath id="clip0_56_302">
<rect width="500" height="385" fill="white"/>
</clipPath>
</defs>
</svg>
