<svg width="787" height="800" viewBox="0 0 787 800" fill="none" xmlns="http://www.w3.org/2000/svg">
<path d="M27.625 372.478H576.678C584.004 372.479 591.03 375.39 596.21 380.57C601.39 385.751 604.3 392.777 604.3 400.103V764.412C604.3 771.739 601.389 778.765 596.209 783.946C591.028 789.127 584.002 792.037 576.675 792.037H27.625C20.2984 792.037 13.2719 789.127 8.09118 783.946C2.91048 778.765 0 771.739 0 764.412L0 400.103C0 392.776 2.91048 385.75 8.09118 380.569C13.2719 375.389 20.2984 372.478 27.625 372.478Z" fill="white"/>
<path d="M665.806 117.057C692.329 117.057 713.83 95.556 713.83 69.033C713.83 42.5101 692.329 21.009 665.806 21.009C639.283 21.009 617.782 42.5101 617.782 69.033C617.782 95.556 639.283 117.057 665.806 117.057Z" fill="#2F2E41"/>
<path d="M710.151 666.859L679.073 751.459C679.073 751.459 653.173 772.178 668.713 779.084C684.253 785.99 715.331 772.178 715.331 772.178L739.503 710.021L736.05 666.857L710.151 666.859Z" fill="#090814"/>
<path opacity="0.1" d="M710.151 666.859L679.073 751.459C679.073 751.459 653.173 772.178 668.713 779.084C684.253 785.99 715.331 772.178 715.331 772.178L739.503 710.021L736.05 666.857L710.151 666.859Z" fill="#090814"/>
<path d="M712.741 165.288L738.641 168.741C738.641 168.741 750.727 263.703 745.547 270.609C740.367 277.515 714.469 305.141 704.109 298.234C693.749 291.327 712.741 165.288 712.741 165.288Z" fill="white"/>
<path d="M464.977 338.809C464.977 338.809 428.719 354.35 421.813 356.075C414.907 357.8 404.547 375.067 416.633 378.52C428.719 381.973 475.333 347.442 475.333 347.442L464.977 338.809Z" fill="#ED9DA0"/>
<path d="M722.234 701.391L741.226 772.181C741.226 772.181 742.953 798.081 751.585 799.806C760.217 801.531 786.117 791.173 786.117 787.72C786.117 784.267 775.757 756.642 775.757 756.642C775.757 756.642 775.757 735.923 765.398 727.29C755.039 718.657 745.705 689.738 745.705 689.738L722.234 701.391Z" fill="#090814"/>
<path d="M746.41 539.093C749.898 547.225 749.466 606.222 745.65 645.485C743.802 664.564 741.161 678.985 737.777 680.673L713.035 674.492L703.245 672.04L702.986 650.562L701.518 532.188L672.164 409.6V378.521L746.407 385.427L758.182 403.919L758.493 404.419C758.493 404.419 741.23 527.007 746.41 539.093Z" fill="#090814"/>
<path d="M608.283 309.453C608.283 309.453 584.111 362.977 618.642 437.22C640.01 483.423 659.027 530.679 675.619 578.804C675.619 578.804 687.705 635.781 704.971 672.039C722.237 708.297 718.784 710.024 718.784 710.024L746.409 694.485C746.409 694.485 730.87 587.437 723.963 577.078C717.056 566.719 717.057 537.367 717.057 537.367L698.065 466.577L682.526 399.24L758.495 404.42C758.495 404.42 758.495 306.005 723.963 287.013L608.283 309.453Z" fill="#090814"/>
<path d="M636.771 87.592C636.771 87.592 636.771 115.217 628.138 116.944C619.505 118.671 602.238 118.671 597.06 127.303C591.882 135.935 636.771 249.89 636.771 249.89L683.389 220.538L698.928 142.838C698.928 142.838 676.482 129.033 676.482 122.124V91.045L636.771 87.592Z" fill="#ED9DA0"/>
<path d="M657.551 117.807C677.443 117.807 693.569 101.681 693.569 81.789C693.569 61.8968 677.443 45.771 657.551 45.771C637.659 45.771 621.533 61.8968 621.533 81.789C621.533 101.681 637.659 117.807 657.551 117.807Z" fill="#ED9DA0"/>
<path d="M641.951 215.359C641.951 215.359 626.412 116.944 622.959 116.944C619.506 116.944 571.159 127.303 567.708 129.03C564.257 130.757 552.166 146.296 552.166 146.296L576.338 215.359C576.338 215.359 586.697 263.703 593.604 272.336C600.511 280.969 614.323 305.136 607.417 308.594C600.511 312.052 593.604 317.227 600.511 317.227C607.418 317.227 664.394 306.868 667.848 312.047C671.302 317.226 728.278 293.055 728.278 291.328C728.278 289.601 721.372 208.452 721.372 208.452L738.638 168.741L686.842 132.485L641.951 215.359Z" fill="white"/>
<path d="M569.431 137.663L552.165 146.296C552.165 146.296 503.821 256.796 500.365 258.524C496.909 260.252 479.646 293.056 477.92 299.962C476.194 306.868 472.74 329.314 467.561 332.767C464.783 334.654 461.9 336.383 458.928 337.947C458.928 337.947 469.287 355.213 474.467 355.213C479.647 355.213 496.912 331.041 496.912 331.041C496.912 331.041 504.495 331.634 514.855 312.641C525.215 293.648 581.515 196.367 581.515 196.367L569.431 137.663Z" fill="white"/>
<path d="M704.972 190.323C704.972 190.323 680.8 131.623 666.987 138.523C653.174 145.423 677.347 186.867 692.887 193.774L704.972 190.323Z" fill="#ED9DA0"/>
<path d="M685.98 188.597L710.205 183.121L715.332 209.321C715.332 209.321 737.778 249.032 732.598 266.298C727.418 283.564 696.34 311.189 685.98 295.65C675.62 280.111 666.988 255.939 673.894 242.126C680.8 228.313 691.159 195.503 685.98 188.597Z" fill="white"/>
<path d="M712.282 68.0485C716.934 58.118 703.904 42.1975 683.18 32.489C662.456 22.7806 641.884 22.9607 637.232 32.8912C632.58 42.8218 645.609 58.7423 666.334 68.4507C687.058 78.1591 707.63 77.979 712.282 68.0485Z" fill="#2F2E41"/>
<path d="M694.319 49.522C705.923 49.522 715.329 40.1155 715.329 28.512C715.329 16.9085 705.923 7.50195 694.319 7.50195C682.716 7.50195 673.309 16.9085 673.309 28.512C673.309 40.1155 682.716 49.522 694.319 49.522Z" fill="#2F2E41"/>
<path d="M674.808 21.01C674.809 15.8283 676.724 10.8296 680.186 6.97439C683.648 3.11917 688.413 0.679438 693.565 0.124003C690.631 -0.196177 687.663 0.105372 684.853 1.00901C682.043 1.91265 679.456 3.39811 677.259 5.36859C675.061 7.33907 673.304 9.75036 672.101 12.4454C670.898 15.1404 670.276 18.0586 670.276 21.01C670.276 23.9614 670.898 26.8796 672.101 29.5746C673.304 32.2696 675.061 34.6809 677.259 36.6514C679.456 38.6219 682.043 40.1074 684.853 41.011C687.663 41.9146 690.631 42.2162 693.565 41.896C688.413 41.341 683.647 38.9015 680.185 35.0463C676.722 31.1911 674.806 26.1921 674.805 21.01H674.808Z" fill="#2F2E41"/>
<path d="M59.5671 413.916H125.177C126.084 413.916 126.982 414.095 127.82 414.442C128.658 414.789 129.419 415.297 130.06 415.939C130.702 416.58 131.21 417.341 131.557 418.179C131.905 419.017 132.083 419.915 132.083 420.822V486.432C132.083 488.264 131.356 490.02 130.06 491.315C128.765 492.61 127.009 493.338 125.177 493.338H59.5671C58.6602 493.338 57.7622 493.159 56.9243 492.812C56.0864 492.465 55.3251 491.957 54.6839 491.315C54.0426 490.674 53.5339 489.913 53.1868 489.075C52.8398 488.237 52.6611 487.339 52.6611 486.432V420.822C52.6611 418.99 53.3887 417.234 54.6839 415.939C55.979 414.644 57.7355 413.916 59.5671 413.916Z" fill="#018580"/>
<path d="M180.427 436.361H544.736C546.568 436.361 548.324 437.089 549.62 438.384C550.915 439.679 551.642 441.436 551.642 443.268C551.642 445.099 550.915 446.856 549.62 448.151C548.324 449.446 546.568 450.174 544.736 450.174H180.427C178.595 450.174 176.839 449.446 175.543 448.151C174.248 446.856 173.521 445.099 173.521 443.268C173.521 441.436 174.248 439.679 175.543 438.384C176.839 437.089 178.595 436.361 180.427 436.361Z" fill="#018580"/>
<path d="M180.427 457.08H284.021C285.853 457.08 287.609 457.808 288.905 459.103C290.2 460.398 290.928 462.155 290.928 463.987C290.928 465.818 290.2 467.575 288.905 468.87C287.609 470.165 285.853 470.893 284.021 470.893H180.427C178.595 470.893 176.839 470.165 175.543 468.87C174.248 467.575 173.521 465.818 173.521 463.987C173.521 462.155 174.248 460.398 175.543 459.103C176.839 457.808 178.595 457.08 180.427 457.08Z" fill="#018580"/>
<path opacity="0.022" d="M685.98 188.597L710.205 183.121L715.332 209.321C715.332 209.321 737.778 249.032 732.598 266.298C727.418 283.564 696.34 311.189 685.98 295.65C675.62 280.111 666.988 255.939 673.894 242.126C680.8 228.313 691.159 195.503 685.98 188.597Z" fill="white"/>
<path d="M59.5671 671.176H125.177C126.084 671.176 126.982 671.355 127.82 671.702C128.658 672.049 129.419 672.557 130.06 673.199C130.702 673.84 131.21 674.601 131.557 675.439C131.905 676.277 132.083 677.175 132.083 678.082V743.692C132.083 745.524 131.356 747.28 130.06 748.575C128.765 749.87 127.009 750.598 125.177 750.598H59.5671C58.6602 750.598 57.7622 750.419 56.9243 750.072C56.0864 749.725 55.3251 749.217 54.6839 748.575C54.0426 747.934 53.5339 747.173 53.1868 746.335C52.8398 745.497 52.6611 744.599 52.6611 743.692V678.082C52.6611 676.25 53.3887 674.494 54.6839 673.199C55.979 671.904 57.7355 671.176 59.5671 671.176Z" fill="#018580"/>
<path d="M180.427 693.621H544.736C546.568 693.621 548.324 694.349 549.62 695.644C550.915 696.939 551.642 698.696 551.642 700.528C551.642 702.359 550.915 704.116 549.62 705.411C548.324 706.706 546.568 707.434 544.736 707.434H180.427C178.595 707.434 176.839 706.706 175.543 705.411C174.248 704.116 173.521 702.359 173.521 700.528C173.521 698.696 174.248 696.939 175.543 695.644C176.839 694.349 178.595 693.621 180.427 693.621Z" fill="#018580"/>
<path d="M180.427 714.34H284.021C285.853 714.34 287.609 715.068 288.905 716.363C290.2 717.658 290.928 719.415 290.928 721.247C290.928 723.078 290.2 724.835 288.905 726.13C287.609 727.425 285.853 728.153 284.021 728.153H180.427C178.595 728.153 176.839 727.425 175.543 726.13C174.248 724.835 173.521 723.078 173.521 721.247C173.521 719.415 174.248 717.658 175.543 716.363C176.839 715.068 178.595 714.34 180.427 714.34Z" fill="#018580"/>
<path d="M59.5671 542.546H125.177C126.084 542.546 126.982 542.725 127.82 543.072C128.658 543.419 129.419 543.927 130.06 544.569C130.702 545.21 131.21 545.971 131.557 546.809C131.905 547.647 132.083 548.545 132.083 549.452V615.062C132.083 616.894 131.356 618.65 130.06 619.945C128.765 621.24 127.009 621.968 125.177 621.968H59.5671C58.6602 621.968 57.7622 621.789 56.9243 621.442C56.0864 621.095 55.3251 620.587 54.6839 619.945C54.0426 619.304 53.5339 618.543 53.1868 617.705C52.8398 616.867 52.6611 615.969 52.6611 615.062V549.452C52.6611 547.62 53.3887 545.864 54.6839 544.569C55.979 543.274 57.7355 542.546 59.5671 542.546Z" fill="#018580"/>
<path d="M180.427 564.991H544.736C546.568 564.991 548.324 565.719 549.62 567.014C550.915 568.309 551.642 570.066 551.642 571.897C551.642 573.729 550.915 575.486 549.62 576.781C548.324 578.076 546.568 578.804 544.736 578.804H180.427C178.595 578.804 176.839 578.076 175.543 576.781C174.248 575.486 173.521 573.729 173.521 571.897C173.521 570.066 174.248 568.309 175.543 567.014C176.839 565.719 178.595 564.991 180.427 564.991Z" fill="#018580"/>
<path d="M180.427 585.71H284.021C285.853 585.71 287.609 586.438 288.905 587.733C290.2 589.028 290.928 590.785 290.928 592.616C290.928 594.448 290.2 596.205 288.905 597.5C287.609 598.795 285.853 599.523 284.021 599.523H180.427C178.595 599.523 176.839 598.795 175.543 597.5C174.248 596.205 173.521 594.448 173.521 592.616C173.521 590.785 174.248 589.028 175.543 587.733C176.839 586.438 178.595 585.71 180.427 585.71Z" fill="#018580"/>
</svg>
