<svg width="100" height="100" viewBox="0 0 100 100" fill="none" xmlns="http://www.w3.org/2000/svg">
<path d="M85.4448 35.5857C85.7414 35.5857 86.0266 35.458 86.2346 35.2297L89.7255 31.337C90.0915 30.9307 90.0915 30.3156 89.7255 29.9092L86.2346 26.0166C86.0381 25.7883 85.753 25.6606 85.4448 25.6606H70.5033V14.0679C70.5033 13.4837 70.0294 13 69.4399 13H63.1365C62.5547 13 62.0731 13.4759 62.0731 14.0679V15.9407H47.1237C46.827 15.9407 46.5419 16.0684 46.3339 16.2967L42.843 20.1893C42.477 20.5956 42.477 21.2108 42.843 21.6172L46.3339 25.5098C46.5304 25.7381 46.8155 25.8658 47.1237 25.8658H62.0652V35.6438H47.1237C46.827 35.6438 46.5419 35.7715 46.3339 35.9998L42.843 39.8925C42.477 40.2987 42.477 40.9139 42.843 41.3203L46.3339 45.2129C46.5304 45.4412 46.8155 45.5689 47.1237 45.5689H62.0652V85.8841H55.388C55.8503 85.1606 56.1277 84.3093 56.1277 83.3884L56.1316 68.719C56.4475 68.4211 56.7635 68.1154 57.0602 67.7981C57.6728 67.1442 58.008 66.2813 58.008 65.3604V56.0196C58.008 54.8704 57.0987 53.9378 55.9775 53.9378H44.2299L44.226 50.7997C44.226 48.54 42.392 46.6982 40.1419 46.6982H28.5018C26.2517 46.6982 24.4177 48.54 24.4177 50.7997V53.9417H12.6701C11.545 53.9417 10.628 54.8742 10.628 56.0235V65.3604C10.628 66.2736 10.9632 67.1326 11.5758 67.7865C11.8725 68.1038 12.1884 68.4095 12.5044 68.7074V83.3877C12.5044 84.3009 12.7818 85.1521 13.2326 85.8641H11.0634C10.4816 85.8641 10 86.3401 10 86.9321C10 87.528 10.4739 88 11.0634 88H87.2216C87.8034 88 88.285 87.5241 88.285 86.9321C88.285 86.3362 87.8111 85.8641 87.2216 85.8641H70.5037V35.5847L85.4448 35.5857ZM84.9708 27.7965L87.5061 30.629L84.9708 33.4614L70.5029 33.4653V27.8082H84.9708V27.7965ZM47.5965 23.7259L45.0613 20.8934L47.5965 18.061H62.0685V23.718H47.5965V23.7259ZM47.5965 43.4293L45.0613 40.5969L47.5965 37.7644H62.0685V43.4215H47.5965V43.4293ZM23.5884 56.071H45.0576V60.2306C45.0576 60.9851 44.445 61.5887 43.7052 61.5887H24.9416C24.1903 61.5887 23.5892 60.9735 23.5892 60.2306L23.5884 56.071ZM26.5398 50.8008C26.5398 49.7096 27.4183 48.8313 28.501 48.8313L40.1411 48.8274C41.2277 48.8274 42.1023 49.7096 42.1023 50.797V53.939H26.5404L26.5398 50.8008ZM21.4693 56.0594V60.2306C21.4693 62.1537 23.0259 63.7169 24.9408 63.7169H43.6936C45.6085 63.7169 47.1651 62.1537 47.1651 60.2306V56.0322L55.8728 56.0206V65.3614C55.8728 65.7368 55.7457 66.085 55.4991 66.3404C54.4935 67.4199 53.3568 68.3408 52.0969 69.1148C51.9004 69.2425 51.7039 69.3508 51.5035 69.463C49.2842 70.6896 46.6411 71.3435 43.8592 71.3435H39.2819C38.5228 69.3121 36.5886 67.8572 34.3115 67.8572C32.0344 67.8572 30.1002 69.3122 29.3411 71.3435H24.7753C21.9935 71.3435 19.3503 70.6896 17.1195 69.463C16.9307 69.3624 16.7342 69.2541 16.5184 69.1148C15.2662 68.3525 14.1218 67.42 13.1239 66.3404C12.8889 66.0811 12.7502 65.7367 12.7502 65.3692L12.6731 56.0787L21.4693 56.0594ZM34.3226 69.9779C36.0873 69.9779 37.5283 71.4328 37.5283 73.2282C37.5283 75.0197 36.0873 76.4784 34.3226 76.4784C32.5579 76.4784 31.1169 75.0235 31.1169 73.2282C31.1169 71.4328 32.5541 69.9779 34.3226 69.9779ZM17.0879 85.8775C15.7278 85.8775 14.622 84.767 14.622 83.4011V70.4038C14.8801 70.5818 15.1344 70.7521 15.3926 70.9107C15.6276 71.0694 15.8742 71.1971 16.1015 71.3286C18.6368 72.7371 21.6344 73.4685 24.7708 73.4685H29.0129C29.1401 76.3202 31.4596 78.5993 34.3185 78.5993C37.1774 78.5993 39.4969 76.3125 39.624 73.4685H43.8662C47.0025 73.4685 50.0002 72.7255 52.5276 71.3286C52.7627 71.2009 52.99 71.0694 53.2173 70.9223C53.4832 70.7521 53.749 70.5741 54.0072 70.3961V83.3627C54.0072 84.7402 52.8937 85.8584 51.522 85.8584H17.0881L17.0879 85.8775ZM64.1986 85.8775V15.129H68.3791V85.8657H64.1986V85.8775Z" fill="white"/>
</svg>
