<svg width="100" height="100" viewBox="0 0 100 100" fill="none" xmlns="http://www.w3.org/2000/svg">
<path d="M84.8449 65.6193C81.9948 64.0577 78.566 63.8502 75.5193 64.8658V3.09199C75.5193 2.49139 75.0279 2 74.4273 2H11.092C10.4914 2 10 2.49139 10 3.09199V86.0831C10 86.6837 10.4914 87.1751 11.092 87.1751H58.4079C63.9552 93.8799 70.5945 97.4726 71.6646 97.7128C72.7566 97.4726 86.7122 90.1235 89.6387 77.8059C90.829 72.4769 89.0381 67.9234 84.8558 65.6193H84.8449ZM12.184 84.9911V4.18398H73.3353V65.8486C72.7457 66.1871 72.1888 66.5584 71.6646 66.9952C68.0064 63.9594 62.6229 63.3479 58.4734 65.6302C51.3209 69.4412 52.5985 78.9524 56.8136 85.0021H12.184V84.9911ZM87.4984 77.3363C85.3145 87.186 74.1653 93.9673 71.6646 95.376C69.1639 93.9673 58.0147 87.186 55.8308 77.3363C54.8589 72.9356 56.202 69.3757 59.5326 67.5412C63.1798 65.5428 67.9409 66.2854 70.9002 69.2447C71.3261 69.6705 72.014 69.6705 72.4399 69.2447C78.8171 63.0749 89.9773 67.5521 87.5094 77.3363H87.4984Z" fill="white"/>
<path d="M19.8278 36.9436H40.5756C41.1762 36.9436 41.6676 36.4522 41.6676 35.8517V21.6558C41.6676 21.0552 41.1762 20.5638 40.5756 20.5638H19.8278C19.2272 20.5638 18.7358 21.0552 18.7358 21.6558V35.8517C18.7358 36.4522 19.2272 36.9436 19.8278 36.9436ZM20.9198 22.7478H39.4836V34.7597H20.9198V22.7478Z" fill="white"/>
<path d="M19.8277 50.0475H65.6913C67.1109 50.0257 67.1436 47.8854 65.6913 47.8635H19.8277C18.4082 47.8854 18.3754 50.0257 19.8277 50.0475Z" fill="white"/>
<path d="M19.8277 56.5994H65.6913C67.1109 56.5776 67.1436 54.4373 65.6913 54.4155H19.8277C18.4082 54.4373 18.3754 56.5776 19.8277 56.5994Z" fill="white"/>
<path d="M19.828 63.1514H53.6797C55.0993 63.1295 55.1211 60.9892 53.6797 60.9674H19.828C18.4084 60.9892 18.3866 63.1295 19.828 63.1514Z" fill="white"/>
<path d="M49.3114 67.5193H19.8277C18.3972 67.5412 18.3863 69.6815 19.8277 69.7033H49.3114C50.7419 69.6815 50.7528 67.5412 49.3114 67.5193Z" fill="white"/>
<path d="M48.2194 74.0713H19.8277C18.3972 74.0931 18.3863 76.2334 19.8277 76.2552H48.2194C49.6499 76.2334 49.6608 74.0931 48.2194 74.0713Z" fill="white"/>
<path d="M19.8277 43.4956H65.6913C67.1109 43.4737 67.1436 41.3334 65.6913 41.3116H19.8277C18.4082 41.3334 18.3754 43.4737 19.8277 43.4956Z" fill="white"/>
<path d="M65.6913 34.7597H47.1275C45.697 34.7815 45.6861 36.9218 47.1275 36.9436H65.6913C67.1218 36.9218 67.1327 34.7815 65.6913 34.7597Z" fill="white"/>
<path d="M65.6913 28.2077H47.1275C45.697 28.2296 45.6861 30.3699 47.1275 30.3917H65.6913C67.1218 30.3699 67.1327 28.2296 65.6913 28.2077Z" fill="white"/>
<path d="M46.0356 22.7478C46.0356 23.3484 46.527 23.8398 47.1276 23.8398H65.6914C66.292 23.8398 66.7834 23.3484 66.7834 22.7478C66.7834 22.1472 66.292 21.6558 65.6914 21.6558H47.1276C46.527 21.6558 46.0356 22.1472 46.0356 22.7478Z" fill="white"/>
<path d="M29.6558 14.0119H53.6796C54.2802 14.0119 54.7716 13.5205 54.7716 12.9199C54.7716 12.3193 54.2802 11.8279 53.6796 11.8279H29.6558C28.2253 11.8497 28.2144 13.99 29.6558 14.0119Z" fill="white"/>
</svg>
