<svg width="100" height="100" viewBox="0 0 100 100" fill="none" xmlns="http://www.w3.org/2000/svg">
<path fill-rule="evenodd" clip-rule="evenodd" d="M50.0001 16.8505C31.7217 16.8505 16.851 31.7213 16.851 50C16.8511 68.2785 31.7216 83.1493 50.0001 83.1493C68.2785 83.1492 83.1491 68.2785 83.1491 50C83.1492 31.7213 68.2785 16.8506 50.0001 16.8505ZM50.0001 84.9812C40.6557 84.9812 31.8711 81.3428 25.2651 74.7353C18.6575 68.1282 15.019 59.3438 15.019 50C15.0191 40.6559 18.6576 31.8715 25.2651 25.2645C31.8712 18.6573 40.6557 15.0186 50.0001 15.0186C59.3446 15.0185 68.1291 18.6573 74.7366 25.2645C81.3427 31.8714 84.9811 40.656 84.9811 50C84.9811 59.3437 81.3426 68.1283 74.7366 74.7353C68.1292 81.3427 59.3444 84.9813 50.0001 84.9812Z" fill="white"/>
<path fill-rule="evenodd" clip-rule="evenodd" d="M16.3579 56.3015C16.0415 56.3015 15.7345 56.1373 15.5643 55.8434C15.3115 55.4052 15.461 54.845 15.8998 54.5922L23.8544 49.9999L15.8999 45.4074C15.4611 45.1544 15.3115 44.5943 15.5643 44.1563C15.8173 43.718 16.3769 43.5676 16.8158 43.8209L26.1444 49.2064C26.4274 49.3701 26.6024 49.6726 26.6024 49.9999C26.6024 50.3269 26.4274 50.6295 26.1443 50.7931L16.8159 56.1784C16.6712 56.2618 16.5137 56.3015 16.3579 56.3015Z" fill="white"/>
<path fill-rule="evenodd" clip-rule="evenodd" d="M44.6137 84.5582C44.4579 84.5582 44.3003 84.5185 44.1572 84.4358C43.7183 84.1829 43.5688 83.6216 43.8216 83.1842L49.2064 73.8557C49.3703 73.5725 49.6723 73.398 49.9998 73.398C50.3276 73.398 50.6296 73.5726 50.7934 73.8558L56.1782 83.1842C56.4309 83.6215 56.2814 84.1829 55.8441 84.4358C55.4053 84.6885 54.8454 84.5376 54.5925 84.1002L49.9998 76.1457L45.4072 84.1002C45.2387 84.3943 44.9301 84.5582 44.6137 84.5582Z" fill="white"/>
<path fill-rule="evenodd" clip-rule="evenodd" d="M83.6422 56.3014C83.4864 56.3014 83.3288 56.2619 83.1841 56.1785L73.8573 50.793C73.5725 50.6295 73.3992 50.3272 73.3992 49.9999C73.3994 49.6725 73.5725 49.3702 73.8572 49.2066L83.1842 43.8212C83.623 43.568 84.1828 43.7183 84.4356 44.1564C84.6886 44.5944 84.539 45.1548 84.1001 45.4076L76.1473 49.9999L84.1002 54.592C84.5391 54.8448 84.6885 55.4052 84.4356 55.8433C84.2655 56.137 83.9586 56.3015 83.6422 56.3014Z" fill="white"/>
<path fill-rule="evenodd" clip-rule="evenodd" d="M50 26.6016C49.6725 26.6016 49.3703 26.4272 49.2065 26.1439L43.8219 16.8156C43.5691 16.3777 43.7185 15.8175 44.1574 15.5646C44.5948 15.3114 45.1545 15.4617 45.4073 15.8999L50 23.8539L54.5929 15.8998C54.8457 15.4617 55.4054 15.3114 55.8443 15.5646C56.2817 15.8174 56.4326 16.3777 56.1782 16.8158L50.7936 26.1438C50.6298 26.4272 50.3277 26.6017 50 26.6016Z" fill="white"/>
<path fill-rule="evenodd" clip-rule="evenodd" d="M46.0705 47.7313L39.6221 67.9752L53.9296 52.2684L60.378 32.0243L46.0705 47.7313ZM37.4767 72.606C37.3209 72.606 37.1618 72.5659 37.0186 72.4832C36.6465 72.2678 36.4732 71.8222 36.6052 71.412L44.3865 46.9844C44.4262 46.8586 44.4929 46.7431 44.582 46.6454L61.846 27.6928C62.1355 27.3746 62.6076 27.3012 62.9814 27.5165C63.3535 27.7317 63.5268 28.1777 63.3964 28.5878L55.6137 53.0153C55.5739 53.1411 55.5071 53.2567 55.418 53.3542L38.1542 72.3068C37.9762 72.5028 37.7279 72.606 37.4767 72.606Z" fill="white"/>
<path fill-rule="evenodd" clip-rule="evenodd" d="M50.0014 48.8243C49.8996 48.8243 49.7963 48.8378 49.696 48.8648C49.3924 48.946 49.1395 49.1405 48.982 49.4123C48.8247 49.6841 48.7832 50.0008 48.8643 50.304C48.9455 50.6071 49.1411 50.8605 49.413 51.0175C49.6835 51.1742 50.0014 51.2162 50.3035 51.1349C50.6073 51.0535 50.8601 50.8591 51.0176 50.5874C51.175 50.3155 51.2164 49.9988 51.1353 49.6957C51.0543 49.3925 50.8585 49.1393 50.5866 48.9823C50.407 48.8778 50.2049 48.8244 50.0014 48.8243ZM49.9952 53.0082C49.4735 53.0082 48.9597 52.8714 48.497 52.604C47.8005 52.2024 47.3027 51.5539 47.096 50.778C46.8877 50.0023 46.9942 49.192 47.3965 48.4963C47.7973 47.8007 48.4461 47.3032 49.2222 47.0953C49.9968 46.8872 50.8077 46.9942 51.5026 47.3957C52.1993 47.7974 52.6969 48.4458 52.9053 49.2216C53.112 49.9972 53.0054 50.8078 52.6046 51.5033C52.2024 52.1988 51.5535 52.6965 50.7775 52.9044C50.5199 52.9738 50.2558 53.0082 49.9952 53.0082Z" fill="white"/>
<path fill-rule="evenodd" clip-rule="evenodd" d="M50 11.8319C28.9545 11.8319 11.8321 28.954 11.8321 49.9999C11.8321 71.0457 28.9545 88.1681 50 88.1681C71.0456 88.168 88.1679 71.0457 88.1679 49.9999C88.1681 28.9537 71.0455 11.8319 50 11.8319ZM50 90C39.3151 90 29.2709 85.8384 21.7155 78.2847C14.1603 70.7291 10 60.6842 10 50C10.0001 39.3156 14.1601 29.2708 21.7155 21.7158C29.271 14.1607 39.3151 10 50 10C60.6851 9.99995 70.7292 14.1609 78.2845 21.7158C85.8399 29.2707 90 39.3156 90 50C90.0002 60.6841 85.8399 70.7293 78.2845 78.2847C70.7292 85.8384 60.6851 90.0001 50 90Z" fill="white"/>
<path fill-rule="evenodd" clip-rule="evenodd" d="M47.3107 45.9266C47.2583 45.9266 47.2058 45.9225 47.1533 45.9133C46.6556 45.8268 46.3199 45.3529 46.4074 44.8544L49.0967 29.3072C49.1729 28.8678 49.5546 28.5474 49.9998 28.5474C49.9982 28.5474 50.0015 28.5472 49.9998 28.5474C50.4468 28.5496 50.8315 28.8749 50.9047 29.3163L52.6414 40.0022C52.724 40.5015 52.3837 40.9723 51.8843 41.0534C51.3851 41.1354 50.9143 40.7957 50.8331 40.2965L49.9712 34.9973L48.2124 45.1666C48.1346 45.6123 47.748 45.9268 47.3107 45.9266Z" fill="white"/>
<path fill-rule="evenodd" clip-rule="evenodd" d="M54.7406 53.6533C54.3113 53.6533 53.9279 53.3503 53.8421 52.9133C53.7452 52.4168 54.0695 51.9356 54.5657 51.8383L63.9562 49.9996L56.2069 48.4815C55.7108 48.3843 55.3878 47.9031 55.4848 47.4066C55.5818 46.91 56.0637 46.5868 56.5598 46.6838L68.8971 49.1012C69.3266 49.1852 69.6366 49.562 69.6366 50.0001C69.6366 50.4379 69.3265 50.8148 68.8971 50.8989L54.9172 53.6362C54.8583 53.6478 54.7995 53.6534 54.7406 53.6533Z" fill="white"/>
<path fill-rule="evenodd" clip-rule="evenodd" d="M50 71.4521C50.0017 71.4521 49.9986 71.4521 50 71.4521C49.5532 71.4497 49.1683 71.1249 49.0967 70.6833L47.3587 59.9972C47.2776 59.4978 47.6162 59.0274 48.1155 58.9461C48.6149 58.8643 49.0856 59.2039 49.1667 59.7032L50.0288 65.0023L51.7876 54.8328C51.8751 54.3342 52.3489 53.9998 52.8466 54.0863C53.3461 54.1726 53.6799 54.6467 53.5925 55.1451L50.9033 70.6923C50.8271 71.1317 50.4453 71.4522 50 71.4521Z" fill="white"/>
<path fill-rule="evenodd" clip-rule="evenodd" d="M43.6182 53.3333C43.5593 53.3333 43.5005 53.3275 43.44 53.3159L31.1029 50.8987C30.6735 50.8143 30.3633 50.4377 30.3633 49.9998C30.3633 49.5618 30.6733 49.1851 31.1028 49.1008L45.0829 46.3634C45.579 46.2664 46.0608 46.59 46.1578 47.0864C46.2549 47.5828 45.9304 48.0643 45.4343 48.1615L36.0439 49.9999L43.7932 51.5183C44.2893 51.6155 44.6121 52.0968 44.5151 52.5932C44.4294 53.03 44.0459 53.3333 43.6182 53.3333Z" fill="white"/>
</svg>
