<svg width="100" height="100" viewBox="0 0 100 100" fill="none" xmlns="http://www.w3.org/2000/svg">
<path d="M49.9804 27.4677C37.56 27.4677 27.4524 37.5748 27.4524 49.9945C27.4524 54.8508 28.9981 59.3505 31.6201 63.0345C31.6646 63.1202 31.7229 63.199 31.7914 63.271C35.8939 68.8778 42.5193 72.5279 49.9798 72.5279C57.0984 72.5279 63.4557 69.2105 67.5891 64.0388C67.6508 63.9806 67.7057 63.912 67.7468 63.8401C70.7319 60.0188 72.5142 55.2106 72.5142 49.9982C72.5142 37.5784 62.4066 27.4714 49.9792 27.4714L49.9804 27.4677ZM49.9804 70.6192C43.2663 70.6192 37.2924 67.3908 33.5223 62.4077C34.8692 58.5248 39.2322 55.6837 45.3399 54.7275C46.6389 55.3273 48.0852 55.6666 49.6069 55.6666C51.1287 55.6666 52.575 55.3273 53.8739 54.7275C60.3927 55.7454 64.8379 58.8469 65.8969 63.0932C62.1097 67.6856 56.3824 70.6158 49.9801 70.6158L49.9804 70.6192ZM49.6068 53.761C45.0348 53.761 41.3162 50.0391 41.3162 45.4639C41.3162 40.8887 45.0348 37.1736 49.6068 37.1736C54.1789 37.1736 57.9044 40.8921 57.9044 45.4639C57.9044 50.0356 54.1823 53.761 49.6068 53.761ZM67.2784 61.2116C65.6916 57.3869 61.7399 54.5355 56.2048 53.2366C58.4086 51.362 59.8104 48.5723 59.8104 45.4604C59.8104 39.8365 55.2315 35.2613 49.6037 35.2613C43.976 35.2613 39.404 39.8365 39.404 45.4604C39.404 48.5757 40.8058 51.3654 43.013 53.2366C37.8548 54.4533 34.0232 57.0511 32.2543 60.5193C30.4138 57.4349 29.3582 53.833 29.3582 49.9877C29.3582 38.6163 38.6086 29.3665 49.9805 29.3665C61.3524 29.3665 70.6063 38.6163 70.6063 49.9877C70.6063 54.1208 69.3828 57.9763 67.2818 61.2046L67.2784 61.2116ZM46.6325 17.2757L45.9779 20.2128C45.8956 20.583 46.0395 20.9702 46.348 21.193C46.6565 21.4158 47.0677 21.4363 47.3933 21.241L49.981 19.709L52.572 21.241C52.7228 21.3301 52.8907 21.3746 53.0587 21.3746C53.2574 21.3746 53.4528 21.3129 53.6207 21.193C53.9292 20.9702 54.0731 20.5864 53.9909 20.2128L53.3363 17.2757L55.5949 15.288C55.8793 15.0378 55.989 14.6403 55.8725 14.277C55.756 13.9172 55.4338 13.6567 55.0568 13.6225L52.0579 13.338L50.8617 10.5758C50.7109 10.2262 50.3682 10 49.9877 10C49.6073 10 49.2646 10.2262 49.1138 10.5758L47.921 13.338L44.9255 13.6225C44.5451 13.6567 44.2264 13.9172 44.1098 14.277C43.9933 14.6403 44.0995 15.0344 44.3874 15.288L46.646 17.2757L46.6325 17.2757ZM48.6546 15.1818C49.0008 15.1509 49.3024 14.9316 49.4395 14.6094L49.981 13.3517L50.5259 14.6094C50.663 14.9282 50.9646 15.1475 51.3108 15.1783L52.6749 15.3086L51.6466 16.2133C51.3862 16.4429 51.2696 16.7959 51.345 17.1386L51.6432 18.4752L50.4607 17.7761C50.3099 17.6869 50.142 17.6424 49.9741 17.6424C49.8061 17.6424 49.6382 17.687 49.4874 17.7761L48.3118 18.4718L48.61 17.1352C48.6854 16.7959 48.5689 16.4429 48.3084 16.2099L47.2802 15.3052L48.6443 15.1749L48.6546 15.1818ZM55.0534 82.241L52.0545 81.9565L50.8584 79.1943C50.7075 78.8447 50.3648 78.6185 49.9844 78.6185C49.604 78.6185 49.2612 78.8447 49.1104 79.1943L47.9177 81.9565L44.9222 82.241C44.5418 82.2753 44.223 82.5357 44.1065 82.8956C43.99 83.2588 44.0962 83.653 44.3841 83.9065L46.6427 85.8943L45.9881 88.8348C45.9058 89.2049 46.0498 89.5922 46.3582 89.815C46.6667 90.0377 47.078 90.0583 47.4036 89.8629L49.9912 88.331L52.5822 89.8664C52.733 89.9555 52.9009 90 53.0689 90C53.2677 90 53.463 89.9383 53.631 89.8184C53.9394 89.5956 54.0834 89.2118 54.0011 88.8382L53.3465 85.8977L55.6051 83.91C55.8896 83.6598 55.9992 83.2622 55.8827 82.899C55.7662 82.5391 55.444 82.2787 55.067 82.2444L55.0534 82.241ZM51.6501 84.8387C51.3896 85.0683 51.2731 85.4213 51.3485 85.7606L51.6467 87.1006L50.4642 86.4015C50.3134 86.3124 50.1455 86.2678 49.9775 86.2678C49.8096 86.2678 49.6417 86.3124 49.4909 86.4015L48.3153 87.0972L48.6135 85.7606C48.6889 85.4214 48.5724 85.0684 48.3119 84.8387L47.2837 83.934L48.6478 83.8038C48.9939 83.7729 49.2955 83.5536 49.4326 83.2314L49.9741 81.9737L50.5191 83.2314C50.6562 83.5502 50.9578 83.7695 51.3039 83.8004L52.668 83.9306L51.6398 84.8353L51.6501 84.8387ZM89.9405 48.5867C89.824 48.2269 89.5018 47.9664 89.1248 47.9321L86.1259 47.6477L84.9297 44.8854C84.7789 44.5359 84.4362 44.3097 84.0557 44.3097C83.6753 44.3097 83.3326 44.5359 83.1818 44.8854L81.989 47.6477L78.9935 47.9321C78.6131 47.9664 78.2944 48.2269 78.1778 48.5867C78.0613 48.9466 78.1676 49.3441 78.4554 49.5977L80.714 51.5854L80.0594 54.5225C79.9772 54.8926 80.1211 55.2799 80.4296 55.5027C80.738 55.7254 81.1493 55.746 81.4749 55.5506L84.0625 54.0187L86.6536 55.5506C86.8044 55.6397 86.9723 55.6843 87.1402 55.6843C87.339 55.6843 87.5344 55.6226 87.7023 55.5027C88.0108 55.2799 88.1547 54.8961 88.0725 54.5225L87.4179 51.5854L89.6764 49.5977C89.9609 49.3475 90.0706 48.9499 89.9541 48.5867L89.9405 48.5867ZM85.7215 50.5264C85.461 50.7561 85.3445 51.109 85.4199 51.4518L85.718 52.7883L84.5356 52.0892C84.3848 52.0001 84.2168 51.9555 84.0489 51.9555C83.8809 51.9555 83.713 52.0001 83.5622 52.0892L82.3867 52.7849L82.6848 51.4483C82.7602 51.1091 82.6437 50.7561 82.3832 50.523L81.355 49.6183L82.7191 49.488C83.0653 49.4572 83.3669 49.2379 83.504 48.9157L84.0455 47.658L84.5904 48.9157C84.7275 49.2344 85.0291 49.4538 85.3753 49.4846L86.7394 49.6149L85.7111 50.5196L85.7215 50.5264ZM18.5086 55.5507C18.6594 55.6398 18.8274 55.6843 18.9953 55.6843C19.1941 55.6843 19.3895 55.6226 19.5574 55.5027C19.8659 55.2799 20.0098 54.8961 19.9276 54.5225L19.2729 51.5854L21.5315 49.5977C21.816 49.3475 21.9257 48.95 21.8091 48.5867C21.6926 48.2269 21.3704 47.9664 20.9934 47.9321L17.9945 47.6477L16.7984 44.8854C16.6475 44.5359 16.3048 44.3097 15.9244 44.3097C15.544 44.3097 15.2012 44.5359 15.0504 44.8854L13.8577 47.6477L10.8622 47.9321C10.4818 47.9664 10.163 48.2269 10.0465 48.5867C9.92995 48.95 10.0362 49.3441 10.3241 49.5977L12.5827 51.5854L11.9281 54.5225C11.8458 54.8926 11.9898 55.2799 12.2982 55.5027C12.6067 55.7254 13.018 55.746 13.3436 55.5507L15.9312 54.0187L18.5222 55.5507L18.5086 55.5507ZM15.4309 52.0893L14.2554 52.785L14.5536 51.4484C14.629 51.1091 14.5124 50.7561 14.252 50.5231L13.2237 49.6184L14.5878 49.4881C14.934 49.4573 15.2356 49.2379 15.3727 48.9158L15.9142 47.658L16.4591 48.9158C16.5962 49.2345 16.8978 49.4538 17.244 49.4847L18.6081 49.6149L17.5799 50.5197C17.3194 50.7493 17.2029 51.1023 17.2783 51.445L17.5764 52.7815L16.394 52.0824C16.2432 51.9933 16.0752 51.9487 15.9073 51.9487C15.7393 51.9487 15.5714 51.9933 15.4206 52.0824L15.4309 52.0893ZM25.5385 30.7276L22.543 30.4466L21.3503 27.6809C21.1995 27.3313 20.8567 27.1051 20.4763 27.1051C20.0959 27.1051 19.7531 27.3313 19.6023 27.6809L18.4062 30.4466L15.4107 30.7276C15.0302 30.7619 14.7081 31.0223 14.5915 31.3822C14.475 31.742 14.5813 32.1396 14.8692 32.3931L17.1277 34.3808L16.4731 37.3214C16.3909 37.6915 16.5348 38.0788 16.8433 38.3015C17.0112 38.4215 17.2066 38.4832 17.4054 38.4832C17.5733 38.4832 17.7412 38.4386 17.892 38.3495L20.4831 36.8142L23.0707 38.3461C23.3963 38.5415 23.8076 38.5209 24.116 38.2981C24.4245 38.0754 24.5684 37.6915 24.4862 37.3179L23.8316 34.3774L26.0901 32.3897C26.3746 32.1395 26.4843 31.742 26.3678 31.3787C26.2512 31.0189 25.9291 30.7584 25.5486 30.7242L25.5385 30.7276ZM22.1386 33.3253C21.8781 33.5549 21.7616 33.9079 21.837 34.2472L22.1352 35.5838L20.9596 34.8881C20.658 34.7099 20.2879 34.7099 19.9863 34.8881L18.8038 35.5872L19.102 34.2472C19.1774 33.908 19.0608 33.555 18.8004 33.3253L17.7756 32.424L19.1362 32.2972C19.4824 32.2664 19.784 32.047 19.9211 31.7283L20.466 30.4706L21.0075 31.7283C21.1446 32.047 21.4462 32.2664 21.7958 32.3006L23.1565 32.4275L22.1317 33.3288L22.1386 33.3253ZM28.5306 21.21L27.8725 24.1471C27.7903 24.5173 27.9342 24.9045 28.2427 25.1273C28.5512 25.3501 28.9624 25.3706 29.288 25.1753L31.8791 23.6399L34.4701 25.1753C34.6209 25.2644 34.7888 25.3089 34.9568 25.3089C35.1556 25.3089 35.3509 25.2472 35.5189 25.1273C35.8273 24.9045 35.9713 24.5173 35.889 24.1471L35.231 21.21L37.4896 19.2155C37.774 18.9653 37.8837 18.5677 37.7637 18.2045C37.6438 17.8446 37.325 17.5876 36.9446 17.5499L33.9491 17.2689L32.7564 14.5066C32.6056 14.1571 32.2628 13.9309 31.8824 13.9309C31.502 13.9309 31.1592 14.1571 31.0084 14.5066L29.8157 17.2689L26.8202 17.5499C26.4398 17.5842 26.121 17.8412 26.0011 18.2045C25.8845 18.5678 25.9908 18.9619 26.2753 19.2155L28.5339 21.21L28.5306 21.21ZM30.5527 19.1195C30.8989 19.0886 31.2005 18.8693 31.341 18.5471L31.8825 17.2928L32.4241 18.5471C32.5611 18.8659 32.8627 19.0852 33.2123 19.1195L34.5764 19.2463L33.5482 20.1545C33.2877 20.3841 33.1712 20.7371 33.25 21.0798L33.5482 22.413L32.3727 21.7173C32.0711 21.5391 31.7009 21.5391 31.3993 21.7173L30.2202 22.413L30.5184 21.0798C30.5938 20.7406 30.4807 20.3876 30.2202 20.1545L29.192 19.2463L30.5561 19.1195H30.5527ZM74.9814 37.328C74.8991 37.6981 75.0431 38.0854 75.3515 38.3081C75.5195 38.4281 75.7148 38.4898 75.9136 38.4898C76.0815 38.4898 76.2495 38.4452 76.4003 38.3561L78.9913 36.8208L81.5789 38.3527C81.9045 38.548 82.3192 38.5275 82.6242 38.3047C82.9327 38.0819 83.0767 37.6981 82.9944 37.3245L82.3398 34.384L84.5984 32.3963C84.8828 32.1461 84.9925 31.7486 84.876 31.3853C84.7595 31.0255 84.4373 30.765 84.0569 30.7307L81.0614 30.4497L79.8686 27.6841C79.7178 27.3345 79.3751 27.1083 78.9947 27.1083C78.6142 27.1083 78.2715 27.3345 78.1207 27.6841L76.9245 30.4497L73.929 30.7307C73.5486 30.765 73.2264 31.0255 73.1099 31.3853C72.9934 31.7452 73.0996 32.1427 73.3875 32.3963L75.6461 34.384L74.9915 37.3245L74.9814 37.328ZM77.6581 32.3003C78.0043 32.2695 78.3059 32.0501 78.443 31.7314L78.9879 30.4736L79.5294 31.7314C79.6665 32.0501 79.9681 32.2695 80.3177 32.3037L81.6784 32.4305L80.6536 33.3318C80.3931 33.5615 80.2766 33.9144 80.352 34.2538L80.6502 35.5903L79.4746 34.8946C79.173 34.7164 78.8029 34.7164 78.5012 34.8946L77.3188 35.5937L77.6169 34.2538C77.6923 33.9145 77.5758 33.5615 77.3153 33.3318L76.2905 32.4305L77.6512 32.3037L77.6581 32.3003ZM64.2296 21.2133L63.5715 24.1504C63.4893 24.5205 63.6332 24.9078 63.9417 25.1305C64.2502 25.3533 64.6614 25.3739 64.987 25.1785L67.5781 23.6432L70.1691 25.1785C70.3199 25.2676 70.4878 25.3122 70.6558 25.3122C70.8546 25.3122 71.0499 25.2505 71.2179 25.1305C71.5263 24.9078 71.6703 24.5205 71.588 24.1504L70.93 21.2133L73.192 19.2187C73.4764 18.9685 73.5861 18.571 73.4696 18.2077C73.3531 17.8445 73.0309 17.5874 72.6505 17.5532L69.6549 17.2721L68.4588 14.5099C68.308 14.1603 67.9653 13.9341 67.5848 13.9341C67.2044 13.9341 66.8617 14.1603 66.7109 14.5099L65.5181 17.2721L62.5226 17.5532C62.1422 17.5874 61.8235 17.8445 61.7035 18.2077C61.587 18.571 61.6932 18.9651 61.9777 19.2187L64.2363 21.2133L64.2296 21.2133ZM66.2517 19.1227C66.5979 19.0919 66.8995 18.8725 67.04 18.5504L67.5815 17.2926L68.1265 18.5504C68.2636 18.8691 68.5652 19.0885 68.9113 19.1193L70.272 19.2461L69.2438 20.1543C68.9833 20.384 68.8668 20.7369 68.9422 21.0797L69.2403 22.4128L68.0613 21.7171C67.9105 21.628 67.7426 21.5834 67.5746 21.5834C67.4067 21.5834 67.2387 21.628 67.0879 21.7171L65.9089 22.4128L66.2071 21.0797C66.2825 20.7404 66.1694 20.3874 65.9089 20.1543L64.8807 19.2461L66.2448 19.1193L66.2517 19.1227ZM37.8119 77.1233L34.8163 76.8423L33.6202 74.0801C33.4694 73.7305 33.1267 73.5043 32.7462 73.5043C32.3658 73.5043 32.0231 73.7305 31.8723 74.0801L30.6795 76.8423L27.684 77.1233C27.3036 77.1576 26.9848 77.4146 26.8649 77.7779C26.7484 78.1412 26.8546 78.5353 27.1391 78.7889L29.3977 80.7834L28.743 83.7205C28.6608 84.0907 28.8047 84.4779 29.1132 84.7007C29.4217 84.9235 29.8329 84.944 30.1585 84.7487L32.7461 83.2168L35.3372 84.7521C35.488 84.8412 35.6559 84.8858 35.8239 84.8858C36.0226 84.8858 36.218 84.8241 36.3859 84.7041C36.6944 84.4814 36.8383 84.0941 36.7561 83.724L36.098 80.7869L38.3601 78.7923C38.6445 78.5421 38.7542 78.1446 38.6377 77.7813C38.5211 77.4181 38.199 77.161 37.8185 77.1267L37.8119 77.1233ZM34.4051 79.7245C34.1446 79.9541 34.0281 80.3071 34.1035 80.6498L34.4017 81.983L33.2261 81.2872C32.9245 81.109 32.5544 81.109 32.2528 81.2872L31.0772 81.983L31.3754 80.6498C31.4508 80.3105 31.3343 79.9575 31.0738 79.7279L30.0456 78.8197L31.4097 78.6929C31.7558 78.662 32.0574 78.4427 32.1979 78.1205L32.7395 76.8628L33.2844 78.1205C33.4215 78.4393 33.7231 78.6586 34.0693 78.6895L35.4299 78.8163L34.4017 79.7245H34.4051ZM25.4223 63.9498L22.4268 63.6653L21.2341 60.9031C21.0833 60.5535 20.7406 60.3273 20.3601 60.3273C19.9797 60.3273 19.637 60.5535 19.4862 60.9031L18.2934 63.6653L15.2979 63.9498C14.9175 63.984 14.5987 64.2445 14.4822 64.6044C14.3657 64.9676 14.4719 65.3618 14.7598 65.6153L17.0184 67.603L16.3604 70.5401C16.2781 70.9103 16.4221 71.2975 16.7305 71.5203C17.039 71.7431 17.4503 71.7636 17.7759 71.5683L20.3669 70.0329L22.9579 71.5683C23.1087 71.6574 23.2767 71.7019 23.4446 71.7019C23.6434 71.7019 23.8388 71.6403 24.0067 71.5203C24.3151 71.2975 24.4591 70.9103 24.3768 70.5401L23.7188 67.603L25.9774 65.6153C26.2619 65.3651 26.3715 64.9676 26.255 64.6043C26.1385 64.2445 25.8163 63.984 25.4393 63.9498H25.4223ZM22.019 66.5475C21.7585 66.7771 21.642 67.1336 21.7174 67.4728L22.0156 68.806L20.8365 68.1103C20.6857 68.0212 20.5178 67.9766 20.3499 67.9766C20.1819 67.9766 20.014 68.0212 19.8632 68.1103L18.6841 68.806L18.9823 67.4728C19.0577 67.1336 18.9446 66.7806 18.6807 66.5475L17.6525 65.6428L19.0166 65.5126C19.3627 65.4817 19.6643 65.2624 19.8014 64.9402L20.3429 63.6859L20.8845 64.9402C21.0216 65.259 21.3232 65.4783 21.6693 65.5126L23.0334 65.6428L22.0052 66.5475H22.019ZM72.363 77.1239L69.3675 76.8429L68.1748 74.0807C68.024 73.7311 67.6813 73.5049 67.3008 73.5049C66.9204 73.5049 66.5777 73.7311 66.4269 74.0807L65.2341 76.8429L62.2386 77.1239C61.8582 77.1582 61.5394 77.4152 61.4195 77.7785C61.303 78.1418 61.4092 78.5359 61.6937 78.7895L63.9523 80.7841L63.2942 83.7212C63.212 84.0913 63.3559 84.4785 63.6644 84.7013C63.8323 84.8213 64.0277 84.883 64.2265 84.883C64.3944 84.883 64.5623 84.8384 64.7131 84.7493L67.3042 83.2139L69.8952 84.7493C70.2208 84.9447 70.6355 84.9241 70.9405 84.7013C71.249 84.4786 71.3929 84.0913 71.3107 83.7212L70.6526 80.7841L72.9112 78.7895C73.1957 78.5393 73.3054 78.1418 73.1854 77.7785C73.0655 77.4187 72.7467 77.1616 72.3663 77.1239L72.363 77.1239ZM68.9597 79.7251C68.6992 79.9547 68.5827 80.3077 68.6615 80.6504L68.9597 81.9836L67.7807 81.2879C67.6299 81.1988 67.4619 81.1542 67.294 81.1542C67.126 81.1542 66.9581 81.1988 66.8073 81.2879L65.6318 81.9836L65.9299 80.6504C66.0053 80.3112 65.8922 79.9582 65.6318 79.7251L64.6035 78.8169L65.9676 78.6901C66.3138 78.6592 66.6154 78.4399 66.7559 78.1177L67.2974 76.8634L67.839 78.1177C67.9761 78.4365 68.2777 78.6558 68.6272 78.6901L69.9913 78.8169L68.9631 79.7251H68.9597ZM84.7528 63.9504L81.7539 63.6659L80.5577 60.9037C80.4069 60.5541 80.0642 60.3279 79.6838 60.3279C79.3033 60.3279 78.9606 60.5541 78.8098 60.9037L77.6171 63.6659L74.6216 63.9504C74.2411 63.9847 73.9224 64.2451 73.8059 64.605C73.6893 64.9648 73.7956 65.3624 74.0835 65.6159L76.3421 67.6036L75.6874 70.5407C75.6052 70.9109 75.7491 71.2981 76.0576 71.5209C76.2255 71.6409 76.4209 71.7026 76.6162 71.7026C76.7842 71.7026 76.9521 71.658 77.1029 71.5689L79.6905 70.037L82.2816 71.5723C82.6072 71.7677 83.0219 71.7471 83.3269 71.5243C83.6354 71.3016 83.7793 70.9143 83.6971 70.5442L83.039 67.6105L85.301 65.6228C85.5855 65.3726 85.6952 64.9751 85.5786 64.6118C85.4621 64.2485 85.14 63.9915 84.7595 63.9572L84.7528 63.9504ZM81.3461 66.5447C81.0856 66.7743 80.9691 67.1307 81.0445 67.47L81.3426 68.8032L80.1636 68.1075C79.862 67.9293 79.4918 67.9293 79.1902 68.1075L78.0147 68.8032L78.3129 67.47C78.3883 67.1307 78.2717 66.7778 78.0112 66.5447L76.983 65.64L78.3471 65.5097C78.6933 65.4789 78.9949 65.2596 79.132 64.9374L79.6735 63.6797L80.2184 64.9374C80.3555 65.2561 80.6571 65.4755 81.0033 65.5063L82.3639 65.6366L81.3357 66.5413L81.3461 66.5447Z" fill="white"/>
</svg>
