<svg width="500" height="385" viewBox="0 0 500 385" fill="none" xmlns="http://www.w3.org/2000/svg">
<g clip-path="url(#clip0_56_302)">
<path d="M318.477 384.951L-48 384.845V97.6016C-40.3615 101.111 -33.7028 106.845 -29.2906 114.088C-24.8121 121.427 -22.3592 130.327 -15.9067 135.957C-6.43412 144.215 8.85016 142.923 17.785 151.779C26.1453 160.066 25.777 174.044 32.5979 183.676C38.7484 192.359 52.2944 198.549 61.3544 193.083C67.0409 189.656 74.7309 192.352 79.2021 197.295C83.6658 202.237 85.7356 208.868 87.9086 215.192C90.0815 221.523 92.6891 228.072 97.8157 232.313C105.668 238.794 117.011 238.047 126.963 236.128C136.914 234.217 147.418 231.506 156.913 235.083C167.468 239.055 173.898 249.724 178.833 259.983C183.776 270.242 188.446 281.345 197.617 287.968C213.66 299.571 238.461 293.807 252.588 307.739C262.319 317.341 263.453 333.23 272.602 343.399C279.938 351.56 291.09 354.659 300.798 359.669C310.507 364.679 320.009 374.02 318.477 384.951Z" fill="#6FC7C4"/>
<path d="M527.041 30.6496C517.87 48.2774 490.743 47.5948 478.745 63.4023C468.415 77.0125 473.093 97.7905 463.335 111.813C451.676 128.559 424.995 128.275 412.869 144.68C403.422 157.465 405.86 176.607 395.635 188.781C381.857 205.193 352.879 200.272 339.101 216.691C332.134 224.983 331.024 236.552 328.968 247.211C328.763 248.257 328.544 249.309 328.29 250.368C326.983 248.221 325.478 246.223 323.669 244.445C310.116 231.176 286.325 236.666 270.935 225.616C262.138 219.308 257.658 208.734 252.917 198.964C248.183 189.194 242.014 179.032 231.889 175.249C222.781 171.843 212.705 174.424 203.159 176.245C193.612 178.072 182.731 178.783 175.199 172.611C170.281 168.572 167.779 162.336 165.695 156.306C163.723 150.603 161.837 144.637 158 140.022C163.095 135.691 168.924 132.264 175.255 130.074C185.847 126.412 197.506 125.921 207.469 120.78C223.056 112.738 231.119 95.323 237.895 79.0675C244.664 62.8121 252.246 45.3122 267.459 36.5801C285.456 26.2551 309.494 31.0833 326.764 19.578C334.925 14.1452 340.771 5.74374 346.869 -2H530.716C530.532 -0.328944 530.433 1.32433 530.398 2.91717C530.186 12.3249 531.38 22.3156 527.041 30.6496Z" fill="#6FC7C4"/>
<path d="M-15.0923 385.254C-19.3557 371.099 -21.1059 356.988 -20.6853 342.194C-20.538 336.999 -20.0548 331.656 -17.7109 327.033C-15.3671 322.411 -10.7693 318.634 -5.6426 318.704C-0.515923 318.774 4.4104 323.786 3.31362 328.863C0.941793 312.379 1.9443 295.403 6.23863 279.323C7.49894 274.603 9.28001 269.623 13.2569 266.856C17.2337 264.089 23.9419 265.078 25.3583 269.752C25.3318 261.222 25.3959 252.541 27.9055 244.4C30.4158 236.258 35.7693 228.596 43.5765 225.412C51.3829 222.228 61.6421 224.777 65.5917 232.308C65.0106 223.588 64.4544 214.638 66.9817 206.281C69.5089 197.926 75.8355 190.166 84.3203 188.613C92.8051 187.06 102.55 193.995 101.903 202.71C102.574 196.205 103.299 189.516 106.323 183.739C109.348 177.962 115.265 173.241 121.703 173.689C129.216 174.211 134.639 181.25 137.641 188.251C140.644 195.251 142.401 203.04 147.346 208.797C148.816 201.944 150.414 194.998 153.837 188.904C157.26 182.81 162.812 177.585 169.601 176.235C179.364 174.295 189.213 180.924 194.306 189.587C199.399 198.25 200.778 208.571 202.053 218.572H313.098C313.421 212.473 314.588 205.077 316.158 199.179C317.729 193.282 320.654 187.581 325.349 183.753C330.045 179.925 336.691 178.26 342.303 180.484C349.672 183.404 353.33 191.777 355.092 199.597C357.438 196.727 361.949 195.973 364.997 198.057C368.045 200.141 369.637 203.912 369.982 207.622C370.327 211.333 369.592 215.049 368.86 218.701C371.727 214.021 375.187 209.935 379.398 206.453C383.61 202.972 389.397 200.953 394.574 202.629C399.579 204.248 403.093 209.018 404.654 214.102C406.215 219.186 406.134 224.618 406.038 229.941C406.776 224.955 413.112 223.337 418.064 223.824C423.015 224.312 427.265 227.957 429.659 232.377C432.053 236.797 432.851 241.917 433.232 246.944C433.913 255.916 433.387 264.981 431.673 273.81C432.75 269.215 438.816 267.994 443.326 269.183C447.836 270.373 451.168 274.483 452.62 278.972C454.071 283.461 453.924 288.309 453.502 293.014C453.082 297.719 452.403 302.444 452.845 307.146C453.183 302.028 459.047 299.518 464.066 300.18C469.084 300.842 473.186 304.911 475.203 309.616C477.22 314.321 477.476 319.596 477.375 324.724C476.967 345.454 470.196 367.499 459.653 385.264L-15.0923 385.254Z" fill="#018580"/>
<path d="M400.048 88.7066H423.151C428.012 88.7066 431.99 84.6747 431.99 79.7468V77.8966C431.99 72.9687 428.012 68.9368 423.151 68.9368H400.048C395.187 68.9368 391.209 72.9687 391.209 77.8966V79.7468C391.209 84.6747 395.187 88.7066 400.048 88.7066Z" fill="white"/>
<path d="M64.2529 103.192L77.7996 96.4906H66.9327L64.2529 103.192Z" fill="#018580"/>
<path d="M96.8856 96.4905H66.9329C62.0713 96.4905 58.0938 92.4586 58.0938 87.5307V72.5327C58.0938 67.6048 62.0713 63.5729 66.9329 63.5729H96.8856C101.747 63.5729 105.725 67.6048 105.725 72.5327V87.5307C105.725 92.4586 101.747 96.4905 96.8856 96.4905Z" fill="#018580"/>
<path d="M455.376 200.061H448.956C445.95 200.061 443.492 197.569 443.492 194.522C443.492 191.476 445.95 188.984 448.956 188.984H455.376C458.381 188.984 460.84 191.476 460.84 194.522C460.84 197.569 458.381 200.061 455.376 200.061Z" fill="white"/>
<path d="M-5.50367 265.501H-13.4242C-17.5344 265.501 -20.897 262.093 -20.897 257.926C-20.897 253.76 -17.5344 250.352 -13.4242 250.352H-5.50367C-1.39349 250.352 1.96905 253.76 1.96905 257.926C1.96905 262.093 -1.39349 265.501 -5.50367 265.501Z" fill="white"/>
<path d="M426.826 327.921H420.74C417.582 327.921 414.998 325.248 414.998 321.98C414.998 318.713 417.582 316.04 420.74 316.04H426.826C429.984 316.04 432.568 318.713 432.568 321.98C432.568 325.248 429.984 327.921 426.826 327.921Z" fill="white"/>
<path d="M-28.8164 384.962H486.797" stroke="#211F20" stroke-width="0.5" stroke-miterlimit="10" stroke-linecap="round" stroke-linejoin="round"/>
<path d="M391.722 384.951C390.359 382.183 388.769 377.863 388.904 374.772C389.039 371.681 391.302 368.451 394.354 368.438C396.37 368.428 398.192 369.812 399.28 371.533C400.368 373.254 400.854 375.283 401.323 377.271C399.377 369.296 399.529 360.807 401.76 352.91C402.374 350.736 403.17 348.556 404.613 346.832C406.056 345.108 408.259 343.899 410.474 344.169C412.39 344.403 414.058 345.704 415.158 347.31C416.26 348.916 416.867 350.811 417.381 352.696C419.431 360.224 420.212 368.106 419.679 375.897C420.259 369.324 422.086 362.866 425.033 356.982C426.083 354.886 427.328 352.8 429.219 351.439C431.11 350.079 433.791 349.61 435.752 350.865C437.766 352.154 438.46 354.769 438.796 357.158C439.628 363.08 439.269 369.173 437.745 374.953C438.751 371.901 439.85 368.702 442.224 366.567C444.599 364.433 448.679 363.886 450.79 366.29C451.9 367.554 452.239 369.325 452.378 371.012C452.773 375.806 451.317 380.627 449.257 384.961L391.722 384.951Z" stroke="#211F20" stroke-width="0.5" stroke-miterlimit="10" stroke-linecap="round" stroke-linejoin="round"/>
<path d="M-8.2459 384.987C-9.35889 383.602 -10.7569 381.118 -11.0479 379.357C-11.3389 377.595 -10.4078 375.491 -8.67533 375.167C-7.0924 374.869 -5.46085 376.452 -5.6833 378.067C-7.66768 374.221 -7.77669 369.435 -5.9691 365.5C-5.36951 364.194 -4.34565 362.845 -2.9255 362.805C-1.29542 362.759 -0.176539 364.418 0.507019 365.919C2.05092 369.31 3.0571 372.951 3.47549 376.661C3.4033 375.041 3.34585 373.345 4.02793 371.878C4.71002 370.411 6.38797 369.281 7.90462 369.8C9.53028 370.356 10.1195 372.363 10.2742 374.094C10.5836 377.57 10.4436 381.736 9.19292 384.987H-8.2459Z" stroke="#211F20" stroke-width="0.5" stroke-miterlimit="10" stroke-linecap="round" stroke-linejoin="round"/>
<path d="M210.456 384.962C210.98 384.264 211.375 383.405 211.712 382.597C212.05 381.79 212.18 380.858 211.885 380.034C211.529 379.041 210.534 378.32 209.492 378.299C208.45 378.278 207.428 378.96 207.034 379.938C207.173 379.004 207.311 378.058 207.217 377.118C207.123 376.178 206.77 375.229 206.069 374.607C204.885 373.555 202.962 373.729 201.709 374.695C200.456 375.66 199.785 377.231 199.489 378.798C199.512 377.283 199.509 375.727 198.986 374.308C198.463 372.889 197.305 371.612 195.825 371.392C194.019 371.124 192.296 372.521 191.551 374.211C190.806 375.901 190.815 377.819 190.837 379.669C190.635 378.394 189.618 377.292 188.377 377C187.135 376.709 185.745 377.248 185.011 378.304C184.35 379.254 184.235 380.507 184.446 381.65C184.657 382.792 185.456 383.915 185.957 384.96H210.456V384.962Z" stroke="#211F20" stroke-width="0.5" stroke-miterlimit="10" stroke-linecap="round" stroke-linejoin="round"/>
<path d="M320.563 289.328H136.415C126.245 289.328 118 280.971 118 270.662V46.6663C118 36.3573 126.245 28 136.415 28H338.978V270.662C338.978 280.971 330.733 289.328 320.563 289.328Z" fill="white"/>
<path d="M338.978 28H357.392L338.978 46.6663V28Z" fill="white"/>
<path d="M357.392 65.3326C367.563 65.3326 375.807 56.9754 375.807 46.6663C375.807 36.3572 367.563 28 357.392 28C347.222 28 338.978 36.3572 338.978 46.6663C338.978 56.9754 347.222 65.3326 357.392 65.3326Z" fill="#E6E6E6"/>
<path d="M368.441 83.3098H338.978V46.6664H375.807V75.8433C375.807 79.9671 372.509 83.3098 368.441 83.3098Z" fill="#E6E6E6"/>
<path d="M214.876 69.0659H314.796" stroke="#211F20" stroke-width="0.5" stroke-miterlimit="10" stroke-linecap="round" stroke-linejoin="round"/>
<path d="M214.876 54.1328H293.446" stroke="#211F20" stroke-width="0.5" stroke-miterlimit="10" stroke-linecap="round" stroke-linejoin="round"/>
<path d="M214.876 83.9989H314.796" stroke="#211F20" stroke-width="0.5" stroke-miterlimit="10" stroke-linecap="round" stroke-linejoin="round"/>
<path d="M214.876 98.932H314.796" stroke="#211F20" stroke-width="0.5" stroke-miterlimit="10" stroke-linecap="round" stroke-linejoin="round"/>
<path d="M314.796 61.5993V42.933H300.064V61.5993H314.796Z" stroke="#211F20" stroke-width="0.5" stroke-miterlimit="10" stroke-linecap="round" stroke-linejoin="round"/>
<path d="M303.164 51.8943C304.285 54.0372 305.788 55.9748 307.578 57.5846C308.951 54.0387 310.324 50.4929 311.697 46.947" stroke="#018580" stroke-width="3" stroke-miterlimit="10"/>
<path d="M214.876 156.798H314.796" stroke="#211F20" stroke-width="0.75" stroke-miterlimit="10" stroke-linecap="round" stroke-linejoin="round"/>
<path d="M214.876 141.865H293.446" stroke="#211F20" stroke-width="0.75" stroke-miterlimit="10" stroke-linecap="round" stroke-linejoin="round"/>
<path d="M214.876 171.731H314.796" stroke="#211F20" stroke-width="0.75" stroke-miterlimit="10" stroke-linecap="round" stroke-linejoin="round"/>
<path d="M214.876 186.664H314.796" stroke="#211F20" stroke-width="0.75" stroke-miterlimit="10" stroke-linecap="round" stroke-linejoin="round"/>
<path d="M314.796 149.331V130.665H300.064V149.331H314.796Z" stroke="#211F20" stroke-width="0.75" stroke-miterlimit="10" stroke-linecap="round" stroke-linejoin="round"/>
<path d="M214.876 231.463H314.796" stroke="#211F20" stroke-width="0.75" stroke-miterlimit="10" stroke-linecap="round" stroke-linejoin="round"/>
<path d="M214.876 216.53H293.446" stroke="#211F20" stroke-width="0.75" stroke-miterlimit="10" stroke-linecap="round" stroke-linejoin="round"/>
<path d="M214.876 246.396H314.796" stroke="#211F20" stroke-width="0.75" stroke-miterlimit="10" stroke-linecap="round" stroke-linejoin="round"/>
<path d="M214.876 261.329H314.796" stroke="#211F20" stroke-width="0.75" stroke-miterlimit="10" stroke-linecap="round" stroke-linejoin="round"/>
<path d="M314.796 223.996V205.33H300.064V223.996H314.796Z" stroke="#211F20" stroke-width="0.75" stroke-miterlimit="10" stroke-linecap="round" stroke-linejoin="round"/>
<path d="M158.435 154.475C159.335 159.435 157.963 164.771 154.789 168.655C156.759 168.916 158.729 169.177 160.699 169.438C162.637 169.695 164.575 169.952 166.512 170.209C168.034 170.411 169.574 170.612 171.099 170.436C172.675 170.254 174.196 169.671 175.781 169.605C178.222 169.504 180.705 170.63 183.052 169.945C181.376 165.144 180.628 160.202 180.806 155.112C173.413 154.834 165.83 154.753 158.435 154.475Z" fill="black"/>
<path d="M192.668 177.185C187.284 184.099 178.938 188.534 169.561 188.534C160.185 188.534 151.839 184.099 146.455 177.185L162.225 173.384H176.898L192.668 177.185Z" fill="#018580"/>
<path d="M169.558 181.916C162.023 181.916 162.222 173.382 162.222 173.382C163.091 171.516 163.71 169.53 164.048 167.499C164.174 166.759 164.262 166.013 164.314 165.266C164.321 165.266 164.343 165.244 164.35 165.244H174.773C174.781 165.244 174.803 165.266 174.81 165.266C175.002 168.074 175.716 170.836 176.902 173.382C176.902 173.382 177.101 181.916 169.558 181.916Z" fill="#FFB192"/>
<path d="M171.753 166.901C171.377 167.424 170.714 167.64 170.088 167.775C168.092 168.193 165.993 168.103 164.048 167.499C164.174 166.759 164.262 166.013 164.314 165.266C164.321 165.266 164.343 165.244 164.35 165.244H164.534C165.359 165.647 166.265 165.886 167.157 166.065C168.652 166.356 170.25 166.61 171.753 166.901Z" fill="#211F20"/>
<path d="M158.771 141.548C158.799 145.867 159.064 150.184 159.562 154.473C159.906 157.437 160.398 160.49 162.005 162.991C163.584 165.45 166.255 167.205 169.137 167.472C172.02 167.738 175.039 166.436 176.702 164.036C177.971 162.205 178.406 159.925 178.712 157.709C179.429 152.509 179.603 147.232 179.229 141.995C172.35 141.144 165.694 141.278 158.771 141.548Z" fill="#FFB192"/>
<path d="M183.627 153.934C183.627 156.289 181.743 158.198 179.42 158.198C177.097 158.198 175.213 156.289 175.213 153.934C175.213 151.579 177.097 149.67 179.42 149.67C181.743 149.67 183.627 151.579 183.627 153.934Z" fill="#FFB192"/>
<path d="M163.931 153.665C163.931 156.02 162.047 157.929 159.724 157.929C157.401 157.929 155.518 156.02 155.518 153.665C155.518 151.31 157.401 149.401 159.724 149.401C162.047 149.401 163.931 151.31 163.931 153.665Z" fill="#FFB192"/>
<path d="M181.111 146.841C181.17 147.961 180.839 148.932 180.25 149.76C179.984 149.701 179.705 149.671 179.417 149.671C179.02 149.671 178.629 149.731 178.268 149.835C177.627 147.983 176.198 146.415 174.401 145.684C172.538 144.915 170.446 145.034 168.435 144.967C166.416 144.9 164.406 144.482 162.962 143.055C162.822 145.415 161.85 147.7 160.288 149.447C160.104 149.417 159.912 149.402 159.721 149.402C159.051 149.402 158.424 149.559 157.865 149.85C156.089 146.96 155.765 143.085 157.128 139.957C158.66 136.425 162.107 133.872 165.871 133.274C169.635 132.684 173.606 134.006 176.427 136.597C179.248 139.195 180.905 142.988 181.111 146.841Z" fill="black"/>
<path d="M168.612 151.381C168.603 152.656 168.312 153.928 167.763 155.076C167.459 154.9 166.992 154.956 166.752 155.214C166.512 155.472 166.441 155.863 166.525 156.206C166.61 156.55 166.835 156.847 167.111 157.064C167.387 157.281 167.712 157.426 168.043 157.54" stroke="#231F20" stroke-width="0.4256" stroke-miterlimit="10" stroke-linecap="round" stroke-linejoin="round"/>
<path d="M172.227 152.383C172.248 152.959 172.604 153.415 173.023 153.399C173.442 153.383 173.765 152.904 173.744 152.327C173.724 151.75 173.367 151.295 172.949 151.31C172.529 151.326 172.206 151.806 172.227 152.383Z" fill="#231F20"/>
<path d="M164.942 152.679C164.962 153.255 165.319 153.711 165.737 153.695C166.157 153.68 166.479 153.2 166.458 152.623C166.438 152.047 166.081 151.591 165.663 151.607C165.244 151.623 164.921 152.103 164.942 152.679Z" fill="#231F20"/>
<path d="M173.68 150.507C174.061 150.58 174.53 150.585 174.754 150.264C174.952 149.979 174.85 149.583 174.69 149.274C174.171 148.271 173.074 147.623 171.965 147.594C171.441 147.579 170.577 147.679 170.394 148.29C170.204 148.926 171.094 149.406 171.533 149.673C172.193 150.075 172.923 150.361 173.68 150.507Z" fill="#211F20"/>
<path d="M165.836 150.14C165.299 150.604 164.595 150.867 163.89 150.866C163.603 150.865 163.271 150.792 163.145 150.532C163.019 150.271 163.163 149.962 163.326 149.722C163.871 148.918 165.058 147.768 166.107 147.79C167.542 147.821 166.332 149.71 165.836 150.14Z" fill="#211F20"/>
<path d="M168.348 161.21L174.065 159.238" stroke="#231F20" stroke-width="0.4256" stroke-miterlimit="10" stroke-linecap="round" stroke-linejoin="round"/>
<path d="M199.025 158.66C199.025 165.634 196.668 172.048 192.712 177.133C192.698 177.148 192.683 177.17 192.668 177.185C187.284 184.099 178.938 188.534 169.561 188.534C160.185 188.534 151.839 184.099 146.454 177.185C146.44 177.17 146.425 177.148 146.41 177.133C142.455 172.048 140.098 165.634 140.098 158.66C140.098 142.167 153.283 128.794 169.561 128.794C185.84 128.794 199.025 142.167 199.025 158.66Z" stroke="#211F20" stroke-miterlimit="10" stroke-linecap="round" stroke-linejoin="round"/>
<path d="M192.668 95.0531C187.284 101.967 178.938 106.402 169.561 106.402C160.185 106.402 151.839 101.967 146.455 95.0531L162.225 91.2527H176.898L192.668 95.0531Z" fill="black"/>
<path d="M169.558 99.7847C162.023 99.7847 162.222 91.2505 162.222 91.2505C163.091 89.3838 163.71 87.3977 164.048 85.3668C164.174 84.6276 164.262 83.881 164.314 83.1343C164.321 83.1343 164.343 83.1119 164.35 83.1119H174.773C174.781 83.1119 174.803 83.1343 174.81 83.1343C175.002 85.9418 175.716 88.7044 176.902 91.2505C176.902 91.2505 177.101 99.7847 169.558 99.7847Z" fill="#FFB192"/>
<path d="M171.753 84.7695C171.377 85.2922 170.714 85.5087 170.088 85.6431C168.092 86.0612 165.993 85.9716 164.048 85.3668C164.174 84.6276 164.262 83.881 164.314 83.1343C164.321 83.1343 164.343 83.1119 164.35 83.1119H164.534C165.359 83.5151 166.265 83.7541 167.157 83.9333C168.652 84.2245 170.25 84.4783 171.753 84.7695Z" fill="#211F20"/>
<path d="M158.771 59.4162C158.799 63.7348 159.064 68.0519 159.562 72.3415C159.906 75.3049 160.398 78.358 162.005 80.8593C163.584 83.318 166.255 85.0734 169.137 85.3399C172.02 85.6065 175.039 84.3043 176.702 81.9038C177.971 80.073 178.406 77.7928 178.712 75.5767C179.429 70.377 179.603 65.1004 179.229 59.8634C172.35 59.0122 165.694 59.1459 158.771 59.4162Z" fill="#FFB192"/>
<path d="M158.91 68.3499C159.171 68.6471 159.682 68.5672 159.961 68.2872C160.24 68.0065 160.343 67.5965 160.418 67.2053C160.677 65.8479 160.735 64.4509 160.59 63.0756C165.597 65.3775 171.735 65.0445 176.627 62.4984C176.519 64.7145 177.279 67.0515 178.605 68.8173C179.364 68.8061 179.836 68.1632 180.153 67.4636C181.227 65.1027 181.537 62.3916 181.025 59.8441C180.914 59.2885 180.739 58.7009 180.298 58.3537C179.856 58.0065 179.077 58.0685 178.872 58.5956C179.113 56.7955 178.328 54.8452 177.137 53.4878C175.946 52.1304 174.297 51.2411 172.571 50.7498C170.846 50.2585 169.037 50.1443 167.244 50.1525C165.451 50.1607 163.583 50.3108 162.035 51.2292C160.807 51.9572 159.858 53.1533 159.42 54.5242C158.981 55.895 159.057 57.4286 159.63 58.748C159.306 58.2283 158.478 58.1096 157.9 58.2947C157.322 58.4799 156.878 58.9779 156.636 59.5417C156.394 60.1046 156.331 60.7303 156.32 61.3448C156.28 63.8304 157.278 66.4952 158.91 68.3499Z" fill="black"/>
<path d="M183.627 71.8025C183.627 74.1574 181.743 76.0666 179.42 76.0666C177.097 76.0666 175.213 74.1574 175.213 71.8025C175.213 69.4475 177.097 67.5383 179.42 67.5383C181.743 67.5383 183.627 69.4475 183.627 71.8025Z" fill="#FFB192"/>
<path d="M163.931 71.5329C163.931 73.8879 162.047 75.7971 159.724 75.7971C157.401 75.7971 155.518 73.8879 155.518 71.5329C155.518 69.178 157.401 67.2688 159.724 67.2688C162.047 67.2688 163.931 69.178 163.931 71.5329Z" fill="#FFB192"/>
<path d="M168.229 69.6282C168.221 70.9035 167.929 72.1758 167.38 73.3234C167.077 73.1479 166.609 73.2039 166.369 73.4615C166.129 73.7191 166.058 74.1103 166.143 74.4538C166.227 74.7973 166.452 75.0944 166.727 75.3117C167.003 75.529 167.329 75.6731 167.659 75.7873" stroke="#231F20" stroke-width="0.4256" stroke-miterlimit="10" stroke-linecap="round" stroke-linejoin="round"/>
<path d="M171.843 70.6302C171.864 71.2066 172.22 71.662 172.639 71.6464C173.058 71.6307 173.381 71.1513 173.36 70.5742C173.339 69.9978 172.983 69.543 172.564 69.558C172.146 69.5737 171.823 70.0538 171.843 70.6302Z" fill="#231F20"/>
<path d="M164.559 70.9266C164.58 71.503 164.936 71.9585 165.355 71.9428C165.774 71.9271 166.096 71.4478 166.076 70.8706C166.055 70.2942 165.699 69.8387 165.28 69.8544C164.861 69.8701 164.538 70.3502 164.559 70.9266Z" fill="#231F20"/>
<path d="M169.77 78.7202C170.435 79.2458 171.374 79.3929 172.165 79.0943C172.956 78.7956 173.571 78.0624 173.735 77.2231" stroke="#231F20" stroke-width="0.4256" stroke-miterlimit="10" stroke-linecap="round" stroke-linejoin="round"/>
<path d="M170.251 67.7802C170.368 67.834 170.503 67.8198 170.631 67.8063C172.239 67.6368 173.875 67.7197 175.458 68.0527C175.498 67.648 175.298 67.2426 174.994 66.9768C174.689 66.7117 174.293 66.5736 173.895 66.5183C173.498 66.4638 173.094 66.487 172.692 66.5101C171.924 66.5549 171.139 66.5557 170.375 66.6468C170.137 66.6751 170.013 66.7513 169.983 67.0029C169.952 67.2635 169.976 67.654 170.251 67.7802Z" fill="#211F20"/>
<path d="M167.52 67.7705C167.407 67.8332 167.272 67.8287 167.143 67.825C165.526 67.7779 163.902 67.9847 162.347 68.4365C162.278 68.0355 162.447 67.6159 162.732 67.3284C163.015 67.041 163.4 66.873 163.793 66.7879C164.186 66.7035 164.59 66.696 164.991 66.6886C165.76 66.6751 166.543 66.6161 167.312 66.649C167.551 66.6594 167.681 66.7259 167.73 66.9745C167.78 67.2329 167.785 67.6241 167.52 67.7705Z" fill="#211F20"/>
<path d="M199.025 76.5287C199.025 83.5024 196.668 89.9162 192.712 95.0009C192.698 95.0158 192.683 95.0382 192.668 95.0531C187.284 101.967 178.938 106.402 169.561 106.402C160.185 106.402 151.839 101.967 146.454 95.0531C146.44 95.0382 146.425 95.0158 146.41 95.0009C142.455 89.9162 140.098 83.5024 140.098 76.5287C140.098 60.0351 153.283 46.6626 169.561 46.6626C185.84 46.6626 199.025 60.0351 199.025 76.5287Z" stroke="#211F20" stroke-miterlimit="10" stroke-linecap="round" stroke-linejoin="round"/>
<path d="M192.668 259.317C187.284 266.231 178.938 270.666 169.561 270.666C160.185 270.666 151.839 266.231 146.455 259.317L162.225 255.516H176.898L192.668 259.317Z" fill="black"/>
<path d="M164.161 239.107C164.598 241.039 164.929 243.158 164.047 244.927C163.299 246.429 161.806 247.393 160.307 248.114C158.807 248.834 157.209 249.401 155.902 250.438C154.595 251.475 153.607 253.144 153.93 254.793C152.544 253.075 151.765 250.865 151.763 248.646C151.762 246.426 152.537 244.214 153.919 242.494C154.724 241.493 155.721 240.659 156.491 239.63C157.261 238.6 157.8 237.274 157.48 236.023C159.759 236.822 162 238.021 164.161 239.107Z" fill="black"/>
<path d="M169.558 264.048C162.023 264.048 162.222 255.514 162.222 255.514C163.091 253.647 163.71 251.661 164.048 249.63C164.174 248.891 164.262 248.144 164.314 247.398C164.321 247.398 164.343 247.375 164.35 247.375H174.773C174.781 247.375 174.803 247.398 174.81 247.398C175.002 250.205 175.716 252.968 176.902 255.514C176.902 255.514 177.101 264.048 169.558 264.048Z" fill="#FFB192"/>
<path d="M171.753 249.033C171.377 249.556 170.714 249.772 170.088 249.907C168.092 250.325 165.993 250.235 164.048 249.63C164.174 248.891 164.262 248.144 164.314 247.398C164.321 247.398 164.343 247.375 164.35 247.375H164.534C165.359 247.779 166.265 248.018 167.157 248.197C168.652 248.488 170.25 248.742 171.753 249.033Z" fill="#211F20"/>
<path d="M158.771 223.68C158.799 227.998 159.064 232.315 159.562 236.605C159.906 239.568 160.398 242.622 162.005 245.123C163.584 247.582 166.255 249.337 169.137 249.603C172.02 249.87 175.039 248.568 176.702 246.167C177.971 244.337 178.406 242.056 178.712 239.84C179.429 234.641 179.603 229.364 179.229 224.127C172.35 223.276 165.694 223.409 158.771 223.68Z" fill="#FFB192"/>
<path d="M183.627 236.066C183.627 238.421 181.743 240.33 179.42 240.33C177.097 240.33 175.213 238.421 175.213 236.066C175.213 233.711 177.097 231.802 179.42 231.802C181.743 231.802 183.627 233.711 183.627 236.066Z" fill="#FFB192"/>
<path d="M163.931 235.796C163.931 238.151 162.047 240.061 159.724 240.061C157.401 240.061 155.518 238.151 155.518 235.796C155.518 233.441 157.401 231.532 159.724 231.532C162.047 231.532 163.931 233.441 163.931 235.796Z" fill="#FFB192"/>
<path d="M181.015 232.124C180.522 231.915 179.984 231.803 179.417 231.803C178.938 231.803 178.474 231.885 178.047 232.041C177.664 230.473 176.478 229.1 174.953 228.599C173.583 228.144 172.103 228.353 170.666 228.308C167.845 228.226 165.12 226.882 162.991 225.008C163.19 227.39 162.579 229.824 161.356 231.87C160.855 231.653 160.302 231.534 159.721 231.534C158.947 231.534 158.225 231.743 157.607 232.116C156.413 229.66 155.669 226.972 155.603 224.254C155.581 223.395 155.618 222.514 155.905 221.708C156.185 220.894 156.745 220.147 157.525 219.811C158.306 219.468 159.315 219.625 159.853 220.297C159.831 218.423 160.914 216.713 162.313 215.481C165.282 212.875 169.716 212.248 173.392 213.651C177.067 215.055 179.925 218.325 181.155 222.111C182.216 225.366 182.039 228.868 181.015 232.124Z" fill="black"/>
<path d="M168.637 233.948C168.628 235.223 168.337 236.495 167.789 237.643C167.485 237.467 167.018 237.523 166.778 237.781C166.538 238.039 166.467 238.43 166.551 238.773C166.636 239.117 166.861 239.414 167.136 239.631C167.412 239.848 167.737 239.993 168.068 240.107" stroke="#231F20" stroke-width="0.4256" stroke-miterlimit="10" stroke-linecap="round" stroke-linejoin="round"/>
<path d="M172.252 234.95C172.273 235.526 172.629 235.982 173.047 235.966C173.467 235.95 173.789 235.47 173.769 234.894C173.748 234.317 173.391 233.863 172.973 233.877C172.555 233.893 172.231 234.373 172.252 234.95Z" fill="#231F20"/>
<path d="M164.968 235.246C164.988 235.823 165.345 236.278 165.763 236.262C166.182 236.247 166.505 235.767 166.484 235.19C166.464 234.614 166.107 234.158 165.689 234.174C165.27 234.19 164.947 234.67 164.968 235.246Z" fill="#231F20"/>
<path d="M170.313 231.469C170.148 230.88 170.264 230.216 170.618 229.719C172.786 229.669 175.032 230.672 176.5 232.291C176.165 232.899 172.372 231.515 170.313 231.469Z" fill="#231F20"/>
<path d="M167.613 231.046C167.612 230.433 167.322 229.828 166.847 229.447C164.749 230 162.859 231.587 161.883 233.551C162.37 234.043 165.645 231.661 167.613 231.046Z" fill="#231F20"/>
<path d="M168.002 243.547C169.25 243.491 170.498 243.435 171.747 243.379" stroke="#231F20" stroke-width="0.4256" stroke-miterlimit="10" stroke-linecap="round" stroke-linejoin="round"/>
<path d="M199.025 240.792C199.025 247.766 196.668 254.18 192.712 259.264C192.698 259.279 192.683 259.302 192.668 259.317C187.284 266.231 178.938 270.666 169.561 270.666C160.185 270.666 151.839 266.231 146.454 259.317C146.44 259.302 146.425 259.279 146.41 259.264C142.455 254.18 140.098 247.766 140.098 240.792C140.098 224.299 153.283 210.926 169.561 210.926C185.84 210.926 199.025 224.299 199.025 240.792Z" stroke="#211F20" stroke-miterlimit="10" stroke-linecap="round" stroke-linejoin="round"/>
<path d="M105.972 374.244C105.972 374.244 108.258 377.07 107.66 380.147C107.061 383.223 104.187 384.963 99.3553 384.963C94.524 384.963 91.0583 383.415 88.2563 383.466C85.9825 383.506 83.2261 384.963 79.1137 384.963C75.0013 384.963 70.9295 383.182 70.9295 381.603C70.9295 380.025 70.8779 375.561 72.2207 374.596C73.565 373.631 105.972 374.244 105.972 374.244Z" fill="#211F20"/>
<path d="M85.2027 350.321C85.0186 353.337 84.223 356.772 84.0389 359.788C82.0943 361.588 79.089 362.357 76.6288 361.401C76.2679 359.37 75.6933 357.175 75.2735 355.002C75.1482 354.36 75.0378 353.726 74.9494 353.091C74.8315 352.232 74.7579 351.389 74.7505 350.567C77.719 350.075 82.2122 350.007 85.2027 350.321Z" fill="#FC916D"/>
<path d="M72.2215 374.595C71.728 369.824 71.9939 364.974 73.0045 360.287C73.1445 359.637 73.308 358.97 73.6954 358.433C74.0836 357.896 74.7524 357.514 75.3933 357.66C76.1004 357.822 76.5269 358.526 77.0381 359.046C78.3234 360.355 80.5642 360.544 82.0454 359.468C83.0531 358.736 83.8685 357.457 85.1075 357.498C85.7873 357.52 86.3913 357.97 86.8038 358.518C87.2163 359.066 87.4763 359.713 87.7879 360.325C88.7109 362.142 90.1214 363.701 91.8267 364.79C93.4965 365.856 95.405 366.462 97.2841 367.073C99.1631 367.684 101.066 368.324 102.697 369.45C104.329 370.575 105.683 372.265 105.972 374.244C104.495 376.375 102.392 378.043 99.9225 378.759C97.4535 379.475 94.7443 379.307 92.3798 378.29C90.8234 377.621 89.337 376.58 87.6465 376.567C86.3884 376.557 85.2076 377.126 84.0033 377.495C80.0648 378.703 75.2577 377.412 72.2215 374.595Z" fill="white"/>
<path d="M61.8688 374.244C61.8688 374.244 64.1552 377.07 63.5563 380.147C62.9575 383.222 60.0833 384.963 55.252 384.963C50.4214 384.963 46.955 383.415 44.1538 383.466C41.8799 383.506 39.1236 384.963 35.0112 384.963C30.8988 384.963 26.8269 383.182 26.8269 381.603C26.8269 380.025 26.7754 375.561 28.1182 374.596C29.4617 373.631 61.8688 374.244 61.8688 374.244Z" fill="#211F20"/>
<path d="M41.4638 350.567C41.2796 353.584 40.1158 356.772 39.9317 359.788C37.9944 361.588 34.9818 362.357 32.5216 361.401C32.1606 359.348 31.4977 357.324 31.0189 355.279C30.8495 354.554 30.7022 353.83 30.5991 353.091C30.5033 352.426 30.4444 351.754 30.437 351.082C33.4055 350.59 38.4732 350.254 41.4638 350.567Z" fill="#FC916D"/>
<path d="M84.547 353.091L75.2733 355.002C75.1481 354.36 75.0376 353.726 74.9492 353.091H84.547Z" fill="#211F20"/>
<path d="M40.3811 353.091L31.019 355.279C30.8496 354.554 30.7022 353.83 30.5991 353.091H40.3811Z" fill="#211F20"/>
<path d="M28.118 374.595C27.6245 369.824 27.8904 364.974 28.901 360.287C29.0409 359.637 29.2045 358.97 29.5919 358.433C29.9801 357.896 30.6489 357.514 31.2898 357.66C31.9969 357.822 32.4234 358.526 32.9346 359.046C34.2199 360.355 36.4606 360.544 37.9419 359.468C38.9496 358.736 39.765 357.457 41.0039 357.498C41.6838 357.52 42.2878 357.97 42.7003 358.518C43.1128 359.066 43.3728 359.713 43.6844 360.325C44.6073 362.142 46.0179 363.701 47.7231 364.79C49.393 365.856 51.3015 366.462 53.1805 367.073C55.0596 367.684 56.9622 368.324 58.5938 369.45C60.2253 370.575 61.5792 372.265 61.8686 374.244C60.3925 376.375 58.2881 378.043 55.819 378.759C53.35 379.475 50.6408 379.307 48.2763 378.29C46.7199 377.621 45.2334 376.58 43.543 376.567C42.2849 376.557 41.1041 377.126 39.8998 377.495C35.9612 378.703 31.1535 377.412 28.118 374.595Z" fill="white"/>
<path d="M43.6965 353.095H29.3197C28.3076 340.617 25.4194 328.355 24.4221 315.877C23.4247 303.399 24.0972 290.072 30.3885 279.299C26.1243 269.609 28.5514 258.162 25.5343 248.001C24.5981 244.847 23.1478 241.864 22.2727 238.692C20.8356 233.48 21.0058 227.918 21.9957 222.6C22.9857 217.282 24.7698 212.153 26.5479 207.05C31.1656 203.866 36.8845 202.419 42.4678 202.535C48.0512 202.652 53.5845 204.572 58.0681 207.947C58.1352 233.63 54.1112 256.97 51.3335 282.498C50.1976 292.949 46.8462 330.432 43.6965 353.095Z" fill="black"/>
<path d="M72.8306 353.095H86.5902C89.4415 329.094 95.6687 303.788 92.1743 279.874C88.4368 254.298 81.9378 229.138 72.8314 204.989C68.4199 205.962 63.9466 207.511 59.8452 209.424C55.7446 211.338 51.9504 214.173 49.5587 218.054C47.1663 221.935 46.3376 226.947 48.0391 231.186C55.064 248.681 61.1689 266.546 73.2763 280.905C69.158 285.444 66.9548 292.163 66.3523 298.299C65.7498 304.435 66.4525 310.618 67.1544 316.743C68.5149 328.616 71.4694 341.221 72.8306 353.095Z" fill="black"/>
<path d="M42.4413 154.72C37.504 155.276 28.0395 158.145 26.7387 159.344C25.4378 160.544 25.9697 174.271 28.1581 183.084C30.3465 191.897 26.3836 207.123 26.3836 207.123C33.8004 216.467 66.0823 217.344 74.1104 206.464C75.8811 200.938 69.2113 161.621 68.4931 157.252C65.8252 156.108 57.9819 155.209 57.9819 155.209L42.4413 154.72Z" fill="white"/>
<path d="M89.2589 202.132C90.3947 202.72 91.82 202.428 92.8895 201.724C93.959 201.02 94.7472 199.963 95.5051 198.923C103.374 188.126 110.191 176.408 116.501 164.606C118.844 163.969 120.929 162.215 121.723 159.892C122.517 157.568 122.025 154.602 120.12 153.08C121.659 150.962 123.197 148.843 124.737 146.724C125.066 146.271 125.399 145.636 125.058 145.192C124.862 144.936 124.499 144.864 124.187 144.931C123.874 144.999 123.6 145.181 123.334 145.362C120.859 147.045 118.424 148.82 116.172 150.799C115.015 151.815 114.163 153.148 113.523 154.558C112.883 155.967 112.442 157.459 112.005 158.946C103.499 165.993 96.6167 173.359 90.3615 182.513C88.2306 185.631 87.9426 191.227 87.6774 195.01C87.5036 197.495 87.0719 200.999 89.2589 202.132Z" fill="#FFB192"/>
<path d="M72.072 183.611C73.9333 187.573 76.5291 191.179 79.6839 194.184C79.2935 195.634 79.4607 197.275 80.2732 198.532C81.0856 199.79 82.4461 200.669 83.9134 200.885C83.8935 202.216 84.7089 203.411 85.9818 203.737C87.2546 204.064 88.7064 203.402 89.3119 202.222C88.375 196.111 88.5959 189.826 89.9719 183.802C90.2636 182.923 90.5435 182.13 90.4433 181.389C90.3439 180.649 90.0676 180.281 89.3966 179.969C88.7941 179.69 88.0862 179.703 87.4549 179.907C82.3474 171.542 75.8139 163.709 68.4929 157.252C67.483 166.112 68.2888 175.559 72.072 183.611Z" fill="white"/>
<path d="M37.0706 226.736C35.8943 228.913 34.4079 230.774 32.6165 232.466C20.2822 223.282 9.25914 212.113 0.658691 199.282C5.07898 195.665 11.7083 194.593 16.7768 197.195C19.304 198.492 20.859 200.923 22.3425 203.369C25.252 208.167 28.1608 212.963 31.0704 217.76C32.9295 220.825 35.2122 223.671 37.0706 226.736Z" fill="#FFB192"/>
<path d="M28.2403 183.439C24.5287 187.153 21.5919 189.882 17.5148 193.378C17.9192 193.779 18.3302 194.188 18.5836 194.701C18.8363 195.213 18.9062 195.854 18.6182 196.347C18.4363 196.659 18.1291 196.882 17.7991 197.021C17.4692 197.162 17.0633 197.286 16.7178 197.192C11.3444 195.747 5.47891 196.474 0.658656 199.282C-0.398353 198.888 -1.15999 197.791 -1.1703 196.649C-1.18062 195.508 -0.444024 194.386 0.604883 193.971C0.0244489 192.743 0.0760106 191.229 0.73747 190.043C1.39967 188.858 2.57674 187.887 3.91439 187.76C8.51735 176.066 16.5344 165.987 26.9749 159.167C27.6194 159.718 28.3847 160.448 28.7037 161.239C31.2618 167.579 33.0481 178.627 28.2403 183.439Z" fill="#F9F9F9"/>
<path d="M51.5945 163.774C47.7385 163.774 44.2463 159.577 42.4409 154.721C44.1903 152.026 45.7379 141.991 45.4749 137.478L55.9596 146.008C55.9537 146.129 55.9471 146.262 55.9471 146.408C55.9412 147.476 56.0848 148.976 56.4553 150.724C56.7249 151.957 57.449 153.792 57.9823 155.209C58.4765 159.1 55.4513 163.774 51.5945 163.774Z" fill="#FFB192"/>
<path d="M56.4548 150.724C52.5354 148.734 49.5006 145.01 48.353 140.72C50.5982 142.919 53.2381 144.769 55.9466 146.409C55.9407 147.476 56.0843 148.976 56.4548 150.724Z" fill="#211F20"/>
<path d="M46.943 123.81C49.8032 122.408 53.039 121.801 56.2049 122.076C59.3708 122.351 62.4549 123.729 65.0389 125.605C66.0112 130.836 66.3993 136.18 66.1916 141.5C66.1246 143.226 65.9522 145.066 64.893 146.419C64.1645 147.35 63.0751 147.948 61.9349 148.222C60.7946 148.497 59.6013 148.469 58.439 148.316C53.6092 147.673 48.3875 143.774 45.8094 139.584L45.7563 135.121C45.8271 134.081 45.8978 133.041 45.9685 132.002L46.943 123.81Z" fill="#FFB192"/>
<path d="M46.275 134.848C46.8503 134.438 47.1294 133.727 47.3364 133.046C47.9021 131.183 48.1599 129.225 48.0958 127.277C52.62 127.959 57.0867 128.582 61.655 128.358C63.1407 128.286 64.6331 128.14 66.0606 127.718C67.4881 127.296 68.8567 126.583 69.8916 125.5C70.9265 124.417 71.602 122.941 71.5585 121.435C71.5143 119.928 70.6856 118.425 69.3531 117.755C68.0206 117.085 66.2307 117.389 65.3085 118.572C65.2901 117.359 65.1155 116.114 64.5255 115.058C63.9355 114.002 62.8667 113.163 61.6705 113.115C60.6319 113.074 59.6331 113.63 58.9326 114.409C58.2321 115.187 57.7938 116.17 57.4461 117.163C57.1478 115.301 55.282 113.845 53.4295 114.029C51.5777 114.212 50.0257 116.008 50.089 117.893C49.4593 116.681 47.9338 116.092 46.619 116.41C45.3041 116.726 44.2501 117.835 43.8089 119.13C43.3677 120.424 43.4907 121.872 43.965 123.155C43.8936 122.292 42.687 121.762 41.8481 121.929C41.0091 122.095 40.369 122.838 40.092 123.658C39.8151 124.478 39.8416 125.369 39.913 126.232C40.3233 131.204 42.0823 135.944 43.8243 140.611C43.954 140.958 44.0976 141.325 44.393 141.543C44.7591 141.814 45.3196 141.767 45.6356 141.437C45.9516 141.107 45.9826 140.538 45.7041 140.175C45.8374 138.414 46.1424 136.609 46.275 134.848Z" fill="#211F20"/>
<path d="M49.1992 136.383C49.1992 138.698 47.3474 140.574 45.0639 140.574C42.7798 140.574 40.9287 138.697 40.9287 136.383C40.9287 134.067 42.7805 132.191 45.0639 132.191C47.3474 132.191 49.1992 134.067 49.1992 136.383Z" fill="#FFB192"/>
<path d="M60.2964 133.268C60.3443 134.395 60.6433 135.511 61.1641 136.507C61.4263 136.342 61.8417 136.376 62.062 136.595C62.2822 136.816 62.3581 137.158 62.294 137.465C62.2307 137.771 62.0406 138.041 61.8042 138.243C61.567 138.443 61.2841 138.581 60.9954 138.693" stroke="#231F20" stroke-width="0.4256" stroke-miterlimit="10" stroke-linecap="round" stroke-linejoin="round"/>
<path d="M57.1331 134.272C57.1331 134.782 56.8326 135.196 56.4621 135.196C56.0915 135.196 55.791 134.782 55.791 134.272C55.791 133.762 56.0915 133.347 56.4621 133.347C56.8326 133.348 57.1331 133.762 57.1331 134.272Z" fill="#231F20"/>
<path d="M63.5813 134.296C63.5813 134.807 63.2808 135.221 62.9103 135.221C62.5398 135.221 62.2393 134.807 62.2393 134.296C62.2393 133.786 62.5398 133.373 62.9103 133.373C63.2808 133.373 63.5813 133.786 63.5813 134.296Z" fill="#231F20"/>
<path d="M55.9917 131.744C56.6362 131.614 57.2977 131.615 57.9525 131.562C58.1639 131.545 58.3981 131.511 58.5315 131.344C58.6338 131.217 58.6515 131.043 58.6611 130.879C58.6744 130.663 58.6788 130.434 58.583 130.24C58.4585 129.987 58.1808 129.838 57.9031 129.807C57.6254 129.775 57.347 129.844 57.0811 129.932C56.251 130.204 55.4805 130.66 54.8389 131.259C54.5819 131.499 54.3417 131.767 54.1951 132.089C54.1487 132.191 54.1112 132.301 54.1156 132.414C54.1178 132.478 54.1465 132.635 54.2239 132.654C54.3012 132.673 54.3815 132.546 54.4294 132.5C54.5686 132.364 54.7255 132.248 54.892 132.15C55.2323 131.948 55.6094 131.821 55.9917 131.744Z" fill="#231F20"/>
<path d="M63.5363 131.672C62.8918 131.542 62.2304 131.542 61.5756 131.49C61.3641 131.473 61.1299 131.438 60.9966 131.272C60.8942 131.144 60.8765 130.97 60.8669 130.806C60.8537 130.589 60.8493 130.361 60.945 130.167C61.0695 129.914 61.3472 129.765 61.6249 129.734C61.9026 129.702 62.181 129.771 62.4469 129.858C63.2771 130.131 64.0475 130.587 64.6891 131.185C64.9462 131.425 65.1863 131.693 65.3329 132.015C65.3793 132.117 65.4169 132.227 65.4125 132.34C65.4102 132.404 65.3815 132.561 65.3042 132.58C65.2268 132.599 65.1465 132.472 65.0987 132.426C64.9594 132.29 64.8026 132.174 64.6361 132.076C64.295 131.876 63.9186 131.749 63.5363 131.672Z" fill="#231F20"/>
<path d="M56.896 139.144C57.7777 140.172 59.0984 140.798 60.4412 140.824C60.2902 141.309 59.8549 141.735 59.3827 141.909C58.9106 142.081 58.3603 142.018 57.9383 141.742C57.5449 141.485 57.2768 141.066 57.114 140.621C56.9512 140.176 56.9616 139.614 56.896 139.144Z" fill="#211F20"/>
<path d="M60.1278 156.172C59.8037 158.556 59.3506 160.97 58.2244 163.089C57.0981 165.208 55.1977 167.018 52.8694 167.493C50.0151 168.075 47.0643 166.538 45.1396 164.325C43.2149 162.11 42.1166 159.301 41.0552 156.553" stroke="#211F20" stroke-width="0.5" stroke-miterlimit="10" stroke-linecap="round" stroke-linejoin="round"/>
<path d="M28.3027 158.865C32.4181 166.217 32.5057 175.722 28.5259 183.15" stroke="#211F20" stroke-width="0.5" stroke-miterlimit="10" stroke-linecap="round" stroke-linejoin="round"/>
<path d="M15.4132 194.696C10.7388 193.531 5.85665 193.227 1.07617 193.803" stroke="#211F20" stroke-width="0.5" stroke-miterlimit="10" stroke-linecap="round" stroke-linejoin="round"/>
<path d="M16.8081 192.936C13.0463 190.422 8.77998 188.687 4.34717 187.87" stroke="#211F20" stroke-width="0.5" stroke-miterlimit="10" stroke-linecap="round" stroke-linejoin="round"/>
<path d="M36.4399 204.32C45.9759 206.326 55.9199 206.318 65.4521 204.296" stroke="#211F20" stroke-width="0.5" stroke-miterlimit="10" stroke-linecap="round" stroke-linejoin="round"/>
<path d="M35.6509 194.057C42.8879 199.245 51.7086 202.129 60.572 202.203" stroke="#211F20" stroke-width="0.5" stroke-miterlimit="10" stroke-linecap="round" stroke-linejoin="round"/>
<path d="M68.6416 157.258C71.4929 165.978 72.9507 175.164 72.9418 184.35" stroke="#211F20" stroke-width="0.5" stroke-miterlimit="10" stroke-linecap="round" stroke-linejoin="round"/>
<path d="M86.5375 187.274C85.1498 191.456 84.2954 195.819 84.0029 200.221" stroke="#211F20" stroke-width="0.5" stroke-miterlimit="10" stroke-linecap="round" stroke-linejoin="round"/>
<path d="M87.1479 180.007C83.8767 183.971 81.4268 188.628 80.0029 193.591" stroke="#211F20" stroke-width="0.5" stroke-miterlimit="10" stroke-linecap="round" stroke-linejoin="round"/>
<path d="M40.1759 219.003C39.0143 225.576 34.0283 231.616 30.5 235.027" stroke="#211F20" stroke-width="0.5" stroke-miterlimit="10" stroke-linecap="round" stroke-linejoin="round"/>
<path d="M32.1311 233.357C30.0547 248.484 31.2789 263.817 34.8108 278.665C30.353 290.18 29.086 302.761 29.5361 315.123C29.9869 327.485 32.1024 339.714 34.2142 351.897" stroke="#211F20" stroke-width="0.5" stroke-miterlimit="10" stroke-linecap="round" stroke-linejoin="round"/>
<path d="M74.3783 211.202C61.7472 219.317 45.5886 221.541 31.2803 217.133" stroke="#211F20" stroke-width="0.5" stroke-miterlimit="10" stroke-linecap="round" stroke-linejoin="round"/>
<path d="M55.3071 249.365C56.6558 237.733 57.2326 226.321 55.8463 214.693" stroke="#211F20" stroke-width="0.5" stroke-miterlimit="10" stroke-linecap="round" stroke-linejoin="round"/>
<path d="M60.7408 213.966C61.3234 217.953 61.5717 221.99 61.4826 226.019C61.4428 227.823 61.3065 229.719 60.3342 231.231C59.5637 232.429 58.3329 233.262 57.0218 233.79C55.7106 234.318 54.3096 234.567 52.9204 234.814" stroke="#211F20" stroke-width="0.5" stroke-miterlimit="10" stroke-linecap="round" stroke-linejoin="round"/>
<path d="M41.8921 279.863C44.1674 280.573 46.6151 280.71 48.9538 280.26" stroke="#211F20" stroke-width="0.5" stroke-miterlimit="10" stroke-linecap="round" stroke-linejoin="round"/>
<path d="M85.1338 279.983C87.2515 280.397 89.4591 280.333 91.5502 279.795" stroke="#211F20" stroke-width="0.5" stroke-miterlimit="10" stroke-linecap="round" stroke-linejoin="round"/>
<path d="M77.7013 280.808C73.0453 286.745 70.9387 294.404 70.4599 301.972C69.9818 309.54 71.0175 317.114 72.0509 324.625C73.295 333.666 74.5391 342.707 75.7825 351.749" stroke="#211F20" stroke-width="0.5" stroke-miterlimit="10" stroke-linecap="round" stroke-linejoin="round"/>
<path d="M30.2134 350.183C34.3884 350.188 38.5626 350.241 42.7377 350.246V350.362" stroke="#211F20" stroke-width="0.5" stroke-miterlimit="10" stroke-linecap="round" stroke-linejoin="round"/>
<path d="M73.48 350.362H86.1516" stroke="#211F20" stroke-width="0.5" stroke-miterlimit="10" stroke-linecap="round" stroke-linejoin="round"/>
<path d="M89.2257 363.042C91.5496 359.046 93.0015 354.531 93.4471 349.914C93.4832 349.54 93.5119 349.156 93.4132 348.794C93.3145 348.432 93.0619 348.091 92.7046 347.991C92.0734 347.814 91.5106 348.419 91.1541 348.976C89.9755 350.819 89.1741 352.901 88.7764 355.057C88.4257 356.95 88.3477 358.965 88.6791 360.867C88.794 361.529 88.4 363.024 89.2257 363.042ZM89.2257 363.042C89.9954 358.247 92.2361 353.705 95.5582 350.203C96.0053 349.732 96.6557 349.243 97.2339 349.532C97.5595 349.694 97.7385 350.072 97.7643 350.438C97.79 350.805 97.6869 351.167 97.5772 351.517C96.4693 355.051 94.5174 358.306 91.9555 360.951C91.4796 361.442 89.9696 363.059 89.2257 363.042Z" stroke="#211F20" stroke-width="0.5" stroke-miterlimit="10" stroke-linecap="round" stroke-linejoin="round"/>
<path d="M45.6305 363.672C47.9544 359.675 49.4062 355.161 49.8519 350.543C49.888 350.169 49.9167 349.786 49.818 349.423C49.7193 349.061 49.4666 348.72 49.1094 348.62C48.4781 348.444 47.9154 349.049 47.5589 349.606C46.3811 351.448 45.5797 353.531 45.1804 355.686C44.8305 357.579 44.7517 359.594 45.0832 361.497C45.1988 362.158 44.8048 363.654 45.6305 363.672ZM45.6305 363.672C46.4002 358.876 48.6409 354.334 51.963 350.832C52.4101 350.361 53.0605 349.873 53.6387 350.162C53.9643 350.324 54.1433 350.701 54.169 351.068C54.1948 351.434 54.0917 351.796 53.982 352.146C52.8741 355.68 50.9221 358.935 48.3603 361.58C47.8844 362.072 46.3744 363.688 45.6305 363.672Z" stroke="#211F20" stroke-width="0.5" stroke-miterlimit="10" stroke-linecap="round" stroke-linejoin="round"/>
<path d="M76.7249 378.352C76.1783 376.401 76.0671 374.285 76.6925 372.36C77.3186 370.434 78.7424 368.73 80.6244 368.044C82.4637 367.374 84.5549 367.726 86.2954 368.625C88.0367 369.524 89.4746 370.925 90.7769 372.402C92.843 374.745 94.6381 377.333 96.1149 380.096" stroke="#211F20" stroke-width="0.5" stroke-miterlimit="10" stroke-linecap="round" stroke-linejoin="round"/>
<path d="M31.9954 378.352C31.4489 376.401 31.3376 374.285 31.963 372.36C32.5891 370.434 34.0129 368.73 35.8949 368.044C37.7342 367.374 39.8254 367.726 41.5659 368.625C43.3072 369.524 44.7451 370.925 46.0474 372.402C48.1135 374.745 49.9093 377.333 51.3854 380.096" stroke="#211F20" stroke-width="0.5" stroke-miterlimit="10" stroke-linecap="round" stroke-linejoin="round"/>
<path d="M328.085 374.244C328.085 374.244 325.799 377.071 326.398 380.147C326.997 383.222 329.871 384.963 334.701 384.963C339.532 384.963 342.999 383.416 345.8 383.466C348.074 383.506 350.831 384.963 354.943 384.963C359.055 384.963 363.127 383.182 363.127 381.603C363.127 380.025 363.179 375.561 361.836 374.596C360.492 373.631 328.085 374.244 328.085 374.244Z" fill="#211F20"/>
<path d="M359.188 350.567C359.181 351.359 359.114 352.173 359.011 353.001C358.672 355.809 357.899 358.743 357.427 361.401C354.975 362.357 351.962 361.588 350.017 359.788C349.929 358.303 349.627 356.712 349.325 355.122C349.133 354.144 348.942 353.158 348.802 352.202C348.706 351.56 348.633 350.933 348.596 350.321C351.579 350.007 356.219 350.075 359.188 350.567Z" fill="#FFB192"/>
<path d="M361.835 374.595C362.329 369.824 362.063 364.974 361.052 360.287C360.912 359.637 360.749 358.97 360.361 358.433C359.973 357.896 359.304 357.514 358.664 357.661C357.956 357.822 357.53 358.526 357.019 359.046C355.733 360.355 353.493 360.544 352.011 359.468C351.004 358.736 350.188 357.457 348.949 357.498C348.27 357.52 347.666 357.97 347.253 358.518C346.841 359.066 346.581 359.713 346.269 360.325C345.346 362.142 343.935 363.701 342.23 364.79C340.56 365.857 338.652 366.462 336.773 367.073C334.894 367.684 332.991 368.324 331.36 369.45C329.728 370.576 328.374 372.265 328.085 374.244C329.562 376.375 331.666 378.043 334.135 378.759C336.604 379.475 339.313 379.307 341.678 378.291C343.234 377.622 344.721 376.58 346.411 376.567C347.669 376.558 348.85 377.126 350.054 377.495C353.993 378.703 358.8 377.412 361.835 374.595Z" fill="white"/>
<path d="M359.011 353.001L349.325 355.122C349.133 354.144 348.942 353.158 348.802 352.203L359.011 353.001Z" fill="#211F20"/>
<path d="M482.418 268.676C482.418 268.676 486.006 269.037 488.198 266.827C490.391 264.616 490.226 261.226 487.547 257.151C484.868 253.077 481.675 251.01 480.162 248.62C478.934 246.68 478.601 243.547 476.321 240.078C474.04 236.61 470.321 234.163 469.025 235.038C467.729 235.913 464.035 238.345 463.989 240.014C463.941 241.682 482.418 268.676 482.418 268.676Z" fill="#211F20"/>
<path d="M458.385 258.191C457.611 258.789 456.853 259.498 456.101 260.237C455.578 260.76 455.063 261.29 454.547 261.828C453.509 262.873 452.477 263.903 451.409 264.725C449.494 262.38 447.181 258.199 445.944 255.421C448.839 253.51 452.433 252.442 455.601 251.046C457.751 252.592 458.783 255.556 458.385 258.191Z" fill="#FFB192"/>
<path d="M456.101 260.237C455.578 260.76 455.063 261.29 454.547 261.828L454.51 261.85L450.113 254.137L456.101 260.237Z" fill="#211F20"/>
<path d="M463.988 240.013C459.798 242.243 455.963 245.157 452.677 248.609C452.221 249.088 451.765 249.595 451.538 250.22C451.312 250.845 451.37 251.622 451.846 252.081C452.371 252.588 453.184 252.557 453.895 252.7C455.682 253.058 457.08 254.843 457.019 256.689C456.977 257.945 456.379 259.342 457.099 260.365C457.494 260.926 458.199 261.186 458.878 261.23C459.556 261.274 460.232 261.135 460.907 261.057C462.91 260.828 464.972 261.153 466.812 261.987C468.614 262.804 470.169 264.079 471.713 265.325C473.257 266.572 474.838 267.82 476.666 268.572C478.495 269.324 480.633 269.529 482.418 268.675C483.347 266.249 483.551 263.549 482.769 261.068C481.988 258.589 480.346 256.397 478.202 254.966C476.789 254.024 475.11 253.348 474.162 251.929C473.456 250.874 473.269 249.562 472.904 248.342C471.71 244.35 467.984 241.012 463.988 240.013Z" fill="white"/>
<path d="M455.453 263.508C441.443 276.611 424.516 286.572 406.455 292.769C403.516 293.777 400.481 294.688 397.373 294.613C394.272 294.539 391.053 293.322 389.219 290.783C387.208 287.998 387.208 284.257 387.355 280.808C388.379 256.571 392.394 232.462 399.281 209.226C408.289 206.083 419.095 205.523 428.597 206.225C432.486 212.205 434.188 219.612 433.297 226.713C432.413 233.813 428.943 240.556 423.706 245.364C419.375 249.344 418.963 256.422 416.569 261.828C417.961 261.372 419.353 260.917 420.752 260.469C430.034 257.467 439.374 254.57 448.632 251.531L455.453 263.508Z" fill="black"/>
<path d="M406.448 218.888C402.831 231.163 397.027 242.28 392.379 254.197C391.325 256.9 390.11 259.521 388.747 262.052V262.059C387.687 264.038 386.53 265.964 385.293 267.831V267.838C381.057 274.222 375.828 279.927 369.824 284.757C372.771 288.558 373.846 293.568 373.736 298.399C373.625 303.23 372.432 307.956 371.246 312.63C367.843 326.025 364.366 339.606 360.963 353.001H345.76C344.648 327.317 342.482 300.228 351.638 276.246C361.066 251.531 372.8 227.721 386.626 205.224C389.963 204.231 395.119 203.775 398.581 204.044C402.043 204.313 405.608 206.15 406.963 209.398C408.201 212.377 407.361 215.782 406.448 218.888Z" fill="black"/>
<path d="M386.376 182.16C383.348 184.631 379.069 187.252 375.327 189.798C374.214 190.56 373.146 191.314 372.181 192.053C371.828 192.322 371.489 192.591 371.165 192.852C370.001 193.808 368.786 194.786 367.335 195.174C365.169 195.756 362.9 194.928 360.823 194.076C349.413 189.402 338.652 183.519 328.244 176.874C326.093 177.605 323.544 176.948 321.997 175.261C320.443 173.581 319.905 170.863 320.775 168.735C318.211 167.63 316.002 165.711 314.528 163.322C320.281 164.203 325.879 166.077 331.013 168.84C337.164 172.155 344.544 172.58 351.314 174.268C353.862 174.902 356.418 175.537 358.82 176.582C361.228 177.635 363.497 179.121 365.117 181.204C367.813 177.732 375.665 169.818 379.172 167.19C383.628 169.833 384.298 177.366 386.376 182.16Z" fill="#FFB192"/>
<path d="M398.264 156.208C395.406 156.771 393.34 156.815 390.482 157.377C387.687 161.661 386.124 164.042 384.034 168.721C382.3 172.603 380.806 177.033 382.233 181.042C383.172 183.682 385.263 185.747 386.372 188.317C387.581 191.119 387.536 194.309 387.175 197.346C386.813 200.383 385.922 203.222 385.978 206.28C393.184 211.977 419.568 214.205 428.864 206.316C428.864 206.316 426.846 201.056 426.486 189.662C426.126 178.268 432.471 166.918 430.597 161.249C428.724 155.58 420.145 156.574 414.211 155.976L398.264 156.208Z" fill="white"/>
<path d="M396.542 122.876C393.9 127.828 391.808 133.082 390.32 138.506C390.053 139.478 389.264 143.772 389.305 144.779C389.345 145.787 389.715 146.825 390.492 147.455C391.269 148.086 392.493 148.184 393.239 147.516C393.273 148.759 393.91 149.971 394.908 150.694C395.906 151.416 397.243 151.634 398.415 151.264C399.161 152.757 401.139 151.567 402.775 151.783C404.412 152 406.201 150.317 407.3 149.068C408.556 150.453 409.976 153.077 411.829 153.188C413.681 153.3 415.567 152.656 416.976 151.432C418.371 151.841 419.812 152.186 421.26 152.085C422.708 151.984 424.182 151.378 425.046 150.196C426.022 148.861 426.449 145.307 426.348 143.648C426.097 139.545 424.781 133.132 423.22 129.336C421 128.396 418.634 130.071 416.388 129.47C411.455 128.147 406.971 125.479 402.263 123.482C401.35 123.095 400.426 122.705 399.448 122.552C398.469 122.4 397.012 121.994 396.542 122.876Z" fill="#211F20"/>
<path d="M403.617 163.233C407.412 163.928 411.584 160.428 414.213 155.975C412.964 153.008 413.201 142.853 414.253 138.46L402.439 144.964C402.424 145.084 402.407 145.216 402.381 145.36C402.2 146.412 401.794 147.862 401.124 149.516C400.642 150.68 399.037 154.909 398.265 156.208C397.094 159.947 399.822 162.538 403.617 163.233Z" fill="#FFB192"/>
<path d="M401.124 149.516C405.33 148.264 408.97 145.146 410.851 141.131C408.256 142.89 405.334 144.234 402.381 145.36C402.199 146.412 401.794 147.862 401.124 149.516Z" fill="#211F20"/>
<path d="M414.674 124.689C412.007 122.938 408.87 121.931 405.695 121.806C402.521 121.682 399.291 122.663 396.499 124.2C394.895 129.27 393.858 134.524 393.415 139.829C393.271 141.55 393.218 143.397 394.103 144.873C394.712 145.888 395.721 146.617 396.818 147.033C397.916 147.449 399.104 147.571 400.276 147.564C405.147 147.532 410.804 144.317 413.874 140.483L414.471 136.061C414.528 135.02 414.585 133.98 414.641 132.939L414.674 124.689Z" fill="#FFB192"/>
<path d="M410.78 136.711C410.374 138.989 411.867 141.17 414.114 141.582C416.361 141.993 418.513 140.48 418.919 138.202C419.325 135.924 417.832 133.743 415.585 133.332C413.338 132.92 411.186 134.433 410.78 136.711Z" fill="#FFB192"/>
<path d="M400.406 131.646C400.162 132.746 399.672 133.79 398.985 134.677C398.756 134.467 398.341 134.426 398.085 134.603C397.83 134.78 397.696 135.104 397.705 135.416C397.713 135.729 397.853 136.029 398.051 136.27C398.249 136.51 398.503 136.697 398.767 136.859" stroke="#231F20" stroke-width="0.4256" stroke-miterlimit="10" stroke-linecap="round" stroke-linejoin="round"/>
<path d="M403.343 133.204C403.253 133.707 403.476 134.167 403.841 134.235C404.206 134.302 404.574 133.949 404.664 133.446C404.754 132.944 404.531 132.483 404.165 132.416C403.801 132.349 403.433 132.702 403.343 133.204Z" fill="#231F20"/>
<path d="M396.994 132.065C396.904 132.568 397.127 133.029 397.492 133.096C397.857 133.163 398.225 132.81 398.315 132.307C398.405 131.805 398.182 131.344 397.816 131.277C397.451 131.211 397.083 131.563 396.994 132.065Z" fill="#231F20"/>
<path d="M404.909 130.922C404.298 130.678 403.647 130.559 403.011 130.389C402.806 130.335 402.582 130.259 402.479 130.07C402.401 129.927 402.415 129.752 402.433 129.589C402.458 129.373 402.493 129.148 402.622 128.974C402.789 128.747 403.088 128.651 403.366 128.67C403.645 128.688 403.907 128.807 404.153 128.941C404.922 129.358 405.6 129.946 406.126 130.651C406.337 130.934 406.526 131.24 406.614 131.583C406.642 131.692 406.659 131.807 406.635 131.918C406.622 131.98 406.566 132.13 406.487 132.133C406.407 132.137 406.35 132 406.311 131.945C406.198 131.786 406.064 131.643 405.917 131.516C405.621 131.26 405.273 131.067 404.909 130.922Z" fill="#231F20"/>
<path d="M397.498 129.491C398.155 129.479 398.806 129.599 399.46 129.665C399.671 129.687 399.907 129.695 400.069 129.555C400.192 129.448 400.24 129.279 400.278 129.12C400.329 128.909 400.374 128.685 400.313 128.477C400.235 128.205 399.988 128.009 399.72 127.928C399.453 127.848 399.166 127.865 398.889 127.903C398.025 128.022 397.186 128.331 396.45 128.805C396.155 128.995 395.872 129.215 395.671 129.505C395.607 129.598 395.552 129.699 395.536 129.811C395.527 129.876 395.527 130.035 395.601 130.067C395.673 130.099 395.774 129.99 395.83 129.952C395.99 129.844 396.165 129.758 396.347 129.691C396.715 129.555 397.108 129.498 397.498 129.491Z" fill="#231F20"/>
<path d="M413.394 147.42C413.387 147.405 413.387 147.391 413.38 147.376C413.409 145.352 413.542 143.284 413.748 141.499C413.866 141.529 413.991 141.559 414.116 141.582C416.363 141.992 418.514 140.477 418.919 138.199C419.324 135.922 417.836 133.742 415.582 133.331C414.212 133.077 412.879 133.548 411.958 134.466C412.039 132.465 412.253 130.479 412.614 128.515C411.907 128.806 411.104 128.687 410.448 128.291C409.785 127.895 409.247 127.164 409.152 126.387C408.113 126.768 407.06 127.156 405.955 127.231C404.85 127.306 403.981 126.91 403.178 126.133C402.404 126.619 401.447 126.79 400.563 126.604C399.672 126.417 398.906 125.715 398.383 124.961C397.904 125.581 396.961 125.708 396.269 125.349C395.576 124.991 395.134 124.237 395.024 123.453C394.913 122.676 395.083 121.877 395.37 121.146C396.431 118.458 398.972 116.569 401.719 115.8C404.467 115.023 407.399 115.255 410.19 115.867C411.612 116.18 413.004 116.584 414.404 116.994C415.148 117.211 415.914 117.435 416.532 117.905C417.151 118.368 417.681 119.025 417.571 119.802C418.779 119.847 419.869 120.638 420.561 121.646C421.261 122.646 423.773 129.791 424.195 132.134C425.401 138.826 414.573 147.525 413.394 147.42Z" fill="#211F20"/>
<path d="M402.619 140.999C403.452 140.899 404.24 140.468 404.781 139.819C404.979 139.581 405.151 139.265 405.053 138.97C404.928 138.593 404.414 138.487 404.061 138.661C403.708 138.834 403.484 139.189 403.278 139.526C403.291 139.504 401.797 139.363 401.644 139.377C401.247 139.414 400.662 139.473 400.511 139.926C400.166 140.963 402.041 141.069 402.619 140.999Z" fill="white"/>
<path d="M375.326 189.798C374.214 190.56 373.146 191.314 372.181 192.053L364.41 185.916L375.326 189.798Z" fill="#211F20"/>
<path d="M390.581 157.464C384.897 159.297 379.828 163.036 376.359 167.953C375.647 167.623 374.687 167.864 374.149 168.44C373.612 169.017 373.487 169.948 373.852 170.649C373.118 170.482 371.994 170.83 371.616 171.489C371.239 172.149 371.334 173.052 371.841 173.615C375.228 177.38 379.12 180.97 384.027 182.075C388.512 174.665 390.654 166.158 390.581 157.464Z" fill="white"/>
<path d="M414.288 187.396C412.74 182.588 410.599 177.894 408.067 173.536C402.823 175.783 398.402 179.976 395.503 184.943C394.516 183.116 392.764 181.81 390.875 180.99C388.985 180.169 386.945 179.783 384.924 179.404C376.68 177.855 368.385 176.237 360.141 174.689C358.831 172.712 356.535 171.168 354.501 169.977C351.658 168.311 349.007 166.932 346.164 165.266C345.865 165.091 345.486 164.915 345.195 165.103C344.821 165.345 344.95 165.925 345.14 166.332C346.27 168.75 348.003 170.876 350.134 172.455C348.772 174.955 349.301 178.393 351.228 180.475C352.751 182.12 354.955 182.888 357.066 183.598C367.626 187.149 377.665 192.227 388.039 196.304C391.047 197.486 394.152 198.686 397.378 198.608C400.706 198.527 403.887 197.07 406.571 195.073C409.255 193.077 412.057 189.9 414.288 187.396Z" fill="#FFB192"/>
<path d="M410.111 170.191C409.379 170.093 408.611 170.311 408.035 170.779C407.459 171.248 407.07 171.937 407.004 172.683C406.157 172.397 405.176 172.553 404.455 173.089C403.735 173.625 403.294 174.527 403.309 175.433C407.981 179.332 411.15 185.101 411.954 191.181C412.817 191.485 413.904 191.436 414.756 191.103C415.609 190.77 416.339 190.122 416.778 189.31C418.036 189.02 419.239 187.817 419.553 186.549C420.385 183.192 419.608 179.628 417.917 176.621C416.227 173.614 413.497 170.643 410.111 170.191Z" fill="white"/>
<path d="M420.752 260.469C419.662 264.351 417.401 267.749 414.314 270.34C415.434 267.652 416.215 264.732 416.568 261.828C417.961 261.372 419.353 260.917 420.752 260.469Z" fill="#211F20"/>
<path d="M398.639 210.63C393.051 227.476 390.582 243.691 388.747 262.059" stroke="#211F20" stroke-width="0.5" stroke-miterlimit="10" stroke-linecap="round" stroke-linejoin="round"/>
<path d="M417.392 211.63C419.042 213.084 419.372 215.622 418.844 217.772C418.315 219.923 417.085 221.812 416.006 223.74C414.927 225.668 413.96 227.778 414.046 229.993C414.122 231.927 415 233.773 414.978 235.708C414.917 241.203 407.987 244.563 407.604 250.045C407.331 253.965 410.583 257.549 410.07 261.445C409.722 264.095 407.727 266.158 406.423 268.481C404.128 272.571 404.03 277.843 406.175 282.016C405.924 280.403 407.682 278.896 409.137 278.193C410.592 277.49 412.255 277.433 413.865 277.344C415.473 277.254 417.15 277.097 418.518 276.233C420.77 274.811 421.776 271.735 424.238 270.736C427.105 269.572 430.738 271.754 433.306 270.016C434.554 269.172 435.208 267.564 436.562 266.909C437.839 266.292 439.346 266.7 440.757 266.595C442.463 266.468 444.014 265.586 445.499 264.724C447.808 263.384 450.118 262.045 452.428 260.705" stroke="#211F20" stroke-width="0.5" stroke-miterlimit="10" stroke-linecap="round" stroke-linejoin="round"/>
<path d="M444.875 253.977C448.032 257.139 450.473 261.032 451.956 265.273" stroke="#211F20" stroke-width="0.5" stroke-miterlimit="10" stroke-linecap="round" stroke-linejoin="round"/>
<path d="M346.357 349.167C350.946 350.165 355.644 350.649 360.337 350.608" stroke="#211F20" stroke-width="0.5" stroke-miterlimit="10" stroke-linecap="round" stroke-linejoin="round"/>
<path d="M358.044 352.647C357.921 350.133 357.799 347.619 357.676 345.105C357.551 342.545 357.434 339.919 358.214 337.482C359.57 333.246 363.556 329.738 363.153 325.303C362.938 322.932 361.44 320.732 361.682 318.364C362.073 314.549 366.707 312.287 367.123 308.474C367.397 305.95 365.701 303.601 365.608 301.064C365.527 298.84 366.675 296.779 367.138 294.604C367.895 291.052 366.67 287.136 364.033 284.675C365.74 285.2 367.703 283.503 368.524 281.898C369.346 280.293 369.472 278.432 369.825 276.659C370.179 274.887 370.88 273.024 372.407 272.088C374.224 270.976 376.881 271.383 378.223 269.715C379.48 268.154 378.747 265.854 378.885 263.843C379.132 260.266 382.87 257.37 386.34 258.068" stroke="#211F20" stroke-width="0.5" stroke-miterlimit="10" stroke-linecap="round" stroke-linejoin="round"/>
<path d="M383.729 210.608C390.824 213.911 398.663 215.437 406.47 215.508C414.277 215.58 422.059 214.222 429.542 211.963" stroke="#211F20" stroke-width="0.5" stroke-miterlimit="10" stroke-linecap="round" stroke-linejoin="round"/>
<path d="M394.758 211.017C393.813 214.874 392.868 218.731 391.923 222.588C391.615 223.843 391.306 225.151 391.571 226.416C391.835 227.682 392.856 228.885 394.132 228.892" stroke="#211F20" stroke-width="0.5" stroke-miterlimit="10" stroke-linecap="round" stroke-linejoin="round"/>
<path d="M407.135 172.809C410.396 175.064 413.052 178.208 414.747 181.821" stroke="#211F20" stroke-width="0.5" stroke-miterlimit="10" stroke-linecap="round" stroke-linejoin="round"/>
<path d="M409.504 170.125C411.426 167.792 413.353 165.456 415.522 163.358C417.69 161.26 420.115 159.397 422.846 158.143" stroke="#211F20" stroke-width="0.5" stroke-miterlimit="10" stroke-linecap="round" stroke-linejoin="round"/>
<path d="M426.431 178.824C424.639 181.993 422.27 184.825 419.479 187.136" stroke="#211F20" stroke-width="0.5" stroke-miterlimit="10" stroke-linecap="round" stroke-linejoin="round"/>
<path d="M374.041 170.718C376.602 172.828 378.726 175.482 380.235 178.458" stroke="#211F20" stroke-width="0.5" stroke-miterlimit="10" stroke-linecap="round" stroke-linejoin="round"/>
<path d="M389.955 158.229C388.459 160.891 386.962 163.552 385.465 166.214C384.377 168.147 383.285 170.092 382.511 172.175C381.738 174.258 381.29 176.506 381.541 178.717" stroke="#211F20" stroke-width="0.5" stroke-miterlimit="10" stroke-linecap="round" stroke-linejoin="round"/>
<path d="M376.502 168.047C378.023 169.209 379.368 170.606 380.475 172.176" stroke="#211F20" stroke-width="0.5" stroke-miterlimit="10" stroke-linecap="round" stroke-linejoin="round"/>
<path d="M392.414 201.435C399.49 203.664 407.367 203.165 414.114 200.062" stroke="#211F20" stroke-width="0.5" stroke-miterlimit="10" stroke-linecap="round" stroke-linejoin="round"/>
<path d="M458.061 264.984C457.308 265.837 456.613 266.761 456.15 267.806C455.687 268.851 455.468 270.032 455.686 271.156C455.813 271.812 456.177 272.516 456.822 272.659C457.217 272.747 457.635 272.594 457.956 272.345C458.277 272.095 458.517 271.756 458.746 271.418C460.656 268.6 462.135 265.485 463.119 262.214C463.243 261.799 463.328 261.268 462.992 261C461.928 264.743 462.245 268.871 463.868 272.401C464.026 272.745 464.244 273.122 464.612 273.197C464.91 273.257 465.218 273.083 465.402 272.838C465.586 272.592 465.67 272.286 465.74 271.986C466.29 269.616 466.157 267.098 465.418 264.785C465.05 263.632 464.534 262.513 463.863 261.509C463.582 261.087 463.326 260.716 462.795 260.947C462.24 261.189 461.704 261.673 461.224 262.039C460.079 262.913 459.017 263.9 458.061 264.984Z" stroke="#211F20" stroke-width="0.5" stroke-miterlimit="10" stroke-linecap="round" stroke-linejoin="round"/>
<path d="M340.743 348.949C340.446 348.467 340.123 347.98 339.658 347.662C339.193 347.344 338.549 347.23 338.071 347.527C337.608 347.814 337.411 348.414 337.447 348.962C337.485 349.51 337.716 350.023 337.943 350.523C339.259 353.411 340.574 356.3 341.89 359.189C342.542 360.622 343.382 362.219 344.896 362.594C343.488 358.439 340.744 354.761 337.184 352.257C336.729 351.937 336.149 351.625 335.649 351.866C335.294 352.038 335.102 352.455 335.091 352.854C335.079 353.252 335.216 353.639 335.367 354.008C336.625 357.106 338.994 359.707 341.893 361.303C342.538 361.658 343.468 362.26 344.217 362.294C345.23 362.341 345.01 361.58 344.908 360.785C344.657 358.825 344.212 356.891 343.582 355.02C342.866 352.895 341.914 350.853 340.743 348.949Z" stroke="#211F20" stroke-width="0.5" stroke-miterlimit="10" stroke-linecap="round" stroke-linejoin="round"/>
</g>
<defs>
<clipPath id="clip0_56_302">
<rect width="500" height="385" fill="white"/>
</clipPath>
</defs>
</svg>
