<svg width="935" height="758" viewBox="0 0 935 758" fill="none" xmlns="http://www.w3.org/2000/svg">
<path d="M325.798 180.073L310.665 160.518L295.531 180.073H302.652V205.386H318.677V180.073H325.798Z" fill="#03CEA4"/>
<path d="M267.507 184.069C267.507 172.425 272.132 161.258 280.365 153.024C288.598 144.791 299.763 140.165 311.406 140.165V151.596C307.145 151.594 302.925 152.432 298.987 154.061C295.05 155.691 291.473 158.079 288.459 161.092C285.445 164.105 283.054 167.682 281.422 171.619C279.792 175.557 278.952 179.776 278.952 184.037L267.507 184.069Z" fill="#F68C3E"/>
<path d="M267.507 184.069H278.952C278.952 192.677 282.371 200.932 288.458 207.019C294.544 213.106 302.799 216.526 311.406 216.526C317.101 216.536 322.696 215.032 327.618 212.167L333.356 222.155C326.682 226.009 319.111 228.037 311.406 228.037C303.699 228.037 296.129 226.008 289.455 222.154C282.781 218.301 277.24 212.758 273.387 206.084C269.535 199.41 267.507 191.839 267.507 184.132V184.069Z" fill="#407BFF"/>
<path opacity="0.5" d="M267.507 184.069H278.952C278.952 192.677 282.371 200.932 288.458 207.019C294.544 213.106 302.799 216.526 311.406 216.526C317.101 216.536 322.696 215.032 327.618 212.167L333.356 222.155C326.682 226.009 319.111 228.037 311.406 228.037C303.699 228.037 296.129 226.008 289.455 222.154C282.781 218.301 277.24 212.758 273.387 206.084C269.535 199.41 267.507 191.839 267.507 184.132V184.069Z" fill="white"/>
<path d="M311.406 151.596V140.134C321.101 140.097 330.535 143.271 338.237 149.16C345.939 155.048 351.475 163.322 353.982 172.688C356.487 182.052 355.824 191.985 352.092 200.934C348.361 209.883 341.773 217.345 333.357 222.155L327.633 212.23C333.868 208.68 338.749 203.166 341.514 196.547C344.28 189.928 344.774 182.58 342.92 175.65C341.066 168.721 336.967 162.6 331.265 158.249C325.563 153.897 318.579 151.557 311.406 151.596Z" fill="#407BFF"/>
<path opacity="0.7" d="M311.406 151.596V140.134C321.101 140.097 330.535 143.271 338.237 149.16C345.939 155.048 351.475 163.322 353.982 172.688C356.487 182.052 355.824 191.985 352.092 200.934C348.361 209.883 341.773 217.345 333.357 222.155L327.633 212.23C333.868 208.68 338.749 203.166 341.514 196.547C344.28 189.928 344.774 182.58 342.92 175.65C341.066 168.721 336.967 162.6 331.265 158.249C325.563 153.897 318.579 151.557 311.406 151.596Z" fill="black"/>
<path d="M247.859 92.7282C247.859 95.1944 247.128 97.6053 245.757 99.6558C244.388 101.706 242.44 103.305 240.162 104.248C237.884 105.192 235.377 105.439 232.958 104.958C230.54 104.477 228.318 103.289 226.574 101.545C224.831 99.8016 223.643 97.5797 223.162 95.1608C222.68 92.742 222.927 90.2348 223.871 87.9564C224.815 85.6779 226.413 83.7304 228.464 82.3603C230.514 80.9902 232.925 80.2588 235.391 80.2588C238.698 80.2588 241.869 81.5725 244.207 83.9109C246.546 86.2494 247.859 89.421 247.859 92.7282Z" fill="#F68C3E"/>
<path d="M310.223 105.307C310.223 106.542 309.857 107.75 309.17 108.777C308.484 109.804 307.509 110.605 306.368 111.077C305.227 111.55 303.971 111.674 302.759 111.433C301.548 111.192 300.436 110.597 299.562 109.723C298.688 108.85 298.093 107.737 297.852 106.526C297.612 105.314 297.735 104.058 298.208 102.917C298.68 101.776 299.482 100.8 300.508 100.114C301.535 99.4278 302.743 99.0615 303.978 99.0615C305.632 99.0673 307.218 99.7272 308.387 100.897C309.558 102.067 310.217 103.652 310.223 105.307Z" fill="#F68C3E"/>
<path d="M179.58 152.243C179.576 153.624 179.162 154.973 178.391 156.121C177.621 157.268 176.528 158.16 175.25 158.686C173.972 159.212 172.567 159.347 171.212 159.074C169.858 158.803 168.615 158.135 167.639 157.157C166.663 156.177 166.001 154.933 165.732 153.577C165.464 152.222 165.605 150.816 166.133 149.541C166.663 148.265 167.56 147.174 168.709 146.407C169.858 145.639 171.208 145.23 172.589 145.23C173.51 145.23 174.42 145.411 175.269 145.764C176.119 146.117 176.891 146.634 177.54 147.285C178.19 147.937 178.703 148.711 179.054 149.56C179.404 150.411 179.582 151.324 179.58 152.243Z" fill="#004385"/>
<g filter="url(#filter0_d_3259_44)">
<path d="M319.504 211.476H13.7821V642.102H319.504V211.476Z" fill="#ECF1F4"/>
</g>
<path d="M319.504 211.476H13.7821V251.11H319.504V211.476Z" fill="white"/>
<path d="M54.8291 260.168H26.5215V262.999H54.8291V260.168Z" fill="#4A4A68"/>
<path d="M49.1676 240.917H26.5215V243.747H49.1676V240.917Z" fill="#4A4A68"/>
<path d="M66.1511 240.917H51.9973V243.747H66.1511V240.917Z" fill="#4A4A68"/>
<path d="M88.7981 240.917H68.9828V243.747H88.7981V240.917Z" fill="#4A4A68"/>
<path d="M306.765 239.502H284.119V245.164H306.765V239.502Z" fill="#4A4A68"/>
<path d="M278.458 239.502H255.812V245.164H278.458V239.502Z" fill="#8C8CA1"/>
<path d="M47.7517 221.1H30.7672V223.931H47.7517V221.1Z" fill="#8C8CA1"/>
<path d="M27.9365 219.684H19.4442V225.346H27.9365V219.684Z" fill="#4A4A68"/>
<path d="M309.598 218.271H309.598C307.252 218.271 305.351 220.172 305.351 222.517V222.518C305.351 224.863 307.252 226.764 309.598 226.764H309.598C311.943 226.764 313.844 224.863 313.844 222.518V222.517C313.844 220.172 311.943 218.271 309.598 218.271Z" fill="#8C8CA1"/>
<path d="M299.69 220.253H291.198V224.783H299.69V220.253Z" fill="#8C8CA1"/>
<path d="M285.536 220.253H277.044V224.783H285.536V220.253Z" fill="#8C8CA1"/>
<path d="M271.383 220.253H262.89V224.783H271.383V220.253Z" fill="#8C8CA1"/>
<path d="M91.6277 260.168H63.3201V262.999H91.6277V260.168Z" fill="#004385"/>
<path d="M128.429 260.168H100.121V262.999H128.429V260.168Z" fill="#004385"/>
<path d="M165.226 260.168H136.919V262.999H165.226V260.168Z" fill="#004385"/>
<path d="M306.767 409.645H26.5215V466.265H306.767V409.645Z" fill="white"/>
<path d="M162.398 321.885H26.5215V401.153H162.398V321.885Z" fill="white"/>
<path d="M162.742 551.322H25.4196V630.464H162.742V551.322Z" fill="white"/>
<path d="M306.767 321.885H170.89V401.153H306.767V321.885Z" fill="white"/>
<path d="M306.767 474.758H170.89V542.702H306.767V474.758Z" fill="white"/>
<path d="M319.504 250.542H13.7821V251.109H319.504V250.542Z" fill="#DEDFE1"/>
<path d="M114.275 273.758H26.5215V313.392H114.275V273.758Z" fill="white"/>
<path d="M57.6587 285.082H35.0126V287.913H57.6587V285.082Z" fill="#4A4A68"/>
<path d="M91.628 297.539H51.9973V299.237H91.628V297.539Z" fill="#8C8CA1"/>
<path d="M66.1509 332.359H35.0126V334.058H66.1509V332.359Z" fill="#4A4A68"/>
<path d="M66.1509 559.688H35.0126V561.387H66.1509V559.688Z" fill="#4A4A68"/>
<path d="M210.519 483.251H179.381V484.95H210.519V483.251Z" fill="#4A4A68"/>
<path d="M91.6289 332.359H71.8135V334.058H91.6289V332.359Z" fill="#4A4A68"/>
<path d="M204.858 332.358H179.381V334.057H204.858V332.358Z" fill="#4A4A68"/>
<path d="M214.768 332.358H207.691V334.057H214.768V332.358Z" fill="#4A4A68"/>
<path d="M230.336 332.358H219.013V334.057H230.336V332.358Z" fill="#4A4A68"/>
<path d="M60.4894 418.14H35.0126V419.838H60.4894V418.14Z" fill="#4A4A68"/>
<path d="M70.397 418.138H63.3201V419.837H70.397V418.138Z" fill="#4A4A68"/>
<path d="M85.9666 418.138H74.6436V419.837H85.9666V418.138Z" fill="#4A4A68"/>
<path d="M46.3356 294.141H35.0126V302.634H46.3356V294.141Z" fill="#004385"/>
<path d="M210.52 273.758H122.767V313.392H210.52V273.758Z" fill="white"/>
<path d="M153.905 285.081H131.259V287.912H153.905V285.081Z" fill="#4A4A68"/>
<path d="M187.875 297.537H148.245V299.236H187.875V297.537Z" fill="#8C8CA1"/>
<path d="M142.582 294.141H131.259V302.634H142.582V294.141Z" fill="#004385"/>
<path d="M306.767 273.758H219.013V313.392H306.767V273.758Z" fill="white"/>
<path d="M250.15 285.081H227.504V287.912H250.15V285.081Z" fill="#4A4A68"/>
<path d="M284.12 297.537H244.49V299.236H284.12V297.537Z" fill="#8C8CA1"/>
<path d="M238.827 294.141H227.504V302.634H238.827V294.141Z" fill="#004385"/>
<path opacity="0.8" d="M135.286 358.971L155.409 338.871V381.335H135.286H115.411H95.4385H75.4551H55.5874H35.6676V381.052H55.5874L75.5391 373.409L95.4385 362.084L115.362 359.254L135.286 358.971Z" fill="url(#paint0_linear_3259_44)"/>
<path d="M54.5165 338.871L54.5165 384.167" stroke="white" stroke-width="2"/>
<path d="M34.5918 338.871L34.5918 384.167" stroke="white" stroke-width="2"/>
<path d="M94.3638 338.871L94.3638 384.167" stroke="white" stroke-width="2"/>
<path d="M74.4395 338.871L74.4395 384.167" stroke="white" stroke-width="2"/>
<path d="M114.288 338.871L114.288 384.167" stroke="white" stroke-width="2"/>
<path d="M134.211 338.871L134.211 384.167" stroke="white" stroke-width="2"/>
<path d="M154.772 338.871L154.772 384.167" stroke="white"/>
<path d="M180.796 349.912V375.391H181.929V349.912H180.796Z" fill="#4A4A68"/>
<path d="M251.565 392.095H226.088V393.227H251.565V392.095Z" fill="#4A4A68"/>
<path d="M185.608 379.921V382.186H187.306V379.921H185.608Z" fill="#8C8CA1"/>
<path d="M185.608 366.331V368.596H187.306V366.331H185.608Z" fill="#8C8CA1"/>
<path d="M185.608 352.743V355.008H187.306V352.743H185.608Z" fill="#8C8CA1"/>
<path d="M185.608 339.155V341.42H187.306V339.155H185.608Z" fill="#8C8CA1"/>
<path d="M198.065 384.167H193.536V385.866H198.065V384.167Z" fill="#8C8CA1"/>
<path d="M208.539 384.167H204.01V385.866H208.539V384.167Z" fill="#8C8CA1"/>
<path d="M219.012 384.167H214.483V385.866H219.012V384.167Z" fill="#8C8CA1"/>
<path d="M229.486 384.167H224.957V385.866H229.486V384.167Z" fill="#8C8CA1"/>
<path d="M239.959 384.167H235.43V385.866H239.959V384.167Z" fill="#8C8CA1"/>
<path d="M250.716 384.167H246.187V385.866H250.716V384.167Z" fill="#8C8CA1"/>
<path d="M261.191 384.167H256.661V385.866H261.191V384.167Z" fill="#8C8CA1"/>
<path d="M271.664 384.167H267.135V385.866H271.664V384.167Z" fill="#8C8CA1"/>
<path d="M282.139 384.167H277.61V385.866H282.139V384.167Z" fill="#8C8CA1"/>
<path d="M292.612 384.167H288.083V385.866H292.612V384.167Z" fill="#8C8CA1"/>
<path d="M188.48 367.982H299.689" stroke="#DEDFE1"/>
<path d="M187.843 382.19V341.475" stroke="#DEDFE1"/>
<path opacity="0.5" d="M188.48 381.256H299.689" stroke="#DEDFE1" stroke-width="2"/>
<path opacity="0.5" d="M188.48 354.409H299.689" stroke="#DEDFE1"/>
<path opacity="0.5" d="M188.48 340.838H299.689" stroke="#DEDFE1"/>
<path d="M264.304 368.957V382.19H274.414V368.957H264.304Z" fill="#004385"/>
<path d="M274.819 366.922V382.19H284.929V366.922H274.819Z" fill="#004385"/>
<path d="M285.333 368.957V382.19H295.443V368.957H285.333Z" fill="#004385"/>
<path d="M253.789 361.323V382.19H263.899V361.323H253.789Z" fill="#004385"/>
<path d="M243.276 355.216V382.19H253.386V355.216H243.276Z" fill="#004385"/>
<path d="M232.761 363.189V382.19H242.871V363.189H232.761Z" fill="#004385"/>
<path d="M222.247 368.618V382.19H232.357V368.618H222.247Z" fill="#004385"/>
<path d="M211.732 341.644V382.19H221.842V341.644H211.732Z" fill="#004385"/>
<path d="M201.217 372.52V382.19H211.327V372.52H201.217Z" fill="#004385"/>
<path d="M190.704 368.618V382.19H200.814V368.618H190.704Z" fill="#004385"/>
<path fill-rule="evenodd" clip-rule="evenodd" d="M184.026 451.774C191.281 451.774 197.163 445.892 197.163 438.636C197.163 431.381 191.281 425.499 184.026 425.499C176.771 425.499 170.89 431.381 170.89 438.636C170.89 445.892 176.771 451.774 184.026 451.774ZM184.026 450.132C190.374 450.132 195.521 444.985 195.521 438.636C195.521 432.288 190.374 427.141 184.026 427.141C177.678 427.141 172.532 432.288 172.532 438.636C172.532 444.985 177.678 450.132 184.026 450.132Z" fill="#ECF1F4"/>
<mask id="mask0_3259_44" style="mask-type:alpha" maskUnits="userSpaceOnUse" x="170" y="425" width="28" height="27">
<path fill-rule="evenodd" clip-rule="evenodd" d="M184.026 451.774C191.281 451.774 197.163 445.892 197.163 438.636C197.163 431.381 191.281 425.499 184.026 425.499C176.771 425.499 170.89 431.381 170.89 438.636C170.89 445.892 176.771 451.774 184.026 451.774ZM184.026 450.132C190.374 450.132 195.521 444.985 195.521 438.636C195.521 432.288 190.374 427.141 184.026 427.141C177.678 427.141 172.532 432.288 172.532 438.636C172.532 444.985 177.678 450.132 184.026 450.132Z" fill="#C4C4C4"/>
</mask>
<g mask="url(#mask0_3259_44)">
<path d="M171.337 442.036C171.971 444.406 173.257 446.548 175.046 448.225C176.835 449.902 179.058 451.043 181.463 451.522C183.868 452 186.358 451.796 188.653 450.932C190.948 450.068 192.955 448.579 194.448 446.634C195.94 444.689 196.858 442.365 197.099 439.924C197.34 437.484 196.891 435.024 195.807 432.826C194.723 430.627 193.044 428.774 190.963 427.48C188.88 426.184 186.478 425.499 184.026 425.499V438.636L171.337 442.036Z" fill="#004385"/>
</g>
<path d="M192.686 456.074H175.701V457.773H192.686V456.074Z" fill="#4A4A68"/>
<path d="M186.015 440.787L189.134 436.296H190.018L186.899 440.787H186.015ZM186.294 436.235C186.553 436.235 186.775 436.288 186.961 436.398C187.15 436.502 187.297 436.649 187.401 436.839C187.506 437.03 187.558 437.254 187.558 437.511C187.558 437.77 187.506 437.994 187.401 438.184C187.297 438.375 187.15 438.524 186.961 438.632C186.775 438.737 186.553 438.789 186.294 438.789C186.041 438.789 185.819 438.737 185.628 438.632C185.442 438.524 185.296 438.375 185.187 438.184C185.083 437.994 185.031 437.77 185.031 437.511C185.031 437.254 185.083 437.03 185.187 436.839C185.296 436.649 185.442 436.502 185.628 436.398C185.819 436.288 186.041 436.235 186.294 436.235ZM186.294 437.009C186.208 437.009 186.135 437.03 186.076 437.071C186.018 437.106 185.972 437.164 185.941 437.24C185.91 437.313 185.893 437.403 185.893 437.511C185.893 437.616 185.91 437.706 185.941 437.784C185.972 437.86 186.018 437.919 186.076 437.96C186.135 437.997 186.208 438.015 186.294 438.015C186.385 438.015 186.46 437.997 186.518 437.96C186.577 437.919 186.623 437.86 186.655 437.784C186.685 437.706 186.702 437.616 186.702 437.511C186.702 437.403 186.685 437.313 186.655 437.24C186.623 437.164 186.577 437.106 186.518 437.071C186.46 437.03 186.385 437.009 186.294 437.009ZM189.725 438.3C189.978 438.3 190.201 438.355 190.391 438.463C190.581 438.567 190.729 438.714 190.833 438.905C190.936 439.095 190.988 439.319 190.988 439.578C190.988 439.835 190.936 440.059 190.833 440.25C190.729 440.44 190.581 440.589 190.391 440.699C190.201 440.803 189.978 440.854 189.725 440.854C189.471 440.854 189.25 440.803 189.06 440.699C188.869 440.589 188.722 440.44 188.618 440.25C188.513 440.059 188.461 439.835 188.461 439.578C188.461 439.319 188.513 439.095 188.618 438.905C188.722 438.714 188.869 438.567 189.06 438.463C189.25 438.355 189.471 438.3 189.725 438.3ZM189.725 439.075C189.639 439.075 189.564 439.095 189.501 439.136C189.442 439.173 189.396 439.229 189.366 439.305C189.334 439.378 189.317 439.468 189.317 439.578C189.317 439.682 189.334 439.773 189.366 439.849C189.396 439.927 189.442 439.985 189.501 440.026C189.564 440.062 189.639 440.08 189.725 440.08C189.815 440.08 189.89 440.062 189.949 440.026C190.008 439.985 190.053 439.927 190.085 439.849C190.117 439.773 190.132 439.682 190.132 439.578C190.132 439.468 190.117 439.378 190.085 439.305C190.053 439.229 190.008 439.173 189.949 439.136C189.89 439.095 189.815 439.075 189.725 439.075Z" fill="#004385"/>
<path d="M183.343 436.823H176.549V440.22H183.343V436.823Z" fill="#4A4A68"/>
<path fill-rule="evenodd" clip-rule="evenodd" d="M150.056 451.774C157.311 451.774 163.192 445.892 163.192 438.636C163.192 431.381 157.311 425.499 150.056 425.499C142.8 425.499 136.919 431.381 136.919 438.636C136.919 445.892 142.8 451.774 150.056 451.774ZM150.056 450.132C156.405 450.132 161.55 444.985 161.55 438.636C161.55 432.288 156.405 427.141 150.056 427.141C143.707 427.141 138.562 432.288 138.562 438.636C138.562 444.985 143.707 450.132 150.056 450.132Z" fill="#004385"/>
<mask id="mask1_3259_44" style="mask-type:alpha" maskUnits="userSpaceOnUse" x="136" y="425" width="28" height="27">
<path fill-rule="evenodd" clip-rule="evenodd" d="M150.056 451.774C157.311 451.774 163.192 445.892 163.192 438.636C163.192 431.381 157.311 425.499 150.056 425.499C142.8 425.499 136.919 431.381 136.919 438.636C136.919 445.892 142.8 451.774 150.056 451.774ZM150.056 450.132C156.405 450.132 161.55 444.985 161.55 438.636C161.55 432.288 156.405 427.141 150.056 427.141C143.707 427.141 138.562 432.288 138.562 438.636C138.562 444.985 143.707 450.132 150.056 450.132Z" fill="#ECF1F4"/>
</mask>
<g mask="url(#mask1_3259_44)">
<path d="M150.056 425.499C147.057 425.499 144.148 426.525 141.813 428.407C139.478 430.289 137.858 432.913 137.22 435.843L150.056 438.636V425.499Z" fill="#ECF1F4"/>
</g>
<path d="M158.717 456.074H141.733V457.773H158.717V456.074Z" fill="#4A4A68"/>
<path d="M152.047 440.787L155.165 436.296H156.049L152.931 440.787H152.047ZM152.326 436.235C152.585 436.235 152.806 436.288 152.992 436.398C153.182 436.502 153.329 436.649 153.433 436.839C153.537 437.03 153.59 437.254 153.59 437.511C153.59 437.77 153.537 437.994 153.433 438.184C153.329 438.375 153.182 438.524 152.992 438.632C152.806 438.737 152.585 438.789 152.326 438.789C152.073 438.789 151.851 438.737 151.66 438.632C151.474 438.524 151.327 438.375 151.219 438.184C151.115 437.994 151.062 437.77 151.062 437.511C151.062 437.254 151.115 437.03 151.219 436.839C151.327 436.649 151.474 436.502 151.66 436.398C151.851 436.288 152.073 436.235 152.326 436.235ZM152.326 437.009C152.239 437.009 152.167 437.03 152.108 437.071C152.05 437.106 152.004 437.164 151.973 437.24C151.941 437.313 151.925 437.403 151.925 437.511C151.925 437.616 151.941 437.706 151.973 437.784C152.004 437.86 152.05 437.919 152.108 437.96C152.167 437.997 152.239 438.015 152.326 438.015C152.416 438.015 152.492 437.997 152.55 437.96C152.609 437.919 152.655 437.86 152.687 437.784C152.717 437.706 152.734 437.616 152.734 437.511C152.734 437.403 152.717 437.313 152.687 437.24C152.655 437.164 152.609 437.106 152.55 437.071C152.492 437.03 152.416 437.009 152.326 437.009ZM155.756 438.3C156.01 438.3 156.233 438.355 156.423 438.463C156.613 438.567 156.76 438.714 156.865 438.905C156.968 439.095 157.02 439.319 157.02 439.578C157.02 439.835 156.968 440.059 156.865 440.25C156.76 440.44 156.613 440.589 156.423 440.699C156.233 440.803 156.01 440.854 155.756 440.854C155.503 440.854 155.281 440.803 155.092 440.699C154.9 440.589 154.754 440.44 154.65 440.25C154.545 440.059 154.493 439.835 154.493 439.578C154.493 439.319 154.545 439.095 154.65 438.905C154.754 438.714 154.9 438.567 155.092 438.463C155.281 438.355 155.503 438.3 155.756 438.3ZM155.756 439.075C155.671 439.075 155.596 439.095 155.532 439.136C155.474 439.173 155.428 439.229 155.397 439.305C155.365 439.378 155.349 439.468 155.349 439.578C155.349 439.682 155.365 439.773 155.397 439.849C155.428 439.927 155.474 439.985 155.532 440.026C155.596 440.062 155.671 440.08 155.756 440.08C155.847 440.08 155.922 440.062 155.981 440.026C156.039 439.985 156.085 439.927 156.117 439.849C156.149 439.773 156.164 439.682 156.164 439.578C156.164 439.468 156.149 439.378 156.117 439.305C156.085 439.229 156.039 439.173 155.981 439.136C155.922 439.095 155.847 439.075 155.756 439.075Z" fill="#004385"/>
<path d="M149.375 436.823H142.581V440.22H149.375V436.823Z" fill="#4A4A68"/>
<path fill-rule="evenodd" clip-rule="evenodd" d="M116.089 451.774C123.344 451.774 129.225 445.892 129.225 438.636C129.225 431.381 123.344 425.499 116.089 425.499C108.834 425.499 102.952 431.381 102.952 438.636C102.952 445.892 108.834 451.774 116.089 451.774ZM116.088 450.132C122.436 450.132 127.582 444.985 127.582 438.636C127.582 432.288 122.436 427.141 116.088 427.141C109.739 427.141 104.593 432.288 104.593 438.636C104.593 444.985 109.739 450.132 116.088 450.132Z" fill="#ECF1F4"/>
<mask id="mask2_3259_44" style="mask-type:alpha" maskUnits="userSpaceOnUse" x="102" y="425" width="28" height="27">
<path fill-rule="evenodd" clip-rule="evenodd" d="M116.089 451.774C123.344 451.774 129.225 445.892 129.225 438.636C129.225 431.381 123.344 425.499 116.089 425.499C108.834 425.499 102.952 431.381 102.952 438.636C102.952 445.892 108.834 451.774 116.089 451.774ZM116.088 450.132C122.436 450.132 127.582 444.985 127.582 438.636C127.582 432.288 122.436 427.141 116.088 427.141C109.739 427.141 104.593 432.288 104.593 438.636C104.593 444.985 109.739 450.132 116.088 450.132Z" fill="#ECF1F4"/>
</mask>
<g mask="url(#mask2_3259_44)">
<path d="M116.089 425.499C118.836 425.499 121.514 426.36 123.747 427.962C125.979 429.564 127.653 431.825 128.533 434.428C129.413 437.031 129.455 439.844 128.653 442.472C127.85 445.1 126.245 447.41 124.062 449.077C121.878 450.745 119.227 451.686 116.481 451.768C113.735 451.851 111.032 451.07 108.753 449.535C106.474 448.001 104.733 445.791 103.776 443.215C102.818 440.64 102.692 437.828 103.416 435.178L116.089 438.636V425.499Z" fill="#004385"/>
</g>
<path d="M124.465 456.074H107.48V457.773H124.465V456.074Z" fill="#4A4A68"/>
<path d="M118.08 440.787L121.198 436.296H122.081L118.963 440.787H118.08ZM118.358 436.235C118.616 436.235 118.838 436.288 119.024 436.398C119.214 436.502 119.361 436.649 119.466 436.839C119.57 437.03 119.622 437.254 119.622 437.511C119.622 437.77 119.57 437.994 119.466 438.184C119.361 438.375 119.214 438.524 119.024 438.632C118.838 438.737 118.616 438.789 118.358 438.789C118.105 438.789 117.883 438.737 117.692 438.632C117.507 438.524 117.36 438.375 117.251 438.184C117.147 437.994 117.095 437.77 117.095 437.511C117.095 437.254 117.147 437.03 117.251 436.839C117.36 436.649 117.507 436.502 117.692 436.398C117.883 436.288 118.105 436.235 118.358 436.235ZM118.358 437.009C118.272 437.009 118.2 437.03 118.141 437.071C118.082 437.106 118.037 437.164 118.005 437.24C117.973 437.313 117.957 437.403 117.957 437.511C117.957 437.616 117.973 437.706 118.005 437.784C118.037 437.86 118.082 437.919 118.141 437.96C118.2 437.997 118.272 438.015 118.358 438.015C118.449 438.015 118.523 437.997 118.582 437.96C118.641 437.919 118.687 437.86 118.718 437.784C118.75 437.706 118.766 437.616 118.766 437.511C118.766 437.403 118.75 437.313 118.718 437.24C118.687 437.164 118.641 437.106 118.582 437.071C118.523 437.03 118.449 437.009 118.358 437.009ZM121.789 438.3C122.043 438.3 122.265 438.355 122.455 438.463C122.645 438.567 122.792 438.714 122.896 438.905C123.001 439.095 123.053 439.319 123.053 439.578C123.053 439.835 123.001 440.059 122.896 440.25C122.792 440.44 122.645 440.589 122.455 440.699C122.265 440.803 122.043 440.854 121.789 440.854C121.535 440.854 121.314 440.803 121.123 440.699C120.933 440.589 120.786 440.44 120.682 440.25C120.578 440.059 120.525 439.835 120.525 439.578C120.525 439.319 120.578 439.095 120.682 438.905C120.786 438.714 120.933 438.567 121.123 438.463C121.314 438.355 121.535 438.3 121.789 438.3ZM121.789 439.075C121.703 439.075 121.628 439.095 121.565 439.136C121.506 439.173 121.461 439.229 121.429 439.305C121.397 439.378 121.381 439.468 121.381 439.578C121.381 439.682 121.397 439.773 121.429 439.849C121.461 439.927 121.506 439.985 121.565 440.026C121.628 440.062 121.703 440.08 121.789 440.08C121.88 440.08 121.954 440.062 122.013 440.026C122.072 439.985 122.117 439.927 122.149 439.849C122.181 439.773 122.197 439.682 122.197 439.578C122.197 439.468 122.181 439.378 122.149 439.305C122.117 439.229 122.072 439.173 122.013 439.136C121.954 439.095 121.88 439.075 121.789 439.075Z" fill="#004385"/>
<path d="M115.407 436.823H108.613V440.22H115.407V436.823Z" fill="#4A4A68"/>
<path fill-rule="evenodd" clip-rule="evenodd" d="M82.1192 451.774C89.3744 451.774 95.2557 445.892 95.2557 438.636C95.2557 431.381 89.3744 425.499 82.1192 425.499C74.8642 425.499 68.9828 431.381 68.9828 438.636C68.9828 445.892 74.8642 451.774 82.1192 451.774ZM82.119 450.132C88.4672 450.132 93.6134 444.985 93.6134 438.636C93.6134 432.288 88.4672 427.141 82.119 427.141C75.7708 427.141 70.6245 432.288 70.6245 438.636C70.6245 444.985 75.7708 450.132 82.119 450.132Z" fill="#ECF1F4"/>
<mask id="mask3_3259_44" style="mask-type:alpha" maskUnits="userSpaceOnUse" x="68" y="425" width="28" height="27">
<path fill-rule="evenodd" clip-rule="evenodd" d="M82.1192 451.774C89.3744 451.774 95.2557 445.892 95.2557 438.636C95.2557 431.381 89.3744 425.499 82.1192 425.499C74.8642 425.499 68.9828 431.381 68.9828 438.636C68.9828 445.892 74.8642 451.774 82.1192 451.774ZM82.119 450.132C88.4672 450.132 93.6134 444.985 93.6134 438.636C93.6134 432.288 88.4672 427.141 82.119 427.141C75.7708 427.141 70.6245 432.288 70.6245 438.636C70.6245 444.985 75.7708 450.132 82.119 450.132Z" fill="#ECF1F4"/>
</mask>
<g mask="url(#mask3_3259_44)">
<path d="M82.1193 425.499C85.1585 425.499 88.1036 426.553 90.453 428.481C92.8023 430.409 94.4104 433.093 95.0034 436.074C95.5962 439.055 95.1373 442.15 93.7046 444.83C92.2719 447.51 89.9543 449.611 87.1463 450.774C84.3385 451.937 81.2143 452.091 78.306 451.209C75.3976 450.326 72.8852 448.463 71.1967 445.936C69.5082 443.408 68.7481 440.374 69.0461 437.349C69.3439 434.324 70.6813 431.497 72.8304 429.346L82.1193 438.636V425.499Z" fill="#004385"/>
</g>
<path d="M90.4967 456.074H73.5121V457.773H90.4967V456.074Z" fill="#4A4A68"/>
<path d="M84.112 440.787L87.2304 436.296H88.1136L84.9952 440.787H84.112ZM84.3905 436.235C84.6487 436.235 84.8706 436.288 85.0563 436.398C85.2465 436.502 85.3938 436.649 85.498 436.839C85.6021 437.03 85.6542 437.254 85.6542 437.511C85.6542 437.77 85.6021 437.994 85.498 438.184C85.3938 438.375 85.2465 438.524 85.0563 438.632C84.8706 438.737 84.6487 438.789 84.3905 438.789C84.1369 438.789 83.915 438.737 83.7248 438.632C83.5391 438.524 83.3918 438.375 83.2832 438.184C83.179 437.994 83.1268 437.77 83.1268 437.511C83.1268 437.254 83.179 437.03 83.2832 436.839C83.3918 436.649 83.5391 436.502 83.7248 436.398C83.915 436.288 84.1369 436.235 84.3905 436.235ZM84.3905 437.009C84.3045 437.009 84.232 437.03 84.1732 437.071C84.1142 437.106 84.069 437.164 84.0373 437.24C84.0055 437.313 83.9897 437.403 83.9897 437.511C83.9897 437.616 84.0055 437.706 84.0373 437.784C84.069 437.86 84.1142 437.919 84.1732 437.96C84.232 437.997 84.3045 438.015 84.3905 438.015C84.4811 438.015 84.5558 437.997 84.6147 437.96C84.6737 437.919 84.7189 437.86 84.7506 437.784C84.7823 437.706 84.7981 437.616 84.7981 437.511C84.7981 437.403 84.7823 437.313 84.7506 437.24C84.7189 437.164 84.6737 437.106 84.6147 437.071C84.5558 437.03 84.4811 437.009 84.3905 437.009ZM87.8215 438.3C88.0751 438.3 88.297 438.355 88.4872 438.463C88.6775 438.567 88.8246 438.714 88.9288 438.905C89.033 439.095 89.0851 439.319 89.0851 439.578C89.0851 439.835 89.033 440.059 88.9288 440.25C88.8246 440.44 88.6775 440.589 88.4872 440.699C88.297 440.803 88.0751 440.854 87.8215 440.854C87.5678 440.854 87.3458 440.803 87.1556 440.699C86.9654 440.589 86.8182 440.44 86.714 440.25C86.6099 440.059 86.5578 439.835 86.5578 439.578C86.5578 439.319 86.6099 439.095 86.714 438.905C86.8182 438.714 86.9654 438.567 87.1556 438.463C87.3458 438.355 87.5678 438.3 87.8215 438.3ZM87.8215 439.075C87.7354 439.075 87.6606 439.095 87.5973 439.136C87.5383 439.173 87.4931 439.229 87.4614 439.305C87.4296 439.378 87.4138 439.468 87.4138 439.578C87.4138 439.682 87.4296 439.773 87.4614 439.849C87.4931 439.927 87.5383 439.985 87.5973 440.026C87.6606 440.062 87.7354 440.08 87.8215 440.08C87.912 440.08 87.9867 440.062 88.0457 440.026C88.1045 439.985 88.1497 439.927 88.1815 439.849C88.2132 439.773 88.2291 439.682 88.2291 439.578C88.2291 439.468 88.2132 439.378 88.1815 439.305C88.1497 439.229 88.1045 439.173 88.0457 439.136C87.9867 439.095 87.912 439.075 87.8215 439.075Z" fill="#004385"/>
<path d="M81.4392 436.823H74.6454V440.22H81.4392V436.823Z" fill="#4A4A68"/>
<path fill-rule="evenodd" clip-rule="evenodd" d="M48.1491 451.774C55.4042 451.774 61.2856 445.892 61.2856 438.636C61.2856 431.381 55.4042 425.499 48.1491 425.499C40.894 425.499 35.0126 431.381 35.0126 438.636C35.0126 445.892 40.894 451.774 48.1491 451.774ZM48.1498 450.132C54.498 450.132 59.6442 444.985 59.6442 438.636C59.6442 432.288 54.498 427.141 48.1498 427.141C41.8016 427.141 36.6554 432.288 36.6554 438.636C36.6554 444.985 41.8016 450.132 48.1498 450.132Z" fill="#ECF1F4"/>
<mask id="mask4_3259_44" style="mask-type:alpha" maskUnits="userSpaceOnUse" x="35" y="425" width="27" height="27">
<path fill-rule="evenodd" clip-rule="evenodd" d="M48.1491 451.774C55.4042 451.774 61.2856 445.892 61.2856 438.636C61.2856 431.381 55.4042 425.499 48.1491 425.499C40.894 425.499 35.0126 431.381 35.0126 438.636C35.0126 445.892 40.894 451.774 48.1491 451.774ZM48.1498 450.132C54.498 450.132 59.6442 444.985 59.6442 438.636C59.6442 432.288 54.498 427.141 48.1498 427.141C41.8016 427.141 36.6554 432.288 36.6554 438.636C36.6554 444.985 41.8016 450.132 48.1498 450.132Z" fill="#ECF1F4"/>
</mask>
<g mask="url(#mask4_3259_44)">
<path d="M48.1491 425.499C50.846 425.499 53.4777 426.33 55.6865 427.876C57.8953 429.424 59.5744 431.614 60.4955 434.149C61.4168 436.684 61.5355 439.441 60.8355 442.046C60.1357 444.65 58.651 446.977 56.5834 448.709C54.5157 450.44 51.9652 451.494 49.2782 451.726C46.5913 451.958 43.8981 451.356 41.5644 450.005C39.2308 448.653 37.3697 446.615 36.234 444.169C35.0984 441.723 34.7431 438.985 35.2166 436.33L48.1491 438.636V425.499Z" fill="#004385"/>
</g>
<path d="M56.8102 456.074H39.8257V457.773H56.8102V456.074Z" fill="#4A4A68"/>
<path d="M50.4254 440.787L53.5438 436.296H54.4271L51.3087 440.787H50.4254ZM50.704 436.235C50.9622 436.235 51.1841 436.288 51.3698 436.398C51.56 436.502 51.7073 436.649 51.8114 436.839C51.9156 437.03 51.9677 437.254 51.9677 437.511C51.9677 437.77 51.9156 437.994 51.8114 438.184C51.7073 438.375 51.56 438.524 51.3698 438.632C51.1841 438.737 50.9622 438.789 50.704 438.789C50.4504 438.789 50.2285 438.737 50.0382 438.632C49.8526 438.524 49.7053 438.375 49.5967 438.184C49.4925 437.994 49.4404 437.77 49.4404 437.511C49.4404 437.254 49.4925 437.03 49.5967 436.839C49.7053 436.649 49.8526 436.502 50.0382 436.398C50.2285 436.288 50.4504 436.235 50.704 436.235ZM50.704 437.009C50.618 437.009 50.5455 437.03 50.4866 437.071C50.4277 437.106 50.3825 437.164 50.3508 437.24C50.319 437.313 50.3031 437.403 50.3031 437.511C50.3031 437.616 50.319 437.706 50.3508 437.784C50.3825 437.86 50.4277 437.919 50.4866 437.96C50.5455 437.997 50.618 438.015 50.704 438.015C50.7946 438.015 50.8693 437.997 50.9282 437.96C50.9871 437.919 51.0324 437.86 51.0641 437.784C51.0958 437.706 51.1116 437.616 51.1116 437.511C51.1116 437.403 51.0958 437.313 51.0641 437.24C51.0324 437.164 50.9871 437.106 50.9282 437.071C50.8693 437.03 50.7946 437.009 50.704 437.009ZM54.1348 438.3C54.3886 438.3 54.6105 438.355 54.8007 438.463C54.9909 438.567 55.1381 438.714 55.2423 438.905C55.3465 439.095 55.3985 439.319 55.3985 439.578C55.3985 439.835 55.3465 440.059 55.2423 440.25C55.1381 440.44 54.9909 440.589 54.8007 440.699C54.6105 440.803 54.3886 440.854 54.1348 440.854C53.8812 440.854 53.6593 440.803 53.4691 440.699C53.2788 440.589 53.1317 440.44 53.0275 440.25C52.9233 440.059 52.8712 439.835 52.8712 439.578C52.8712 439.319 52.9233 439.095 53.0275 438.905C53.1317 438.714 53.2788 438.567 53.4691 438.463C53.6593 438.355 53.8812 438.3 54.1348 438.3ZM54.1348 439.075C54.0489 439.075 53.9741 439.095 53.9106 439.136C53.8518 439.173 53.8066 439.229 53.7749 439.305C53.7431 439.378 53.7272 439.468 53.7272 439.578C53.7272 439.682 53.7431 439.773 53.7749 439.849C53.8066 439.927 53.8518 439.985 53.9106 440.026C53.9741 440.062 54.0489 440.08 54.1348 440.08C54.2255 440.08 54.3002 440.062 54.359 440.026C54.418 439.985 54.4632 439.927 54.495 439.849C54.5267 439.773 54.5425 439.682 54.5425 439.578C54.5425 439.468 54.5267 439.378 54.495 439.305C54.4632 439.229 54.418 439.173 54.359 439.136C54.3002 439.095 54.2255 439.075 54.1348 439.075Z" fill="#004385"/>
<path d="M47.7527 436.823H40.9589V440.22H47.7527V436.823Z" fill="#4A4A68"/>
<path fill-rule="evenodd" clip-rule="evenodd" d="M217.995 451.774C225.25 451.774 231.131 445.892 231.131 438.636C231.131 431.381 225.25 425.499 217.995 425.499C210.739 425.499 204.858 431.381 204.858 438.636C204.858 445.892 210.739 451.774 217.995 451.774ZM217.995 450.132C224.343 450.132 229.489 444.985 229.489 438.636C229.489 432.288 224.343 427.141 217.995 427.141C211.646 427.141 206.5 432.288 206.5 438.636C206.5 444.985 211.646 450.132 217.995 450.132Z" fill="#ECF1F4"/>
<mask id="mask5_3259_44" style="mask-type:alpha" maskUnits="userSpaceOnUse" x="204" y="425" width="28" height="27">
<path fill-rule="evenodd" clip-rule="evenodd" d="M217.995 451.774C225.25 451.774 231.131 445.892 231.131 438.636C231.131 431.381 225.25 425.499 217.995 425.499C210.739 425.499 204.858 431.381 204.858 438.636C204.858 445.892 210.739 451.774 217.995 451.774ZM217.995 450.132C224.343 450.132 229.489 444.985 229.489 438.636C229.489 432.288 224.343 427.141 217.995 427.141C211.646 427.141 206.5 432.288 206.5 438.636C206.5 444.985 211.646 450.132 217.995 450.132Z" fill="#ECF1F4"/>
</mask>
<g mask="url(#mask5_3259_44)">
<path d="M217.995 425.499C220.061 425.499 222.097 425.986 223.94 426.921C225.782 427.856 227.378 429.213 228.597 430.88C229.818 432.548 230.627 434.479 230.959 436.519C231.293 438.557 231.14 440.646 230.514 442.615C229.889 444.584 228.807 446.378 227.359 447.85C225.911 449.323 224.135 450.433 222.176 451.091C220.218 451.749 218.131 451.935 216.088 451.635C214.044 451.335 212.1 450.558 210.413 449.365L217.995 438.636V425.499Z" fill="#004385"/>
</g>
<path d="M226.655 456.074H209.671V457.773H226.655V456.074Z" fill="#4A4A68"/>
<path d="M220.27 440.787L223.389 436.296H224.273L221.154 440.787H220.27ZM220.549 436.235C220.808 436.235 221.029 436.288 221.215 436.398C221.405 436.502 221.553 436.649 221.656 436.839C221.761 437.03 221.813 437.254 221.813 437.511C221.813 437.77 221.761 437.994 221.656 438.184C221.553 438.375 221.405 438.524 221.215 438.632C221.029 438.737 220.808 438.789 220.549 438.789C220.296 438.789 220.074 438.737 219.883 438.632C219.698 438.524 219.55 438.375 219.442 438.184C219.338 437.994 219.286 437.77 219.286 437.511C219.286 437.254 219.338 437.03 219.442 436.839C219.55 436.649 219.698 436.502 219.883 436.398C220.074 436.288 220.296 436.235 220.549 436.235ZM220.549 437.009C220.463 437.009 220.391 437.03 220.331 437.071C220.273 437.106 220.228 437.164 220.196 437.24C220.164 437.313 220.148 437.403 220.148 437.511C220.148 437.616 220.164 437.706 220.196 437.784C220.228 437.86 220.273 437.919 220.331 437.96C220.391 437.997 220.463 438.015 220.549 438.015C220.64 438.015 220.715 437.997 220.773 437.96C220.832 437.919 220.878 437.86 220.91 437.784C220.942 437.706 220.957 437.616 220.957 437.511C220.957 437.403 220.942 437.313 220.91 437.24C220.878 437.164 220.832 437.106 220.773 437.071C220.715 437.03 220.64 437.009 220.549 437.009ZM223.98 438.3C224.233 438.3 224.456 438.355 224.646 438.463C224.836 438.567 224.983 438.714 225.088 438.905C225.191 439.095 225.243 439.319 225.243 439.578C225.243 439.835 225.191 440.059 225.088 440.25C224.983 440.44 224.836 440.589 224.646 440.699C224.456 440.803 224.233 440.854 223.98 440.854C223.726 440.854 223.504 440.803 223.315 440.699C223.124 440.589 222.977 440.44 222.873 440.25C222.768 440.059 222.716 439.835 222.716 439.578C222.716 439.319 222.768 439.095 222.873 438.905C222.977 438.714 223.124 438.567 223.315 438.463C223.504 438.355 223.726 438.3 223.98 438.3ZM223.98 439.075C223.894 439.075 223.819 439.095 223.755 439.136C223.697 439.173 223.652 439.229 223.62 439.305C223.589 439.378 223.572 439.468 223.572 439.578C223.572 439.682 223.589 439.773 223.62 439.849C223.652 439.927 223.697 439.985 223.755 440.026C223.819 440.062 223.894 440.08 223.98 440.08C224.07 440.08 224.145 440.062 224.204 440.026C224.264 439.985 224.308 439.927 224.34 439.849C224.372 439.773 224.387 439.682 224.387 439.578C224.387 439.468 224.372 439.378 224.34 439.305C224.308 439.229 224.264 439.173 224.204 439.136C224.145 439.095 224.07 439.075 223.98 439.075Z" fill="#004385"/>
<path d="M217.598 436.823H210.804V440.22H217.598V436.823Z" fill="#4A4A68"/>
<path fill-rule="evenodd" clip-rule="evenodd" d="M251.963 451.774C259.218 451.774 265.099 445.892 265.099 438.636C265.099 431.381 259.218 425.499 251.963 425.499C244.708 425.499 238.826 431.381 238.826 438.636C238.826 445.892 244.708 451.774 251.963 451.774ZM251.963 450.132C258.312 450.132 263.459 444.985 263.459 438.636C263.459 432.288 258.312 427.141 251.963 427.141C245.616 427.141 240.47 432.288 240.47 438.636C240.47 444.985 245.616 450.132 251.963 450.132Z" fill="#ECF1F4"/>
<mask id="mask6_3259_44" style="mask-type:alpha" maskUnits="userSpaceOnUse" x="238" y="425" width="28" height="27">
<path fill-rule="evenodd" clip-rule="evenodd" d="M251.963 451.774C259.218 451.774 265.099 445.892 265.099 438.636C265.099 431.381 259.218 425.499 251.963 425.499C244.708 425.499 238.826 431.381 238.826 438.636C238.826 445.892 244.708 451.774 251.963 451.774ZM251.963 450.132C258.312 450.132 263.459 444.985 263.459 438.636C263.459 432.288 258.312 427.141 251.963 427.141C245.616 427.141 240.47 432.288 240.47 438.636C240.47 444.985 245.616 450.132 251.963 450.132Z" fill="#ECF1F4"/>
</mask>
<g mask="url(#mask6_3259_44)">
<path d="M239.315 435.088C238.571 437.737 238.68 440.552 239.621 443.136C240.564 445.72 242.292 447.943 244.565 449.493C246.839 451.042 249.54 451.838 252.289 451.77C255.04 451.702 257.698 450.772 259.892 449.112C262.084 447.452 263.7 445.145 264.513 442.518C265.326 439.89 265.293 437.073 264.419 434.464C263.546 431.856 261.876 429.587 259.645 427.979C257.413 426.37 254.734 425.503 251.982 425.499L251.963 438.636L239.315 435.088Z" fill="#004385"/>
</g>
<path d="M260.625 456.074H243.64V457.773H260.625V456.074Z" fill="#4A4A68"/>
<path d="M253.953 440.787L257.071 436.296H257.956L254.837 440.787H253.953ZM254.232 436.235C254.491 436.235 254.712 436.288 254.898 436.398C255.088 436.502 255.235 436.649 255.339 436.839C255.444 437.03 255.496 437.254 255.496 437.511C255.496 437.77 255.444 437.994 255.339 438.184C255.235 438.375 255.088 438.524 254.898 438.632C254.712 438.737 254.491 438.789 254.232 438.789C253.979 438.789 253.757 438.737 253.566 438.632C253.38 438.524 253.233 438.375 253.125 438.184C253.021 437.994 252.968 437.77 252.968 437.511C252.968 437.254 253.021 437.03 253.125 436.839C253.233 436.649 253.38 436.502 253.566 436.398C253.757 436.288 253.979 436.235 254.232 436.235ZM254.232 437.009C254.145 437.009 254.073 437.03 254.014 437.071C253.956 437.106 253.91 437.164 253.879 437.24C253.847 437.313 253.831 437.403 253.831 437.511C253.831 437.616 253.847 437.706 253.879 437.784C253.91 437.86 253.956 437.919 254.014 437.96C254.073 437.997 254.145 438.015 254.232 438.015C254.323 438.015 254.398 437.997 254.456 437.96C254.515 437.919 254.561 437.86 254.593 437.784C254.623 437.706 254.64 437.616 254.64 437.511C254.64 437.403 254.623 437.313 254.593 437.24C254.561 437.164 254.515 437.106 254.456 437.071C254.398 437.03 254.323 437.009 254.232 437.009ZM257.663 438.3C257.916 438.3 258.139 438.355 258.329 438.463C258.519 438.567 258.666 438.714 258.771 438.905C258.874 439.095 258.926 439.319 258.926 439.578C258.926 439.835 258.874 440.059 258.771 440.25C258.666 440.44 258.519 440.589 258.329 440.699C258.139 440.803 257.916 440.854 257.663 440.854C257.409 440.854 257.187 440.803 256.998 440.699C256.807 440.589 256.66 440.44 256.556 440.25C256.451 440.059 256.399 439.835 256.399 439.578C256.399 439.319 256.451 439.095 256.556 438.905C256.66 438.714 256.807 438.567 256.998 438.463C257.187 438.355 257.409 438.3 257.663 438.3ZM257.663 439.075C257.577 439.075 257.502 439.095 257.438 439.136C257.38 439.173 257.334 439.229 257.303 439.305C257.271 439.378 257.255 439.468 257.255 439.578C257.255 439.682 257.271 439.773 257.303 439.849C257.334 439.927 257.38 439.985 257.438 440.026C257.502 440.062 257.577 440.08 257.663 440.08C257.753 440.08 257.828 440.062 257.887 440.026C257.945 439.985 257.991 439.927 258.023 439.849C258.055 439.773 258.07 439.682 258.07 439.578C258.07 439.468 258.055 439.378 258.023 439.305C257.991 439.229 257.945 439.173 257.887 439.136C257.828 439.095 257.753 439.075 257.663 439.075Z" fill="#004385"/>
<path d="M251.282 436.823H244.488V440.22H251.282V436.823Z" fill="#4A4A68"/>
<path fill-rule="evenodd" clip-rule="evenodd" d="M285.934 451.774C293.189 451.774 299.07 445.892 299.07 438.636C299.07 431.381 293.189 425.499 285.934 425.499C278.678 425.499 272.797 431.381 272.797 438.636C272.797 445.892 278.678 451.774 285.934 451.774ZM285.934 450.132C292.282 450.132 297.428 444.985 297.428 438.636C297.428 432.288 292.282 427.141 285.934 427.141C279.585 427.141 274.439 432.288 274.439 438.636C274.439 444.985 279.585 450.132 285.934 450.132Z" fill="#ECF1F4"/>
<mask id="mask7_3259_44" style="mask-type:alpha" maskUnits="userSpaceOnUse" x="272" y="425" width="28" height="27">
<path fill-rule="evenodd" clip-rule="evenodd" d="M285.934 451.774C293.189 451.774 299.07 445.892 299.07 438.636C299.07 431.381 293.189 425.499 285.934 425.499C278.678 425.499 272.797 431.381 272.797 438.636C272.797 445.892 278.678 451.774 285.934 451.774ZM285.934 450.132C292.282 450.132 297.428 444.985 297.428 438.636C297.428 432.288 292.282 427.141 285.934 427.141C279.585 427.141 274.439 432.288 274.439 438.636C274.439 444.985 279.585 450.132 285.934 450.132Z" fill="#ECF1F4"/>
</mask>
<g mask="url(#mask7_3259_44)">
<path d="M290.737 450.865C293.599 449.74 295.977 447.647 297.455 444.95C298.932 442.251 299.417 439.121 298.824 436.102C298.231 433.084 296.598 430.371 294.208 428.433C291.819 426.495 288.827 425.457 285.751 425.5L285.934 438.636L290.737 450.865Z" fill="#004385"/>
</g>
<path d="M294.594 456.074H277.61V457.773H294.594V456.074Z" fill="#4A4A68"/>
<path d="M287.925 440.787L291.044 436.296H291.926L288.808 440.787H287.925ZM288.203 436.235C288.461 436.235 288.683 436.288 288.869 436.398C289.059 436.502 289.207 436.649 289.311 436.839C289.414 437.03 289.467 437.254 289.467 437.511C289.467 437.77 289.414 437.994 289.311 438.184C289.207 438.375 289.059 438.524 288.869 438.632C288.683 438.737 288.461 438.789 288.203 438.789C287.949 438.789 287.728 438.737 287.538 438.632C287.352 438.524 287.204 438.375 287.096 438.184C286.991 437.994 286.939 437.77 286.939 437.511C286.939 437.254 286.991 437.03 287.096 436.839C287.204 436.649 287.352 436.502 287.538 436.398C287.728 436.288 287.949 436.235 288.203 436.235ZM288.203 437.009C288.118 437.009 288.045 437.03 287.986 437.071C287.926 437.106 287.882 437.164 287.85 437.24C287.818 437.313 287.803 437.403 287.803 437.511C287.803 437.616 287.818 437.706 287.85 437.784C287.882 437.86 287.926 437.919 287.986 437.96C288.045 437.997 288.118 438.015 288.203 438.015C288.293 438.015 288.369 437.997 288.427 437.96C288.487 437.919 288.532 437.86 288.563 437.784C288.595 437.706 288.611 437.616 288.611 437.511C288.611 437.403 288.595 437.313 288.563 437.24C288.532 437.164 288.487 437.106 288.427 437.071C288.369 437.03 288.293 437.009 288.203 437.009ZM291.635 438.3C291.888 438.3 292.11 438.355 292.3 438.463C292.491 438.567 292.637 438.714 292.742 438.905C292.846 439.095 292.898 439.319 292.898 439.578C292.898 439.835 292.846 440.059 292.742 440.25C292.637 440.44 292.491 440.589 292.3 440.699C292.11 440.803 291.888 440.854 291.635 440.854C291.381 440.854 291.158 440.803 290.968 440.699C290.779 440.589 290.631 440.44 290.526 440.25C290.423 440.059 290.371 439.835 290.371 439.578C290.371 439.319 290.423 439.095 290.526 438.905C290.631 438.714 290.779 438.567 290.968 438.463C291.158 438.355 291.381 438.3 291.635 438.3ZM291.635 439.075C291.548 439.075 291.473 439.095 291.41 439.136C291.351 439.173 291.306 439.229 291.274 439.305C291.242 439.378 291.227 439.468 291.227 439.578C291.227 439.682 291.242 439.773 291.274 439.849C291.306 439.927 291.351 439.985 291.41 440.026C291.473 440.062 291.548 440.08 291.635 440.08C291.725 440.08 291.799 440.062 291.859 440.026C291.917 439.985 291.962 439.927 291.994 439.849C292.026 439.773 292.042 439.682 292.042 439.578C292.042 439.468 292.026 439.378 291.994 439.305C291.962 439.229 291.917 439.173 291.859 439.136C291.799 439.095 291.725 439.075 291.635 439.075Z" fill="#004385"/>
<path d="M285.252 436.823H278.458V440.22H285.252V436.823Z" fill="#4A4A68"/>
<path d="M162.398 474.758H26.5215V542.702H162.398V474.758Z" fill="white"/>
<path d="M66.1506 483.251H35.0123V484.95H66.1506V483.251Z" fill="#4A4A68"/>
<path d="M128.142 512.411H102.666V514.109H128.142V512.411Z" fill="#4A4A68"/>
<path d="M138.052 512.411H130.975V514.109H138.052V512.411Z" fill="#4A4A68"/>
<path d="M98.4203 510.995H91.6264V515.525H98.4203V510.995Z" fill="#F68C3E"/>
<path d="M128.142 502.219H102.666V503.918H128.142V502.219Z" fill="#4A4A68"/>
<path d="M138.052 502.219H130.975V503.918H138.052V502.219Z" fill="#4A4A68"/>
<path d="M98.4203 500.804H91.6264V505.333H98.4203V500.804Z" fill="#004385"/>
<path d="M128.142 522.602H102.666V524.301H128.142V522.602Z" fill="#4A4A68"/>
<path d="M138.052 522.602H130.975V524.301H138.052V522.602Z" fill="#4A4A68"/>
<path d="M98.4203 521.187H91.6264V525.716H98.4203V521.187Z" fill="#ECF1F4"/>
<path d="M57.658 535.908C70.1651 535.908 80.3041 525.768 80.3041 513.26C80.3041 500.752 70.1651 490.612 57.658 490.612C45.1509 490.612 35.0119 500.752 35.0119 513.26C35.0119 525.768 45.1509 535.908 57.658 535.908Z" fill="#ECF1F4"/>
<path d="M57.6578 490.613C62.7906 490.613 67.7713 492.357 71.7833 495.559C75.7952 498.761 78.6006 503.23 79.7394 508.236C80.8783 513.241 80.283 518.486 78.0513 523.108C75.8196 527.731 72.0838 531.459 67.4563 533.679C62.8287 535.901 57.5839 536.483 52.5816 535.333C47.5794 534.182 43.1164 531.366 39.9241 527.346C36.7319 523.327 34.9997 518.342 35.0118 513.208C35.0238 508.075 36.7791 503.098 39.9901 499.093L57.6578 513.262V490.613Z" fill="#F68C3E"/>
<path d="M45.8012 532.555C48.7992 534.399 52.1852 535.517 55.6908 535.823C59.1963 536.129 62.7249 535.613 65.9965 534.317C69.2681 533.022 72.1928 530.981 74.5385 528.358C76.8843 525.735 78.5865 522.601 79.5102 519.206C80.4338 515.809 80.5536 512.245 79.8598 508.795C79.1661 505.345 77.678 502.104 75.5136 499.33C73.3492 496.555 70.568 494.323 67.3908 492.811C64.2135 491.299 60.7275 490.547 57.2094 490.617L57.6582 513.26L45.8012 532.555Z" fill="#004385"/>
<path d="M306.767 551.196H170.89V630.338H306.767V551.196Z" fill="white"/>
<path d="M210.519 559.688H179.381V561.387H210.519V559.688Z" fill="#4A4A68"/>
<path d="M272.51 583.753H247.034V585.452H272.51V583.753Z" fill="#4A4A68"/>
<path d="M282.418 583.753H275.341V585.452H282.418V583.753Z" fill="#4A4A68"/>
<path d="M242.788 582.336H235.995V586.866H242.788V582.336Z" fill="#004385"/>
<path d="M272.51 573.562H247.034V575.26H272.51V573.562Z" fill="#4A4A68"/>
<path d="M282.418 573.562H275.341V575.26H282.418V573.562Z" fill="#4A4A68"/>
<path d="M242.788 572.146H235.995V576.676H242.788V572.146Z" fill="#022A68"/>
<path d="M272.51 593.945H247.034V595.643H272.51V593.945Z" fill="#4A4A68"/>
<path d="M282.418 593.945H275.341V595.643H282.418V593.945Z" fill="#4A4A68"/>
<path d="M242.788 592.529H235.995V597.059H242.788V592.529Z" fill="#F68C3E"/>
<path d="M272.51 604.136H247.034V605.835H272.51V604.136Z" fill="#4A4A68"/>
<path d="M282.418 604.136H275.341V605.835H282.418V604.136Z" fill="#4A4A68"/>
<path d="M242.788 602.721H235.995V607.25H242.788V602.721Z" fill="#F2C94C"/>
<path d="M202.028 612.347C214.535 612.347 224.674 602.207 224.674 589.699C224.674 577.19 214.535 567.051 202.028 567.051C189.52 567.051 179.381 577.19 179.381 589.699C179.381 602.207 189.52 612.347 202.028 612.347Z" fill="#F68C3E"/>
<path d="M224.673 589.699C224.673 585.218 223.345 580.84 220.856 577.116C218.368 573.391 214.831 570.489 210.693 568.774C206.555 567.061 202.002 566.611 197.609 567.485C193.216 568.359 189.181 570.517 186.014 573.684L202.028 589.699H224.673Z" fill="#F2C94C"/>
<path d="M183.71 603.017C185.977 606.136 189.005 608.624 192.503 610.246C196.002 611.868 199.858 612.57 203.704 612.285C207.55 611.998 211.259 610.735 214.481 608.614C217.701 606.493 220.328 603.585 222.11 600.164C223.892 596.744 224.771 592.924 224.664 589.069C224.557 585.213 223.466 581.45 221.497 578.132C219.528 574.816 216.744 572.058 213.411 570.119C210.077 568.18 206.303 567.126 202.447 567.054L202.026 589.699L183.71 603.017Z" fill="#004385"/>
<g filter="url(#filter1_d_3259_44)">
<path d="M206.21 611.956C211.777 610.91 216.751 607.814 220.148 603.281C223.545 598.747 225.121 593.105 224.563 587.468C224.005 581.829 221.356 576.605 217.135 572.826C212.915 569.047 207.431 566.985 201.766 567.052L202.027 589.697L206.21 611.956Z" fill="#022A68"/>
<mask id="mask8_3259_44" style="mask-type:luminance" maskUnits="userSpaceOnUse" x="201" y="567" width="24" height="45">
<path d="M206.21 611.956C211.777 610.91 216.751 607.814 220.148 603.281C223.545 598.747 225.121 593.105 224.563 587.468C224.005 581.829 221.356 576.605 217.135 572.826C212.915 569.047 207.431 566.985 201.766 567.052L202.027 589.697L206.21 611.956Z" fill="white"/>
</mask>
<g mask="url(#mask8_3259_44)">
<path d="M206.21 611.956C211.777 610.91 216.751 607.814 220.148 603.281C223.545 598.747 225.121 593.105 224.563 587.468C224.005 581.829 221.356 576.605 217.135 572.826C212.915 569.047 207.431 566.985 201.766 567.052L202.027 589.697L206.21 611.956Z" stroke="black" stroke-width="2"/>
</g>
</g>
<path d="M299.051 530.92V490.612" stroke="#DEDFE1"/>
<path d="M185.042 528.831V531.096H187.873V528.831H185.042Z" fill="#8C8CA1"/>
<path d="M185.042 517.789V520.054H187.873V517.789H185.042Z" fill="#8C8CA1"/>
<path d="M185.042 523.735V526H187.873V523.735H185.042Z" fill="#8C8CA1"/>
<path d="M185.042 511.845V514.11H187.873V511.845H185.042Z" fill="#8C8CA1"/>
<path d="M185.042 506.182V508.447H187.873V506.182H185.042Z" fill="#8C8CA1"/>
<path d="M185.042 500.237V502.502H187.873V500.237H185.042Z" fill="#8C8CA1"/>
<path d="M185.042 494.293V496.558H187.873V494.293H185.042Z" fill="#8C8CA1"/>
<path d="M180.514 497.973V523.452H182.212V497.973H180.514Z" fill="#8C8CA1"/>
<path d="M190.264 525.244H299.689" stroke="#DEDFE1"/>
<path d="M189.627 531.12V490.813" stroke="#DEDFE1"/>
<path d="M277.287 530.92V490.612" stroke="#DEDFE1"/>
<path d="M255.321 530.92V490.612" stroke="#DEDFE1"/>
<path d="M233.355 530.92V490.612" stroke="#DEDFE1"/>
<path d="M211.389 530.92V490.612" stroke="#DEDFE1"/>
<path opacity="0.5" d="M188.448 530.048H299.688" stroke="#DEDFE1" stroke-width="2"/>
<path opacity="0.5" d="M190.264 519.399H299.689" stroke="#DEDFE1"/>
<path opacity="0.5" d="M190.264 513.556H299.689" stroke="#DEDFE1"/>
<path opacity="0.5" d="M190.264 507.71H299.689" stroke="#DEDFE1"/>
<path opacity="0.5" d="M190.264 501.866H299.689" stroke="#DEDFE1"/>
<path opacity="0.5" d="M190.264 496.021H299.689" stroke="#DEDFE1"/>
<path opacity="0.5" d="M190.264 490.176H299.689" stroke="#DEDFE1"/>
<path d="M234.193 500.689V530.92H255.554V500.689H234.193Z" fill="#004385"/>
<path d="M212.228 517.215V530.92H233.589V517.215H212.228Z" fill="#004385"/>
<path d="M278.126 522.858V530.92H299.487V522.858H278.126Z" fill="#004385"/>
<path d="M190.264 526.083V530.92H211.625V526.083H190.264Z" fill="#004385"/>
<path d="M206.273 534.209H195.516V535.908H206.273V534.209Z" fill="#4A4A68"/>
<path d="M228.353 534.209H217.596V535.908H228.353V534.209Z" fill="#4A4A68"/>
<path d="M250.433 534.209H239.676V535.908H250.433V534.209Z" fill="#4A4A68"/>
<path d="M272.795 534.209H262.038V535.908H272.795V534.209Z" fill="#4A4A68"/>
<path d="M294.31 534.209H283.553V535.908H294.31V534.209Z" fill="#4A4A68"/>
<path d="M256.158 505.526V530.92H277.519V505.526H256.158Z" fill="#004385"/>
<g filter="url(#filter2_d_3259_44)">
<path fill-rule="evenodd" clip-rule="evenodd" d="M262.809 493.836C260.027 493.836 257.771 496.093 257.771 498.875C257.771 501.657 260.027 503.913 262.809 503.913H266.009C266.443 504.42 267.234 504.42 267.669 503.913H270.87C273.652 503.913 275.908 501.657 275.908 498.875C275.908 496.093 273.652 493.836 270.87 493.836H262.809Z" fill="#ECF1F4"/>
</g>
<g filter="url(#filter3_d_3259_44)">
<path d="M266.839 504.922C267.173 504.922 267.444 505.192 267.444 505.526C267.444 505.86 267.173 506.131 266.839 506.131C266.505 506.131 266.235 505.86 266.235 505.526C266.235 505.192 266.505 504.922 266.839 504.922Z" fill="white"/>
</g>
<path d="M272.23 498.256H261.473V499.954H272.23V498.256Z" fill="#4A4A68"/>
<path d="M57.0929 612.91H51.4314V614.609H57.0929V612.91Z" fill="#4A4A68"/>
<path d="M79.173 612.91H73.5115V614.609H79.173V612.91Z" fill="#4A4A68"/>
<path d="M101.536 612.91H95.8741V614.609H101.536V612.91Z" fill="#4A4A68"/>
<path d="M123.617 612.91H117.955V614.609H123.617V612.91Z" fill="#4A4A68"/>
<path d="M145.979 612.91H140.318V614.609H145.979V612.91Z" fill="#4A4A68"/>
<path d="M39.542 606.683V608.948H42.3727V606.683H39.542Z" fill="#8C8CA1"/>
<path d="M39.542 599.606V601.871H42.3727V599.606H39.542Z" fill="#8C8CA1"/>
<path d="M39.5419 592.81V595.075H42.3727V592.81H39.5419Z" fill="#8C8CA1"/>
<path d="M39.542 586.016V588.281H42.3727V586.016H39.542Z" fill="#8C8CA1"/>
<path d="M39.542 579.222V581.487H42.3727V579.222H39.542Z" fill="#8C8CA1"/>
<path d="M39.542 572.711V574.976H42.3727V572.711H39.542Z" fill="#8C8CA1"/>
<path d="M39.5419 566.2V568.464H42.3727V566.2H39.5419Z" fill="#8C8CA1"/>
<path d="M35.0132 575.825V601.304H36.7117V575.825H35.0132Z" fill="#8C8CA1"/>
<path d="M43.6228 601.126H154.754" stroke="#DEDFE1"/>
<path d="M43.6228 594.41H154.754" stroke="#DEDFE1"/>
<path d="M43.6228 587.692H154.754" stroke="#DEDFE1"/>
<path d="M43.6228 574.261H154.754" stroke="#DEDFE1"/>
<path d="M43.6228 567.748H154.754" stroke="#DEDFE1"/>
<path d="M42.9859 608.886V568.182" stroke="#DEDFE1"/>
<path d="M131.891 608.886V568.182" stroke="#DEDFE1"/>
<path d="M154.117 608.886V568.182" stroke="#DEDFE1"/>
<path d="M109.665 608.886V568.182" stroke="#DEDFE1"/>
<path d="M87.4379 608.886V568.182" stroke="#DEDFE1"/>
<path d="M65.2117 608.886V568.182" stroke="#DEDFE1"/>
<path opacity="0.5" d="M43.6228 607.612H154.754" stroke="#DEDFE1" stroke-width="2"/>
<path opacity="0.5" d="M43.6228 580.977H154.754" stroke="#DEDFE1"/>
<path d="M94.6013 578.561V609.089H102.758V578.561H94.6013Z" fill="#004385"/>
<path d="M72.3751 583.445V609.089H80.5315V583.445H72.3751Z" fill="#004385"/>
<path d="M116.828 583.445V609.089H124.984V583.445H116.828Z" fill="#004385"/>
<path d="M139.054 598.099V609.089H147.21V598.099H139.054Z" fill="#004385"/>
<path d="M50.1485 605.833V608.885H58.3049V605.833H50.1485Z" fill="#004385"/>
<g filter="url(#filter4_d_3259_44)">
<path fill-rule="evenodd" clip-rule="evenodd" d="M69.9727 576.675C68.4875 576.675 67.2834 577.879 67.2834 579.364C67.2834 580.85 68.4875 582.053 69.9727 582.053H75.6396C76.0749 582.525 76.8286 582.525 77.2639 582.053H82.9943C84.4794 582.053 85.6835 580.85 85.6835 579.364C85.6835 577.879 84.4794 576.675 82.9943 576.675H69.9727Z" fill="#ECF1F4"/>
</g>
<path d="M82.8513 578.94H70.3959V580.639H82.8513V578.94Z" fill="#4A4A68"/>
<g filter="url(#filter5_d_3259_44)">
<path d="M76.4519 583.038C76.7898 583.038 77.0636 583.311 77.0636 583.649C77.0636 583.986 76.7898 584.259 76.4519 584.259C76.1141 584.259 75.8402 583.986 75.8402 583.649C75.8402 583.311 76.1141 583.038 76.4519 583.038Z" fill="white"/>
</g>
<path d="M49.4487 385.583H40.9564V388.414H49.4487V385.583Z" fill="#4A4A68"/>
<path d="M52.2804 391.244H38.1266V392.376H52.2804V391.244Z" fill="#8C8CA1"/>
<path d="M68.9814 385.583H60.4892V388.414H68.9814V385.583Z" fill="#4A4A68"/>
<path d="M71.8132 391.244H57.6594V392.376H71.8132V391.244Z" fill="#8C8CA1"/>
<path d="M88.7972 385.583H80.3049V388.414H88.7972V385.583Z" fill="#4A4A68"/>
<path d="M91.6268 391.244H77.473V392.376H91.6268V391.244Z" fill="#8C8CA1"/>
<path d="M107.762 385.583H99.2701V388.414H107.762V385.583Z" fill="#4A4A68"/>
<path d="M110.594 391.244H96.44V392.376H110.594V391.244Z" fill="#8C8CA1"/>
<path d="M127.578 385.583H119.086V388.414H127.578V385.583Z" fill="#4A4A68"/>
<path d="M130.41 391.244H116.256V392.376H130.41V391.244Z" fill="#8C8CA1"/>
<path d="M147.395 385.583H138.902V388.414H147.395V385.583Z" fill="#4A4A68"/>
<path d="M150.224 391.244H136.071V392.376H150.224V391.244Z" fill="#8C8CA1"/>
<g filter="url(#filter6_d_3259_44)">
<path d="M886.594 19.1091H352.743V473.909H886.594V19.1091Z" fill="#ECF1F4"/>
</g>
<path d="M886.594 19.1091H352.743V53.7134H886.594V19.1091Z" fill="white"/>
<path d="M387.345 55.6904H352.743V473.909H387.345V55.6904Z" fill="white"/>
<path d="M377.458 70.5208H362.628V85.3512H377.458V70.5208Z" fill="#004385"/>
<path d="M377.458 119.956H362.628V134.786H377.458V119.956Z" fill="#004385"/>
<path d="M377.458 169.391H362.628V184.221H377.458V169.391Z" fill="#004385"/>
<path d="M377.458 218.828H362.628V233.658H377.458V218.828Z" fill="#004385"/>
<path d="M377.458 268.261H362.628V283.091H377.458V268.261Z" fill="#004385"/>
<path d="M412.059 35.9175H382.401V40.861H412.059V35.9175Z" fill="#8C8CA1"/>
<path d="M377.458 33.4443H362.628V43.3313H377.458V33.4443Z" fill="#4A4A68"/>
<path d="M871.766 38.3901C871.766 34.2948 868.446 30.9749 864.351 30.9749C860.256 30.9749 856.936 34.2948 856.936 38.3901C856.936 42.4854 860.256 45.8053 864.351 45.8053C868.446 45.8053 871.766 42.4854 871.766 38.3901Z" fill="#8C8CA1"/>
<path d="M847.05 34.4353H832.221V42.3449H847.05V34.4353Z" fill="#8C8CA1"/>
<path d="M822.335 34.4353H807.506V42.3449H822.335V34.4353Z" fill="#8C8CA1"/>
<path d="M797.62 34.4353H782.791V42.3449H797.62V34.4353Z" fill="#8C8CA1"/>
<path d="M886.594 52.7251H352.743V53.7138H886.594V52.7251Z" fill="#DEDFE1"/>
<path d="M461.49 70.522H402.174V75.4654H461.49V70.522Z" fill="#4A4A68"/>
<path d="M871.763 68.0505H832.219V77.9375H871.763V68.0505Z" fill="#004385"/>
<path d="M869.216 95.4307H404.721C403.42 95.4307 402.365 96.4858 402.365 97.7875V122.353C402.365 123.654 403.42 124.709 404.721 124.709H869.216C870.518 124.709 871.573 123.654 871.573 122.353V97.7875C871.573 96.4858 870.518 95.4307 869.216 95.4307Z" fill="white" stroke="#DEDFE1" stroke-width="0.3"/>
<path d="M738.3 109.08H708.642V111.552H738.3V109.08Z" fill="#8C8CA1"/>
<path d="M656.74 109.08H627.082V111.552H656.74V109.08Z" fill="#8C8CA1"/>
<path d="M461.491 107.598H417.004V112.541H461.491V107.598Z" fill="#004385"/>
<path d="M851.993 105.127H792.676V115.014H851.993V105.127Z" fill="#004385"/>
<path d="M870.49 382.153H403.447C402.849 382.153 402.365 382.638 402.365 383.236V410.349C402.365 410.947 402.849 411.432 403.447 411.432H870.49C871.088 411.432 871.573 410.947 871.573 410.349V383.236C871.573 382.638 871.088 382.153 870.49 382.153Z" fill="white" stroke="#DEDFE1" stroke-width="0.3"/>
<path d="M738.3 395.802H708.642V398.274H738.3V395.802Z" fill="#8C8CA1"/>
<path d="M656.74 395.802H627.082V398.274H656.74V395.802Z" fill="#8C8CA1"/>
<path d="M461.491 394.318H417.004V399.261H461.491V394.318Z" fill="#004385"/>
<path d="M851.993 391.846H792.676V401.733H851.993V391.846Z" fill="#004385"/>
<path d="M859.025 135.425H414.912C408.229 135.425 402.81 140.843 402.81 147.527V161.596C402.81 168.28 408.229 173.698 414.912 173.698H859.025C865.709 173.698 871.127 168.28 871.127 161.596V147.527C871.127 140.843 865.709 135.425 859.025 135.425Z" fill="white" stroke="#DEDFE1"/>
<path d="M870.49 134.979H403.447C402.849 134.979 402.365 135.464 402.365 136.062V173.062C402.365 173.66 402.849 174.144 403.447 174.144H870.49C871.088 174.144 871.573 173.66 871.573 173.062V136.062C871.573 135.464 871.088 134.979 870.49 134.979Z" fill="white" stroke="#DEDFE1" stroke-width="0.3"/>
<path d="M738.3 148.63H708.642V151.102H738.3V148.63Z" fill="#8C8CA1"/>
<path d="M758.073 161.483H708.642V166.427H758.073V161.483Z" fill="#8C8CA1"/>
<path d="M748.187 161.483H708.642V166.427H748.187V161.483Z" fill="#004385"/>
<path d="M772.903 161.482H765.489V166.425H772.903V161.482Z" fill="#8C8CA1"/>
<path d="M656.74 148.63H627.082V151.102H656.74V148.63Z" fill="#8C8CA1"/>
<path d="M656.74 162.969H627.082V165.44H656.74V162.969Z" fill="#8C8CA1"/>
<path d="M456.547 162.969H426.889V165.44H456.547V162.969Z" fill="#8C8CA1"/>
<path d="M421.947 161.978H417.004V166.921H421.947V161.978Z" fill="#004385"/>
<path d="M509.438 162.969H479.78V165.44H509.438V162.969Z" fill="#8C8CA1"/>
<path d="M474.837 161.978H469.894V166.921H474.837V161.978Z" fill="#004385"/>
<path d="M562.327 162.969H532.668V165.44H562.327V162.969Z" fill="#8C8CA1"/>
<path d="M527.727 161.978H522.783V166.921H527.727V161.978Z" fill="#004385"/>
<path d="M615.219 162.969H585.561V165.44H615.219V162.969Z" fill="#8C8CA1"/>
<path d="M580.618 161.978H575.675V166.921H580.618V161.978Z" fill="#004385"/>
<path d="M461.491 147.149H417.004V152.092H461.491V147.149Z" fill="#004385"/>
<path d="M851.991 144.675H842.105V154.562H851.991V144.675Z" fill="#004385"/>
<path d="M834.692 144.675H824.806V154.562H834.692V144.675Z" fill="#F68C3E"/>
<path d="M817.391 144.675H807.505V154.562H817.391V144.675Z" fill="#004385"/>
<path d="M800.09 144.675H790.204V154.562H800.09V144.675Z" fill="#004385"/>
<path d="M859.025 184.859H414.912C408.229 184.859 402.81 190.277 402.81 196.961V211.03C402.81 217.714 408.229 223.133 414.912 223.133H859.025C865.709 223.133 871.127 217.714 871.127 211.03V196.961C871.127 190.277 865.709 184.859 859.025 184.859Z" fill="white" stroke="#DEDFE1"/>
<path d="M870.49 184.413H403.447C402.849 184.413 402.365 184.898 402.365 185.496V222.496C402.365 223.094 402.849 223.579 403.447 223.579H870.49C871.088 223.579 871.573 223.094 871.573 222.496V185.496C871.573 184.898 871.088 184.413 870.49 184.413Z" fill="white" stroke="#DEDFE1" stroke-width="0.3"/>
<path d="M738.3 198.065H708.642V200.536H738.3V198.065Z" fill="#8C8CA1"/>
<path d="M758.073 210.918H708.642V215.861H758.073V210.918Z" fill="#8C8CA1"/>
<path d="M748.187 210.918H708.642V215.861H748.187V210.918Z" fill="#004385"/>
<path d="M772.903 210.918H765.489V215.861H772.903V210.918Z" fill="#8C8CA1"/>
<path d="M656.74 198.065H627.082V200.536H656.74V198.065Z" fill="#8C8CA1"/>
<path d="M656.74 212.402H627.082V214.874H656.74V212.402Z" fill="#8C8CA1"/>
<path d="M456.547 212.402H426.889V214.874H456.547V212.402Z" fill="#8C8CA1"/>
<path d="M421.947 211.412H417.004V216.355H421.947V211.412Z" fill="#004385"/>
<path d="M509.438 212.402H479.78V214.874H509.438V212.402Z" fill="#8C8CA1"/>
<path d="M474.837 211.412H469.894V216.355H474.837V211.412Z" fill="#004385"/>
<path d="M562.327 212.402H532.668V214.874H562.327V212.402Z" fill="#8C8CA1"/>
<path d="M527.727 211.412H522.783V216.355H527.727V211.412Z" fill="#004385"/>
<path d="M615.219 212.402H585.561V214.874H615.219V212.402Z" fill="#8C8CA1"/>
<path d="M580.618 211.412H575.675V216.355H580.618V211.412Z" fill="#004385"/>
<path d="M461.491 196.582H417.004V201.525H461.491V196.582Z" fill="#004385"/>
<path d="M851.991 194.11H842.105V203.997H851.991V194.11Z" fill="#004385"/>
<path d="M834.692 194.11H824.806V203.997H834.692V194.11Z" fill="#F68C3E"/>
<path d="M817.391 194.11H807.505V203.997H817.391V194.11Z" fill="#004385"/>
<path d="M800.09 194.11H790.204V203.997H800.09V194.11Z" fill="#004385"/>
<path d="M859.025 234.292H414.912C408.229 234.292 402.81 239.71 402.81 246.395V260.463C402.81 267.147 408.229 272.566 414.912 272.566H859.025C865.709 272.566 871.127 267.147 871.127 260.463V246.395C871.127 239.71 865.709 234.292 859.025 234.292Z" fill="white" stroke="#DEDFE1"/>
<path d="M870.49 233.846H403.447C402.849 233.846 402.365 234.331 402.365 234.929V271.929C402.365 272.527 402.849 273.012 403.447 273.012H870.49C871.088 273.012 871.573 272.527 871.573 271.929V234.929C871.573 234.331 871.088 233.846 870.49 233.846Z" fill="white" stroke="#DEDFE1" stroke-width="0.3"/>
<path d="M738.3 247.497H708.642V249.968H738.3V247.497Z" fill="#8C8CA1"/>
<path d="M758.073 260.349H708.642V265.293H758.073V260.349Z" fill="#8C8CA1"/>
<path d="M748.187 260.349H708.642V265.293H748.187V260.349Z" fill="#004385"/>
<path d="M772.903 260.349H765.489V265.293H772.903V260.349Z" fill="#8C8CA1"/>
<path d="M656.74 247.497H627.082V249.968H656.74V247.497Z" fill="#8C8CA1"/>
<path d="M656.74 261.833H627.082V264.305H656.74V261.833Z" fill="#8C8CA1"/>
<path d="M456.547 261.833H426.889V264.305H456.547V261.833Z" fill="#8C8CA1"/>
<path d="M421.947 260.844H417.004V265.787H421.947V260.844Z" fill="#004385"/>
<path d="M509.438 261.833H479.78V264.305H509.438V261.833Z" fill="#8C8CA1"/>
<path d="M474.837 260.844H469.894V265.787H474.837V260.844Z" fill="#004385"/>
<path d="M562.327 261.833H532.668V264.305H562.327V261.833Z" fill="#8C8CA1"/>
<path d="M527.727 260.844H522.783V265.787H527.727V260.844Z" fill="#004385"/>
<path d="M615.219 261.833H585.561V264.305H615.219V261.833Z" fill="#8C8CA1"/>
<path d="M580.618 260.844H575.675V265.787H580.618V260.844Z" fill="#004385"/>
<path d="M461.491 246.014H417.004V250.957H461.491V246.014Z" fill="#004385"/>
<path d="M851.991 243.541H842.105V253.428H851.991V243.541Z" fill="#004385"/>
<path d="M834.692 243.541H824.806V253.428H834.692V243.541Z" fill="#F68C3E"/>
<path d="M817.391 243.541H807.505V253.428H817.391V243.541Z" fill="#004385"/>
<path d="M800.09 243.541H790.204V253.428H800.09V243.541Z" fill="#004385"/>
<path d="M859.025 283.729H414.912C408.229 283.729 402.81 289.147 402.81 295.832V309.9C402.81 316.584 408.229 322.003 414.912 322.003H859.025C865.709 322.003 871.127 316.584 871.127 309.9V295.832C871.127 289.147 865.709 283.729 859.025 283.729Z" fill="white" stroke="#DEDFE1"/>
<path d="M870.49 283.283H403.447C402.849 283.283 402.365 283.768 402.365 284.366V321.366C402.365 321.964 402.849 322.449 403.447 322.449H870.49C871.088 322.449 871.573 321.964 871.573 321.366V284.366C871.573 283.768 871.088 283.283 870.49 283.283Z" fill="white" stroke="#DEDFE1" stroke-width="0.3"/>
<path d="M738.3 296.933H708.642V299.405H738.3V296.933Z" fill="#8C8CA1"/>
<path d="M758.073 309.788H708.642V314.731H758.073V309.788Z" fill="#8C8CA1"/>
<path d="M748.187 309.788H708.642V314.731H748.187V309.788Z" fill="#004385"/>
<path d="M772.903 309.785H765.489V314.729H772.903V309.785Z" fill="#8C8CA1"/>
<path d="M656.74 296.933H627.082V299.405H656.74V296.933Z" fill="#8C8CA1"/>
<path d="M656.74 311.269H627.082V313.741H656.74V311.269Z" fill="#8C8CA1"/>
<path d="M456.547 311.269H426.889V313.741H456.547V311.269Z" fill="#8C8CA1"/>
<path d="M421.947 310.281H417.004V315.224H421.947V310.281Z" fill="#004385"/>
<path d="M509.438 311.269H479.78V313.741H509.438V311.269Z" fill="#8C8CA1"/>
<path d="M474.837 310.281H469.894V315.224H474.837V310.281Z" fill="#004385"/>
<path d="M562.327 311.269H532.668V313.741H562.327V311.269Z" fill="#8C8CA1"/>
<path d="M527.727 310.281H522.783V315.224H527.727V310.281Z" fill="#004385"/>
<path d="M615.219 311.269H585.561V313.741H615.219V311.269Z" fill="#8C8CA1"/>
<path d="M580.618 310.281H575.675V315.224H580.618V310.281Z" fill="#004385"/>
<path d="M461.491 295.452H417.004V300.395H461.491V295.452Z" fill="#004385"/>
<path d="M851.991 292.979H842.105V302.866H851.991V292.979Z" fill="#004385"/>
<path d="M834.692 292.979H824.806V302.866H834.692V292.979Z" fill="#F68C3E"/>
<path d="M817.391 292.979H807.505V302.866H817.391V292.979Z" fill="#004385"/>
<path d="M800.09 292.979H790.204V302.866H800.09V292.979Z" fill="#004385"/>
<path d="M859.025 333.165H414.912C408.229 333.165 402.81 338.583 402.81 345.267V359.336C402.81 366.02 408.229 371.438 414.912 371.438H859.025C865.709 371.438 871.127 366.02 871.127 359.336V345.267C871.127 338.583 865.709 333.165 859.025 333.165Z" fill="white" stroke="#DEDFE1"/>
<path d="M870.49 332.719H403.447C402.849 332.719 402.365 333.204 402.365 333.802V370.802C402.365 371.4 402.849 371.884 403.447 371.884H870.49C871.088 371.884 871.573 371.4 871.573 370.802V333.802C871.573 333.204 871.088 332.719 870.49 332.719Z" fill="white" stroke="#DEDFE1" stroke-width="0.3"/>
<path d="M738.3 346.37H708.642V348.842H738.3V346.37Z" fill="#8C8CA1"/>
<path d="M758.073 359.222H708.642V364.165H758.073V359.222Z" fill="#8C8CA1"/>
<path d="M748.187 359.222H708.642V364.165H748.187V359.222Z" fill="#004385"/>
<path d="M772.903 359.222H765.489V364.165H772.903V359.222Z" fill="#8C8CA1"/>
<path d="M656.74 346.37H627.082V348.842H656.74V346.37Z" fill="#8C8CA1"/>
<path d="M656.74 360.706H627.082V363.178H656.74V360.706Z" fill="#8C8CA1"/>
<path d="M456.547 360.706H426.889V363.178H456.547V360.706Z" fill="#8C8CA1"/>
<path d="M421.947 359.718H417.004V364.661H421.947V359.718Z" fill="#004385"/>
<path d="M509.438 360.706H479.78V363.178H509.438V360.706Z" fill="#8C8CA1"/>
<path d="M474.837 359.718H469.894V364.661H474.837V359.718Z" fill="#004385"/>
<path d="M562.327 360.706H532.668V363.178H562.327V360.706Z" fill="#8C8CA1"/>
<path d="M527.727 359.718H522.783V364.661H527.727V359.718Z" fill="#004385"/>
<path d="M615.219 360.706H585.561V363.178H615.219V360.706Z" fill="#8C8CA1"/>
<path d="M580.618 359.718H575.675V364.661H580.618V359.718Z" fill="#004385"/>
<path d="M461.491 344.886H417.004V349.83H461.491V344.886Z" fill="#004385"/>
<path d="M851.991 342.415H842.105V352.302H851.991V342.415Z" fill="#004385"/>
<path d="M834.692 342.415H824.806V352.302H834.692V342.415Z" fill="#F68C3E"/>
<path d="M817.391 342.415H807.505V352.302H817.391V342.415Z" fill="#004385"/>
<path d="M800.09 342.415H790.204V352.302H800.09V342.415Z" fill="#004385"/>
<path d="M859.025 422.146H414.912C408.229 422.146 402.81 427.565 402.81 434.249V448.318C402.81 455.002 408.229 460.42 414.912 460.42H859.025C865.709 460.42 871.127 455.002 871.127 448.318V434.249C871.127 427.565 865.709 422.146 859.025 422.146Z" fill="white" stroke="#DEDFE1"/>
<path d="M870.49 421.7H403.447C402.849 421.7 402.365 422.185 402.365 422.783V459.783C402.365 460.381 402.849 460.866 403.447 460.866H870.49C871.088 460.866 871.573 460.381 871.573 459.783V422.783C871.573 422.185 871.088 421.7 870.49 421.7Z" fill="white" stroke="#DEDFE1" stroke-width="0.3"/>
<path d="M738.3 435.349H708.642V437.821H738.3V435.349Z" fill="#8C8CA1"/>
<path d="M758.073 448.201H708.642V453.144H758.073V448.201Z" fill="#8C8CA1"/>
<path d="M748.187 448.201H708.642V453.144H748.187V448.201Z" fill="#004385"/>
<path d="M772.903 448.201H765.489V453.144H772.903V448.201Z" fill="#8C8CA1"/>
<path d="M656.74 435.349H627.082V437.821H656.74V435.349Z" fill="#8C8CA1"/>
<path d="M656.74 449.685H627.082V452.157H656.74V449.685Z" fill="#8C8CA1"/>
<path d="M456.547 449.685H426.889V452.157H456.547V449.685Z" fill="#8C8CA1"/>
<path d="M421.947 448.697H417.004V453.64H421.947V448.697Z" fill="#004385"/>
<path d="M509.438 449.685H479.78V452.157H509.438V449.685Z" fill="#8C8CA1"/>
<path d="M474.837 448.697H469.894V453.64H474.837V448.697Z" fill="#004385"/>
<path d="M562.327 449.685H532.668V452.157H562.327V449.685Z" fill="#8C8CA1"/>
<path d="M527.727 448.697H522.783V453.64H527.727V448.697Z" fill="#004385"/>
<path d="M615.219 449.685H585.561V452.157H615.219V449.685Z" fill="#8C8CA1"/>
<path d="M580.618 448.697H575.675V453.64H580.618V448.697Z" fill="#004385"/>
<path d="M461.491 433.865H417.004V438.809H461.491V433.865Z" fill="#004385"/>
<path d="M851.991 431.394H842.105V441.281H851.991V431.394Z" fill="#004385"/>
<path d="M834.692 431.394H824.806V441.281H834.692V431.394Z" fill="#F68C3E"/>
<path d="M817.391 431.394H807.505V441.281H817.391V431.394Z" fill="#004385"/>
<path d="M800.09 431.394H790.204V441.281H800.09V431.394Z" fill="#004385"/>
<path d="M193.635 621.923C223.942 621.923 248.511 597.352 248.511 567.043C248.511 536.733 223.942 512.162 193.635 512.162C163.328 512.162 138.76 536.733 138.76 567.043C138.76 597.352 163.328 621.923 193.635 621.923Z" fill="#ECF1F4" stroke="white" stroke-width="1.86042"/>
<path d="M193.624 605.215C214.779 605.215 231.928 588.064 231.928 566.907C231.928 545.751 214.779 528.6 193.624 528.6C172.469 528.6 155.32 545.751 155.32 566.907C155.32 588.064 172.469 605.215 193.624 605.215Z" fill="white" stroke="white" stroke-width="1.86042"/>
<path d="M347.067 492.083C377.374 492.083 401.943 467.513 401.943 437.203C401.943 406.893 377.374 382.323 347.067 382.323C316.76 382.323 292.192 406.893 292.192 437.203C292.192 467.513 316.76 492.083 347.067 492.083Z" fill="#ECF1F4" stroke="white" stroke-width="1.86042"/>
<path d="M347.122 475.183C368.579 475.183 385.974 458.072 385.974 436.965C385.974 415.857 368.579 398.746 347.122 398.746C325.664 398.746 308.27 415.857 308.27 436.965C308.27 458.072 325.664 475.183 347.122 475.183Z" fill="white"/>
<path fill-rule="evenodd" clip-rule="evenodd" d="M665.742 349.263C695.394 349.263 719.433 325.223 719.433 295.568C719.433 265.913 695.394 241.872 665.742 241.872C636.089 241.872 612.052 265.913 612.052 295.568C612.052 325.223 636.089 349.263 665.742 349.263ZM665.742 351.633C696.704 351.633 721.802 326.531 721.802 295.568C721.802 264.603 696.704 239.502 665.742 239.502C634.781 239.502 609.681 264.603 609.681 295.568C609.681 326.531 634.781 351.633 665.742 351.633ZM506.41 561.723C536.062 561.723 560.099 537.682 560.099 508.027C560.099 478.372 536.062 454.331 506.41 454.331C476.757 454.331 452.718 478.372 452.718 508.027C452.718 537.682 476.757 561.723 506.41 561.723ZM506.41 564.092C537.37 564.092 562.47 538.99 562.47 508.027C562.47 477.062 537.37 451.962 506.41 451.962C475.448 451.962 450.349 477.062 450.349 508.027C450.349 538.99 475.448 564.092 506.41 564.092ZM624.314 334.601L532.097 457.163L533.991 458.589L626.207 336.027L624.314 334.601Z" fill="#ECF1F4"/>
<path d="M532.096 457.163L524.462 451.418L518.719 459.053L526.353 464.798L532.096 457.163ZM624.314 334.602L630.057 326.967L622.423 321.223L616.68 328.857L624.314 334.602ZM533.991 458.589L528.246 466.222L535.88 471.968L541.625 464.333L533.991 458.589ZM626.207 336.027L633.841 341.771L639.586 334.137L631.952 328.392L626.207 336.027ZM709.879 295.568C709.879 319.946 690.118 339.709 665.742 339.709V358.818C700.67 358.818 728.987 330.5 728.987 295.568H709.879ZM665.742 251.427C690.118 251.427 709.879 271.19 709.879 295.568H728.987C728.987 260.636 700.67 232.318 665.742 232.318V251.427ZM621.606 295.568C621.606 271.19 641.365 251.427 665.742 251.427V232.318C630.813 232.318 602.498 260.636 602.498 295.568H621.606ZM665.742 339.709C641.365 339.709 621.606 319.946 621.606 295.568H602.498C602.498 330.5 630.813 358.818 665.742 358.818V339.709ZM712.248 295.568C712.248 321.255 691.427 342.079 665.742 342.079V361.188C701.98 361.188 731.356 331.809 731.356 295.568H712.248ZM665.742 249.057C691.427 249.057 712.248 269.881 712.248 295.568H731.356C731.356 259.327 701.98 229.948 665.742 229.948V249.057ZM619.235 295.568C619.235 269.881 640.057 249.057 665.742 249.057V229.948C629.505 229.948 600.127 259.327 600.127 295.568H619.235ZM665.742 342.079C640.057 342.079 619.235 321.255 619.235 295.568H600.127C600.127 331.809 629.505 361.188 665.742 361.188V342.079ZM550.546 508.027C550.546 532.405 530.784 552.168 506.409 552.168V571.277C541.338 571.277 569.653 542.959 569.653 508.027H550.546ZM506.409 463.886C530.784 463.886 550.546 483.649 550.546 508.027H569.653C569.653 473.095 541.338 444.777 506.409 444.777V463.886ZM462.272 508.027C462.272 483.649 482.033 463.886 506.409 463.886V444.777C471.479 444.777 443.164 473.095 443.164 508.027H462.272ZM506.409 552.168C482.033 552.168 462.272 532.405 462.272 508.027H443.164C443.164 542.959 471.479 571.277 506.409 571.277V552.168ZM552.916 508.027C552.916 533.714 532.094 554.538 506.409 554.538V573.647C542.646 573.647 572.024 544.268 572.024 508.027H552.916ZM506.409 461.516C532.094 461.516 552.916 482.34 552.916 508.027H572.024C572.024 471.786 542.646 442.407 506.409 442.407V461.516ZM459.903 508.027C459.903 482.34 480.724 461.516 506.409 461.516V442.407C470.171 442.407 440.795 471.786 440.795 508.027H459.903ZM506.409 554.538C480.724 554.538 459.903 533.714 459.903 508.027H440.795C440.795 544.268 470.171 573.647 506.409 573.647V554.538ZM539.731 462.908L631.947 340.347L616.68 328.857L524.462 451.418L539.731 462.908ZM539.734 450.954L537.842 449.529L526.353 464.798L528.246 466.222L539.734 450.954ZM618.573 330.282L526.357 452.843L541.625 464.333L633.841 341.771L618.573 330.282ZM618.569 342.236L620.463 343.662L631.952 328.392L630.057 326.967L618.569 342.236Z" fill="#ECF1F4"/>
<path d="M388.853 454.847L465.568 484.354" stroke="#ECF1F4" stroke-width="15"/>
<path d="M231.418 539.365L308.132 468.546" stroke="#ECF1F4" stroke-width="15"/>
<path d="M193.624 603.852C214.026 603.852 230.565 587.311 230.565 566.907C230.565 546.504 214.026 529.963 193.624 529.963C173.222 529.963 156.683 546.504 156.683 566.907C156.683 587.311 173.222 603.852 193.624 603.852Z" fill="#DEDFE1"/>
<path d="M193.624 529.963C201.76 529.963 209.669 532.65 216.123 537.605C222.576 542.561 227.213 549.509 229.313 557.371C231.414 565.232 230.86 573.566 227.739 581.081C224.617 588.595 219.102 594.869 212.05 598.928C204.998 602.987 196.803 604.604 188.739 603.527C180.673 602.451 173.189 598.742 167.448 592.976C161.707 587.21 158.029 579.711 156.987 571.64C155.945 563.57 157.596 555.382 161.684 548.346L193.624 566.907V529.963Z" fill="#F68C3E"/>
<path d="M193.624 529.963C200.208 529.963 206.673 531.724 212.349 535.061C218.026 538.399 222.707 543.194 225.907 548.949C229.108 554.704 230.713 561.21 230.555 567.793C230.397 574.377 228.483 580.799 225.009 586.393C221.536 591.988 216.631 596.552 210.802 599.615C204.973 602.677 198.43 604.125 191.853 603.81C185.275 603.494 178.902 601.425 173.393 597.819C167.883 594.213 163.438 589.199 160.517 583.297L193.624 566.907V529.963Z" fill="#004385"/>
<path d="M193.624 529.963C202.084 529.963 210.286 532.866 216.861 538.188C223.437 543.509 227.988 550.927 229.753 559.2C231.517 567.474 230.39 576.103 226.557 583.645C222.725 591.186 216.421 597.184 208.699 600.637L193.624 566.907V529.963Z" fill="#004385"/>
<path d="M193.624 548.435C203.825 548.435 212.095 556.706 212.095 566.908C212.095 577.11 203.825 585.38 193.624 585.38C183.423 585.38 175.153 577.11 175.153 566.908C175.153 556.706 183.423 548.435 193.624 548.435Z" fill="white"/>
<path d="M666.219 341.418C691.546 341.418 712.078 320.885 712.078 295.556C712.078 270.227 691.546 249.694 666.219 249.694C640.892 249.694 620.361 270.227 620.361 295.556C620.361 320.885 640.892 341.418 666.219 341.418Z" fill="#DEDFE1"/>
<path d="M666.219 249.694C676.32 249.694 686.137 253.029 694.148 259.181C702.16 265.333 707.916 273.958 710.524 283.717C713.131 293.476 712.443 303.823 708.568 313.151C704.693 322.48 697.848 330.268 689.092 335.306C680.339 340.345 670.166 342.351 660.155 341.016C650.142 339.68 640.852 335.075 633.725 327.917C626.598 320.76 622.032 311.45 620.739 301.432C619.445 291.413 621.495 281.249 626.568 272.514L666.219 295.556V249.694Z" fill="#004385"/>
<path d="M666.219 272.625C678.883 272.625 689.148 282.892 689.148 295.556C689.148 308.221 678.883 318.487 666.219 318.487C653.556 318.487 643.29 308.221 643.29 295.556C643.29 282.892 653.556 272.625 666.219 272.625Z" fill="white"/>
<path d="M330.334 455.809H327.258V457.347H330.334V455.809Z" fill="#C4C4C4"/>
<path d="M341.87 455.809H338.794V457.347H341.87V455.809Z" fill="#C4C4C4"/>
<path d="M352.638 455.809H349.561V457.347H352.638V455.809Z" fill="#C4C4C4"/>
<path d="M363.406 455.809H360.329V457.347H363.406V455.809Z" fill="#C4C4C4"/>
<path d="M374.173 455.809H371.097V457.347H374.173V455.809Z" fill="#C4C4C4"/>
<path d="M377.248 451.963H323.411V453.501H377.248V451.963Z" fill="#C4C4C4"/>
<path d="M323.411 416.582H321.873V453.502H323.411V416.582Z" fill="#C4C4C4"/>
<path d="M318.797 421.197H317.259V422.735H318.797V421.197Z" fill="#C4C4C4"/>
<path d="M318.797 428.889H317.259V430.427H318.797V428.889Z" fill="#C4C4C4"/>
<path d="M318.797 436.58H317.259V438.118H318.797V436.58Z" fill="#C4C4C4"/>
<path d="M318.797 444.271H317.259V445.809H318.797V444.271Z" fill="#C4C4C4"/>
<path d="M318.797 451.963H317.259V453.501H318.797V451.963Z" fill="#C4C4C4"/>
<path d="M332.641 436.58H326.488V451.964H332.641V436.58Z" fill="#004385"/>
<path d="M343.409 425.043H337.256V451.964H343.409V425.043Z" fill="#004385"/>
<path d="M354.177 432.734H348.024V451.963H354.177V432.734Z" fill="#004385"/>
<path d="M364.944 421.967H358.792V451.964H364.944V421.967Z" fill="#004385"/>
<path d="M375.711 442.733H369.558V451.963H375.711V442.733Z" fill="#004385"/>
<path d="M506.989 556.716C533.723 556.716 555.395 535.042 555.395 508.306C555.395 481.57 533.723 459.896 506.989 459.896C480.255 459.896 458.583 481.57 458.583 508.306C458.583 535.042 480.255 556.716 506.989 556.716Z" fill="white"/>
<path d="M488.578 529.507H485.117V531.237H488.578V529.507Z" fill="#C4C4C4"/>
<path d="M501.557 529.507H498.096V531.237H501.557V529.507Z" fill="#C4C4C4"/>
<path d="M513.67 529.507H510.209V531.237H513.67V529.507Z" fill="#C4C4C4"/>
<path d="M525.785 529.507H522.324V531.237H525.785V529.507Z" fill="#C4C4C4"/>
<path d="M537.898 529.507H534.437V531.237H537.898V529.507Z" fill="#C4C4C4"/>
<path d="M541.358 525.179H480.791V526.91H541.358V525.179Z" fill="#C4C4C4"/>
<path d="M480.792 485.375H479.061V526.91H480.792V485.375Z" fill="#C4C4C4"/>
<path d="M475.6 490.567H473.869V492.298H475.6V490.567Z" fill="#C4C4C4"/>
<path d="M475.6 499.219H473.869V500.949H475.6V499.219Z" fill="#C4C4C4"/>
<path d="M475.6 507.874H473.869V509.605H475.6V507.874Z" fill="#C4C4C4"/>
<path d="M475.6 516.527H473.869V518.257H475.6V516.527Z" fill="#C4C4C4"/>
<path d="M475.6 525.179H473.869V526.91H475.6V525.179Z" fill="#C4C4C4"/>
<path d="M492.904 507.874H482.521V525.18H492.904V507.874Z" fill="#004385"/>
<path d="M505.017 494.894H494.634V525.18H505.017V494.894Z" fill="#004385"/>
<path d="M517.131 503.546H506.748V525.179H517.131V503.546Z" fill="#004385"/>
<path d="M529.244 491.431H518.861V525.178H529.244V491.431Z" fill="#004385"/>
<path d="M541.358 514.797H530.976V525.18H541.358V514.797Z" fill="#004385"/>
<defs>
<filter id="filter0_d_3259_44" x="3.78207" y="201.476" width="325.722" height="450.627" filterUnits="userSpaceOnUse" color-interpolation-filters="sRGB">
<feFlood flood-opacity="0" result="BackgroundImageFix"/>
<feColorMatrix in="SourceAlpha" type="matrix" values="0 0 0 0 0 0 0 0 0 0 0 0 0 0 0 0 0 0 127 0" result="hardAlpha"/>
<feOffset/>
<feGaussianBlur stdDeviation="5"/>
<feComposite in2="hardAlpha" operator="out"/>
<feColorMatrix type="matrix" values="0 0 0 0 0 0 0 0 0 0 0 0 0 0 0 0 0 0 0.15 0"/>
<feBlend mode="normal" in2="BackgroundImageFix" result="effect1_dropShadow_3259_44"/>
<feBlend mode="normal" in="SourceGraphic" in2="effect1_dropShadow_3259_44" result="shape"/>
</filter>
<filter id="filter1_d_3259_44" x="197.766" y="567.05" width="30.9068" height="52.9058" filterUnits="userSpaceOnUse" color-interpolation-filters="sRGB">
<feFlood flood-opacity="0" result="BackgroundImageFix"/>
<feColorMatrix in="SourceAlpha" type="matrix" values="0 0 0 0 0 0 0 0 0 0 0 0 0 0 0 0 0 0 127 0" result="hardAlpha"/>
<feOffset dy="4"/>
<feGaussianBlur stdDeviation="2"/>
<feColorMatrix type="matrix" values="0 0 0 0 0 0 0 0 0 0 0 0 0 0 0 0 0 0 0.25 0"/>
<feBlend mode="normal" in2="BackgroundImageFix" result="effect1_dropShadow_3259_44"/>
<feBlend mode="normal" in="SourceGraphic" in2="effect1_dropShadow_3259_44" result="shape"/>
</filter>
<filter id="filter2_d_3259_44" x="254.771" y="492.836" width="24.137" height="16.4573" filterUnits="userSpaceOnUse" color-interpolation-filters="sRGB">
<feFlood flood-opacity="0" result="BackgroundImageFix"/>
<feColorMatrix in="SourceAlpha" type="matrix" values="0 0 0 0 0 0 0 0 0 0 0 0 0 0 0 0 0 0 127 0" result="hardAlpha"/>
<feOffset dy="2"/>
<feGaussianBlur stdDeviation="1.5"/>
<feColorMatrix type="matrix" values="0 0 0 0 0 0 0 0 0 0 0 0 0 0 0 0 0 0 0.1 0"/>
<feBlend mode="normal" in2="BackgroundImageFix" result="effect1_dropShadow_3259_44"/>
<feBlend mode="normal" in="SourceGraphic" in2="effect1_dropShadow_3259_44" result="shape"/>
</filter>
<filter id="filter3_d_3259_44" x="266.235" y="504.922" width="1.20911" height="1.20923" filterUnits="userSpaceOnUse" color-interpolation-filters="sRGB">
<feFlood flood-opacity="0" result="BackgroundImageFix"/>
<feColorMatrix in="SourceAlpha" type="matrix" values="0 0 0 0 0 0 0 0 0 0 0 0 0 0 0 0 0 0 127 0" result="hardAlpha"/>
<feOffset/>
<feColorMatrix type="matrix" values="0 0 0 0 0 0 0 0 0 0 0 0 0 0 0 0 0 0 0.25 0"/>
<feBlend mode="normal" in2="BackgroundImageFix" result="effect1_dropShadow_3259_44"/>
<feBlend mode="normal" in="SourceGraphic" in2="effect1_dropShadow_3259_44" result="shape"/>
</filter>
<filter id="filter4_d_3259_44" x="64.2834" y="575.675" width="24.4" height="11.7322" filterUnits="userSpaceOnUse" color-interpolation-filters="sRGB">
<feFlood flood-opacity="0" result="BackgroundImageFix"/>
<feColorMatrix in="SourceAlpha" type="matrix" values="0 0 0 0 0 0 0 0 0 0 0 0 0 0 0 0 0 0 127 0" result="hardAlpha"/>
<feOffset dy="2"/>
<feGaussianBlur stdDeviation="1.5"/>
<feColorMatrix type="matrix" values="0 0 0 0 0 0 0 0 0 0 0 0 0 0 0 0 0 0 0.1 0"/>
<feBlend mode="normal" in2="BackgroundImageFix" result="effect1_dropShadow_3259_44"/>
<feBlend mode="normal" in="SourceGraphic" in2="effect1_dropShadow_3259_44" result="shape"/>
</filter>
<filter id="filter5_d_3259_44" x="75.8402" y="583.038" width="1.22346" height="1.22119" filterUnits="userSpaceOnUse" color-interpolation-filters="sRGB">
<feFlood flood-opacity="0" result="BackgroundImageFix"/>
<feColorMatrix in="SourceAlpha" type="matrix" values="0 0 0 0 0 0 0 0 0 0 0 0 0 0 0 0 0 0 127 0" result="hardAlpha"/>
<feOffset/>
<feColorMatrix type="matrix" values="0 0 0 0 0 0 0 0 0 0 0 0 0 0 0 0 0 0 0.25 0"/>
<feBlend mode="normal" in2="BackgroundImageFix" result="effect1_dropShadow_3259_44"/>
<feBlend mode="normal" in="SourceGraphic" in2="effect1_dropShadow_3259_44" result="shape"/>
</filter>
<filter id="filter6_d_3259_44" x="337.743" y="4.10913" width="563.851" height="484.8" filterUnits="userSpaceOnUse" color-interpolation-filters="sRGB">
<feFlood flood-opacity="0" result="BackgroundImageFix"/>
<feColorMatrix in="SourceAlpha" type="matrix" values="0 0 0 0 0 0 0 0 0 0 0 0 0 0 0 0 0 0 127 0" result="hardAlpha"/>
<feOffset/>
<feGaussianBlur stdDeviation="7.5"/>
<feComposite in2="hardAlpha" operator="out"/>
<feColorMatrix type="matrix" values="0 0 0 0 0 0 0 0 0 0 0 0 0 0 0 0 0 0 0.1 0"/>
<feBlend mode="normal" in2="BackgroundImageFix" result="effect1_dropShadow_3259_44"/>
<feBlend mode="normal" in="SourceGraphic" in2="effect1_dropShadow_3259_44" result="shape"/>
</filter>
<linearGradient id="paint0_linear_3259_44" x1="48.1562" y1="402.097" x2="155.409" y2="402.335" gradientUnits="userSpaceOnUse">
<stop offset="0.0729167" stop-color="#64B1FF"/>
<stop offset="1" stop-color="#153F68"/>
</linearGradient>
</defs>
</svg>
